G04 #@! TF.GenerationSoftware,KiCad,Pcbnew,(6.0.1)*
G04 #@! TF.CreationDate,2022-06-06T22:48:31+03:00*
G04 #@! TF.ProjectId,5.0mustangProteusPnP,352e306d-7573-4746-916e-6750726f7465,R0.1*
G04 #@! TF.SameCoordinates,PX1312d00PYfeced300*
G04 #@! TF.FileFunction,Legend,Bot*
G04 #@! TF.FilePolarity,Positive*
%FSLAX46Y46*%
G04 Gerber Fmt 4.6, Leading zero omitted, Abs format (unit mm)*
G04 Created by KiCad (PCBNEW (6.0.1)) date 2022-06-06 22:48:31*
%MOMM*%
%LPD*%
G01*
G04 APERTURE LIST*
G04 #@! TA.AperFunction,Profile*
%ADD10C,0.200000*%
G04 #@! TD*
%ADD11C,0.130000*%
%ADD12C,0.150000*%
%ADD13C,0.300000*%
%ADD14C,0.152400*%
%ADD15C,0.139700*%
%ADD16C,0.200000*%
%ADD17C,0.120000*%
%ADD18C,0.500000*%
G04 APERTURE END LIST*
D10*
X0Y1270000D02*
X0Y137844000D01*
X128521100Y149606000D02*
X11753100Y149606000D01*
X11753100Y149606000D02*
X0Y137844000D01*
X139700000Y1270000D02*
X139700000Y137844000D01*
X138430000Y0D02*
G75*
G03*
X139700000Y1270000I1J1269999D01*
G01*
X8350250Y138493500D02*
G75*
G03*
X8350250Y138493500I-2381250J0D01*
G01*
X128521100Y149606000D02*
X139700000Y137844000D01*
X0Y1270000D02*
G75*
G03*
X1270000Y0I1269999J-1D01*
G01*
X138430000Y0D02*
X1270000Y0D01*
X135992750Y138493500D02*
G75*
G03*
X135992750Y138493500I-2381250J0D01*
G01*
D11*
X98744395Y-85605780D02*
X98696014Y-85557400D01*
X98599252Y-85509019D01*
X98357347Y-85509019D01*
X98260585Y-85557400D01*
X98212204Y-85605780D01*
X98163823Y-85702542D01*
X98163823Y-85799304D01*
X98212204Y-85944447D01*
X98792776Y-86525019D01*
X98163823Y-86525019D01*
X97534871Y-85509019D02*
X97438109Y-85509019D01*
X97341347Y-85557400D01*
X97292966Y-85605780D01*
X97244585Y-85702542D01*
X97196204Y-85896066D01*
X97196204Y-86137971D01*
X97244585Y-86331495D01*
X97292966Y-86428257D01*
X97341347Y-86476638D01*
X97438109Y-86525019D01*
X97534871Y-86525019D01*
X97631633Y-86476638D01*
X97680014Y-86428257D01*
X97728395Y-86331495D01*
X97776776Y-86137971D01*
X97776776Y-85896066D01*
X97728395Y-85702542D01*
X97680014Y-85605780D01*
X97631633Y-85557400D01*
X97534871Y-85509019D01*
X95720585Y-91859019D02*
X95914109Y-91859019D01*
X96010871Y-91907400D01*
X96059252Y-91955780D01*
X96156014Y-92100923D01*
X96204395Y-92294447D01*
X96204395Y-92681495D01*
X96156014Y-92778257D01*
X96107633Y-92826638D01*
X96010871Y-92875019D01*
X95817347Y-92875019D01*
X95720585Y-92826638D01*
X95672204Y-92778257D01*
X95623823Y-92681495D01*
X95623823Y-92439590D01*
X95672204Y-92342828D01*
X95720585Y-92294447D01*
X95817347Y-92246066D01*
X96010871Y-92246066D01*
X96107633Y-92294447D01*
X96156014Y-92342828D01*
X96204395Y-92439590D01*
X94994871Y-91859019D02*
X94898109Y-91859019D01*
X94801347Y-91907400D01*
X94752966Y-91955780D01*
X94704585Y-92052542D01*
X94656204Y-92246066D01*
X94656204Y-92487971D01*
X94704585Y-92681495D01*
X94752966Y-92778257D01*
X94801347Y-92826638D01*
X94898109Y-92875019D01*
X94994871Y-92875019D01*
X95091633Y-92826638D01*
X95140014Y-92778257D01*
X95188395Y-92681495D01*
X95236776Y-92487971D01*
X95236776Y-92246066D01*
X95188395Y-92052542D01*
X95140014Y-91955780D01*
X95091633Y-91907400D01*
X94994871Y-91859019D01*
X96990585Y-89022685D02*
X96990585Y-89700019D01*
X97232490Y-88635638D02*
X97474395Y-89361352D01*
X96845442Y-89361352D01*
X96264871Y-88684019D02*
X96168109Y-88684019D01*
X96071347Y-88732400D01*
X96022966Y-88780780D01*
X95974585Y-88877542D01*
X95926204Y-89071066D01*
X95926204Y-89312971D01*
X95974585Y-89506495D01*
X96022966Y-89603257D01*
X96071347Y-89651638D01*
X96168109Y-89700019D01*
X96264871Y-89700019D01*
X96361633Y-89651638D01*
X96410014Y-89603257D01*
X96458395Y-89506495D01*
X96506776Y-89312971D01*
X96506776Y-89071066D01*
X96458395Y-88877542D01*
X96410014Y-88780780D01*
X96361633Y-88732400D01*
X96264871Y-88684019D01*
X137582204Y-91859019D02*
X138066014Y-91859019D01*
X138114395Y-92342828D01*
X138066014Y-92294447D01*
X137969252Y-92246066D01*
X137727347Y-92246066D01*
X137630585Y-92294447D01*
X137582204Y-92342828D01*
X137533823Y-92439590D01*
X137533823Y-92681495D01*
X137582204Y-92778257D01*
X137630585Y-92826638D01*
X137727347Y-92875019D01*
X137969252Y-92875019D01*
X138066014Y-92826638D01*
X138114395Y-92778257D01*
X136566204Y-92875019D02*
X137146776Y-92875019D01*
X136856490Y-92875019D02*
X136856490Y-91859019D01*
X136953252Y-92004161D01*
X137050014Y-92100923D01*
X137146776Y-92149304D01*
X194780585Y-92197685D02*
X194780585Y-92875019D01*
X195022490Y-91810638D02*
X195264395Y-92536352D01*
X194635442Y-92536352D01*
X193716204Y-92875019D02*
X194296776Y-92875019D01*
X194006490Y-92875019D02*
X194006490Y-91859019D01*
X194103252Y-92004161D01*
X194200014Y-92100923D01*
X194296776Y-92149304D01*
X139432776Y-88684019D02*
X138803823Y-88684019D01*
X139142490Y-89071066D01*
X138997347Y-89071066D01*
X138900585Y-89119447D01*
X138852204Y-89167828D01*
X138803823Y-89264590D01*
X138803823Y-89506495D01*
X138852204Y-89603257D01*
X138900585Y-89651638D01*
X138997347Y-89700019D01*
X139287633Y-89700019D01*
X139384395Y-89651638D01*
X139432776Y-89603257D01*
X137836204Y-89700019D02*
X138416776Y-89700019D01*
X138126490Y-89700019D02*
X138126490Y-88684019D01*
X138223252Y-88829161D01*
X138320014Y-88925923D01*
X138416776Y-88974304D01*
X152187204Y-91859019D02*
X152671014Y-91859019D01*
X152719395Y-92342828D01*
X152671014Y-92294447D01*
X152574252Y-92246066D01*
X152332347Y-92246066D01*
X152235585Y-92294447D01*
X152187204Y-92342828D01*
X152138823Y-92439590D01*
X152138823Y-92681495D01*
X152187204Y-92778257D01*
X152235585Y-92826638D01*
X152332347Y-92875019D01*
X152574252Y-92875019D01*
X152671014Y-92826638D01*
X152719395Y-92778257D01*
X151509871Y-91859019D02*
X151413109Y-91859019D01*
X151316347Y-91907400D01*
X151267966Y-91955780D01*
X151219585Y-92052542D01*
X151171204Y-92246066D01*
X151171204Y-92487971D01*
X151219585Y-92681495D01*
X151267966Y-92778257D01*
X151316347Y-92826638D01*
X151413109Y-92875019D01*
X151509871Y-92875019D01*
X151606633Y-92826638D01*
X151655014Y-92778257D01*
X151703395Y-92681495D01*
X151751776Y-92487971D01*
X151751776Y-92246066D01*
X151703395Y-92052542D01*
X151655014Y-91955780D01*
X151606633Y-91907400D01*
X151509871Y-91859019D01*
X154037776Y-88684019D02*
X153408823Y-88684019D01*
X153747490Y-89071066D01*
X153602347Y-89071066D01*
X153505585Y-89119447D01*
X153457204Y-89167828D01*
X153408823Y-89264590D01*
X153408823Y-89506495D01*
X153457204Y-89603257D01*
X153505585Y-89651638D01*
X153602347Y-89700019D01*
X153892633Y-89700019D01*
X153989395Y-89651638D01*
X154037776Y-89603257D01*
X152779871Y-88684019D02*
X152683109Y-88684019D01*
X152586347Y-88732400D01*
X152537966Y-88780780D01*
X152489585Y-88877542D01*
X152441204Y-89071066D01*
X152441204Y-89312971D01*
X152489585Y-89506495D01*
X152537966Y-89603257D01*
X152586347Y-89651638D01*
X152683109Y-89700019D01*
X152779871Y-89700019D01*
X152876633Y-89651638D01*
X152925014Y-89603257D01*
X152973395Y-89506495D01*
X153021776Y-89312971D01*
X153021776Y-89071066D01*
X152973395Y-88877542D01*
X152925014Y-88780780D01*
X152876633Y-88732400D01*
X152779871Y-88684019D01*
X154678823Y-86525019D02*
X155259395Y-86525019D01*
X154969109Y-86525019D02*
X154969109Y-85509019D01*
X155065871Y-85654161D01*
X155162633Y-85750923D01*
X155259395Y-85799304D01*
X154049871Y-85509019D02*
X153953109Y-85509019D01*
X153856347Y-85557400D01*
X153807966Y-85605780D01*
X153759585Y-85702542D01*
X153711204Y-85896066D01*
X153711204Y-86137971D01*
X153759585Y-86331495D01*
X153807966Y-86428257D01*
X153856347Y-86476638D01*
X153953109Y-86525019D01*
X154049871Y-86525019D01*
X154146633Y-86476638D01*
X154195014Y-86428257D01*
X154243395Y-86331495D01*
X154291776Y-86137971D01*
X154291776Y-85896066D01*
X154243395Y-85702542D01*
X154195014Y-85605780D01*
X154146633Y-85557400D01*
X154049871Y-85509019D01*
X196534395Y-88780780D02*
X196486014Y-88732400D01*
X196389252Y-88684019D01*
X196147347Y-88684019D01*
X196050585Y-88732400D01*
X196002204Y-88780780D01*
X195953823Y-88877542D01*
X195953823Y-88974304D01*
X196002204Y-89119447D01*
X196582776Y-89700019D01*
X195953823Y-89700019D01*
X194986204Y-89700019D02*
X195566776Y-89700019D01*
X195276490Y-89700019D02*
X195276490Y-88684019D01*
X195373252Y-88829161D01*
X195470014Y-88925923D01*
X195566776Y-88974304D01*
X196740014Y-86525019D02*
X197320585Y-86525019D01*
X197030300Y-86525019D02*
X197030300Y-85509019D01*
X197127061Y-85654161D01*
X197223823Y-85750923D01*
X197320585Y-85799304D01*
X140073823Y-86525019D02*
X140654395Y-86525019D01*
X140364109Y-86525019D02*
X140364109Y-85509019D01*
X140460871Y-85654161D01*
X140557633Y-85750923D01*
X140654395Y-85799304D01*
X139106204Y-86525019D02*
X139686776Y-86525019D01*
X139396490Y-86525019D02*
X139396490Y-85509019D01*
X139493252Y-85654161D01*
X139590014Y-85750923D01*
X139686776Y-85799304D01*
X127221786Y-183100899D02*
X127221786Y-183826613D01*
X127270167Y-183971756D01*
X127366929Y-184068518D01*
X127512072Y-184116899D01*
X127608834Y-184116899D01*
X126302548Y-183439565D02*
X126302548Y-184116899D01*
X126544453Y-183052518D02*
X126786358Y-183778232D01*
X126157405Y-183778232D01*
X146166195Y-88607819D02*
X146166195Y-89430295D01*
X146117814Y-89527057D01*
X146069433Y-89575438D01*
X145972671Y-89623819D01*
X145779147Y-89623819D01*
X145682385Y-89575438D01*
X145634004Y-89527057D01*
X145585623Y-89430295D01*
X145585623Y-88607819D01*
X144569623Y-89623819D02*
X145150195Y-89623819D01*
X144859909Y-89623819D02*
X144859909Y-88607819D01*
X144956671Y-88752961D01*
X145053433Y-88849723D01*
X145150195Y-88898104D01*
X166223486Y-183032319D02*
X166223486Y-183758033D01*
X166271867Y-183903176D01*
X166368629Y-183999938D01*
X166513772Y-184048319D01*
X166610534Y-184048319D01*
X165788058Y-183129080D02*
X165739677Y-183080700D01*
X165642915Y-183032319D01*
X165401010Y-183032319D01*
X165304248Y-183080700D01*
X165255867Y-183129080D01*
X165207486Y-183225842D01*
X165207486Y-183322604D01*
X165255867Y-183467747D01*
X165836439Y-184048319D01*
X165207486Y-184048319D01*
D12*
G04 #@! TO.C,J1*
X128555714Y134421619D02*
X127984285Y134421619D01*
X128270000Y134421619D02*
X128270000Y135421619D01*
X128174761Y135278761D01*
X128079523Y135183523D01*
X127984285Y135135904D01*
X119046666Y135421619D02*
X119665714Y135421619D01*
X119332380Y135040666D01*
X119475238Y135040666D01*
X119570476Y134993047D01*
X119618095Y134945428D01*
X119665714Y134850190D01*
X119665714Y134612095D01*
X119618095Y134516857D01*
X119570476Y134469238D01*
X119475238Y134421619D01*
X119189523Y134421619D01*
X119094285Y134469238D01*
X119046666Y134516857D01*
X119046666Y135421619D02*
X119665714Y135421619D01*
X119332380Y135040666D01*
X119475238Y135040666D01*
X119570476Y134993047D01*
X119618095Y134945428D01*
X119665714Y134850190D01*
X119665714Y134612095D01*
X119618095Y134516857D01*
X119570476Y134469238D01*
X119475238Y134421619D01*
X119189523Y134421619D01*
X119094285Y134469238D01*
X119046666Y134516857D01*
X128555714Y134421619D02*
X127984285Y134421619D01*
X128270000Y134421619D02*
X128270000Y135421619D01*
X128174761Y135278761D01*
X128079523Y135183523D01*
X127984285Y135135904D01*
G04 #@! TO.C,BRD1*
X14121380Y76117476D02*
X14121380Y76688904D01*
X14121380Y76403190D02*
X13121380Y76403190D01*
X13264238Y76498428D01*
X13359476Y76593666D01*
X13407095Y76688904D01*
X13121380Y75784142D02*
X13121380Y75165095D01*
X13502333Y75498428D01*
X13502333Y75355571D01*
X13549952Y75260333D01*
X13597571Y75212714D01*
X13692809Y75165095D01*
X13930904Y75165095D01*
X14026142Y75212714D01*
X14073761Y75260333D01*
X14121380Y75355571D01*
X14121380Y75641285D01*
X14073761Y75736523D01*
X14026142Y75784142D01*
X13121380Y95500904D02*
X13121380Y95977095D01*
X13597571Y96024714D01*
X13549952Y95977095D01*
X13502333Y95881857D01*
X13502333Y95643761D01*
X13549952Y95548523D01*
X13597571Y95500904D01*
X13692809Y95453285D01*
X13930904Y95453285D01*
X14026142Y95500904D01*
X14073761Y95548523D01*
X14121380Y95643761D01*
X14121380Y95881857D01*
X14073761Y95977095D01*
X14026142Y96024714D01*
X75327523Y114447619D02*
X75518000Y114447619D01*
X75613238Y114400000D01*
X75660857Y114352380D01*
X75756095Y114209523D01*
X75803714Y114019047D01*
X75803714Y113638095D01*
X75756095Y113542857D01*
X75708476Y113495238D01*
X75613238Y113447619D01*
X75422761Y113447619D01*
X75327523Y113495238D01*
X75279904Y113542857D01*
X75232285Y113638095D01*
X75232285Y113876190D01*
X75279904Y113971428D01*
X75327523Y114019047D01*
X75422761Y114066666D01*
X75613238Y114066666D01*
X75708476Y114019047D01*
X75756095Y113971428D01*
X75803714Y113876190D01*
X125921380Y108853761D02*
X125921380Y109329952D01*
X126397571Y109377571D01*
X126349952Y109329952D01*
X126302333Y109234714D01*
X126302333Y108996619D01*
X126349952Y108901380D01*
X126397571Y108853761D01*
X126492809Y108806142D01*
X126730904Y108806142D01*
X126826142Y108853761D01*
X126873761Y108901380D01*
X126921380Y108996619D01*
X126921380Y109234714D01*
X126873761Y109329952D01*
X126826142Y109377571D01*
X126254714Y108472809D02*
X126921380Y108234714D01*
X126254714Y107996619D01*
X126873761Y106901380D02*
X126921380Y106758523D01*
X126921380Y106520428D01*
X126873761Y106425190D01*
X126826142Y106377571D01*
X126730904Y106329952D01*
X126635666Y106329952D01*
X126540428Y106377571D01*
X126492809Y106425190D01*
X126445190Y106520428D01*
X126397571Y106710904D01*
X126349952Y106806142D01*
X126302333Y106853761D01*
X126207095Y106901380D01*
X126111857Y106901380D01*
X126016619Y106853761D01*
X125969000Y106806142D01*
X125921380Y106710904D01*
X125921380Y106472809D01*
X125969000Y106329952D01*
X126873761Y105520428D02*
X126921380Y105615666D01*
X126921380Y105806142D01*
X126873761Y105901380D01*
X126778523Y105949000D01*
X126397571Y105949000D01*
X126302333Y105901380D01*
X126254714Y105806142D01*
X126254714Y105615666D01*
X126302333Y105520428D01*
X126397571Y105472809D01*
X126492809Y105472809D01*
X126588047Y105949000D01*
X126254714Y105044238D02*
X126921380Y105044238D01*
X126349952Y105044238D02*
X126302333Y104996619D01*
X126254714Y104901380D01*
X126254714Y104758523D01*
X126302333Y104663285D01*
X126397571Y104615666D01*
X126921380Y104615666D01*
X126873761Y104187095D02*
X126921380Y104091857D01*
X126921380Y103901380D01*
X126873761Y103806142D01*
X126778523Y103758523D01*
X126730904Y103758523D01*
X126635666Y103806142D01*
X126588047Y103901380D01*
X126588047Y104044238D01*
X126540428Y104139476D01*
X126445190Y104187095D01*
X126397571Y104187095D01*
X126302333Y104139476D01*
X126254714Y104044238D01*
X126254714Y103901380D01*
X126302333Y103806142D01*
X126921380Y103187095D02*
X126873761Y103282333D01*
X126826142Y103329952D01*
X126730904Y103377571D01*
X126445190Y103377571D01*
X126349952Y103329952D01*
X126302333Y103282333D01*
X126254714Y103187095D01*
X126254714Y103044238D01*
X126302333Y102949000D01*
X126349952Y102901380D01*
X126445190Y102853761D01*
X126730904Y102853761D01*
X126826142Y102901380D01*
X126873761Y102949000D01*
X126921380Y103044238D01*
X126921380Y103187095D01*
X126921380Y102425190D02*
X126254714Y102425190D01*
X126445190Y102425190D02*
X126349952Y102377571D01*
X126302333Y102329952D01*
X126254714Y102234714D01*
X126254714Y102139476D01*
X126873761Y101091857D02*
X126921380Y100949000D01*
X126921380Y100710904D01*
X126873761Y100615666D01*
X126826142Y100568047D01*
X126730904Y100520428D01*
X126635666Y100520428D01*
X126540428Y100568047D01*
X126492809Y100615666D01*
X126445190Y100710904D01*
X126397571Y100901380D01*
X126349952Y100996619D01*
X126302333Y101044238D01*
X126207095Y101091857D01*
X126111857Y101091857D01*
X126016619Y101044238D01*
X125969000Y100996619D01*
X125921380Y100901380D01*
X125921380Y100663285D01*
X125969000Y100520428D01*
X126254714Y99663285D02*
X126921380Y99663285D01*
X126254714Y100091857D02*
X126778523Y100091857D01*
X126873761Y100044238D01*
X126921380Y99949000D01*
X126921380Y99806142D01*
X126873761Y99710904D01*
X126826142Y99663285D01*
X126254714Y99187095D02*
X127254714Y99187095D01*
X126302333Y99187095D02*
X126254714Y99091857D01*
X126254714Y98901380D01*
X126302333Y98806142D01*
X126349952Y98758523D01*
X126445190Y98710904D01*
X126730904Y98710904D01*
X126826142Y98758523D01*
X126873761Y98806142D01*
X126921380Y98901380D01*
X126921380Y99091857D01*
X126873761Y99187095D01*
X126254714Y98282333D02*
X127254714Y98282333D01*
X126302333Y98282333D02*
X126254714Y98187095D01*
X126254714Y97996619D01*
X126302333Y97901380D01*
X126349952Y97853761D01*
X126445190Y97806142D01*
X126730904Y97806142D01*
X126826142Y97853761D01*
X126873761Y97901380D01*
X126921380Y97996619D01*
X126921380Y98187095D01*
X126873761Y98282333D01*
X126921380Y97234714D02*
X126873761Y97329952D01*
X126778523Y97377571D01*
X125921380Y97377571D01*
X126254714Y96949000D02*
X126921380Y96710904D01*
X126254714Y96472809D02*
X126921380Y96710904D01*
X127159476Y96806142D01*
X127207095Y96853761D01*
X127254714Y96949000D01*
D13*
X124628523Y125294238D02*
X124628523Y127294238D01*
X123676142Y125294238D02*
X123676142Y127294238D01*
X122533285Y125294238D01*
X122533285Y127294238D01*
X121580904Y125294238D02*
X121580904Y127294238D01*
X120819000Y127294238D01*
X120628523Y127199000D01*
X120533285Y127103761D01*
X120438047Y126913285D01*
X120438047Y126627571D01*
X120533285Y126437095D01*
X120628523Y126341857D01*
X120819000Y126246619D01*
X121580904Y126246619D01*
X119580904Y127294238D02*
X119580904Y125675190D01*
X119485666Y125484714D01*
X119390428Y125389476D01*
X119199952Y125294238D01*
X118819000Y125294238D01*
X118628523Y125389476D01*
X118533285Y125484714D01*
X118438047Y125675190D01*
X118438047Y127294238D01*
X117771380Y127294238D02*
X116628523Y127294238D01*
X117199952Y125294238D02*
X117199952Y127294238D01*
X116057095Y125389476D02*
X115771380Y125294238D01*
X115295190Y125294238D01*
X115104714Y125389476D01*
X115009476Y125484714D01*
X114914238Y125675190D01*
X114914238Y125865666D01*
X115009476Y126056142D01*
X115104714Y126151380D01*
X115295190Y126246619D01*
X115676142Y126341857D01*
X115866619Y126437095D01*
X115961857Y126532333D01*
X116057095Y126722809D01*
X116057095Y126913285D01*
X115961857Y127103761D01*
X115866619Y127199000D01*
X115676142Y127294238D01*
X115199952Y127294238D01*
X114914238Y127199000D01*
D12*
X14121380Y80181476D02*
X14121380Y80752904D01*
X14121380Y80467190D02*
X13121380Y80467190D01*
X13264238Y80562428D01*
X13359476Y80657666D01*
X13407095Y80752904D01*
X14121380Y79229095D02*
X14121380Y79800523D01*
X14121380Y79514809D02*
X13121380Y79514809D01*
X13264238Y79610047D01*
X13359476Y79705285D01*
X13407095Y79800523D01*
X56086952Y114463571D02*
X55325047Y114463571D01*
X55706000Y114082619D02*
X55706000Y114844523D01*
X23021380Y102389476D02*
X23021380Y102960904D01*
X23021380Y102675190D02*
X22021380Y102675190D01*
X22164238Y102770428D01*
X22259476Y102865666D01*
X22307095Y102960904D01*
X23021380Y101437095D02*
X23021380Y102008523D01*
X23021380Y101722809D02*
X22021380Y101722809D01*
X22164238Y101818047D01*
X22259476Y101913285D01*
X22307095Y102008523D01*
X71342761Y117527380D02*
X71295142Y117575000D01*
X71199904Y117622619D01*
X70961809Y117622619D01*
X70866571Y117575000D01*
X70818952Y117527380D01*
X70771333Y117432142D01*
X70771333Y117336904D01*
X70818952Y117194047D01*
X71390380Y116622619D01*
X70771333Y116622619D01*
X70342761Y117003571D02*
X69580857Y117003571D01*
X14121380Y72053476D02*
X14121380Y72624904D01*
X14121380Y72339190D02*
X13121380Y72339190D01*
X13264238Y72434428D01*
X13359476Y72529666D01*
X13407095Y72624904D01*
X13454714Y71196333D02*
X14121380Y71196333D01*
X13073761Y71434428D02*
X13788047Y71672523D01*
X13788047Y71053476D01*
X117121380Y79158523D02*
X118121380Y78825190D01*
X117121380Y78491857D01*
X117549952Y78015666D02*
X117502333Y78110904D01*
X117454714Y78158523D01*
X117359476Y78206142D01*
X117311857Y78206142D01*
X117216619Y78158523D01*
X117169000Y78110904D01*
X117121380Y78015666D01*
X117121380Y77825190D01*
X117169000Y77729952D01*
X117216619Y77682333D01*
X117311857Y77634714D01*
X117359476Y77634714D01*
X117454714Y77682333D01*
X117502333Y77729952D01*
X117549952Y77825190D01*
X117549952Y78015666D01*
X117597571Y78110904D01*
X117645190Y78158523D01*
X117740428Y78206142D01*
X117930904Y78206142D01*
X118026142Y78158523D01*
X118073761Y78110904D01*
X118121380Y78015666D01*
X118121380Y77825190D01*
X118073761Y77729952D01*
X118026142Y77682333D01*
X117930904Y77634714D01*
X117740428Y77634714D01*
X117645190Y77682333D01*
X117597571Y77729952D01*
X117549952Y77825190D01*
X22416619Y70624714D02*
X22369000Y70577095D01*
X22321380Y70481857D01*
X22321380Y70243761D01*
X22369000Y70148523D01*
X22416619Y70100904D01*
X22511857Y70053285D01*
X22607095Y70053285D01*
X22749952Y70100904D01*
X23321380Y70672333D01*
X23321380Y70053285D01*
X17796523Y106240285D02*
X17796523Y105573619D01*
X18034619Y106621238D02*
X18272714Y105906952D01*
X17653666Y105906952D01*
D14*
X62134285Y111958561D02*
X62172990Y111997266D01*
X62211695Y112113380D01*
X62211695Y112190790D01*
X62172990Y112306904D01*
X62095580Y112384314D01*
X62018171Y112423019D01*
X61863352Y112461723D01*
X61747238Y112461723D01*
X61592419Y112423019D01*
X61515009Y112384314D01*
X61437600Y112306904D01*
X61398895Y112190790D01*
X61398895Y112113380D01*
X61437600Y111997266D01*
X61476304Y111958561D01*
X61979466Y111648923D02*
X61979466Y111261876D01*
X62211695Y111726333D02*
X61398895Y111455400D01*
X62211695Y111184466D01*
X62211695Y110913533D02*
X61398895Y110913533D01*
X62211695Y110449076D01*
X61398895Y110449076D01*
X61476304Y110100733D02*
X61437600Y110062028D01*
X61398895Y109984619D01*
X61398895Y109791095D01*
X61437600Y109713685D01*
X61476304Y109674980D01*
X61553714Y109636276D01*
X61631123Y109636276D01*
X61747238Y109674980D01*
X62211695Y110139438D01*
X62211695Y109636276D01*
D12*
X18193333Y110383619D02*
X17574285Y110383619D01*
X17907619Y110002666D01*
X17764761Y110002666D01*
X17669523Y109955047D01*
X17621904Y109907428D01*
X17574285Y109812190D01*
X17574285Y109574095D01*
X17621904Y109478857D01*
X17669523Y109431238D01*
X17764761Y109383619D01*
X18050476Y109383619D01*
X18145714Y109431238D01*
X18193333Y109478857D01*
X120521380Y76721523D02*
X121521380Y76388190D01*
X120521380Y76054857D01*
X120521380Y75245333D02*
X120521380Y75721523D01*
X120997571Y75769142D01*
X120949952Y75721523D01*
X120902333Y75626285D01*
X120902333Y75388190D01*
X120949952Y75292952D01*
X120997571Y75245333D01*
X121092809Y75197714D01*
X121330904Y75197714D01*
X121426142Y75245333D01*
X121473761Y75292952D01*
X121521380Y75388190D01*
X121521380Y75626285D01*
X121473761Y75721523D01*
X121426142Y75769142D01*
X20771380Y72882333D02*
X20771380Y72263285D01*
X21152333Y72596619D01*
X21152333Y72453761D01*
X21199952Y72358523D01*
X21247571Y72310904D01*
X21342809Y72263285D01*
X21580904Y72263285D01*
X21676142Y72310904D01*
X21723761Y72358523D01*
X21771380Y72453761D01*
X21771380Y72739476D01*
X21723761Y72834714D01*
X21676142Y72882333D01*
X55451952Y117257571D02*
X54690047Y117257571D01*
X23011380Y98215476D02*
X23011380Y98786904D01*
X23011380Y98501190D02*
X22011380Y98501190D01*
X22154238Y98596428D01*
X22249476Y98691666D01*
X22297095Y98786904D01*
X22011380Y97596428D02*
X22011380Y97501190D01*
X22059000Y97405952D01*
X22106619Y97358333D01*
X22201857Y97310714D01*
X22392333Y97263095D01*
X22630428Y97263095D01*
X22820904Y97310714D01*
X22916142Y97358333D01*
X22963761Y97405952D01*
X23011380Y97501190D01*
X23011380Y97596428D01*
X22963761Y97691666D01*
X22916142Y97739285D01*
X22820904Y97786904D01*
X22630428Y97834523D01*
X22392333Y97834523D01*
X22201857Y97786904D01*
X22106619Y97739285D01*
X22059000Y97691666D01*
X22011380Y97596428D01*
X76343428Y108537619D02*
X76914857Y108537619D01*
X76629142Y108537619D02*
X76629142Y109537619D01*
X76724380Y109394761D01*
X76819619Y109299523D01*
X76914857Y109251904D01*
X75962476Y109442380D02*
X75914857Y109490000D01*
X75819619Y109537619D01*
X75581523Y109537619D01*
X75486285Y109490000D01*
X75438666Y109442380D01*
X75391047Y109347142D01*
X75391047Y109251904D01*
X75438666Y109109047D01*
X76010095Y108537619D01*
X75391047Y108537619D01*
X75057714Y109204285D02*
X74819619Y108537619D01*
X74581523Y109204285D01*
X76795809Y106927619D02*
X76795809Y107927619D01*
X75795809Y107880000D02*
X75891047Y107927619D01*
X76033904Y107927619D01*
X76176761Y107880000D01*
X76272000Y107784761D01*
X76319619Y107689523D01*
X76367238Y107499047D01*
X76367238Y107356190D01*
X76319619Y107165714D01*
X76272000Y107070476D01*
X76176761Y106975238D01*
X76033904Y106927619D01*
X75938666Y106927619D01*
X75795809Y106975238D01*
X75748190Y107022857D01*
X75748190Y107356190D01*
X75938666Y107356190D01*
X75319619Y106927619D02*
X75319619Y107927619D01*
X74748190Y106927619D01*
X74748190Y107927619D01*
X22138380Y82086523D02*
X22138380Y82277000D01*
X22186000Y82372238D01*
X22233619Y82419857D01*
X22376476Y82515095D01*
X22566952Y82562714D01*
X22947904Y82562714D01*
X23043142Y82515095D01*
X23090761Y82467476D01*
X23138380Y82372238D01*
X23138380Y82181761D01*
X23090761Y82086523D01*
X23043142Y82038904D01*
X22947904Y81991285D01*
X22709809Y81991285D01*
X22614571Y82038904D01*
X22566952Y82086523D01*
X22519333Y82181761D01*
X22519333Y82372238D01*
X22566952Y82467476D01*
X22614571Y82515095D01*
X22709809Y82562714D01*
X116994380Y71157523D02*
X117994380Y70824190D01*
X116994380Y70490857D01*
X117327714Y69728952D02*
X117994380Y69728952D01*
X116946761Y69967047D02*
X117661047Y70205142D01*
X117661047Y69586095D01*
X25361000Y112502904D02*
X25313380Y112598142D01*
X25313380Y112741000D01*
X25361000Y112883857D01*
X25456238Y112979095D01*
X25551476Y113026714D01*
X25741952Y113074333D01*
X25884809Y113074333D01*
X26075285Y113026714D01*
X26170523Y112979095D01*
X26265761Y112883857D01*
X26313380Y112741000D01*
X26313380Y112645761D01*
X26265761Y112502904D01*
X26218142Y112455285D01*
X25884809Y112455285D01*
X25884809Y112645761D01*
X26313380Y112026714D02*
X25313380Y112026714D01*
X26313380Y111455285D01*
X25313380Y111455285D01*
X26313380Y110979095D02*
X25313380Y110979095D01*
X25313380Y110741000D01*
X25361000Y110598142D01*
X25456238Y110502904D01*
X25551476Y110455285D01*
X25741952Y110407666D01*
X25884809Y110407666D01*
X26075285Y110455285D01*
X26170523Y110502904D01*
X26265761Y110598142D01*
X26313380Y110741000D01*
X26313380Y110979095D01*
X120521380Y80658523D02*
X121521380Y80325190D01*
X120521380Y79991857D01*
X120521380Y79753761D02*
X120521380Y79087095D01*
X121521380Y79515666D01*
D14*
X62413276Y117130400D02*
X62490685Y117169104D01*
X62606800Y117169104D01*
X62722914Y117130400D01*
X62800323Y117052990D01*
X62839028Y116975580D01*
X62877733Y116820761D01*
X62877733Y116704647D01*
X62839028Y116549828D01*
X62800323Y116472419D01*
X62722914Y116395009D01*
X62606800Y116356304D01*
X62529390Y116356304D01*
X62413276Y116395009D01*
X62374571Y116433714D01*
X62374571Y116704647D01*
X62529390Y116704647D01*
X62026228Y116356304D02*
X62026228Y117169104D01*
X61561771Y116356304D01*
X61561771Y117169104D01*
X61174723Y116356304D02*
X61174723Y117169104D01*
X60981200Y117169104D01*
X60865085Y117130400D01*
X60787676Y117052990D01*
X60748971Y116975580D01*
X60710266Y116820761D01*
X60710266Y116704647D01*
X60748971Y116549828D01*
X60787676Y116472419D01*
X60865085Y116395009D01*
X60981200Y116356304D01*
X61174723Y116356304D01*
D12*
X120698380Y96670904D02*
X120698380Y96099476D01*
X121698380Y96385190D02*
X120698380Y96385190D01*
X120698380Y95861380D02*
X120698380Y95242333D01*
X121079333Y95575666D01*
X121079333Y95432809D01*
X121126952Y95337571D01*
X121174571Y95289952D01*
X121269809Y95242333D01*
X121507904Y95242333D01*
X121603142Y95289952D01*
X121650761Y95337571D01*
X121698380Y95432809D01*
X121698380Y95718523D01*
X121650761Y95813761D01*
X121603142Y95861380D01*
X88352857Y110494857D02*
X88400476Y110447238D01*
X88543333Y110399619D01*
X88638571Y110399619D01*
X88781428Y110447238D01*
X88876666Y110542476D01*
X88924285Y110637714D01*
X88971904Y110828190D01*
X88971904Y110971047D01*
X88924285Y111161523D01*
X88876666Y111256761D01*
X88781428Y111352000D01*
X88638571Y111399619D01*
X88543333Y111399619D01*
X88400476Y111352000D01*
X88352857Y111304380D01*
X87971904Y110685333D02*
X87495714Y110685333D01*
X88067142Y110399619D02*
X87733809Y111399619D01*
X87400476Y110399619D01*
X87067142Y110399619D02*
X87067142Y111399619D01*
X86495714Y110399619D01*
X86495714Y111399619D01*
X22598714Y74085523D02*
X23265380Y74085523D01*
X22217761Y74323619D02*
X22932047Y74561714D01*
X22932047Y73942666D01*
X126083285Y115951619D02*
X126654714Y115951619D01*
X126369000Y115951619D02*
X126369000Y116951619D01*
X126464238Y116808761D01*
X126559476Y116713523D01*
X126654714Y116665904D01*
X125702333Y116856380D02*
X125654714Y116904000D01*
X125559476Y116951619D01*
X125321380Y116951619D01*
X125226142Y116904000D01*
X125178523Y116856380D01*
X125130904Y116761142D01*
X125130904Y116665904D01*
X125178523Y116523047D01*
X125749952Y115951619D01*
X125130904Y115951619D01*
X124797571Y116618285D02*
X124559476Y115951619D01*
X124321380Y116618285D01*
X123226142Y115999238D02*
X123083285Y115951619D01*
X122845190Y115951619D01*
X122749952Y115999238D01*
X122702333Y116046857D01*
X122654714Y116142095D01*
X122654714Y116237333D01*
X122702333Y116332571D01*
X122749952Y116380190D01*
X122845190Y116427809D01*
X123035666Y116475428D01*
X123130904Y116523047D01*
X123178523Y116570666D01*
X123226142Y116665904D01*
X123226142Y116761142D01*
X123178523Y116856380D01*
X123130904Y116904000D01*
X123035666Y116951619D01*
X122797571Y116951619D01*
X122654714Y116904000D01*
X121845190Y115999238D02*
X121940428Y115951619D01*
X122130904Y115951619D01*
X122226142Y115999238D01*
X122273761Y116094476D01*
X122273761Y116475428D01*
X122226142Y116570666D01*
X122130904Y116618285D01*
X121940428Y116618285D01*
X121845190Y116570666D01*
X121797571Y116475428D01*
X121797571Y116380190D01*
X122273761Y116284952D01*
X121369000Y116618285D02*
X121369000Y115951619D01*
X121369000Y116523047D02*
X121321380Y116570666D01*
X121226142Y116618285D01*
X121083285Y116618285D01*
X120988047Y116570666D01*
X120940428Y116475428D01*
X120940428Y115951619D01*
X120511857Y115999238D02*
X120416619Y115951619D01*
X120226142Y115951619D01*
X120130904Y115999238D01*
X120083285Y116094476D01*
X120083285Y116142095D01*
X120130904Y116237333D01*
X120226142Y116284952D01*
X120369000Y116284952D01*
X120464238Y116332571D01*
X120511857Y116427809D01*
X120511857Y116475428D01*
X120464238Y116570666D01*
X120369000Y116618285D01*
X120226142Y116618285D01*
X120130904Y116570666D01*
X125654714Y114389238D02*
X125511857Y114341619D01*
X125273761Y114341619D01*
X125178523Y114389238D01*
X125130904Y114436857D01*
X125083285Y114532095D01*
X125083285Y114627333D01*
X125130904Y114722571D01*
X125178523Y114770190D01*
X125273761Y114817809D01*
X125464238Y114865428D01*
X125559476Y114913047D01*
X125607095Y114960666D01*
X125654714Y115055904D01*
X125654714Y115151142D01*
X125607095Y115246380D01*
X125559476Y115294000D01*
X125464238Y115341619D01*
X125226142Y115341619D01*
X125083285Y115294000D01*
X124226142Y115008285D02*
X124226142Y114341619D01*
X124654714Y115008285D02*
X124654714Y114484476D01*
X124607095Y114389238D01*
X124511857Y114341619D01*
X124369000Y114341619D01*
X124273761Y114389238D01*
X124226142Y114436857D01*
X123749952Y115008285D02*
X123749952Y114008285D01*
X123749952Y114960666D02*
X123654714Y115008285D01*
X123464238Y115008285D01*
X123369000Y114960666D01*
X123321380Y114913047D01*
X123273761Y114817809D01*
X123273761Y114532095D01*
X123321380Y114436857D01*
X123369000Y114389238D01*
X123464238Y114341619D01*
X123654714Y114341619D01*
X123749952Y114389238D01*
X122845190Y115008285D02*
X122845190Y114008285D01*
X122845190Y114960666D02*
X122749952Y115008285D01*
X122559476Y115008285D01*
X122464238Y114960666D01*
X122416619Y114913047D01*
X122369000Y114817809D01*
X122369000Y114532095D01*
X122416619Y114436857D01*
X122464238Y114389238D01*
X122559476Y114341619D01*
X122749952Y114341619D01*
X122845190Y114389238D01*
X121797571Y114341619D02*
X121892809Y114389238D01*
X121940428Y114484476D01*
X121940428Y115341619D01*
X121511857Y115008285D02*
X121273761Y114341619D01*
X121035666Y115008285D02*
X121273761Y114341619D01*
X121369000Y114103523D01*
X121416619Y114055904D01*
X121511857Y114008285D01*
X22138380Y86674333D02*
X22138380Y86007666D01*
X23138380Y86436238D01*
X67342333Y116495619D02*
X67913761Y116495619D01*
X67628047Y116495619D02*
X67628047Y117495619D01*
X67723285Y117352761D01*
X67818523Y117257523D01*
X67913761Y117209904D01*
X66913761Y116876571D02*
X66151857Y116876571D01*
X56371380Y116220428D02*
X56038047Y116220428D01*
X55895190Y115696619D02*
X56371380Y115696619D01*
X56371380Y116696619D01*
X55895190Y116696619D01*
X55609476Y116696619D02*
X55038047Y116696619D01*
X55323761Y115696619D02*
X55323761Y116696619D01*
X54371380Y116220428D02*
X54228523Y116172809D01*
X54180904Y116125190D01*
X54133285Y116029952D01*
X54133285Y115887095D01*
X54180904Y115791857D01*
X54228523Y115744238D01*
X54323761Y115696619D01*
X54704714Y115696619D01*
X54704714Y116696619D01*
X54371380Y116696619D01*
X54276142Y116649000D01*
X54228523Y116601380D01*
X54180904Y116506142D01*
X54180904Y116410904D01*
X54228523Y116315666D01*
X54276142Y116268047D01*
X54371380Y116220428D01*
X54704714Y116220428D01*
X52990428Y116601380D02*
X52942809Y116649000D01*
X52847571Y116696619D01*
X52609476Y116696619D01*
X52514238Y116649000D01*
X52466619Y116601380D01*
X52419000Y116506142D01*
X52419000Y116410904D01*
X52466619Y116268047D01*
X53038047Y115696619D01*
X52419000Y115696619D01*
X14121380Y83991476D02*
X14121380Y83801000D01*
X14073761Y83705761D01*
X14026142Y83658142D01*
X13883285Y83562904D01*
X13692809Y83515285D01*
X13311857Y83515285D01*
X13216619Y83562904D01*
X13169000Y83610523D01*
X13121380Y83705761D01*
X13121380Y83896238D01*
X13169000Y83991476D01*
X13216619Y84039095D01*
X13311857Y84086714D01*
X13549952Y84086714D01*
X13645190Y84039095D01*
X13692809Y83991476D01*
X13740428Y83896238D01*
X13740428Y83705761D01*
X13692809Y83610523D01*
X13645190Y83562904D01*
X13549952Y83515285D01*
X22138380Y78101904D02*
X22138380Y78578095D01*
X22614571Y78625714D01*
X22566952Y78578095D01*
X22519333Y78482857D01*
X22519333Y78244761D01*
X22566952Y78149523D01*
X22614571Y78101904D01*
X22709809Y78054285D01*
X22947904Y78054285D01*
X23043142Y78101904D01*
X23090761Y78149523D01*
X23138380Y78244761D01*
X23138380Y78482857D01*
X23090761Y78578095D01*
X23043142Y78625714D01*
X22566952Y90246238D02*
X22519333Y90341476D01*
X22471714Y90389095D01*
X22376476Y90436714D01*
X22328857Y90436714D01*
X22233619Y90389095D01*
X22186000Y90341476D01*
X22138380Y90246238D01*
X22138380Y90055761D01*
X22186000Y89960523D01*
X22233619Y89912904D01*
X22328857Y89865285D01*
X22376476Y89865285D01*
X22471714Y89912904D01*
X22519333Y89960523D01*
X22566952Y90055761D01*
X22566952Y90246238D01*
X22614571Y90341476D01*
X22662190Y90389095D01*
X22757428Y90436714D01*
X22947904Y90436714D01*
X23043142Y90389095D01*
X23090761Y90341476D01*
X23138380Y90246238D01*
X23138380Y90055761D01*
X23090761Y89960523D01*
X23043142Y89912904D01*
X22947904Y89865285D01*
X22757428Y89865285D01*
X22662190Y89912904D01*
X22614571Y89960523D01*
X22566952Y90055761D01*
X13783285Y108367619D02*
X14354714Y108367619D01*
X14069000Y108367619D02*
X14069000Y109367619D01*
X14164238Y109224761D01*
X14259476Y109129523D01*
X14354714Y109081904D01*
X82256952Y109256619D02*
X82352190Y109304238D01*
X82399809Y109399476D01*
X82399809Y110256619D01*
X14121380Y103835285D02*
X14121380Y104406714D01*
X14121380Y104121000D02*
X13121380Y104121000D01*
X13264238Y104216238D01*
X13359476Y104311476D01*
X13407095Y104406714D01*
D14*
X58568171Y111881304D02*
X58568171Y112694104D01*
X58219828Y111881304D02*
X58219828Y112307057D01*
X58258533Y112384466D01*
X58335942Y112423171D01*
X58452057Y112423171D01*
X58529466Y112384466D01*
X58568171Y112345761D01*
D12*
X113985666Y79725190D02*
X113985666Y79249000D01*
X114271380Y79820428D02*
X113271380Y79487095D01*
X114271380Y79153761D01*
X113604714Y78820428D02*
X114271380Y78820428D01*
X113699952Y78820428D02*
X113652333Y78772809D01*
X113604714Y78677571D01*
X113604714Y78534714D01*
X113652333Y78439476D01*
X113747571Y78391857D01*
X114271380Y78391857D01*
X114271380Y77487095D02*
X113747571Y77487095D01*
X113652333Y77534714D01*
X113604714Y77629952D01*
X113604714Y77820428D01*
X113652333Y77915666D01*
X114223761Y77487095D02*
X114271380Y77582333D01*
X114271380Y77820428D01*
X114223761Y77915666D01*
X114128523Y77963285D01*
X114033285Y77963285D01*
X113938047Y77915666D01*
X113890428Y77820428D01*
X113890428Y77582333D01*
X113842809Y77487095D01*
X114271380Y76868047D02*
X114223761Y76963285D01*
X114128523Y77010904D01*
X113271380Y77010904D01*
X114271380Y76344238D02*
X114223761Y76439476D01*
X114176142Y76487095D01*
X114080904Y76534714D01*
X113795190Y76534714D01*
X113699952Y76487095D01*
X113652333Y76439476D01*
X113604714Y76344238D01*
X113604714Y76201380D01*
X113652333Y76106142D01*
X113699952Y76058523D01*
X113795190Y76010904D01*
X114080904Y76010904D01*
X114176142Y76058523D01*
X114223761Y76106142D01*
X114271380Y76201380D01*
X114271380Y76344238D01*
X113604714Y75153761D02*
X114414238Y75153761D01*
X114509476Y75201380D01*
X114557095Y75249000D01*
X114604714Y75344238D01*
X114604714Y75487095D01*
X114557095Y75582333D01*
X114223761Y75153761D02*
X114271380Y75249000D01*
X114271380Y75439476D01*
X114223761Y75534714D01*
X114176142Y75582333D01*
X114080904Y75629952D01*
X113795190Y75629952D01*
X113699952Y75582333D01*
X113652333Y75534714D01*
X113604714Y75439476D01*
X113604714Y75249000D01*
X113652333Y75153761D01*
X114271380Y73915666D02*
X113271380Y73915666D01*
X113604714Y73439476D02*
X114271380Y73439476D01*
X113699952Y73439476D02*
X113652333Y73391857D01*
X113604714Y73296619D01*
X113604714Y73153761D01*
X113652333Y73058523D01*
X113747571Y73010904D01*
X114271380Y73010904D01*
X113604714Y72534714D02*
X114604714Y72534714D01*
X113652333Y72534714D02*
X113604714Y72439476D01*
X113604714Y72249000D01*
X113652333Y72153761D01*
X113699952Y72106142D01*
X113795190Y72058523D01*
X114080904Y72058523D01*
X114176142Y72106142D01*
X114223761Y72153761D01*
X114271380Y72249000D01*
X114271380Y72439476D01*
X114223761Y72534714D01*
X113604714Y71201380D02*
X114271380Y71201380D01*
X113604714Y71629952D02*
X114128523Y71629952D01*
X114223761Y71582333D01*
X114271380Y71487095D01*
X114271380Y71344238D01*
X114223761Y71249000D01*
X114176142Y71201380D01*
X113604714Y70868047D02*
X113604714Y70487095D01*
X113271380Y70725190D02*
X114128523Y70725190D01*
X114223761Y70677571D01*
X114271380Y70582333D01*
X114271380Y70487095D01*
X114223761Y70201380D02*
X114271380Y70106142D01*
X114271380Y69915666D01*
X114223761Y69820428D01*
X114128523Y69772809D01*
X114080904Y69772809D01*
X113985666Y69820428D01*
X113938047Y69915666D01*
X113938047Y70058523D01*
X113890428Y70153761D01*
X113795190Y70201380D01*
X113747571Y70201380D01*
X113652333Y70153761D01*
X113604714Y70058523D01*
X113604714Y69915666D01*
X113652333Y69820428D01*
X126849761Y83537095D02*
X126897380Y83394238D01*
X126897380Y83156142D01*
X126849761Y83060904D01*
X126802142Y83013285D01*
X126706904Y82965666D01*
X126611666Y82965666D01*
X126516428Y83013285D01*
X126468809Y83060904D01*
X126421190Y83156142D01*
X126373571Y83346619D01*
X126325952Y83441857D01*
X126278333Y83489476D01*
X126183095Y83537095D01*
X126087857Y83537095D01*
X125992619Y83489476D01*
X125945000Y83441857D01*
X125897380Y83346619D01*
X125897380Y83108523D01*
X125945000Y82965666D01*
X126849761Y82156142D02*
X126897380Y82251380D01*
X126897380Y82441857D01*
X126849761Y82537095D01*
X126754523Y82584714D01*
X126373571Y82584714D01*
X126278333Y82537095D01*
X126230714Y82441857D01*
X126230714Y82251380D01*
X126278333Y82156142D01*
X126373571Y82108523D01*
X126468809Y82108523D01*
X126564047Y82584714D01*
X126230714Y81679952D02*
X126897380Y81679952D01*
X126325952Y81679952D02*
X126278333Y81632333D01*
X126230714Y81537095D01*
X126230714Y81394238D01*
X126278333Y81299000D01*
X126373571Y81251380D01*
X126897380Y81251380D01*
X126849761Y80822809D02*
X126897380Y80727571D01*
X126897380Y80537095D01*
X126849761Y80441857D01*
X126754523Y80394238D01*
X126706904Y80394238D01*
X126611666Y80441857D01*
X126564047Y80537095D01*
X126564047Y80679952D01*
X126516428Y80775190D01*
X126421190Y80822809D01*
X126373571Y80822809D01*
X126278333Y80775190D01*
X126230714Y80679952D01*
X126230714Y80537095D01*
X126278333Y80441857D01*
X126897380Y79822809D02*
X126849761Y79918047D01*
X126802142Y79965666D01*
X126706904Y80013285D01*
X126421190Y80013285D01*
X126325952Y79965666D01*
X126278333Y79918047D01*
X126230714Y79822809D01*
X126230714Y79679952D01*
X126278333Y79584714D01*
X126325952Y79537095D01*
X126421190Y79489476D01*
X126706904Y79489476D01*
X126802142Y79537095D01*
X126849761Y79584714D01*
X126897380Y79679952D01*
X126897380Y79822809D01*
X126897380Y79060904D02*
X126230714Y79060904D01*
X126421190Y79060904D02*
X126325952Y79013285D01*
X126278333Y78965666D01*
X126230714Y78870428D01*
X126230714Y78775190D01*
X125945000Y77156142D02*
X125897380Y77251380D01*
X125897380Y77394238D01*
X125945000Y77537095D01*
X126040238Y77632333D01*
X126135476Y77679952D01*
X126325952Y77727571D01*
X126468809Y77727571D01*
X126659285Y77679952D01*
X126754523Y77632333D01*
X126849761Y77537095D01*
X126897380Y77394238D01*
X126897380Y77299000D01*
X126849761Y77156142D01*
X126802142Y77108523D01*
X126468809Y77108523D01*
X126468809Y77299000D01*
X126897380Y76679952D02*
X125897380Y76679952D01*
X126897380Y76108523D01*
X125897380Y76108523D01*
X126897380Y75632333D02*
X125897380Y75632333D01*
X125897380Y75394238D01*
X125945000Y75251380D01*
X126040238Y75156142D01*
X126135476Y75108523D01*
X126325952Y75060904D01*
X126468809Y75060904D01*
X126659285Y75108523D01*
X126754523Y75156142D01*
X126849761Y75251380D01*
X126897380Y75394238D01*
X126897380Y75632333D01*
D14*
X65047238Y111881304D02*
X65124647Y111920009D01*
X65163352Y111997419D01*
X65163352Y112694104D01*
D15*
X54286695Y112587400D02*
X53473895Y112587400D01*
X54054466Y112316466D01*
X53473895Y112045533D01*
X54286695Y112045533D01*
X54286695Y111310142D02*
X53860942Y111310142D01*
X53783533Y111348847D01*
X53744828Y111426257D01*
X53744828Y111581076D01*
X53783533Y111658485D01*
X54247990Y111310142D02*
X54286695Y111387552D01*
X54286695Y111581076D01*
X54247990Y111658485D01*
X54170580Y111697190D01*
X54093171Y111697190D01*
X54015761Y111658485D01*
X53977057Y111581076D01*
X53977057Y111387552D01*
X53938352Y111310142D01*
X54286695Y110923095D02*
X53744828Y110923095D01*
X53473895Y110923095D02*
X53512600Y110961800D01*
X53551304Y110923095D01*
X53512600Y110884390D01*
X53473895Y110923095D01*
X53551304Y110923095D01*
X53744828Y110536047D02*
X54286695Y110536047D01*
X53822238Y110536047D02*
X53783533Y110497342D01*
X53744828Y110419933D01*
X53744828Y110303819D01*
X53783533Y110226409D01*
X53860942Y110187704D01*
X54286695Y110187704D01*
X54286695Y108716923D02*
X53899647Y108987857D01*
X54286695Y109181380D02*
X53473895Y109181380D01*
X53473895Y108871742D01*
X53512600Y108794333D01*
X53551304Y108755628D01*
X53628714Y108716923D01*
X53744828Y108716923D01*
X53822238Y108755628D01*
X53860942Y108794333D01*
X53899647Y108871742D01*
X53899647Y109181380D01*
X54286695Y108252466D02*
X54247990Y108329876D01*
X54170580Y108368580D01*
X53473895Y108368580D01*
X53744828Y108020238D02*
X54286695Y107826714D01*
X53744828Y107633190D02*
X54286695Y107826714D01*
X54480219Y107904123D01*
X54518923Y107942828D01*
X54557628Y108020238D01*
D12*
X23138380Y94532476D02*
X23138380Y94342000D01*
X23090761Y94246761D01*
X23043142Y94199142D01*
X22900285Y94103904D01*
X22709809Y94056285D01*
X22328857Y94056285D01*
X22233619Y94103904D01*
X22186000Y94151523D01*
X22138380Y94246761D01*
X22138380Y94437238D01*
X22186000Y94532476D01*
X22233619Y94580095D01*
X22328857Y94627714D01*
X22566952Y94627714D01*
X22662190Y94580095D01*
X22709809Y94532476D01*
X22757428Y94437238D01*
X22757428Y94246761D01*
X22709809Y94151523D01*
X22662190Y94103904D01*
X22566952Y94056285D01*
X13121380Y100390333D02*
X13121380Y99771285D01*
X13502333Y100104619D01*
X13502333Y99961761D01*
X13549952Y99866523D01*
X13597571Y99818904D01*
X13692809Y99771285D01*
X13930904Y99771285D01*
X14026142Y99818904D01*
X14073761Y99866523D01*
X14121380Y99961761D01*
X14121380Y100247476D01*
X14073761Y100342714D01*
X14026142Y100390333D01*
X26271380Y97808523D02*
X25271380Y97808523D01*
X25604714Y96903761D02*
X26414238Y96903761D01*
X26509476Y96951380D01*
X26557095Y96999000D01*
X26604714Y97094238D01*
X26604714Y97237095D01*
X26557095Y97332333D01*
X26223761Y96903761D02*
X26271380Y96999000D01*
X26271380Y97189476D01*
X26223761Y97284714D01*
X26176142Y97332333D01*
X26080904Y97379952D01*
X25795190Y97379952D01*
X25699952Y97332333D01*
X25652333Y97284714D01*
X25604714Y97189476D01*
X25604714Y96999000D01*
X25652333Y96903761D01*
X25604714Y96427571D02*
X26271380Y96427571D01*
X25699952Y96427571D02*
X25652333Y96379952D01*
X25604714Y96284714D01*
X25604714Y96141857D01*
X25652333Y96046619D01*
X25747571Y95999000D01*
X26271380Y95999000D01*
X26271380Y95522809D02*
X25604714Y95522809D01*
X25271380Y95522809D02*
X25319000Y95570428D01*
X25366619Y95522809D01*
X25319000Y95475190D01*
X25271380Y95522809D01*
X25366619Y95522809D01*
X25604714Y95189476D02*
X25604714Y94808523D01*
X25271380Y95046619D02*
X26128523Y95046619D01*
X26223761Y94999000D01*
X26271380Y94903761D01*
X26271380Y94808523D01*
X26271380Y94475190D02*
X25604714Y94475190D01*
X25271380Y94475190D02*
X25319000Y94522809D01*
X25366619Y94475190D01*
X25319000Y94427571D01*
X25271380Y94475190D01*
X25366619Y94475190D01*
X26271380Y93856142D02*
X26223761Y93951380D01*
X26176142Y93999000D01*
X26080904Y94046619D01*
X25795190Y94046619D01*
X25699952Y93999000D01*
X25652333Y93951380D01*
X25604714Y93856142D01*
X25604714Y93713285D01*
X25652333Y93618047D01*
X25699952Y93570428D01*
X25795190Y93522809D01*
X26080904Y93522809D01*
X26176142Y93570428D01*
X26223761Y93618047D01*
X26271380Y93713285D01*
X26271380Y93856142D01*
X25604714Y93094238D02*
X26271380Y93094238D01*
X25699952Y93094238D02*
X25652333Y93046619D01*
X25604714Y92951380D01*
X25604714Y92808523D01*
X25652333Y92713285D01*
X25747571Y92665666D01*
X26271380Y92665666D01*
X25271380Y91237095D02*
X25271380Y91046619D01*
X25319000Y90951380D01*
X25414238Y90856142D01*
X25604714Y90808523D01*
X25938047Y90808523D01*
X26128523Y90856142D01*
X26223761Y90951380D01*
X26271380Y91046619D01*
X26271380Y91237095D01*
X26223761Y91332333D01*
X26128523Y91427571D01*
X25938047Y91475190D01*
X25604714Y91475190D01*
X25414238Y91427571D01*
X25319000Y91332333D01*
X25271380Y91237095D01*
X25604714Y89951380D02*
X26271380Y89951380D01*
X25604714Y90379952D02*
X26128523Y90379952D01*
X26223761Y90332333D01*
X26271380Y90237095D01*
X26271380Y90094238D01*
X26223761Y89999000D01*
X26176142Y89951380D01*
X25604714Y89618047D02*
X25604714Y89237095D01*
X25271380Y89475190D02*
X26128523Y89475190D01*
X26223761Y89427571D01*
X26271380Y89332333D01*
X26271380Y89237095D01*
X25604714Y88903761D02*
X26604714Y88903761D01*
X25652333Y88903761D02*
X25604714Y88808523D01*
X25604714Y88618047D01*
X25652333Y88522809D01*
X25699952Y88475190D01*
X25795190Y88427571D01*
X26080904Y88427571D01*
X26176142Y88475190D01*
X26223761Y88522809D01*
X26271380Y88618047D01*
X26271380Y88808523D01*
X26223761Y88903761D01*
X25604714Y87570428D02*
X26271380Y87570428D01*
X25604714Y87999000D02*
X26128523Y87999000D01*
X26223761Y87951380D01*
X26271380Y87856142D01*
X26271380Y87713285D01*
X26223761Y87618047D01*
X26176142Y87570428D01*
X25604714Y87237095D02*
X25604714Y86856142D01*
X25271380Y87094238D02*
X26128523Y87094238D01*
X26223761Y87046619D01*
X26271380Y86951380D01*
X26271380Y86856142D01*
X26223761Y86570428D02*
X26271380Y86475190D01*
X26271380Y86284714D01*
X26223761Y86189476D01*
X26128523Y86141857D01*
X26080904Y86141857D01*
X25985666Y86189476D01*
X25938047Y86284714D01*
X25938047Y86427571D01*
X25890428Y86522809D01*
X25795190Y86570428D01*
X25747571Y86570428D01*
X25652333Y86522809D01*
X25604714Y86427571D01*
X25604714Y86284714D01*
X25652333Y86189476D01*
X116880380Y95230904D02*
X116880380Y94659476D01*
X117880380Y94945190D02*
X116880380Y94945190D01*
X117213714Y93897571D02*
X117880380Y93897571D01*
X116832761Y94135666D02*
X117547047Y94373761D01*
X117547047Y93754714D01*
X61420952Y120432571D02*
X60659047Y120432571D01*
X61040000Y120051619D02*
X61040000Y120813523D01*
X114070380Y107645285D02*
X114070380Y108216714D01*
X114070380Y107931000D02*
X113070380Y107931000D01*
X113213238Y108026238D01*
X113308476Y108121476D01*
X113356095Y108216714D01*
X20773761Y115651619D02*
X20773761Y116651619D01*
X20773761Y116175428D02*
X20202333Y116175428D01*
X20202333Y115651619D02*
X20202333Y116651619D01*
X19726142Y115651619D02*
X19726142Y116318285D01*
X19726142Y116651619D02*
X19773761Y116604000D01*
X19726142Y116556380D01*
X19678523Y116604000D01*
X19726142Y116651619D01*
X19726142Y116556380D01*
X18821380Y116318285D02*
X18821380Y115508761D01*
X18869000Y115413523D01*
X18916619Y115365904D01*
X19011857Y115318285D01*
X19154714Y115318285D01*
X19249952Y115365904D01*
X18821380Y115699238D02*
X18916619Y115651619D01*
X19107095Y115651619D01*
X19202333Y115699238D01*
X19249952Y115746857D01*
X19297571Y115842095D01*
X19297571Y116127809D01*
X19249952Y116223047D01*
X19202333Y116270666D01*
X19107095Y116318285D01*
X18916619Y116318285D01*
X18821380Y116270666D01*
X18345190Y115651619D02*
X18345190Y116651619D01*
X17916619Y115651619D02*
X17916619Y116175428D01*
X17964238Y116270666D01*
X18059476Y116318285D01*
X18202333Y116318285D01*
X18297571Y116270666D01*
X18345190Y116223047D01*
X16726142Y115699238D02*
X16583285Y115651619D01*
X16345190Y115651619D01*
X16249952Y115699238D01*
X16202333Y115746857D01*
X16154714Y115842095D01*
X16154714Y115937333D01*
X16202333Y116032571D01*
X16249952Y116080190D01*
X16345190Y116127809D01*
X16535666Y116175428D01*
X16630904Y116223047D01*
X16678523Y116270666D01*
X16726142Y116365904D01*
X16726142Y116461142D01*
X16678523Y116556380D01*
X16630904Y116604000D01*
X16535666Y116651619D01*
X16297571Y116651619D01*
X16154714Y116604000D01*
X15726142Y115651619D02*
X15726142Y116318285D01*
X15726142Y116651619D02*
X15773761Y116604000D01*
X15726142Y116556380D01*
X15678523Y116604000D01*
X15726142Y116651619D01*
X15726142Y116556380D01*
X14821380Y115651619D02*
X14821380Y116651619D01*
X14821380Y115699238D02*
X14916619Y115651619D01*
X15107095Y115651619D01*
X15202333Y115699238D01*
X15249952Y115746857D01*
X15297571Y115842095D01*
X15297571Y116127809D01*
X15249952Y116223047D01*
X15202333Y116270666D01*
X15107095Y116318285D01*
X14916619Y116318285D01*
X14821380Y116270666D01*
X13964238Y115699238D02*
X14059476Y115651619D01*
X14249952Y115651619D01*
X14345190Y115699238D01*
X14392809Y115794476D01*
X14392809Y116175428D01*
X14345190Y116270666D01*
X14249952Y116318285D01*
X14059476Y116318285D01*
X13964238Y116270666D01*
X13916619Y116175428D01*
X13916619Y116080190D01*
X14392809Y115984952D01*
X19797571Y115041619D02*
X19607095Y115041619D01*
X19511857Y114994000D01*
X19416619Y114898761D01*
X19369000Y114708285D01*
X19369000Y114374952D01*
X19416619Y114184476D01*
X19511857Y114089238D01*
X19607095Y114041619D01*
X19797571Y114041619D01*
X19892809Y114089238D01*
X19988047Y114184476D01*
X20035666Y114374952D01*
X20035666Y114708285D01*
X19988047Y114898761D01*
X19892809Y114994000D01*
X19797571Y115041619D01*
X18511857Y114708285D02*
X18511857Y114041619D01*
X18940428Y114708285D02*
X18940428Y114184476D01*
X18892809Y114089238D01*
X18797571Y114041619D01*
X18654714Y114041619D01*
X18559476Y114089238D01*
X18511857Y114136857D01*
X18178523Y114708285D02*
X17797571Y114708285D01*
X18035666Y115041619D02*
X18035666Y114184476D01*
X17988047Y114089238D01*
X17892809Y114041619D01*
X17797571Y114041619D01*
X17464238Y114708285D02*
X17464238Y113708285D01*
X17464238Y114660666D02*
X17369000Y114708285D01*
X17178523Y114708285D01*
X17083285Y114660666D01*
X17035666Y114613047D01*
X16988047Y114517809D01*
X16988047Y114232095D01*
X17035666Y114136857D01*
X17083285Y114089238D01*
X17178523Y114041619D01*
X17369000Y114041619D01*
X17464238Y114089238D01*
X16130904Y114708285D02*
X16130904Y114041619D01*
X16559476Y114708285D02*
X16559476Y114184476D01*
X16511857Y114089238D01*
X16416619Y114041619D01*
X16273761Y114041619D01*
X16178523Y114089238D01*
X16130904Y114136857D01*
X15797571Y114708285D02*
X15416619Y114708285D01*
X15654714Y115041619D02*
X15654714Y114184476D01*
X15607095Y114089238D01*
X15511857Y114041619D01*
X15416619Y114041619D01*
X15130904Y114089238D02*
X15035666Y114041619D01*
X14845190Y114041619D01*
X14749952Y114089238D01*
X14702333Y114184476D01*
X14702333Y114232095D01*
X14749952Y114327333D01*
X14845190Y114374952D01*
X14988047Y114374952D01*
X15083285Y114422571D01*
X15130904Y114517809D01*
X15130904Y114565428D01*
X15083285Y114660666D01*
X14988047Y114708285D01*
X14845190Y114708285D01*
X14749952Y114660666D01*
X81947333Y120670619D02*
X81328285Y120670619D01*
X81661619Y120289666D01*
X81518761Y120289666D01*
X81423523Y120242047D01*
X81375904Y120194428D01*
X81328285Y120099190D01*
X81328285Y119861095D01*
X81375904Y119765857D01*
X81423523Y119718238D01*
X81518761Y119670619D01*
X81804476Y119670619D01*
X81899714Y119718238D01*
X81947333Y119765857D01*
X74611857Y123496619D02*
X74278523Y122496619D01*
X73945190Y123496619D01*
X73040428Y122496619D02*
X73373761Y122972809D01*
X73611857Y122496619D02*
X73611857Y123496619D01*
X73230904Y123496619D01*
X73135666Y123449000D01*
X73088047Y123401380D01*
X73040428Y123306142D01*
X73040428Y123163285D01*
X73088047Y123068047D01*
X73135666Y123020428D01*
X73230904Y122972809D01*
X73611857Y122972809D01*
X71897571Y122544238D02*
X71754714Y122496619D01*
X71516619Y122496619D01*
X71421380Y122544238D01*
X71373761Y122591857D01*
X71326142Y122687095D01*
X71326142Y122782333D01*
X71373761Y122877571D01*
X71421380Y122925190D01*
X71516619Y122972809D01*
X71707095Y123020428D01*
X71802333Y123068047D01*
X71849952Y123115666D01*
X71897571Y123210904D01*
X71897571Y123306142D01*
X71849952Y123401380D01*
X71802333Y123449000D01*
X71707095Y123496619D01*
X71469000Y123496619D01*
X71326142Y123449000D01*
X70516619Y122544238D02*
X70611857Y122496619D01*
X70802333Y122496619D01*
X70897571Y122544238D01*
X70945190Y122639476D01*
X70945190Y123020428D01*
X70897571Y123115666D01*
X70802333Y123163285D01*
X70611857Y123163285D01*
X70516619Y123115666D01*
X70469000Y123020428D01*
X70469000Y122925190D01*
X70945190Y122829952D01*
X70040428Y123163285D02*
X70040428Y122496619D01*
X70040428Y123068047D02*
X69992809Y123115666D01*
X69897571Y123163285D01*
X69754714Y123163285D01*
X69659476Y123115666D01*
X69611857Y123020428D01*
X69611857Y122496619D01*
X69183285Y122544238D02*
X69088047Y122496619D01*
X68897571Y122496619D01*
X68802333Y122544238D01*
X68754714Y122639476D01*
X68754714Y122687095D01*
X68802333Y122782333D01*
X68897571Y122829952D01*
X69040428Y122829952D01*
X69135666Y122877571D01*
X69183285Y122972809D01*
X69183285Y123020428D01*
X69135666Y123115666D01*
X69040428Y123163285D01*
X68897571Y123163285D01*
X68802333Y123115666D01*
X68183285Y122496619D02*
X68278523Y122544238D01*
X68326142Y122591857D01*
X68373761Y122687095D01*
X68373761Y122972809D01*
X68326142Y123068047D01*
X68278523Y123115666D01*
X68183285Y123163285D01*
X68040428Y123163285D01*
X67945190Y123115666D01*
X67897571Y123068047D01*
X67849952Y122972809D01*
X67849952Y122687095D01*
X67897571Y122591857D01*
X67945190Y122544238D01*
X68040428Y122496619D01*
X68183285Y122496619D01*
X67421380Y122496619D02*
X67421380Y123163285D01*
X67421380Y122972809D02*
X67373761Y123068047D01*
X67326142Y123115666D01*
X67230904Y123163285D01*
X67135666Y123163285D01*
X66849952Y122544238D02*
X66754714Y122496619D01*
X66564238Y122496619D01*
X66469000Y122544238D01*
X66421380Y122639476D01*
X66421380Y122687095D01*
X66469000Y122782333D01*
X66564238Y122829952D01*
X66707095Y122829952D01*
X66802333Y122877571D01*
X66849952Y122972809D01*
X66849952Y123020428D01*
X66802333Y123115666D01*
X66707095Y123163285D01*
X66564238Y123163285D01*
X66469000Y123115666D01*
X62484380Y122099428D02*
X62151047Y122099428D01*
X62008190Y121575619D02*
X62484380Y121575619D01*
X62484380Y122575619D01*
X62008190Y122575619D01*
X61722476Y122575619D02*
X61151047Y122575619D01*
X61436761Y121575619D02*
X61436761Y122575619D01*
X60484380Y122099428D02*
X60341523Y122051809D01*
X60293904Y122004190D01*
X60246285Y121908952D01*
X60246285Y121766095D01*
X60293904Y121670857D01*
X60341523Y121623238D01*
X60436761Y121575619D01*
X60817714Y121575619D01*
X60817714Y122575619D01*
X60484380Y122575619D01*
X60389142Y122528000D01*
X60341523Y122480380D01*
X60293904Y122385142D01*
X60293904Y122289904D01*
X60341523Y122194666D01*
X60389142Y122147047D01*
X60484380Y122099428D01*
X60817714Y122099428D01*
X58532000Y121575619D02*
X59103428Y121575619D01*
X58817714Y121575619D02*
X58817714Y122575619D01*
X58912952Y122432761D01*
X59008190Y122337523D01*
X59103428Y122289904D01*
X117427904Y115797000D02*
X117523142Y115844619D01*
X117666000Y115844619D01*
X117808857Y115797000D01*
X117904095Y115701761D01*
X117951714Y115606523D01*
X117999333Y115416047D01*
X117999333Y115273190D01*
X117951714Y115082714D01*
X117904095Y114987476D01*
X117808857Y114892238D01*
X117666000Y114844619D01*
X117570761Y114844619D01*
X117427904Y114892238D01*
X117380285Y114939857D01*
X117380285Y115273190D01*
X117570761Y115273190D01*
X116951714Y114844619D02*
X116951714Y115844619D01*
X116380285Y114844619D01*
X116380285Y115844619D01*
X115904095Y114844619D02*
X115904095Y115844619D01*
X115666000Y115844619D01*
X115523142Y115797000D01*
X115427904Y115701761D01*
X115380285Y115606523D01*
X115332666Y115416047D01*
X115332666Y115273190D01*
X115380285Y115082714D01*
X115427904Y114987476D01*
X115523142Y114892238D01*
X115666000Y114844619D01*
X115904095Y114844619D01*
X13121380Y91738523D02*
X13121380Y91929000D01*
X13169000Y92024238D01*
X13216619Y92071857D01*
X13359476Y92167095D01*
X13549952Y92214714D01*
X13930904Y92214714D01*
X14026142Y92167095D01*
X14073761Y92119476D01*
X14121380Y92024238D01*
X14121380Y91833761D01*
X14073761Y91738523D01*
X14026142Y91690904D01*
X13930904Y91643285D01*
X13692809Y91643285D01*
X13597571Y91690904D01*
X13549952Y91738523D01*
X13502333Y91833761D01*
X13502333Y92024238D01*
X13549952Y92119476D01*
X13597571Y92167095D01*
X13692809Y92214714D01*
X120825380Y89066714D02*
X121825380Y88733380D01*
X120825380Y88400047D01*
X121825380Y87542904D02*
X121825380Y88114333D01*
X121825380Y87828619D02*
X120825380Y87828619D01*
X120968238Y87923857D01*
X121063476Y88019095D01*
X121111095Y88114333D01*
X121825380Y86590523D02*
X121825380Y87161952D01*
X121825380Y86876238D02*
X120825380Y86876238D01*
X120968238Y86971476D01*
X121063476Y87066714D01*
X121111095Y87161952D01*
D14*
X69396600Y111598276D02*
X69357895Y111675685D01*
X69357895Y111791800D01*
X69396600Y111907914D01*
X69474009Y111985323D01*
X69551419Y112024028D01*
X69706238Y112062733D01*
X69822352Y112062733D01*
X69977171Y112024028D01*
X70054580Y111985323D01*
X70131990Y111907914D01*
X70170695Y111791800D01*
X70170695Y111714390D01*
X70131990Y111598276D01*
X70093285Y111559571D01*
X69822352Y111559571D01*
X69822352Y111714390D01*
X70170695Y111211228D02*
X69357895Y111211228D01*
X70170695Y110746771D01*
X69357895Y110746771D01*
X70170695Y110359723D02*
X69357895Y110359723D01*
X69357895Y110166200D01*
X69396600Y110050085D01*
X69474009Y109972676D01*
X69551419Y109933971D01*
X69706238Y109895266D01*
X69822352Y109895266D01*
X69977171Y109933971D01*
X70054580Y109972676D01*
X70131990Y110050085D01*
X70170695Y110166200D01*
X70170695Y110359723D01*
D12*
X67723333Y120559619D02*
X68294761Y120559619D01*
X68009047Y120559619D02*
X68009047Y121559619D01*
X68104285Y121416761D01*
X68199523Y121321523D01*
X68294761Y121273904D01*
X67294761Y120940571D02*
X66532857Y120940571D01*
X66913809Y120559619D02*
X66913809Y121321523D01*
X79550285Y113447619D02*
X80121714Y113447619D01*
X79836000Y113447619D02*
X79836000Y114447619D01*
X79931238Y114304761D01*
X80026476Y114209523D01*
X80121714Y114161904D01*
X14204714Y112320380D02*
X14157095Y112368000D01*
X14061857Y112415619D01*
X13823761Y112415619D01*
X13728523Y112368000D01*
X13680904Y112320380D01*
X13633285Y112225142D01*
X13633285Y112129904D01*
X13680904Y111987047D01*
X14252333Y111415619D01*
X13633285Y111415619D01*
X17613952Y85928238D02*
X17566333Y86023476D01*
X17518714Y86071095D01*
X17423476Y86118714D01*
X17375857Y86118714D01*
X17280619Y86071095D01*
X17233000Y86023476D01*
X17185380Y85928238D01*
X17185380Y85737761D01*
X17233000Y85642523D01*
X17280619Y85594904D01*
X17375857Y85547285D01*
X17423476Y85547285D01*
X17518714Y85594904D01*
X17566333Y85642523D01*
X17613952Y85737761D01*
X17613952Y85928238D01*
X17661571Y86023476D01*
X17709190Y86071095D01*
X17804428Y86118714D01*
X17994904Y86118714D01*
X18090142Y86071095D01*
X18137761Y86023476D01*
X18185380Y85928238D01*
X18185380Y85737761D01*
X18137761Y85642523D01*
X18090142Y85594904D01*
X17994904Y85547285D01*
X17804428Y85547285D01*
X17709190Y85594904D01*
X17661571Y85642523D01*
X17613952Y85737761D01*
X116994380Y66966523D02*
X117994380Y66633190D01*
X116994380Y66299857D01*
X117089619Y66014142D02*
X117042000Y65966523D01*
X116994380Y65871285D01*
X116994380Y65633190D01*
X117042000Y65537952D01*
X117089619Y65490333D01*
X117184857Y65442714D01*
X117280095Y65442714D01*
X117422952Y65490333D01*
X117994380Y66061761D01*
X117994380Y65442714D01*
X17264714Y97834523D02*
X17931380Y97834523D01*
X16883761Y98072619D02*
X17598047Y98310714D01*
X17598047Y97691666D01*
X120648380Y72784523D02*
X121648380Y72451190D01*
X120648380Y72117857D01*
X120648380Y71879761D02*
X120648380Y71260714D01*
X121029333Y71594047D01*
X121029333Y71451190D01*
X121076952Y71355952D01*
X121124571Y71308333D01*
X121219809Y71260714D01*
X121457904Y71260714D01*
X121553142Y71308333D01*
X121600761Y71355952D01*
X121648380Y71451190D01*
X121648380Y71736904D01*
X121600761Y71832142D01*
X121553142Y71879761D01*
X117007380Y83562714D02*
X118007380Y83229380D01*
X117007380Y82896047D01*
X118007380Y82038904D02*
X118007380Y82610333D01*
X118007380Y82324619D02*
X117007380Y82324619D01*
X117150238Y82419857D01*
X117245476Y82515095D01*
X117293095Y82610333D01*
X117007380Y81419857D02*
X117007380Y81324619D01*
X117055000Y81229380D01*
X117102619Y81181761D01*
X117197857Y81134142D01*
X117388333Y81086523D01*
X117626428Y81086523D01*
X117816904Y81134142D01*
X117912142Y81181761D01*
X117959761Y81229380D01*
X118007380Y81324619D01*
X118007380Y81419857D01*
X117959761Y81515095D01*
X117912142Y81562714D01*
X117816904Y81610333D01*
X117626428Y81657952D01*
X117388333Y81657952D01*
X117197857Y81610333D01*
X117102619Y81562714D01*
X117055000Y81515095D01*
X117007380Y81419857D01*
X62944952Y120432571D02*
X62183047Y120432571D01*
X120571380Y92860904D02*
X120571380Y92289476D01*
X121571380Y92575190D02*
X120571380Y92575190D01*
X121571380Y91432333D02*
X121571380Y92003761D01*
X121571380Y91718047D02*
X120571380Y91718047D01*
X120714238Y91813285D01*
X120809476Y91908523D01*
X120857095Y92003761D01*
X23021380Y106326476D02*
X23021380Y106897904D01*
X23021380Y106612190D02*
X22021380Y106612190D01*
X22164238Y106707428D01*
X22259476Y106802666D01*
X22307095Y106897904D01*
X22116619Y105945523D02*
X22069000Y105897904D01*
X22021380Y105802666D01*
X22021380Y105564571D01*
X22069000Y105469333D01*
X22116619Y105421714D01*
X22211857Y105374095D01*
X22307095Y105374095D01*
X22449952Y105421714D01*
X23021380Y105993142D01*
X23021380Y105374095D01*
X85963714Y120575380D02*
X85916095Y120623000D01*
X85820857Y120670619D01*
X85582761Y120670619D01*
X85487523Y120623000D01*
X85439904Y120575380D01*
X85392285Y120480142D01*
X85392285Y120384904D01*
X85439904Y120242047D01*
X86011333Y119670619D01*
X85392285Y119670619D01*
X113165619Y112153714D02*
X113118000Y112106095D01*
X113070380Y112010857D01*
X113070380Y111772761D01*
X113118000Y111677523D01*
X113165619Y111629904D01*
X113260857Y111582285D01*
X113356095Y111582285D01*
X113498952Y111629904D01*
X114070380Y112201333D01*
X114070380Y111582285D01*
X113369000Y88460904D02*
X113321380Y88556142D01*
X113321380Y88699000D01*
X113369000Y88841857D01*
X113464238Y88937095D01*
X113559476Y88984714D01*
X113749952Y89032333D01*
X113892809Y89032333D01*
X114083285Y88984714D01*
X114178523Y88937095D01*
X114273761Y88841857D01*
X114321380Y88699000D01*
X114321380Y88603761D01*
X114273761Y88460904D01*
X114226142Y88413285D01*
X113892809Y88413285D01*
X113892809Y88603761D01*
X114321380Y87984714D02*
X113321380Y87984714D01*
X114321380Y87413285D01*
X113321380Y87413285D01*
X114321380Y86937095D02*
X113321380Y86937095D01*
X113321380Y86699000D01*
X113369000Y86556142D01*
X113464238Y86460904D01*
X113559476Y86413285D01*
X113749952Y86365666D01*
X113892809Y86365666D01*
X114083285Y86413285D01*
X114178523Y86460904D01*
X114273761Y86556142D01*
X114321380Y86699000D01*
X114321380Y86937095D01*
X117121380Y75094523D02*
X118121380Y74761190D01*
X117121380Y74427857D01*
X117121380Y73665952D02*
X117121380Y73856428D01*
X117169000Y73951666D01*
X117216619Y73999285D01*
X117359476Y74094523D01*
X117549952Y74142142D01*
X117930904Y74142142D01*
X118026142Y74094523D01*
X118073761Y74046904D01*
X118121380Y73951666D01*
X118121380Y73761190D01*
X118073761Y73665952D01*
X118026142Y73618333D01*
X117930904Y73570714D01*
X117692809Y73570714D01*
X117597571Y73618333D01*
X117549952Y73665952D01*
X117502333Y73761190D01*
X117502333Y73951666D01*
X117549952Y74046904D01*
X117597571Y74094523D01*
X117692809Y74142142D01*
X81574285Y109256619D02*
X81574285Y110256619D01*
X81145714Y109256619D02*
X81145714Y109780428D01*
X81193333Y109875666D01*
X81288571Y109923285D01*
X81431428Y109923285D01*
X81526666Y109875666D01*
X81574285Y109828047D01*
X72739761Y121464380D02*
X72692142Y121512000D01*
X72596904Y121559619D01*
X72358809Y121559619D01*
X72263571Y121512000D01*
X72215952Y121464380D01*
X72168333Y121369142D01*
X72168333Y121273904D01*
X72215952Y121131047D01*
X72787380Y120559619D01*
X72168333Y120559619D01*
X71739761Y120940571D02*
X70977857Y120940571D01*
X71358809Y120559619D02*
X71358809Y121321523D01*
X14121380Y67989476D02*
X14121380Y68560904D01*
X14121380Y68275190D02*
X13121380Y68275190D01*
X13264238Y68370428D01*
X13359476Y68465666D01*
X13407095Y68560904D01*
X13121380Y67084714D02*
X13121380Y67560904D01*
X13597571Y67608523D01*
X13549952Y67560904D01*
X13502333Y67465666D01*
X13502333Y67227571D01*
X13549952Y67132333D01*
X13597571Y67084714D01*
X13692809Y67037095D01*
X13930904Y67037095D01*
X14026142Y67084714D01*
X14073761Y67132333D01*
X14121380Y67227571D01*
X14121380Y67465666D01*
X14073761Y67560904D01*
X14026142Y67608523D01*
X87745190Y116596619D02*
X87745190Y117596619D01*
X87507095Y117596619D01*
X87364238Y117549000D01*
X87269000Y117453761D01*
X87221380Y117358523D01*
X87173761Y117168047D01*
X87173761Y117025190D01*
X87221380Y116834714D01*
X87269000Y116739476D01*
X87364238Y116644238D01*
X87507095Y116596619D01*
X87745190Y116596619D01*
X86745190Y116596619D02*
X86745190Y117263285D01*
X86745190Y117596619D02*
X86792809Y117549000D01*
X86745190Y117501380D01*
X86697571Y117549000D01*
X86745190Y117596619D01*
X86745190Y117501380D01*
X85840428Y117263285D02*
X85840428Y116453761D01*
X85888047Y116358523D01*
X85935666Y116310904D01*
X86030904Y116263285D01*
X86173761Y116263285D01*
X86269000Y116310904D01*
X85840428Y116644238D02*
X85935666Y116596619D01*
X86126142Y116596619D01*
X86221380Y116644238D01*
X86269000Y116691857D01*
X86316619Y116787095D01*
X86316619Y117072809D01*
X86269000Y117168047D01*
X86221380Y117215666D01*
X86126142Y117263285D01*
X85935666Y117263285D01*
X85840428Y117215666D01*
X85364238Y116596619D02*
X85364238Y117263285D01*
X85364238Y117596619D02*
X85411857Y117549000D01*
X85364238Y117501380D01*
X85316619Y117549000D01*
X85364238Y117596619D01*
X85364238Y117501380D01*
X85030904Y117263285D02*
X84649952Y117263285D01*
X84888047Y117596619D02*
X84888047Y116739476D01*
X84840428Y116644238D01*
X84745190Y116596619D01*
X84649952Y116596619D01*
X83888047Y116596619D02*
X83888047Y117120428D01*
X83935666Y117215666D01*
X84030904Y117263285D01*
X84221380Y117263285D01*
X84316619Y117215666D01*
X83888047Y116644238D02*
X83983285Y116596619D01*
X84221380Y116596619D01*
X84316619Y116644238D01*
X84364238Y116739476D01*
X84364238Y116834714D01*
X84316619Y116929952D01*
X84221380Y116977571D01*
X83983285Y116977571D01*
X83888047Y117025190D01*
X83269000Y116596619D02*
X83364238Y116644238D01*
X83411857Y116739476D01*
X83411857Y117596619D01*
X82173761Y117644238D02*
X83030904Y116358523D01*
X81840428Y116596619D02*
X81840428Y117596619D01*
X81840428Y117120428D02*
X81269000Y117120428D01*
X81269000Y116596619D02*
X81269000Y117596619D01*
X80364238Y116596619D02*
X80364238Y117120428D01*
X80411857Y117215666D01*
X80507095Y117263285D01*
X80697571Y117263285D01*
X80792809Y117215666D01*
X80364238Y116644238D02*
X80459476Y116596619D01*
X80697571Y116596619D01*
X80792809Y116644238D01*
X80840428Y116739476D01*
X80840428Y116834714D01*
X80792809Y116929952D01*
X80697571Y116977571D01*
X80459476Y116977571D01*
X80364238Y117025190D01*
X79745190Y116596619D02*
X79840428Y116644238D01*
X79888047Y116739476D01*
X79888047Y117596619D01*
X79221380Y116596619D02*
X79316619Y116644238D01*
X79364238Y116739476D01*
X79364238Y117596619D01*
X78078523Y116596619D02*
X78078523Y117596619D01*
X77602333Y117263285D02*
X77602333Y116596619D01*
X77602333Y117168047D02*
X77554714Y117215666D01*
X77459476Y117263285D01*
X77316619Y117263285D01*
X77221380Y117215666D01*
X77173761Y117120428D01*
X77173761Y116596619D01*
X76697571Y117263285D02*
X76697571Y116263285D01*
X76697571Y117215666D02*
X76602333Y117263285D01*
X76411857Y117263285D01*
X76316619Y117215666D01*
X76269000Y117168047D01*
X76221380Y117072809D01*
X76221380Y116787095D01*
X76269000Y116691857D01*
X76316619Y116644238D01*
X76411857Y116596619D01*
X76602333Y116596619D01*
X76697571Y116644238D01*
X75364238Y117263285D02*
X75364238Y116596619D01*
X75792809Y117263285D02*
X75792809Y116739476D01*
X75745190Y116644238D01*
X75649952Y116596619D01*
X75507095Y116596619D01*
X75411857Y116644238D01*
X75364238Y116691857D01*
X75030904Y117263285D02*
X74649952Y117263285D01*
X74888047Y117596619D02*
X74888047Y116739476D01*
X74840428Y116644238D01*
X74745190Y116596619D01*
X74649952Y116596619D01*
X20526904Y92429000D02*
X20622142Y92476619D01*
X20765000Y92476619D01*
X20907857Y92429000D01*
X21003095Y92333761D01*
X21050714Y92238523D01*
X21098333Y92048047D01*
X21098333Y91905190D01*
X21050714Y91714714D01*
X21003095Y91619476D01*
X20907857Y91524238D01*
X20765000Y91476619D01*
X20669761Y91476619D01*
X20526904Y91524238D01*
X20479285Y91571857D01*
X20479285Y91905190D01*
X20669761Y91905190D01*
X20050714Y91476619D02*
X20050714Y92476619D01*
X19479285Y91476619D01*
X19479285Y92476619D01*
X19003095Y91476619D02*
X19003095Y92476619D01*
X18765000Y92476619D01*
X18622142Y92429000D01*
X18526904Y92333761D01*
X18479285Y92238523D01*
X18431666Y92048047D01*
X18431666Y91905190D01*
X18479285Y91714714D01*
X18526904Y91619476D01*
X18622142Y91524238D01*
X18765000Y91476619D01*
X19003095Y91476619D01*
X18058380Y78149476D02*
X18058380Y78720904D01*
X18058380Y78435190D02*
X17058380Y78435190D01*
X17201238Y78530428D01*
X17296476Y78625666D01*
X17344095Y78720904D01*
X17153619Y77768523D02*
X17106000Y77720904D01*
X17058380Y77625666D01*
X17058380Y77387571D01*
X17106000Y77292333D01*
X17153619Y77244714D01*
X17248857Y77197095D01*
X17344095Y77197095D01*
X17486952Y77244714D01*
X18058380Y77816142D01*
X18058380Y77197095D01*
X18185380Y82213476D02*
X18185380Y82784904D01*
X18185380Y82499190D02*
X17185380Y82499190D01*
X17328238Y82594428D01*
X17423476Y82689666D01*
X17471095Y82784904D01*
X17185380Y81594428D02*
X17185380Y81499190D01*
X17233000Y81403952D01*
X17280619Y81356333D01*
X17375857Y81308714D01*
X17566333Y81261095D01*
X17804428Y81261095D01*
X17994904Y81308714D01*
X18090142Y81356333D01*
X18137761Y81403952D01*
X18185380Y81499190D01*
X18185380Y81594428D01*
X18137761Y81689666D01*
X18090142Y81737285D01*
X17994904Y81784904D01*
X17804428Y81832523D01*
X17566333Y81832523D01*
X17375857Y81784904D01*
X17280619Y81737285D01*
X17233000Y81689666D01*
X17185380Y81594428D01*
X23900380Y65862285D02*
X23900380Y66433714D01*
X23900380Y66148000D02*
X22900380Y66148000D01*
X23043238Y66243238D01*
X23138476Y66338476D01*
X23186095Y66433714D01*
X17026619Y102374714D02*
X16979000Y102327095D01*
X16931380Y102231857D01*
X16931380Y101993761D01*
X16979000Y101898523D01*
X17026619Y101850904D01*
X17121857Y101803285D01*
X17217095Y101803285D01*
X17359952Y101850904D01*
X17931380Y102422333D01*
X17931380Y101803285D01*
X13121380Y88198333D02*
X13121380Y87531666D01*
X14121380Y87960238D01*
X83534904Y114447619D02*
X84011095Y114447619D01*
X84058714Y113971428D01*
X84011095Y114019047D01*
X83915857Y114066666D01*
X83677761Y114066666D01*
X83582523Y114019047D01*
X83534904Y113971428D01*
X83487285Y113876190D01*
X83487285Y113638095D01*
X83534904Y113542857D01*
X83582523Y113495238D01*
X83677761Y113447619D01*
X83915857Y113447619D01*
X84011095Y113495238D01*
X84058714Y113542857D01*
X120571380Y84653523D02*
X121571380Y84320190D01*
X120571380Y83986857D01*
X121571380Y83605904D02*
X121571380Y83415428D01*
X121523761Y83320190D01*
X121476142Y83272571D01*
X121333285Y83177333D01*
X121142809Y83129714D01*
X120761857Y83129714D01*
X120666619Y83177333D01*
X120619000Y83224952D01*
X120571380Y83320190D01*
X120571380Y83510666D01*
X120619000Y83605904D01*
X120666619Y83653523D01*
X120761857Y83701142D01*
X120999952Y83701142D01*
X121095190Y83653523D01*
X121142809Y83605904D01*
X121190428Y83510666D01*
X121190428Y83320190D01*
X121142809Y83224952D01*
X121095190Y83177333D01*
X120999952Y83129714D01*
X77359523Y120337285D02*
X77359523Y119670619D01*
X77597619Y120718238D02*
X77835714Y120003952D01*
X77216666Y120003952D01*
D16*
X11834476Y95181142D02*
X11834476Y95776380D01*
X10584476Y95776380D01*
X11834476Y94585904D02*
X11774952Y94704952D01*
X11715428Y94764476D01*
X11596380Y94824000D01*
X11239238Y94824000D01*
X11120190Y94764476D01*
X11060666Y94704952D01*
X11001142Y94585904D01*
X11001142Y94407333D01*
X11060666Y94288285D01*
X11120190Y94228761D01*
X11239238Y94169238D01*
X11596380Y94169238D01*
X11715428Y94228761D01*
X11774952Y94288285D01*
X11834476Y94407333D01*
X11834476Y94585904D01*
X11001142Y93752571D02*
X11834476Y93514476D01*
X11239238Y93276380D01*
X11834476Y93038285D01*
X11001142Y92800190D01*
X11774952Y92383523D02*
X11834476Y92264476D01*
X11834476Y92026380D01*
X11774952Y91907333D01*
X11655904Y91847809D01*
X11596380Y91847809D01*
X11477333Y91907333D01*
X11417809Y92026380D01*
X11417809Y92204952D01*
X11358285Y92324000D01*
X11239238Y92383523D01*
X11179714Y92383523D01*
X11060666Y92324000D01*
X11001142Y92204952D01*
X11001142Y92026380D01*
X11060666Y91907333D01*
X11834476Y91312095D02*
X11001142Y91312095D01*
X10584476Y91312095D02*
X10644000Y91371619D01*
X10703523Y91312095D01*
X10644000Y91252571D01*
X10584476Y91312095D01*
X10703523Y91312095D01*
X11834476Y90181142D02*
X10584476Y90181142D01*
X11774952Y90181142D02*
X11834476Y90300190D01*
X11834476Y90538285D01*
X11774952Y90657333D01*
X11715428Y90716857D01*
X11596380Y90776380D01*
X11239238Y90776380D01*
X11120190Y90716857D01*
X11060666Y90657333D01*
X11001142Y90538285D01*
X11001142Y90300190D01*
X11060666Y90181142D01*
X11774952Y89109714D02*
X11834476Y89228761D01*
X11834476Y89466857D01*
X11774952Y89585904D01*
X11655904Y89645428D01*
X11179714Y89645428D01*
X11060666Y89585904D01*
X11001142Y89466857D01*
X11001142Y89228761D01*
X11060666Y89109714D01*
X11179714Y89050190D01*
X11298761Y89050190D01*
X11417809Y89645428D01*
X10524952Y87621619D02*
X12132095Y88693047D01*
X11834476Y87204952D02*
X10584476Y87204952D01*
X11001142Y86609714D02*
X11834476Y86609714D01*
X11120190Y86609714D02*
X11060666Y86550190D01*
X11001142Y86431142D01*
X11001142Y86252571D01*
X11060666Y86133523D01*
X11179714Y86074000D01*
X11834476Y86074000D01*
X11001142Y85478761D02*
X12072571Y85478761D01*
X12191619Y85538285D01*
X12251142Y85657333D01*
X12251142Y85716857D01*
X10584476Y85478761D02*
X10644000Y85538285D01*
X10703523Y85478761D01*
X10644000Y85419238D01*
X10584476Y85478761D01*
X10703523Y85478761D01*
X11774952Y84407333D02*
X11834476Y84526380D01*
X11834476Y84764476D01*
X11774952Y84883523D01*
X11655904Y84943047D01*
X11179714Y84943047D01*
X11060666Y84883523D01*
X11001142Y84764476D01*
X11001142Y84526380D01*
X11060666Y84407333D01*
X11179714Y84347809D01*
X11298761Y84347809D01*
X11417809Y84943047D01*
X11774952Y83276380D02*
X11834476Y83395428D01*
X11834476Y83633523D01*
X11774952Y83752571D01*
X11715428Y83812095D01*
X11596380Y83871619D01*
X11239238Y83871619D01*
X11120190Y83812095D01*
X11060666Y83752571D01*
X11001142Y83633523D01*
X11001142Y83395428D01*
X11060666Y83276380D01*
X11001142Y82919238D02*
X11001142Y82443047D01*
X10584476Y82740666D02*
X11655904Y82740666D01*
X11774952Y82681142D01*
X11834476Y82562095D01*
X11834476Y82443047D01*
X11834476Y81847809D02*
X11774952Y81966857D01*
X11715428Y82026380D01*
X11596380Y82085904D01*
X11239238Y82085904D01*
X11120190Y82026380D01*
X11060666Y81966857D01*
X11001142Y81847809D01*
X11001142Y81669238D01*
X11060666Y81550190D01*
X11120190Y81490666D01*
X11239238Y81431142D01*
X11596380Y81431142D01*
X11715428Y81490666D01*
X11774952Y81550190D01*
X11834476Y81669238D01*
X11834476Y81847809D01*
X11834476Y80895428D02*
X11001142Y80895428D01*
X11239238Y80895428D02*
X11120190Y80835904D01*
X11060666Y80776380D01*
X11001142Y80657333D01*
X11001142Y80538285D01*
X10584476Y78931142D02*
X10584476Y78693047D01*
X10644000Y78574000D01*
X10763047Y78454952D01*
X11001142Y78395428D01*
X11417809Y78395428D01*
X11655904Y78454952D01*
X11774952Y78574000D01*
X11834476Y78693047D01*
X11834476Y78931142D01*
X11774952Y79050190D01*
X11655904Y79169238D01*
X11417809Y79228761D01*
X11001142Y79228761D01*
X10763047Y79169238D01*
X10644000Y79050190D01*
X10584476Y78931142D01*
X11001142Y77324000D02*
X11834476Y77324000D01*
X11001142Y77859714D02*
X11655904Y77859714D01*
X11774952Y77800190D01*
X11834476Y77681142D01*
X11834476Y77502571D01*
X11774952Y77383523D01*
X11715428Y77324000D01*
X11001142Y76907333D02*
X11001142Y76431142D01*
X10584476Y76728761D02*
X11655904Y76728761D01*
X11774952Y76669238D01*
X11834476Y76550190D01*
X11834476Y76431142D01*
X11001142Y76014476D02*
X12251142Y76014476D01*
X11060666Y76014476D02*
X11001142Y75895428D01*
X11001142Y75657333D01*
X11060666Y75538285D01*
X11120190Y75478761D01*
X11239238Y75419238D01*
X11596380Y75419238D01*
X11715428Y75478761D01*
X11774952Y75538285D01*
X11834476Y75657333D01*
X11834476Y75895428D01*
X11774952Y76014476D01*
X11001142Y74347809D02*
X11834476Y74347809D01*
X11001142Y74883523D02*
X11655904Y74883523D01*
X11774952Y74824000D01*
X11834476Y74704952D01*
X11834476Y74526380D01*
X11774952Y74407333D01*
X11715428Y74347809D01*
X11001142Y73931142D02*
X11001142Y73454952D01*
X10584476Y73752571D02*
X11655904Y73752571D01*
X11774952Y73693047D01*
X11834476Y73574000D01*
X11834476Y73454952D01*
X11774952Y73097809D02*
X11834476Y72978761D01*
X11834476Y72740666D01*
X11774952Y72621619D01*
X11655904Y72562095D01*
X11596380Y72562095D01*
X11477333Y72621619D01*
X11417809Y72740666D01*
X11417809Y72919238D01*
X11358285Y73038285D01*
X11239238Y73097809D01*
X11179714Y73097809D01*
X11060666Y73038285D01*
X11001142Y72919238D01*
X11001142Y72740666D01*
X11060666Y72621619D01*
D12*
X112292380Y111963000D02*
X111292380Y111963000D01*
X112292380Y111391571D02*
X111720952Y111820142D01*
X111292380Y111391571D02*
X111863809Y111963000D01*
X111625714Y110963000D02*
X112292380Y110963000D01*
X111720952Y110963000D02*
X111673333Y110915380D01*
X111625714Y110820142D01*
X111625714Y110677285D01*
X111673333Y110582047D01*
X111768571Y110534428D01*
X112292380Y110534428D01*
X112292380Y109915380D02*
X112244761Y110010619D01*
X112197142Y110058238D01*
X112101904Y110105857D01*
X111816190Y110105857D01*
X111720952Y110058238D01*
X111673333Y110010619D01*
X111625714Y109915380D01*
X111625714Y109772523D01*
X111673333Y109677285D01*
X111720952Y109629666D01*
X111816190Y109582047D01*
X112101904Y109582047D01*
X112197142Y109629666D01*
X112244761Y109677285D01*
X112292380Y109772523D01*
X112292380Y109915380D01*
X112244761Y108724904D02*
X112292380Y108820142D01*
X112292380Y109010619D01*
X112244761Y109105857D01*
X112197142Y109153476D01*
X112101904Y109201095D01*
X111816190Y109201095D01*
X111720952Y109153476D01*
X111673333Y109105857D01*
X111625714Y109010619D01*
X111625714Y108820142D01*
X111673333Y108724904D01*
X112292380Y108296333D02*
X111292380Y108296333D01*
X111911428Y108201095D02*
X112292380Y107915380D01*
X111625714Y107915380D02*
X112006666Y108296333D01*
D13*
X25630904Y127094238D02*
X25249952Y127094238D01*
X25059476Y126999000D01*
X24869000Y126808523D01*
X24773761Y126427571D01*
X24773761Y125760904D01*
X24869000Y125379952D01*
X25059476Y125189476D01*
X25249952Y125094238D01*
X25630904Y125094238D01*
X25821380Y125189476D01*
X26011857Y125379952D01*
X26107095Y125760904D01*
X26107095Y126427571D01*
X26011857Y126808523D01*
X25821380Y126999000D01*
X25630904Y127094238D01*
X23916619Y127094238D02*
X23916619Y125475190D01*
X23821380Y125284714D01*
X23726142Y125189476D01*
X23535666Y125094238D01*
X23154714Y125094238D01*
X22964238Y125189476D01*
X22869000Y125284714D01*
X22773761Y125475190D01*
X22773761Y127094238D01*
X22107095Y127094238D02*
X20964238Y127094238D01*
X21535666Y125094238D02*
X21535666Y127094238D01*
X20297571Y125094238D02*
X20297571Y127094238D01*
X19535666Y127094238D01*
X19345190Y126999000D01*
X19249952Y126903761D01*
X19154714Y126713285D01*
X19154714Y126427571D01*
X19249952Y126237095D01*
X19345190Y126141857D01*
X19535666Y126046619D01*
X20297571Y126046619D01*
X18297571Y127094238D02*
X18297571Y125475190D01*
X18202333Y125284714D01*
X18107095Y125189476D01*
X17916619Y125094238D01*
X17535666Y125094238D01*
X17345190Y125189476D01*
X17249952Y125284714D01*
X17154714Y125475190D01*
X17154714Y127094238D01*
X16488047Y127094238D02*
X15345190Y127094238D01*
X15916619Y125094238D02*
X15916619Y127094238D01*
X14773761Y125189476D02*
X14488047Y125094238D01*
X14011857Y125094238D01*
X13821380Y125189476D01*
X13726142Y125284714D01*
X13630904Y125475190D01*
X13630904Y125665666D01*
X13726142Y125856142D01*
X13821380Y125951380D01*
X14011857Y126046619D01*
X14392809Y126141857D01*
X14583285Y126237095D01*
X14678523Y126332333D01*
X14773761Y126522809D01*
X14773761Y126713285D01*
X14678523Y126903761D01*
X14583285Y126999000D01*
X14392809Y127094238D01*
X13916619Y127094238D01*
X13630904Y126999000D01*
D12*
X18058380Y70021476D02*
X18058380Y70592904D01*
X18058380Y70307190D02*
X17058380Y70307190D01*
X17201238Y70402428D01*
X17296476Y70497666D01*
X17344095Y70592904D01*
X17058380Y69164333D02*
X17058380Y69354809D01*
X17106000Y69450047D01*
X17153619Y69497666D01*
X17296476Y69592904D01*
X17486952Y69640523D01*
X17867904Y69640523D01*
X17963142Y69592904D01*
X18010761Y69545285D01*
X18058380Y69450047D01*
X18058380Y69259571D01*
X18010761Y69164333D01*
X17963142Y69116714D01*
X17867904Y69069095D01*
X17629809Y69069095D01*
X17534571Y69116714D01*
X17486952Y69164333D01*
X17439333Y69259571D01*
X17439333Y69450047D01*
X17486952Y69545285D01*
X17534571Y69592904D01*
X17629809Y69640523D01*
X120571380Y68397523D02*
X121571380Y68064190D01*
X120571380Y67730857D01*
X121571380Y66873714D02*
X121571380Y67445142D01*
X121571380Y67159428D02*
X120571380Y67159428D01*
X120714238Y67254666D01*
X120809476Y67349904D01*
X120857095Y67445142D01*
X116753380Y91039904D02*
X116753380Y90468476D01*
X117753380Y90754190D02*
X116753380Y90754190D01*
X116848619Y90182761D02*
X116801000Y90135142D01*
X116753380Y90039904D01*
X116753380Y89801809D01*
X116801000Y89706571D01*
X116848619Y89658952D01*
X116943857Y89611333D01*
X117039095Y89611333D01*
X117181952Y89658952D01*
X117753380Y90230380D01*
X117753380Y89611333D01*
D14*
G04 #@! TO.C,J1*
X126822200Y136806940D02*
G75*
G03*
X126822200Y136806940I-381000J0D01*
G01*
D17*
G04 #@! TO.C,BRD1*
X51769000Y112999000D02*
X51869000Y120749000D01*
X89819000Y108949000D02*
X89819000Y117049000D01*
X21669000Y68699000D02*
X17869000Y67149000D01*
X65719000Y117349000D02*
X65719000Y123999000D01*
X122619000Y105999000D02*
X125419000Y105999000D01*
X118169000Y107799000D02*
X121119000Y107799000D01*
D18*
X103769000Y51549000D02*
X103769000Y128449000D01*
D17*
X121119000Y99899000D02*
X122619000Y97899000D01*
X9869000Y102999000D02*
X9819000Y64999000D01*
X77819000Y106549000D02*
X73869000Y106549000D01*
X122619000Y109949000D02*
X121119000Y107799000D01*
D18*
X39419000Y131049000D02*
X39419000Y98949000D01*
D17*
X17619000Y105349000D02*
X14419000Y106649000D01*
X110819000Y112349000D02*
X114119000Y113999000D01*
X114119000Y116549000D02*
X118869000Y116549000D01*
X89819000Y108949000D02*
X77819000Y108949000D01*
X21619000Y117149000D02*
X20319000Y117149000D01*
X125419000Y94199000D02*
X127669000Y94199000D01*
X127619000Y65149000D02*
X112869000Y65049000D01*
X20319000Y117149000D02*
X13169000Y117149000D01*
X89819000Y121099000D02*
X89819000Y117049000D01*
X74819000Y124049000D02*
X75769000Y121149000D01*
D18*
X39419000Y98949000D02*
X100219000Y98949000D01*
D17*
X63819000Y114799000D02*
X64219000Y112999000D01*
X26819000Y65049000D02*
X26819000Y113449000D01*
D18*
X3769000Y128449000D02*
X35869000Y128449000D01*
D17*
X118819000Y115049000D02*
X122619000Y109949000D01*
X110819000Y107549000D02*
X110819000Y112349000D01*
X57869000Y123999000D02*
X57869000Y117349000D01*
X116919000Y109949000D02*
X118169000Y107799000D01*
X121119000Y107799000D02*
X122619000Y105999000D01*
D18*
X3769000Y51549000D02*
X35869000Y51549000D01*
D17*
X125419000Y112749000D02*
X127669000Y112749000D01*
X71819000Y114099000D02*
X72869000Y112999000D01*
X73869000Y120399000D02*
X75769000Y121149000D01*
X125419000Y97899000D02*
X125419000Y94199000D01*
X113119000Y89899000D02*
X115769000Y89899000D01*
D18*
X3769000Y128449000D02*
X3769000Y51549000D01*
D17*
X112819000Y85799000D02*
X113119000Y89899000D01*
X59769000Y117349000D02*
X59769000Y112999000D01*
X70819000Y112999000D02*
X71819000Y114099000D01*
X116419000Y97899000D02*
X118169000Y99899000D01*
X113119000Y89899000D02*
X114019000Y97899000D01*
X53069000Y107399000D02*
X53019000Y112999000D01*
X51869000Y120749000D02*
X57869000Y120749000D01*
X26819000Y113449000D02*
X21619000Y113449000D01*
X127669000Y117749000D02*
X118869000Y117649000D01*
X122169000Y95999000D02*
X121869000Y65099000D01*
X114019000Y105749000D02*
X110819000Y107549000D01*
X72869000Y112999000D02*
X89819000Y112999000D01*
X117069000Y85849000D02*
X112819000Y85799000D01*
X114019000Y97899000D02*
X116419000Y97899000D01*
X118319000Y87849000D02*
X117069000Y85849000D01*
X71819000Y114099000D02*
X71819000Y115949000D01*
X21669000Y76299000D02*
X17869000Y75449000D01*
X114019000Y97899000D02*
X114019000Y105749000D01*
X21619000Y117149000D02*
X21669000Y76299000D01*
X114119000Y113999000D02*
X117219000Y113999000D01*
X73869000Y106549000D02*
X73869000Y112999000D01*
X17869000Y75449000D02*
X17919000Y72249000D01*
X118169000Y99899000D02*
X121119000Y99899000D01*
X117219000Y113999000D02*
X118319000Y111849000D01*
X21619000Y109849000D02*
X26819000Y109849000D01*
X57869000Y112899000D02*
X57869000Y107449000D01*
X65719000Y112999000D02*
X65719000Y109199000D01*
X73869000Y109199000D02*
X57869000Y109199000D01*
X114119000Y113999000D02*
X114119000Y116549000D01*
X64219000Y112999000D02*
X70819000Y112999000D01*
X125419000Y105999000D02*
X125419000Y112749000D01*
X118319000Y111849000D02*
X116919000Y109949000D01*
X63869000Y117349000D02*
X63819000Y114799000D01*
X57869000Y107449000D02*
X53069000Y107399000D01*
X119319000Y111249000D02*
X118069000Y114549000D01*
X21669000Y103349000D02*
X17619000Y104249000D01*
D18*
X135869000Y128449000D02*
X103769000Y128449000D01*
D17*
X112869000Y65049000D02*
X112819000Y85799000D01*
X77819000Y112949000D02*
X77819000Y106549000D01*
X17619000Y104249000D02*
X17619000Y105349000D01*
X116819000Y105799000D02*
X114019000Y105749000D01*
X17869000Y67149000D02*
X17819000Y65049000D01*
X17819000Y65049000D02*
X26819000Y65049000D01*
X17769000Y88599000D02*
X17769000Y95499000D01*
X64219000Y112999000D02*
X51769000Y112999000D01*
D18*
X35869000Y128449000D02*
X35869000Y51549000D01*
D17*
X122619000Y97899000D02*
X125419000Y97899000D01*
D18*
X100219000Y98949000D02*
X100219000Y131049000D01*
X135869000Y51549000D02*
X135869000Y128449000D01*
D17*
X127669000Y117749000D02*
X127619000Y65149000D01*
X17919000Y72249000D02*
X21669000Y71349000D01*
X13219000Y108049000D02*
X9869000Y102999000D01*
X73869000Y117849000D02*
X73869000Y120399000D01*
X118169000Y107799000D02*
X116819000Y105799000D01*
X122619000Y97899000D02*
X122169000Y95999000D01*
D18*
X135869000Y51549000D02*
X103769000Y51549000D01*
D17*
X71819000Y115949000D02*
X73869000Y117849000D01*
X9819000Y64999000D02*
X17819000Y65049000D01*
X57869000Y117349000D02*
X65719000Y117349000D01*
X14419000Y106649000D02*
X13219000Y108049000D01*
X118869000Y117649000D02*
X118819000Y115049000D01*
X13169000Y117149000D02*
X13219000Y108049000D01*
X21669000Y71349000D02*
X21669000Y68699000D01*
X21669000Y87349000D02*
X17769000Y88599000D01*
X57969000Y123999000D02*
X74819000Y124049000D01*
X115769000Y89899000D02*
X118319000Y87849000D01*
X17769000Y95499000D02*
X21619000Y96499000D01*
X75769000Y121149000D02*
X89819000Y121099000D01*
D18*
X100219000Y131049000D02*
X39419000Y131049000D01*
D16*
G04 #@! TO.C,M3*
X119882000Y29833000D02*
X80732000Y29833000D01*
X80732000Y29833000D02*
X80732000Y14933000D01*
X80732000Y14933000D02*
X119882000Y14933000D01*
X119882000Y14933000D02*
X119882000Y29833000D01*
G04 #@! TO.C,M2*
X72507668Y27810501D02*
X72232662Y27535497D01*
X71351460Y16635501D02*
X78244337Y16635501D01*
X72507668Y27810501D02*
X78205490Y27810501D01*
X78205490Y27810501D02*
X78244337Y16635501D01*
X71407663Y27535497D02*
X71357663Y27479295D01*
X71407663Y27535497D02*
X72232662Y27535497D01*
X71357663Y27479295D02*
X71357663Y16635501D01*
G04 #@! TO.C,M1*
X20792000Y14683000D02*
X59942000Y14683000D01*
X59942000Y14683000D02*
X59942000Y29583000D01*
X59942000Y29583000D02*
X20792000Y29583000D01*
X20792000Y29583000D02*
X20792000Y14683000D01*
G04 #@! TO.C,M4*
X68800337Y16910502D02*
X67975338Y16910502D01*
X67700332Y16635498D02*
X62002510Y16635498D01*
X67700332Y16635498D02*
X67975338Y16910502D01*
X62002510Y16635498D02*
X61963663Y27810498D01*
X68800337Y16910502D02*
X68850337Y16966704D01*
X68856540Y27810498D02*
X61963663Y27810498D01*
X68850337Y16966704D02*
X68850337Y27810498D01*
G04 #@! TD*
M02*
