M48
; DRILL file {KiCad (6.0.1)} date Mon Jun  6 22:48:39 2022
; FORMAT={2:4/ absolute / inch / suppress leading zeros}
; #@! TF.CreationDate,2022-06-06T22:48:39+03:00
; #@! TF.GenerationSoftware,Kicad,Pcbnew,(6.0.1)
; #@! TF.FileFunction,MixedPlating,1,2
FMAT,2
INCH,TZ
; #@! TA.AperFunction,Plated,PTH,ComponentDrill
T1C0.0118
; #@! TA.AperFunction,Plated,PTH,ViaDrill
T2C0.0118
; #@! TA.AperFunction,Plated,PTH,ComponentDrill
T3C0.0118
; #@! TA.AperFunction,Plated,PTH,ViaDrill
T4C0.0171
; #@! TA.AperFunction,Plated,PTH,ViaDrill
T5C0.0197
; #@! TA.AperFunction,Plated,PTH,ComponentDrill
T6C0.0374
; #@! TA.AperFunction,Plated,PTH,ComponentDrill
T7C0.0380
; #@! TA.AperFunction,Plated,PTH,ComponentDrill
T8C0.0394
; #@! TA.AperFunction,Plated,PTH,ComponentDrill
T9C0.0450
; #@! TA.AperFunction,Plated,PTH,ViaDrill
T10C0.0467
; #@! TA.AperFunction,Plated,PTH,ViaDrill
T11C0.0551
; #@! TA.AperFunction,Plated,PTH,ComponentDrill
T12C0.0689
; #@! TA.AperFunction,NonPlated,NPTH,ComponentDrill
T13C0.0787
; #@! TA.AperFunction,NonPlated,NPTH,ComponentDrill
T14C0.1673
%
G90
G05
T1
X24705Y9630
X26102Y9660
X26398Y9197
X26604Y9542
X28596Y7957
X28802Y8301
X29098Y7839
X30495Y7868
T2
X900Y50050
X900Y47408
X900Y44670
X900Y40901
X900Y36614
X900Y32537
X1108Y26502
X1532Y16184
X1626Y19294
X1898Y52872
X2097Y23063
X2250Y11150
X2250Y6150
X2250Y1150
X2450Y26350
X3990Y48666
X4304Y29554
X4389Y57272
X4648Y30780
X4689Y16514
X4736Y23346
X4936Y32025
X5024Y52917
X5108Y33499
X5241Y55117
X5254Y19718
X5897Y48964
X7250Y3650
X7515Y24571
X7738Y57991
X8222Y16184
X8505Y18870
X8609Y52021
X9494Y22215
X9644Y50573
X9750Y13650
X9965Y53584
X10015Y35521
X10054Y37053
X11160Y52642
X11367Y50504
X11398Y41143
X11614Y20330
X11974Y26507
X11981Y57585
X11990Y38247
X12227Y16373
X12250Y1150
X12295Y35789
X12563Y34429
X12639Y31461
X12735Y33108
X13263Y18728
X13327Y15800
X13590Y49385
X13667Y57578
X13938Y29560
X13978Y54550
X14646Y24244
X14750Y13650
X14850Y17250
X15200Y42050
X15927Y42744
X15928Y26589
X16201Y28933
X16374Y34844
X16505Y38018
X16582Y21054
X16650Y50550
X16872Y32063
X17250Y3650
X18123Y46894
X18187Y41633
X18493Y42763
X18583Y57245
X18635Y48485
X19139Y15583
X19950Y26025
X20084Y30049
X20218Y38232
X20275Y57197
X20335Y43310
X20486Y32866
X20486Y21800
X20660Y15619
X20822Y36220
X20886Y20072
X21013Y49862
X21102Y50211
X21358Y28373
X21425Y24617
X21828Y38702
X21919Y57197
X22029Y30720
X22250Y1150
X22364Y34879
X22470Y51893
X22700Y41150
X22901Y21531
X23204Y15619
X23438Y24482
X23840Y29312
X23907Y32934
X23974Y26763
X24000Y8350
X24242Y38366
X24310Y36287
X24401Y52133
X24465Y49930
X24750Y13650
X25047Y22873
X25249Y27031
X25325Y15619
X25466Y17598
X25651Y36555
X25785Y32732
X26001Y58130
X26346Y54633
X26364Y19228
X26771Y56138
X26922Y49707
X27209Y17880
X27250Y3650
X27274Y10050
X27565Y10737
X27832Y53122
X27852Y10050
X27920Y20714
X28670Y16043
X28702Y57912
X28702Y54666
X28803Y26159
X28937Y23208
X29005Y30117
X29206Y33805
X29407Y37696
X29667Y50760
X29750Y13650
X29781Y56269
X29800Y18163
X29850Y44719
X30413Y21330
X30662Y46198
X30931Y16467
X31200Y9250
X31327Y53250
X32191Y50756
X32250Y1150
X32265Y51790
X32285Y44339
X32425Y26562
X32487Y50756
X32545Y52050
X32694Y36220
X32783Y50756
X32802Y57276
X32962Y39909
X33031Y45884
X33145Y16184
X33163Y31525
X33163Y20928
X33210Y53697
X33260Y50756
X33368Y49197
X33496Y50520
X33774Y42132
X33956Y52216
X34021Y42355
X34035Y23342
X34259Y42641
X34556Y57260
X34710Y49419
X34750Y51748
X34979Y42723
X35063Y46318
X35338Y48045
X35511Y41720
X35600Y16100
X36047Y19787
X36125Y57353
X36382Y44000
X36450Y35683
X36852Y30318
X36870Y48281
X37250Y13650
X37250Y3650
X37590Y19922
X37657Y40311
X37802Y57307
X37925Y27232
X38059Y24281
X38798Y37427
X39186Y50244
X39199Y45878
X39494Y57276
X39663Y50104
X39937Y22135
X39958Y50080
X40200Y43750
X40254Y50080
X40340Y30385
X40541Y46683
X40550Y50080
X40589Y15949
X40819Y49900
X41078Y38501
X41109Y57369
X41145Y33202
X41485Y18917
X41838Y51825
X42084Y27702
X42250Y13650
X42250Y1150
X42486Y19989
X42574Y50609
X42956Y25019
X43760Y17306
X44416Y57260
X44897Y50412
X44912Y51706
X44968Y23342
X45649Y53521
X46435Y58396
X46577Y24684
X46786Y49059
X47018Y45602
X47181Y22135
X47250Y26300
X47250Y13650
X47250Y3650
X47852Y17239
X49529Y24550
X49576Y58396
X49739Y55058
X50125Y49363
X50803Y43933
X50870Y28037
X51071Y33671
X51205Y38299
X51474Y17172
X52250Y1150
X52546Y46909
X52623Y51558
X52815Y20995
X53218Y40915
X53285Y31190
X53352Y26763
X53419Y35147
X53598Y52763
T3
X8363Y11037
X8363Y10643
X8363Y10249
X8363Y9856
X23422Y9422
X23422Y9029
X23422Y7631
X23422Y7237
X31961Y10289
X31961Y9895
X31961Y8497
X31961Y8104
X47020Y7670
X47020Y7277
X47020Y6883
X47020Y6489
T4
X13950Y50000
X17122Y47439
X19858Y50354
X33644Y53239
X37115Y51450
X37393Y51070
X47760Y34831
T5
X19295Y48097
X19628Y45646
X19708Y45150
X19710Y47915
X19890Y47498
X19963Y44775
X19986Y46977
X21274Y48324
X21300Y46361
X21649Y48051
T6
X4550Y13332
X4550Y12348
X4550Y11364
X4550Y10380
X4550Y9395
X4550Y8411
X4550Y7427
X4550Y6443
X4550Y5458
X4550Y4474
X50450Y13332
X50450Y12348
X50450Y11364
X50450Y10380
X50450Y9395
X50450Y8411
X50450Y7427
X50450Y6443
X50450Y5458
X50450Y4474
T7
X16511Y18016
X16511Y17016
X17511Y18016
X17511Y17016
X18511Y18016
X18511Y17016
X19511Y18016
X19511Y17016
X20511Y18016
X20511Y17016
X21511Y18016
X21511Y17016
X22511Y18016
X22511Y17016
X23511Y18016
X23511Y17016
X31553Y18016
X31553Y17016
X32553Y18016
X32553Y17016
X33553Y18016
X33553Y17016
X34553Y18016
X34553Y17016
X35553Y18016
X35553Y17016
X36553Y18016
X36553Y17016
X37553Y18016
X37553Y17016
X38553Y18016
X38553Y17016
T8
X17950Y13050
X18950Y13050
X19950Y13050
X20950Y13050
X21950Y13050
X22950Y13050
X32600Y4600
X33600Y4600
X34600Y4600
X35600Y4600
X36600Y4600
X37600Y4600
T9
X8377Y55220
X8934Y56411
X9492Y57602
X10027Y55220
X10584Y56411
X11142Y57602
X11677Y55220
X12234Y56411
X12791Y57602
X13326Y55220
X13884Y56411
X14441Y57602
X14976Y55220
X15534Y56411
X16091Y57602
X16626Y55220
X17184Y56411
X17741Y57602
X18276Y55220
X18834Y56411
X19391Y57602
X19926Y55220
X20484Y56411
X21041Y57602
X21576Y55220
X22134Y56411
X22691Y57602
X23226Y55220
X23783Y56411
X24341Y57602
X30865Y55220
X31423Y56411
X31980Y57602
X32515Y55220
X33073Y56411
X33630Y57602
X34165Y55220
X34723Y56411
X35280Y57602
X35815Y55220
X36373Y56411
X36930Y57602
X37465Y55220
X38023Y56411
X38580Y57602
X39115Y55220
X39672Y56411
X40230Y57602
X40765Y55220
X41322Y56411
X41880Y57602
X42415Y55220
X42972Y56411
X43530Y57602
X44065Y55220
X44622Y56411
X45180Y57602
X45715Y55220
X46272Y56411
X46830Y57602
X47780Y53111
X48780Y53111
X49780Y53111
T10
X12117Y47994
X14181Y48322
X15816Y46916
X21912Y41444
X22956Y39344
T11
X32039Y42020
X40600Y41450
X42600Y43400
T12
X6228Y44094
X6228Y42519
X6228Y40944
X6228Y39370
X6228Y37795
X6228Y36220
X6228Y34645
X6228Y33070
X6228Y31496
X6228Y29921
X6228Y28346
X6228Y26771
X7803Y43307
X7803Y41732
X7803Y40157
X7803Y38582
X7803Y37007
X7803Y35433
X7803Y33858
X7803Y32283
X7803Y30708
X7803Y29133
X7803Y27559
X9378Y44094
X9378Y42519
X9378Y40944
X9378Y39370
X9378Y37795
X9378Y36220
X9378Y34645
X9378Y33070
X9378Y31496
X9378Y29921
X9378Y28346
X9378Y26771
X21976Y46850
X21976Y43700
X22763Y45275
X23551Y46850
X23551Y43700
X24338Y45275
X25126Y46850
X25126Y43700
X25913Y45275
X26700Y46850
X26700Y43700
X27488Y45275
X28275Y46850
X28275Y43700
X29063Y45275
X29850Y46850
X29850Y43700
X30637Y45275
X31425Y46850
X31425Y43700
X32212Y45275
X33000Y46850
X33000Y43700
X45598Y44094
X45598Y42519
X45598Y40944
X45598Y39370
X45598Y37795
X45598Y36220
X45598Y34645
X45598Y33070
X45598Y31496
X45598Y29921
X45598Y28346
X45598Y26771
X47173Y43307
X47173Y41732
X47173Y40157
X47173Y38582
X47173Y37007
X47173Y35433
X47173Y33858
X47173Y32283
X47173Y30708
X47173Y29133
X47173Y27559
X48748Y44094
X48748Y42519
X48748Y40944
X48748Y39370
X48748Y37795
X48748Y36220
X48748Y34645
X48748Y33070
X48748Y31496
X48748Y29921
X48748Y28346
X48748Y26771
T13
X3551Y47913
X3551Y22952
X10677Y48504
X10677Y22362
X17567Y42401
X18157Y49527
X36819Y49527
X37409Y42401
X44299Y48504
X44299Y22362
X51425Y47913
X51425Y22952
T14
X6489Y56992
X27600Y51228
X48711Y56992
T0
M30
