M48
; DRILL file {KiCad (6.0.1)} date Mon Jun  6 17:44:46 2022
; FORMAT={2:4/ absolute / inch / suppress leading zeros}
; #@! TF.CreationDate,2022-06-06T17:44:46+03:00
; #@! TF.GenerationSoftware,Kicad,Pcbnew,(6.0.1)
; #@! TF.FileFunction,MixedPlating,1,2
FMAT,2
INCH,TZ
; #@! TA.AperFunction,Plated,PTH,ComponentDrill
T1C0.0118
; #@! TA.AperFunction,Plated,PTH,ViaDrill
T2C0.0118
; #@! TA.AperFunction,Plated,PTH,ComponentDrill
T3C0.0118
; #@! TA.AperFunction,Plated,PTH,ViaDrill
T4C0.0171
; #@! TA.AperFunction,Plated,PTH,ViaDrill
T5C0.0197
; #@! TA.AperFunction,Plated,PTH,ComponentDrill
T6C0.0374
; #@! TA.AperFunction,Plated,PTH,ComponentDrill
T7C0.0380
; #@! TA.AperFunction,Plated,PTH,ComponentDrill
T8C0.0394
; #@! TA.AperFunction,Plated,PTH,ComponentDrill
T9C0.0450
; #@! TA.AperFunction,Plated,PTH,ViaDrill
T10C0.0467
; #@! TA.AperFunction,Plated,PTH,ViaDrill
T11C0.0551
; #@! TA.AperFunction,Plated,PTH,ComponentDrill
T12C0.0689
; #@! TA.AperFunction,NonPlated,NPTH,ComponentDrill
T13C0.0787
; #@! TA.AperFunction,NonPlated,NPTH,ComponentDrill
T14C0.1673
%
G90
G05
T1
X32579Y17504
X33977Y17534
X34272Y17071
X34478Y17416
X36470Y15831
X36676Y16175
X36972Y15713
X38369Y15742
T2
X8774Y57924
X8774Y55282
X8774Y52544
X8774Y48775
X8774Y44488
X8774Y40411
X8982Y34376
X9406Y24058
X9500Y27168
X9772Y60746
X9971Y30937
X10124Y19024
X10124Y14024
X10124Y9024
X10324Y34224
X11864Y56540
X12178Y37428
X12263Y65146
X12522Y38654
X12563Y24388
X12610Y31220
X12810Y39899
X12898Y60791
X12982Y41373
X13115Y62991
X13128Y27592
X13771Y56838
X15124Y11524
X15389Y32445
X15612Y65865
X16096Y24058
X16379Y26744
X16483Y59895
X17368Y30089
X17518Y58447
X17624Y21524
X17839Y61458
X17889Y43395
X17928Y44927
X19034Y60516
X19241Y58378
X19272Y49017
X19488Y28204
X19848Y34381
X19855Y65459
X19864Y46121
X20101Y24247
X20124Y9024
X20169Y43663
X20437Y42303
X20513Y39335
X20609Y40982
X21137Y26602
X21201Y23674
X21464Y57259
X21541Y65452
X21812Y37434
X21852Y62424
X22520Y32118
X22624Y21524
X22724Y25124
X23074Y49924
X23801Y50618
X23802Y34463
X24075Y36807
X24248Y42718
X24379Y45892
X24456Y28928
X24524Y58424
X24746Y39937
X25124Y11524
X25997Y54768
X26061Y49507
X26367Y50637
X26457Y65119
X26509Y56359
X27013Y23457
X27824Y33899
X27958Y37923
X28092Y46106
X28149Y65071
X28209Y51184
X28360Y40740
X28360Y29674
X28534Y23493
X28696Y44094
X28760Y27946
X28887Y57736
X28976Y58085
X29232Y36247
X29299Y32491
X29702Y46576
X29793Y65071
X29903Y38594
X30124Y9024
X30238Y42753
X30344Y59767
X30574Y49024
X30775Y29405
X31078Y23493
X31312Y32356
X31714Y37186
X31781Y40808
X31848Y34637
X31874Y16224
X32116Y46240
X32184Y44161
X32275Y60007
X32339Y57804
X32624Y21524
X32921Y30747
X33123Y34905
X33199Y23493
X33340Y25472
X33525Y44429
X33659Y40606
X33875Y66004
X34220Y62507
X34238Y27102
X34645Y64012
X34796Y57581
X35083Y25754
X35124Y11524
X35148Y17924
X35439Y18611
X35706Y60996
X35726Y17924
X35794Y28588
X36544Y23917
X36576Y65786
X36576Y62540
X36677Y34033
X36811Y31082
X36879Y37991
X37080Y41679
X37281Y45570
X37541Y58634
X37624Y21524
X37655Y64143
X37674Y26037
X37724Y52593
X38287Y29204
X38536Y54072
X38805Y24341
X39074Y17124
X39201Y61124
X40065Y58630
X40124Y9024
X40139Y59664
X40159Y52213
X40299Y34436
X40361Y58630
X40420Y59924
X40568Y44094
X40657Y58630
X40676Y65150
X40836Y47783
X40905Y53758
X41019Y24058
X41037Y39399
X41037Y28802
X41084Y61572
X41134Y58630
X41242Y57071
X41370Y58394
X41648Y50006
X41830Y60090
X41895Y50229
X41909Y31216
X42133Y50515
X42430Y65134
X42584Y57293
X42624Y59622
X42853Y50597
X42937Y54192
X43212Y55919
X43385Y49594
X43474Y23974
X43921Y27661
X43999Y65227
X44256Y51874
X44324Y43557
X44726Y38192
X44744Y56155
X45124Y21524
X45124Y11524
X45464Y27796
X45531Y48185
X45676Y65181
X45799Y35106
X45933Y32155
X46672Y45301
X47060Y58118
X47073Y53752
X47368Y65150
X47537Y57978
X47811Y30009
X47832Y57954
X48074Y51624
X48128Y57954
X48214Y38259
X48415Y54557
X48424Y57954
X48463Y23823
X48693Y57774
X48952Y46375
X48983Y65243
X49019Y41076
X49359Y26791
X49712Y59699
X49958Y35576
X50124Y21524
X50124Y9024
X50360Y27863
X50448Y58483
X50830Y32893
X51634Y25180
X52290Y65134
X52771Y58286
X52786Y59580
X52842Y31216
X53523Y61395
X54309Y66270
X54451Y32558
X54660Y56933
X54892Y53476
X55055Y30009
X55124Y34174
X55124Y21524
X55124Y11524
X55726Y25113
X57403Y32424
X57450Y66270
X57613Y62932
X57999Y57237
X58677Y51807
X58744Y35911
X58945Y41545
X59079Y46173
X59348Y25046
X60124Y9024
X60420Y54783
X60497Y59432
X60689Y28869
X61092Y48789
X61159Y39064
X61226Y34637
X61293Y43021
X61472Y60637
T3
X16237Y18911
X16237Y18517
X16237Y18123
X16237Y17730
X31296Y17296
X31296Y16903
X31296Y15505
X31296Y15111
X39835Y18163
X39835Y17769
X39835Y16371
X39835Y15978
X54894Y15544
X54894Y15151
X54894Y14757
X54894Y14363
T4
X21824Y57874
X24996Y55313
X27732Y58228
X41518Y61113
X44989Y59324
X45267Y58944
X55634Y42705
T5
X27169Y55971
X27502Y53520
X27582Y53024
X27584Y55789
X27764Y55372
X27837Y52649
X27860Y54851
X29148Y56198
X29174Y54235
X29523Y55925
T6
X12424Y21206
X12424Y20222
X12424Y19238
X12424Y18254
X12424Y17269
X12424Y16285
X12424Y15301
X12424Y14317
X12424Y13332
X12424Y12348
X58324Y21206
X58324Y20222
X58324Y19238
X58324Y18254
X58324Y17269
X58324Y16285
X58324Y15301
X58324Y14317
X58324Y13332
X58324Y12348
T7
X24385Y25890
X24385Y24890
X25385Y25890
X25385Y24890
X26385Y25890
X26385Y24890
X27385Y25890
X27385Y24890
X28385Y25890
X28385Y24890
X29385Y25890
X29385Y24890
X30385Y25890
X30385Y24890
X31385Y25890
X31385Y24890
X39427Y25890
X39427Y24890
X40427Y25890
X40427Y24890
X41427Y25890
X41427Y24890
X42427Y25890
X42427Y24890
X43427Y25890
X43427Y24890
X44427Y25890
X44427Y24890
X45427Y25890
X45427Y24890
X46427Y25890
X46427Y24890
T8
X25824Y20924
X26824Y20924
X27824Y20924
X28824Y20924
X29824Y20924
X30824Y20924
X40474Y12474
X41474Y12474
X42474Y12474
X43474Y12474
X44474Y12474
X45474Y12474
T9
X16251Y63094
X16808Y64285
X17366Y65476
X17901Y63094
X18458Y64285
X19016Y65476
X19551Y63094
X20108Y64285
X20666Y65476
X21200Y63094
X21758Y64285
X22315Y65476
X22850Y63094
X23408Y64285
X23965Y65476
X24500Y63094
X25058Y64285
X25615Y65476
X26150Y63094
X26708Y64285
X27265Y65476
X27800Y63094
X28358Y64285
X28915Y65476
X29450Y63094
X30008Y64285
X30565Y65476
X31100Y63094
X31657Y64285
X32215Y65476
X38739Y63094
X39297Y64285
X39854Y65476
X40389Y63094
X40947Y64285
X41504Y65476
X42039Y63094
X42597Y64285
X43154Y65476
X43689Y63094
X44247Y64285
X44804Y65476
X45339Y63094
X45897Y64285
X46454Y65476
X46989Y63094
X47546Y64285
X48104Y65476
X48639Y63094
X49196Y64285
X49754Y65476
X50289Y63094
X50846Y64285
X51404Y65476
X51939Y63094
X52496Y64285
X53054Y65476
X53589Y63094
X54146Y64285
X54704Y65476
X55654Y60985
X56654Y60985
X57654Y60985
T10
X19991Y55868
X22055Y56196
X23690Y54790
X29786Y49318
X30830Y47218
T11
X39913Y49894
X48474Y49324
X50474Y51274
T12
X14102Y51968
X14102Y50393
X14102Y48819
X14102Y47244
X14102Y45669
X14102Y44094
X14102Y42519
X14102Y40944
X14102Y39370
X14102Y37795
X14102Y36220
X14102Y34645
X15677Y51181
X15677Y49606
X15677Y48031
X15677Y46456
X15677Y44881
X15677Y43307
X15677Y41732
X15677Y40157
X15677Y38582
X15677Y37007
X15677Y35433
X17252Y51968
X17252Y50393
X17252Y48819
X17252Y47244
X17252Y45669
X17252Y44094
X17252Y42519
X17252Y40944
X17252Y39370
X17252Y37795
X17252Y36220
X17252Y34645
X29850Y54724
X29850Y51574
X30637Y53149
X31425Y54724
X31425Y51574
X32212Y53149
X33000Y54724
X33000Y51574
X33787Y53149
X34574Y54724
X34574Y51574
X35362Y53149
X36149Y54724
X36149Y51574
X36937Y53149
X37724Y54724
X37724Y51574
X38511Y53149
X39299Y54724
X39299Y51574
X40086Y53149
X40874Y54724
X40874Y51574
X53472Y51968
X53472Y50393
X53472Y48819
X53472Y47244
X53472Y45669
X53472Y44094
X53472Y42519
X53472Y40944
X53472Y39370
X53472Y37795
X53472Y36220
X53472Y34645
X55047Y51181
X55047Y49606
X55047Y48031
X55047Y46456
X55047Y44881
X55047Y43307
X55047Y41732
X55047Y40157
X55047Y38582
X55047Y37007
X55047Y35433
X56622Y51968
X56622Y50393
X56622Y48819
X56622Y47244
X56622Y45669
X56622Y44094
X56622Y42519
X56622Y40944
X56622Y39370
X56622Y37795
X56622Y36220
X56622Y34645
T13
X11425Y55787
X11425Y30826
X18551Y56378
X18551Y30236
X25441Y50275
X26031Y57401
X44693Y57401
X45283Y50275
X52173Y56378
X52173Y30236
X59299Y55787
X59299Y30826
T14
X14363Y64866
X35474Y59102
X56585Y64866
T0
M30
