G04 #@! TF.GenerationSoftware,KiCad,Pcbnew,(6.0.1)*
G04 #@! TF.CreationDate,2022-06-06T18:05:19+03:00*
G04 #@! TF.ProjectId,5.0mustangProteusPnP,352e306d-7573-4746-916e-6750726f7465,R0.1*
G04 #@! TF.SameCoordinates,Original*
G04 #@! TF.FileFunction,Legend,Bot*
G04 #@! TF.FilePolarity,Positive*
%FSLAX46Y46*%
G04 Gerber Fmt 4.6, Leading zero omitted, Abs format (unit mm)*
G04 Created by KiCad (PCBNEW (6.0.1)) date 2022-06-06 18:05:19*
%MOMM*%
%LPD*%
G01*
G04 APERTURE LIST*
G04 #@! TA.AperFunction,Profile*
%ADD10C,0.200000*%
G04 #@! TD*
%ADD11C,0.130000*%
%ADD12C,0.150000*%
%ADD13C,0.300000*%
%ADD14C,0.152400*%
%ADD15C,0.139700*%
%ADD16C,0.200000*%
%ADD17C,0.120000*%
%ADD18C,0.500000*%
G04 APERTURE END LIST*
D10*
X20000000Y21270000D02*
X20000000Y157844000D01*
X148521100Y169606000D02*
X31753100Y169606000D01*
X31753100Y169606000D02*
X20000000Y157844000D01*
X159700000Y21270000D02*
X159700000Y157844000D01*
X158430000Y20000000D02*
G75*
G03*
X159700000Y21270000I1J1269999D01*
G01*
X28350250Y158493500D02*
G75*
G03*
X28350250Y158493500I-2381250J0D01*
G01*
X148521100Y169606000D02*
X159700000Y157844000D01*
X20000000Y21270000D02*
G75*
G03*
X21270000Y20000000I1269999J-1D01*
G01*
X158430000Y20000000D02*
X21270000Y20000000D01*
X155992750Y158493500D02*
G75*
G03*
X155992750Y158493500I-2381250J0D01*
G01*
D11*
X118744395Y-65605780D02*
X118696014Y-65557400D01*
X118599252Y-65509019D01*
X118357347Y-65509019D01*
X118260585Y-65557400D01*
X118212204Y-65605780D01*
X118163823Y-65702542D01*
X118163823Y-65799304D01*
X118212204Y-65944447D01*
X118792776Y-66525019D01*
X118163823Y-66525019D01*
X117534871Y-65509019D02*
X117438109Y-65509019D01*
X117341347Y-65557400D01*
X117292966Y-65605780D01*
X117244585Y-65702542D01*
X117196204Y-65896066D01*
X117196204Y-66137971D01*
X117244585Y-66331495D01*
X117292966Y-66428257D01*
X117341347Y-66476638D01*
X117438109Y-66525019D01*
X117534871Y-66525019D01*
X117631633Y-66476638D01*
X117680014Y-66428257D01*
X117728395Y-66331495D01*
X117776776Y-66137971D01*
X117776776Y-65896066D01*
X117728395Y-65702542D01*
X117680014Y-65605780D01*
X117631633Y-65557400D01*
X117534871Y-65509019D01*
X115720585Y-71859019D02*
X115914109Y-71859019D01*
X116010871Y-71907400D01*
X116059252Y-71955780D01*
X116156014Y-72100923D01*
X116204395Y-72294447D01*
X116204395Y-72681495D01*
X116156014Y-72778257D01*
X116107633Y-72826638D01*
X116010871Y-72875019D01*
X115817347Y-72875019D01*
X115720585Y-72826638D01*
X115672204Y-72778257D01*
X115623823Y-72681495D01*
X115623823Y-72439590D01*
X115672204Y-72342828D01*
X115720585Y-72294447D01*
X115817347Y-72246066D01*
X116010871Y-72246066D01*
X116107633Y-72294447D01*
X116156014Y-72342828D01*
X116204395Y-72439590D01*
X114994871Y-71859019D02*
X114898109Y-71859019D01*
X114801347Y-71907400D01*
X114752966Y-71955780D01*
X114704585Y-72052542D01*
X114656204Y-72246066D01*
X114656204Y-72487971D01*
X114704585Y-72681495D01*
X114752966Y-72778257D01*
X114801347Y-72826638D01*
X114898109Y-72875019D01*
X114994871Y-72875019D01*
X115091633Y-72826638D01*
X115140014Y-72778257D01*
X115188395Y-72681495D01*
X115236776Y-72487971D01*
X115236776Y-72246066D01*
X115188395Y-72052542D01*
X115140014Y-71955780D01*
X115091633Y-71907400D01*
X114994871Y-71859019D01*
X116990585Y-69022685D02*
X116990585Y-69700019D01*
X117232490Y-68635638D02*
X117474395Y-69361352D01*
X116845442Y-69361352D01*
X116264871Y-68684019D02*
X116168109Y-68684019D01*
X116071347Y-68732400D01*
X116022966Y-68780780D01*
X115974585Y-68877542D01*
X115926204Y-69071066D01*
X115926204Y-69312971D01*
X115974585Y-69506495D01*
X116022966Y-69603257D01*
X116071347Y-69651638D01*
X116168109Y-69700019D01*
X116264871Y-69700019D01*
X116361633Y-69651638D01*
X116410014Y-69603257D01*
X116458395Y-69506495D01*
X116506776Y-69312971D01*
X116506776Y-69071066D01*
X116458395Y-68877542D01*
X116410014Y-68780780D01*
X116361633Y-68732400D01*
X116264871Y-68684019D01*
X157582204Y-71859019D02*
X158066014Y-71859019D01*
X158114395Y-72342828D01*
X158066014Y-72294447D01*
X157969252Y-72246066D01*
X157727347Y-72246066D01*
X157630585Y-72294447D01*
X157582204Y-72342828D01*
X157533823Y-72439590D01*
X157533823Y-72681495D01*
X157582204Y-72778257D01*
X157630585Y-72826638D01*
X157727347Y-72875019D01*
X157969252Y-72875019D01*
X158066014Y-72826638D01*
X158114395Y-72778257D01*
X156566204Y-72875019D02*
X157146776Y-72875019D01*
X156856490Y-72875019D02*
X156856490Y-71859019D01*
X156953252Y-72004161D01*
X157050014Y-72100923D01*
X157146776Y-72149304D01*
X214780585Y-72197685D02*
X214780585Y-72875019D01*
X215022490Y-71810638D02*
X215264395Y-72536352D01*
X214635442Y-72536352D01*
X213716204Y-72875019D02*
X214296776Y-72875019D01*
X214006490Y-72875019D02*
X214006490Y-71859019D01*
X214103252Y-72004161D01*
X214200014Y-72100923D01*
X214296776Y-72149304D01*
X159432776Y-68684019D02*
X158803823Y-68684019D01*
X159142490Y-69071066D01*
X158997347Y-69071066D01*
X158900585Y-69119447D01*
X158852204Y-69167828D01*
X158803823Y-69264590D01*
X158803823Y-69506495D01*
X158852204Y-69603257D01*
X158900585Y-69651638D01*
X158997347Y-69700019D01*
X159287633Y-69700019D01*
X159384395Y-69651638D01*
X159432776Y-69603257D01*
X157836204Y-69700019D02*
X158416776Y-69700019D01*
X158126490Y-69700019D02*
X158126490Y-68684019D01*
X158223252Y-68829161D01*
X158320014Y-68925923D01*
X158416776Y-68974304D01*
X172187204Y-71859019D02*
X172671014Y-71859019D01*
X172719395Y-72342828D01*
X172671014Y-72294447D01*
X172574252Y-72246066D01*
X172332347Y-72246066D01*
X172235585Y-72294447D01*
X172187204Y-72342828D01*
X172138823Y-72439590D01*
X172138823Y-72681495D01*
X172187204Y-72778257D01*
X172235585Y-72826638D01*
X172332347Y-72875019D01*
X172574252Y-72875019D01*
X172671014Y-72826638D01*
X172719395Y-72778257D01*
X171509871Y-71859019D02*
X171413109Y-71859019D01*
X171316347Y-71907400D01*
X171267966Y-71955780D01*
X171219585Y-72052542D01*
X171171204Y-72246066D01*
X171171204Y-72487971D01*
X171219585Y-72681495D01*
X171267966Y-72778257D01*
X171316347Y-72826638D01*
X171413109Y-72875019D01*
X171509871Y-72875019D01*
X171606633Y-72826638D01*
X171655014Y-72778257D01*
X171703395Y-72681495D01*
X171751776Y-72487971D01*
X171751776Y-72246066D01*
X171703395Y-72052542D01*
X171655014Y-71955780D01*
X171606633Y-71907400D01*
X171509871Y-71859019D01*
X174037776Y-68684019D02*
X173408823Y-68684019D01*
X173747490Y-69071066D01*
X173602347Y-69071066D01*
X173505585Y-69119447D01*
X173457204Y-69167828D01*
X173408823Y-69264590D01*
X173408823Y-69506495D01*
X173457204Y-69603257D01*
X173505585Y-69651638D01*
X173602347Y-69700019D01*
X173892633Y-69700019D01*
X173989395Y-69651638D01*
X174037776Y-69603257D01*
X172779871Y-68684019D02*
X172683109Y-68684019D01*
X172586347Y-68732400D01*
X172537966Y-68780780D01*
X172489585Y-68877542D01*
X172441204Y-69071066D01*
X172441204Y-69312971D01*
X172489585Y-69506495D01*
X172537966Y-69603257D01*
X172586347Y-69651638D01*
X172683109Y-69700019D01*
X172779871Y-69700019D01*
X172876633Y-69651638D01*
X172925014Y-69603257D01*
X172973395Y-69506495D01*
X173021776Y-69312971D01*
X173021776Y-69071066D01*
X172973395Y-68877542D01*
X172925014Y-68780780D01*
X172876633Y-68732400D01*
X172779871Y-68684019D01*
X174678823Y-66525019D02*
X175259395Y-66525019D01*
X174969109Y-66525019D02*
X174969109Y-65509019D01*
X175065871Y-65654161D01*
X175162633Y-65750923D01*
X175259395Y-65799304D01*
X174049871Y-65509019D02*
X173953109Y-65509019D01*
X173856347Y-65557400D01*
X173807966Y-65605780D01*
X173759585Y-65702542D01*
X173711204Y-65896066D01*
X173711204Y-66137971D01*
X173759585Y-66331495D01*
X173807966Y-66428257D01*
X173856347Y-66476638D01*
X173953109Y-66525019D01*
X174049871Y-66525019D01*
X174146633Y-66476638D01*
X174195014Y-66428257D01*
X174243395Y-66331495D01*
X174291776Y-66137971D01*
X174291776Y-65896066D01*
X174243395Y-65702542D01*
X174195014Y-65605780D01*
X174146633Y-65557400D01*
X174049871Y-65509019D01*
X216534395Y-68780780D02*
X216486014Y-68732400D01*
X216389252Y-68684019D01*
X216147347Y-68684019D01*
X216050585Y-68732400D01*
X216002204Y-68780780D01*
X215953823Y-68877542D01*
X215953823Y-68974304D01*
X216002204Y-69119447D01*
X216582776Y-69700019D01*
X215953823Y-69700019D01*
X214986204Y-69700019D02*
X215566776Y-69700019D01*
X215276490Y-69700019D02*
X215276490Y-68684019D01*
X215373252Y-68829161D01*
X215470014Y-68925923D01*
X215566776Y-68974304D01*
X216740014Y-66525019D02*
X217320585Y-66525019D01*
X217030300Y-66525019D02*
X217030300Y-65509019D01*
X217127061Y-65654161D01*
X217223823Y-65750923D01*
X217320585Y-65799304D01*
X160073823Y-66525019D02*
X160654395Y-66525019D01*
X160364109Y-66525019D02*
X160364109Y-65509019D01*
X160460871Y-65654161D01*
X160557633Y-65750923D01*
X160654395Y-65799304D01*
X159106204Y-66525019D02*
X159686776Y-66525019D01*
X159396490Y-66525019D02*
X159396490Y-65509019D01*
X159493252Y-65654161D01*
X159590014Y-65750923D01*
X159686776Y-65799304D01*
X147221786Y-163100899D02*
X147221786Y-163826613D01*
X147270167Y-163971756D01*
X147366929Y-164068518D01*
X147512072Y-164116899D01*
X147608834Y-164116899D01*
X146302548Y-163439565D02*
X146302548Y-164116899D01*
X146544453Y-163052518D02*
X146786358Y-163778232D01*
X146157405Y-163778232D01*
X166166195Y-68607819D02*
X166166195Y-69430295D01*
X166117814Y-69527057D01*
X166069433Y-69575438D01*
X165972671Y-69623819D01*
X165779147Y-69623819D01*
X165682385Y-69575438D01*
X165634004Y-69527057D01*
X165585623Y-69430295D01*
X165585623Y-68607819D01*
X164569623Y-69623819D02*
X165150195Y-69623819D01*
X164859909Y-69623819D02*
X164859909Y-68607819D01*
X164956671Y-68752961D01*
X165053433Y-68849723D01*
X165150195Y-68898104D01*
X186223486Y-163032319D02*
X186223486Y-163758033D01*
X186271867Y-163903176D01*
X186368629Y-163999938D01*
X186513772Y-164048319D01*
X186610534Y-164048319D01*
X185788058Y-163129080D02*
X185739677Y-163080700D01*
X185642915Y-163032319D01*
X185401010Y-163032319D01*
X185304248Y-163080700D01*
X185255867Y-163129080D01*
X185207486Y-163225842D01*
X185207486Y-163322604D01*
X185255867Y-163467747D01*
X185836439Y-164048319D01*
X185207486Y-164048319D01*
D12*
G04 #@! TO.C,J1*
X148555714Y154421619D02*
X147984285Y154421619D01*
X148270000Y154421619D02*
X148270000Y155421619D01*
X148174761Y155278761D01*
X148079523Y155183523D01*
X147984285Y155135904D01*
X139046666Y155421619D02*
X139665714Y155421619D01*
X139332380Y155040666D01*
X139475238Y155040666D01*
X139570476Y154993047D01*
X139618095Y154945428D01*
X139665714Y154850190D01*
X139665714Y154612095D01*
X139618095Y154516857D01*
X139570476Y154469238D01*
X139475238Y154421619D01*
X139189523Y154421619D01*
X139094285Y154469238D01*
X139046666Y154516857D01*
X139046666Y155421619D02*
X139665714Y155421619D01*
X139332380Y155040666D01*
X139475238Y155040666D01*
X139570476Y154993047D01*
X139618095Y154945428D01*
X139665714Y154850190D01*
X139665714Y154612095D01*
X139618095Y154516857D01*
X139570476Y154469238D01*
X139475238Y154421619D01*
X139189523Y154421619D01*
X139094285Y154469238D01*
X139046666Y154516857D01*
X148555714Y154421619D02*
X147984285Y154421619D01*
X148270000Y154421619D02*
X148270000Y155421619D01*
X148174761Y155278761D01*
X148079523Y155183523D01*
X147984285Y155135904D01*
G04 #@! TO.C,BRD1*
X34121380Y96117476D02*
X34121380Y96688904D01*
X34121380Y96403190D02*
X33121380Y96403190D01*
X33264238Y96498428D01*
X33359476Y96593666D01*
X33407095Y96688904D01*
X33121380Y95784142D02*
X33121380Y95165095D01*
X33502333Y95498428D01*
X33502333Y95355571D01*
X33549952Y95260333D01*
X33597571Y95212714D01*
X33692809Y95165095D01*
X33930904Y95165095D01*
X34026142Y95212714D01*
X34073761Y95260333D01*
X34121380Y95355571D01*
X34121380Y95641285D01*
X34073761Y95736523D01*
X34026142Y95784142D01*
X33121380Y115500904D02*
X33121380Y115977095D01*
X33597571Y116024714D01*
X33549952Y115977095D01*
X33502333Y115881857D01*
X33502333Y115643761D01*
X33549952Y115548523D01*
X33597571Y115500904D01*
X33692809Y115453285D01*
X33930904Y115453285D01*
X34026142Y115500904D01*
X34073761Y115548523D01*
X34121380Y115643761D01*
X34121380Y115881857D01*
X34073761Y115977095D01*
X34026142Y116024714D01*
X95327523Y134447619D02*
X95518000Y134447619D01*
X95613238Y134400000D01*
X95660857Y134352380D01*
X95756095Y134209523D01*
X95803714Y134019047D01*
X95803714Y133638095D01*
X95756095Y133542857D01*
X95708476Y133495238D01*
X95613238Y133447619D01*
X95422761Y133447619D01*
X95327523Y133495238D01*
X95279904Y133542857D01*
X95232285Y133638095D01*
X95232285Y133876190D01*
X95279904Y133971428D01*
X95327523Y134019047D01*
X95422761Y134066666D01*
X95613238Y134066666D01*
X95708476Y134019047D01*
X95756095Y133971428D01*
X95803714Y133876190D01*
X145921380Y128853761D02*
X145921380Y129329952D01*
X146397571Y129377571D01*
X146349952Y129329952D01*
X146302333Y129234714D01*
X146302333Y128996619D01*
X146349952Y128901380D01*
X146397571Y128853761D01*
X146492809Y128806142D01*
X146730904Y128806142D01*
X146826142Y128853761D01*
X146873761Y128901380D01*
X146921380Y128996619D01*
X146921380Y129234714D01*
X146873761Y129329952D01*
X146826142Y129377571D01*
X146254714Y128472809D02*
X146921380Y128234714D01*
X146254714Y127996619D01*
X146873761Y126901380D02*
X146921380Y126758523D01*
X146921380Y126520428D01*
X146873761Y126425190D01*
X146826142Y126377571D01*
X146730904Y126329952D01*
X146635666Y126329952D01*
X146540428Y126377571D01*
X146492809Y126425190D01*
X146445190Y126520428D01*
X146397571Y126710904D01*
X146349952Y126806142D01*
X146302333Y126853761D01*
X146207095Y126901380D01*
X146111857Y126901380D01*
X146016619Y126853761D01*
X145969000Y126806142D01*
X145921380Y126710904D01*
X145921380Y126472809D01*
X145969000Y126329952D01*
X146873761Y125520428D02*
X146921380Y125615666D01*
X146921380Y125806142D01*
X146873761Y125901380D01*
X146778523Y125949000D01*
X146397571Y125949000D01*
X146302333Y125901380D01*
X146254714Y125806142D01*
X146254714Y125615666D01*
X146302333Y125520428D01*
X146397571Y125472809D01*
X146492809Y125472809D01*
X146588047Y125949000D01*
X146254714Y125044238D02*
X146921380Y125044238D01*
X146349952Y125044238D02*
X146302333Y124996619D01*
X146254714Y124901380D01*
X146254714Y124758523D01*
X146302333Y124663285D01*
X146397571Y124615666D01*
X146921380Y124615666D01*
X146873761Y124187095D02*
X146921380Y124091857D01*
X146921380Y123901380D01*
X146873761Y123806142D01*
X146778523Y123758523D01*
X146730904Y123758523D01*
X146635666Y123806142D01*
X146588047Y123901380D01*
X146588047Y124044238D01*
X146540428Y124139476D01*
X146445190Y124187095D01*
X146397571Y124187095D01*
X146302333Y124139476D01*
X146254714Y124044238D01*
X146254714Y123901380D01*
X146302333Y123806142D01*
X146921380Y123187095D02*
X146873761Y123282333D01*
X146826142Y123329952D01*
X146730904Y123377571D01*
X146445190Y123377571D01*
X146349952Y123329952D01*
X146302333Y123282333D01*
X146254714Y123187095D01*
X146254714Y123044238D01*
X146302333Y122949000D01*
X146349952Y122901380D01*
X146445190Y122853761D01*
X146730904Y122853761D01*
X146826142Y122901380D01*
X146873761Y122949000D01*
X146921380Y123044238D01*
X146921380Y123187095D01*
X146921380Y122425190D02*
X146254714Y122425190D01*
X146445190Y122425190D02*
X146349952Y122377571D01*
X146302333Y122329952D01*
X146254714Y122234714D01*
X146254714Y122139476D01*
X146873761Y121091857D02*
X146921380Y120949000D01*
X146921380Y120710904D01*
X146873761Y120615666D01*
X146826142Y120568047D01*
X146730904Y120520428D01*
X146635666Y120520428D01*
X146540428Y120568047D01*
X146492809Y120615666D01*
X146445190Y120710904D01*
X146397571Y120901380D01*
X146349952Y120996619D01*
X146302333Y121044238D01*
X146207095Y121091857D01*
X146111857Y121091857D01*
X146016619Y121044238D01*
X145969000Y120996619D01*
X145921380Y120901380D01*
X145921380Y120663285D01*
X145969000Y120520428D01*
X146254714Y119663285D02*
X146921380Y119663285D01*
X146254714Y120091857D02*
X146778523Y120091857D01*
X146873761Y120044238D01*
X146921380Y119949000D01*
X146921380Y119806142D01*
X146873761Y119710904D01*
X146826142Y119663285D01*
X146254714Y119187095D02*
X147254714Y119187095D01*
X146302333Y119187095D02*
X146254714Y119091857D01*
X146254714Y118901380D01*
X146302333Y118806142D01*
X146349952Y118758523D01*
X146445190Y118710904D01*
X146730904Y118710904D01*
X146826142Y118758523D01*
X146873761Y118806142D01*
X146921380Y118901380D01*
X146921380Y119091857D01*
X146873761Y119187095D01*
X146254714Y118282333D02*
X147254714Y118282333D01*
X146302333Y118282333D02*
X146254714Y118187095D01*
X146254714Y117996619D01*
X146302333Y117901380D01*
X146349952Y117853761D01*
X146445190Y117806142D01*
X146730904Y117806142D01*
X146826142Y117853761D01*
X146873761Y117901380D01*
X146921380Y117996619D01*
X146921380Y118187095D01*
X146873761Y118282333D01*
X146921380Y117234714D02*
X146873761Y117329952D01*
X146778523Y117377571D01*
X145921380Y117377571D01*
X146254714Y116949000D02*
X146921380Y116710904D01*
X146254714Y116472809D02*
X146921380Y116710904D01*
X147159476Y116806142D01*
X147207095Y116853761D01*
X147254714Y116949000D01*
D13*
X144628523Y145294238D02*
X144628523Y147294238D01*
X143676142Y145294238D02*
X143676142Y147294238D01*
X142533285Y145294238D01*
X142533285Y147294238D01*
X141580904Y145294238D02*
X141580904Y147294238D01*
X140819000Y147294238D01*
X140628523Y147199000D01*
X140533285Y147103761D01*
X140438047Y146913285D01*
X140438047Y146627571D01*
X140533285Y146437095D01*
X140628523Y146341857D01*
X140819000Y146246619D01*
X141580904Y146246619D01*
X139580904Y147294238D02*
X139580904Y145675190D01*
X139485666Y145484714D01*
X139390428Y145389476D01*
X139199952Y145294238D01*
X138819000Y145294238D01*
X138628523Y145389476D01*
X138533285Y145484714D01*
X138438047Y145675190D01*
X138438047Y147294238D01*
X137771380Y147294238D02*
X136628523Y147294238D01*
X137199952Y145294238D02*
X137199952Y147294238D01*
X136057095Y145389476D02*
X135771380Y145294238D01*
X135295190Y145294238D01*
X135104714Y145389476D01*
X135009476Y145484714D01*
X134914238Y145675190D01*
X134914238Y145865666D01*
X135009476Y146056142D01*
X135104714Y146151380D01*
X135295190Y146246619D01*
X135676142Y146341857D01*
X135866619Y146437095D01*
X135961857Y146532333D01*
X136057095Y146722809D01*
X136057095Y146913285D01*
X135961857Y147103761D01*
X135866619Y147199000D01*
X135676142Y147294238D01*
X135199952Y147294238D01*
X134914238Y147199000D01*
D12*
X34121380Y100181476D02*
X34121380Y100752904D01*
X34121380Y100467190D02*
X33121380Y100467190D01*
X33264238Y100562428D01*
X33359476Y100657666D01*
X33407095Y100752904D01*
X34121380Y99229095D02*
X34121380Y99800523D01*
X34121380Y99514809D02*
X33121380Y99514809D01*
X33264238Y99610047D01*
X33359476Y99705285D01*
X33407095Y99800523D01*
X76086952Y134463571D02*
X75325047Y134463571D01*
X75706000Y134082619D02*
X75706000Y134844523D01*
X43021380Y122389476D02*
X43021380Y122960904D01*
X43021380Y122675190D02*
X42021380Y122675190D01*
X42164238Y122770428D01*
X42259476Y122865666D01*
X42307095Y122960904D01*
X43021380Y121437095D02*
X43021380Y122008523D01*
X43021380Y121722809D02*
X42021380Y121722809D01*
X42164238Y121818047D01*
X42259476Y121913285D01*
X42307095Y122008523D01*
X91342761Y137527380D02*
X91295142Y137575000D01*
X91199904Y137622619D01*
X90961809Y137622619D01*
X90866571Y137575000D01*
X90818952Y137527380D01*
X90771333Y137432142D01*
X90771333Y137336904D01*
X90818952Y137194047D01*
X91390380Y136622619D01*
X90771333Y136622619D01*
X90342761Y137003571D02*
X89580857Y137003571D01*
X34121380Y92053476D02*
X34121380Y92624904D01*
X34121380Y92339190D02*
X33121380Y92339190D01*
X33264238Y92434428D01*
X33359476Y92529666D01*
X33407095Y92624904D01*
X33454714Y91196333D02*
X34121380Y91196333D01*
X33073761Y91434428D02*
X33788047Y91672523D01*
X33788047Y91053476D01*
X137121380Y99158523D02*
X138121380Y98825190D01*
X137121380Y98491857D01*
X137549952Y98015666D02*
X137502333Y98110904D01*
X137454714Y98158523D01*
X137359476Y98206142D01*
X137311857Y98206142D01*
X137216619Y98158523D01*
X137169000Y98110904D01*
X137121380Y98015666D01*
X137121380Y97825190D01*
X137169000Y97729952D01*
X137216619Y97682333D01*
X137311857Y97634714D01*
X137359476Y97634714D01*
X137454714Y97682333D01*
X137502333Y97729952D01*
X137549952Y97825190D01*
X137549952Y98015666D01*
X137597571Y98110904D01*
X137645190Y98158523D01*
X137740428Y98206142D01*
X137930904Y98206142D01*
X138026142Y98158523D01*
X138073761Y98110904D01*
X138121380Y98015666D01*
X138121380Y97825190D01*
X138073761Y97729952D01*
X138026142Y97682333D01*
X137930904Y97634714D01*
X137740428Y97634714D01*
X137645190Y97682333D01*
X137597571Y97729952D01*
X137549952Y97825190D01*
X42416619Y90624714D02*
X42369000Y90577095D01*
X42321380Y90481857D01*
X42321380Y90243761D01*
X42369000Y90148523D01*
X42416619Y90100904D01*
X42511857Y90053285D01*
X42607095Y90053285D01*
X42749952Y90100904D01*
X43321380Y90672333D01*
X43321380Y90053285D01*
X37796523Y126240285D02*
X37796523Y125573619D01*
X38034619Y126621238D02*
X38272714Y125906952D01*
X37653666Y125906952D01*
D14*
X82134285Y131958561D02*
X82172990Y131997266D01*
X82211695Y132113380D01*
X82211695Y132190790D01*
X82172990Y132306904D01*
X82095580Y132384314D01*
X82018171Y132423019D01*
X81863352Y132461723D01*
X81747238Y132461723D01*
X81592419Y132423019D01*
X81515009Y132384314D01*
X81437600Y132306904D01*
X81398895Y132190790D01*
X81398895Y132113380D01*
X81437600Y131997266D01*
X81476304Y131958561D01*
X81979466Y131648923D02*
X81979466Y131261876D01*
X82211695Y131726333D02*
X81398895Y131455400D01*
X82211695Y131184466D01*
X82211695Y130913533D02*
X81398895Y130913533D01*
X82211695Y130449076D01*
X81398895Y130449076D01*
X81476304Y130100733D02*
X81437600Y130062028D01*
X81398895Y129984619D01*
X81398895Y129791095D01*
X81437600Y129713685D01*
X81476304Y129674980D01*
X81553714Y129636276D01*
X81631123Y129636276D01*
X81747238Y129674980D01*
X82211695Y130139438D01*
X82211695Y129636276D01*
D12*
X38193333Y130383619D02*
X37574285Y130383619D01*
X37907619Y130002666D01*
X37764761Y130002666D01*
X37669523Y129955047D01*
X37621904Y129907428D01*
X37574285Y129812190D01*
X37574285Y129574095D01*
X37621904Y129478857D01*
X37669523Y129431238D01*
X37764761Y129383619D01*
X38050476Y129383619D01*
X38145714Y129431238D01*
X38193333Y129478857D01*
X140521380Y96721523D02*
X141521380Y96388190D01*
X140521380Y96054857D01*
X140521380Y95245333D02*
X140521380Y95721523D01*
X140997571Y95769142D01*
X140949952Y95721523D01*
X140902333Y95626285D01*
X140902333Y95388190D01*
X140949952Y95292952D01*
X140997571Y95245333D01*
X141092809Y95197714D01*
X141330904Y95197714D01*
X141426142Y95245333D01*
X141473761Y95292952D01*
X141521380Y95388190D01*
X141521380Y95626285D01*
X141473761Y95721523D01*
X141426142Y95769142D01*
X40771380Y92882333D02*
X40771380Y92263285D01*
X41152333Y92596619D01*
X41152333Y92453761D01*
X41199952Y92358523D01*
X41247571Y92310904D01*
X41342809Y92263285D01*
X41580904Y92263285D01*
X41676142Y92310904D01*
X41723761Y92358523D01*
X41771380Y92453761D01*
X41771380Y92739476D01*
X41723761Y92834714D01*
X41676142Y92882333D01*
X75451952Y137257571D02*
X74690047Y137257571D01*
X43011380Y118215476D02*
X43011380Y118786904D01*
X43011380Y118501190D02*
X42011380Y118501190D01*
X42154238Y118596428D01*
X42249476Y118691666D01*
X42297095Y118786904D01*
X42011380Y117596428D02*
X42011380Y117501190D01*
X42059000Y117405952D01*
X42106619Y117358333D01*
X42201857Y117310714D01*
X42392333Y117263095D01*
X42630428Y117263095D01*
X42820904Y117310714D01*
X42916142Y117358333D01*
X42963761Y117405952D01*
X43011380Y117501190D01*
X43011380Y117596428D01*
X42963761Y117691666D01*
X42916142Y117739285D01*
X42820904Y117786904D01*
X42630428Y117834523D01*
X42392333Y117834523D01*
X42201857Y117786904D01*
X42106619Y117739285D01*
X42059000Y117691666D01*
X42011380Y117596428D01*
X96343428Y128537619D02*
X96914857Y128537619D01*
X96629142Y128537619D02*
X96629142Y129537619D01*
X96724380Y129394761D01*
X96819619Y129299523D01*
X96914857Y129251904D01*
X95962476Y129442380D02*
X95914857Y129490000D01*
X95819619Y129537619D01*
X95581523Y129537619D01*
X95486285Y129490000D01*
X95438666Y129442380D01*
X95391047Y129347142D01*
X95391047Y129251904D01*
X95438666Y129109047D01*
X96010095Y128537619D01*
X95391047Y128537619D01*
X95057714Y129204285D02*
X94819619Y128537619D01*
X94581523Y129204285D01*
X96795809Y126927619D02*
X96795809Y127927619D01*
X95795809Y127880000D02*
X95891047Y127927619D01*
X96033904Y127927619D01*
X96176761Y127880000D01*
X96272000Y127784761D01*
X96319619Y127689523D01*
X96367238Y127499047D01*
X96367238Y127356190D01*
X96319619Y127165714D01*
X96272000Y127070476D01*
X96176761Y126975238D01*
X96033904Y126927619D01*
X95938666Y126927619D01*
X95795809Y126975238D01*
X95748190Y127022857D01*
X95748190Y127356190D01*
X95938666Y127356190D01*
X95319619Y126927619D02*
X95319619Y127927619D01*
X94748190Y126927619D01*
X94748190Y127927619D01*
X42138380Y102086523D02*
X42138380Y102277000D01*
X42186000Y102372238D01*
X42233619Y102419857D01*
X42376476Y102515095D01*
X42566952Y102562714D01*
X42947904Y102562714D01*
X43043142Y102515095D01*
X43090761Y102467476D01*
X43138380Y102372238D01*
X43138380Y102181761D01*
X43090761Y102086523D01*
X43043142Y102038904D01*
X42947904Y101991285D01*
X42709809Y101991285D01*
X42614571Y102038904D01*
X42566952Y102086523D01*
X42519333Y102181761D01*
X42519333Y102372238D01*
X42566952Y102467476D01*
X42614571Y102515095D01*
X42709809Y102562714D01*
X136994380Y91157523D02*
X137994380Y90824190D01*
X136994380Y90490857D01*
X137327714Y89728952D02*
X137994380Y89728952D01*
X136946761Y89967047D02*
X137661047Y90205142D01*
X137661047Y89586095D01*
X45361000Y132502904D02*
X45313380Y132598142D01*
X45313380Y132741000D01*
X45361000Y132883857D01*
X45456238Y132979095D01*
X45551476Y133026714D01*
X45741952Y133074333D01*
X45884809Y133074333D01*
X46075285Y133026714D01*
X46170523Y132979095D01*
X46265761Y132883857D01*
X46313380Y132741000D01*
X46313380Y132645761D01*
X46265761Y132502904D01*
X46218142Y132455285D01*
X45884809Y132455285D01*
X45884809Y132645761D01*
X46313380Y132026714D02*
X45313380Y132026714D01*
X46313380Y131455285D01*
X45313380Y131455285D01*
X46313380Y130979095D02*
X45313380Y130979095D01*
X45313380Y130741000D01*
X45361000Y130598142D01*
X45456238Y130502904D01*
X45551476Y130455285D01*
X45741952Y130407666D01*
X45884809Y130407666D01*
X46075285Y130455285D01*
X46170523Y130502904D01*
X46265761Y130598142D01*
X46313380Y130741000D01*
X46313380Y130979095D01*
X140521380Y100658523D02*
X141521380Y100325190D01*
X140521380Y99991857D01*
X140521380Y99753761D02*
X140521380Y99087095D01*
X141521380Y99515666D01*
D14*
X82413276Y137130400D02*
X82490685Y137169104D01*
X82606800Y137169104D01*
X82722914Y137130400D01*
X82800323Y137052990D01*
X82839028Y136975580D01*
X82877733Y136820761D01*
X82877733Y136704647D01*
X82839028Y136549828D01*
X82800323Y136472419D01*
X82722914Y136395009D01*
X82606800Y136356304D01*
X82529390Y136356304D01*
X82413276Y136395009D01*
X82374571Y136433714D01*
X82374571Y136704647D01*
X82529390Y136704647D01*
X82026228Y136356304D02*
X82026228Y137169104D01*
X81561771Y136356304D01*
X81561771Y137169104D01*
X81174723Y136356304D02*
X81174723Y137169104D01*
X80981200Y137169104D01*
X80865085Y137130400D01*
X80787676Y137052990D01*
X80748971Y136975580D01*
X80710266Y136820761D01*
X80710266Y136704647D01*
X80748971Y136549828D01*
X80787676Y136472419D01*
X80865085Y136395009D01*
X80981200Y136356304D01*
X81174723Y136356304D01*
D12*
X140698380Y116670904D02*
X140698380Y116099476D01*
X141698380Y116385190D02*
X140698380Y116385190D01*
X140698380Y115861380D02*
X140698380Y115242333D01*
X141079333Y115575666D01*
X141079333Y115432809D01*
X141126952Y115337571D01*
X141174571Y115289952D01*
X141269809Y115242333D01*
X141507904Y115242333D01*
X141603142Y115289952D01*
X141650761Y115337571D01*
X141698380Y115432809D01*
X141698380Y115718523D01*
X141650761Y115813761D01*
X141603142Y115861380D01*
X108352857Y130494857D02*
X108400476Y130447238D01*
X108543333Y130399619D01*
X108638571Y130399619D01*
X108781428Y130447238D01*
X108876666Y130542476D01*
X108924285Y130637714D01*
X108971904Y130828190D01*
X108971904Y130971047D01*
X108924285Y131161523D01*
X108876666Y131256761D01*
X108781428Y131352000D01*
X108638571Y131399619D01*
X108543333Y131399619D01*
X108400476Y131352000D01*
X108352857Y131304380D01*
X107971904Y130685333D02*
X107495714Y130685333D01*
X108067142Y130399619D02*
X107733809Y131399619D01*
X107400476Y130399619D01*
X107067142Y130399619D02*
X107067142Y131399619D01*
X106495714Y130399619D01*
X106495714Y131399619D01*
X42598714Y94085523D02*
X43265380Y94085523D01*
X42217761Y94323619D02*
X42932047Y94561714D01*
X42932047Y93942666D01*
X146083285Y135951619D02*
X146654714Y135951619D01*
X146369000Y135951619D02*
X146369000Y136951619D01*
X146464238Y136808761D01*
X146559476Y136713523D01*
X146654714Y136665904D01*
X145702333Y136856380D02*
X145654714Y136904000D01*
X145559476Y136951619D01*
X145321380Y136951619D01*
X145226142Y136904000D01*
X145178523Y136856380D01*
X145130904Y136761142D01*
X145130904Y136665904D01*
X145178523Y136523047D01*
X145749952Y135951619D01*
X145130904Y135951619D01*
X144797571Y136618285D02*
X144559476Y135951619D01*
X144321380Y136618285D01*
X143226142Y135999238D02*
X143083285Y135951619D01*
X142845190Y135951619D01*
X142749952Y135999238D01*
X142702333Y136046857D01*
X142654714Y136142095D01*
X142654714Y136237333D01*
X142702333Y136332571D01*
X142749952Y136380190D01*
X142845190Y136427809D01*
X143035666Y136475428D01*
X143130904Y136523047D01*
X143178523Y136570666D01*
X143226142Y136665904D01*
X143226142Y136761142D01*
X143178523Y136856380D01*
X143130904Y136904000D01*
X143035666Y136951619D01*
X142797571Y136951619D01*
X142654714Y136904000D01*
X141845190Y135999238D02*
X141940428Y135951619D01*
X142130904Y135951619D01*
X142226142Y135999238D01*
X142273761Y136094476D01*
X142273761Y136475428D01*
X142226142Y136570666D01*
X142130904Y136618285D01*
X141940428Y136618285D01*
X141845190Y136570666D01*
X141797571Y136475428D01*
X141797571Y136380190D01*
X142273761Y136284952D01*
X141369000Y136618285D02*
X141369000Y135951619D01*
X141369000Y136523047D02*
X141321380Y136570666D01*
X141226142Y136618285D01*
X141083285Y136618285D01*
X140988047Y136570666D01*
X140940428Y136475428D01*
X140940428Y135951619D01*
X140511857Y135999238D02*
X140416619Y135951619D01*
X140226142Y135951619D01*
X140130904Y135999238D01*
X140083285Y136094476D01*
X140083285Y136142095D01*
X140130904Y136237333D01*
X140226142Y136284952D01*
X140369000Y136284952D01*
X140464238Y136332571D01*
X140511857Y136427809D01*
X140511857Y136475428D01*
X140464238Y136570666D01*
X140369000Y136618285D01*
X140226142Y136618285D01*
X140130904Y136570666D01*
X145654714Y134389238D02*
X145511857Y134341619D01*
X145273761Y134341619D01*
X145178523Y134389238D01*
X145130904Y134436857D01*
X145083285Y134532095D01*
X145083285Y134627333D01*
X145130904Y134722571D01*
X145178523Y134770190D01*
X145273761Y134817809D01*
X145464238Y134865428D01*
X145559476Y134913047D01*
X145607095Y134960666D01*
X145654714Y135055904D01*
X145654714Y135151142D01*
X145607095Y135246380D01*
X145559476Y135294000D01*
X145464238Y135341619D01*
X145226142Y135341619D01*
X145083285Y135294000D01*
X144226142Y135008285D02*
X144226142Y134341619D01*
X144654714Y135008285D02*
X144654714Y134484476D01*
X144607095Y134389238D01*
X144511857Y134341619D01*
X144369000Y134341619D01*
X144273761Y134389238D01*
X144226142Y134436857D01*
X143749952Y135008285D02*
X143749952Y134008285D01*
X143749952Y134960666D02*
X143654714Y135008285D01*
X143464238Y135008285D01*
X143369000Y134960666D01*
X143321380Y134913047D01*
X143273761Y134817809D01*
X143273761Y134532095D01*
X143321380Y134436857D01*
X143369000Y134389238D01*
X143464238Y134341619D01*
X143654714Y134341619D01*
X143749952Y134389238D01*
X142845190Y135008285D02*
X142845190Y134008285D01*
X142845190Y134960666D02*
X142749952Y135008285D01*
X142559476Y135008285D01*
X142464238Y134960666D01*
X142416619Y134913047D01*
X142369000Y134817809D01*
X142369000Y134532095D01*
X142416619Y134436857D01*
X142464238Y134389238D01*
X142559476Y134341619D01*
X142749952Y134341619D01*
X142845190Y134389238D01*
X141797571Y134341619D02*
X141892809Y134389238D01*
X141940428Y134484476D01*
X141940428Y135341619D01*
X141511857Y135008285D02*
X141273761Y134341619D01*
X141035666Y135008285D02*
X141273761Y134341619D01*
X141369000Y134103523D01*
X141416619Y134055904D01*
X141511857Y134008285D01*
X42138380Y106674333D02*
X42138380Y106007666D01*
X43138380Y106436238D01*
X87342333Y136495619D02*
X87913761Y136495619D01*
X87628047Y136495619D02*
X87628047Y137495619D01*
X87723285Y137352761D01*
X87818523Y137257523D01*
X87913761Y137209904D01*
X86913761Y136876571D02*
X86151857Y136876571D01*
X76371380Y136220428D02*
X76038047Y136220428D01*
X75895190Y135696619D02*
X76371380Y135696619D01*
X76371380Y136696619D01*
X75895190Y136696619D01*
X75609476Y136696619D02*
X75038047Y136696619D01*
X75323761Y135696619D02*
X75323761Y136696619D01*
X74371380Y136220428D02*
X74228523Y136172809D01*
X74180904Y136125190D01*
X74133285Y136029952D01*
X74133285Y135887095D01*
X74180904Y135791857D01*
X74228523Y135744238D01*
X74323761Y135696619D01*
X74704714Y135696619D01*
X74704714Y136696619D01*
X74371380Y136696619D01*
X74276142Y136649000D01*
X74228523Y136601380D01*
X74180904Y136506142D01*
X74180904Y136410904D01*
X74228523Y136315666D01*
X74276142Y136268047D01*
X74371380Y136220428D01*
X74704714Y136220428D01*
X72990428Y136601380D02*
X72942809Y136649000D01*
X72847571Y136696619D01*
X72609476Y136696619D01*
X72514238Y136649000D01*
X72466619Y136601380D01*
X72419000Y136506142D01*
X72419000Y136410904D01*
X72466619Y136268047D01*
X73038047Y135696619D01*
X72419000Y135696619D01*
X34121380Y103991476D02*
X34121380Y103801000D01*
X34073761Y103705761D01*
X34026142Y103658142D01*
X33883285Y103562904D01*
X33692809Y103515285D01*
X33311857Y103515285D01*
X33216619Y103562904D01*
X33169000Y103610523D01*
X33121380Y103705761D01*
X33121380Y103896238D01*
X33169000Y103991476D01*
X33216619Y104039095D01*
X33311857Y104086714D01*
X33549952Y104086714D01*
X33645190Y104039095D01*
X33692809Y103991476D01*
X33740428Y103896238D01*
X33740428Y103705761D01*
X33692809Y103610523D01*
X33645190Y103562904D01*
X33549952Y103515285D01*
X42138380Y98101904D02*
X42138380Y98578095D01*
X42614571Y98625714D01*
X42566952Y98578095D01*
X42519333Y98482857D01*
X42519333Y98244761D01*
X42566952Y98149523D01*
X42614571Y98101904D01*
X42709809Y98054285D01*
X42947904Y98054285D01*
X43043142Y98101904D01*
X43090761Y98149523D01*
X43138380Y98244761D01*
X43138380Y98482857D01*
X43090761Y98578095D01*
X43043142Y98625714D01*
X42566952Y110246238D02*
X42519333Y110341476D01*
X42471714Y110389095D01*
X42376476Y110436714D01*
X42328857Y110436714D01*
X42233619Y110389095D01*
X42186000Y110341476D01*
X42138380Y110246238D01*
X42138380Y110055761D01*
X42186000Y109960523D01*
X42233619Y109912904D01*
X42328857Y109865285D01*
X42376476Y109865285D01*
X42471714Y109912904D01*
X42519333Y109960523D01*
X42566952Y110055761D01*
X42566952Y110246238D01*
X42614571Y110341476D01*
X42662190Y110389095D01*
X42757428Y110436714D01*
X42947904Y110436714D01*
X43043142Y110389095D01*
X43090761Y110341476D01*
X43138380Y110246238D01*
X43138380Y110055761D01*
X43090761Y109960523D01*
X43043142Y109912904D01*
X42947904Y109865285D01*
X42757428Y109865285D01*
X42662190Y109912904D01*
X42614571Y109960523D01*
X42566952Y110055761D01*
X33783285Y128367619D02*
X34354714Y128367619D01*
X34069000Y128367619D02*
X34069000Y129367619D01*
X34164238Y129224761D01*
X34259476Y129129523D01*
X34354714Y129081904D01*
X102256952Y129256619D02*
X102352190Y129304238D01*
X102399809Y129399476D01*
X102399809Y130256619D01*
X34121380Y123835285D02*
X34121380Y124406714D01*
X34121380Y124121000D02*
X33121380Y124121000D01*
X33264238Y124216238D01*
X33359476Y124311476D01*
X33407095Y124406714D01*
D14*
X78568171Y131881304D02*
X78568171Y132694104D01*
X78219828Y131881304D02*
X78219828Y132307057D01*
X78258533Y132384466D01*
X78335942Y132423171D01*
X78452057Y132423171D01*
X78529466Y132384466D01*
X78568171Y132345761D01*
D12*
X133985666Y99725190D02*
X133985666Y99249000D01*
X134271380Y99820428D02*
X133271380Y99487095D01*
X134271380Y99153761D01*
X133604714Y98820428D02*
X134271380Y98820428D01*
X133699952Y98820428D02*
X133652333Y98772809D01*
X133604714Y98677571D01*
X133604714Y98534714D01*
X133652333Y98439476D01*
X133747571Y98391857D01*
X134271380Y98391857D01*
X134271380Y97487095D02*
X133747571Y97487095D01*
X133652333Y97534714D01*
X133604714Y97629952D01*
X133604714Y97820428D01*
X133652333Y97915666D01*
X134223761Y97487095D02*
X134271380Y97582333D01*
X134271380Y97820428D01*
X134223761Y97915666D01*
X134128523Y97963285D01*
X134033285Y97963285D01*
X133938047Y97915666D01*
X133890428Y97820428D01*
X133890428Y97582333D01*
X133842809Y97487095D01*
X134271380Y96868047D02*
X134223761Y96963285D01*
X134128523Y97010904D01*
X133271380Y97010904D01*
X134271380Y96344238D02*
X134223761Y96439476D01*
X134176142Y96487095D01*
X134080904Y96534714D01*
X133795190Y96534714D01*
X133699952Y96487095D01*
X133652333Y96439476D01*
X133604714Y96344238D01*
X133604714Y96201380D01*
X133652333Y96106142D01*
X133699952Y96058523D01*
X133795190Y96010904D01*
X134080904Y96010904D01*
X134176142Y96058523D01*
X134223761Y96106142D01*
X134271380Y96201380D01*
X134271380Y96344238D01*
X133604714Y95153761D02*
X134414238Y95153761D01*
X134509476Y95201380D01*
X134557095Y95249000D01*
X134604714Y95344238D01*
X134604714Y95487095D01*
X134557095Y95582333D01*
X134223761Y95153761D02*
X134271380Y95249000D01*
X134271380Y95439476D01*
X134223761Y95534714D01*
X134176142Y95582333D01*
X134080904Y95629952D01*
X133795190Y95629952D01*
X133699952Y95582333D01*
X133652333Y95534714D01*
X133604714Y95439476D01*
X133604714Y95249000D01*
X133652333Y95153761D01*
X134271380Y93915666D02*
X133271380Y93915666D01*
X133604714Y93439476D02*
X134271380Y93439476D01*
X133699952Y93439476D02*
X133652333Y93391857D01*
X133604714Y93296619D01*
X133604714Y93153761D01*
X133652333Y93058523D01*
X133747571Y93010904D01*
X134271380Y93010904D01*
X133604714Y92534714D02*
X134604714Y92534714D01*
X133652333Y92534714D02*
X133604714Y92439476D01*
X133604714Y92249000D01*
X133652333Y92153761D01*
X133699952Y92106142D01*
X133795190Y92058523D01*
X134080904Y92058523D01*
X134176142Y92106142D01*
X134223761Y92153761D01*
X134271380Y92249000D01*
X134271380Y92439476D01*
X134223761Y92534714D01*
X133604714Y91201380D02*
X134271380Y91201380D01*
X133604714Y91629952D02*
X134128523Y91629952D01*
X134223761Y91582333D01*
X134271380Y91487095D01*
X134271380Y91344238D01*
X134223761Y91249000D01*
X134176142Y91201380D01*
X133604714Y90868047D02*
X133604714Y90487095D01*
X133271380Y90725190D02*
X134128523Y90725190D01*
X134223761Y90677571D01*
X134271380Y90582333D01*
X134271380Y90487095D01*
X134223761Y90201380D02*
X134271380Y90106142D01*
X134271380Y89915666D01*
X134223761Y89820428D01*
X134128523Y89772809D01*
X134080904Y89772809D01*
X133985666Y89820428D01*
X133938047Y89915666D01*
X133938047Y90058523D01*
X133890428Y90153761D01*
X133795190Y90201380D01*
X133747571Y90201380D01*
X133652333Y90153761D01*
X133604714Y90058523D01*
X133604714Y89915666D01*
X133652333Y89820428D01*
X146849761Y103537095D02*
X146897380Y103394238D01*
X146897380Y103156142D01*
X146849761Y103060904D01*
X146802142Y103013285D01*
X146706904Y102965666D01*
X146611666Y102965666D01*
X146516428Y103013285D01*
X146468809Y103060904D01*
X146421190Y103156142D01*
X146373571Y103346619D01*
X146325952Y103441857D01*
X146278333Y103489476D01*
X146183095Y103537095D01*
X146087857Y103537095D01*
X145992619Y103489476D01*
X145945000Y103441857D01*
X145897380Y103346619D01*
X145897380Y103108523D01*
X145945000Y102965666D01*
X146849761Y102156142D02*
X146897380Y102251380D01*
X146897380Y102441857D01*
X146849761Y102537095D01*
X146754523Y102584714D01*
X146373571Y102584714D01*
X146278333Y102537095D01*
X146230714Y102441857D01*
X146230714Y102251380D01*
X146278333Y102156142D01*
X146373571Y102108523D01*
X146468809Y102108523D01*
X146564047Y102584714D01*
X146230714Y101679952D02*
X146897380Y101679952D01*
X146325952Y101679952D02*
X146278333Y101632333D01*
X146230714Y101537095D01*
X146230714Y101394238D01*
X146278333Y101299000D01*
X146373571Y101251380D01*
X146897380Y101251380D01*
X146849761Y100822809D02*
X146897380Y100727571D01*
X146897380Y100537095D01*
X146849761Y100441857D01*
X146754523Y100394238D01*
X146706904Y100394238D01*
X146611666Y100441857D01*
X146564047Y100537095D01*
X146564047Y100679952D01*
X146516428Y100775190D01*
X146421190Y100822809D01*
X146373571Y100822809D01*
X146278333Y100775190D01*
X146230714Y100679952D01*
X146230714Y100537095D01*
X146278333Y100441857D01*
X146897380Y99822809D02*
X146849761Y99918047D01*
X146802142Y99965666D01*
X146706904Y100013285D01*
X146421190Y100013285D01*
X146325952Y99965666D01*
X146278333Y99918047D01*
X146230714Y99822809D01*
X146230714Y99679952D01*
X146278333Y99584714D01*
X146325952Y99537095D01*
X146421190Y99489476D01*
X146706904Y99489476D01*
X146802142Y99537095D01*
X146849761Y99584714D01*
X146897380Y99679952D01*
X146897380Y99822809D01*
X146897380Y99060904D02*
X146230714Y99060904D01*
X146421190Y99060904D02*
X146325952Y99013285D01*
X146278333Y98965666D01*
X146230714Y98870428D01*
X146230714Y98775190D01*
X145945000Y97156142D02*
X145897380Y97251380D01*
X145897380Y97394238D01*
X145945000Y97537095D01*
X146040238Y97632333D01*
X146135476Y97679952D01*
X146325952Y97727571D01*
X146468809Y97727571D01*
X146659285Y97679952D01*
X146754523Y97632333D01*
X146849761Y97537095D01*
X146897380Y97394238D01*
X146897380Y97299000D01*
X146849761Y97156142D01*
X146802142Y97108523D01*
X146468809Y97108523D01*
X146468809Y97299000D01*
X146897380Y96679952D02*
X145897380Y96679952D01*
X146897380Y96108523D01*
X145897380Y96108523D01*
X146897380Y95632333D02*
X145897380Y95632333D01*
X145897380Y95394238D01*
X145945000Y95251380D01*
X146040238Y95156142D01*
X146135476Y95108523D01*
X146325952Y95060904D01*
X146468809Y95060904D01*
X146659285Y95108523D01*
X146754523Y95156142D01*
X146849761Y95251380D01*
X146897380Y95394238D01*
X146897380Y95632333D01*
D14*
X85047238Y131881304D02*
X85124647Y131920009D01*
X85163352Y131997419D01*
X85163352Y132694104D01*
D15*
X74286695Y132587400D02*
X73473895Y132587400D01*
X74054466Y132316466D01*
X73473895Y132045533D01*
X74286695Y132045533D01*
X74286695Y131310142D02*
X73860942Y131310142D01*
X73783533Y131348847D01*
X73744828Y131426257D01*
X73744828Y131581076D01*
X73783533Y131658485D01*
X74247990Y131310142D02*
X74286695Y131387552D01*
X74286695Y131581076D01*
X74247990Y131658485D01*
X74170580Y131697190D01*
X74093171Y131697190D01*
X74015761Y131658485D01*
X73977057Y131581076D01*
X73977057Y131387552D01*
X73938352Y131310142D01*
X74286695Y130923095D02*
X73744828Y130923095D01*
X73473895Y130923095D02*
X73512600Y130961800D01*
X73551304Y130923095D01*
X73512600Y130884390D01*
X73473895Y130923095D01*
X73551304Y130923095D01*
X73744828Y130536047D02*
X74286695Y130536047D01*
X73822238Y130536047D02*
X73783533Y130497342D01*
X73744828Y130419933D01*
X73744828Y130303819D01*
X73783533Y130226409D01*
X73860942Y130187704D01*
X74286695Y130187704D01*
X74286695Y128716923D02*
X73899647Y128987857D01*
X74286695Y129181380D02*
X73473895Y129181380D01*
X73473895Y128871742D01*
X73512600Y128794333D01*
X73551304Y128755628D01*
X73628714Y128716923D01*
X73744828Y128716923D01*
X73822238Y128755628D01*
X73860942Y128794333D01*
X73899647Y128871742D01*
X73899647Y129181380D01*
X74286695Y128252466D02*
X74247990Y128329876D01*
X74170580Y128368580D01*
X73473895Y128368580D01*
X73744828Y128020238D02*
X74286695Y127826714D01*
X73744828Y127633190D02*
X74286695Y127826714D01*
X74480219Y127904123D01*
X74518923Y127942828D01*
X74557628Y128020238D01*
D12*
X43138380Y114532476D02*
X43138380Y114342000D01*
X43090761Y114246761D01*
X43043142Y114199142D01*
X42900285Y114103904D01*
X42709809Y114056285D01*
X42328857Y114056285D01*
X42233619Y114103904D01*
X42186000Y114151523D01*
X42138380Y114246761D01*
X42138380Y114437238D01*
X42186000Y114532476D01*
X42233619Y114580095D01*
X42328857Y114627714D01*
X42566952Y114627714D01*
X42662190Y114580095D01*
X42709809Y114532476D01*
X42757428Y114437238D01*
X42757428Y114246761D01*
X42709809Y114151523D01*
X42662190Y114103904D01*
X42566952Y114056285D01*
X33121380Y120390333D02*
X33121380Y119771285D01*
X33502333Y120104619D01*
X33502333Y119961761D01*
X33549952Y119866523D01*
X33597571Y119818904D01*
X33692809Y119771285D01*
X33930904Y119771285D01*
X34026142Y119818904D01*
X34073761Y119866523D01*
X34121380Y119961761D01*
X34121380Y120247476D01*
X34073761Y120342714D01*
X34026142Y120390333D01*
X46271380Y117808523D02*
X45271380Y117808523D01*
X45604714Y116903761D02*
X46414238Y116903761D01*
X46509476Y116951380D01*
X46557095Y116999000D01*
X46604714Y117094238D01*
X46604714Y117237095D01*
X46557095Y117332333D01*
X46223761Y116903761D02*
X46271380Y116999000D01*
X46271380Y117189476D01*
X46223761Y117284714D01*
X46176142Y117332333D01*
X46080904Y117379952D01*
X45795190Y117379952D01*
X45699952Y117332333D01*
X45652333Y117284714D01*
X45604714Y117189476D01*
X45604714Y116999000D01*
X45652333Y116903761D01*
X45604714Y116427571D02*
X46271380Y116427571D01*
X45699952Y116427571D02*
X45652333Y116379952D01*
X45604714Y116284714D01*
X45604714Y116141857D01*
X45652333Y116046619D01*
X45747571Y115999000D01*
X46271380Y115999000D01*
X46271380Y115522809D02*
X45604714Y115522809D01*
X45271380Y115522809D02*
X45319000Y115570428D01*
X45366619Y115522809D01*
X45319000Y115475190D01*
X45271380Y115522809D01*
X45366619Y115522809D01*
X45604714Y115189476D02*
X45604714Y114808523D01*
X45271380Y115046619D02*
X46128523Y115046619D01*
X46223761Y114999000D01*
X46271380Y114903761D01*
X46271380Y114808523D01*
X46271380Y114475190D02*
X45604714Y114475190D01*
X45271380Y114475190D02*
X45319000Y114522809D01*
X45366619Y114475190D01*
X45319000Y114427571D01*
X45271380Y114475190D01*
X45366619Y114475190D01*
X46271380Y113856142D02*
X46223761Y113951380D01*
X46176142Y113999000D01*
X46080904Y114046619D01*
X45795190Y114046619D01*
X45699952Y113999000D01*
X45652333Y113951380D01*
X45604714Y113856142D01*
X45604714Y113713285D01*
X45652333Y113618047D01*
X45699952Y113570428D01*
X45795190Y113522809D01*
X46080904Y113522809D01*
X46176142Y113570428D01*
X46223761Y113618047D01*
X46271380Y113713285D01*
X46271380Y113856142D01*
X45604714Y113094238D02*
X46271380Y113094238D01*
X45699952Y113094238D02*
X45652333Y113046619D01*
X45604714Y112951380D01*
X45604714Y112808523D01*
X45652333Y112713285D01*
X45747571Y112665666D01*
X46271380Y112665666D01*
X45271380Y111237095D02*
X45271380Y111046619D01*
X45319000Y110951380D01*
X45414238Y110856142D01*
X45604714Y110808523D01*
X45938047Y110808523D01*
X46128523Y110856142D01*
X46223761Y110951380D01*
X46271380Y111046619D01*
X46271380Y111237095D01*
X46223761Y111332333D01*
X46128523Y111427571D01*
X45938047Y111475190D01*
X45604714Y111475190D01*
X45414238Y111427571D01*
X45319000Y111332333D01*
X45271380Y111237095D01*
X45604714Y109951380D02*
X46271380Y109951380D01*
X45604714Y110379952D02*
X46128523Y110379952D01*
X46223761Y110332333D01*
X46271380Y110237095D01*
X46271380Y110094238D01*
X46223761Y109999000D01*
X46176142Y109951380D01*
X45604714Y109618047D02*
X45604714Y109237095D01*
X45271380Y109475190D02*
X46128523Y109475190D01*
X46223761Y109427571D01*
X46271380Y109332333D01*
X46271380Y109237095D01*
X45604714Y108903761D02*
X46604714Y108903761D01*
X45652333Y108903761D02*
X45604714Y108808523D01*
X45604714Y108618047D01*
X45652333Y108522809D01*
X45699952Y108475190D01*
X45795190Y108427571D01*
X46080904Y108427571D01*
X46176142Y108475190D01*
X46223761Y108522809D01*
X46271380Y108618047D01*
X46271380Y108808523D01*
X46223761Y108903761D01*
X45604714Y107570428D02*
X46271380Y107570428D01*
X45604714Y107999000D02*
X46128523Y107999000D01*
X46223761Y107951380D01*
X46271380Y107856142D01*
X46271380Y107713285D01*
X46223761Y107618047D01*
X46176142Y107570428D01*
X45604714Y107237095D02*
X45604714Y106856142D01*
X45271380Y107094238D02*
X46128523Y107094238D01*
X46223761Y107046619D01*
X46271380Y106951380D01*
X46271380Y106856142D01*
X46223761Y106570428D02*
X46271380Y106475190D01*
X46271380Y106284714D01*
X46223761Y106189476D01*
X46128523Y106141857D01*
X46080904Y106141857D01*
X45985666Y106189476D01*
X45938047Y106284714D01*
X45938047Y106427571D01*
X45890428Y106522809D01*
X45795190Y106570428D01*
X45747571Y106570428D01*
X45652333Y106522809D01*
X45604714Y106427571D01*
X45604714Y106284714D01*
X45652333Y106189476D01*
X136880380Y115230904D02*
X136880380Y114659476D01*
X137880380Y114945190D02*
X136880380Y114945190D01*
X137213714Y113897571D02*
X137880380Y113897571D01*
X136832761Y114135666D02*
X137547047Y114373761D01*
X137547047Y113754714D01*
X81420952Y140432571D02*
X80659047Y140432571D01*
X81040000Y140051619D02*
X81040000Y140813523D01*
X134070380Y127645285D02*
X134070380Y128216714D01*
X134070380Y127931000D02*
X133070380Y127931000D01*
X133213238Y128026238D01*
X133308476Y128121476D01*
X133356095Y128216714D01*
X40773761Y135651619D02*
X40773761Y136651619D01*
X40773761Y136175428D02*
X40202333Y136175428D01*
X40202333Y135651619D02*
X40202333Y136651619D01*
X39726142Y135651619D02*
X39726142Y136318285D01*
X39726142Y136651619D02*
X39773761Y136604000D01*
X39726142Y136556380D01*
X39678523Y136604000D01*
X39726142Y136651619D01*
X39726142Y136556380D01*
X38821380Y136318285D02*
X38821380Y135508761D01*
X38869000Y135413523D01*
X38916619Y135365904D01*
X39011857Y135318285D01*
X39154714Y135318285D01*
X39249952Y135365904D01*
X38821380Y135699238D02*
X38916619Y135651619D01*
X39107095Y135651619D01*
X39202333Y135699238D01*
X39249952Y135746857D01*
X39297571Y135842095D01*
X39297571Y136127809D01*
X39249952Y136223047D01*
X39202333Y136270666D01*
X39107095Y136318285D01*
X38916619Y136318285D01*
X38821380Y136270666D01*
X38345190Y135651619D02*
X38345190Y136651619D01*
X37916619Y135651619D02*
X37916619Y136175428D01*
X37964238Y136270666D01*
X38059476Y136318285D01*
X38202333Y136318285D01*
X38297571Y136270666D01*
X38345190Y136223047D01*
X36726142Y135699238D02*
X36583285Y135651619D01*
X36345190Y135651619D01*
X36249952Y135699238D01*
X36202333Y135746857D01*
X36154714Y135842095D01*
X36154714Y135937333D01*
X36202333Y136032571D01*
X36249952Y136080190D01*
X36345190Y136127809D01*
X36535666Y136175428D01*
X36630904Y136223047D01*
X36678523Y136270666D01*
X36726142Y136365904D01*
X36726142Y136461142D01*
X36678523Y136556380D01*
X36630904Y136604000D01*
X36535666Y136651619D01*
X36297571Y136651619D01*
X36154714Y136604000D01*
X35726142Y135651619D02*
X35726142Y136318285D01*
X35726142Y136651619D02*
X35773761Y136604000D01*
X35726142Y136556380D01*
X35678523Y136604000D01*
X35726142Y136651619D01*
X35726142Y136556380D01*
X34821380Y135651619D02*
X34821380Y136651619D01*
X34821380Y135699238D02*
X34916619Y135651619D01*
X35107095Y135651619D01*
X35202333Y135699238D01*
X35249952Y135746857D01*
X35297571Y135842095D01*
X35297571Y136127809D01*
X35249952Y136223047D01*
X35202333Y136270666D01*
X35107095Y136318285D01*
X34916619Y136318285D01*
X34821380Y136270666D01*
X33964238Y135699238D02*
X34059476Y135651619D01*
X34249952Y135651619D01*
X34345190Y135699238D01*
X34392809Y135794476D01*
X34392809Y136175428D01*
X34345190Y136270666D01*
X34249952Y136318285D01*
X34059476Y136318285D01*
X33964238Y136270666D01*
X33916619Y136175428D01*
X33916619Y136080190D01*
X34392809Y135984952D01*
X39797571Y135041619D02*
X39607095Y135041619D01*
X39511857Y134994000D01*
X39416619Y134898761D01*
X39369000Y134708285D01*
X39369000Y134374952D01*
X39416619Y134184476D01*
X39511857Y134089238D01*
X39607095Y134041619D01*
X39797571Y134041619D01*
X39892809Y134089238D01*
X39988047Y134184476D01*
X40035666Y134374952D01*
X40035666Y134708285D01*
X39988047Y134898761D01*
X39892809Y134994000D01*
X39797571Y135041619D01*
X38511857Y134708285D02*
X38511857Y134041619D01*
X38940428Y134708285D02*
X38940428Y134184476D01*
X38892809Y134089238D01*
X38797571Y134041619D01*
X38654714Y134041619D01*
X38559476Y134089238D01*
X38511857Y134136857D01*
X38178523Y134708285D02*
X37797571Y134708285D01*
X38035666Y135041619D02*
X38035666Y134184476D01*
X37988047Y134089238D01*
X37892809Y134041619D01*
X37797571Y134041619D01*
X37464238Y134708285D02*
X37464238Y133708285D01*
X37464238Y134660666D02*
X37369000Y134708285D01*
X37178523Y134708285D01*
X37083285Y134660666D01*
X37035666Y134613047D01*
X36988047Y134517809D01*
X36988047Y134232095D01*
X37035666Y134136857D01*
X37083285Y134089238D01*
X37178523Y134041619D01*
X37369000Y134041619D01*
X37464238Y134089238D01*
X36130904Y134708285D02*
X36130904Y134041619D01*
X36559476Y134708285D02*
X36559476Y134184476D01*
X36511857Y134089238D01*
X36416619Y134041619D01*
X36273761Y134041619D01*
X36178523Y134089238D01*
X36130904Y134136857D01*
X35797571Y134708285D02*
X35416619Y134708285D01*
X35654714Y135041619D02*
X35654714Y134184476D01*
X35607095Y134089238D01*
X35511857Y134041619D01*
X35416619Y134041619D01*
X35130904Y134089238D02*
X35035666Y134041619D01*
X34845190Y134041619D01*
X34749952Y134089238D01*
X34702333Y134184476D01*
X34702333Y134232095D01*
X34749952Y134327333D01*
X34845190Y134374952D01*
X34988047Y134374952D01*
X35083285Y134422571D01*
X35130904Y134517809D01*
X35130904Y134565428D01*
X35083285Y134660666D01*
X34988047Y134708285D01*
X34845190Y134708285D01*
X34749952Y134660666D01*
X101947333Y140670619D02*
X101328285Y140670619D01*
X101661619Y140289666D01*
X101518761Y140289666D01*
X101423523Y140242047D01*
X101375904Y140194428D01*
X101328285Y140099190D01*
X101328285Y139861095D01*
X101375904Y139765857D01*
X101423523Y139718238D01*
X101518761Y139670619D01*
X101804476Y139670619D01*
X101899714Y139718238D01*
X101947333Y139765857D01*
X94611857Y143496619D02*
X94278523Y142496619D01*
X93945190Y143496619D01*
X93040428Y142496619D02*
X93373761Y142972809D01*
X93611857Y142496619D02*
X93611857Y143496619D01*
X93230904Y143496619D01*
X93135666Y143449000D01*
X93088047Y143401380D01*
X93040428Y143306142D01*
X93040428Y143163285D01*
X93088047Y143068047D01*
X93135666Y143020428D01*
X93230904Y142972809D01*
X93611857Y142972809D01*
X91897571Y142544238D02*
X91754714Y142496619D01*
X91516619Y142496619D01*
X91421380Y142544238D01*
X91373761Y142591857D01*
X91326142Y142687095D01*
X91326142Y142782333D01*
X91373761Y142877571D01*
X91421380Y142925190D01*
X91516619Y142972809D01*
X91707095Y143020428D01*
X91802333Y143068047D01*
X91849952Y143115666D01*
X91897571Y143210904D01*
X91897571Y143306142D01*
X91849952Y143401380D01*
X91802333Y143449000D01*
X91707095Y143496619D01*
X91469000Y143496619D01*
X91326142Y143449000D01*
X90516619Y142544238D02*
X90611857Y142496619D01*
X90802333Y142496619D01*
X90897571Y142544238D01*
X90945190Y142639476D01*
X90945190Y143020428D01*
X90897571Y143115666D01*
X90802333Y143163285D01*
X90611857Y143163285D01*
X90516619Y143115666D01*
X90469000Y143020428D01*
X90469000Y142925190D01*
X90945190Y142829952D01*
X90040428Y143163285D02*
X90040428Y142496619D01*
X90040428Y143068047D02*
X89992809Y143115666D01*
X89897571Y143163285D01*
X89754714Y143163285D01*
X89659476Y143115666D01*
X89611857Y143020428D01*
X89611857Y142496619D01*
X89183285Y142544238D02*
X89088047Y142496619D01*
X88897571Y142496619D01*
X88802333Y142544238D01*
X88754714Y142639476D01*
X88754714Y142687095D01*
X88802333Y142782333D01*
X88897571Y142829952D01*
X89040428Y142829952D01*
X89135666Y142877571D01*
X89183285Y142972809D01*
X89183285Y143020428D01*
X89135666Y143115666D01*
X89040428Y143163285D01*
X88897571Y143163285D01*
X88802333Y143115666D01*
X88183285Y142496619D02*
X88278523Y142544238D01*
X88326142Y142591857D01*
X88373761Y142687095D01*
X88373761Y142972809D01*
X88326142Y143068047D01*
X88278523Y143115666D01*
X88183285Y143163285D01*
X88040428Y143163285D01*
X87945190Y143115666D01*
X87897571Y143068047D01*
X87849952Y142972809D01*
X87849952Y142687095D01*
X87897571Y142591857D01*
X87945190Y142544238D01*
X88040428Y142496619D01*
X88183285Y142496619D01*
X87421380Y142496619D02*
X87421380Y143163285D01*
X87421380Y142972809D02*
X87373761Y143068047D01*
X87326142Y143115666D01*
X87230904Y143163285D01*
X87135666Y143163285D01*
X86849952Y142544238D02*
X86754714Y142496619D01*
X86564238Y142496619D01*
X86469000Y142544238D01*
X86421380Y142639476D01*
X86421380Y142687095D01*
X86469000Y142782333D01*
X86564238Y142829952D01*
X86707095Y142829952D01*
X86802333Y142877571D01*
X86849952Y142972809D01*
X86849952Y143020428D01*
X86802333Y143115666D01*
X86707095Y143163285D01*
X86564238Y143163285D01*
X86469000Y143115666D01*
X82484380Y142099428D02*
X82151047Y142099428D01*
X82008190Y141575619D02*
X82484380Y141575619D01*
X82484380Y142575619D01*
X82008190Y142575619D01*
X81722476Y142575619D02*
X81151047Y142575619D01*
X81436761Y141575619D02*
X81436761Y142575619D01*
X80484380Y142099428D02*
X80341523Y142051809D01*
X80293904Y142004190D01*
X80246285Y141908952D01*
X80246285Y141766095D01*
X80293904Y141670857D01*
X80341523Y141623238D01*
X80436761Y141575619D01*
X80817714Y141575619D01*
X80817714Y142575619D01*
X80484380Y142575619D01*
X80389142Y142528000D01*
X80341523Y142480380D01*
X80293904Y142385142D01*
X80293904Y142289904D01*
X80341523Y142194666D01*
X80389142Y142147047D01*
X80484380Y142099428D01*
X80817714Y142099428D01*
X78532000Y141575619D02*
X79103428Y141575619D01*
X78817714Y141575619D02*
X78817714Y142575619D01*
X78912952Y142432761D01*
X79008190Y142337523D01*
X79103428Y142289904D01*
X137427904Y135797000D02*
X137523142Y135844619D01*
X137666000Y135844619D01*
X137808857Y135797000D01*
X137904095Y135701761D01*
X137951714Y135606523D01*
X137999333Y135416047D01*
X137999333Y135273190D01*
X137951714Y135082714D01*
X137904095Y134987476D01*
X137808857Y134892238D01*
X137666000Y134844619D01*
X137570761Y134844619D01*
X137427904Y134892238D01*
X137380285Y134939857D01*
X137380285Y135273190D01*
X137570761Y135273190D01*
X136951714Y134844619D02*
X136951714Y135844619D01*
X136380285Y134844619D01*
X136380285Y135844619D01*
X135904095Y134844619D02*
X135904095Y135844619D01*
X135666000Y135844619D01*
X135523142Y135797000D01*
X135427904Y135701761D01*
X135380285Y135606523D01*
X135332666Y135416047D01*
X135332666Y135273190D01*
X135380285Y135082714D01*
X135427904Y134987476D01*
X135523142Y134892238D01*
X135666000Y134844619D01*
X135904095Y134844619D01*
X33121380Y111738523D02*
X33121380Y111929000D01*
X33169000Y112024238D01*
X33216619Y112071857D01*
X33359476Y112167095D01*
X33549952Y112214714D01*
X33930904Y112214714D01*
X34026142Y112167095D01*
X34073761Y112119476D01*
X34121380Y112024238D01*
X34121380Y111833761D01*
X34073761Y111738523D01*
X34026142Y111690904D01*
X33930904Y111643285D01*
X33692809Y111643285D01*
X33597571Y111690904D01*
X33549952Y111738523D01*
X33502333Y111833761D01*
X33502333Y112024238D01*
X33549952Y112119476D01*
X33597571Y112167095D01*
X33692809Y112214714D01*
X140825380Y109066714D02*
X141825380Y108733380D01*
X140825380Y108400047D01*
X141825380Y107542904D02*
X141825380Y108114333D01*
X141825380Y107828619D02*
X140825380Y107828619D01*
X140968238Y107923857D01*
X141063476Y108019095D01*
X141111095Y108114333D01*
X141825380Y106590523D02*
X141825380Y107161952D01*
X141825380Y106876238D02*
X140825380Y106876238D01*
X140968238Y106971476D01*
X141063476Y107066714D01*
X141111095Y107161952D01*
D14*
X89396600Y131598276D02*
X89357895Y131675685D01*
X89357895Y131791800D01*
X89396600Y131907914D01*
X89474009Y131985323D01*
X89551419Y132024028D01*
X89706238Y132062733D01*
X89822352Y132062733D01*
X89977171Y132024028D01*
X90054580Y131985323D01*
X90131990Y131907914D01*
X90170695Y131791800D01*
X90170695Y131714390D01*
X90131990Y131598276D01*
X90093285Y131559571D01*
X89822352Y131559571D01*
X89822352Y131714390D01*
X90170695Y131211228D02*
X89357895Y131211228D01*
X90170695Y130746771D01*
X89357895Y130746771D01*
X90170695Y130359723D02*
X89357895Y130359723D01*
X89357895Y130166200D01*
X89396600Y130050085D01*
X89474009Y129972676D01*
X89551419Y129933971D01*
X89706238Y129895266D01*
X89822352Y129895266D01*
X89977171Y129933971D01*
X90054580Y129972676D01*
X90131990Y130050085D01*
X90170695Y130166200D01*
X90170695Y130359723D01*
D12*
X87723333Y140559619D02*
X88294761Y140559619D01*
X88009047Y140559619D02*
X88009047Y141559619D01*
X88104285Y141416761D01*
X88199523Y141321523D01*
X88294761Y141273904D01*
X87294761Y140940571D02*
X86532857Y140940571D01*
X86913809Y140559619D02*
X86913809Y141321523D01*
X99550285Y133447619D02*
X100121714Y133447619D01*
X99836000Y133447619D02*
X99836000Y134447619D01*
X99931238Y134304761D01*
X100026476Y134209523D01*
X100121714Y134161904D01*
X34204714Y132320380D02*
X34157095Y132368000D01*
X34061857Y132415619D01*
X33823761Y132415619D01*
X33728523Y132368000D01*
X33680904Y132320380D01*
X33633285Y132225142D01*
X33633285Y132129904D01*
X33680904Y131987047D01*
X34252333Y131415619D01*
X33633285Y131415619D01*
X37613952Y105928238D02*
X37566333Y106023476D01*
X37518714Y106071095D01*
X37423476Y106118714D01*
X37375857Y106118714D01*
X37280619Y106071095D01*
X37233000Y106023476D01*
X37185380Y105928238D01*
X37185380Y105737761D01*
X37233000Y105642523D01*
X37280619Y105594904D01*
X37375857Y105547285D01*
X37423476Y105547285D01*
X37518714Y105594904D01*
X37566333Y105642523D01*
X37613952Y105737761D01*
X37613952Y105928238D01*
X37661571Y106023476D01*
X37709190Y106071095D01*
X37804428Y106118714D01*
X37994904Y106118714D01*
X38090142Y106071095D01*
X38137761Y106023476D01*
X38185380Y105928238D01*
X38185380Y105737761D01*
X38137761Y105642523D01*
X38090142Y105594904D01*
X37994904Y105547285D01*
X37804428Y105547285D01*
X37709190Y105594904D01*
X37661571Y105642523D01*
X37613952Y105737761D01*
X136994380Y86966523D02*
X137994380Y86633190D01*
X136994380Y86299857D01*
X137089619Y86014142D02*
X137042000Y85966523D01*
X136994380Y85871285D01*
X136994380Y85633190D01*
X137042000Y85537952D01*
X137089619Y85490333D01*
X137184857Y85442714D01*
X137280095Y85442714D01*
X137422952Y85490333D01*
X137994380Y86061761D01*
X137994380Y85442714D01*
X37264714Y117834523D02*
X37931380Y117834523D01*
X36883761Y118072619D02*
X37598047Y118310714D01*
X37598047Y117691666D01*
X140648380Y92784523D02*
X141648380Y92451190D01*
X140648380Y92117857D01*
X140648380Y91879761D02*
X140648380Y91260714D01*
X141029333Y91594047D01*
X141029333Y91451190D01*
X141076952Y91355952D01*
X141124571Y91308333D01*
X141219809Y91260714D01*
X141457904Y91260714D01*
X141553142Y91308333D01*
X141600761Y91355952D01*
X141648380Y91451190D01*
X141648380Y91736904D01*
X141600761Y91832142D01*
X141553142Y91879761D01*
X137007380Y103562714D02*
X138007380Y103229380D01*
X137007380Y102896047D01*
X138007380Y102038904D02*
X138007380Y102610333D01*
X138007380Y102324619D02*
X137007380Y102324619D01*
X137150238Y102419857D01*
X137245476Y102515095D01*
X137293095Y102610333D01*
X137007380Y101419857D02*
X137007380Y101324619D01*
X137055000Y101229380D01*
X137102619Y101181761D01*
X137197857Y101134142D01*
X137388333Y101086523D01*
X137626428Y101086523D01*
X137816904Y101134142D01*
X137912142Y101181761D01*
X137959761Y101229380D01*
X138007380Y101324619D01*
X138007380Y101419857D01*
X137959761Y101515095D01*
X137912142Y101562714D01*
X137816904Y101610333D01*
X137626428Y101657952D01*
X137388333Y101657952D01*
X137197857Y101610333D01*
X137102619Y101562714D01*
X137055000Y101515095D01*
X137007380Y101419857D01*
X82944952Y140432571D02*
X82183047Y140432571D01*
X140571380Y112860904D02*
X140571380Y112289476D01*
X141571380Y112575190D02*
X140571380Y112575190D01*
X141571380Y111432333D02*
X141571380Y112003761D01*
X141571380Y111718047D02*
X140571380Y111718047D01*
X140714238Y111813285D01*
X140809476Y111908523D01*
X140857095Y112003761D01*
X43021380Y126326476D02*
X43021380Y126897904D01*
X43021380Y126612190D02*
X42021380Y126612190D01*
X42164238Y126707428D01*
X42259476Y126802666D01*
X42307095Y126897904D01*
X42116619Y125945523D02*
X42069000Y125897904D01*
X42021380Y125802666D01*
X42021380Y125564571D01*
X42069000Y125469333D01*
X42116619Y125421714D01*
X42211857Y125374095D01*
X42307095Y125374095D01*
X42449952Y125421714D01*
X43021380Y125993142D01*
X43021380Y125374095D01*
X105963714Y140575380D02*
X105916095Y140623000D01*
X105820857Y140670619D01*
X105582761Y140670619D01*
X105487523Y140623000D01*
X105439904Y140575380D01*
X105392285Y140480142D01*
X105392285Y140384904D01*
X105439904Y140242047D01*
X106011333Y139670619D01*
X105392285Y139670619D01*
X133165619Y132153714D02*
X133118000Y132106095D01*
X133070380Y132010857D01*
X133070380Y131772761D01*
X133118000Y131677523D01*
X133165619Y131629904D01*
X133260857Y131582285D01*
X133356095Y131582285D01*
X133498952Y131629904D01*
X134070380Y132201333D01*
X134070380Y131582285D01*
X133369000Y108460904D02*
X133321380Y108556142D01*
X133321380Y108699000D01*
X133369000Y108841857D01*
X133464238Y108937095D01*
X133559476Y108984714D01*
X133749952Y109032333D01*
X133892809Y109032333D01*
X134083285Y108984714D01*
X134178523Y108937095D01*
X134273761Y108841857D01*
X134321380Y108699000D01*
X134321380Y108603761D01*
X134273761Y108460904D01*
X134226142Y108413285D01*
X133892809Y108413285D01*
X133892809Y108603761D01*
X134321380Y107984714D02*
X133321380Y107984714D01*
X134321380Y107413285D01*
X133321380Y107413285D01*
X134321380Y106937095D02*
X133321380Y106937095D01*
X133321380Y106699000D01*
X133369000Y106556142D01*
X133464238Y106460904D01*
X133559476Y106413285D01*
X133749952Y106365666D01*
X133892809Y106365666D01*
X134083285Y106413285D01*
X134178523Y106460904D01*
X134273761Y106556142D01*
X134321380Y106699000D01*
X134321380Y106937095D01*
X137121380Y95094523D02*
X138121380Y94761190D01*
X137121380Y94427857D01*
X137121380Y93665952D02*
X137121380Y93856428D01*
X137169000Y93951666D01*
X137216619Y93999285D01*
X137359476Y94094523D01*
X137549952Y94142142D01*
X137930904Y94142142D01*
X138026142Y94094523D01*
X138073761Y94046904D01*
X138121380Y93951666D01*
X138121380Y93761190D01*
X138073761Y93665952D01*
X138026142Y93618333D01*
X137930904Y93570714D01*
X137692809Y93570714D01*
X137597571Y93618333D01*
X137549952Y93665952D01*
X137502333Y93761190D01*
X137502333Y93951666D01*
X137549952Y94046904D01*
X137597571Y94094523D01*
X137692809Y94142142D01*
X101574285Y129256619D02*
X101574285Y130256619D01*
X101145714Y129256619D02*
X101145714Y129780428D01*
X101193333Y129875666D01*
X101288571Y129923285D01*
X101431428Y129923285D01*
X101526666Y129875666D01*
X101574285Y129828047D01*
X92739761Y141464380D02*
X92692142Y141512000D01*
X92596904Y141559619D01*
X92358809Y141559619D01*
X92263571Y141512000D01*
X92215952Y141464380D01*
X92168333Y141369142D01*
X92168333Y141273904D01*
X92215952Y141131047D01*
X92787380Y140559619D01*
X92168333Y140559619D01*
X91739761Y140940571D02*
X90977857Y140940571D01*
X91358809Y140559619D02*
X91358809Y141321523D01*
X34121380Y87989476D02*
X34121380Y88560904D01*
X34121380Y88275190D02*
X33121380Y88275190D01*
X33264238Y88370428D01*
X33359476Y88465666D01*
X33407095Y88560904D01*
X33121380Y87084714D02*
X33121380Y87560904D01*
X33597571Y87608523D01*
X33549952Y87560904D01*
X33502333Y87465666D01*
X33502333Y87227571D01*
X33549952Y87132333D01*
X33597571Y87084714D01*
X33692809Y87037095D01*
X33930904Y87037095D01*
X34026142Y87084714D01*
X34073761Y87132333D01*
X34121380Y87227571D01*
X34121380Y87465666D01*
X34073761Y87560904D01*
X34026142Y87608523D01*
X107745190Y136596619D02*
X107745190Y137596619D01*
X107507095Y137596619D01*
X107364238Y137549000D01*
X107269000Y137453761D01*
X107221380Y137358523D01*
X107173761Y137168047D01*
X107173761Y137025190D01*
X107221380Y136834714D01*
X107269000Y136739476D01*
X107364238Y136644238D01*
X107507095Y136596619D01*
X107745190Y136596619D01*
X106745190Y136596619D02*
X106745190Y137263285D01*
X106745190Y137596619D02*
X106792809Y137549000D01*
X106745190Y137501380D01*
X106697571Y137549000D01*
X106745190Y137596619D01*
X106745190Y137501380D01*
X105840428Y137263285D02*
X105840428Y136453761D01*
X105888047Y136358523D01*
X105935666Y136310904D01*
X106030904Y136263285D01*
X106173761Y136263285D01*
X106269000Y136310904D01*
X105840428Y136644238D02*
X105935666Y136596619D01*
X106126142Y136596619D01*
X106221380Y136644238D01*
X106269000Y136691857D01*
X106316619Y136787095D01*
X106316619Y137072809D01*
X106269000Y137168047D01*
X106221380Y137215666D01*
X106126142Y137263285D01*
X105935666Y137263285D01*
X105840428Y137215666D01*
X105364238Y136596619D02*
X105364238Y137263285D01*
X105364238Y137596619D02*
X105411857Y137549000D01*
X105364238Y137501380D01*
X105316619Y137549000D01*
X105364238Y137596619D01*
X105364238Y137501380D01*
X105030904Y137263285D02*
X104649952Y137263285D01*
X104888047Y137596619D02*
X104888047Y136739476D01*
X104840428Y136644238D01*
X104745190Y136596619D01*
X104649952Y136596619D01*
X103888047Y136596619D02*
X103888047Y137120428D01*
X103935666Y137215666D01*
X104030904Y137263285D01*
X104221380Y137263285D01*
X104316619Y137215666D01*
X103888047Y136644238D02*
X103983285Y136596619D01*
X104221380Y136596619D01*
X104316619Y136644238D01*
X104364238Y136739476D01*
X104364238Y136834714D01*
X104316619Y136929952D01*
X104221380Y136977571D01*
X103983285Y136977571D01*
X103888047Y137025190D01*
X103269000Y136596619D02*
X103364238Y136644238D01*
X103411857Y136739476D01*
X103411857Y137596619D01*
X102173761Y137644238D02*
X103030904Y136358523D01*
X101840428Y136596619D02*
X101840428Y137596619D01*
X101840428Y137120428D02*
X101269000Y137120428D01*
X101269000Y136596619D02*
X101269000Y137596619D01*
X100364238Y136596619D02*
X100364238Y137120428D01*
X100411857Y137215666D01*
X100507095Y137263285D01*
X100697571Y137263285D01*
X100792809Y137215666D01*
X100364238Y136644238D02*
X100459476Y136596619D01*
X100697571Y136596619D01*
X100792809Y136644238D01*
X100840428Y136739476D01*
X100840428Y136834714D01*
X100792809Y136929952D01*
X100697571Y136977571D01*
X100459476Y136977571D01*
X100364238Y137025190D01*
X99745190Y136596619D02*
X99840428Y136644238D01*
X99888047Y136739476D01*
X99888047Y137596619D01*
X99221380Y136596619D02*
X99316619Y136644238D01*
X99364238Y136739476D01*
X99364238Y137596619D01*
X98078523Y136596619D02*
X98078523Y137596619D01*
X97602333Y137263285D02*
X97602333Y136596619D01*
X97602333Y137168047D02*
X97554714Y137215666D01*
X97459476Y137263285D01*
X97316619Y137263285D01*
X97221380Y137215666D01*
X97173761Y137120428D01*
X97173761Y136596619D01*
X96697571Y137263285D02*
X96697571Y136263285D01*
X96697571Y137215666D02*
X96602333Y137263285D01*
X96411857Y137263285D01*
X96316619Y137215666D01*
X96269000Y137168047D01*
X96221380Y137072809D01*
X96221380Y136787095D01*
X96269000Y136691857D01*
X96316619Y136644238D01*
X96411857Y136596619D01*
X96602333Y136596619D01*
X96697571Y136644238D01*
X95364238Y137263285D02*
X95364238Y136596619D01*
X95792809Y137263285D02*
X95792809Y136739476D01*
X95745190Y136644238D01*
X95649952Y136596619D01*
X95507095Y136596619D01*
X95411857Y136644238D01*
X95364238Y136691857D01*
X95030904Y137263285D02*
X94649952Y137263285D01*
X94888047Y137596619D02*
X94888047Y136739476D01*
X94840428Y136644238D01*
X94745190Y136596619D01*
X94649952Y136596619D01*
X40526904Y112429000D02*
X40622142Y112476619D01*
X40765000Y112476619D01*
X40907857Y112429000D01*
X41003095Y112333761D01*
X41050714Y112238523D01*
X41098333Y112048047D01*
X41098333Y111905190D01*
X41050714Y111714714D01*
X41003095Y111619476D01*
X40907857Y111524238D01*
X40765000Y111476619D01*
X40669761Y111476619D01*
X40526904Y111524238D01*
X40479285Y111571857D01*
X40479285Y111905190D01*
X40669761Y111905190D01*
X40050714Y111476619D02*
X40050714Y112476619D01*
X39479285Y111476619D01*
X39479285Y112476619D01*
X39003095Y111476619D02*
X39003095Y112476619D01*
X38765000Y112476619D01*
X38622142Y112429000D01*
X38526904Y112333761D01*
X38479285Y112238523D01*
X38431666Y112048047D01*
X38431666Y111905190D01*
X38479285Y111714714D01*
X38526904Y111619476D01*
X38622142Y111524238D01*
X38765000Y111476619D01*
X39003095Y111476619D01*
X38058380Y98149476D02*
X38058380Y98720904D01*
X38058380Y98435190D02*
X37058380Y98435190D01*
X37201238Y98530428D01*
X37296476Y98625666D01*
X37344095Y98720904D01*
X37153619Y97768523D02*
X37106000Y97720904D01*
X37058380Y97625666D01*
X37058380Y97387571D01*
X37106000Y97292333D01*
X37153619Y97244714D01*
X37248857Y97197095D01*
X37344095Y97197095D01*
X37486952Y97244714D01*
X38058380Y97816142D01*
X38058380Y97197095D01*
X38185380Y102213476D02*
X38185380Y102784904D01*
X38185380Y102499190D02*
X37185380Y102499190D01*
X37328238Y102594428D01*
X37423476Y102689666D01*
X37471095Y102784904D01*
X37185380Y101594428D02*
X37185380Y101499190D01*
X37233000Y101403952D01*
X37280619Y101356333D01*
X37375857Y101308714D01*
X37566333Y101261095D01*
X37804428Y101261095D01*
X37994904Y101308714D01*
X38090142Y101356333D01*
X38137761Y101403952D01*
X38185380Y101499190D01*
X38185380Y101594428D01*
X38137761Y101689666D01*
X38090142Y101737285D01*
X37994904Y101784904D01*
X37804428Y101832523D01*
X37566333Y101832523D01*
X37375857Y101784904D01*
X37280619Y101737285D01*
X37233000Y101689666D01*
X37185380Y101594428D01*
X43900380Y85862285D02*
X43900380Y86433714D01*
X43900380Y86148000D02*
X42900380Y86148000D01*
X43043238Y86243238D01*
X43138476Y86338476D01*
X43186095Y86433714D01*
X37026619Y122374714D02*
X36979000Y122327095D01*
X36931380Y122231857D01*
X36931380Y121993761D01*
X36979000Y121898523D01*
X37026619Y121850904D01*
X37121857Y121803285D01*
X37217095Y121803285D01*
X37359952Y121850904D01*
X37931380Y122422333D01*
X37931380Y121803285D01*
X33121380Y108198333D02*
X33121380Y107531666D01*
X34121380Y107960238D01*
X103534904Y134447619D02*
X104011095Y134447619D01*
X104058714Y133971428D01*
X104011095Y134019047D01*
X103915857Y134066666D01*
X103677761Y134066666D01*
X103582523Y134019047D01*
X103534904Y133971428D01*
X103487285Y133876190D01*
X103487285Y133638095D01*
X103534904Y133542857D01*
X103582523Y133495238D01*
X103677761Y133447619D01*
X103915857Y133447619D01*
X104011095Y133495238D01*
X104058714Y133542857D01*
X140571380Y104653523D02*
X141571380Y104320190D01*
X140571380Y103986857D01*
X141571380Y103605904D02*
X141571380Y103415428D01*
X141523761Y103320190D01*
X141476142Y103272571D01*
X141333285Y103177333D01*
X141142809Y103129714D01*
X140761857Y103129714D01*
X140666619Y103177333D01*
X140619000Y103224952D01*
X140571380Y103320190D01*
X140571380Y103510666D01*
X140619000Y103605904D01*
X140666619Y103653523D01*
X140761857Y103701142D01*
X140999952Y103701142D01*
X141095190Y103653523D01*
X141142809Y103605904D01*
X141190428Y103510666D01*
X141190428Y103320190D01*
X141142809Y103224952D01*
X141095190Y103177333D01*
X140999952Y103129714D01*
X97359523Y140337285D02*
X97359523Y139670619D01*
X97597619Y140718238D02*
X97835714Y140003952D01*
X97216666Y140003952D01*
D16*
X31834476Y115181142D02*
X31834476Y115776380D01*
X30584476Y115776380D01*
X31834476Y114585904D02*
X31774952Y114704952D01*
X31715428Y114764476D01*
X31596380Y114824000D01*
X31239238Y114824000D01*
X31120190Y114764476D01*
X31060666Y114704952D01*
X31001142Y114585904D01*
X31001142Y114407333D01*
X31060666Y114288285D01*
X31120190Y114228761D01*
X31239238Y114169238D01*
X31596380Y114169238D01*
X31715428Y114228761D01*
X31774952Y114288285D01*
X31834476Y114407333D01*
X31834476Y114585904D01*
X31001142Y113752571D02*
X31834476Y113514476D01*
X31239238Y113276380D01*
X31834476Y113038285D01*
X31001142Y112800190D01*
X31774952Y112383523D02*
X31834476Y112264476D01*
X31834476Y112026380D01*
X31774952Y111907333D01*
X31655904Y111847809D01*
X31596380Y111847809D01*
X31477333Y111907333D01*
X31417809Y112026380D01*
X31417809Y112204952D01*
X31358285Y112324000D01*
X31239238Y112383523D01*
X31179714Y112383523D01*
X31060666Y112324000D01*
X31001142Y112204952D01*
X31001142Y112026380D01*
X31060666Y111907333D01*
X31834476Y111312095D02*
X31001142Y111312095D01*
X30584476Y111312095D02*
X30644000Y111371619D01*
X30703523Y111312095D01*
X30644000Y111252571D01*
X30584476Y111312095D01*
X30703523Y111312095D01*
X31834476Y110181142D02*
X30584476Y110181142D01*
X31774952Y110181142D02*
X31834476Y110300190D01*
X31834476Y110538285D01*
X31774952Y110657333D01*
X31715428Y110716857D01*
X31596380Y110776380D01*
X31239238Y110776380D01*
X31120190Y110716857D01*
X31060666Y110657333D01*
X31001142Y110538285D01*
X31001142Y110300190D01*
X31060666Y110181142D01*
X31774952Y109109714D02*
X31834476Y109228761D01*
X31834476Y109466857D01*
X31774952Y109585904D01*
X31655904Y109645428D01*
X31179714Y109645428D01*
X31060666Y109585904D01*
X31001142Y109466857D01*
X31001142Y109228761D01*
X31060666Y109109714D01*
X31179714Y109050190D01*
X31298761Y109050190D01*
X31417809Y109645428D01*
X30524952Y107621619D02*
X32132095Y108693047D01*
X31834476Y107204952D02*
X30584476Y107204952D01*
X31001142Y106609714D02*
X31834476Y106609714D01*
X31120190Y106609714D02*
X31060666Y106550190D01*
X31001142Y106431142D01*
X31001142Y106252571D01*
X31060666Y106133523D01*
X31179714Y106074000D01*
X31834476Y106074000D01*
X31001142Y105478761D02*
X32072571Y105478761D01*
X32191619Y105538285D01*
X32251142Y105657333D01*
X32251142Y105716857D01*
X30584476Y105478761D02*
X30644000Y105538285D01*
X30703523Y105478761D01*
X30644000Y105419238D01*
X30584476Y105478761D01*
X30703523Y105478761D01*
X31774952Y104407333D02*
X31834476Y104526380D01*
X31834476Y104764476D01*
X31774952Y104883523D01*
X31655904Y104943047D01*
X31179714Y104943047D01*
X31060666Y104883523D01*
X31001142Y104764476D01*
X31001142Y104526380D01*
X31060666Y104407333D01*
X31179714Y104347809D01*
X31298761Y104347809D01*
X31417809Y104943047D01*
X31774952Y103276380D02*
X31834476Y103395428D01*
X31834476Y103633523D01*
X31774952Y103752571D01*
X31715428Y103812095D01*
X31596380Y103871619D01*
X31239238Y103871619D01*
X31120190Y103812095D01*
X31060666Y103752571D01*
X31001142Y103633523D01*
X31001142Y103395428D01*
X31060666Y103276380D01*
X31001142Y102919238D02*
X31001142Y102443047D01*
X30584476Y102740666D02*
X31655904Y102740666D01*
X31774952Y102681142D01*
X31834476Y102562095D01*
X31834476Y102443047D01*
X31834476Y101847809D02*
X31774952Y101966857D01*
X31715428Y102026380D01*
X31596380Y102085904D01*
X31239238Y102085904D01*
X31120190Y102026380D01*
X31060666Y101966857D01*
X31001142Y101847809D01*
X31001142Y101669238D01*
X31060666Y101550190D01*
X31120190Y101490666D01*
X31239238Y101431142D01*
X31596380Y101431142D01*
X31715428Y101490666D01*
X31774952Y101550190D01*
X31834476Y101669238D01*
X31834476Y101847809D01*
X31834476Y100895428D02*
X31001142Y100895428D01*
X31239238Y100895428D02*
X31120190Y100835904D01*
X31060666Y100776380D01*
X31001142Y100657333D01*
X31001142Y100538285D01*
X30584476Y98931142D02*
X30584476Y98693047D01*
X30644000Y98574000D01*
X30763047Y98454952D01*
X31001142Y98395428D01*
X31417809Y98395428D01*
X31655904Y98454952D01*
X31774952Y98574000D01*
X31834476Y98693047D01*
X31834476Y98931142D01*
X31774952Y99050190D01*
X31655904Y99169238D01*
X31417809Y99228761D01*
X31001142Y99228761D01*
X30763047Y99169238D01*
X30644000Y99050190D01*
X30584476Y98931142D01*
X31001142Y97324000D02*
X31834476Y97324000D01*
X31001142Y97859714D02*
X31655904Y97859714D01*
X31774952Y97800190D01*
X31834476Y97681142D01*
X31834476Y97502571D01*
X31774952Y97383523D01*
X31715428Y97324000D01*
X31001142Y96907333D02*
X31001142Y96431142D01*
X30584476Y96728761D02*
X31655904Y96728761D01*
X31774952Y96669238D01*
X31834476Y96550190D01*
X31834476Y96431142D01*
X31001142Y96014476D02*
X32251142Y96014476D01*
X31060666Y96014476D02*
X31001142Y95895428D01*
X31001142Y95657333D01*
X31060666Y95538285D01*
X31120190Y95478761D01*
X31239238Y95419238D01*
X31596380Y95419238D01*
X31715428Y95478761D01*
X31774952Y95538285D01*
X31834476Y95657333D01*
X31834476Y95895428D01*
X31774952Y96014476D01*
X31001142Y94347809D02*
X31834476Y94347809D01*
X31001142Y94883523D02*
X31655904Y94883523D01*
X31774952Y94824000D01*
X31834476Y94704952D01*
X31834476Y94526380D01*
X31774952Y94407333D01*
X31715428Y94347809D01*
X31001142Y93931142D02*
X31001142Y93454952D01*
X30584476Y93752571D02*
X31655904Y93752571D01*
X31774952Y93693047D01*
X31834476Y93574000D01*
X31834476Y93454952D01*
X31774952Y93097809D02*
X31834476Y92978761D01*
X31834476Y92740666D01*
X31774952Y92621619D01*
X31655904Y92562095D01*
X31596380Y92562095D01*
X31477333Y92621619D01*
X31417809Y92740666D01*
X31417809Y92919238D01*
X31358285Y93038285D01*
X31239238Y93097809D01*
X31179714Y93097809D01*
X31060666Y93038285D01*
X31001142Y92919238D01*
X31001142Y92740666D01*
X31060666Y92621619D01*
D12*
X132292380Y131963000D02*
X131292380Y131963000D01*
X132292380Y131391571D02*
X131720952Y131820142D01*
X131292380Y131391571D02*
X131863809Y131963000D01*
X131625714Y130963000D02*
X132292380Y130963000D01*
X131720952Y130963000D02*
X131673333Y130915380D01*
X131625714Y130820142D01*
X131625714Y130677285D01*
X131673333Y130582047D01*
X131768571Y130534428D01*
X132292380Y130534428D01*
X132292380Y129915380D02*
X132244761Y130010619D01*
X132197142Y130058238D01*
X132101904Y130105857D01*
X131816190Y130105857D01*
X131720952Y130058238D01*
X131673333Y130010619D01*
X131625714Y129915380D01*
X131625714Y129772523D01*
X131673333Y129677285D01*
X131720952Y129629666D01*
X131816190Y129582047D01*
X132101904Y129582047D01*
X132197142Y129629666D01*
X132244761Y129677285D01*
X132292380Y129772523D01*
X132292380Y129915380D01*
X132244761Y128724904D02*
X132292380Y128820142D01*
X132292380Y129010619D01*
X132244761Y129105857D01*
X132197142Y129153476D01*
X132101904Y129201095D01*
X131816190Y129201095D01*
X131720952Y129153476D01*
X131673333Y129105857D01*
X131625714Y129010619D01*
X131625714Y128820142D01*
X131673333Y128724904D01*
X132292380Y128296333D02*
X131292380Y128296333D01*
X131911428Y128201095D02*
X132292380Y127915380D01*
X131625714Y127915380D02*
X132006666Y128296333D01*
D13*
X45630904Y147094238D02*
X45249952Y147094238D01*
X45059476Y146999000D01*
X44869000Y146808523D01*
X44773761Y146427571D01*
X44773761Y145760904D01*
X44869000Y145379952D01*
X45059476Y145189476D01*
X45249952Y145094238D01*
X45630904Y145094238D01*
X45821380Y145189476D01*
X46011857Y145379952D01*
X46107095Y145760904D01*
X46107095Y146427571D01*
X46011857Y146808523D01*
X45821380Y146999000D01*
X45630904Y147094238D01*
X43916619Y147094238D02*
X43916619Y145475190D01*
X43821380Y145284714D01*
X43726142Y145189476D01*
X43535666Y145094238D01*
X43154714Y145094238D01*
X42964238Y145189476D01*
X42869000Y145284714D01*
X42773761Y145475190D01*
X42773761Y147094238D01*
X42107095Y147094238D02*
X40964238Y147094238D01*
X41535666Y145094238D02*
X41535666Y147094238D01*
X40297571Y145094238D02*
X40297571Y147094238D01*
X39535666Y147094238D01*
X39345190Y146999000D01*
X39249952Y146903761D01*
X39154714Y146713285D01*
X39154714Y146427571D01*
X39249952Y146237095D01*
X39345190Y146141857D01*
X39535666Y146046619D01*
X40297571Y146046619D01*
X38297571Y147094238D02*
X38297571Y145475190D01*
X38202333Y145284714D01*
X38107095Y145189476D01*
X37916619Y145094238D01*
X37535666Y145094238D01*
X37345190Y145189476D01*
X37249952Y145284714D01*
X37154714Y145475190D01*
X37154714Y147094238D01*
X36488047Y147094238D02*
X35345190Y147094238D01*
X35916619Y145094238D02*
X35916619Y147094238D01*
X34773761Y145189476D02*
X34488047Y145094238D01*
X34011857Y145094238D01*
X33821380Y145189476D01*
X33726142Y145284714D01*
X33630904Y145475190D01*
X33630904Y145665666D01*
X33726142Y145856142D01*
X33821380Y145951380D01*
X34011857Y146046619D01*
X34392809Y146141857D01*
X34583285Y146237095D01*
X34678523Y146332333D01*
X34773761Y146522809D01*
X34773761Y146713285D01*
X34678523Y146903761D01*
X34583285Y146999000D01*
X34392809Y147094238D01*
X33916619Y147094238D01*
X33630904Y146999000D01*
D12*
X38058380Y90021476D02*
X38058380Y90592904D01*
X38058380Y90307190D02*
X37058380Y90307190D01*
X37201238Y90402428D01*
X37296476Y90497666D01*
X37344095Y90592904D01*
X37058380Y89164333D02*
X37058380Y89354809D01*
X37106000Y89450047D01*
X37153619Y89497666D01*
X37296476Y89592904D01*
X37486952Y89640523D01*
X37867904Y89640523D01*
X37963142Y89592904D01*
X38010761Y89545285D01*
X38058380Y89450047D01*
X38058380Y89259571D01*
X38010761Y89164333D01*
X37963142Y89116714D01*
X37867904Y89069095D01*
X37629809Y89069095D01*
X37534571Y89116714D01*
X37486952Y89164333D01*
X37439333Y89259571D01*
X37439333Y89450047D01*
X37486952Y89545285D01*
X37534571Y89592904D01*
X37629809Y89640523D01*
X140571380Y88397523D02*
X141571380Y88064190D01*
X140571380Y87730857D01*
X141571380Y86873714D02*
X141571380Y87445142D01*
X141571380Y87159428D02*
X140571380Y87159428D01*
X140714238Y87254666D01*
X140809476Y87349904D01*
X140857095Y87445142D01*
X136753380Y111039904D02*
X136753380Y110468476D01*
X137753380Y110754190D02*
X136753380Y110754190D01*
X136848619Y110182761D02*
X136801000Y110135142D01*
X136753380Y110039904D01*
X136753380Y109801809D01*
X136801000Y109706571D01*
X136848619Y109658952D01*
X136943857Y109611333D01*
X137039095Y109611333D01*
X137181952Y109658952D01*
X137753380Y110230380D01*
X137753380Y109611333D01*
D14*
G04 #@! TO.C,J1*
X146822200Y156806940D02*
G75*
G03*
X146822200Y156806940I-381000J0D01*
G01*
D17*
G04 #@! TO.C,BRD1*
X71769000Y132999000D02*
X71869000Y140749000D01*
X109819000Y128949000D02*
X109819000Y137049000D01*
X41669000Y88699000D02*
X37869000Y87149000D01*
X85719000Y137349000D02*
X85719000Y143999000D01*
X142619000Y125999000D02*
X145419000Y125999000D01*
X138169000Y127799000D02*
X141119000Y127799000D01*
D18*
X123769000Y71549000D02*
X123769000Y148449000D01*
D17*
X141119000Y119899000D02*
X142619000Y117899000D01*
X29869000Y122999000D02*
X29819000Y84999000D01*
X97819000Y126549000D02*
X93869000Y126549000D01*
X142619000Y129949000D02*
X141119000Y127799000D01*
D18*
X59419000Y151049000D02*
X59419000Y118949000D01*
D17*
X37619000Y125349000D02*
X34419000Y126649000D01*
X130819000Y132349000D02*
X134119000Y133999000D01*
X134119000Y136549000D02*
X138869000Y136549000D01*
X109819000Y128949000D02*
X97819000Y128949000D01*
X41619000Y137149000D02*
X40319000Y137149000D01*
X145419000Y114199000D02*
X147669000Y114199000D01*
X147619000Y85149000D02*
X132869000Y85049000D01*
X40319000Y137149000D02*
X33169000Y137149000D01*
X109819000Y141099000D02*
X109819000Y137049000D01*
X94819000Y144049000D02*
X95769000Y141149000D01*
D18*
X59419000Y118949000D02*
X120219000Y118949000D01*
D17*
X83819000Y134799000D02*
X84219000Y132999000D01*
X46819000Y85049000D02*
X46819000Y133449000D01*
D18*
X23769000Y148449000D02*
X55869000Y148449000D01*
D17*
X138819000Y135049000D02*
X142619000Y129949000D01*
X130819000Y127549000D02*
X130819000Y132349000D01*
X77869000Y143999000D02*
X77869000Y137349000D01*
X136919000Y129949000D02*
X138169000Y127799000D01*
X141119000Y127799000D02*
X142619000Y125999000D01*
D18*
X23769000Y71549000D02*
X55869000Y71549000D01*
D17*
X145419000Y132749000D02*
X147669000Y132749000D01*
X91819000Y134099000D02*
X92869000Y132999000D01*
X93869000Y140399000D02*
X95769000Y141149000D01*
X145419000Y117899000D02*
X145419000Y114199000D01*
X133119000Y109899000D02*
X135769000Y109899000D01*
D18*
X23769000Y148449000D02*
X23769000Y71549000D01*
D17*
X132819000Y105799000D02*
X133119000Y109899000D01*
X79769000Y137349000D02*
X79769000Y132999000D01*
X90819000Y132999000D02*
X91819000Y134099000D01*
X136419000Y117899000D02*
X138169000Y119899000D01*
X133119000Y109899000D02*
X134019000Y117899000D01*
X73069000Y127399000D02*
X73019000Y132999000D01*
X71869000Y140749000D02*
X77869000Y140749000D01*
X46819000Y133449000D02*
X41619000Y133449000D01*
X147669000Y137749000D02*
X138869000Y137649000D01*
X142169000Y115999000D02*
X141869000Y85099000D01*
X134019000Y125749000D02*
X130819000Y127549000D01*
X92869000Y132999000D02*
X109819000Y132999000D01*
X137069000Y105849000D02*
X132819000Y105799000D01*
X134019000Y117899000D02*
X136419000Y117899000D01*
X138319000Y107849000D02*
X137069000Y105849000D01*
X91819000Y134099000D02*
X91819000Y135949000D01*
X41669000Y96299000D02*
X37869000Y95449000D01*
X134019000Y117899000D02*
X134019000Y125749000D01*
X41619000Y137149000D02*
X41669000Y96299000D01*
X134119000Y133999000D02*
X137219000Y133999000D01*
X93869000Y126549000D02*
X93869000Y132999000D01*
X37869000Y95449000D02*
X37919000Y92249000D01*
X138169000Y119899000D02*
X141119000Y119899000D01*
X137219000Y133999000D02*
X138319000Y131849000D01*
X41619000Y129849000D02*
X46819000Y129849000D01*
X77869000Y132899000D02*
X77869000Y127449000D01*
X85719000Y132999000D02*
X85719000Y129199000D01*
X93869000Y129199000D02*
X77869000Y129199000D01*
X134119000Y133999000D02*
X134119000Y136549000D01*
X84219000Y132999000D02*
X90819000Y132999000D01*
X145419000Y125999000D02*
X145419000Y132749000D01*
X138319000Y131849000D02*
X136919000Y129949000D01*
X83869000Y137349000D02*
X83819000Y134799000D01*
X77869000Y127449000D02*
X73069000Y127399000D01*
X139319000Y131249000D02*
X138069000Y134549000D01*
X41669000Y123349000D02*
X37619000Y124249000D01*
D18*
X155869000Y148449000D02*
X123769000Y148449000D01*
D17*
X132869000Y85049000D02*
X132819000Y105799000D01*
X97819000Y132949000D02*
X97819000Y126549000D01*
X37619000Y124249000D02*
X37619000Y125349000D01*
X136819000Y125799000D02*
X134019000Y125749000D01*
X37869000Y87149000D02*
X37819000Y85049000D01*
X37819000Y85049000D02*
X46819000Y85049000D01*
X37769000Y108599000D02*
X37769000Y115499000D01*
X84219000Y132999000D02*
X71769000Y132999000D01*
D18*
X55869000Y148449000D02*
X55869000Y71549000D01*
D17*
X142619000Y117899000D02*
X145419000Y117899000D01*
D18*
X120219000Y118949000D02*
X120219000Y151049000D01*
X155869000Y71549000D02*
X155869000Y148449000D01*
D17*
X147669000Y137749000D02*
X147619000Y85149000D01*
X37919000Y92249000D02*
X41669000Y91349000D01*
X33219000Y128049000D02*
X29869000Y122999000D01*
X93869000Y137849000D02*
X93869000Y140399000D01*
X138169000Y127799000D02*
X136819000Y125799000D01*
X142619000Y117899000D02*
X142169000Y115999000D01*
D18*
X155869000Y71549000D02*
X123769000Y71549000D01*
D17*
X91819000Y135949000D02*
X93869000Y137849000D01*
X29819000Y84999000D02*
X37819000Y85049000D01*
X77869000Y137349000D02*
X85719000Y137349000D01*
X34419000Y126649000D02*
X33219000Y128049000D01*
X138869000Y137649000D02*
X138819000Y135049000D01*
X33169000Y137149000D02*
X33219000Y128049000D01*
X41669000Y91349000D02*
X41669000Y88699000D01*
X41669000Y107349000D02*
X37769000Y108599000D01*
X77969000Y143999000D02*
X94819000Y144049000D01*
X135769000Y109899000D02*
X138319000Y107849000D01*
X37769000Y115499000D02*
X41619000Y116499000D01*
X95769000Y141149000D02*
X109819000Y141099000D01*
D18*
X120219000Y151049000D02*
X59419000Y151049000D01*
D16*
G04 #@! TO.C,M3*
X139882000Y49833000D02*
X100732000Y49833000D01*
X100732000Y49833000D02*
X100732000Y34933000D01*
X100732000Y34933000D02*
X139882000Y34933000D01*
X139882000Y34933000D02*
X139882000Y49833000D01*
G04 #@! TO.C,M2*
X92507668Y47810501D02*
X92232662Y47535497D01*
X91351460Y36635501D02*
X98244337Y36635501D01*
X92507668Y47810501D02*
X98205490Y47810501D01*
X98205490Y47810501D02*
X98244337Y36635501D01*
X91407663Y47535497D02*
X91357663Y47479295D01*
X91407663Y47535497D02*
X92232662Y47535497D01*
X91357663Y47479295D02*
X91357663Y36635501D01*
G04 #@! TO.C,M1*
X40792000Y34683000D02*
X79942000Y34683000D01*
X79942000Y34683000D02*
X79942000Y49583000D01*
X79942000Y49583000D02*
X40792000Y49583000D01*
X40792000Y49583000D02*
X40792000Y34683000D01*
G04 #@! TO.C,M4*
X88800337Y36910502D02*
X87975338Y36910502D01*
X87700332Y36635498D02*
X82002510Y36635498D01*
X87700332Y36635498D02*
X87975338Y36910502D01*
X82002510Y36635498D02*
X81963663Y47810498D01*
X88800337Y36910502D02*
X88850337Y36966704D01*
X88856540Y47810498D02*
X81963663Y47810498D01*
X88850337Y36966704D02*
X88850337Y47810498D01*
G04 #@! TD*
M02*
