M48
; DRILL file {KiCad (6.0.5)} date Thu May 26 18:31:37 2022
; FORMAT={2:4/ absolute / inch / suppress leading zeros}
; #@! TF.CreationDate,2022-05-26T18:31:37+03:00
; #@! TF.GenerationSoftware,Kicad,Pcbnew,(6.0.5)
; #@! TF.FileFunction,MixedPlating,1,2
FMAT,2
INCH,TZ
; #@! TA.AperFunction,Plated,PTH,ComponentDrill
T1C0.0118
; #@! TA.AperFunction,Plated,PTH,ViaDrill
T2C0.0118
; #@! TA.AperFunction,Plated,PTH,ComponentDrill
T3C0.0118
; #@! TA.AperFunction,Plated,PTH,ViaDrill
T4C0.0171
; #@! TA.AperFunction,Plated,PTH,ViaDrill
T5C0.0197
; #@! TA.AperFunction,Plated,PTH,ComponentDrill
T6C0.0374
; #@! TA.AperFunction,Plated,PTH,ComponentDrill
T7C0.0380
; #@! TA.AperFunction,Plated,PTH,ComponentDrill
T8C0.0394
; #@! TA.AperFunction,Plated,PTH,ComponentDrill
T9C0.0450
; #@! TA.AperFunction,Plated,PTH,ViaDrill
T10C0.0467
; #@! TA.AperFunction,Plated,PTH,ViaDrill
T11C0.0551
; #@! TA.AperFunction,Plated,PTH,ComponentDrill
T12C0.0689
; #@! TA.AperFunction,NonPlated,NPTH,ComponentDrill
T13C0.0787
; #@! TA.AperFunction,NonPlated,NPTH,ComponentDrill
T14C0.1673
%
G90
G05
T1
X62455Y-74020
X63852Y-73990
X64148Y-74453
X64354Y-74108
X66346Y-75693
X66552Y-75349
X66848Y-75811
X68245Y-75782
T2
X38650Y-33600
X38650Y-36242
X38650Y-38980
X38650Y-42749
X38650Y-47036
X38650Y-51113
X38858Y-57148
X39282Y-67466
X39376Y-64356
X39648Y-30778
X39847Y-60587
X40000Y-72500
X40000Y-77500
X40000Y-82500
X40200Y-57300
X41740Y-34984
X42054Y-54096
X42139Y-26378
X42398Y-52870
X42439Y-67136
X42486Y-60304
X42686Y-51625
X42774Y-30733
X42858Y-50151
X42991Y-28533
X43004Y-63932
X43647Y-34686
X45000Y-80000
X45265Y-59079
X45488Y-25659
X45972Y-67466
X46255Y-64780
X46359Y-31629
X47244Y-61435
X47394Y-33077
X47500Y-70000
X47715Y-30066
X47765Y-48129
X47804Y-46597
X48910Y-31008
X49117Y-33146
X49148Y-42507
X49364Y-63320
X49724Y-57143
X49731Y-26065
X49740Y-45403
X49977Y-67277
X50000Y-82500
X50045Y-47861
X50313Y-49221
X50389Y-52189
X50485Y-50542
X51013Y-64922
X51077Y-67850
X51340Y-34265
X51417Y-26072
X51688Y-54090
X51728Y-29100
X52396Y-59406
X52500Y-70000
X52600Y-66400
X52950Y-41600
X53677Y-40906
X53678Y-57061
X53951Y-54717
X54124Y-48806
X54255Y-45632
X54332Y-62596
X54400Y-33100
X54622Y-51587
X55000Y-80000
X55873Y-36756
X55937Y-42017
X56243Y-40887
X56333Y-26405
X56385Y-35165
X56889Y-68067
X57700Y-57625
X57834Y-53601
X57968Y-45418
X58025Y-26453
X58085Y-40340
X58236Y-50784
X58236Y-61850
X58410Y-68031
X58572Y-47430
X58636Y-63578
X58763Y-33788
X58852Y-33439
X59108Y-55277
X59175Y-59033
X59578Y-44948
X59669Y-26453
X59779Y-52930
X60000Y-82500
X60114Y-48771
X60220Y-31757
X60450Y-42500
X60651Y-62119
X60954Y-68031
X61188Y-59168
X61590Y-54338
X61657Y-50716
X61724Y-56887
X61750Y-75300
X61992Y-45284
X62060Y-47363
X62151Y-31517
X62215Y-33720
X62500Y-70000
X62797Y-60777
X62999Y-56619
X63075Y-68031
X63216Y-66052
X63401Y-47095
X63535Y-50918
X63751Y-25520
X64096Y-29017
X64114Y-64422
X64521Y-27512
X64672Y-33943
X64959Y-65770
X65000Y-80000
X65024Y-73600
X65315Y-72913
X65582Y-30528
X65602Y-73600
X65670Y-62936
X66420Y-67607
X66452Y-25738
X66452Y-28984
X66553Y-57491
X66687Y-60442
X66755Y-53533
X66956Y-49845
X67157Y-45954
X67417Y-32890
X67500Y-70000
X67531Y-27381
X67550Y-65487
X67600Y-38931
X68163Y-62320
X68412Y-37452
X68681Y-67183
X68950Y-74400
X69077Y-30400
X69941Y-32894
X70000Y-82500
X70015Y-31860
X70035Y-39311
X70175Y-57088
X70237Y-32894
X70295Y-31600
X70444Y-47430
X70533Y-32894
X70552Y-26374
X70712Y-43741
X70781Y-37766
X70895Y-67466
X70913Y-52125
X70913Y-62722
X70960Y-29953
X71010Y-32894
X71118Y-34453
X71246Y-33130
X71524Y-41518
X71706Y-31434
X71771Y-41295
X71785Y-60308
X72009Y-41009
X72306Y-26390
X72460Y-34231
X72500Y-31902
X72729Y-40927
X72813Y-37332
X73088Y-35605
X73261Y-41930
X73350Y-67550
X73797Y-63863
X73875Y-26297
X74132Y-39650
X74200Y-47967
X74602Y-53332
X74620Y-35369
X75000Y-70000
X75000Y-80000
X75340Y-63728
X75407Y-43339
X75552Y-26343
X75675Y-56418
X75809Y-59369
X76548Y-46223
X76936Y-33406
X76949Y-37772
X77244Y-26374
X77413Y-33546
X77687Y-61515
X77708Y-33570
X77950Y-39900
X78004Y-33570
X78090Y-53265
X78291Y-36967
X78300Y-33570
X78339Y-67701
X78569Y-33750
X78828Y-45149
X78859Y-26281
X78895Y-50448
X79235Y-64733
X79588Y-31825
X79834Y-55948
X80000Y-70000
X80000Y-82500
X80236Y-63661
X80324Y-33041
X80706Y-58631
X81510Y-66344
X82166Y-26390
X82647Y-33238
X82662Y-31944
X82718Y-60308
X83399Y-30129
X84185Y-25254
X84327Y-58966
X84536Y-34591
X84768Y-38048
X84931Y-61515
X85000Y-57350
X85000Y-70000
X85000Y-80000
X85602Y-66411
X87279Y-59100
X87326Y-25254
X87489Y-28592
X87875Y-34287
X88553Y-39717
X88620Y-55613
X88821Y-49979
X88955Y-45351
X89224Y-66478
X90000Y-82500
X90296Y-36741
X90373Y-32092
X90565Y-62655
X90968Y-42735
X91035Y-52460
X91102Y-56887
X91169Y-48503
X91348Y-30887
T3
X46113Y-72613
X46113Y-73007
X46113Y-73401
X46113Y-73794
X61172Y-74228
X61172Y-74621
X61172Y-76019
X61172Y-76413
X69711Y-73361
X69711Y-73755
X69711Y-75153
X69711Y-75546
X84770Y-75980
X84770Y-76373
X84770Y-76767
X84770Y-77161
T4
X51700Y-33650
X54872Y-36211
X57608Y-33296
X71394Y-30411
X74865Y-32201
X75143Y-32580
X85510Y-48819
T5
X57045Y-35553
X57378Y-38004
X57458Y-38500
X57460Y-35735
X57640Y-36152
X57713Y-38875
X57736Y-36673
X59024Y-35326
X59050Y-37289
X59399Y-35599
T6
X42300Y-70318
X42300Y-71302
X42300Y-72286
X42300Y-73270
X42300Y-74255
X42300Y-75239
X42300Y-76223
X42300Y-77207
X42300Y-78192
X42300Y-79176
X88200Y-70318
X88200Y-71302
X88200Y-72286
X88200Y-73270
X88200Y-74255
X88200Y-75239
X88200Y-76223
X88200Y-77207
X88200Y-78192
X88200Y-79176
T7
X54261Y-65634
X54261Y-66634
X55261Y-65634
X55261Y-66634
X56261Y-65634
X56261Y-66634
X57261Y-65634
X57261Y-66634
X58261Y-65634
X58261Y-66634
X59261Y-65634
X59261Y-66634
X60261Y-65634
X60261Y-66634
X61261Y-65634
X61261Y-66634
X69303Y-65634
X69303Y-66634
X70303Y-65634
X70303Y-66634
X71303Y-65634
X71303Y-66634
X72303Y-65634
X72303Y-66634
X73303Y-65634
X73303Y-66634
X74303Y-65634
X74303Y-66634
X75303Y-65634
X75303Y-66634
X76303Y-65634
X76303Y-66634
T8
X55700Y-70600
X56700Y-70600
X57700Y-70600
X58700Y-70600
X59700Y-70600
X60700Y-70600
X70350Y-79050
X71350Y-79050
X72350Y-79050
X73350Y-79050
X74350Y-79050
X75350Y-79050
T9
X46127Y-28430
X46684Y-27239
X47242Y-26048
X47777Y-28430
X48334Y-27239
X48892Y-26048
X49427Y-28430
X49984Y-27239
X50541Y-26048
X51076Y-28430
X51634Y-27239
X52191Y-26048
X52726Y-28430
X53284Y-27239
X53841Y-26048
X54376Y-28430
X54934Y-27239
X55491Y-26048
X56026Y-28430
X56584Y-27239
X57141Y-26048
X57676Y-28430
X58234Y-27239
X58791Y-26048
X59326Y-28430
X59884Y-27239
X60441Y-26048
X60976Y-28430
X61533Y-27239
X62091Y-26048
X68615Y-28430
X69173Y-27239
X69730Y-26048
X70265Y-28430
X70823Y-27239
X71380Y-26048
X71915Y-28430
X72473Y-27239
X73030Y-26048
X73565Y-28430
X74123Y-27239
X74680Y-26048
X75215Y-28430
X75773Y-27239
X76330Y-26048
X76865Y-28430
X77422Y-27239
X77980Y-26048
X78515Y-28430
X79072Y-27239
X79630Y-26048
X80165Y-28430
X80722Y-27239
X81280Y-26048
X81815Y-28430
X82372Y-27239
X82930Y-26048
X83465Y-28430
X84022Y-27239
X84580Y-26048
X85530Y-30539
X86530Y-30539
X87530Y-30539
T10
X49867Y-35656
X51931Y-35328
X53566Y-36734
X59662Y-42206
X60706Y-44306
T11
X69789Y-41630
X78350Y-42200
X80350Y-40250
T12
X43978Y-39556
X43978Y-41131
X43978Y-42706
X43978Y-44280
X43978Y-45855
X43978Y-47430
X43978Y-49005
X43978Y-50580
X43978Y-52154
X43978Y-53729
X43978Y-55304
X43978Y-56879
X45553Y-40343
X45553Y-41918
X45553Y-43493
X45553Y-45068
X45553Y-46643
X45553Y-48217
X45553Y-49792
X45553Y-51367
X45553Y-52942
X45553Y-54517
X45553Y-56091
X47128Y-39556
X47128Y-41131
X47128Y-42706
X47128Y-44280
X47128Y-45855
X47128Y-47430
X47128Y-49005
X47128Y-50580
X47128Y-52154
X47128Y-53729
X47128Y-55304
X47128Y-56879
X59726Y-36800
X59726Y-39950
X60513Y-38375
X61301Y-36800
X61301Y-39950
X62088Y-38375
X62876Y-36800
X62876Y-39950
X63663Y-38375
X64450Y-36800
X64450Y-39950
X65238Y-38375
X66025Y-36800
X66025Y-39950
X66813Y-38375
X67600Y-36800
X67600Y-39950
X68387Y-38375
X69175Y-36800
X69175Y-39950
X69962Y-38375
X70750Y-36800
X70750Y-39950
X83348Y-39556
X83348Y-41131
X83348Y-42706
X83348Y-44280
X83348Y-45855
X83348Y-47430
X83348Y-49005
X83348Y-50580
X83348Y-52154
X83348Y-53729
X83348Y-55304
X83348Y-56879
X84923Y-40343
X84923Y-41918
X84923Y-43493
X84923Y-45068
X84923Y-46643
X84923Y-48217
X84923Y-49792
X84923Y-51367
X84923Y-52942
X84923Y-54517
X84923Y-56091
X86498Y-39556
X86498Y-41131
X86498Y-42706
X86498Y-44280
X86498Y-45855
X86498Y-47430
X86498Y-49005
X86498Y-50580
X86498Y-52154
X86498Y-53729
X86498Y-55304
X86498Y-56879
T13
X41301Y-35737
X41301Y-60698
X48427Y-35146
X48427Y-61288
X55317Y-41249
X55907Y-34123
X74569Y-34123
X75159Y-41249
X82049Y-35146
X82049Y-61288
X89175Y-35737
X89175Y-60698
T14
X44239Y-26658
X65350Y-32422
X86461Y-26658
T0
M30
