G04 #@! TF.GenerationSoftware,KiCad,Pcbnew,(6.0.1)*
G04 #@! TF.CreationDate,2022-06-06T17:45:22+03:00*
G04 #@! TF.ProjectId,5.0mustangProteusPnP,352e306d-7573-4746-916e-6750726f7465,R0.1*
G04 #@! TF.SameCoordinates,Original*
G04 #@! TF.FileFunction,Soldermask,Top*
G04 #@! TF.FilePolarity,Negative*
%FSLAX46Y46*%
G04 Gerber Fmt 4.6, Leading zero omitted, Abs format (unit mm)*
G04 Created by KiCad (PCBNEW (6.0.1)) date 2022-06-06 17:45:22*
%MOMM*%
%LPD*%
G01*
G04 APERTURE LIST*
G04 #@! TA.AperFunction,Profile*
%ADD10C,0.200000*%
G04 #@! TD*
%ADD11C,4.250152*%
%ADD12C,1.714652*%
%ADD13C,1.524152*%
%ADD14C,1.651152*%
%ADD15C,2.000152*%
%ADD16C,2.400152*%
%ADD17O,1.700152X1.700152*%
%ADD18O,0.250152X0.500151*%
%ADD19O,0.500151X0.250152*%
%ADD20C,0.600151*%
%ADD21O,1.950152X1.700152*%
G04 APERTURE END LIST*
D10*
X20000000Y21270000D02*
X20000000Y157844000D01*
X148521100Y169606000D02*
X31753100Y169606000D01*
X31753100Y169606000D02*
X20000000Y157844000D01*
X159700000Y21270000D02*
X159700000Y157844000D01*
X158430000Y20000000D02*
G75*
G03*
X159700000Y21270000I1J1269999D01*
G01*
X28350250Y158493500D02*
G75*
G03*
X28350250Y158493500I-2381250J0D01*
G01*
X148521100Y169606000D02*
X159700000Y157844000D01*
X20000000Y21270000D02*
G75*
G03*
X21270000Y20000000I1269999J-1D01*
G01*
X158430000Y20000000D02*
X21270000Y20000000D01*
X155992750Y158493500D02*
G75*
G03*
X155992750Y158493500I-2381250J0D01*
G01*
D11*
G04 #@! TO.C,U1*
X143724800Y164758800D03*
X36481800Y164758800D03*
X90104000Y150118800D03*
D12*
X138947200Y166308800D03*
X134756400Y166308800D03*
X130565600Y166308800D03*
X126374800Y166308800D03*
X122184000Y166308800D03*
X117993200Y166308800D03*
X113802400Y166308800D03*
X109611600Y166308800D03*
X105420800Y166308800D03*
X101230000Y166308800D03*
X81826000Y166308800D03*
X77635200Y166308800D03*
X73444400Y166308800D03*
X69253600Y166308800D03*
X65062800Y166308800D03*
X60872000Y166308800D03*
X56681200Y166308800D03*
X52490400Y166308800D03*
X48299600Y166308800D03*
X44108800Y166308800D03*
X137531200Y163283800D03*
X133340400Y163283800D03*
X129149600Y163283800D03*
X124958800Y163283800D03*
X120768000Y163283800D03*
X116577200Y163283800D03*
X112386400Y163283800D03*
X108195600Y163283800D03*
X104004800Y163283800D03*
X99814000Y163283800D03*
X80410000Y163283800D03*
X76219200Y163283800D03*
X72028400Y163283800D03*
X67837600Y163283800D03*
X63646800Y163283800D03*
X59456000Y163283800D03*
X55265200Y163283800D03*
X51074400Y163283800D03*
X46883600Y163283800D03*
X42692800Y163283800D03*
X136115200Y160258800D03*
X131924400Y160258800D03*
X127733600Y160258800D03*
X123542800Y160258800D03*
X119352000Y160258800D03*
X115161200Y160258800D03*
X110970400Y160258800D03*
X106779600Y160258800D03*
X102588800Y160258800D03*
X98398000Y160258800D03*
X78994000Y160258800D03*
X74803200Y160258800D03*
X70612400Y160258800D03*
X66421600Y160258800D03*
X62230800Y160258800D03*
X58040000Y160258800D03*
X53849200Y160258800D03*
X49658400Y160258800D03*
X45467600Y160258800D03*
X41276800Y160258800D03*
G04 #@! TD*
G04 #@! TO.C,J2*
G36*
G01*
X99382924Y62458640D02*
X99382924Y63982640D01*
G75*
G02*
X99383000Y63982716I76J0D01*
G01*
X100907000Y63982716D01*
G75*
G02*
X100907076Y63982640I0J-76D01*
G01*
X100907076Y62458640D01*
G75*
G02*
X100907000Y62458564I-76J0D01*
G01*
X99383000Y62458564D01*
G75*
G02*
X99382924Y62458640I0J76D01*
G01*
G37*
D13*
X100145000Y65760640D03*
X102685000Y63220640D03*
X102685000Y65760640D03*
X105225000Y63220640D03*
X105225000Y65760640D03*
X107765000Y63220640D03*
X107765000Y65760640D03*
X110305000Y63220640D03*
X110305000Y65760640D03*
X112845000Y63220640D03*
X112845000Y65760640D03*
X115385000Y63220640D03*
X115385000Y65760640D03*
X117925000Y63220640D03*
X117925000Y65760640D03*
G04 #@! TD*
G04 #@! TO.C,J4*
G36*
G01*
X61176334Y62458640D02*
X61176334Y63982640D01*
G75*
G02*
X61176410Y63982716I76J0D01*
G01*
X62700410Y63982716D01*
G75*
G02*
X62700486Y63982640I0J-76D01*
G01*
X62700486Y62458640D01*
G75*
G02*
X62700410Y62458564I-76J0D01*
G01*
X61176410Y62458564D01*
G75*
G02*
X61176334Y62458640I0J76D01*
G01*
G37*
X61938410Y65760640D03*
X64478410Y63220640D03*
X64478410Y65760640D03*
X67018410Y63220640D03*
X67018410Y65760640D03*
X69558410Y63220640D03*
X69558410Y65760640D03*
X72098410Y63220640D03*
X72098410Y65760640D03*
X74638410Y63220640D03*
X74638410Y65760640D03*
X77178410Y63220640D03*
X77178410Y65760640D03*
X79718410Y63220640D03*
X79718410Y65760640D03*
G04 #@! TD*
D14*
G04 #@! TO.C,J1*
X146441200Y154901940D03*
X143901200Y154901940D03*
X141361200Y154901940D03*
G04 #@! TD*
D15*
G04 #@! TO.C,BRD1*
X29019000Y78299000D03*
X47119000Y143199000D03*
X47119000Y76799000D03*
X66119000Y145799000D03*
X115019000Y127699000D03*
X150619000Y141699000D03*
X64619000Y127699000D03*
X132519000Y143199000D03*
X113519000Y145799000D03*
X150619000Y78299000D03*
X132519000Y76799000D03*
X29019000Y141699000D03*
D16*
X35819000Y131999000D03*
X35819000Y127999000D03*
X35819000Y123999000D03*
X35819000Y119999000D03*
X35819000Y115999000D03*
X35819000Y111999000D03*
X35819000Y107999000D03*
X35819000Y103999000D03*
X35819000Y99999000D03*
X35819000Y95999000D03*
X35819000Y91999000D03*
X35819000Y87999000D03*
X39819000Y129999000D03*
X39819000Y125999000D03*
X39819000Y121999000D03*
X39819000Y117999000D03*
X39819000Y113999000D03*
X39819000Y109999000D03*
X39819000Y105999000D03*
X39819000Y101999000D03*
X39819000Y97999000D03*
X39819000Y93999000D03*
X39819000Y89999000D03*
X43819000Y131999000D03*
X43819000Y127999000D03*
X43819000Y123999000D03*
X43819000Y119999000D03*
X43819000Y115999000D03*
X43819000Y111999000D03*
X43819000Y107999000D03*
X43819000Y103999000D03*
X43819000Y99999000D03*
X43819000Y95999000D03*
X43819000Y91999000D03*
X43819000Y87999000D03*
X103819000Y138999000D03*
X99819000Y138999000D03*
X95819000Y138999000D03*
X91819000Y138999000D03*
X87819000Y138999000D03*
X83819000Y138999000D03*
X79819000Y138999000D03*
X75819000Y138999000D03*
X101819000Y134999000D03*
X97819000Y134999000D03*
X93819000Y134999000D03*
X89819000Y134999000D03*
X85819000Y134999000D03*
X81819000Y134999000D03*
X77819000Y134999000D03*
X103819000Y130999000D03*
X99819000Y130999000D03*
X95819000Y130999000D03*
X91819000Y130999000D03*
X87819000Y130999000D03*
X83819000Y130999000D03*
X79819000Y130999000D03*
X75819000Y130999000D03*
X143819000Y87999000D03*
X143819000Y91999000D03*
X143819000Y95999000D03*
X143819000Y99999000D03*
X143819000Y103999000D03*
X143819000Y107999000D03*
X143819000Y111999000D03*
X143819000Y115999000D03*
X143819000Y119999000D03*
X143819000Y123999000D03*
X143819000Y127999000D03*
X143819000Y131999000D03*
X139819000Y89999000D03*
X139819000Y93999000D03*
X139819000Y97999000D03*
X139819000Y101999000D03*
X139819000Y105999000D03*
X139819000Y109999000D03*
X139819000Y113999000D03*
X139819000Y117999000D03*
X139819000Y121999000D03*
X139819000Y125999000D03*
X139819000Y129999000D03*
X135819000Y87999000D03*
X135819000Y91999000D03*
X135819000Y95999000D03*
X135819000Y99999000D03*
X135819000Y103999000D03*
X135819000Y107999000D03*
X135819000Y111999000D03*
X135819000Y115999000D03*
X135819000Y119999000D03*
X135819000Y123999000D03*
X135819000Y127999000D03*
X135819000Y131999000D03*
G04 #@! TD*
G04 #@! TO.C,J13*
G36*
G01*
X66443000Y52296924D02*
X64743000Y52296924D01*
G75*
G02*
X64742924Y52297000I0J76D01*
G01*
X64742924Y53997000D01*
G75*
G02*
X64743000Y53997076I76J0D01*
G01*
X66443000Y53997076D01*
G75*
G02*
X66443076Y53997000I0J-76D01*
G01*
X66443076Y52297000D01*
G75*
G02*
X66443000Y52296924I-76J0D01*
G01*
G37*
D17*
X68133000Y53147000D03*
X70673000Y53147000D03*
X73213000Y53147000D03*
X75753000Y53147000D03*
X78293000Y53147000D03*
G04 #@! TD*
D18*
G04 #@! TO.C,M2*
X91532666Y36910505D03*
D19*
X91582664Y47260499D03*
X91582664Y46760498D03*
D20*
X92632662Y40210501D03*
X93157662Y41085503D03*
X93907660Y39910499D03*
X97457661Y39985502D03*
G04 #@! TD*
G04 #@! TO.C,J7*
G36*
G01*
X30832000Y54714076D02*
X32282000Y54714076D01*
G75*
G02*
X32532076Y54464000I0J-250076D01*
G01*
X32532076Y53264000D01*
G75*
G02*
X32282000Y53013924I-250076J0D01*
G01*
X30832000Y53013924D01*
G75*
G02*
X30581924Y53264000I0J250076D01*
G01*
X30581924Y54464000D01*
G75*
G02*
X30832000Y54714076I250076J0D01*
G01*
G37*
D21*
X31557000Y51364000D03*
X31557000Y48864000D03*
X31557000Y46364000D03*
X31557000Y43864000D03*
X31557000Y41364000D03*
X31557000Y38864000D03*
X31557000Y36364000D03*
X31557000Y33864000D03*
X31557000Y31364000D03*
G04 #@! TD*
D18*
G04 #@! TO.C,M4*
X88675334Y47535494D03*
D19*
X88625336Y37185500D03*
X88625336Y37685501D03*
D20*
X87575338Y44235498D03*
X87050338Y43360496D03*
X86300340Y44535500D03*
X82750339Y44460497D03*
G04 #@! TD*
G04 #@! TO.C,J3*
G36*
G01*
X114654000Y32534076D02*
X116354000Y32534076D01*
G75*
G02*
X116354076Y32534000I0J-76D01*
G01*
X116354076Y30834000D01*
G75*
G02*
X116354000Y30833924I-76J0D01*
G01*
X114654000Y30833924D01*
G75*
G02*
X114653924Y30834000I0J76D01*
G01*
X114653924Y32534000D01*
G75*
G02*
X114654000Y32534076I76J0D01*
G01*
G37*
D17*
X112964000Y31684000D03*
X110424000Y31684000D03*
X107884000Y31684000D03*
X105344000Y31684000D03*
X102804000Y31684000D03*
G04 #@! TD*
G04 #@! TO.C,J10*
G36*
G01*
X148868000Y30513924D02*
X147418000Y30513924D01*
G75*
G02*
X147167924Y30764000I0J250076D01*
G01*
X147167924Y31964000D01*
G75*
G02*
X147418000Y32214076I250076J0D01*
G01*
X148868000Y32214076D01*
G75*
G02*
X149118076Y31964000I0J-250076D01*
G01*
X149118076Y30764000D01*
G75*
G02*
X148868000Y30513924I-250076J0D01*
G01*
G37*
D21*
X148143000Y33864000D03*
X148143000Y36364000D03*
X148143000Y38864000D03*
X148143000Y41364000D03*
X148143000Y43864000D03*
X148143000Y46364000D03*
X148143000Y48864000D03*
X148143000Y51364000D03*
X148143000Y53864000D03*
G04 #@! TD*
M02*
