G04 #@! TF.GenerationSoftware,KiCad,Pcbnew,(6.0.1)*
G04 #@! TF.CreationDate,2022-06-06T18:05:19+03:00*
G04 #@! TF.ProjectId,5.0mustangProteusPnP,352e306d-7573-4746-916e-6750726f7465,R0.1*
G04 #@! TF.SameCoordinates,Original*
G04 #@! TF.FileFunction,Legend,Top*
G04 #@! TF.FilePolarity,Positive*
%FSLAX46Y46*%
G04 Gerber Fmt 4.6, Leading zero omitted, Abs format (unit mm)*
G04 Created by KiCad (PCBNEW (6.0.1)) date 2022-06-06 18:05:19*
%MOMM*%
%LPD*%
G01*
G04 APERTURE LIST*
G04 #@! TA.AperFunction,Profile*
%ADD10C,0.200000*%
G04 #@! TD*
%ADD11C,0.130000*%
%ADD12C,0.150000*%
%ADD13C,0.200000*%
%ADD14C,0.139700*%
%ADD15C,0.300000*%
%ADD16C,0.152400*%
%ADD17C,0.127000*%
%ADD18C,0.120000*%
%ADD19C,0.500000*%
%ADD20C,0.100000*%
G04 APERTURE END LIST*
D10*
X20000000Y21270000D02*
X20000000Y157844000D01*
X148521100Y169606000D02*
X31753100Y169606000D01*
X31753100Y169606000D02*
X20000000Y157844000D01*
X159700000Y21270000D02*
X159700000Y157844000D01*
X158430000Y20000000D02*
G75*
G03*
X159700000Y21270000I1J1269999D01*
G01*
X28350250Y158493500D02*
G75*
G03*
X28350250Y158493500I-2381250J0D01*
G01*
X148521100Y169606000D02*
X159700000Y157844000D01*
X20000000Y21270000D02*
G75*
G03*
X21270000Y20000000I1269999J-1D01*
G01*
X158430000Y20000000D02*
X21270000Y20000000D01*
X155992750Y158493500D02*
G75*
G03*
X155992750Y158493500I-2381250J0D01*
G01*
D11*
X214986204Y-68780780D02*
X215034585Y-68732400D01*
X215131347Y-68684019D01*
X215373252Y-68684019D01*
X215470014Y-68732400D01*
X215518395Y-68780780D01*
X215566776Y-68877542D01*
X215566776Y-68974304D01*
X215518395Y-69119447D01*
X214937823Y-69700019D01*
X215566776Y-69700019D01*
X216534395Y-69700019D02*
X215953823Y-69700019D01*
X216244109Y-69700019D02*
X216244109Y-68684019D01*
X216147347Y-68829161D01*
X216050585Y-68925923D01*
X215953823Y-68974304D01*
X183511613Y-96265879D02*
X183511613Y-96991593D01*
X183463232Y-97136736D01*
X183366470Y-97233498D01*
X183221327Y-97281879D01*
X183124565Y-97281879D01*
X183898660Y-96265879D02*
X184527613Y-96265879D01*
X184188946Y-96652926D01*
X184334089Y-96652926D01*
X184430851Y-96701307D01*
X184479232Y-96749688D01*
X184527613Y-96846450D01*
X184527613Y-97088355D01*
X184479232Y-97185117D01*
X184430851Y-97233498D01*
X184334089Y-97281879D01*
X184043803Y-97281879D01*
X183947041Y-97233498D01*
X183898660Y-97185117D01*
X224324333Y-120487319D02*
X224324333Y-121213033D01*
X224275952Y-121358176D01*
X224179190Y-121454938D01*
X224034047Y-121503319D01*
X223937285Y-121503319D01*
X225291952Y-120487319D02*
X224808142Y-120487319D01*
X224759761Y-120971128D01*
X224808142Y-120922747D01*
X224904904Y-120874366D01*
X225146809Y-120874366D01*
X225243571Y-120922747D01*
X225291952Y-120971128D01*
X225340333Y-121067890D01*
X225340333Y-121309795D01*
X225291952Y-121406557D01*
X225243571Y-121454938D01*
X225146809Y-121503319D01*
X224904904Y-121503319D01*
X224808142Y-121454938D01*
X224759761Y-121406557D01*
X115140014Y-71859019D02*
X114946490Y-71859019D01*
X114849728Y-71907400D01*
X114801347Y-71955780D01*
X114704585Y-72100923D01*
X114656204Y-72294447D01*
X114656204Y-72681495D01*
X114704585Y-72778257D01*
X114752966Y-72826638D01*
X114849728Y-72875019D01*
X115043252Y-72875019D01*
X115140014Y-72826638D01*
X115188395Y-72778257D01*
X115236776Y-72681495D01*
X115236776Y-72439590D01*
X115188395Y-72342828D01*
X115140014Y-72294447D01*
X115043252Y-72246066D01*
X114849728Y-72246066D01*
X114752966Y-72294447D01*
X114704585Y-72342828D01*
X114656204Y-72439590D01*
X115865728Y-71859019D02*
X115962490Y-71859019D01*
X116059252Y-71907400D01*
X116107633Y-71955780D01*
X116156014Y-72052542D01*
X116204395Y-72246066D01*
X116204395Y-72487971D01*
X116156014Y-72681495D01*
X116107633Y-72778257D01*
X116059252Y-72826638D01*
X115962490Y-72875019D01*
X115865728Y-72875019D01*
X115768966Y-72826638D01*
X115720585Y-72778257D01*
X115672204Y-72681495D01*
X115623823Y-72487971D01*
X115623823Y-72246066D01*
X115672204Y-72052542D01*
X115720585Y-71955780D01*
X115768966Y-71907400D01*
X115865728Y-71859019D01*
X103928333Y-122506619D02*
X103928333Y-123232333D01*
X103879952Y-123377476D01*
X103783190Y-123474238D01*
X103638047Y-123522619D01*
X103541285Y-123522619D01*
X104847571Y-122506619D02*
X104654047Y-122506619D01*
X104557285Y-122555000D01*
X104508904Y-122603380D01*
X104412142Y-122748523D01*
X104363761Y-122942047D01*
X104363761Y-123329095D01*
X104412142Y-123425857D01*
X104460523Y-123474238D01*
X104557285Y-123522619D01*
X104750809Y-123522619D01*
X104847571Y-123474238D01*
X104895952Y-123425857D01*
X104944333Y-123329095D01*
X104944333Y-123087190D01*
X104895952Y-122990428D01*
X104847571Y-122942047D01*
X104750809Y-122893666D01*
X104557285Y-122893666D01*
X104460523Y-122942047D01*
X104412142Y-122990428D01*
X104363761Y-123087190D01*
X174291776Y-66525019D02*
X173711204Y-66525019D01*
X174001490Y-66525019D02*
X174001490Y-65509019D01*
X173904728Y-65654161D01*
X173807966Y-65750923D01*
X173711204Y-65799304D01*
X174920728Y-65509019D02*
X175017490Y-65509019D01*
X175114252Y-65557400D01*
X175162633Y-65605780D01*
X175211014Y-65702542D01*
X175259395Y-65896066D01*
X175259395Y-66137971D01*
X175211014Y-66331495D01*
X175162633Y-66428257D01*
X175114252Y-66476638D01*
X175017490Y-66525019D01*
X174920728Y-66525019D01*
X174823966Y-66476638D01*
X174775585Y-66428257D01*
X174727204Y-66331495D01*
X174678823Y-66137971D01*
X174678823Y-65896066D01*
X174727204Y-65702542D01*
X174775585Y-65605780D01*
X174823966Y-65557400D01*
X174920728Y-65509019D01*
X125542331Y-168461185D02*
X125792331Y-169211185D01*
X126042331Y-168461185D01*
X126435188Y-168461185D02*
X126506617Y-168461185D01*
X126578045Y-168496900D01*
X126613760Y-168532614D01*
X126649474Y-168604042D01*
X126685188Y-168746900D01*
X126685188Y-168925471D01*
X126649474Y-169068328D01*
X126613760Y-169139757D01*
X126578045Y-169175471D01*
X126506617Y-169211185D01*
X126435188Y-169211185D01*
X126363760Y-169175471D01*
X126328045Y-169139757D01*
X126292331Y-169068328D01*
X126256617Y-168925471D01*
X126256617Y-168746900D01*
X126292331Y-168604042D01*
X126328045Y-168532614D01*
X126363760Y-168496900D01*
X126435188Y-168461185D01*
X127006617Y-169139757D02*
X127042331Y-169175471D01*
X127006617Y-169211185D01*
X126970902Y-169175471D01*
X127006617Y-169139757D01*
X127006617Y-169211185D01*
X127328045Y-168532614D02*
X127363760Y-168496900D01*
X127435188Y-168461185D01*
X127613760Y-168461185D01*
X127685188Y-168496900D01*
X127720902Y-168532614D01*
X127756617Y-168604042D01*
X127756617Y-168675471D01*
X127720902Y-168782614D01*
X127292331Y-169211185D01*
X127756617Y-169211185D01*
X128078045Y-169211185D02*
X128078045Y-168711185D01*
X128078045Y-168854042D02*
X128113760Y-168782614D01*
X128149474Y-168746900D01*
X128220902Y-168711185D01*
X128292331Y-168711185D01*
X128828045Y-169175471D02*
X128756617Y-169211185D01*
X128613760Y-169211185D01*
X128542331Y-169175471D01*
X128506617Y-169104042D01*
X128506617Y-168818328D01*
X128542331Y-168746900D01*
X128613760Y-168711185D01*
X128756617Y-168711185D01*
X128828045Y-168746900D01*
X128863760Y-168818328D01*
X128863760Y-168889757D01*
X128506617Y-168961185D01*
X213716204Y-71955780D02*
X213764585Y-71907400D01*
X213861347Y-71859019D01*
X214103252Y-71859019D01*
X214200014Y-71907400D01*
X214248395Y-71955780D01*
X214296776Y-72052542D01*
X214296776Y-72149304D01*
X214248395Y-72294447D01*
X213667823Y-72875019D01*
X214296776Y-72875019D01*
X214925728Y-71859019D02*
X215022490Y-71859019D01*
X215119252Y-71907400D01*
X215167633Y-71955780D01*
X215216014Y-72052542D01*
X215264395Y-72246066D01*
X215264395Y-72487971D01*
X215216014Y-72681495D01*
X215167633Y-72778257D01*
X215119252Y-72826638D01*
X215022490Y-72875019D01*
X214925728Y-72875019D01*
X214828966Y-72826638D01*
X214780585Y-72778257D01*
X214732204Y-72681495D01*
X214683823Y-72487971D01*
X214683823Y-72246066D01*
X214732204Y-72052542D01*
X214780585Y-71955780D01*
X214828966Y-71907400D01*
X214925728Y-71859019D01*
X98391006Y-164421066D02*
X97557673Y-164421066D01*
X97474339Y-165254400D01*
X97557673Y-165171066D01*
X97724339Y-165087733D01*
X98141006Y-165087733D01*
X98307673Y-165171066D01*
X98391006Y-165254400D01*
X98474339Y-165421066D01*
X98474339Y-165837733D01*
X98391006Y-166004400D01*
X98307673Y-166087733D01*
X98141006Y-166171066D01*
X97724339Y-166171066D01*
X97557673Y-166087733D01*
X97474339Y-166004400D01*
X99224339Y-166004400D02*
X99307673Y-166087733D01*
X99224339Y-166171066D01*
X99141006Y-166087733D01*
X99224339Y-166004400D01*
X99224339Y-166171066D01*
X100391006Y-164421066D02*
X100557673Y-164421066D01*
X100724339Y-164504400D01*
X100807673Y-164587733D01*
X100891006Y-164754400D01*
X100974339Y-165087733D01*
X100974339Y-165504400D01*
X100891006Y-165837733D01*
X100807673Y-166004400D01*
X100724339Y-166087733D01*
X100557673Y-166171066D01*
X100391006Y-166171066D01*
X100224339Y-166087733D01*
X100141006Y-166004400D01*
X100057673Y-165837733D01*
X99974339Y-165504400D01*
X99974339Y-165087733D01*
X100057673Y-164754400D01*
X100141006Y-164587733D01*
X100224339Y-164504400D01*
X100391006Y-164421066D01*
X103057673Y-166171066D02*
X103057673Y-164421066D01*
X103641006Y-165671066D01*
X104224339Y-164421066D01*
X104224339Y-166171066D01*
X105807673Y-165004400D02*
X105807673Y-166171066D01*
X105057673Y-165004400D02*
X105057673Y-165921066D01*
X105141006Y-166087733D01*
X105307673Y-166171066D01*
X105557673Y-166171066D01*
X105724339Y-166087733D01*
X105807673Y-166004400D01*
X106557673Y-166087733D02*
X106724339Y-166171066D01*
X107057673Y-166171066D01*
X107224339Y-166087733D01*
X107307673Y-165921066D01*
X107307673Y-165837733D01*
X107224339Y-165671066D01*
X107057673Y-165587733D01*
X106807673Y-165587733D01*
X106641006Y-165504400D01*
X106557673Y-165337733D01*
X106557673Y-165254400D01*
X106641006Y-165087733D01*
X106807673Y-165004400D01*
X107057673Y-165004400D01*
X107224339Y-165087733D01*
X107807673Y-165004400D02*
X108474339Y-165004400D01*
X108057673Y-164421066D02*
X108057673Y-165921066D01*
X108141006Y-166087733D01*
X108307673Y-166171066D01*
X108474339Y-166171066D01*
X109807673Y-166171066D02*
X109807673Y-165254400D01*
X109724339Y-165087733D01*
X109557673Y-165004400D01*
X109224339Y-165004400D01*
X109057673Y-165087733D01*
X109807673Y-166087733D02*
X109641006Y-166171066D01*
X109224339Y-166171066D01*
X109057673Y-166087733D01*
X108974339Y-165921066D01*
X108974339Y-165754400D01*
X109057673Y-165587733D01*
X109224339Y-165504400D01*
X109641006Y-165504400D01*
X109807673Y-165421066D01*
X110641006Y-165004400D02*
X110641006Y-166171066D01*
X110641006Y-165171066D02*
X110724339Y-165087733D01*
X110891006Y-165004400D01*
X111141006Y-165004400D01*
X111307673Y-165087733D01*
X111391006Y-165254400D01*
X111391006Y-166171066D01*
X112974339Y-165004400D02*
X112974339Y-166421066D01*
X112891006Y-166587733D01*
X112807673Y-166671066D01*
X112641006Y-166754400D01*
X112391006Y-166754400D01*
X112224339Y-166671066D01*
X112974339Y-166087733D02*
X112807673Y-166171066D01*
X112474339Y-166171066D01*
X112307673Y-166087733D01*
X112224339Y-166004400D01*
X112141006Y-165837733D01*
X112141006Y-165337733D01*
X112224339Y-165171066D01*
X112307673Y-165087733D01*
X112474339Y-165004400D01*
X112807673Y-165004400D01*
X112974339Y-165087733D01*
X115141006Y-166171066D02*
X115141006Y-164421066D01*
X115807673Y-164421066D01*
X115974340Y-164504400D01*
X116057673Y-164587733D01*
X116141006Y-164754400D01*
X116141006Y-165004400D01*
X116057673Y-165171066D01*
X115974340Y-165254400D01*
X115807673Y-165337733D01*
X115141006Y-165337733D01*
X116891006Y-166171066D02*
X116891006Y-165004400D01*
X116891006Y-165337733D02*
X116974340Y-165171066D01*
X117057673Y-165087733D01*
X117224340Y-165004400D01*
X117391006Y-165004400D01*
X118224340Y-166171066D02*
X118057673Y-166087733D01*
X117974340Y-166004400D01*
X117891006Y-165837733D01*
X117891006Y-165337733D01*
X117974340Y-165171066D01*
X118057673Y-165087733D01*
X118224340Y-165004400D01*
X118474340Y-165004400D01*
X118641006Y-165087733D01*
X118724340Y-165171066D01*
X118807673Y-165337733D01*
X118807673Y-165837733D01*
X118724340Y-166004400D01*
X118641006Y-166087733D01*
X118474340Y-166171066D01*
X118224340Y-166171066D01*
X119307673Y-165004400D02*
X119974339Y-165004400D01*
X119557673Y-164421066D02*
X119557673Y-165921066D01*
X119641006Y-166087733D01*
X119807673Y-166171066D01*
X119974339Y-166171066D01*
X121224339Y-166087733D02*
X121057673Y-166171066D01*
X120724339Y-166171066D01*
X120557673Y-166087733D01*
X120474339Y-165921066D01*
X120474339Y-165254400D01*
X120557673Y-165087733D01*
X120724339Y-165004400D01*
X121057673Y-165004400D01*
X121224339Y-165087733D01*
X121307673Y-165254400D01*
X121307673Y-165421066D01*
X120474339Y-165587733D01*
X122807673Y-165004400D02*
X122807673Y-166171066D01*
X122057673Y-165004400D02*
X122057673Y-165921066D01*
X122141006Y-166087733D01*
X122307673Y-166171066D01*
X122557673Y-166171066D01*
X122724339Y-166087733D01*
X122807673Y-166004400D01*
X123557673Y-166087733D02*
X123724339Y-166171066D01*
X124057673Y-166171066D01*
X124224339Y-166087733D01*
X124307673Y-165921066D01*
X124307673Y-165837733D01*
X124224339Y-165671066D01*
X124057673Y-165587733D01*
X123807673Y-165587733D01*
X123641006Y-165504400D01*
X123557673Y-165337733D01*
X123557673Y-165254400D01*
X123641006Y-165087733D01*
X123807673Y-165004400D01*
X124057673Y-165004400D01*
X124224339Y-165087733D01*
X126391006Y-166171066D02*
X126391006Y-164421066D01*
X127057673Y-164421066D01*
X127224339Y-164504400D01*
X127307673Y-164587733D01*
X127391006Y-164754400D01*
X127391006Y-165004400D01*
X127307673Y-165171066D01*
X127224339Y-165254400D01*
X127057673Y-165337733D01*
X126391006Y-165337733D01*
X128141006Y-165004400D02*
X128141006Y-166171066D01*
X128141006Y-165171066D02*
X128224339Y-165087733D01*
X128391006Y-165004400D01*
X128641006Y-165004400D01*
X128807673Y-165087733D01*
X128891006Y-165254400D01*
X128891006Y-166171066D01*
X129724339Y-166171066D02*
X129724339Y-164421066D01*
X130391006Y-164421066D01*
X130557673Y-164504400D01*
X130641006Y-164587733D01*
X130724339Y-164754400D01*
X130724339Y-165004400D01*
X130641006Y-165171066D01*
X130557673Y-165254400D01*
X130391006Y-165337733D01*
X129724339Y-165337733D01*
X217320585Y-66525019D02*
X216740014Y-66525019D01*
X217030300Y-66525019D02*
X217030300Y-65509019D01*
X216933538Y-65654161D01*
X216836776Y-65750923D01*
X216740014Y-65799304D01*
X157098395Y-71859019D02*
X156614585Y-71859019D01*
X156566204Y-72342828D01*
X156614585Y-72294447D01*
X156711347Y-72246066D01*
X156953252Y-72246066D01*
X157050014Y-72294447D01*
X157098395Y-72342828D01*
X157146776Y-72439590D01*
X157146776Y-72681495D01*
X157098395Y-72778257D01*
X157050014Y-72826638D01*
X156953252Y-72875019D01*
X156711347Y-72875019D01*
X156614585Y-72826638D01*
X156566204Y-72778257D01*
X158114395Y-72875019D02*
X157533823Y-72875019D01*
X157824109Y-72875019D02*
X157824109Y-71859019D01*
X157727347Y-72004161D01*
X157630585Y-72100923D01*
X157533823Y-72149304D01*
X99892008Y-169464111D02*
X99892008Y-167964111D01*
X100249151Y-167964111D01*
X100463437Y-168035540D01*
X100606294Y-168178397D01*
X100677722Y-168321254D01*
X100749151Y-168606968D01*
X100749151Y-168821254D01*
X100677722Y-169106968D01*
X100606294Y-169249825D01*
X100463437Y-169392682D01*
X100249151Y-169464111D01*
X99892008Y-169464111D01*
X101963437Y-169392682D02*
X101820580Y-169464111D01*
X101534865Y-169464111D01*
X101392008Y-169392682D01*
X101320580Y-169249825D01*
X101320580Y-168678397D01*
X101392008Y-168535540D01*
X101534865Y-168464111D01*
X101820580Y-168464111D01*
X101963437Y-168535540D01*
X102034865Y-168678397D01*
X102034865Y-168821254D01*
X101320580Y-168964111D01*
X102606294Y-169392682D02*
X102749151Y-169464111D01*
X103034865Y-169464111D01*
X103177722Y-169392682D01*
X103249151Y-169249825D01*
X103249151Y-169178397D01*
X103177722Y-169035540D01*
X103034865Y-168964111D01*
X102820580Y-168964111D01*
X102677722Y-168892682D01*
X102606294Y-168749825D01*
X102606294Y-168678397D01*
X102677722Y-168535540D01*
X102820580Y-168464111D01*
X103034865Y-168464111D01*
X103177722Y-168535540D01*
X103892008Y-169464111D02*
X103892008Y-168464111D01*
X103892008Y-167964111D02*
X103820580Y-168035540D01*
X103892008Y-168106968D01*
X103963437Y-168035540D01*
X103892008Y-167964111D01*
X103892008Y-168106968D01*
X105249151Y-168464111D02*
X105249151Y-169678397D01*
X105177722Y-169821254D01*
X105106294Y-169892682D01*
X104963437Y-169964111D01*
X104749151Y-169964111D01*
X104606294Y-169892682D01*
X105249151Y-169392682D02*
X105106294Y-169464111D01*
X104820580Y-169464111D01*
X104677722Y-169392682D01*
X104606294Y-169321254D01*
X104534865Y-169178397D01*
X104534865Y-168749825D01*
X104606294Y-168606968D01*
X104677722Y-168535540D01*
X104820580Y-168464111D01*
X105106294Y-168464111D01*
X105249151Y-168535540D01*
X105963437Y-168464111D02*
X105963437Y-169464111D01*
X105963437Y-168606968D02*
X106034865Y-168535540D01*
X106177722Y-168464111D01*
X106392008Y-168464111D01*
X106534865Y-168535540D01*
X106606294Y-168678397D01*
X106606294Y-169464111D01*
X108463437Y-169464111D02*
X108463437Y-167964111D01*
X108463437Y-168535540D02*
X108606294Y-168464111D01*
X108892008Y-168464111D01*
X109034865Y-168535540D01*
X109106294Y-168606968D01*
X109177722Y-168749825D01*
X109177722Y-169178397D01*
X109106294Y-169321254D01*
X109034865Y-169392682D01*
X108892008Y-169464111D01*
X108606294Y-169464111D01*
X108463437Y-169392682D01*
X109677722Y-168464111D02*
X110034865Y-169464111D01*
X110392008Y-168464111D02*
X110034865Y-169464111D01*
X109892008Y-169821254D01*
X109820580Y-169892682D01*
X109677722Y-169964111D01*
X111963437Y-168464111D02*
X112249151Y-169464111D01*
X112534865Y-168749825D01*
X112820580Y-169464111D01*
X113106294Y-168464111D01*
X113606294Y-169392682D02*
X113749151Y-169464111D01*
X114034865Y-169464111D01*
X114177722Y-169392682D01*
X114249151Y-169249825D01*
X114249151Y-169178397D01*
X114177722Y-169035540D01*
X114034865Y-168964111D01*
X113820580Y-168964111D01*
X113677722Y-168892682D01*
X113606294Y-168749825D01*
X113606294Y-168678397D01*
X113677722Y-168535540D01*
X113820580Y-168464111D01*
X114034865Y-168464111D01*
X114177722Y-168535540D01*
X114677722Y-168464111D02*
X115249151Y-168464111D01*
X114892008Y-167964111D02*
X114892008Y-169249825D01*
X114963437Y-169392682D01*
X115106294Y-169464111D01*
X115249151Y-169464111D01*
X116320580Y-169392682D02*
X116177722Y-169464111D01*
X115892008Y-169464111D01*
X115749151Y-169392682D01*
X115677722Y-169249825D01*
X115677722Y-168678397D01*
X115749151Y-168535540D01*
X115892008Y-168464111D01*
X116177722Y-168464111D01*
X116320580Y-168535540D01*
X116392008Y-168678397D01*
X116392008Y-168821254D01*
X115677722Y-168964111D01*
X116820580Y-168464111D02*
X117392008Y-168464111D01*
X117034865Y-169464111D02*
X117034865Y-168178397D01*
X117106294Y-168035540D01*
X117249151Y-167964111D01*
X117392008Y-167964111D01*
X118534865Y-169464111D02*
X118534865Y-168678397D01*
X118463437Y-168535540D01*
X118320580Y-168464111D01*
X118034865Y-168464111D01*
X117892008Y-168535540D01*
X118534865Y-169392682D02*
X118392008Y-169464111D01*
X118034865Y-169464111D01*
X117892008Y-169392682D01*
X117820580Y-169249825D01*
X117820580Y-169106968D01*
X117892008Y-168964111D01*
X118034865Y-168892682D01*
X118392008Y-168892682D01*
X118534865Y-168821254D01*
X119249151Y-168464111D02*
X119249151Y-169464111D01*
X119249151Y-168606968D02*
X119320580Y-168535540D01*
X119463437Y-168464111D01*
X119677722Y-168464111D01*
X119820580Y-168535540D01*
X119892008Y-168678397D01*
X119892008Y-169464111D01*
X120534865Y-168106968D02*
X120606294Y-168035540D01*
X120749151Y-167964111D01*
X121106294Y-167964111D01*
X121249151Y-168035540D01*
X121320580Y-168106968D01*
X121392008Y-168249825D01*
X121392008Y-168392682D01*
X121320580Y-168606968D01*
X120463437Y-169464111D01*
X121392008Y-169464111D01*
X122320580Y-167964111D02*
X122463437Y-167964111D01*
X122606294Y-168035540D01*
X122677722Y-168106968D01*
X122749151Y-168249825D01*
X122820580Y-168535540D01*
X122820580Y-168892682D01*
X122749151Y-169178397D01*
X122677722Y-169321254D01*
X122606294Y-169392682D01*
X122463437Y-169464111D01*
X122320580Y-169464111D01*
X122177722Y-169392682D01*
X122106294Y-169321254D01*
X122034865Y-169178397D01*
X121963437Y-168892682D01*
X121963437Y-168535540D01*
X122034865Y-168249825D01*
X122106294Y-168106968D01*
X122177722Y-168035540D01*
X122320580Y-167964111D01*
X171703395Y-71859019D02*
X171219585Y-71859019D01*
X171171204Y-72342828D01*
X171219585Y-72294447D01*
X171316347Y-72246066D01*
X171558252Y-72246066D01*
X171655014Y-72294447D01*
X171703395Y-72342828D01*
X171751776Y-72439590D01*
X171751776Y-72681495D01*
X171703395Y-72778257D01*
X171655014Y-72826638D01*
X171558252Y-72875019D01*
X171316347Y-72875019D01*
X171219585Y-72826638D01*
X171171204Y-72778257D01*
X172380728Y-71859019D02*
X172477490Y-71859019D01*
X172574252Y-71907400D01*
X172622633Y-71955780D01*
X172671014Y-72052542D01*
X172719395Y-72246066D01*
X172719395Y-72487971D01*
X172671014Y-72681495D01*
X172622633Y-72778257D01*
X172574252Y-72826638D01*
X172477490Y-72875019D01*
X172380728Y-72875019D01*
X172283966Y-72826638D01*
X172235585Y-72778257D01*
X172187204Y-72681495D01*
X172138823Y-72487971D01*
X172138823Y-72246066D01*
X172187204Y-72052542D01*
X172235585Y-71955780D01*
X172283966Y-71907400D01*
X172380728Y-71859019D01*
X99830645Y-172312905D02*
X99830645Y-172920048D01*
X99794931Y-172991477D01*
X99759217Y-173027191D01*
X99687788Y-173062905D01*
X99580645Y-173062905D01*
X99509217Y-173027191D01*
X99830645Y-172777191D02*
X99759217Y-172812905D01*
X99616360Y-172812905D01*
X99544931Y-172777191D01*
X99509217Y-172741477D01*
X99473502Y-172670048D01*
X99473502Y-172455762D01*
X99509217Y-172384334D01*
X99544931Y-172348620D01*
X99616360Y-172312905D01*
X99759217Y-172312905D01*
X99830645Y-172348620D01*
X100187788Y-172812905D02*
X100187788Y-172312905D01*
X100187788Y-172062905D02*
X100152074Y-172098620D01*
X100187788Y-172134334D01*
X100223502Y-172098620D01*
X100187788Y-172062905D01*
X100187788Y-172134334D01*
X100437788Y-172312905D02*
X100723502Y-172312905D01*
X100544931Y-172062905D02*
X100544931Y-172705762D01*
X100580645Y-172777191D01*
X100652074Y-172812905D01*
X100723502Y-172812905D01*
X100973502Y-172812905D02*
X100973502Y-172062905D01*
X101294931Y-172812905D02*
X101294931Y-172420048D01*
X101259217Y-172348620D01*
X101187788Y-172312905D01*
X101080645Y-172312905D01*
X101009217Y-172348620D01*
X100973502Y-172384334D01*
X101973502Y-172312905D02*
X101973502Y-172812905D01*
X101652074Y-172312905D02*
X101652074Y-172705762D01*
X101687788Y-172777191D01*
X101759217Y-172812905D01*
X101866360Y-172812905D01*
X101937788Y-172777191D01*
X101973502Y-172741477D01*
X102330645Y-172812905D02*
X102330645Y-172062905D01*
X102330645Y-172348620D02*
X102402074Y-172312905D01*
X102544931Y-172312905D01*
X102616360Y-172348620D01*
X102652074Y-172384334D01*
X102687788Y-172455762D01*
X102687788Y-172670048D01*
X102652074Y-172741477D01*
X102616360Y-172777191D01*
X102544931Y-172812905D01*
X102402074Y-172812905D01*
X102330645Y-172777191D01*
X103009217Y-172741477D02*
X103044931Y-172777191D01*
X103009217Y-172812905D01*
X102973502Y-172777191D01*
X103009217Y-172741477D01*
X103009217Y-172812905D01*
X103687788Y-172777191D02*
X103616360Y-172812905D01*
X103473502Y-172812905D01*
X103402074Y-172777191D01*
X103366360Y-172741477D01*
X103330645Y-172670048D01*
X103330645Y-172455762D01*
X103366360Y-172384334D01*
X103402074Y-172348620D01*
X103473502Y-172312905D01*
X103616360Y-172312905D01*
X103687788Y-172348620D01*
X104116360Y-172812905D02*
X104044931Y-172777191D01*
X104009217Y-172741477D01*
X103973502Y-172670048D01*
X103973502Y-172455762D01*
X104009217Y-172384334D01*
X104044931Y-172348620D01*
X104116360Y-172312905D01*
X104223502Y-172312905D01*
X104294931Y-172348620D01*
X104330645Y-172384334D01*
X104366360Y-172455762D01*
X104366360Y-172670048D01*
X104330645Y-172741477D01*
X104294931Y-172777191D01*
X104223502Y-172812905D01*
X104116360Y-172812905D01*
X104687788Y-172812905D02*
X104687788Y-172312905D01*
X104687788Y-172384334D02*
X104723502Y-172348620D01*
X104794931Y-172312905D01*
X104902074Y-172312905D01*
X104973502Y-172348620D01*
X105009217Y-172420048D01*
X105009217Y-172812905D01*
X105009217Y-172420048D02*
X105044931Y-172348620D01*
X105116360Y-172312905D01*
X105223502Y-172312905D01*
X105294931Y-172348620D01*
X105330645Y-172420048D01*
X105330645Y-172812905D01*
X106223502Y-172027191D02*
X105580645Y-172991477D01*
X106473502Y-172812905D02*
X106473502Y-172312905D01*
X106473502Y-172455762D02*
X106509217Y-172384334D01*
X106544931Y-172348620D01*
X106616360Y-172312905D01*
X106687788Y-172312905D01*
X107259217Y-172312905D02*
X107259217Y-172812905D01*
X106937788Y-172312905D02*
X106937788Y-172705762D01*
X106973502Y-172777191D01*
X107044931Y-172812905D01*
X107152074Y-172812905D01*
X107223502Y-172777191D01*
X107259217Y-172741477D01*
X107580645Y-172777191D02*
X107652074Y-172812905D01*
X107794931Y-172812905D01*
X107866360Y-172777191D01*
X107902074Y-172705762D01*
X107902074Y-172670048D01*
X107866360Y-172598620D01*
X107794931Y-172562905D01*
X107687788Y-172562905D01*
X107616360Y-172527191D01*
X107580645Y-172455762D01*
X107580645Y-172420048D01*
X107616360Y-172348620D01*
X107687788Y-172312905D01*
X107794931Y-172312905D01*
X107866360Y-172348620D01*
X108509217Y-172777191D02*
X108437788Y-172812905D01*
X108294931Y-172812905D01*
X108223502Y-172777191D01*
X108187788Y-172705762D01*
X108187788Y-172420048D01*
X108223502Y-172348620D01*
X108294931Y-172312905D01*
X108437788Y-172312905D01*
X108509217Y-172348620D01*
X108544931Y-172420048D01*
X108544931Y-172491477D01*
X108187788Y-172562905D01*
X108759217Y-172312905D02*
X109044931Y-172312905D01*
X108866360Y-172812905D02*
X108866360Y-172170048D01*
X108902074Y-172098620D01*
X108973502Y-172062905D01*
X109044931Y-172062905D01*
X109294931Y-172812905D02*
X109294931Y-172312905D01*
X109294931Y-172062905D02*
X109259217Y-172098620D01*
X109294931Y-172134334D01*
X109330645Y-172098620D01*
X109294931Y-172062905D01*
X109294931Y-172134334D01*
X110187788Y-172027191D02*
X109544931Y-172991477D01*
X110437788Y-172312905D02*
X110437788Y-173062905D01*
X110437788Y-172348620D02*
X110509217Y-172312905D01*
X110652074Y-172312905D01*
X110723502Y-172348620D01*
X110759217Y-172384334D01*
X110794931Y-172455762D01*
X110794931Y-172670048D01*
X110759217Y-172741477D01*
X110723502Y-172777191D01*
X110652074Y-172812905D01*
X110509217Y-172812905D01*
X110437788Y-172777191D01*
X111116360Y-172812905D02*
X111116360Y-172312905D01*
X111116360Y-172455762D02*
X111152074Y-172384334D01*
X111187788Y-172348620D01*
X111259217Y-172312905D01*
X111330645Y-172312905D01*
X111687788Y-172812905D02*
X111616360Y-172777191D01*
X111580645Y-172741477D01*
X111544931Y-172670048D01*
X111544931Y-172455762D01*
X111580645Y-172384334D01*
X111616360Y-172348620D01*
X111687788Y-172312905D01*
X111794931Y-172312905D01*
X111866360Y-172348620D01*
X111902074Y-172384334D01*
X111937788Y-172455762D01*
X111937788Y-172670048D01*
X111902074Y-172741477D01*
X111866360Y-172777191D01*
X111794931Y-172812905D01*
X111687788Y-172812905D01*
X112152074Y-172312905D02*
X112437788Y-172312905D01*
X112259217Y-172062905D02*
X112259217Y-172705762D01*
X112294931Y-172777191D01*
X112366360Y-172812905D01*
X112437788Y-172812905D01*
X112973502Y-172777191D02*
X112902074Y-172812905D01*
X112759217Y-172812905D01*
X112687788Y-172777191D01*
X112652074Y-172705762D01*
X112652074Y-172420048D01*
X112687788Y-172348620D01*
X112759217Y-172312905D01*
X112902074Y-172312905D01*
X112973502Y-172348620D01*
X113009217Y-172420048D01*
X113009217Y-172491477D01*
X112652074Y-172562905D01*
X113652074Y-172312905D02*
X113652074Y-172812905D01*
X113330645Y-172312905D02*
X113330645Y-172705762D01*
X113366360Y-172777191D01*
X113437788Y-172812905D01*
X113544931Y-172812905D01*
X113616360Y-172777191D01*
X113652074Y-172741477D01*
X113973502Y-172777191D02*
X114044931Y-172812905D01*
X114187788Y-172812905D01*
X114259217Y-172777191D01*
X114294931Y-172705762D01*
X114294931Y-172670048D01*
X114259217Y-172598620D01*
X114187788Y-172562905D01*
X114080645Y-172562905D01*
X114009217Y-172527191D01*
X113973502Y-172455762D01*
X113973502Y-172420048D01*
X114009217Y-172348620D01*
X114080645Y-172312905D01*
X114187788Y-172312905D01*
X114259217Y-172348620D01*
X114616360Y-172527191D02*
X115187788Y-172527191D01*
X115544931Y-172812905D02*
X115544931Y-172312905D01*
X115544931Y-172384334D02*
X115580645Y-172348620D01*
X115652074Y-172312905D01*
X115759217Y-172312905D01*
X115830645Y-172348620D01*
X115866360Y-172420048D01*
X115866360Y-172812905D01*
X115866360Y-172420048D02*
X115902074Y-172348620D01*
X115973502Y-172312905D01*
X116080645Y-172312905D01*
X116152074Y-172348620D01*
X116187788Y-172420048D01*
X116187788Y-172812905D01*
X116866360Y-172312905D02*
X116866360Y-172812905D01*
X116544931Y-172312905D02*
X116544931Y-172705762D01*
X116580645Y-172777191D01*
X116652074Y-172812905D01*
X116759217Y-172812905D01*
X116830645Y-172777191D01*
X116866360Y-172741477D01*
X117187788Y-172777191D02*
X117259217Y-172812905D01*
X117402074Y-172812905D01*
X117473502Y-172777191D01*
X117509217Y-172705762D01*
X117509217Y-172670048D01*
X117473502Y-172598620D01*
X117402074Y-172562905D01*
X117294931Y-172562905D01*
X117223502Y-172527191D01*
X117187788Y-172455762D01*
X117187788Y-172420048D01*
X117223502Y-172348620D01*
X117294931Y-172312905D01*
X117402074Y-172312905D01*
X117473502Y-172348620D01*
X117723502Y-172312905D02*
X118009217Y-172312905D01*
X117830645Y-172062905D02*
X117830645Y-172705762D01*
X117866360Y-172777191D01*
X117937788Y-172812905D01*
X118009217Y-172812905D01*
X118580645Y-172812905D02*
X118580645Y-172420048D01*
X118544931Y-172348620D01*
X118473502Y-172312905D01*
X118330645Y-172312905D01*
X118259217Y-172348620D01*
X118580645Y-172777191D02*
X118509217Y-172812905D01*
X118330645Y-172812905D01*
X118259217Y-172777191D01*
X118223502Y-172705762D01*
X118223502Y-172634334D01*
X118259217Y-172562905D01*
X118330645Y-172527191D01*
X118509217Y-172527191D01*
X118580645Y-172491477D01*
X118937788Y-172312905D02*
X118937788Y-172812905D01*
X118937788Y-172384334D02*
X118973502Y-172348620D01*
X119044931Y-172312905D01*
X119152074Y-172312905D01*
X119223502Y-172348620D01*
X119259217Y-172420048D01*
X119259217Y-172812905D01*
X119937788Y-172312905D02*
X119937788Y-172920048D01*
X119902074Y-172991477D01*
X119866360Y-173027191D01*
X119794931Y-173062905D01*
X119687788Y-173062905D01*
X119616360Y-173027191D01*
X119937788Y-172777191D02*
X119866360Y-172812905D01*
X119723502Y-172812905D01*
X119652074Y-172777191D01*
X119616360Y-172741477D01*
X119580645Y-172670048D01*
X119580645Y-172455762D01*
X119616360Y-172384334D01*
X119652074Y-172348620D01*
X119723502Y-172312905D01*
X119866360Y-172312905D01*
X119937788Y-172348620D01*
X120652074Y-172062905D02*
X120294931Y-172062905D01*
X120259217Y-172420048D01*
X120294931Y-172384334D01*
X120366360Y-172348620D01*
X120544931Y-172348620D01*
X120616360Y-172384334D01*
X120652074Y-172420048D01*
X120687788Y-172491477D01*
X120687788Y-172670048D01*
X120652074Y-172741477D01*
X120616360Y-172777191D01*
X120544931Y-172812905D01*
X120366360Y-172812905D01*
X120294931Y-172777191D01*
X120259217Y-172741477D01*
X121009217Y-172741477D02*
X121044931Y-172777191D01*
X121009217Y-172812905D01*
X120973502Y-172777191D01*
X121009217Y-172741477D01*
X121009217Y-172812905D01*
X121509217Y-172062905D02*
X121580645Y-172062905D01*
X121652074Y-172098620D01*
X121687788Y-172134334D01*
X121723502Y-172205762D01*
X121759217Y-172348620D01*
X121759217Y-172527191D01*
X121723502Y-172670048D01*
X121687788Y-172741477D01*
X121652074Y-172777191D01*
X121580645Y-172812905D01*
X121509217Y-172812905D01*
X121437788Y-172777191D01*
X121402074Y-172741477D01*
X121366360Y-172670048D01*
X121330645Y-172527191D01*
X121330645Y-172348620D01*
X121366360Y-172205762D01*
X121402074Y-172134334D01*
X121437788Y-172098620D01*
X121509217Y-172062905D01*
X122080645Y-172527191D02*
X122652074Y-172527191D01*
X123330645Y-172062905D02*
X123187788Y-172062905D01*
X123116360Y-172098620D01*
X123080645Y-172134334D01*
X123009217Y-172241477D01*
X122973502Y-172384334D01*
X122973502Y-172670048D01*
X123009217Y-172741477D01*
X123044931Y-172777191D01*
X123116360Y-172812905D01*
X123259217Y-172812905D01*
X123330645Y-172777191D01*
X123366360Y-172741477D01*
X123402074Y-172670048D01*
X123402074Y-172491477D01*
X123366360Y-172420048D01*
X123330645Y-172384334D01*
X123259217Y-172348620D01*
X123116360Y-172348620D01*
X123044931Y-172384334D01*
X123009217Y-172420048D01*
X122973502Y-172491477D01*
X123866360Y-172062905D02*
X123937788Y-172062905D01*
X124009217Y-172098620D01*
X124044931Y-172134334D01*
X124080645Y-172205762D01*
X124116360Y-172348620D01*
X124116360Y-172527191D01*
X124080645Y-172670048D01*
X124044931Y-172741477D01*
X124009217Y-172777191D01*
X123937788Y-172812905D01*
X123866360Y-172812905D01*
X123794931Y-172777191D01*
X123759217Y-172741477D01*
X123723502Y-172670048D01*
X123687788Y-172527191D01*
X123687788Y-172348620D01*
X123723502Y-172205762D01*
X123759217Y-172134334D01*
X123794931Y-172098620D01*
X123866360Y-172062905D01*
X124437788Y-172527191D02*
X125009217Y-172527191D01*
X125366360Y-172312905D02*
X125366360Y-173062905D01*
X125366360Y-172348620D02*
X125437788Y-172312905D01*
X125580645Y-172312905D01*
X125652074Y-172348620D01*
X125687788Y-172384334D01*
X125723502Y-172455762D01*
X125723502Y-172670048D01*
X125687788Y-172741477D01*
X125652074Y-172777191D01*
X125580645Y-172812905D01*
X125437788Y-172812905D01*
X125366360Y-172777191D01*
X126044931Y-172812905D02*
X126044931Y-172312905D01*
X126044931Y-172062905D02*
X126009217Y-172098620D01*
X126044931Y-172134334D01*
X126080645Y-172098620D01*
X126044931Y-172062905D01*
X126044931Y-172134334D01*
X126402074Y-172312905D02*
X126402074Y-172812905D01*
X126402074Y-172384334D02*
X126437788Y-172348620D01*
X126509217Y-172312905D01*
X126616360Y-172312905D01*
X126687788Y-172348620D01*
X126723502Y-172420048D01*
X126723502Y-172812905D01*
X117196204Y-65605780D02*
X117244585Y-65557400D01*
X117341347Y-65509019D01*
X117583252Y-65509019D01*
X117680014Y-65557400D01*
X117728395Y-65605780D01*
X117776776Y-65702542D01*
X117776776Y-65799304D01*
X117728395Y-65944447D01*
X117147823Y-66525019D01*
X117776776Y-66525019D01*
X118405728Y-65509019D02*
X118502490Y-65509019D01*
X118599252Y-65557400D01*
X118647633Y-65605780D01*
X118696014Y-65702542D01*
X118744395Y-65896066D01*
X118744395Y-66137971D01*
X118696014Y-66331495D01*
X118647633Y-66428257D01*
X118599252Y-66476638D01*
X118502490Y-66525019D01*
X118405728Y-66525019D01*
X118308966Y-66476638D01*
X118260585Y-66428257D01*
X118212204Y-66331495D01*
X118163823Y-66137971D01*
X118163823Y-65896066D01*
X118212204Y-65702542D01*
X118260585Y-65605780D01*
X118308966Y-65557400D01*
X118405728Y-65509019D01*
X157787823Y-68684019D02*
X158416776Y-68684019D01*
X158078109Y-69071066D01*
X158223252Y-69071066D01*
X158320014Y-69119447D01*
X158368395Y-69167828D01*
X158416776Y-69264590D01*
X158416776Y-69506495D01*
X158368395Y-69603257D01*
X158320014Y-69651638D01*
X158223252Y-69700019D01*
X157932966Y-69700019D01*
X157836204Y-69651638D01*
X157787823Y-69603257D01*
X159384395Y-69700019D02*
X158803823Y-69700019D01*
X159094109Y-69700019D02*
X159094109Y-68684019D01*
X158997347Y-68829161D01*
X158900585Y-68925923D01*
X158803823Y-68974304D01*
X116410014Y-69022685D02*
X116410014Y-69700019D01*
X116168109Y-68635638D02*
X115926204Y-69361352D01*
X116555157Y-69361352D01*
X117135728Y-68684019D02*
X117232490Y-68684019D01*
X117329252Y-68732400D01*
X117377633Y-68780780D01*
X117426014Y-68877542D01*
X117474395Y-69071066D01*
X117474395Y-69312971D01*
X117426014Y-69506495D01*
X117377633Y-69603257D01*
X117329252Y-69651638D01*
X117232490Y-69700019D01*
X117135728Y-69700019D01*
X117038966Y-69651638D01*
X116990585Y-69603257D01*
X116942204Y-69506495D01*
X116893823Y-69312971D01*
X116893823Y-69071066D01*
X116942204Y-68877542D01*
X116990585Y-68780780D01*
X117038966Y-68732400D01*
X117135728Y-68684019D01*
X159686776Y-66525019D02*
X159106204Y-66525019D01*
X159396490Y-66525019D02*
X159396490Y-65509019D01*
X159299728Y-65654161D01*
X159202966Y-65750923D01*
X159106204Y-65799304D01*
X160654395Y-66525019D02*
X160073823Y-66525019D01*
X160364109Y-66525019D02*
X160364109Y-65509019D01*
X160267347Y-65654161D01*
X160170585Y-65750923D01*
X160073823Y-65799304D01*
X172392823Y-68684019D02*
X173021776Y-68684019D01*
X172683109Y-69071066D01*
X172828252Y-69071066D01*
X172925014Y-69119447D01*
X172973395Y-69167828D01*
X173021776Y-69264590D01*
X173021776Y-69506495D01*
X172973395Y-69603257D01*
X172925014Y-69651638D01*
X172828252Y-69700019D01*
X172537966Y-69700019D01*
X172441204Y-69651638D01*
X172392823Y-69603257D01*
X173650728Y-68684019D02*
X173747490Y-68684019D01*
X173844252Y-68732400D01*
X173892633Y-68780780D01*
X173941014Y-68877542D01*
X173989395Y-69071066D01*
X173989395Y-69312971D01*
X173941014Y-69506495D01*
X173892633Y-69603257D01*
X173844252Y-69651638D01*
X173747490Y-69700019D01*
X173650728Y-69700019D01*
X173553966Y-69651638D01*
X173505585Y-69603257D01*
X173457204Y-69506495D01*
X173408823Y-69312971D01*
X173408823Y-69071066D01*
X173457204Y-68877542D01*
X173505585Y-68780780D01*
X173553966Y-68732400D01*
X173650728Y-68684019D01*
G04 #@! TO.C,U1*
X89705044Y164447380D02*
X89705044Y163624904D01*
X89753425Y163528142D01*
X89801806Y163479761D01*
X89898568Y163431380D01*
X90092092Y163431380D01*
X90188854Y163479761D01*
X90237235Y163528142D01*
X90285616Y163624904D01*
X90285616Y164447380D01*
X91301616Y163431380D02*
X90721044Y163431380D01*
X91011330Y163431380D02*
X91011330Y164447380D01*
X90914568Y164302238D01*
X90817806Y164205476D01*
X90721044Y164157095D01*
D12*
G04 #@! TO.C,J2*
X109074666Y68426619D02*
X109074666Y67712333D01*
X109027047Y67569476D01*
X108931809Y67474238D01*
X108788952Y67426619D01*
X108693714Y67426619D01*
X109503238Y68331380D02*
X109550857Y68379000D01*
X109646095Y68426619D01*
X109884190Y68426619D01*
X109979428Y68379000D01*
X110027047Y68331380D01*
X110074666Y68236142D01*
X110074666Y68140904D01*
X110027047Y67998047D01*
X109455619Y67426619D01*
X110074666Y67426619D01*
G04 #@! TO.C,J4*
X70484446Y68441859D02*
X70484446Y67727573D01*
X70436827Y67584716D01*
X70341589Y67489478D01*
X70198732Y67441859D01*
X70103494Y67441859D01*
X71389208Y68108525D02*
X71389208Y67441859D01*
X71151113Y68489478D02*
X70913018Y67775192D01*
X71532065Y67775192D01*
G04 #@! TO.C,J1*
X149206666Y156437619D02*
X149206666Y155723333D01*
X149159047Y155580476D01*
X149063809Y155485238D01*
X148920952Y155437619D01*
X148825714Y155437619D01*
X150206666Y155437619D02*
X149635238Y155437619D01*
X149920952Y155437619D02*
X149920952Y156437619D01*
X149825714Y156294761D01*
X149730476Y156199523D01*
X149635238Y156151904D01*
X148555714Y154421619D02*
X147984285Y154421619D01*
X148270000Y154421619D02*
X148270000Y155421619D01*
X148174761Y155278761D01*
X148079523Y155183523D01*
X147984285Y155135904D01*
X139046666Y155421619D02*
X139665714Y155421619D01*
X139332380Y155040666D01*
X139475238Y155040666D01*
X139570476Y154993047D01*
X139618095Y154945428D01*
X139665714Y154850190D01*
X139665714Y154612095D01*
X139618095Y154516857D01*
X139570476Y154469238D01*
X139475238Y154421619D01*
X139189523Y154421619D01*
X139094285Y154469238D01*
X139046666Y154516857D01*
X139046666Y155421619D02*
X139665714Y155421619D01*
X139332380Y155040666D01*
X139475238Y155040666D01*
X139570476Y154993047D01*
X139618095Y154945428D01*
X139665714Y154850190D01*
X139665714Y154612095D01*
X139618095Y154516857D01*
X139570476Y154469238D01*
X139475238Y154421619D01*
X139189523Y154421619D01*
X139094285Y154469238D01*
X139046666Y154516857D01*
X146441200Y155449559D02*
X146441200Y155211463D01*
X146203104Y155306701D02*
X146441200Y155211463D01*
X146679295Y155306701D01*
X146298342Y155020987D02*
X146441200Y155211463D01*
X146584057Y155020987D01*
X148555714Y154421619D02*
X147984285Y154421619D01*
X148270000Y154421619D02*
X148270000Y155421619D01*
X148174761Y155278761D01*
X148079523Y155183523D01*
X147984285Y155135904D01*
G04 #@! TO.C,BRD1*
X25214238Y151420428D02*
X25357095Y151372809D01*
X25404714Y151325190D01*
X25452333Y151229952D01*
X25452333Y151087095D01*
X25404714Y150991857D01*
X25357095Y150944238D01*
X25261857Y150896619D01*
X24880904Y150896619D01*
X24880904Y151896619D01*
X25214238Y151896619D01*
X25309476Y151849000D01*
X25357095Y151801380D01*
X25404714Y151706142D01*
X25404714Y151610904D01*
X25357095Y151515666D01*
X25309476Y151468047D01*
X25214238Y151420428D01*
X24880904Y151420428D01*
X26452333Y150896619D02*
X26119000Y151372809D01*
X25880904Y150896619D02*
X25880904Y151896619D01*
X26261857Y151896619D01*
X26357095Y151849000D01*
X26404714Y151801380D01*
X26452333Y151706142D01*
X26452333Y151563285D01*
X26404714Y151468047D01*
X26357095Y151420428D01*
X26261857Y151372809D01*
X25880904Y151372809D01*
X26880904Y150896619D02*
X26880904Y151896619D01*
X27119000Y151896619D01*
X27261857Y151849000D01*
X27357095Y151753761D01*
X27404714Y151658523D01*
X27452333Y151468047D01*
X27452333Y151325190D01*
X27404714Y151134714D01*
X27357095Y151039476D01*
X27261857Y150944238D01*
X27119000Y150896619D01*
X26880904Y150896619D01*
X28404714Y150896619D02*
X27833285Y150896619D01*
X28119000Y150896619D02*
X28119000Y151896619D01*
X28023761Y151753761D01*
X27928523Y151658523D01*
X27833285Y151610904D01*
X140554714Y135951619D02*
X139983285Y135951619D01*
X140269000Y135951619D02*
X140269000Y136951619D01*
X140173761Y136808761D01*
X140078523Y136713523D01*
X139983285Y136665904D01*
X140935666Y136856380D02*
X140983285Y136904000D01*
X141078523Y136951619D01*
X141316619Y136951619D01*
X141411857Y136904000D01*
X141459476Y136856380D01*
X141507095Y136761142D01*
X141507095Y136665904D01*
X141459476Y136523047D01*
X140888047Y135951619D01*
X141507095Y135951619D01*
X141840428Y136618285D02*
X142078523Y135951619D01*
X142316619Y136618285D01*
X143411857Y135999238D02*
X143554714Y135951619D01*
X143792809Y135951619D01*
X143888047Y135999238D01*
X143935666Y136046857D01*
X143983285Y136142095D01*
X143983285Y136237333D01*
X143935666Y136332571D01*
X143888047Y136380190D01*
X143792809Y136427809D01*
X143602333Y136475428D01*
X143507095Y136523047D01*
X143459476Y136570666D01*
X143411857Y136665904D01*
X143411857Y136761142D01*
X143459476Y136856380D01*
X143507095Y136904000D01*
X143602333Y136951619D01*
X143840428Y136951619D01*
X143983285Y136904000D01*
X144792809Y135999238D02*
X144697571Y135951619D01*
X144507095Y135951619D01*
X144411857Y135999238D01*
X144364238Y136094476D01*
X144364238Y136475428D01*
X144411857Y136570666D01*
X144507095Y136618285D01*
X144697571Y136618285D01*
X144792809Y136570666D01*
X144840428Y136475428D01*
X144840428Y136380190D01*
X144364238Y136284952D01*
X145269000Y136618285D02*
X145269000Y135951619D01*
X145269000Y136523047D02*
X145316619Y136570666D01*
X145411857Y136618285D01*
X145554714Y136618285D01*
X145649952Y136570666D01*
X145697571Y136475428D01*
X145697571Y135951619D01*
X146126142Y135999238D02*
X146221380Y135951619D01*
X146411857Y135951619D01*
X146507095Y135999238D01*
X146554714Y136094476D01*
X146554714Y136142095D01*
X146507095Y136237333D01*
X146411857Y136284952D01*
X146269000Y136284952D01*
X146173761Y136332571D01*
X146126142Y136427809D01*
X146126142Y136475428D01*
X146173761Y136570666D01*
X146269000Y136618285D01*
X146411857Y136618285D01*
X146507095Y136570666D01*
X140983285Y134389238D02*
X141126142Y134341619D01*
X141364238Y134341619D01*
X141459476Y134389238D01*
X141507095Y134436857D01*
X141554714Y134532095D01*
X141554714Y134627333D01*
X141507095Y134722571D01*
X141459476Y134770190D01*
X141364238Y134817809D01*
X141173761Y134865428D01*
X141078523Y134913047D01*
X141030904Y134960666D01*
X140983285Y135055904D01*
X140983285Y135151142D01*
X141030904Y135246380D01*
X141078523Y135294000D01*
X141173761Y135341619D01*
X141411857Y135341619D01*
X141554714Y135294000D01*
X142411857Y135008285D02*
X142411857Y134341619D01*
X141983285Y135008285D02*
X141983285Y134484476D01*
X142030904Y134389238D01*
X142126142Y134341619D01*
X142269000Y134341619D01*
X142364238Y134389238D01*
X142411857Y134436857D01*
X142888047Y135008285D02*
X142888047Y134008285D01*
X142888047Y134960666D02*
X142983285Y135008285D01*
X143173761Y135008285D01*
X143269000Y134960666D01*
X143316619Y134913047D01*
X143364238Y134817809D01*
X143364238Y134532095D01*
X143316619Y134436857D01*
X143269000Y134389238D01*
X143173761Y134341619D01*
X142983285Y134341619D01*
X142888047Y134389238D01*
X143792809Y135008285D02*
X143792809Y134008285D01*
X143792809Y134960666D02*
X143888047Y135008285D01*
X144078523Y135008285D01*
X144173761Y134960666D01*
X144221380Y134913047D01*
X144269000Y134817809D01*
X144269000Y134532095D01*
X144221380Y134436857D01*
X144173761Y134389238D01*
X144078523Y134341619D01*
X143888047Y134341619D01*
X143792809Y134389238D01*
X144840428Y134341619D02*
X144745190Y134389238D01*
X144697571Y134484476D01*
X144697571Y135341619D01*
X145126142Y135008285D02*
X145364238Y134341619D01*
X145602333Y135008285D02*
X145364238Y134341619D01*
X145269000Y134103523D01*
X145221380Y134055904D01*
X145126142Y134008285D01*
X34021380Y103610523D02*
X34021380Y103801000D01*
X33973761Y103896238D01*
X33926142Y103943857D01*
X33783285Y104039095D01*
X33592809Y104086714D01*
X33211857Y104086714D01*
X33116619Y104039095D01*
X33069000Y103991476D01*
X33021380Y103896238D01*
X33021380Y103705761D01*
X33069000Y103610523D01*
X33116619Y103562904D01*
X33211857Y103515285D01*
X33449952Y103515285D01*
X33545190Y103562904D01*
X33592809Y103610523D01*
X33640428Y103705761D01*
X33640428Y103896238D01*
X33592809Y103991476D01*
X33545190Y104039095D01*
X33449952Y104086714D01*
X42038380Y106007666D02*
X42038380Y106674333D01*
X43038380Y106245761D01*
X33021380Y112119476D02*
X33021380Y111929000D01*
X33069000Y111833761D01*
X33116619Y111786142D01*
X33259476Y111690904D01*
X33449952Y111643285D01*
X33830904Y111643285D01*
X33926142Y111690904D01*
X33973761Y111738523D01*
X34021380Y111833761D01*
X34021380Y112024238D01*
X33973761Y112119476D01*
X33926142Y112167095D01*
X33830904Y112214714D01*
X33592809Y112214714D01*
X33497571Y112167095D01*
X33449952Y112119476D01*
X33402333Y112024238D01*
X33402333Y111833761D01*
X33449952Y111738523D01*
X33497571Y111690904D01*
X33592809Y111643285D01*
X94792809Y136596619D02*
X94792809Y137596619D01*
X95030904Y137596619D01*
X95173761Y137549000D01*
X95269000Y137453761D01*
X95316619Y137358523D01*
X95364238Y137168047D01*
X95364238Y137025190D01*
X95316619Y136834714D01*
X95269000Y136739476D01*
X95173761Y136644238D01*
X95030904Y136596619D01*
X94792809Y136596619D01*
X95792809Y136596619D02*
X95792809Y137263285D01*
X95792809Y137596619D02*
X95745190Y137549000D01*
X95792809Y137501380D01*
X95840428Y137549000D01*
X95792809Y137596619D01*
X95792809Y137501380D01*
X96697571Y137263285D02*
X96697571Y136453761D01*
X96649952Y136358523D01*
X96602333Y136310904D01*
X96507095Y136263285D01*
X96364238Y136263285D01*
X96269000Y136310904D01*
X96697571Y136644238D02*
X96602333Y136596619D01*
X96411857Y136596619D01*
X96316619Y136644238D01*
X96269000Y136691857D01*
X96221380Y136787095D01*
X96221380Y137072809D01*
X96269000Y137168047D01*
X96316619Y137215666D01*
X96411857Y137263285D01*
X96602333Y137263285D01*
X96697571Y137215666D01*
X97173761Y136596619D02*
X97173761Y137263285D01*
X97173761Y137596619D02*
X97126142Y137549000D01*
X97173761Y137501380D01*
X97221380Y137549000D01*
X97173761Y137596619D01*
X97173761Y137501380D01*
X97507095Y137263285D02*
X97888047Y137263285D01*
X97649952Y137596619D02*
X97649952Y136739476D01*
X97697571Y136644238D01*
X97792809Y136596619D01*
X97888047Y136596619D01*
X98649952Y136596619D02*
X98649952Y137120428D01*
X98602333Y137215666D01*
X98507095Y137263285D01*
X98316619Y137263285D01*
X98221380Y137215666D01*
X98649952Y136644238D02*
X98554714Y136596619D01*
X98316619Y136596619D01*
X98221380Y136644238D01*
X98173761Y136739476D01*
X98173761Y136834714D01*
X98221380Y136929952D01*
X98316619Y136977571D01*
X98554714Y136977571D01*
X98649952Y137025190D01*
X99269000Y136596619D02*
X99173761Y136644238D01*
X99126142Y136739476D01*
X99126142Y137596619D01*
X100364238Y137644238D02*
X99507095Y136358523D01*
X100697571Y136596619D02*
X100697571Y137596619D01*
X100697571Y137120428D02*
X101269000Y137120428D01*
X101269000Y136596619D02*
X101269000Y137596619D01*
X102173761Y136596619D02*
X102173761Y137120428D01*
X102126142Y137215666D01*
X102030904Y137263285D01*
X101840428Y137263285D01*
X101745190Y137215666D01*
X102173761Y136644238D02*
X102078523Y136596619D01*
X101840428Y136596619D01*
X101745190Y136644238D01*
X101697571Y136739476D01*
X101697571Y136834714D01*
X101745190Y136929952D01*
X101840428Y136977571D01*
X102078523Y136977571D01*
X102173761Y137025190D01*
X102792809Y136596619D02*
X102697571Y136644238D01*
X102649952Y136739476D01*
X102649952Y137596619D01*
X103316619Y136596619D02*
X103221380Y136644238D01*
X103173761Y136739476D01*
X103173761Y137596619D01*
X104459476Y136596619D02*
X104459476Y137596619D01*
X104935666Y137263285D02*
X104935666Y136596619D01*
X104935666Y137168047D02*
X104983285Y137215666D01*
X105078523Y137263285D01*
X105221380Y137263285D01*
X105316619Y137215666D01*
X105364238Y137120428D01*
X105364238Y136596619D01*
X105840428Y137263285D02*
X105840428Y136263285D01*
X105840428Y137215666D02*
X105935666Y137263285D01*
X106126142Y137263285D01*
X106221380Y137215666D01*
X106269000Y137168047D01*
X106316619Y137072809D01*
X106316619Y136787095D01*
X106269000Y136691857D01*
X106221380Y136644238D01*
X106126142Y136596619D01*
X105935666Y136596619D01*
X105840428Y136644238D01*
X107173761Y137263285D02*
X107173761Y136596619D01*
X106745190Y137263285D02*
X106745190Y136739476D01*
X106792809Y136644238D01*
X106888047Y136596619D01*
X107030904Y136596619D01*
X107126142Y136644238D01*
X107173761Y136691857D01*
X107507095Y137263285D02*
X107888047Y137263285D01*
X107649952Y137596619D02*
X107649952Y136739476D01*
X107697571Y136644238D01*
X107792809Y136596619D01*
X107888047Y136596619D01*
D13*
X31734476Y93216857D02*
X31734476Y92621619D01*
X30484476Y92621619D01*
X31734476Y93812095D02*
X31674952Y93693047D01*
X31615428Y93633523D01*
X31496380Y93574000D01*
X31139238Y93574000D01*
X31020190Y93633523D01*
X30960666Y93693047D01*
X30901142Y93812095D01*
X30901142Y93990666D01*
X30960666Y94109714D01*
X31020190Y94169238D01*
X31139238Y94228761D01*
X31496380Y94228761D01*
X31615428Y94169238D01*
X31674952Y94109714D01*
X31734476Y93990666D01*
X31734476Y93812095D01*
X30901142Y94645428D02*
X31734476Y94883523D01*
X31139238Y95121619D01*
X31734476Y95359714D01*
X30901142Y95597809D01*
X31674952Y96014476D02*
X31734476Y96133523D01*
X31734476Y96371619D01*
X31674952Y96490666D01*
X31555904Y96550190D01*
X31496380Y96550190D01*
X31377333Y96490666D01*
X31317809Y96371619D01*
X31317809Y96193047D01*
X31258285Y96074000D01*
X31139238Y96014476D01*
X31079714Y96014476D01*
X30960666Y96074000D01*
X30901142Y96193047D01*
X30901142Y96371619D01*
X30960666Y96490666D01*
X31734476Y97085904D02*
X30901142Y97085904D01*
X30484476Y97085904D02*
X30544000Y97026380D01*
X30603523Y97085904D01*
X30544000Y97145428D01*
X30484476Y97085904D01*
X30603523Y97085904D01*
X31734476Y98216857D02*
X30484476Y98216857D01*
X31674952Y98216857D02*
X31734476Y98097809D01*
X31734476Y97859714D01*
X31674952Y97740666D01*
X31615428Y97681142D01*
X31496380Y97621619D01*
X31139238Y97621619D01*
X31020190Y97681142D01*
X30960666Y97740666D01*
X30901142Y97859714D01*
X30901142Y98097809D01*
X30960666Y98216857D01*
X31674952Y99288285D02*
X31734476Y99169238D01*
X31734476Y98931142D01*
X31674952Y98812095D01*
X31555904Y98752571D01*
X31079714Y98752571D01*
X30960666Y98812095D01*
X30901142Y98931142D01*
X30901142Y99169238D01*
X30960666Y99288285D01*
X31079714Y99347809D01*
X31198761Y99347809D01*
X31317809Y98752571D01*
X30424952Y100776380D02*
X32032095Y99704952D01*
X31734476Y101193047D02*
X30484476Y101193047D01*
X30901142Y101788285D02*
X31734476Y101788285D01*
X31020190Y101788285D02*
X30960666Y101847809D01*
X30901142Y101966857D01*
X30901142Y102145428D01*
X30960666Y102264476D01*
X31079714Y102324000D01*
X31734476Y102324000D01*
X30901142Y102919238D02*
X31972571Y102919238D01*
X32091619Y102859714D01*
X32151142Y102740666D01*
X32151142Y102681142D01*
X30484476Y102919238D02*
X30544000Y102859714D01*
X30603523Y102919238D01*
X30544000Y102978761D01*
X30484476Y102919238D01*
X30603523Y102919238D01*
X31674952Y103990666D02*
X31734476Y103871619D01*
X31734476Y103633523D01*
X31674952Y103514476D01*
X31555904Y103454952D01*
X31079714Y103454952D01*
X30960666Y103514476D01*
X30901142Y103633523D01*
X30901142Y103871619D01*
X30960666Y103990666D01*
X31079714Y104050190D01*
X31198761Y104050190D01*
X31317809Y103454952D01*
X31674952Y105121619D02*
X31734476Y105002571D01*
X31734476Y104764476D01*
X31674952Y104645428D01*
X31615428Y104585904D01*
X31496380Y104526380D01*
X31139238Y104526380D01*
X31020190Y104585904D01*
X30960666Y104645428D01*
X30901142Y104764476D01*
X30901142Y105002571D01*
X30960666Y105121619D01*
X30901142Y105478761D02*
X30901142Y105954952D01*
X30484476Y105657333D02*
X31555904Y105657333D01*
X31674952Y105716857D01*
X31734476Y105835904D01*
X31734476Y105954952D01*
X31734476Y106550190D02*
X31674952Y106431142D01*
X31615428Y106371619D01*
X31496380Y106312095D01*
X31139238Y106312095D01*
X31020190Y106371619D01*
X30960666Y106431142D01*
X30901142Y106550190D01*
X30901142Y106728761D01*
X30960666Y106847809D01*
X31020190Y106907333D01*
X31139238Y106966857D01*
X31496380Y106966857D01*
X31615428Y106907333D01*
X31674952Y106847809D01*
X31734476Y106728761D01*
X31734476Y106550190D01*
X31734476Y107502571D02*
X30901142Y107502571D01*
X31139238Y107502571D02*
X31020190Y107562095D01*
X30960666Y107621619D01*
X30901142Y107740666D01*
X30901142Y107859714D01*
X30484476Y109466857D02*
X30484476Y109704952D01*
X30544000Y109824000D01*
X30663047Y109943047D01*
X30901142Y110002571D01*
X31317809Y110002571D01*
X31555904Y109943047D01*
X31674952Y109824000D01*
X31734476Y109704952D01*
X31734476Y109466857D01*
X31674952Y109347809D01*
X31555904Y109228761D01*
X31317809Y109169238D01*
X30901142Y109169238D01*
X30663047Y109228761D01*
X30544000Y109347809D01*
X30484476Y109466857D01*
X30901142Y111074000D02*
X31734476Y111074000D01*
X30901142Y110538285D02*
X31555904Y110538285D01*
X31674952Y110597809D01*
X31734476Y110716857D01*
X31734476Y110895428D01*
X31674952Y111014476D01*
X31615428Y111074000D01*
X30901142Y111490666D02*
X30901142Y111966857D01*
X30484476Y111669238D02*
X31555904Y111669238D01*
X31674952Y111728761D01*
X31734476Y111847809D01*
X31734476Y111966857D01*
X30901142Y112383523D02*
X32151142Y112383523D01*
X30960666Y112383523D02*
X30901142Y112502571D01*
X30901142Y112740666D01*
X30960666Y112859714D01*
X31020190Y112919238D01*
X31139238Y112978761D01*
X31496380Y112978761D01*
X31615428Y112919238D01*
X31674952Y112859714D01*
X31734476Y112740666D01*
X31734476Y112502571D01*
X31674952Y112383523D01*
X30901142Y114050190D02*
X31734476Y114050190D01*
X30901142Y113514476D02*
X31555904Y113514476D01*
X31674952Y113574000D01*
X31734476Y113693047D01*
X31734476Y113871619D01*
X31674952Y113990666D01*
X31615428Y114050190D01*
X30901142Y114466857D02*
X30901142Y114943047D01*
X30484476Y114645428D02*
X31555904Y114645428D01*
X31674952Y114704952D01*
X31734476Y114824000D01*
X31734476Y114943047D01*
X31674952Y115300190D02*
X31734476Y115419238D01*
X31734476Y115657333D01*
X31674952Y115776380D01*
X31555904Y115835904D01*
X31496380Y115835904D01*
X31377333Y115776380D01*
X31317809Y115657333D01*
X31317809Y115478761D01*
X31258285Y115359714D01*
X31139238Y115300190D01*
X31079714Y115300190D01*
X30960666Y115359714D01*
X30901142Y115478761D01*
X30901142Y115657333D01*
X30960666Y115776380D01*
D12*
X146749761Y95060904D02*
X146797380Y95203761D01*
X146797380Y95441857D01*
X146749761Y95537095D01*
X146702142Y95584714D01*
X146606904Y95632333D01*
X146511666Y95632333D01*
X146416428Y95584714D01*
X146368809Y95537095D01*
X146321190Y95441857D01*
X146273571Y95251380D01*
X146225952Y95156142D01*
X146178333Y95108523D01*
X146083095Y95060904D01*
X145987857Y95060904D01*
X145892619Y95108523D01*
X145845000Y95156142D01*
X145797380Y95251380D01*
X145797380Y95489476D01*
X145845000Y95632333D01*
X146749761Y96441857D02*
X146797380Y96346619D01*
X146797380Y96156142D01*
X146749761Y96060904D01*
X146654523Y96013285D01*
X146273571Y96013285D01*
X146178333Y96060904D01*
X146130714Y96156142D01*
X146130714Y96346619D01*
X146178333Y96441857D01*
X146273571Y96489476D01*
X146368809Y96489476D01*
X146464047Y96013285D01*
X146130714Y96918047D02*
X146797380Y96918047D01*
X146225952Y96918047D02*
X146178333Y96965666D01*
X146130714Y97060904D01*
X146130714Y97203761D01*
X146178333Y97299000D01*
X146273571Y97346619D01*
X146797380Y97346619D01*
X146749761Y97775190D02*
X146797380Y97870428D01*
X146797380Y98060904D01*
X146749761Y98156142D01*
X146654523Y98203761D01*
X146606904Y98203761D01*
X146511666Y98156142D01*
X146464047Y98060904D01*
X146464047Y97918047D01*
X146416428Y97822809D01*
X146321190Y97775190D01*
X146273571Y97775190D01*
X146178333Y97822809D01*
X146130714Y97918047D01*
X146130714Y98060904D01*
X146178333Y98156142D01*
X146797380Y98775190D02*
X146749761Y98679952D01*
X146702142Y98632333D01*
X146606904Y98584714D01*
X146321190Y98584714D01*
X146225952Y98632333D01*
X146178333Y98679952D01*
X146130714Y98775190D01*
X146130714Y98918047D01*
X146178333Y99013285D01*
X146225952Y99060904D01*
X146321190Y99108523D01*
X146606904Y99108523D01*
X146702142Y99060904D01*
X146749761Y99013285D01*
X146797380Y98918047D01*
X146797380Y98775190D01*
X146797380Y99537095D02*
X146130714Y99537095D01*
X146321190Y99537095D02*
X146225952Y99584714D01*
X146178333Y99632333D01*
X146130714Y99727571D01*
X146130714Y99822809D01*
X145845000Y101441857D02*
X145797380Y101346619D01*
X145797380Y101203761D01*
X145845000Y101060904D01*
X145940238Y100965666D01*
X146035476Y100918047D01*
X146225952Y100870428D01*
X146368809Y100870428D01*
X146559285Y100918047D01*
X146654523Y100965666D01*
X146749761Y101060904D01*
X146797380Y101203761D01*
X146797380Y101299000D01*
X146749761Y101441857D01*
X146702142Y101489476D01*
X146368809Y101489476D01*
X146368809Y101299000D01*
X146797380Y101918047D02*
X145797380Y101918047D01*
X146797380Y102489476D01*
X145797380Y102489476D01*
X146797380Y102965666D02*
X145797380Y102965666D01*
X145797380Y103203761D01*
X145845000Y103346619D01*
X145940238Y103441857D01*
X146035476Y103489476D01*
X146225952Y103537095D01*
X146368809Y103537095D01*
X146559285Y103489476D01*
X146654523Y103441857D01*
X146749761Y103346619D01*
X146797380Y103203761D01*
X146797380Y102965666D01*
X43038380Y114151523D02*
X43038380Y114342000D01*
X42990761Y114437238D01*
X42943142Y114484857D01*
X42800285Y114580095D01*
X42609809Y114627714D01*
X42228857Y114627714D01*
X42133619Y114580095D01*
X42086000Y114532476D01*
X42038380Y114437238D01*
X42038380Y114246761D01*
X42086000Y114151523D01*
X42133619Y114103904D01*
X42228857Y114056285D01*
X42466952Y114056285D01*
X42562190Y114103904D01*
X42609809Y114151523D01*
X42657428Y114246761D01*
X42657428Y114437238D01*
X42609809Y114532476D01*
X42562190Y114580095D01*
X42466952Y114627714D01*
X133369000Y106937095D02*
X133321380Y106841857D01*
X133321380Y106699000D01*
X133369000Y106556142D01*
X133464238Y106460904D01*
X133559476Y106413285D01*
X133749952Y106365666D01*
X133892809Y106365666D01*
X134083285Y106413285D01*
X134178523Y106460904D01*
X134273761Y106556142D01*
X134321380Y106699000D01*
X134321380Y106794238D01*
X134273761Y106937095D01*
X134226142Y106984714D01*
X133892809Y106984714D01*
X133892809Y106794238D01*
X134321380Y107413285D02*
X133321380Y107413285D01*
X134321380Y107984714D01*
X133321380Y107984714D01*
X134321380Y108460904D02*
X133321380Y108460904D01*
X133321380Y108699000D01*
X133369000Y108841857D01*
X133464238Y108937095D01*
X133559476Y108984714D01*
X133749952Y109032333D01*
X133892809Y109032333D01*
X134083285Y108984714D01*
X134178523Y108937095D01*
X134273761Y108841857D01*
X134321380Y108699000D01*
X134321380Y108460904D01*
X136653380Y109516095D02*
X136653380Y110087523D01*
X137653380Y109801809D02*
X136653380Y109801809D01*
X136748619Y110373238D02*
X136701000Y110420857D01*
X136653380Y110516095D01*
X136653380Y110754190D01*
X136701000Y110849428D01*
X136748619Y110897047D01*
X136843857Y110944666D01*
X136939095Y110944666D01*
X137081952Y110897047D01*
X137653380Y110325619D01*
X137653380Y110944666D01*
X95608476Y134447619D02*
X95418000Y134447619D01*
X95322761Y134400000D01*
X95275142Y134352380D01*
X95179904Y134209523D01*
X95132285Y134019047D01*
X95132285Y133638095D01*
X95179904Y133542857D01*
X95227523Y133495238D01*
X95322761Y133447619D01*
X95513238Y133447619D01*
X95608476Y133495238D01*
X95656095Y133542857D01*
X95703714Y133638095D01*
X95703714Y133876190D01*
X95656095Y133971428D01*
X95608476Y134019047D01*
X95513238Y134066666D01*
X95322761Y134066666D01*
X95227523Y134019047D01*
X95179904Y133971428D01*
X95132285Y133876190D01*
X140590380Y115485095D02*
X140590380Y116056523D01*
X141590380Y115770809D02*
X140590380Y115770809D01*
X140590380Y116294619D02*
X140590380Y116913666D01*
X140971333Y116580333D01*
X140971333Y116723190D01*
X141018952Y116818428D01*
X141066571Y116866047D01*
X141161809Y116913666D01*
X141399904Y116913666D01*
X141495142Y116866047D01*
X141542761Y116818428D01*
X141590380Y116723190D01*
X141590380Y116437476D01*
X141542761Y116342238D01*
X141495142Y116294619D01*
X106967142Y130494857D02*
X106919523Y130447238D01*
X106776666Y130399619D01*
X106681428Y130399619D01*
X106538571Y130447238D01*
X106443333Y130542476D01*
X106395714Y130637714D01*
X106348095Y130828190D01*
X106348095Y130971047D01*
X106395714Y131161523D01*
X106443333Y131256761D01*
X106538571Y131352000D01*
X106681428Y131399619D01*
X106776666Y131399619D01*
X106919523Y131352000D01*
X106967142Y131304380D01*
X107348095Y130685333D02*
X107824285Y130685333D01*
X107252857Y130399619D02*
X107586190Y131399619D01*
X107919523Y130399619D01*
X108252857Y130399619D02*
X108252857Y131399619D01*
X108824285Y130399619D01*
X108824285Y131399619D01*
X42921380Y122008523D02*
X42921380Y121437095D01*
X42921380Y121722809D02*
X41921380Y121722809D01*
X42064238Y121627571D01*
X42159476Y121532333D01*
X42207095Y121437095D01*
X42921380Y122960904D02*
X42921380Y122389476D01*
X42921380Y122675190D02*
X41921380Y122675190D01*
X42064238Y122579952D01*
X42159476Y122484714D01*
X42207095Y122389476D01*
X136907380Y100991285D02*
X137907380Y101324619D01*
X136907380Y101657952D01*
X137907380Y102515095D02*
X137907380Y101943666D01*
X137907380Y102229380D02*
X136907380Y102229380D01*
X137050238Y102134142D01*
X137145476Y102038904D01*
X137193095Y101943666D01*
X136907380Y103134142D02*
X136907380Y103229380D01*
X136955000Y103324619D01*
X137002619Y103372238D01*
X137097857Y103419857D01*
X137288333Y103467476D01*
X137526428Y103467476D01*
X137716904Y103419857D01*
X137812142Y103372238D01*
X137859761Y103324619D01*
X137907380Y103229380D01*
X137907380Y103134142D01*
X137859761Y103038904D01*
X137812142Y102991285D01*
X137716904Y102943666D01*
X137526428Y102896047D01*
X137288333Y102896047D01*
X137097857Y102943666D01*
X137002619Y102991285D01*
X136955000Y103038904D01*
X136907380Y103134142D01*
X72366619Y136220428D02*
X72699952Y136220428D01*
X72842809Y135696619D02*
X72366619Y135696619D01*
X72366619Y136696619D01*
X72842809Y136696619D01*
X73128523Y136696619D02*
X73699952Y136696619D01*
X73414238Y135696619D02*
X73414238Y136696619D01*
X74366619Y136220428D02*
X74509476Y136172809D01*
X74557095Y136125190D01*
X74604714Y136029952D01*
X74604714Y135887095D01*
X74557095Y135791857D01*
X74509476Y135744238D01*
X74414238Y135696619D01*
X74033285Y135696619D01*
X74033285Y136696619D01*
X74366619Y136696619D01*
X74461857Y136649000D01*
X74509476Y136601380D01*
X74557095Y136506142D01*
X74557095Y136410904D01*
X74509476Y136315666D01*
X74461857Y136268047D01*
X74366619Y136220428D01*
X74033285Y136220428D01*
X75747571Y136601380D02*
X75795190Y136649000D01*
X75890428Y136696619D01*
X76128523Y136696619D01*
X76223761Y136649000D01*
X76271380Y136601380D01*
X76319000Y136506142D01*
X76319000Y136410904D01*
X76271380Y136268047D01*
X75699952Y135696619D01*
X76319000Y135696619D01*
X136653380Y85338476D02*
X137653380Y85671809D01*
X136653380Y86005142D01*
X136748619Y86290857D02*
X136701000Y86338476D01*
X136653380Y86433714D01*
X136653380Y86671809D01*
X136701000Y86767047D01*
X136748619Y86814666D01*
X136843857Y86862285D01*
X136939095Y86862285D01*
X137081952Y86814666D01*
X137653380Y86243238D01*
X137653380Y86862285D01*
X140463380Y103372476D02*
X141463380Y103705809D01*
X140463380Y104039142D01*
X141463380Y104420095D02*
X141463380Y104610571D01*
X141415761Y104705809D01*
X141368142Y104753428D01*
X141225285Y104848666D01*
X141034809Y104896285D01*
X140653857Y104896285D01*
X140558619Y104848666D01*
X140511000Y104801047D01*
X140463380Y104705809D01*
X140463380Y104515333D01*
X140511000Y104420095D01*
X140558619Y104372476D01*
X140653857Y104324857D01*
X140891952Y104324857D01*
X140987190Y104372476D01*
X141034809Y104420095D01*
X141082428Y104515333D01*
X141082428Y104705809D01*
X141034809Y104801047D01*
X140987190Y104848666D01*
X140891952Y104896285D01*
X140590380Y91307476D02*
X141590380Y91640809D01*
X140590380Y91974142D01*
X140590380Y92212238D02*
X140590380Y92831285D01*
X140971333Y92497952D01*
X140971333Y92640809D01*
X141018952Y92736047D01*
X141066571Y92783666D01*
X141161809Y92831285D01*
X141399904Y92831285D01*
X141495142Y92783666D01*
X141542761Y92736047D01*
X141590380Y92640809D01*
X141590380Y92355095D01*
X141542761Y92259857D01*
X141495142Y92212238D01*
D14*
X74186695Y127710600D02*
X73373895Y127710600D01*
X73954466Y127981533D01*
X73373895Y128252466D01*
X74186695Y128252466D01*
X74186695Y128987857D02*
X73760942Y128987857D01*
X73683533Y128949152D01*
X73644828Y128871742D01*
X73644828Y128716923D01*
X73683533Y128639514D01*
X74147990Y128987857D02*
X74186695Y128910447D01*
X74186695Y128716923D01*
X74147990Y128639514D01*
X74070580Y128600809D01*
X73993171Y128600809D01*
X73915761Y128639514D01*
X73877057Y128716923D01*
X73877057Y128910447D01*
X73838352Y128987857D01*
X74186695Y129374904D02*
X73644828Y129374904D01*
X73373895Y129374904D02*
X73412600Y129336200D01*
X73451304Y129374904D01*
X73412600Y129413609D01*
X73373895Y129374904D01*
X73451304Y129374904D01*
X73644828Y129761952D02*
X74186695Y129761952D01*
X73722238Y129761952D02*
X73683533Y129800657D01*
X73644828Y129878066D01*
X73644828Y129994180D01*
X73683533Y130071590D01*
X73760942Y130110295D01*
X74186695Y130110295D01*
X74186695Y131581076D02*
X73799647Y131310142D01*
X74186695Y131116619D02*
X73373895Y131116619D01*
X73373895Y131426257D01*
X73412600Y131503666D01*
X73451304Y131542371D01*
X73528714Y131581076D01*
X73644828Y131581076D01*
X73722238Y131542371D01*
X73760942Y131503666D01*
X73799647Y131426257D01*
X73799647Y131116619D01*
X74186695Y132045533D02*
X74147990Y131968123D01*
X74070580Y131929419D01*
X73373895Y131929419D01*
X73644828Y132277761D02*
X74186695Y132471285D01*
X73644828Y132664809D02*
X74186695Y132471285D01*
X74380219Y132393876D01*
X74418923Y132355171D01*
X74457628Y132277761D01*
D12*
X34021380Y87608523D02*
X34021380Y87037095D01*
X34021380Y87322809D02*
X33021380Y87322809D01*
X33164238Y87227571D01*
X33259476Y87132333D01*
X33307095Y87037095D01*
X33021380Y88513285D02*
X33021380Y88037095D01*
X33497571Y87989476D01*
X33449952Y88037095D01*
X33402333Y88132333D01*
X33402333Y88370428D01*
X33449952Y88465666D01*
X33497571Y88513285D01*
X33592809Y88560904D01*
X33830904Y88560904D01*
X33926142Y88513285D01*
X33973761Y88465666D01*
X34021380Y88370428D01*
X34021380Y88132333D01*
X33973761Y88037095D01*
X33926142Y87989476D01*
D15*
X34007095Y147094238D02*
X34388047Y147094238D01*
X34578523Y146999000D01*
X34769000Y146808523D01*
X34864238Y146427571D01*
X34864238Y145760904D01*
X34769000Y145379952D01*
X34578523Y145189476D01*
X34388047Y145094238D01*
X34007095Y145094238D01*
X33816619Y145189476D01*
X33626142Y145379952D01*
X33530904Y145760904D01*
X33530904Y146427571D01*
X33626142Y146808523D01*
X33816619Y146999000D01*
X34007095Y147094238D01*
X35721380Y147094238D02*
X35721380Y145475190D01*
X35816619Y145284714D01*
X35911857Y145189476D01*
X36102333Y145094238D01*
X36483285Y145094238D01*
X36673761Y145189476D01*
X36769000Y145284714D01*
X36864238Y145475190D01*
X36864238Y147094238D01*
X37530904Y147094238D02*
X38673761Y147094238D01*
X38102333Y145094238D02*
X38102333Y147094238D01*
X39340428Y145094238D02*
X39340428Y147094238D01*
X40102333Y147094238D01*
X40292809Y146999000D01*
X40388047Y146903761D01*
X40483285Y146713285D01*
X40483285Y146427571D01*
X40388047Y146237095D01*
X40292809Y146141857D01*
X40102333Y146046619D01*
X39340428Y146046619D01*
X41340428Y147094238D02*
X41340428Y145475190D01*
X41435666Y145284714D01*
X41530904Y145189476D01*
X41721380Y145094238D01*
X42102333Y145094238D01*
X42292809Y145189476D01*
X42388047Y145284714D01*
X42483285Y145475190D01*
X42483285Y147094238D01*
X43149952Y147094238D02*
X44292809Y147094238D01*
X43721380Y145094238D02*
X43721380Y147094238D01*
X44864238Y145189476D02*
X45149952Y145094238D01*
X45626142Y145094238D01*
X45816619Y145189476D01*
X45911857Y145284714D01*
X46007095Y145475190D01*
X46007095Y145665666D01*
X45911857Y145856142D01*
X45816619Y145951380D01*
X45626142Y146046619D01*
X45245190Y146141857D01*
X45054714Y146237095D01*
X44959476Y146332333D01*
X44864238Y146522809D01*
X44864238Y146713285D01*
X44959476Y146903761D01*
X45054714Y146999000D01*
X45245190Y147094238D01*
X45721380Y147094238D01*
X46007095Y146999000D01*
D12*
X46271380Y106189476D02*
X45271380Y106189476D01*
X45604714Y107094238D02*
X46414238Y107094238D01*
X46509476Y107046619D01*
X46557095Y106999000D01*
X46604714Y106903761D01*
X46604714Y106760904D01*
X46557095Y106665666D01*
X46223761Y107094238D02*
X46271380Y106999000D01*
X46271380Y106808523D01*
X46223761Y106713285D01*
X46176142Y106665666D01*
X46080904Y106618047D01*
X45795190Y106618047D01*
X45699952Y106665666D01*
X45652333Y106713285D01*
X45604714Y106808523D01*
X45604714Y106999000D01*
X45652333Y107094238D01*
X45604714Y107570428D02*
X46271380Y107570428D01*
X45699952Y107570428D02*
X45652333Y107618047D01*
X45604714Y107713285D01*
X45604714Y107856142D01*
X45652333Y107951380D01*
X45747571Y107999000D01*
X46271380Y107999000D01*
X46271380Y108475190D02*
X45604714Y108475190D01*
X45271380Y108475190D02*
X45319000Y108427571D01*
X45366619Y108475190D01*
X45319000Y108522809D01*
X45271380Y108475190D01*
X45366619Y108475190D01*
X45604714Y108808523D02*
X45604714Y109189476D01*
X45271380Y108951380D02*
X46128523Y108951380D01*
X46223761Y108999000D01*
X46271380Y109094238D01*
X46271380Y109189476D01*
X46271380Y109522809D02*
X45604714Y109522809D01*
X45271380Y109522809D02*
X45319000Y109475190D01*
X45366619Y109522809D01*
X45319000Y109570428D01*
X45271380Y109522809D01*
X45366619Y109522809D01*
X46271380Y110141857D02*
X46223761Y110046619D01*
X46176142Y109999000D01*
X46080904Y109951380D01*
X45795190Y109951380D01*
X45699952Y109999000D01*
X45652333Y110046619D01*
X45604714Y110141857D01*
X45604714Y110284714D01*
X45652333Y110379952D01*
X45699952Y110427571D01*
X45795190Y110475190D01*
X46080904Y110475190D01*
X46176142Y110427571D01*
X46223761Y110379952D01*
X46271380Y110284714D01*
X46271380Y110141857D01*
X45604714Y110903761D02*
X46271380Y110903761D01*
X45699952Y110903761D02*
X45652333Y110951380D01*
X45604714Y111046619D01*
X45604714Y111189476D01*
X45652333Y111284714D01*
X45747571Y111332333D01*
X46271380Y111332333D01*
X45271380Y112760904D02*
X45271380Y112951380D01*
X45319000Y113046619D01*
X45414238Y113141857D01*
X45604714Y113189476D01*
X45938047Y113189476D01*
X46128523Y113141857D01*
X46223761Y113046619D01*
X46271380Y112951380D01*
X46271380Y112760904D01*
X46223761Y112665666D01*
X46128523Y112570428D01*
X45938047Y112522809D01*
X45604714Y112522809D01*
X45414238Y112570428D01*
X45319000Y112665666D01*
X45271380Y112760904D01*
X45604714Y114046619D02*
X46271380Y114046619D01*
X45604714Y113618047D02*
X46128523Y113618047D01*
X46223761Y113665666D01*
X46271380Y113760904D01*
X46271380Y113903761D01*
X46223761Y113999000D01*
X46176142Y114046619D01*
X45604714Y114379952D02*
X45604714Y114760904D01*
X45271380Y114522809D02*
X46128523Y114522809D01*
X46223761Y114570428D01*
X46271380Y114665666D01*
X46271380Y114760904D01*
X45604714Y115094238D02*
X46604714Y115094238D01*
X45652333Y115094238D02*
X45604714Y115189476D01*
X45604714Y115379952D01*
X45652333Y115475190D01*
X45699952Y115522809D01*
X45795190Y115570428D01*
X46080904Y115570428D01*
X46176142Y115522809D01*
X46223761Y115475190D01*
X46271380Y115379952D01*
X46271380Y115189476D01*
X46223761Y115094238D01*
X45604714Y116427571D02*
X46271380Y116427571D01*
X45604714Y115999000D02*
X46128523Y115999000D01*
X46223761Y116046619D01*
X46271380Y116141857D01*
X46271380Y116284714D01*
X46223761Y116379952D01*
X46176142Y116427571D01*
X45604714Y116760904D02*
X45604714Y117141857D01*
X45271380Y116903761D02*
X46128523Y116903761D01*
X46223761Y116951380D01*
X46271380Y117046619D01*
X46271380Y117141857D01*
X46223761Y117427571D02*
X46271380Y117522809D01*
X46271380Y117713285D01*
X46223761Y117808523D01*
X46128523Y117856142D01*
X46080904Y117856142D01*
X45985666Y117808523D01*
X45938047Y117713285D01*
X45938047Y117570428D01*
X45890428Y117475190D01*
X45795190Y117427571D01*
X45747571Y117427571D01*
X45652333Y117475190D01*
X45604714Y117570428D01*
X45604714Y117713285D01*
X45652333Y117808523D01*
X37164714Y118215476D02*
X37831380Y118215476D01*
X36783761Y117977380D02*
X37498047Y117739285D01*
X37498047Y118358333D01*
X74590047Y137257571D02*
X75351952Y137257571D01*
X43800380Y86433714D02*
X43800380Y85862285D01*
X43800380Y86148000D02*
X42800380Y86148000D01*
X42943238Y86052761D01*
X43038476Y85957523D01*
X43086095Y85862285D01*
D16*
X89296600Y130359723D02*
X89257895Y130282314D01*
X89257895Y130166200D01*
X89296600Y130050085D01*
X89374009Y129972676D01*
X89451419Y129933971D01*
X89606238Y129895266D01*
X89722352Y129895266D01*
X89877171Y129933971D01*
X89954580Y129972676D01*
X90031990Y130050085D01*
X90070695Y130166200D01*
X90070695Y130243609D01*
X90031990Y130359723D01*
X89993285Y130398428D01*
X89722352Y130398428D01*
X89722352Y130243609D01*
X90070695Y130746771D02*
X89257895Y130746771D01*
X90070695Y131211228D01*
X89257895Y131211228D01*
X90070695Y131598276D02*
X89257895Y131598276D01*
X89257895Y131791800D01*
X89296600Y131907914D01*
X89374009Y131985323D01*
X89451419Y132024028D01*
X89606238Y132062733D01*
X89722352Y132062733D01*
X89877171Y132024028D01*
X89954580Y131985323D01*
X90031990Y131907914D01*
X90070695Y131791800D01*
X90070695Y131598276D01*
D12*
X140463380Y99181476D02*
X141463380Y99514809D01*
X140463380Y99848142D01*
X140463380Y100086238D02*
X140463380Y100752904D01*
X141463380Y100324333D01*
X42911380Y117834523D02*
X42911380Y117263095D01*
X42911380Y117548809D02*
X41911380Y117548809D01*
X42054238Y117453571D01*
X42149476Y117358333D01*
X42197095Y117263095D01*
X41911380Y118453571D02*
X41911380Y118548809D01*
X41959000Y118644047D01*
X42006619Y118691666D01*
X42101857Y118739285D01*
X42292333Y118786904D01*
X42530428Y118786904D01*
X42720904Y118739285D01*
X42816142Y118691666D01*
X42863761Y118644047D01*
X42911380Y118548809D01*
X42911380Y118453571D01*
X42863761Y118358333D01*
X42816142Y118310714D01*
X42720904Y118263095D01*
X42530428Y118215476D01*
X42292333Y118215476D01*
X42101857Y118263095D01*
X42006619Y118310714D01*
X41959000Y118358333D01*
X41911380Y118453571D01*
X34021380Y99800523D02*
X34021380Y99229095D01*
X34021380Y99514809D02*
X33021380Y99514809D01*
X33164238Y99419571D01*
X33259476Y99324333D01*
X33307095Y99229095D01*
X34021380Y100752904D02*
X34021380Y100181476D01*
X34021380Y100467190D02*
X33021380Y100467190D01*
X33164238Y100371952D01*
X33259476Y100276714D01*
X33307095Y100181476D01*
X136780380Y113707095D02*
X136780380Y114278523D01*
X137780380Y113992809D02*
X136780380Y113992809D01*
X137113714Y115040428D02*
X137780380Y115040428D01*
X136732761Y114802333D02*
X137447047Y114564238D01*
X137447047Y115183285D01*
X86226142Y143496619D02*
X86559476Y142496619D01*
X86892809Y143496619D01*
X87797571Y142496619D02*
X87464238Y142972809D01*
X87226142Y142496619D02*
X87226142Y143496619D01*
X87607095Y143496619D01*
X87702333Y143449000D01*
X87749952Y143401380D01*
X87797571Y143306142D01*
X87797571Y143163285D01*
X87749952Y143068047D01*
X87702333Y143020428D01*
X87607095Y142972809D01*
X87226142Y142972809D01*
X88940428Y142544238D02*
X89083285Y142496619D01*
X89321380Y142496619D01*
X89416619Y142544238D01*
X89464238Y142591857D01*
X89511857Y142687095D01*
X89511857Y142782333D01*
X89464238Y142877571D01*
X89416619Y142925190D01*
X89321380Y142972809D01*
X89130904Y143020428D01*
X89035666Y143068047D01*
X88988047Y143115666D01*
X88940428Y143210904D01*
X88940428Y143306142D01*
X88988047Y143401380D01*
X89035666Y143449000D01*
X89130904Y143496619D01*
X89369000Y143496619D01*
X89511857Y143449000D01*
X90321380Y142544238D02*
X90226142Y142496619D01*
X90035666Y142496619D01*
X89940428Y142544238D01*
X89892809Y142639476D01*
X89892809Y143020428D01*
X89940428Y143115666D01*
X90035666Y143163285D01*
X90226142Y143163285D01*
X90321380Y143115666D01*
X90369000Y143020428D01*
X90369000Y142925190D01*
X89892809Y142829952D01*
X90797571Y143163285D02*
X90797571Y142496619D01*
X90797571Y143068047D02*
X90845190Y143115666D01*
X90940428Y143163285D01*
X91083285Y143163285D01*
X91178523Y143115666D01*
X91226142Y143020428D01*
X91226142Y142496619D01*
X91654714Y142544238D02*
X91749952Y142496619D01*
X91940428Y142496619D01*
X92035666Y142544238D01*
X92083285Y142639476D01*
X92083285Y142687095D01*
X92035666Y142782333D01*
X91940428Y142829952D01*
X91797571Y142829952D01*
X91702333Y142877571D01*
X91654714Y142972809D01*
X91654714Y143020428D01*
X91702333Y143115666D01*
X91797571Y143163285D01*
X91940428Y143163285D01*
X92035666Y143115666D01*
X92654714Y142496619D02*
X92559476Y142544238D01*
X92511857Y142591857D01*
X92464238Y142687095D01*
X92464238Y142972809D01*
X92511857Y143068047D01*
X92559476Y143115666D01*
X92654714Y143163285D01*
X92797571Y143163285D01*
X92892809Y143115666D01*
X92940428Y143068047D01*
X92988047Y142972809D01*
X92988047Y142687095D01*
X92940428Y142591857D01*
X92892809Y142544238D01*
X92797571Y142496619D01*
X92654714Y142496619D01*
X93416619Y142496619D02*
X93416619Y143163285D01*
X93416619Y142972809D02*
X93464238Y143068047D01*
X93511857Y143115666D01*
X93607095Y143163285D01*
X93702333Y143163285D01*
X93988047Y142544238D02*
X94083285Y142496619D01*
X94273761Y142496619D01*
X94369000Y142544238D01*
X94416619Y142639476D01*
X94416619Y142687095D01*
X94369000Y142782333D01*
X94273761Y142829952D01*
X94130904Y142829952D01*
X94035666Y142877571D01*
X93988047Y142972809D01*
X93988047Y143020428D01*
X94035666Y143115666D01*
X94130904Y143163285D01*
X94273761Y143163285D01*
X94369000Y143115666D01*
X33021380Y119723666D02*
X33021380Y120342714D01*
X33402333Y120009380D01*
X33402333Y120152238D01*
X33449952Y120247476D01*
X33497571Y120295095D01*
X33592809Y120342714D01*
X33830904Y120342714D01*
X33926142Y120295095D01*
X33973761Y120247476D01*
X34021380Y120152238D01*
X34021380Y119866523D01*
X33973761Y119771285D01*
X33926142Y119723666D01*
X37958380Y97768523D02*
X37958380Y97197095D01*
X37958380Y97482809D02*
X36958380Y97482809D01*
X37101238Y97387571D01*
X37196476Y97292333D01*
X37244095Y97197095D01*
X37053619Y98149476D02*
X37006000Y98197095D01*
X36958380Y98292333D01*
X36958380Y98530428D01*
X37006000Y98625666D01*
X37053619Y98673285D01*
X37148857Y98720904D01*
X37244095Y98720904D01*
X37386952Y98673285D01*
X37958380Y98101857D01*
X37958380Y98720904D01*
X101180666Y140670619D02*
X101799714Y140670619D01*
X101466380Y140289666D01*
X101609238Y140289666D01*
X101704476Y140242047D01*
X101752095Y140194428D01*
X101799714Y140099190D01*
X101799714Y139861095D01*
X101752095Y139765857D01*
X101704476Y139718238D01*
X101609238Y139670619D01*
X101323523Y139670619D01*
X101228285Y139718238D01*
X101180666Y139765857D01*
X33864238Y135651619D02*
X33864238Y136651619D01*
X33864238Y136175428D02*
X34435666Y136175428D01*
X34435666Y135651619D02*
X34435666Y136651619D01*
X34911857Y135651619D02*
X34911857Y136318285D01*
X34911857Y136651619D02*
X34864238Y136604000D01*
X34911857Y136556380D01*
X34959476Y136604000D01*
X34911857Y136651619D01*
X34911857Y136556380D01*
X35816619Y136318285D02*
X35816619Y135508761D01*
X35769000Y135413523D01*
X35721380Y135365904D01*
X35626142Y135318285D01*
X35483285Y135318285D01*
X35388047Y135365904D01*
X35816619Y135699238D02*
X35721380Y135651619D01*
X35530904Y135651619D01*
X35435666Y135699238D01*
X35388047Y135746857D01*
X35340428Y135842095D01*
X35340428Y136127809D01*
X35388047Y136223047D01*
X35435666Y136270666D01*
X35530904Y136318285D01*
X35721380Y136318285D01*
X35816619Y136270666D01*
X36292809Y135651619D02*
X36292809Y136651619D01*
X36721380Y135651619D02*
X36721380Y136175428D01*
X36673761Y136270666D01*
X36578523Y136318285D01*
X36435666Y136318285D01*
X36340428Y136270666D01*
X36292809Y136223047D01*
X37911857Y135699238D02*
X38054714Y135651619D01*
X38292809Y135651619D01*
X38388047Y135699238D01*
X38435666Y135746857D01*
X38483285Y135842095D01*
X38483285Y135937333D01*
X38435666Y136032571D01*
X38388047Y136080190D01*
X38292809Y136127809D01*
X38102333Y136175428D01*
X38007095Y136223047D01*
X37959476Y136270666D01*
X37911857Y136365904D01*
X37911857Y136461142D01*
X37959476Y136556380D01*
X38007095Y136604000D01*
X38102333Y136651619D01*
X38340428Y136651619D01*
X38483285Y136604000D01*
X38911857Y135651619D02*
X38911857Y136318285D01*
X38911857Y136651619D02*
X38864238Y136604000D01*
X38911857Y136556380D01*
X38959476Y136604000D01*
X38911857Y136651619D01*
X38911857Y136556380D01*
X39816619Y135651619D02*
X39816619Y136651619D01*
X39816619Y135699238D02*
X39721380Y135651619D01*
X39530904Y135651619D01*
X39435666Y135699238D01*
X39388047Y135746857D01*
X39340428Y135842095D01*
X39340428Y136127809D01*
X39388047Y136223047D01*
X39435666Y136270666D01*
X39530904Y136318285D01*
X39721380Y136318285D01*
X39816619Y136270666D01*
X40673761Y135699238D02*
X40578523Y135651619D01*
X40388047Y135651619D01*
X40292809Y135699238D01*
X40245190Y135794476D01*
X40245190Y136175428D01*
X40292809Y136270666D01*
X40388047Y136318285D01*
X40578523Y136318285D01*
X40673761Y136270666D01*
X40721380Y136175428D01*
X40721380Y136080190D01*
X40245190Y135984952D01*
X34840428Y135041619D02*
X35030904Y135041619D01*
X35126142Y134994000D01*
X35221380Y134898761D01*
X35269000Y134708285D01*
X35269000Y134374952D01*
X35221380Y134184476D01*
X35126142Y134089238D01*
X35030904Y134041619D01*
X34840428Y134041619D01*
X34745190Y134089238D01*
X34649952Y134184476D01*
X34602333Y134374952D01*
X34602333Y134708285D01*
X34649952Y134898761D01*
X34745190Y134994000D01*
X34840428Y135041619D01*
X36126142Y134708285D02*
X36126142Y134041619D01*
X35697571Y134708285D02*
X35697571Y134184476D01*
X35745190Y134089238D01*
X35840428Y134041619D01*
X35983285Y134041619D01*
X36078523Y134089238D01*
X36126142Y134136857D01*
X36459476Y134708285D02*
X36840428Y134708285D01*
X36602333Y135041619D02*
X36602333Y134184476D01*
X36649952Y134089238D01*
X36745190Y134041619D01*
X36840428Y134041619D01*
X37173761Y134708285D02*
X37173761Y133708285D01*
X37173761Y134660666D02*
X37269000Y134708285D01*
X37459476Y134708285D01*
X37554714Y134660666D01*
X37602333Y134613047D01*
X37649952Y134517809D01*
X37649952Y134232095D01*
X37602333Y134136857D01*
X37554714Y134089238D01*
X37459476Y134041619D01*
X37269000Y134041619D01*
X37173761Y134089238D01*
X38507095Y134708285D02*
X38507095Y134041619D01*
X38078523Y134708285D02*
X38078523Y134184476D01*
X38126142Y134089238D01*
X38221380Y134041619D01*
X38364238Y134041619D01*
X38459476Y134089238D01*
X38507095Y134136857D01*
X38840428Y134708285D02*
X39221380Y134708285D01*
X38983285Y135041619D02*
X38983285Y134184476D01*
X39030904Y134089238D01*
X39126142Y134041619D01*
X39221380Y134041619D01*
X39507095Y134089238D02*
X39602333Y134041619D01*
X39792809Y134041619D01*
X39888047Y134089238D01*
X39935666Y134184476D01*
X39935666Y134232095D01*
X39888047Y134327333D01*
X39792809Y134374952D01*
X39649952Y134374952D01*
X39554714Y134422571D01*
X39507095Y134517809D01*
X39507095Y134565428D01*
X39554714Y134660666D01*
X39649952Y134708285D01*
X39792809Y134708285D01*
X39888047Y134660666D01*
X36926619Y121803285D02*
X36879000Y121850904D01*
X36831380Y121946142D01*
X36831380Y122184238D01*
X36879000Y122279476D01*
X36926619Y122327095D01*
X37021857Y122374714D01*
X37117095Y122374714D01*
X37259952Y122327095D01*
X37831380Y121755666D01*
X37831380Y122374714D01*
X42038380Y102467476D02*
X42038380Y102277000D01*
X42086000Y102181761D01*
X42133619Y102134142D01*
X42276476Y102038904D01*
X42466952Y101991285D01*
X42847904Y101991285D01*
X42943142Y102038904D01*
X42990761Y102086523D01*
X43038380Y102181761D01*
X43038380Y102372238D01*
X42990761Y102467476D01*
X42943142Y102515095D01*
X42847904Y102562714D01*
X42609809Y102562714D01*
X42514571Y102515095D01*
X42466952Y102467476D01*
X42419333Y102372238D01*
X42419333Y102181761D01*
X42466952Y102086523D01*
X42514571Y102038904D01*
X42609809Y101991285D01*
X86956666Y140559619D02*
X86385238Y140559619D01*
X86670952Y140559619D02*
X86670952Y141559619D01*
X86575714Y141416761D01*
X86480476Y141321523D01*
X86385238Y141273904D01*
X87385238Y140940571D02*
X88147142Y140940571D01*
X87766190Y140559619D02*
X87766190Y141321523D01*
X33533285Y132320380D02*
X33580904Y132368000D01*
X33676142Y132415619D01*
X33914238Y132415619D01*
X34009476Y132368000D01*
X34057095Y132320380D01*
X34104714Y132225142D01*
X34104714Y132129904D01*
X34057095Y131987047D01*
X33485666Y131415619D01*
X34104714Y131415619D01*
D16*
X78219828Y131881304D02*
X78219828Y132694104D01*
X78568171Y131881304D02*
X78568171Y132307057D01*
X78529466Y132384466D01*
X78452057Y132423171D01*
X78335942Y132423171D01*
X78258533Y132384466D01*
X78219828Y132345761D01*
D12*
X145821380Y117044238D02*
X145821380Y116568047D01*
X146297571Y116520428D01*
X146249952Y116568047D01*
X146202333Y116663285D01*
X146202333Y116901380D01*
X146249952Y116996619D01*
X146297571Y117044238D01*
X146392809Y117091857D01*
X146630904Y117091857D01*
X146726142Y117044238D01*
X146773761Y116996619D01*
X146821380Y116901380D01*
X146821380Y116663285D01*
X146773761Y116568047D01*
X146726142Y116520428D01*
X146154714Y117425190D02*
X146821380Y117663285D01*
X146154714Y117901380D01*
X146773761Y118996619D02*
X146821380Y119139476D01*
X146821380Y119377571D01*
X146773761Y119472809D01*
X146726142Y119520428D01*
X146630904Y119568047D01*
X146535666Y119568047D01*
X146440428Y119520428D01*
X146392809Y119472809D01*
X146345190Y119377571D01*
X146297571Y119187095D01*
X146249952Y119091857D01*
X146202333Y119044238D01*
X146107095Y118996619D01*
X146011857Y118996619D01*
X145916619Y119044238D01*
X145869000Y119091857D01*
X145821380Y119187095D01*
X145821380Y119425190D01*
X145869000Y119568047D01*
X146773761Y120377571D02*
X146821380Y120282333D01*
X146821380Y120091857D01*
X146773761Y119996619D01*
X146678523Y119949000D01*
X146297571Y119949000D01*
X146202333Y119996619D01*
X146154714Y120091857D01*
X146154714Y120282333D01*
X146202333Y120377571D01*
X146297571Y120425190D01*
X146392809Y120425190D01*
X146488047Y119949000D01*
X146154714Y120853761D02*
X146821380Y120853761D01*
X146249952Y120853761D02*
X146202333Y120901380D01*
X146154714Y120996619D01*
X146154714Y121139476D01*
X146202333Y121234714D01*
X146297571Y121282333D01*
X146821380Y121282333D01*
X146773761Y121710904D02*
X146821380Y121806142D01*
X146821380Y121996619D01*
X146773761Y122091857D01*
X146678523Y122139476D01*
X146630904Y122139476D01*
X146535666Y122091857D01*
X146488047Y121996619D01*
X146488047Y121853761D01*
X146440428Y121758523D01*
X146345190Y121710904D01*
X146297571Y121710904D01*
X146202333Y121758523D01*
X146154714Y121853761D01*
X146154714Y121996619D01*
X146202333Y122091857D01*
X146821380Y122710904D02*
X146773761Y122615666D01*
X146726142Y122568047D01*
X146630904Y122520428D01*
X146345190Y122520428D01*
X146249952Y122568047D01*
X146202333Y122615666D01*
X146154714Y122710904D01*
X146154714Y122853761D01*
X146202333Y122949000D01*
X146249952Y122996619D01*
X146345190Y123044238D01*
X146630904Y123044238D01*
X146726142Y122996619D01*
X146773761Y122949000D01*
X146821380Y122853761D01*
X146821380Y122710904D01*
X146821380Y123472809D02*
X146154714Y123472809D01*
X146345190Y123472809D02*
X146249952Y123520428D01*
X146202333Y123568047D01*
X146154714Y123663285D01*
X146154714Y123758523D01*
X146773761Y124806142D02*
X146821380Y124949000D01*
X146821380Y125187095D01*
X146773761Y125282333D01*
X146726142Y125329952D01*
X146630904Y125377571D01*
X146535666Y125377571D01*
X146440428Y125329952D01*
X146392809Y125282333D01*
X146345190Y125187095D01*
X146297571Y124996619D01*
X146249952Y124901380D01*
X146202333Y124853761D01*
X146107095Y124806142D01*
X146011857Y124806142D01*
X145916619Y124853761D01*
X145869000Y124901380D01*
X145821380Y124996619D01*
X145821380Y125234714D01*
X145869000Y125377571D01*
X146154714Y126234714D02*
X146821380Y126234714D01*
X146154714Y125806142D02*
X146678523Y125806142D01*
X146773761Y125853761D01*
X146821380Y125949000D01*
X146821380Y126091857D01*
X146773761Y126187095D01*
X146726142Y126234714D01*
X146154714Y126710904D02*
X147154714Y126710904D01*
X146202333Y126710904D02*
X146154714Y126806142D01*
X146154714Y126996619D01*
X146202333Y127091857D01*
X146249952Y127139476D01*
X146345190Y127187095D01*
X146630904Y127187095D01*
X146726142Y127139476D01*
X146773761Y127091857D01*
X146821380Y126996619D01*
X146821380Y126806142D01*
X146773761Y126710904D01*
X146154714Y127615666D02*
X147154714Y127615666D01*
X146202333Y127615666D02*
X146154714Y127710904D01*
X146154714Y127901380D01*
X146202333Y127996619D01*
X146249952Y128044238D01*
X146345190Y128091857D01*
X146630904Y128091857D01*
X146726142Y128044238D01*
X146773761Y127996619D01*
X146821380Y127901380D01*
X146821380Y127710904D01*
X146773761Y127615666D01*
X146821380Y128663285D02*
X146773761Y128568047D01*
X146678523Y128520428D01*
X145821380Y128520428D01*
X146154714Y128949000D02*
X146821380Y129187095D01*
X146154714Y129425190D02*
X146821380Y129187095D01*
X147059476Y129091857D01*
X147107095Y129044238D01*
X147154714Y128949000D01*
X90830238Y141464380D02*
X90877857Y141512000D01*
X90973095Y141559619D01*
X91211190Y141559619D01*
X91306428Y141512000D01*
X91354047Y141464380D01*
X91401666Y141369142D01*
X91401666Y141273904D01*
X91354047Y141131047D01*
X90782619Y140559619D01*
X91401666Y140559619D01*
X91830238Y140940571D02*
X92592142Y140940571D01*
X92211190Y140559619D02*
X92211190Y141321523D01*
X136653380Y89529476D02*
X137653380Y89862809D01*
X136653380Y90196142D01*
X136986714Y90958047D02*
X137653380Y90958047D01*
X136605761Y90719952D02*
X137320047Y90481857D01*
X137320047Y91100904D01*
X82083047Y140432571D02*
X82844952Y140432571D01*
X133970380Y128216714D02*
X133970380Y127645285D01*
X133970380Y127931000D02*
X132970380Y127931000D01*
X133113238Y127835761D01*
X133208476Y127740523D01*
X133256095Y127645285D01*
X37426666Y130383619D02*
X38045714Y130383619D01*
X37712380Y130002666D01*
X37855238Y130002666D01*
X37950476Y129955047D01*
X37998095Y129907428D01*
X38045714Y129812190D01*
X38045714Y129574095D01*
X37998095Y129478857D01*
X37950476Y129431238D01*
X37855238Y129383619D01*
X37569523Y129383619D01*
X37474285Y129431238D01*
X37426666Y129478857D01*
X140463380Y111675095D02*
X140463380Y112246523D01*
X141463380Y111960809D02*
X140463380Y111960809D01*
X141463380Y113103666D02*
X141463380Y112532238D01*
X141463380Y112817952D02*
X140463380Y112817952D01*
X140606238Y112722714D01*
X140701476Y112627476D01*
X140749095Y112532238D01*
X42466952Y110055761D02*
X42419333Y109960523D01*
X42371714Y109912904D01*
X42276476Y109865285D01*
X42228857Y109865285D01*
X42133619Y109912904D01*
X42086000Y109960523D01*
X42038380Y110055761D01*
X42038380Y110246238D01*
X42086000Y110341476D01*
X42133619Y110389095D01*
X42228857Y110436714D01*
X42276476Y110436714D01*
X42371714Y110389095D01*
X42419333Y110341476D01*
X42466952Y110246238D01*
X42466952Y110055761D01*
X42514571Y109960523D01*
X42562190Y109912904D01*
X42657428Y109865285D01*
X42847904Y109865285D01*
X42943142Y109912904D01*
X42990761Y109960523D01*
X43038380Y110055761D01*
X43038380Y110246238D01*
X42990761Y110341476D01*
X42943142Y110389095D01*
X42847904Y110436714D01*
X42657428Y110436714D01*
X42562190Y110389095D01*
X42514571Y110341476D01*
X42466952Y110246238D01*
X133065619Y131582285D02*
X133018000Y131629904D01*
X132970380Y131725142D01*
X132970380Y131963238D01*
X133018000Y132058476D01*
X133065619Y132106095D01*
X133160857Y132153714D01*
X133256095Y132153714D01*
X133398952Y132106095D01*
X133970380Y131534666D01*
X133970380Y132153714D01*
X140463380Y95244476D02*
X141463380Y95577809D01*
X140463380Y95911142D01*
X140463380Y96720666D02*
X140463380Y96244476D01*
X140939571Y96196857D01*
X140891952Y96244476D01*
X140844333Y96339714D01*
X140844333Y96577809D01*
X140891952Y96673047D01*
X140939571Y96720666D01*
X141034809Y96768285D01*
X141272904Y96768285D01*
X141368142Y96720666D01*
X141415761Y96673047D01*
X141463380Y96577809D01*
X141463380Y96339714D01*
X141415761Y96244476D01*
X141368142Y96196857D01*
X78479619Y142099428D02*
X78812952Y142099428D01*
X78955809Y141575619D02*
X78479619Y141575619D01*
X78479619Y142575619D01*
X78955809Y142575619D01*
X79241523Y142575619D02*
X79812952Y142575619D01*
X79527238Y141575619D02*
X79527238Y142575619D01*
X80479619Y142099428D02*
X80622476Y142051809D01*
X80670095Y142004190D01*
X80717714Y141908952D01*
X80717714Y141766095D01*
X80670095Y141670857D01*
X80622476Y141623238D01*
X80527238Y141575619D01*
X80146285Y141575619D01*
X80146285Y142575619D01*
X80479619Y142575619D01*
X80574857Y142528000D01*
X80622476Y142480380D01*
X80670095Y142385142D01*
X80670095Y142289904D01*
X80622476Y142194666D01*
X80574857Y142147047D01*
X80479619Y142099428D01*
X80146285Y142099428D01*
X82432000Y141575619D02*
X81860571Y141575619D01*
X82146285Y141575619D02*
X82146285Y142575619D01*
X82051047Y142432761D01*
X81955809Y142337523D01*
X81860571Y142289904D01*
X34362714Y128367619D02*
X33791285Y128367619D01*
X34077000Y128367619D02*
X34077000Y129367619D01*
X33981761Y129224761D01*
X33886523Y129129523D01*
X33791285Y129081904D01*
X40671380Y92215666D02*
X40671380Y92834714D01*
X41052333Y92501380D01*
X41052333Y92644238D01*
X41099952Y92739476D01*
X41147571Y92787095D01*
X41242809Y92834714D01*
X41480904Y92834714D01*
X41576142Y92787095D01*
X41623761Y92739476D01*
X41671380Y92644238D01*
X41671380Y92358523D01*
X41623761Y92263285D01*
X41576142Y92215666D01*
X38077476Y126240285D02*
X38077476Y125573619D01*
X37839380Y126621238D02*
X37601285Y125906952D01*
X38220333Y125906952D01*
X101045714Y129256619D02*
X101045714Y130256619D01*
X101474285Y129256619D02*
X101474285Y129780428D01*
X101426666Y129875666D01*
X101331428Y129923285D01*
X101188571Y129923285D01*
X101093333Y129875666D01*
X101045714Y129828047D01*
X45261000Y130979095D02*
X45213380Y130883857D01*
X45213380Y130741000D01*
X45261000Y130598142D01*
X45356238Y130502904D01*
X45451476Y130455285D01*
X45641952Y130407666D01*
X45784809Y130407666D01*
X45975285Y130455285D01*
X46070523Y130502904D01*
X46165761Y130598142D01*
X46213380Y130741000D01*
X46213380Y130836238D01*
X46165761Y130979095D01*
X46118142Y131026714D01*
X45784809Y131026714D01*
X45784809Y130836238D01*
X46213380Y131455285D02*
X45213380Y131455285D01*
X46213380Y132026714D01*
X45213380Y132026714D01*
X46213380Y132502904D02*
X45213380Y132502904D01*
X45213380Y132741000D01*
X45261000Y132883857D01*
X45356238Y132979095D01*
X45451476Y133026714D01*
X45641952Y133074333D01*
X45784809Y133074333D01*
X45975285Y133026714D01*
X46070523Y132979095D01*
X46165761Y132883857D01*
X46213380Y132741000D01*
X46213380Y132502904D01*
X136780380Y93466476D02*
X137780380Y93799809D01*
X136780380Y94133142D01*
X136780380Y94895047D02*
X136780380Y94704571D01*
X136828000Y94609333D01*
X136875619Y94561714D01*
X137018476Y94466476D01*
X137208952Y94418857D01*
X137589904Y94418857D01*
X137685142Y94466476D01*
X137732761Y94514095D01*
X137780380Y94609333D01*
X137780380Y94799809D01*
X137732761Y94895047D01*
X137685142Y94942666D01*
X137589904Y94990285D01*
X137351809Y94990285D01*
X137256571Y94942666D01*
X137208952Y94895047D01*
X137161333Y94799809D01*
X137161333Y94609333D01*
X137208952Y94514095D01*
X137256571Y94466476D01*
X137351809Y94418857D01*
X34021380Y91672523D02*
X34021380Y91101095D01*
X34021380Y91386809D02*
X33021380Y91386809D01*
X33164238Y91291571D01*
X33259476Y91196333D01*
X33307095Y91101095D01*
X33354714Y92529666D02*
X34021380Y92529666D01*
X32973761Y92291571D02*
X33688047Y92053476D01*
X33688047Y92672523D01*
X89433238Y137527380D02*
X89480857Y137575000D01*
X89576095Y137622619D01*
X89814190Y137622619D01*
X89909428Y137575000D01*
X89957047Y137527380D01*
X90004666Y137432142D01*
X90004666Y137336904D01*
X89957047Y137194047D01*
X89385619Y136622619D01*
X90004666Y136622619D01*
X90433238Y137003571D02*
X91195142Y137003571D01*
X42498714Y94466476D02*
X43165380Y94466476D01*
X42117761Y94228380D02*
X42832047Y93990285D01*
X42832047Y94609333D01*
X105292285Y140575380D02*
X105339904Y140623000D01*
X105435142Y140670619D01*
X105673238Y140670619D01*
X105768476Y140623000D01*
X105816095Y140575380D01*
X105863714Y140480142D01*
X105863714Y140384904D01*
X105816095Y140242047D01*
X105244666Y139670619D01*
X105863714Y139670619D01*
X34021380Y95736523D02*
X34021380Y95165095D01*
X34021380Y95450809D02*
X33021380Y95450809D01*
X33164238Y95355571D01*
X33259476Y95260333D01*
X33307095Y95165095D01*
X33021380Y96069857D02*
X33021380Y96688904D01*
X33402333Y96355571D01*
X33402333Y96498428D01*
X33449952Y96593666D01*
X33497571Y96641285D01*
X33592809Y96688904D01*
X33830904Y96688904D01*
X33926142Y96641285D01*
X33973761Y96593666D01*
X34021380Y96498428D01*
X34021380Y96212714D01*
X33973761Y96117476D01*
X33926142Y96069857D01*
X42316619Y90053285D02*
X42269000Y90100904D01*
X42221380Y90196142D01*
X42221380Y90434238D01*
X42269000Y90529476D01*
X42316619Y90577095D01*
X42411857Y90624714D01*
X42507095Y90624714D01*
X42649952Y90577095D01*
X43221380Y90005666D01*
X43221380Y90624714D01*
X102395047Y129256619D02*
X102299809Y129304238D01*
X102252190Y129399476D01*
X102252190Y130256619D01*
X42038380Y98578095D02*
X42038380Y98101904D01*
X42514571Y98054285D01*
X42466952Y98101904D01*
X42419333Y98197142D01*
X42419333Y98435238D01*
X42466952Y98530476D01*
X42514571Y98578095D01*
X42609809Y98625714D01*
X42847904Y98625714D01*
X42943142Y98578095D01*
X42990761Y98530476D01*
X43038380Y98435238D01*
X43038380Y98197142D01*
X42990761Y98101904D01*
X42943142Y98054285D01*
X100021714Y133447619D02*
X99450285Y133447619D01*
X99736000Y133447619D02*
X99736000Y134447619D01*
X99640761Y134304761D01*
X99545523Y134209523D01*
X99450285Y134161904D01*
D16*
X85240761Y131881304D02*
X85163352Y131920009D01*
X85124647Y131997419D01*
X85124647Y132694104D01*
X81174723Y137130400D02*
X81097314Y137169104D01*
X80981200Y137169104D01*
X80865085Y137130400D01*
X80787676Y137052990D01*
X80748971Y136975580D01*
X80710266Y136820761D01*
X80710266Y136704647D01*
X80748971Y136549828D01*
X80787676Y136472419D01*
X80865085Y136395009D01*
X80981200Y136356304D01*
X81058609Y136356304D01*
X81174723Y136395009D01*
X81213428Y136433714D01*
X81213428Y136704647D01*
X81058609Y136704647D01*
X81561771Y136356304D02*
X81561771Y137169104D01*
X82026228Y136356304D01*
X82026228Y137169104D01*
X82413276Y136356304D02*
X82413276Y137169104D01*
X82606800Y137169104D01*
X82722914Y137130400D01*
X82800323Y137052990D01*
X82839028Y136975580D01*
X82877733Y136820761D01*
X82877733Y136704647D01*
X82839028Y136549828D01*
X82800323Y136472419D01*
X82722914Y136395009D01*
X82606800Y136356304D01*
X82413276Y136356304D01*
D12*
X38903095Y112429000D02*
X38807857Y112476619D01*
X38665000Y112476619D01*
X38522142Y112429000D01*
X38426904Y112333761D01*
X38379285Y112238523D01*
X38331666Y112048047D01*
X38331666Y111905190D01*
X38379285Y111714714D01*
X38426904Y111619476D01*
X38522142Y111524238D01*
X38665000Y111476619D01*
X38760238Y111476619D01*
X38903095Y111524238D01*
X38950714Y111571857D01*
X38950714Y111905190D01*
X38760238Y111905190D01*
X39379285Y111476619D02*
X39379285Y112476619D01*
X39950714Y111476619D01*
X39950714Y112476619D01*
X40426904Y111476619D02*
X40426904Y112476619D01*
X40665000Y112476619D01*
X40807857Y112429000D01*
X40903095Y112333761D01*
X40950714Y112238523D01*
X40998333Y112048047D01*
X40998333Y111905190D01*
X40950714Y111714714D01*
X40903095Y111619476D01*
X40807857Y111524238D01*
X40665000Y111476619D01*
X40426904Y111476619D01*
X75225047Y134463571D02*
X75986952Y134463571D01*
X75606000Y134082619D02*
X75606000Y134844523D01*
X86575666Y136495619D02*
X86004238Y136495619D01*
X86289952Y136495619D02*
X86289952Y137495619D01*
X86194714Y137352761D01*
X86099476Y137257523D01*
X86004238Y137209904D01*
X87004238Y136876571D02*
X87766142Y136876571D01*
X140717380Y106833285D02*
X141717380Y107166619D01*
X140717380Y107499952D01*
X141717380Y108357095D02*
X141717380Y107785666D01*
X141717380Y108071380D02*
X140717380Y108071380D01*
X140860238Y107976142D01*
X140955476Y107880904D01*
X141003095Y107785666D01*
X141717380Y109309476D02*
X141717380Y108738047D01*
X141717380Y109023761D02*
X140717380Y109023761D01*
X140860238Y108928523D01*
X140955476Y108833285D01*
X141003095Y108738047D01*
X33021380Y115977095D02*
X33021380Y115500904D01*
X33497571Y115453285D01*
X33449952Y115500904D01*
X33402333Y115596142D01*
X33402333Y115834238D01*
X33449952Y115929476D01*
X33497571Y115977095D01*
X33592809Y116024714D01*
X33830904Y116024714D01*
X33926142Y115977095D01*
X33973761Y115929476D01*
X34021380Y115834238D01*
X34021380Y115596142D01*
X33973761Y115500904D01*
X33926142Y115453285D01*
X80559047Y140432571D02*
X81320952Y140432571D01*
X80940000Y140051619D02*
X80940000Y140813523D01*
X140463380Y87116476D02*
X141463380Y87449809D01*
X140463380Y87783142D01*
X141463380Y88640285D02*
X141463380Y88068857D01*
X141463380Y88354571D02*
X140463380Y88354571D01*
X140606238Y88259333D01*
X140701476Y88164095D01*
X140749095Y88068857D01*
X37958380Y89640523D02*
X37958380Y89069095D01*
X37958380Y89354809D02*
X36958380Y89354809D01*
X37101238Y89259571D01*
X37196476Y89164333D01*
X37244095Y89069095D01*
X36958380Y90497666D02*
X36958380Y90307190D01*
X37006000Y90211952D01*
X37053619Y90164333D01*
X37196476Y90069095D01*
X37386952Y90021476D01*
X37767904Y90021476D01*
X37863142Y90069095D01*
X37910761Y90116714D01*
X37958380Y90211952D01*
X37958380Y90402428D01*
X37910761Y90497666D01*
X37863142Y90545285D01*
X37767904Y90592904D01*
X37529809Y90592904D01*
X37434571Y90545285D01*
X37386952Y90497666D01*
X37339333Y90402428D01*
X37339333Y90211952D01*
X37386952Y90116714D01*
X37434571Y90069095D01*
X37529809Y90021476D01*
X33021380Y107531666D02*
X33021380Y108198333D01*
X34021380Y107769761D01*
X38085380Y101832523D02*
X38085380Y101261095D01*
X38085380Y101546809D02*
X37085380Y101546809D01*
X37228238Y101451571D01*
X37323476Y101356333D01*
X37371095Y101261095D01*
X37085380Y102451571D02*
X37085380Y102546809D01*
X37133000Y102642047D01*
X37180619Y102689666D01*
X37275857Y102737285D01*
X37466333Y102784904D01*
X37704428Y102784904D01*
X37894904Y102737285D01*
X37990142Y102689666D01*
X38037761Y102642047D01*
X38085380Y102546809D01*
X38085380Y102451571D01*
X38037761Y102356333D01*
X37990142Y102308714D01*
X37894904Y102261095D01*
X37704428Y102213476D01*
X37466333Y102213476D01*
X37275857Y102261095D01*
X37180619Y102308714D01*
X37133000Y102356333D01*
X37085380Y102451571D01*
X134035666Y89772809D02*
X134035666Y90249000D01*
X134321380Y89677571D02*
X133321380Y90010904D01*
X134321380Y90344238D01*
X133654714Y90677571D02*
X134321380Y90677571D01*
X133749952Y90677571D02*
X133702333Y90725190D01*
X133654714Y90820428D01*
X133654714Y90963285D01*
X133702333Y91058523D01*
X133797571Y91106142D01*
X134321380Y91106142D01*
X134321380Y92010904D02*
X133797571Y92010904D01*
X133702333Y91963285D01*
X133654714Y91868047D01*
X133654714Y91677571D01*
X133702333Y91582333D01*
X134273761Y92010904D02*
X134321380Y91915666D01*
X134321380Y91677571D01*
X134273761Y91582333D01*
X134178523Y91534714D01*
X134083285Y91534714D01*
X133988047Y91582333D01*
X133940428Y91677571D01*
X133940428Y91915666D01*
X133892809Y92010904D01*
X134321380Y92629952D02*
X134273761Y92534714D01*
X134178523Y92487095D01*
X133321380Y92487095D01*
X134321380Y93153761D02*
X134273761Y93058523D01*
X134226142Y93010904D01*
X134130904Y92963285D01*
X133845190Y92963285D01*
X133749952Y93010904D01*
X133702333Y93058523D01*
X133654714Y93153761D01*
X133654714Y93296619D01*
X133702333Y93391857D01*
X133749952Y93439476D01*
X133845190Y93487095D01*
X134130904Y93487095D01*
X134226142Y93439476D01*
X134273761Y93391857D01*
X134321380Y93296619D01*
X134321380Y93153761D01*
X133654714Y94344238D02*
X134464238Y94344238D01*
X134559476Y94296619D01*
X134607095Y94249000D01*
X134654714Y94153761D01*
X134654714Y94010904D01*
X134607095Y93915666D01*
X134273761Y94344238D02*
X134321380Y94249000D01*
X134321380Y94058523D01*
X134273761Y93963285D01*
X134226142Y93915666D01*
X134130904Y93868047D01*
X133845190Y93868047D01*
X133749952Y93915666D01*
X133702333Y93963285D01*
X133654714Y94058523D01*
X133654714Y94249000D01*
X133702333Y94344238D01*
X134321380Y95582333D02*
X133321380Y95582333D01*
X133654714Y96058523D02*
X134321380Y96058523D01*
X133749952Y96058523D02*
X133702333Y96106142D01*
X133654714Y96201380D01*
X133654714Y96344238D01*
X133702333Y96439476D01*
X133797571Y96487095D01*
X134321380Y96487095D01*
X133654714Y96963285D02*
X134654714Y96963285D01*
X133702333Y96963285D02*
X133654714Y97058523D01*
X133654714Y97249000D01*
X133702333Y97344238D01*
X133749952Y97391857D01*
X133845190Y97439476D01*
X134130904Y97439476D01*
X134226142Y97391857D01*
X134273761Y97344238D01*
X134321380Y97249000D01*
X134321380Y97058523D01*
X134273761Y96963285D01*
X133654714Y98296619D02*
X134321380Y98296619D01*
X133654714Y97868047D02*
X134178523Y97868047D01*
X134273761Y97915666D01*
X134321380Y98010904D01*
X134321380Y98153761D01*
X134273761Y98249000D01*
X134226142Y98296619D01*
X133654714Y98629952D02*
X133654714Y99010904D01*
X133321380Y98772809D02*
X134178523Y98772809D01*
X134273761Y98820428D01*
X134321380Y98915666D01*
X134321380Y99010904D01*
X134273761Y99296619D02*
X134321380Y99391857D01*
X134321380Y99582333D01*
X134273761Y99677571D01*
X134178523Y99725190D01*
X134130904Y99725190D01*
X134035666Y99677571D01*
X133988047Y99582333D01*
X133988047Y99439476D01*
X133940428Y99344238D01*
X133845190Y99296619D01*
X133797571Y99296619D01*
X133702333Y99344238D01*
X133654714Y99439476D01*
X133654714Y99582333D01*
X133702333Y99677571D01*
X103911095Y134447619D02*
X103434904Y134447619D01*
X103387285Y133971428D01*
X103434904Y134019047D01*
X103530142Y134066666D01*
X103768238Y134066666D01*
X103863476Y134019047D01*
X103911095Y133971428D01*
X103958714Y133876190D01*
X103958714Y133638095D01*
X103911095Y133542857D01*
X103863476Y133495238D01*
X103768238Y133447619D01*
X103530142Y133447619D01*
X103434904Y133495238D01*
X103387285Y133542857D01*
X135804095Y135797000D02*
X135708857Y135844619D01*
X135566000Y135844619D01*
X135423142Y135797000D01*
X135327904Y135701761D01*
X135280285Y135606523D01*
X135232666Y135416047D01*
X135232666Y135273190D01*
X135280285Y135082714D01*
X135327904Y134987476D01*
X135423142Y134892238D01*
X135566000Y134844619D01*
X135661238Y134844619D01*
X135804095Y134892238D01*
X135851714Y134939857D01*
X135851714Y135273190D01*
X135661238Y135273190D01*
X136280285Y134844619D02*
X136280285Y135844619D01*
X136851714Y134844619D01*
X136851714Y135844619D01*
X137327904Y134844619D02*
X137327904Y135844619D01*
X137566000Y135844619D01*
X137708857Y135797000D01*
X137804095Y135701761D01*
X137851714Y135606523D01*
X137899333Y135416047D01*
X137899333Y135273190D01*
X137851714Y135082714D01*
X137804095Y134987476D01*
X137708857Y134892238D01*
X137566000Y134844619D01*
X137327904Y134844619D01*
D16*
X82134285Y130139438D02*
X82172990Y130100733D01*
X82211695Y129984619D01*
X82211695Y129907209D01*
X82172990Y129791095D01*
X82095580Y129713685D01*
X82018171Y129674980D01*
X81863352Y129636276D01*
X81747238Y129636276D01*
X81592419Y129674980D01*
X81515009Y129713685D01*
X81437600Y129791095D01*
X81398895Y129907209D01*
X81398895Y129984619D01*
X81437600Y130100733D01*
X81476304Y130139438D01*
X81979466Y130449076D02*
X81979466Y130836123D01*
X82211695Y130371666D02*
X81398895Y130642600D01*
X82211695Y130913533D01*
X82211695Y131184466D02*
X81398895Y131184466D01*
X82211695Y131648923D01*
X81398895Y131648923D01*
X81476304Y131997266D02*
X81437600Y132035971D01*
X81398895Y132113380D01*
X81398895Y132306904D01*
X81437600Y132384314D01*
X81476304Y132423019D01*
X81553714Y132461723D01*
X81631123Y132461723D01*
X81747238Y132423019D01*
X82211695Y131958561D01*
X82211695Y132461723D01*
D12*
X97640476Y140337285D02*
X97640476Y139670619D01*
X97402380Y140718238D02*
X97164285Y140003952D01*
X97783333Y140003952D01*
X37513952Y105737761D02*
X37466333Y105642523D01*
X37418714Y105594904D01*
X37323476Y105547285D01*
X37275857Y105547285D01*
X37180619Y105594904D01*
X37133000Y105642523D01*
X37085380Y105737761D01*
X37085380Y105928238D01*
X37133000Y106023476D01*
X37180619Y106071095D01*
X37275857Y106118714D01*
X37323476Y106118714D01*
X37418714Y106071095D01*
X37466333Y106023476D01*
X37513952Y105928238D01*
X37513952Y105737761D01*
X37561571Y105642523D01*
X37609190Y105594904D01*
X37704428Y105547285D01*
X37894904Y105547285D01*
X37990142Y105594904D01*
X38037761Y105642523D01*
X38085380Y105737761D01*
X38085380Y105928238D01*
X38037761Y106023476D01*
X37990142Y106071095D01*
X37894904Y106118714D01*
X37704428Y106118714D01*
X37609190Y106071095D01*
X37561571Y106023476D01*
X37513952Y105928238D01*
X34021380Y124406714D02*
X34021380Y123835285D01*
X34021380Y124121000D02*
X33021380Y124121000D01*
X33164238Y124025761D01*
X33259476Y123930523D01*
X33307095Y123835285D01*
X132192380Y127963000D02*
X131192380Y127963000D01*
X132192380Y128534428D02*
X131620952Y128105857D01*
X131192380Y128534428D02*
X131763809Y127963000D01*
X131525714Y128963000D02*
X132192380Y128963000D01*
X131620952Y128963000D02*
X131573333Y129010619D01*
X131525714Y129105857D01*
X131525714Y129248714D01*
X131573333Y129343952D01*
X131668571Y129391571D01*
X132192380Y129391571D01*
X132192380Y130010619D02*
X132144761Y129915380D01*
X132097142Y129867761D01*
X132001904Y129820142D01*
X131716190Y129820142D01*
X131620952Y129867761D01*
X131573333Y129915380D01*
X131525714Y130010619D01*
X131525714Y130153476D01*
X131573333Y130248714D01*
X131620952Y130296333D01*
X131716190Y130343952D01*
X132001904Y130343952D01*
X132097142Y130296333D01*
X132144761Y130248714D01*
X132192380Y130153476D01*
X132192380Y130010619D01*
X132144761Y131201095D02*
X132192380Y131105857D01*
X132192380Y130915380D01*
X132144761Y130820142D01*
X132097142Y130772523D01*
X132001904Y130724904D01*
X131716190Y130724904D01*
X131620952Y130772523D01*
X131573333Y130820142D01*
X131525714Y130915380D01*
X131525714Y131105857D01*
X131573333Y131201095D01*
X132192380Y131629666D02*
X131192380Y131629666D01*
X131811428Y131724904D02*
X132192380Y132010619D01*
X131525714Y132010619D02*
X131906666Y131629666D01*
X42921380Y125945523D02*
X42921380Y125374095D01*
X42921380Y125659809D02*
X41921380Y125659809D01*
X42064238Y125564571D01*
X42159476Y125469333D01*
X42207095Y125374095D01*
X42016619Y126326476D02*
X41969000Y126374095D01*
X41921380Y126469333D01*
X41921380Y126707428D01*
X41969000Y126802666D01*
X42016619Y126850285D01*
X42111857Y126897904D01*
X42207095Y126897904D01*
X42349952Y126850285D01*
X42921380Y126278857D01*
X42921380Y126897904D01*
X95100571Y128537619D02*
X94529142Y128537619D01*
X94814857Y128537619D02*
X94814857Y129537619D01*
X94719619Y129394761D01*
X94624380Y129299523D01*
X94529142Y129251904D01*
X95481523Y129442380D02*
X95529142Y129490000D01*
X95624380Y129537619D01*
X95862476Y129537619D01*
X95957714Y129490000D01*
X96005333Y129442380D01*
X96052952Y129347142D01*
X96052952Y129251904D01*
X96005333Y129109047D01*
X95433904Y128537619D01*
X96052952Y128537619D01*
X96386285Y129204285D02*
X96624380Y128537619D01*
X96862476Y129204285D01*
X94648190Y126927619D02*
X94648190Y127927619D01*
X95648190Y127880000D02*
X95552952Y127927619D01*
X95410095Y127927619D01*
X95267238Y127880000D01*
X95172000Y127784761D01*
X95124380Y127689523D01*
X95076761Y127499047D01*
X95076761Y127356190D01*
X95124380Y127165714D01*
X95172000Y127070476D01*
X95267238Y126975238D01*
X95410095Y126927619D01*
X95505333Y126927619D01*
X95648190Y126975238D01*
X95695809Y127022857D01*
X95695809Y127356190D01*
X95505333Y127356190D01*
X96124380Y126927619D02*
X96124380Y127927619D01*
X96695809Y126927619D01*
X96695809Y127927619D01*
D15*
X134909476Y145294238D02*
X134909476Y147294238D01*
X135861857Y145294238D02*
X135861857Y147294238D01*
X137004714Y145294238D01*
X137004714Y147294238D01*
X137957095Y145294238D02*
X137957095Y147294238D01*
X138719000Y147294238D01*
X138909476Y147199000D01*
X139004714Y147103761D01*
X139099952Y146913285D01*
X139099952Y146627571D01*
X139004714Y146437095D01*
X138909476Y146341857D01*
X138719000Y146246619D01*
X137957095Y146246619D01*
X139957095Y147294238D02*
X139957095Y145675190D01*
X140052333Y145484714D01*
X140147571Y145389476D01*
X140338047Y145294238D01*
X140719000Y145294238D01*
X140909476Y145389476D01*
X141004714Y145484714D01*
X141099952Y145675190D01*
X141099952Y147294238D01*
X141766619Y147294238D02*
X142909476Y147294238D01*
X142338047Y145294238D02*
X142338047Y147294238D01*
X143480904Y145389476D02*
X143766619Y145294238D01*
X144242809Y145294238D01*
X144433285Y145389476D01*
X144528523Y145484714D01*
X144623761Y145675190D01*
X144623761Y145865666D01*
X144528523Y146056142D01*
X144433285Y146151380D01*
X144242809Y146246619D01*
X143861857Y146341857D01*
X143671380Y146437095D01*
X143576142Y146532333D01*
X143480904Y146722809D01*
X143480904Y146913285D01*
X143576142Y147103761D01*
X143671380Y147199000D01*
X143861857Y147294238D01*
X144338047Y147294238D01*
X144623761Y147199000D01*
D12*
X136780380Y97530476D02*
X137780380Y97863809D01*
X136780380Y98197142D01*
X137208952Y98673333D02*
X137161333Y98578095D01*
X137113714Y98530476D01*
X137018476Y98482857D01*
X136970857Y98482857D01*
X136875619Y98530476D01*
X136828000Y98578095D01*
X136780380Y98673333D01*
X136780380Y98863809D01*
X136828000Y98959047D01*
X136875619Y99006666D01*
X136970857Y99054285D01*
X137018476Y99054285D01*
X137113714Y99006666D01*
X137161333Y98959047D01*
X137208952Y98863809D01*
X137208952Y98673333D01*
X137256571Y98578095D01*
X137304190Y98530476D01*
X137399428Y98482857D01*
X137589904Y98482857D01*
X137685142Y98530476D01*
X137732761Y98578095D01*
X137780380Y98673333D01*
X137780380Y98863809D01*
X137732761Y98959047D01*
X137685142Y99006666D01*
X137589904Y99054285D01*
X137399428Y99054285D01*
X137304190Y99006666D01*
X137256571Y98959047D01*
X137208952Y98863809D01*
G04 #@! TO.C,M3*
X113170476Y50535619D02*
X113170476Y51535619D01*
X113503809Y50821333D01*
X113837142Y51535619D01*
X113837142Y50535619D01*
X114218095Y51535619D02*
X114837142Y51535619D01*
X114503809Y51154666D01*
X114646666Y51154666D01*
X114741904Y51107047D01*
X114789523Y51059428D01*
X114837142Y50964190D01*
X114837142Y50726095D01*
X114789523Y50630857D01*
X114741904Y50583238D01*
X114646666Y50535619D01*
X114360952Y50535619D01*
X114265714Y50583238D01*
X114218095Y50630857D01*
G04 #@! TO.C,J13*
X70625476Y56234619D02*
X70625476Y55520333D01*
X70577857Y55377476D01*
X70482619Y55282238D01*
X70339761Y55234619D01*
X70244523Y55234619D01*
X71625476Y55234619D02*
X71054047Y55234619D01*
X71339761Y55234619D02*
X71339761Y56234619D01*
X71244523Y56091761D01*
X71149285Y55996523D01*
X71054047Y55948904D01*
X71958809Y56234619D02*
X72577857Y56234619D01*
X72244523Y55853666D01*
X72387380Y55853666D01*
X72482619Y55806047D01*
X72530238Y55758428D01*
X72577857Y55663190D01*
X72577857Y55425095D01*
X72530238Y55329857D01*
X72482619Y55282238D01*
X72387380Y55234619D01*
X72101666Y55234619D01*
X72006428Y55282238D01*
X71958809Y55329857D01*
G04 #@! TO.C,M2*
X93741595Y48618619D02*
X93741595Y49618619D01*
X94074928Y48904333D01*
X94408261Y49618619D01*
X94408261Y48618619D01*
X94836833Y49523380D02*
X94884452Y49571000D01*
X94979690Y49618619D01*
X95217785Y49618619D01*
X95313023Y49571000D01*
X95360642Y49523380D01*
X95408261Y49428142D01*
X95408261Y49332904D01*
X95360642Y49190047D01*
X94789214Y48618619D01*
X95408261Y48618619D01*
G04 #@! TO.C,M1*
X55004476Y50535619D02*
X55004476Y51535619D01*
X55337809Y50821333D01*
X55671142Y51535619D01*
X55671142Y50535619D01*
X56671142Y50535619D02*
X56099714Y50535619D01*
X56385428Y50535619D02*
X56385428Y51535619D01*
X56290190Y51392761D01*
X56194952Y51297523D01*
X56099714Y51249904D01*
G04 #@! TO.C,J7*
X35588666Y53488619D02*
X35588666Y52774333D01*
X35541047Y52631476D01*
X35445809Y52536238D01*
X35302952Y52488619D01*
X35207714Y52488619D01*
X35969619Y53488619D02*
X36636285Y53488619D01*
X36207714Y52488619D01*
G04 #@! TO.C,M4*
X83962595Y48618619D02*
X83962595Y49618619D01*
X84295928Y48904333D01*
X84629261Y49618619D01*
X84629261Y48618619D01*
X85534023Y49285285D02*
X85534023Y48618619D01*
X85295928Y49666238D02*
X85057833Y48951952D01*
X85676880Y48951952D01*
G04 #@! TO.C,J3*
X108820666Y34390619D02*
X108820666Y33676333D01*
X108773047Y33533476D01*
X108677809Y33438238D01*
X108534952Y33390619D01*
X108439714Y33390619D01*
X109201619Y34390619D02*
X109820666Y34390619D01*
X109487333Y34009666D01*
X109630190Y34009666D01*
X109725428Y33962047D01*
X109773047Y33914428D01*
X109820666Y33819190D01*
X109820666Y33581095D01*
X109773047Y33485857D01*
X109725428Y33438238D01*
X109630190Y33390619D01*
X109344476Y33390619D01*
X109249238Y33438238D01*
X109201619Y33485857D01*
G04 #@! TO.C,J10*
X142733476Y53488619D02*
X142733476Y52774333D01*
X142685857Y52631476D01*
X142590619Y52536238D01*
X142447761Y52488619D01*
X142352523Y52488619D01*
X143733476Y52488619D02*
X143162047Y52488619D01*
X143447761Y52488619D02*
X143447761Y53488619D01*
X143352523Y53345761D01*
X143257285Y53250523D01*
X143162047Y53202904D01*
X144352523Y53488619D02*
X144447761Y53488619D01*
X144543000Y53441000D01*
X144590619Y53393380D01*
X144638238Y53298142D01*
X144685857Y53107666D01*
X144685857Y52869571D01*
X144638238Y52679095D01*
X144590619Y52583857D01*
X144543000Y52536238D01*
X144447761Y52488619D01*
X144352523Y52488619D01*
X144257285Y52536238D01*
X144209666Y52583857D01*
X144162047Y52679095D01*
X144114428Y52869571D01*
X144114428Y53107666D01*
X144162047Y53298142D01*
X144209666Y53393380D01*
X144257285Y53441000D01*
X144352523Y53488619D01*
D17*
G04 #@! TO.C,U1*
X31358800Y157116800D02*
X83682800Y157116800D01*
X149006800Y170116800D02*
X149006800Y157116800D01*
X31358800Y170116800D02*
X31358800Y157116800D01*
X96682800Y157116800D02*
X95085800Y149135800D01*
X96682800Y157116800D02*
X149006800Y157116800D01*
X83682800Y157116800D02*
X85279800Y149135800D01*
X31358800Y170116800D02*
X149006800Y170116800D01*
X85279800Y149135800D02*
G75*
G03*
X95085800Y149135800I4903000J979716D01*
G01*
D16*
G04 #@! TO.C,J2*
X123132000Y69189640D02*
X94938000Y69189640D01*
X95065000Y59918640D02*
X95319000Y59918640D01*
X123132000Y59791640D02*
X123132000Y69189640D01*
X95319000Y69062640D02*
X95319000Y59918640D01*
X94938000Y69189640D02*
X94938000Y59791640D01*
X95065000Y69062640D02*
X95319000Y69062640D01*
X94938000Y59791640D02*
X123132000Y59791640D01*
G04 #@! TO.C,J4*
X56858410Y69062640D02*
X57112410Y69062640D01*
X84925410Y69189640D02*
X56731410Y69189640D01*
X84925410Y59791640D02*
X84925410Y69189640D01*
X56858410Y59918640D02*
X57112410Y59918640D01*
X56731410Y69189640D02*
X56731410Y59791640D01*
X56731410Y59791640D02*
X84925410Y59791640D01*
X57112410Y69062640D02*
X57112410Y59918640D01*
G04 #@! TO.C,J1*
X147635000Y156197340D02*
X140167400Y156197340D01*
X140167400Y153606540D02*
X147635000Y153606540D01*
X140167400Y156197340D02*
X140167400Y153606540D01*
X147635000Y153606540D02*
X147635000Y156197340D01*
X146822200Y156806940D02*
G75*
G03*
X146822200Y156806940I-381000J0D01*
G01*
D18*
G04 #@! TO.C,BRD1*
X93867000Y133011000D02*
X93869000Y126549000D01*
X138063000Y134535000D02*
X139333000Y131233000D01*
X91835000Y134154000D02*
X92851000Y133011000D01*
X134126000Y136567000D02*
X138825000Y136567000D01*
X147619000Y85149000D02*
X147691000Y137740000D01*
D19*
X23769000Y71549000D02*
X55869000Y71549000D01*
D18*
X147619000Y85149000D02*
X132869000Y85049000D01*
D19*
X155869000Y148449000D02*
X123769000Y148449000D01*
D18*
X73039000Y127423000D02*
X77865000Y127423000D01*
X71869000Y140749000D02*
X71769000Y133011000D01*
X77865000Y137329000D02*
X85739000Y137329000D01*
X85739000Y129201000D02*
X85739000Y133011000D01*
X133999000Y109897000D02*
X133119000Y109899000D01*
X41653500Y133449000D02*
X46819000Y133449000D01*
X37860000Y92244000D02*
X41670000Y91355000D01*
X73039000Y127931000D02*
X73039000Y127423000D01*
X109819000Y141099000D02*
X109819000Y137049000D01*
X138825000Y135043000D02*
X138847000Y137699000D01*
X134126000Y134027000D02*
X134126000Y136567000D01*
X79770000Y137329000D02*
X79770000Y133011000D01*
X37733000Y108627000D02*
X41670000Y107357000D01*
X134126000Y134027000D02*
X137174000Y134027000D01*
D20*
X157319000Y71999000D02*
X157319000Y150499000D01*
D18*
X91835000Y135932000D02*
X93867000Y137837000D01*
X37860000Y87164000D02*
X37819000Y85049000D01*
X34431000Y126661000D02*
X33219000Y128099000D01*
X132869000Y85049000D02*
X132819000Y105799000D01*
X145429000Y114215000D02*
X147619000Y114215000D01*
X142635000Y117898000D02*
X145429000Y117898000D01*
X142635000Y129963000D02*
X141111000Y131995000D01*
X84215000Y133011000D02*
X71769000Y133011000D01*
X133999000Y125772000D02*
X130824000Y127550000D01*
X109819000Y137049000D02*
X109819000Y128949000D01*
X41619000Y137149000D02*
X40319000Y137149000D01*
X141111000Y119930000D02*
X142635000Y117898000D01*
X138317000Y107865000D02*
X135777000Y109897000D01*
X138847000Y137699000D02*
X147691000Y137740000D01*
X77865000Y137329000D02*
X77865000Y143999000D01*
X142635000Y126026000D02*
X145429000Y126026000D01*
X137047000Y105833000D02*
X138317000Y107865000D01*
X138190000Y119930000D02*
X141111000Y119930000D01*
X95772000Y141139000D02*
X109819000Y141099000D01*
X84215000Y133011000D02*
X90819000Y133011000D01*
X77865000Y129201000D02*
X77865000Y133011000D01*
X41670000Y129836000D02*
X46819000Y129849000D01*
X83834000Y137329000D02*
X83834000Y134789000D01*
X33169000Y137149000D02*
X40319000Y137149000D01*
X73039000Y133011000D02*
X73039000Y127931000D01*
X91835000Y134154000D02*
X91835000Y135932000D01*
X94819000Y144049000D02*
X95772000Y141139000D01*
X37733000Y115485000D02*
X37733000Y108627000D01*
X142169000Y115949000D02*
X141873000Y85099000D01*
X133999000Y117898000D02*
X136412000Y117898000D01*
X136412000Y117898000D02*
X138190000Y119930000D01*
X133119000Y109899000D02*
X132819000Y105799000D01*
D20*
X155319000Y152499000D02*
X24319000Y152499000D01*
D18*
X41670000Y88688000D02*
X37860000Y87164000D01*
X37606000Y125391000D02*
X37606000Y124248000D01*
X29869000Y122999000D02*
X33219000Y128099000D01*
D20*
X22319000Y150499000D02*
X22319000Y71999000D01*
D18*
X37860000Y95419000D02*
X37860000Y92244000D01*
X130824000Y127550000D02*
X130824000Y132376000D01*
X41670000Y116501000D02*
X37733000Y115485000D01*
D19*
X155869000Y148449000D02*
X155869000Y71549000D01*
D18*
X41670000Y123359000D02*
X41670000Y116501000D01*
D19*
X123769000Y148449000D02*
X123769000Y71549000D01*
D20*
X24319000Y69999000D02*
X155319000Y69999000D01*
D18*
X97804000Y126549000D02*
X93869000Y126549000D01*
X132819000Y105799000D02*
X137047000Y105833000D01*
D19*
X59419000Y151049000D02*
X120219000Y151049000D01*
D18*
X77865000Y143999000D02*
X94819000Y144049000D01*
X130824000Y132376000D02*
X134126000Y134027000D01*
X93867000Y137837000D02*
X93867000Y140377000D01*
X145429000Y117898000D02*
X145429000Y114215000D01*
X136920000Y129963000D02*
X138317000Y131868000D01*
X92851000Y133011000D02*
X109819000Y132999000D01*
X133999000Y125772000D02*
X133999000Y117898000D01*
X145429000Y126026000D02*
X145429000Y132757000D01*
X83834000Y134789000D02*
X84215000Y133011000D01*
D19*
X55869000Y71549000D02*
X55869000Y148449000D01*
D18*
X141111000Y127804000D02*
X142635000Y126026000D01*
X137174000Y134027000D02*
X138317000Y131868000D01*
X93867000Y129201000D02*
X77865000Y129201000D01*
X46819000Y133449000D02*
X46819000Y85049000D01*
D19*
X59419000Y118949000D02*
X59419000Y151049000D01*
X120219000Y151049000D02*
X120219000Y118949000D01*
D18*
X134253000Y125772000D02*
X133999000Y125772000D01*
X97804000Y133011000D02*
X97804000Y126549000D01*
D19*
X23769000Y148449000D02*
X55869000Y148449000D01*
D18*
X85739000Y137329000D02*
X85739000Y143999000D01*
X37606000Y125391000D02*
X34431000Y126661000D01*
X134253000Y125772000D02*
X136793000Y125772000D01*
X77865000Y140758000D02*
X71869000Y140749000D01*
X37819000Y85049000D02*
X29819000Y84999000D01*
X33219000Y128099000D02*
X33169000Y137149000D01*
X90819000Y133011000D02*
X91835000Y134154000D01*
D19*
X120219000Y118949000D02*
X59419000Y118949000D01*
D18*
X138190000Y127804000D02*
X141111000Y127804000D01*
X41670000Y107357000D02*
X41670000Y96308000D01*
X136793000Y125772000D02*
X138190000Y127804000D01*
X77865000Y127423000D02*
X77865000Y129201000D01*
X41670000Y123359000D02*
X41619000Y137149000D01*
X135777000Y109897000D02*
X133999000Y109897000D01*
X46819000Y85049000D02*
X37819000Y85049000D01*
X97804000Y128947000D02*
X109819000Y128949000D01*
D19*
X23769000Y71549000D02*
X23769000Y148449000D01*
D18*
X142635000Y117898000D02*
X142169000Y115949000D01*
X41670000Y91355000D02*
X41670000Y88688000D01*
X133119000Y109899000D02*
X133999000Y117898000D01*
X141111000Y127804000D02*
X142635000Y129963000D01*
X145429000Y132757000D02*
X147619000Y132749000D01*
X141111000Y131995000D02*
X138825000Y135043000D01*
X93867000Y140377000D02*
X95772000Y141139000D01*
X29819000Y84999000D02*
X29869000Y122999000D01*
X138190000Y127804000D02*
X136920000Y129963000D01*
X41670000Y116501000D02*
X41670000Y107357000D01*
D19*
X155869000Y71549000D02*
X123769000Y71549000D01*
D18*
X41670000Y96308000D02*
X37860000Y95419000D01*
X37606000Y124248000D02*
X41670000Y123359000D01*
D20*
X24319000Y152499000D02*
G75*
G03*
X22318999Y150499001I-2J-1999999D01*
G01*
X22319000Y71999000D02*
G75*
G03*
X24318999Y69998999I1999999J-2D01*
G01*
X155319000Y69999000D02*
G75*
G03*
X157319001Y71998999I2J1999999D01*
G01*
X157319000Y150499000D02*
G75*
G03*
X155319001Y152499001I-1999999J2D01*
G01*
D13*
G04 #@! TO.C,M3*
X139882000Y49833000D02*
X100732000Y49833000D01*
X100732000Y49833000D02*
X100732000Y34933000D01*
X100732000Y34933000D02*
X139882000Y34933000D01*
X139882000Y34933000D02*
X139882000Y49833000D01*
D18*
G04 #@! TO.C,J13*
X64263000Y51817000D02*
X64263000Y53147000D01*
X66863000Y51817000D02*
X79623000Y51817000D01*
X66863000Y51817000D02*
X66863000Y54477000D01*
X79623000Y51817000D02*
X79623000Y54477000D01*
X65593000Y51817000D02*
X64263000Y51817000D01*
X66863000Y54477000D02*
X79623000Y54477000D01*
D13*
G04 #@! TO.C,M2*
X92507661Y47810501D02*
X92232657Y47535497D01*
X91357663Y47535497D02*
X92232657Y47535497D01*
X91357663Y47535497D02*
X91357660Y47535495D01*
X91357660Y47535495D02*
X91357660Y36635501D01*
X91357660Y36635501D02*
X98243989Y36635501D01*
X92507661Y47810501D02*
X98205142Y47810501D01*
X98205142Y47810501D02*
X98243989Y36635501D01*
G04 #@! TO.C,M1*
X40792000Y34683000D02*
X79942000Y34683000D01*
X79942000Y34683000D02*
X79942000Y49583000D01*
X79942000Y49583000D02*
X40792000Y49583000D01*
X40792000Y49583000D02*
X40792000Y34683000D01*
D18*
G04 #@! TO.C,J7*
X22857000Y31114000D02*
X28357000Y31114000D01*
X28357000Y31114000D02*
X28357000Y31614000D01*
X33967000Y55004000D02*
X29467000Y55004000D01*
X28357000Y36614000D02*
X22857000Y36614000D01*
X22247000Y56424000D02*
X33967000Y56424000D01*
X22857000Y43614000D02*
X28357000Y43614000D01*
X28357000Y49114000D02*
X22857000Y49114000D01*
X33967000Y28804000D02*
X33967000Y30224000D01*
X22857000Y46114000D02*
X28357000Y46114000D01*
X33967000Y30224000D02*
X29467000Y30224000D01*
X28357000Y36114000D02*
X28357000Y36614000D01*
X33057000Y53864000D02*
X33657000Y54164000D01*
X22857000Y48614000D02*
X28357000Y48614000D01*
X28357000Y41614000D02*
X22857000Y41614000D01*
X22857000Y36114000D02*
X28357000Y36114000D01*
X22857000Y36614000D02*
X22857000Y36114000D01*
X33657000Y53564000D02*
X33057000Y53864000D01*
X28357000Y34114000D02*
X22857000Y34114000D01*
X22247000Y42614000D02*
X22247000Y56424000D01*
X28357000Y46114000D02*
X28357000Y46614000D01*
X28357000Y33614000D02*
X28357000Y34114000D01*
X22857000Y39114000D02*
X22857000Y38614000D01*
X22857000Y49114000D02*
X22857000Y48614000D01*
X28357000Y41114000D02*
X28357000Y41614000D01*
X28357000Y31614000D02*
X22857000Y31614000D01*
X28357000Y51114000D02*
X28357000Y51614000D01*
X22857000Y41114000D02*
X28357000Y41114000D01*
X22857000Y54114000D02*
X22857000Y53614000D01*
X28357000Y43614000D02*
X28357000Y44114000D01*
X22247000Y42614000D02*
X22247000Y28804000D01*
X33657000Y54164000D02*
X33657000Y53564000D01*
X22857000Y51114000D02*
X28357000Y51114000D01*
X28357000Y46614000D02*
X22857000Y46614000D01*
X33967000Y56424000D02*
X33967000Y55004000D01*
X28357000Y48614000D02*
X28357000Y49114000D01*
X22857000Y31614000D02*
X22857000Y31114000D01*
X28357000Y44114000D02*
X22857000Y44114000D01*
X22857000Y34114000D02*
X22857000Y33614000D01*
X28357000Y38614000D02*
X28357000Y39114000D01*
X22857000Y38614000D02*
X28357000Y38614000D01*
X22247000Y28804000D02*
X33967000Y28804000D01*
X22857000Y41614000D02*
X22857000Y41114000D01*
X22857000Y44114000D02*
X22857000Y43614000D01*
X28357000Y51614000D02*
X22857000Y51614000D01*
X29467000Y55004000D02*
X29467000Y42614000D01*
X22857000Y46614000D02*
X22857000Y46114000D01*
X28357000Y54114000D02*
X22857000Y54114000D01*
X22857000Y51614000D02*
X22857000Y51114000D01*
X29467000Y30224000D02*
X29467000Y42614000D01*
X28357000Y53614000D02*
X28357000Y54114000D01*
X22857000Y33614000D02*
X28357000Y33614000D01*
X28357000Y39114000D02*
X22857000Y39114000D01*
X22857000Y53614000D02*
X28357000Y53614000D01*
D13*
G04 #@! TO.C,M4*
X88850340Y47810498D02*
X81964011Y47810498D01*
X88850337Y36910502D02*
X88850340Y36910504D01*
X82002858Y36635498D02*
X81964011Y47810498D01*
X87700339Y36635498D02*
X82002858Y36635498D01*
X87700339Y36635498D02*
X87975343Y36910502D01*
X88850340Y36910504D02*
X88850340Y47810498D01*
X88850337Y36910502D02*
X87975343Y36910502D01*
D18*
G04 #@! TO.C,J3*
X101474000Y33014000D02*
X101474000Y30354000D01*
X114234000Y30354000D02*
X101474000Y30354000D01*
X114234000Y33014000D02*
X101474000Y33014000D01*
X115504000Y33014000D02*
X116834000Y33014000D01*
X116834000Y33014000D02*
X116834000Y31684000D01*
X114234000Y33014000D02*
X114234000Y30354000D01*
G04 #@! TO.C,J10*
X150233000Y30224000D02*
X150233000Y42614000D01*
X156843000Y46114000D02*
X156843000Y46614000D01*
X156843000Y31614000D02*
X151343000Y31614000D01*
X151343000Y36114000D02*
X156843000Y36114000D01*
X156843000Y51614000D02*
X151343000Y51614000D01*
X151343000Y43614000D02*
X156843000Y43614000D01*
X156843000Y49114000D02*
X151343000Y49114000D01*
X157453000Y56424000D02*
X145733000Y56424000D01*
X151343000Y53614000D02*
X156843000Y53614000D01*
X157453000Y42614000D02*
X157453000Y28804000D01*
X156843000Y53614000D02*
X156843000Y54114000D01*
X146043000Y31064000D02*
X146043000Y31664000D01*
X151343000Y48614000D02*
X156843000Y48614000D01*
X156843000Y51114000D02*
X156843000Y51614000D01*
X156843000Y41614000D02*
X151343000Y41614000D01*
X151343000Y33614000D02*
X156843000Y33614000D01*
X150233000Y55004000D02*
X150233000Y42614000D01*
X151343000Y44114000D02*
X151343000Y43614000D01*
X156843000Y36114000D02*
X156843000Y36614000D01*
X156843000Y36614000D02*
X151343000Y36614000D01*
X145733000Y56424000D02*
X145733000Y55004000D01*
X156843000Y38614000D02*
X156843000Y39114000D01*
X151343000Y46114000D02*
X156843000Y46114000D01*
X156843000Y54114000D02*
X151343000Y54114000D01*
X156843000Y41114000D02*
X156843000Y41614000D01*
X156843000Y46614000D02*
X151343000Y46614000D01*
X157453000Y42614000D02*
X157453000Y56424000D01*
X151343000Y46614000D02*
X151343000Y46114000D01*
X151343000Y38614000D02*
X156843000Y38614000D01*
X151343000Y54114000D02*
X151343000Y53614000D01*
X156843000Y34114000D02*
X151343000Y34114000D01*
X146643000Y31364000D02*
X146043000Y31064000D01*
X151343000Y36614000D02*
X151343000Y36114000D01*
X156843000Y43614000D02*
X156843000Y44114000D01*
X145733000Y28804000D02*
X145733000Y30224000D01*
X151343000Y31114000D02*
X156843000Y31114000D01*
X151343000Y41614000D02*
X151343000Y41114000D01*
X151343000Y34114000D02*
X151343000Y33614000D01*
X145733000Y55004000D02*
X150233000Y55004000D01*
X156843000Y48614000D02*
X156843000Y49114000D01*
X151343000Y49114000D02*
X151343000Y48614000D01*
X156843000Y39114000D02*
X151343000Y39114000D01*
X151343000Y39114000D02*
X151343000Y38614000D01*
X156843000Y44114000D02*
X151343000Y44114000D01*
X156843000Y33614000D02*
X156843000Y34114000D01*
X151343000Y51114000D02*
X156843000Y51114000D01*
X151343000Y41114000D02*
X156843000Y41114000D01*
X145733000Y30224000D02*
X150233000Y30224000D01*
X157453000Y28804000D02*
X145733000Y28804000D01*
X156843000Y31114000D02*
X156843000Y31614000D01*
X151343000Y51614000D02*
X151343000Y51114000D01*
X151343000Y31614000D02*
X151343000Y31114000D01*
X146043000Y31664000D02*
X146643000Y31364000D01*
G04 #@! TD*
M02*
