G04 #@! TF.GenerationSoftware,KiCad,Pcbnew,(6.0.5)*
G04 #@! TF.CreationDate,2022-05-25T17:37:42+03:00*
G04 #@! TF.ProjectId,5.0mustangProteusPnP,352e306d-7573-4746-916e-6750726f7465,R0.1*
G04 #@! TF.SameCoordinates,Original*
G04 #@! TF.FileFunction,Legend,Top*
G04 #@! TF.FilePolarity,Positive*
%FSLAX46Y46*%
G04 Gerber Fmt 4.6, Leading zero omitted, Abs format (unit mm)*
G04 Created by KiCad (PCBNEW (6.0.5)) date 2022-05-25 17:37:42*
%MOMM*%
%LPD*%
G01*
G04 APERTURE LIST*
G04 #@! TA.AperFunction,Profile*
%ADD10C,0.200000*%
G04 #@! TD*
%ADD11C,0.130000*%
%ADD12C,0.150000*%
%ADD13C,0.200000*%
%ADD14C,0.139700*%
%ADD15C,0.300000*%
%ADD16C,0.152400*%
%ADD17C,0.127000*%
%ADD18C,0.120000*%
%ADD19C,0.500000*%
%ADD20C,0.100000*%
G04 APERTURE END LIST*
D10*
X95885000Y-211201000D02*
X95885000Y-74627000D01*
X224406100Y-62865000D02*
X107638100Y-62865000D01*
X107638100Y-62865000D02*
X95885000Y-74627000D01*
X235585000Y-211201000D02*
X235585000Y-74627000D01*
X234315000Y-212471000D02*
G75*
G03*
X235585000Y-211201000I0J1270000D01*
G01*
X104235250Y-73977500D02*
G75*
G03*
X104235250Y-73977500I-2381250J0D01*
G01*
X224406100Y-62865000D02*
X235585000Y-74627000D01*
X95885000Y-211201000D02*
G75*
G03*
X97155000Y-212471000I1270000J0D01*
G01*
X234315000Y-212471000D02*
X97155000Y-212471000D01*
X231877750Y-73977500D02*
G75*
G03*
X231877750Y-73977500I-2381250J0D01*
G01*
D11*
X214986204Y-68780780D02*
X215034585Y-68732400D01*
X215131347Y-68684019D01*
X215373252Y-68684019D01*
X215470014Y-68732400D01*
X215518395Y-68780780D01*
X215566776Y-68877542D01*
X215566776Y-68974304D01*
X215518395Y-69119447D01*
X214937823Y-69700019D01*
X215566776Y-69700019D01*
X216534395Y-69700019D02*
X215953823Y-69700019D01*
X216244109Y-69700019D02*
X216244109Y-68684019D01*
X216147347Y-68829161D01*
X216050585Y-68925923D01*
X215953823Y-68974304D01*
X183511613Y-96265879D02*
X183511613Y-96991593D01*
X183463232Y-97136736D01*
X183366470Y-97233498D01*
X183221327Y-97281879D01*
X183124565Y-97281879D01*
X183898660Y-96265879D02*
X184527613Y-96265879D01*
X184188946Y-96652926D01*
X184334089Y-96652926D01*
X184430851Y-96701307D01*
X184479232Y-96749688D01*
X184527613Y-96846450D01*
X184527613Y-97088355D01*
X184479232Y-97185117D01*
X184430851Y-97233498D01*
X184334089Y-97281879D01*
X184043803Y-97281879D01*
X183947041Y-97233498D01*
X183898660Y-97185117D01*
X224324333Y-120487319D02*
X224324333Y-121213033D01*
X224275952Y-121358176D01*
X224179190Y-121454938D01*
X224034047Y-121503319D01*
X223937285Y-121503319D01*
X225291952Y-120487319D02*
X224808142Y-120487319D01*
X224759761Y-120971128D01*
X224808142Y-120922747D01*
X224904904Y-120874366D01*
X225146809Y-120874366D01*
X225243571Y-120922747D01*
X225291952Y-120971128D01*
X225340333Y-121067890D01*
X225340333Y-121309795D01*
X225291952Y-121406557D01*
X225243571Y-121454938D01*
X225146809Y-121503319D01*
X224904904Y-121503319D01*
X224808142Y-121454938D01*
X224759761Y-121406557D01*
X115140014Y-71859019D02*
X114946490Y-71859019D01*
X114849728Y-71907400D01*
X114801347Y-71955780D01*
X114704585Y-72100923D01*
X114656204Y-72294447D01*
X114656204Y-72681495D01*
X114704585Y-72778257D01*
X114752966Y-72826638D01*
X114849728Y-72875019D01*
X115043252Y-72875019D01*
X115140014Y-72826638D01*
X115188395Y-72778257D01*
X115236776Y-72681495D01*
X115236776Y-72439590D01*
X115188395Y-72342828D01*
X115140014Y-72294447D01*
X115043252Y-72246066D01*
X114849728Y-72246066D01*
X114752966Y-72294447D01*
X114704585Y-72342828D01*
X114656204Y-72439590D01*
X115865728Y-71859019D02*
X115962490Y-71859019D01*
X116059252Y-71907400D01*
X116107633Y-71955780D01*
X116156014Y-72052542D01*
X116204395Y-72246066D01*
X116204395Y-72487971D01*
X116156014Y-72681495D01*
X116107633Y-72778257D01*
X116059252Y-72826638D01*
X115962490Y-72875019D01*
X115865728Y-72875019D01*
X115768966Y-72826638D01*
X115720585Y-72778257D01*
X115672204Y-72681495D01*
X115623823Y-72487971D01*
X115623823Y-72246066D01*
X115672204Y-72052542D01*
X115720585Y-71955780D01*
X115768966Y-71907400D01*
X115865728Y-71859019D01*
X103928333Y-122506619D02*
X103928333Y-123232333D01*
X103879952Y-123377476D01*
X103783190Y-123474238D01*
X103638047Y-123522619D01*
X103541285Y-123522619D01*
X104847571Y-122506619D02*
X104654047Y-122506619D01*
X104557285Y-122555000D01*
X104508904Y-122603380D01*
X104412142Y-122748523D01*
X104363761Y-122942047D01*
X104363761Y-123329095D01*
X104412142Y-123425857D01*
X104460523Y-123474238D01*
X104557285Y-123522619D01*
X104750809Y-123522619D01*
X104847571Y-123474238D01*
X104895952Y-123425857D01*
X104944333Y-123329095D01*
X104944333Y-123087190D01*
X104895952Y-122990428D01*
X104847571Y-122942047D01*
X104750809Y-122893666D01*
X104557285Y-122893666D01*
X104460523Y-122942047D01*
X104412142Y-122990428D01*
X104363761Y-123087190D01*
X174291776Y-66525019D02*
X173711204Y-66525019D01*
X174001490Y-66525019D02*
X174001490Y-65509019D01*
X173904728Y-65654161D01*
X173807966Y-65750923D01*
X173711204Y-65799304D01*
X174920728Y-65509019D02*
X175017490Y-65509019D01*
X175114252Y-65557400D01*
X175162633Y-65605780D01*
X175211014Y-65702542D01*
X175259395Y-65896066D01*
X175259395Y-66137971D01*
X175211014Y-66331495D01*
X175162633Y-66428257D01*
X175114252Y-66476638D01*
X175017490Y-66525019D01*
X174920728Y-66525019D01*
X174823966Y-66476638D01*
X174775585Y-66428257D01*
X174727204Y-66331495D01*
X174678823Y-66137971D01*
X174678823Y-65896066D01*
X174727204Y-65702542D01*
X174775585Y-65605780D01*
X174823966Y-65557400D01*
X174920728Y-65509019D01*
X125542331Y-168461185D02*
X125792331Y-169211185D01*
X126042331Y-168461185D01*
X126435188Y-168461185D02*
X126506617Y-168461185D01*
X126578045Y-168496900D01*
X126613760Y-168532614D01*
X126649474Y-168604042D01*
X126685188Y-168746900D01*
X126685188Y-168925471D01*
X126649474Y-169068328D01*
X126613760Y-169139757D01*
X126578045Y-169175471D01*
X126506617Y-169211185D01*
X126435188Y-169211185D01*
X126363760Y-169175471D01*
X126328045Y-169139757D01*
X126292331Y-169068328D01*
X126256617Y-168925471D01*
X126256617Y-168746900D01*
X126292331Y-168604042D01*
X126328045Y-168532614D01*
X126363760Y-168496900D01*
X126435188Y-168461185D01*
X127006617Y-169139757D02*
X127042331Y-169175471D01*
X127006617Y-169211185D01*
X126970902Y-169175471D01*
X127006617Y-169139757D01*
X127006617Y-169211185D01*
X127328045Y-168532614D02*
X127363760Y-168496900D01*
X127435188Y-168461185D01*
X127613760Y-168461185D01*
X127685188Y-168496900D01*
X127720902Y-168532614D01*
X127756617Y-168604042D01*
X127756617Y-168675471D01*
X127720902Y-168782614D01*
X127292331Y-169211185D01*
X127756617Y-169211185D01*
X128078045Y-169211185D02*
X128078045Y-168711185D01*
X128078045Y-168854042D02*
X128113760Y-168782614D01*
X128149474Y-168746900D01*
X128220902Y-168711185D01*
X128292331Y-168711185D01*
X128828045Y-169175471D02*
X128756617Y-169211185D01*
X128613760Y-169211185D01*
X128542331Y-169175471D01*
X128506617Y-169104042D01*
X128506617Y-168818328D01*
X128542331Y-168746900D01*
X128613760Y-168711185D01*
X128756617Y-168711185D01*
X128828045Y-168746900D01*
X128863760Y-168818328D01*
X128863760Y-168889757D01*
X128506617Y-168961185D01*
X213716204Y-71955780D02*
X213764585Y-71907400D01*
X213861347Y-71859019D01*
X214103252Y-71859019D01*
X214200014Y-71907400D01*
X214248395Y-71955780D01*
X214296776Y-72052542D01*
X214296776Y-72149304D01*
X214248395Y-72294447D01*
X213667823Y-72875019D01*
X214296776Y-72875019D01*
X214925728Y-71859019D02*
X215022490Y-71859019D01*
X215119252Y-71907400D01*
X215167633Y-71955780D01*
X215216014Y-72052542D01*
X215264395Y-72246066D01*
X215264395Y-72487971D01*
X215216014Y-72681495D01*
X215167633Y-72778257D01*
X215119252Y-72826638D01*
X215022490Y-72875019D01*
X214925728Y-72875019D01*
X214828966Y-72826638D01*
X214780585Y-72778257D01*
X214732204Y-72681495D01*
X214683823Y-72487971D01*
X214683823Y-72246066D01*
X214732204Y-72052542D01*
X214780585Y-71955780D01*
X214828966Y-71907400D01*
X214925728Y-71859019D01*
X98391006Y-164421066D02*
X97557673Y-164421066D01*
X97474339Y-165254400D01*
X97557673Y-165171066D01*
X97724339Y-165087733D01*
X98141006Y-165087733D01*
X98307673Y-165171066D01*
X98391006Y-165254400D01*
X98474339Y-165421066D01*
X98474339Y-165837733D01*
X98391006Y-166004400D01*
X98307673Y-166087733D01*
X98141006Y-166171066D01*
X97724339Y-166171066D01*
X97557673Y-166087733D01*
X97474339Y-166004400D01*
X99224339Y-166004400D02*
X99307673Y-166087733D01*
X99224339Y-166171066D01*
X99141006Y-166087733D01*
X99224339Y-166004400D01*
X99224339Y-166171066D01*
X100391006Y-164421066D02*
X100557673Y-164421066D01*
X100724339Y-164504400D01*
X100807673Y-164587733D01*
X100891006Y-164754400D01*
X100974339Y-165087733D01*
X100974339Y-165504400D01*
X100891006Y-165837733D01*
X100807673Y-166004400D01*
X100724339Y-166087733D01*
X100557673Y-166171066D01*
X100391006Y-166171066D01*
X100224339Y-166087733D01*
X100141006Y-166004400D01*
X100057673Y-165837733D01*
X99974339Y-165504400D01*
X99974339Y-165087733D01*
X100057673Y-164754400D01*
X100141006Y-164587733D01*
X100224339Y-164504400D01*
X100391006Y-164421066D01*
X103057673Y-166171066D02*
X103057673Y-164421066D01*
X103641006Y-165671066D01*
X104224339Y-164421066D01*
X104224339Y-166171066D01*
X105807673Y-165004400D02*
X105807673Y-166171066D01*
X105057673Y-165004400D02*
X105057673Y-165921066D01*
X105141006Y-166087733D01*
X105307673Y-166171066D01*
X105557673Y-166171066D01*
X105724339Y-166087733D01*
X105807673Y-166004400D01*
X106557673Y-166087733D02*
X106724339Y-166171066D01*
X107057673Y-166171066D01*
X107224339Y-166087733D01*
X107307673Y-165921066D01*
X107307673Y-165837733D01*
X107224339Y-165671066D01*
X107057673Y-165587733D01*
X106807673Y-165587733D01*
X106641006Y-165504400D01*
X106557673Y-165337733D01*
X106557673Y-165254400D01*
X106641006Y-165087733D01*
X106807673Y-165004400D01*
X107057673Y-165004400D01*
X107224339Y-165087733D01*
X107807673Y-165004400D02*
X108474339Y-165004400D01*
X108057673Y-164421066D02*
X108057673Y-165921066D01*
X108141006Y-166087733D01*
X108307673Y-166171066D01*
X108474339Y-166171066D01*
X109807673Y-166171066D02*
X109807673Y-165254400D01*
X109724339Y-165087733D01*
X109557673Y-165004400D01*
X109224339Y-165004400D01*
X109057673Y-165087733D01*
X109807673Y-166087733D02*
X109641006Y-166171066D01*
X109224339Y-166171066D01*
X109057673Y-166087733D01*
X108974339Y-165921066D01*
X108974339Y-165754400D01*
X109057673Y-165587733D01*
X109224339Y-165504400D01*
X109641006Y-165504400D01*
X109807673Y-165421066D01*
X110641006Y-165004400D02*
X110641006Y-166171066D01*
X110641006Y-165171066D02*
X110724339Y-165087733D01*
X110891006Y-165004400D01*
X111141006Y-165004400D01*
X111307673Y-165087733D01*
X111391006Y-165254400D01*
X111391006Y-166171066D01*
X112974339Y-165004400D02*
X112974339Y-166421066D01*
X112891006Y-166587733D01*
X112807673Y-166671066D01*
X112641006Y-166754400D01*
X112391006Y-166754400D01*
X112224339Y-166671066D01*
X112974339Y-166087733D02*
X112807673Y-166171066D01*
X112474339Y-166171066D01*
X112307673Y-166087733D01*
X112224339Y-166004400D01*
X112141006Y-165837733D01*
X112141006Y-165337733D01*
X112224339Y-165171066D01*
X112307673Y-165087733D01*
X112474339Y-165004400D01*
X112807673Y-165004400D01*
X112974339Y-165087733D01*
X115141006Y-166171066D02*
X115141006Y-164421066D01*
X115807673Y-164421066D01*
X115974340Y-164504400D01*
X116057673Y-164587733D01*
X116141006Y-164754400D01*
X116141006Y-165004400D01*
X116057673Y-165171066D01*
X115974340Y-165254400D01*
X115807673Y-165337733D01*
X115141006Y-165337733D01*
X116891006Y-166171066D02*
X116891006Y-165004400D01*
X116891006Y-165337733D02*
X116974340Y-165171066D01*
X117057673Y-165087733D01*
X117224340Y-165004400D01*
X117391006Y-165004400D01*
X118224340Y-166171066D02*
X118057673Y-166087733D01*
X117974340Y-166004400D01*
X117891006Y-165837733D01*
X117891006Y-165337733D01*
X117974340Y-165171066D01*
X118057673Y-165087733D01*
X118224340Y-165004400D01*
X118474340Y-165004400D01*
X118641006Y-165087733D01*
X118724340Y-165171066D01*
X118807673Y-165337733D01*
X118807673Y-165837733D01*
X118724340Y-166004400D01*
X118641006Y-166087733D01*
X118474340Y-166171066D01*
X118224340Y-166171066D01*
X119307673Y-165004400D02*
X119974339Y-165004400D01*
X119557673Y-164421066D02*
X119557673Y-165921066D01*
X119641006Y-166087733D01*
X119807673Y-166171066D01*
X119974339Y-166171066D01*
X121224339Y-166087733D02*
X121057673Y-166171066D01*
X120724339Y-166171066D01*
X120557673Y-166087733D01*
X120474339Y-165921066D01*
X120474339Y-165254400D01*
X120557673Y-165087733D01*
X120724339Y-165004400D01*
X121057673Y-165004400D01*
X121224339Y-165087733D01*
X121307673Y-165254400D01*
X121307673Y-165421066D01*
X120474339Y-165587733D01*
X122807673Y-165004400D02*
X122807673Y-166171066D01*
X122057673Y-165004400D02*
X122057673Y-165921066D01*
X122141006Y-166087733D01*
X122307673Y-166171066D01*
X122557673Y-166171066D01*
X122724339Y-166087733D01*
X122807673Y-166004400D01*
X123557673Y-166087733D02*
X123724339Y-166171066D01*
X124057673Y-166171066D01*
X124224339Y-166087733D01*
X124307673Y-165921066D01*
X124307673Y-165837733D01*
X124224339Y-165671066D01*
X124057673Y-165587733D01*
X123807673Y-165587733D01*
X123641006Y-165504400D01*
X123557673Y-165337733D01*
X123557673Y-165254400D01*
X123641006Y-165087733D01*
X123807673Y-165004400D01*
X124057673Y-165004400D01*
X124224339Y-165087733D01*
X126391006Y-166171066D02*
X126391006Y-164421066D01*
X127057673Y-164421066D01*
X127224339Y-164504400D01*
X127307673Y-164587733D01*
X127391006Y-164754400D01*
X127391006Y-165004400D01*
X127307673Y-165171066D01*
X127224339Y-165254400D01*
X127057673Y-165337733D01*
X126391006Y-165337733D01*
X128141006Y-165004400D02*
X128141006Y-166171066D01*
X128141006Y-165171066D02*
X128224339Y-165087733D01*
X128391006Y-165004400D01*
X128641006Y-165004400D01*
X128807673Y-165087733D01*
X128891006Y-165254400D01*
X128891006Y-166171066D01*
X129724339Y-166171066D02*
X129724339Y-164421066D01*
X130391006Y-164421066D01*
X130557673Y-164504400D01*
X130641006Y-164587733D01*
X130724339Y-164754400D01*
X130724339Y-165004400D01*
X130641006Y-165171066D01*
X130557673Y-165254400D01*
X130391006Y-165337733D01*
X129724339Y-165337733D01*
X217320585Y-66525019D02*
X216740014Y-66525019D01*
X217030300Y-66525019D02*
X217030300Y-65509019D01*
X216933538Y-65654161D01*
X216836776Y-65750923D01*
X216740014Y-65799304D01*
X157098395Y-71859019D02*
X156614585Y-71859019D01*
X156566204Y-72342828D01*
X156614585Y-72294447D01*
X156711347Y-72246066D01*
X156953252Y-72246066D01*
X157050014Y-72294447D01*
X157098395Y-72342828D01*
X157146776Y-72439590D01*
X157146776Y-72681495D01*
X157098395Y-72778257D01*
X157050014Y-72826638D01*
X156953252Y-72875019D01*
X156711347Y-72875019D01*
X156614585Y-72826638D01*
X156566204Y-72778257D01*
X158114395Y-72875019D02*
X157533823Y-72875019D01*
X157824109Y-72875019D02*
X157824109Y-71859019D01*
X157727347Y-72004161D01*
X157630585Y-72100923D01*
X157533823Y-72149304D01*
X99892008Y-169464111D02*
X99892008Y-167964111D01*
X100249151Y-167964111D01*
X100463437Y-168035540D01*
X100606294Y-168178397D01*
X100677722Y-168321254D01*
X100749151Y-168606968D01*
X100749151Y-168821254D01*
X100677722Y-169106968D01*
X100606294Y-169249825D01*
X100463437Y-169392682D01*
X100249151Y-169464111D01*
X99892008Y-169464111D01*
X101963437Y-169392682D02*
X101820580Y-169464111D01*
X101534865Y-169464111D01*
X101392008Y-169392682D01*
X101320580Y-169249825D01*
X101320580Y-168678397D01*
X101392008Y-168535540D01*
X101534865Y-168464111D01*
X101820580Y-168464111D01*
X101963437Y-168535540D01*
X102034865Y-168678397D01*
X102034865Y-168821254D01*
X101320580Y-168964111D01*
X102606294Y-169392682D02*
X102749151Y-169464111D01*
X103034865Y-169464111D01*
X103177722Y-169392682D01*
X103249151Y-169249825D01*
X103249151Y-169178397D01*
X103177722Y-169035540D01*
X103034865Y-168964111D01*
X102820580Y-168964111D01*
X102677722Y-168892682D01*
X102606294Y-168749825D01*
X102606294Y-168678397D01*
X102677722Y-168535540D01*
X102820580Y-168464111D01*
X103034865Y-168464111D01*
X103177722Y-168535540D01*
X103892008Y-169464111D02*
X103892008Y-168464111D01*
X103892008Y-167964111D02*
X103820580Y-168035540D01*
X103892008Y-168106968D01*
X103963437Y-168035540D01*
X103892008Y-167964111D01*
X103892008Y-168106968D01*
X105249151Y-168464111D02*
X105249151Y-169678397D01*
X105177722Y-169821254D01*
X105106294Y-169892682D01*
X104963437Y-169964111D01*
X104749151Y-169964111D01*
X104606294Y-169892682D01*
X105249151Y-169392682D02*
X105106294Y-169464111D01*
X104820580Y-169464111D01*
X104677722Y-169392682D01*
X104606294Y-169321254D01*
X104534865Y-169178397D01*
X104534865Y-168749825D01*
X104606294Y-168606968D01*
X104677722Y-168535540D01*
X104820580Y-168464111D01*
X105106294Y-168464111D01*
X105249151Y-168535540D01*
X105963437Y-168464111D02*
X105963437Y-169464111D01*
X105963437Y-168606968D02*
X106034865Y-168535540D01*
X106177722Y-168464111D01*
X106392008Y-168464111D01*
X106534865Y-168535540D01*
X106606294Y-168678397D01*
X106606294Y-169464111D01*
X108463437Y-169464111D02*
X108463437Y-167964111D01*
X108463437Y-168535540D02*
X108606294Y-168464111D01*
X108892008Y-168464111D01*
X109034865Y-168535540D01*
X109106294Y-168606968D01*
X109177722Y-168749825D01*
X109177722Y-169178397D01*
X109106294Y-169321254D01*
X109034865Y-169392682D01*
X108892008Y-169464111D01*
X108606294Y-169464111D01*
X108463437Y-169392682D01*
X109677722Y-168464111D02*
X110034865Y-169464111D01*
X110392008Y-168464111D02*
X110034865Y-169464111D01*
X109892008Y-169821254D01*
X109820580Y-169892682D01*
X109677722Y-169964111D01*
X111963437Y-168464111D02*
X112249151Y-169464111D01*
X112534865Y-168749825D01*
X112820580Y-169464111D01*
X113106294Y-168464111D01*
X113606294Y-169392682D02*
X113749151Y-169464111D01*
X114034865Y-169464111D01*
X114177722Y-169392682D01*
X114249151Y-169249825D01*
X114249151Y-169178397D01*
X114177722Y-169035540D01*
X114034865Y-168964111D01*
X113820580Y-168964111D01*
X113677722Y-168892682D01*
X113606294Y-168749825D01*
X113606294Y-168678397D01*
X113677722Y-168535540D01*
X113820580Y-168464111D01*
X114034865Y-168464111D01*
X114177722Y-168535540D01*
X114677722Y-168464111D02*
X115249151Y-168464111D01*
X114892008Y-167964111D02*
X114892008Y-169249825D01*
X114963437Y-169392682D01*
X115106294Y-169464111D01*
X115249151Y-169464111D01*
X116320580Y-169392682D02*
X116177722Y-169464111D01*
X115892008Y-169464111D01*
X115749151Y-169392682D01*
X115677722Y-169249825D01*
X115677722Y-168678397D01*
X115749151Y-168535540D01*
X115892008Y-168464111D01*
X116177722Y-168464111D01*
X116320580Y-168535540D01*
X116392008Y-168678397D01*
X116392008Y-168821254D01*
X115677722Y-168964111D01*
X116820580Y-168464111D02*
X117392008Y-168464111D01*
X117034865Y-169464111D02*
X117034865Y-168178397D01*
X117106294Y-168035540D01*
X117249151Y-167964111D01*
X117392008Y-167964111D01*
X118534865Y-169464111D02*
X118534865Y-168678397D01*
X118463437Y-168535540D01*
X118320580Y-168464111D01*
X118034865Y-168464111D01*
X117892008Y-168535540D01*
X118534865Y-169392682D02*
X118392008Y-169464111D01*
X118034865Y-169464111D01*
X117892008Y-169392682D01*
X117820580Y-169249825D01*
X117820580Y-169106968D01*
X117892008Y-168964111D01*
X118034865Y-168892682D01*
X118392008Y-168892682D01*
X118534865Y-168821254D01*
X119249151Y-168464111D02*
X119249151Y-169464111D01*
X119249151Y-168606968D02*
X119320580Y-168535540D01*
X119463437Y-168464111D01*
X119677722Y-168464111D01*
X119820580Y-168535540D01*
X119892008Y-168678397D01*
X119892008Y-169464111D01*
X120534865Y-168106968D02*
X120606294Y-168035540D01*
X120749151Y-167964111D01*
X121106294Y-167964111D01*
X121249151Y-168035540D01*
X121320580Y-168106968D01*
X121392008Y-168249825D01*
X121392008Y-168392682D01*
X121320580Y-168606968D01*
X120463437Y-169464111D01*
X121392008Y-169464111D01*
X122320580Y-167964111D02*
X122463437Y-167964111D01*
X122606294Y-168035540D01*
X122677722Y-168106968D01*
X122749151Y-168249825D01*
X122820580Y-168535540D01*
X122820580Y-168892682D01*
X122749151Y-169178397D01*
X122677722Y-169321254D01*
X122606294Y-169392682D01*
X122463437Y-169464111D01*
X122320580Y-169464111D01*
X122177722Y-169392682D01*
X122106294Y-169321254D01*
X122034865Y-169178397D01*
X121963437Y-168892682D01*
X121963437Y-168535540D01*
X122034865Y-168249825D01*
X122106294Y-168106968D01*
X122177722Y-168035540D01*
X122320580Y-167964111D01*
X171703395Y-71859019D02*
X171219585Y-71859019D01*
X171171204Y-72342828D01*
X171219585Y-72294447D01*
X171316347Y-72246066D01*
X171558252Y-72246066D01*
X171655014Y-72294447D01*
X171703395Y-72342828D01*
X171751776Y-72439590D01*
X171751776Y-72681495D01*
X171703395Y-72778257D01*
X171655014Y-72826638D01*
X171558252Y-72875019D01*
X171316347Y-72875019D01*
X171219585Y-72826638D01*
X171171204Y-72778257D01*
X172380728Y-71859019D02*
X172477490Y-71859019D01*
X172574252Y-71907400D01*
X172622633Y-71955780D01*
X172671014Y-72052542D01*
X172719395Y-72246066D01*
X172719395Y-72487971D01*
X172671014Y-72681495D01*
X172622633Y-72778257D01*
X172574252Y-72826638D01*
X172477490Y-72875019D01*
X172380728Y-72875019D01*
X172283966Y-72826638D01*
X172235585Y-72778257D01*
X172187204Y-72681495D01*
X172138823Y-72487971D01*
X172138823Y-72246066D01*
X172187204Y-72052542D01*
X172235585Y-71955780D01*
X172283966Y-71907400D01*
X172380728Y-71859019D01*
X99830645Y-172312905D02*
X99830645Y-172920048D01*
X99794931Y-172991477D01*
X99759217Y-173027191D01*
X99687788Y-173062905D01*
X99580645Y-173062905D01*
X99509217Y-173027191D01*
X99830645Y-172777191D02*
X99759217Y-172812905D01*
X99616360Y-172812905D01*
X99544931Y-172777191D01*
X99509217Y-172741477D01*
X99473502Y-172670048D01*
X99473502Y-172455762D01*
X99509217Y-172384334D01*
X99544931Y-172348620D01*
X99616360Y-172312905D01*
X99759217Y-172312905D01*
X99830645Y-172348620D01*
X100187788Y-172812905D02*
X100187788Y-172312905D01*
X100187788Y-172062905D02*
X100152074Y-172098620D01*
X100187788Y-172134334D01*
X100223502Y-172098620D01*
X100187788Y-172062905D01*
X100187788Y-172134334D01*
X100437788Y-172312905D02*
X100723502Y-172312905D01*
X100544931Y-172062905D02*
X100544931Y-172705762D01*
X100580645Y-172777191D01*
X100652074Y-172812905D01*
X100723502Y-172812905D01*
X100973502Y-172812905D02*
X100973502Y-172062905D01*
X101294931Y-172812905D02*
X101294931Y-172420048D01*
X101259217Y-172348620D01*
X101187788Y-172312905D01*
X101080645Y-172312905D01*
X101009217Y-172348620D01*
X100973502Y-172384334D01*
X101973502Y-172312905D02*
X101973502Y-172812905D01*
X101652074Y-172312905D02*
X101652074Y-172705762D01*
X101687788Y-172777191D01*
X101759217Y-172812905D01*
X101866360Y-172812905D01*
X101937788Y-172777191D01*
X101973502Y-172741477D01*
X102330645Y-172812905D02*
X102330645Y-172062905D01*
X102330645Y-172348620D02*
X102402074Y-172312905D01*
X102544931Y-172312905D01*
X102616360Y-172348620D01*
X102652074Y-172384334D01*
X102687788Y-172455762D01*
X102687788Y-172670048D01*
X102652074Y-172741477D01*
X102616360Y-172777191D01*
X102544931Y-172812905D01*
X102402074Y-172812905D01*
X102330645Y-172777191D01*
X103009217Y-172741477D02*
X103044931Y-172777191D01*
X103009217Y-172812905D01*
X102973502Y-172777191D01*
X103009217Y-172741477D01*
X103009217Y-172812905D01*
X103687788Y-172777191D02*
X103616360Y-172812905D01*
X103473502Y-172812905D01*
X103402074Y-172777191D01*
X103366360Y-172741477D01*
X103330645Y-172670048D01*
X103330645Y-172455762D01*
X103366360Y-172384334D01*
X103402074Y-172348620D01*
X103473502Y-172312905D01*
X103616360Y-172312905D01*
X103687788Y-172348620D01*
X104116360Y-172812905D02*
X104044931Y-172777191D01*
X104009217Y-172741477D01*
X103973502Y-172670048D01*
X103973502Y-172455762D01*
X104009217Y-172384334D01*
X104044931Y-172348620D01*
X104116360Y-172312905D01*
X104223502Y-172312905D01*
X104294931Y-172348620D01*
X104330645Y-172384334D01*
X104366360Y-172455762D01*
X104366360Y-172670048D01*
X104330645Y-172741477D01*
X104294931Y-172777191D01*
X104223502Y-172812905D01*
X104116360Y-172812905D01*
X104687788Y-172812905D02*
X104687788Y-172312905D01*
X104687788Y-172384334D02*
X104723502Y-172348620D01*
X104794931Y-172312905D01*
X104902074Y-172312905D01*
X104973502Y-172348620D01*
X105009217Y-172420048D01*
X105009217Y-172812905D01*
X105009217Y-172420048D02*
X105044931Y-172348620D01*
X105116360Y-172312905D01*
X105223502Y-172312905D01*
X105294931Y-172348620D01*
X105330645Y-172420048D01*
X105330645Y-172812905D01*
X106223502Y-172027191D02*
X105580645Y-172991477D01*
X106473502Y-172812905D02*
X106473502Y-172312905D01*
X106473502Y-172455762D02*
X106509217Y-172384334D01*
X106544931Y-172348620D01*
X106616360Y-172312905D01*
X106687788Y-172312905D01*
X107259217Y-172312905D02*
X107259217Y-172812905D01*
X106937788Y-172312905D02*
X106937788Y-172705762D01*
X106973502Y-172777191D01*
X107044931Y-172812905D01*
X107152074Y-172812905D01*
X107223502Y-172777191D01*
X107259217Y-172741477D01*
X107580645Y-172777191D02*
X107652074Y-172812905D01*
X107794931Y-172812905D01*
X107866360Y-172777191D01*
X107902074Y-172705762D01*
X107902074Y-172670048D01*
X107866360Y-172598620D01*
X107794931Y-172562905D01*
X107687788Y-172562905D01*
X107616360Y-172527191D01*
X107580645Y-172455762D01*
X107580645Y-172420048D01*
X107616360Y-172348620D01*
X107687788Y-172312905D01*
X107794931Y-172312905D01*
X107866360Y-172348620D01*
X108509217Y-172777191D02*
X108437788Y-172812905D01*
X108294931Y-172812905D01*
X108223502Y-172777191D01*
X108187788Y-172705762D01*
X108187788Y-172420048D01*
X108223502Y-172348620D01*
X108294931Y-172312905D01*
X108437788Y-172312905D01*
X108509217Y-172348620D01*
X108544931Y-172420048D01*
X108544931Y-172491477D01*
X108187788Y-172562905D01*
X108759217Y-172312905D02*
X109044931Y-172312905D01*
X108866360Y-172812905D02*
X108866360Y-172170048D01*
X108902074Y-172098620D01*
X108973502Y-172062905D01*
X109044931Y-172062905D01*
X109294931Y-172812905D02*
X109294931Y-172312905D01*
X109294931Y-172062905D02*
X109259217Y-172098620D01*
X109294931Y-172134334D01*
X109330645Y-172098620D01*
X109294931Y-172062905D01*
X109294931Y-172134334D01*
X110187788Y-172027191D02*
X109544931Y-172991477D01*
X110437788Y-172312905D02*
X110437788Y-173062905D01*
X110437788Y-172348620D02*
X110509217Y-172312905D01*
X110652074Y-172312905D01*
X110723502Y-172348620D01*
X110759217Y-172384334D01*
X110794931Y-172455762D01*
X110794931Y-172670048D01*
X110759217Y-172741477D01*
X110723502Y-172777191D01*
X110652074Y-172812905D01*
X110509217Y-172812905D01*
X110437788Y-172777191D01*
X111116360Y-172812905D02*
X111116360Y-172312905D01*
X111116360Y-172455762D02*
X111152074Y-172384334D01*
X111187788Y-172348620D01*
X111259217Y-172312905D01*
X111330645Y-172312905D01*
X111687788Y-172812905D02*
X111616360Y-172777191D01*
X111580645Y-172741477D01*
X111544931Y-172670048D01*
X111544931Y-172455762D01*
X111580645Y-172384334D01*
X111616360Y-172348620D01*
X111687788Y-172312905D01*
X111794931Y-172312905D01*
X111866360Y-172348620D01*
X111902074Y-172384334D01*
X111937788Y-172455762D01*
X111937788Y-172670048D01*
X111902074Y-172741477D01*
X111866360Y-172777191D01*
X111794931Y-172812905D01*
X111687788Y-172812905D01*
X112152074Y-172312905D02*
X112437788Y-172312905D01*
X112259217Y-172062905D02*
X112259217Y-172705762D01*
X112294931Y-172777191D01*
X112366360Y-172812905D01*
X112437788Y-172812905D01*
X112973502Y-172777191D02*
X112902074Y-172812905D01*
X112759217Y-172812905D01*
X112687788Y-172777191D01*
X112652074Y-172705762D01*
X112652074Y-172420048D01*
X112687788Y-172348620D01*
X112759217Y-172312905D01*
X112902074Y-172312905D01*
X112973502Y-172348620D01*
X113009217Y-172420048D01*
X113009217Y-172491477D01*
X112652074Y-172562905D01*
X113652074Y-172312905D02*
X113652074Y-172812905D01*
X113330645Y-172312905D02*
X113330645Y-172705762D01*
X113366360Y-172777191D01*
X113437788Y-172812905D01*
X113544931Y-172812905D01*
X113616360Y-172777191D01*
X113652074Y-172741477D01*
X113973502Y-172777191D02*
X114044931Y-172812905D01*
X114187788Y-172812905D01*
X114259217Y-172777191D01*
X114294931Y-172705762D01*
X114294931Y-172670048D01*
X114259217Y-172598620D01*
X114187788Y-172562905D01*
X114080645Y-172562905D01*
X114009217Y-172527191D01*
X113973502Y-172455762D01*
X113973502Y-172420048D01*
X114009217Y-172348620D01*
X114080645Y-172312905D01*
X114187788Y-172312905D01*
X114259217Y-172348620D01*
X114616360Y-172527191D02*
X115187788Y-172527191D01*
X115544931Y-172812905D02*
X115544931Y-172312905D01*
X115544931Y-172384334D02*
X115580645Y-172348620D01*
X115652074Y-172312905D01*
X115759217Y-172312905D01*
X115830645Y-172348620D01*
X115866360Y-172420048D01*
X115866360Y-172812905D01*
X115866360Y-172420048D02*
X115902074Y-172348620D01*
X115973502Y-172312905D01*
X116080645Y-172312905D01*
X116152074Y-172348620D01*
X116187788Y-172420048D01*
X116187788Y-172812905D01*
X116866360Y-172312905D02*
X116866360Y-172812905D01*
X116544931Y-172312905D02*
X116544931Y-172705762D01*
X116580645Y-172777191D01*
X116652074Y-172812905D01*
X116759217Y-172812905D01*
X116830645Y-172777191D01*
X116866360Y-172741477D01*
X117187788Y-172777191D02*
X117259217Y-172812905D01*
X117402074Y-172812905D01*
X117473502Y-172777191D01*
X117509217Y-172705762D01*
X117509217Y-172670048D01*
X117473502Y-172598620D01*
X117402074Y-172562905D01*
X117294931Y-172562905D01*
X117223502Y-172527191D01*
X117187788Y-172455762D01*
X117187788Y-172420048D01*
X117223502Y-172348620D01*
X117294931Y-172312905D01*
X117402074Y-172312905D01*
X117473502Y-172348620D01*
X117723502Y-172312905D02*
X118009217Y-172312905D01*
X117830645Y-172062905D02*
X117830645Y-172705762D01*
X117866360Y-172777191D01*
X117937788Y-172812905D01*
X118009217Y-172812905D01*
X118580645Y-172812905D02*
X118580645Y-172420048D01*
X118544931Y-172348620D01*
X118473502Y-172312905D01*
X118330645Y-172312905D01*
X118259217Y-172348620D01*
X118580645Y-172777191D02*
X118509217Y-172812905D01*
X118330645Y-172812905D01*
X118259217Y-172777191D01*
X118223502Y-172705762D01*
X118223502Y-172634334D01*
X118259217Y-172562905D01*
X118330645Y-172527191D01*
X118509217Y-172527191D01*
X118580645Y-172491477D01*
X118937788Y-172312905D02*
X118937788Y-172812905D01*
X118937788Y-172384334D02*
X118973502Y-172348620D01*
X119044931Y-172312905D01*
X119152074Y-172312905D01*
X119223502Y-172348620D01*
X119259217Y-172420048D01*
X119259217Y-172812905D01*
X119937788Y-172312905D02*
X119937788Y-172920048D01*
X119902074Y-172991477D01*
X119866360Y-173027191D01*
X119794931Y-173062905D01*
X119687788Y-173062905D01*
X119616360Y-173027191D01*
X119937788Y-172777191D02*
X119866360Y-172812905D01*
X119723502Y-172812905D01*
X119652074Y-172777191D01*
X119616360Y-172741477D01*
X119580645Y-172670048D01*
X119580645Y-172455762D01*
X119616360Y-172384334D01*
X119652074Y-172348620D01*
X119723502Y-172312905D01*
X119866360Y-172312905D01*
X119937788Y-172348620D01*
X120652074Y-172062905D02*
X120294931Y-172062905D01*
X120259217Y-172420048D01*
X120294931Y-172384334D01*
X120366360Y-172348620D01*
X120544931Y-172348620D01*
X120616360Y-172384334D01*
X120652074Y-172420048D01*
X120687788Y-172491477D01*
X120687788Y-172670048D01*
X120652074Y-172741477D01*
X120616360Y-172777191D01*
X120544931Y-172812905D01*
X120366360Y-172812905D01*
X120294931Y-172777191D01*
X120259217Y-172741477D01*
X121009217Y-172741477D02*
X121044931Y-172777191D01*
X121009217Y-172812905D01*
X120973502Y-172777191D01*
X121009217Y-172741477D01*
X121009217Y-172812905D01*
X121509217Y-172062905D02*
X121580645Y-172062905D01*
X121652074Y-172098620D01*
X121687788Y-172134334D01*
X121723502Y-172205762D01*
X121759217Y-172348620D01*
X121759217Y-172527191D01*
X121723502Y-172670048D01*
X121687788Y-172741477D01*
X121652074Y-172777191D01*
X121580645Y-172812905D01*
X121509217Y-172812905D01*
X121437788Y-172777191D01*
X121402074Y-172741477D01*
X121366360Y-172670048D01*
X121330645Y-172527191D01*
X121330645Y-172348620D01*
X121366360Y-172205762D01*
X121402074Y-172134334D01*
X121437788Y-172098620D01*
X121509217Y-172062905D01*
X122080645Y-172527191D02*
X122652074Y-172527191D01*
X123330645Y-172062905D02*
X123187788Y-172062905D01*
X123116360Y-172098620D01*
X123080645Y-172134334D01*
X123009217Y-172241477D01*
X122973502Y-172384334D01*
X122973502Y-172670048D01*
X123009217Y-172741477D01*
X123044931Y-172777191D01*
X123116360Y-172812905D01*
X123259217Y-172812905D01*
X123330645Y-172777191D01*
X123366360Y-172741477D01*
X123402074Y-172670048D01*
X123402074Y-172491477D01*
X123366360Y-172420048D01*
X123330645Y-172384334D01*
X123259217Y-172348620D01*
X123116360Y-172348620D01*
X123044931Y-172384334D01*
X123009217Y-172420048D01*
X122973502Y-172491477D01*
X123866360Y-172062905D02*
X123937788Y-172062905D01*
X124009217Y-172098620D01*
X124044931Y-172134334D01*
X124080645Y-172205762D01*
X124116360Y-172348620D01*
X124116360Y-172527191D01*
X124080645Y-172670048D01*
X124044931Y-172741477D01*
X124009217Y-172777191D01*
X123937788Y-172812905D01*
X123866360Y-172812905D01*
X123794931Y-172777191D01*
X123759217Y-172741477D01*
X123723502Y-172670048D01*
X123687788Y-172527191D01*
X123687788Y-172348620D01*
X123723502Y-172205762D01*
X123759217Y-172134334D01*
X123794931Y-172098620D01*
X123866360Y-172062905D01*
X124437788Y-172527191D02*
X125009217Y-172527191D01*
X125366360Y-172312905D02*
X125366360Y-173062905D01*
X125366360Y-172348620D02*
X125437788Y-172312905D01*
X125580645Y-172312905D01*
X125652074Y-172348620D01*
X125687788Y-172384334D01*
X125723502Y-172455762D01*
X125723502Y-172670048D01*
X125687788Y-172741477D01*
X125652074Y-172777191D01*
X125580645Y-172812905D01*
X125437788Y-172812905D01*
X125366360Y-172777191D01*
X126044931Y-172812905D02*
X126044931Y-172312905D01*
X126044931Y-172062905D02*
X126009217Y-172098620D01*
X126044931Y-172134334D01*
X126080645Y-172098620D01*
X126044931Y-172062905D01*
X126044931Y-172134334D01*
X126402074Y-172312905D02*
X126402074Y-172812905D01*
X126402074Y-172384334D02*
X126437788Y-172348620D01*
X126509217Y-172312905D01*
X126616360Y-172312905D01*
X126687788Y-172348620D01*
X126723502Y-172420048D01*
X126723502Y-172812905D01*
X117196204Y-65605780D02*
X117244585Y-65557400D01*
X117341347Y-65509019D01*
X117583252Y-65509019D01*
X117680014Y-65557400D01*
X117728395Y-65605780D01*
X117776776Y-65702542D01*
X117776776Y-65799304D01*
X117728395Y-65944447D01*
X117147823Y-66525019D01*
X117776776Y-66525019D01*
X118405728Y-65509019D02*
X118502490Y-65509019D01*
X118599252Y-65557400D01*
X118647633Y-65605780D01*
X118696014Y-65702542D01*
X118744395Y-65896066D01*
X118744395Y-66137971D01*
X118696014Y-66331495D01*
X118647633Y-66428257D01*
X118599252Y-66476638D01*
X118502490Y-66525019D01*
X118405728Y-66525019D01*
X118308966Y-66476638D01*
X118260585Y-66428257D01*
X118212204Y-66331495D01*
X118163823Y-66137971D01*
X118163823Y-65896066D01*
X118212204Y-65702542D01*
X118260585Y-65605780D01*
X118308966Y-65557400D01*
X118405728Y-65509019D01*
X157787823Y-68684019D02*
X158416776Y-68684019D01*
X158078109Y-69071066D01*
X158223252Y-69071066D01*
X158320014Y-69119447D01*
X158368395Y-69167828D01*
X158416776Y-69264590D01*
X158416776Y-69506495D01*
X158368395Y-69603257D01*
X158320014Y-69651638D01*
X158223252Y-69700019D01*
X157932966Y-69700019D01*
X157836204Y-69651638D01*
X157787823Y-69603257D01*
X159384395Y-69700019D02*
X158803823Y-69700019D01*
X159094109Y-69700019D02*
X159094109Y-68684019D01*
X158997347Y-68829161D01*
X158900585Y-68925923D01*
X158803823Y-68974304D01*
X116410014Y-69022685D02*
X116410014Y-69700019D01*
X116168109Y-68635638D02*
X115926204Y-69361352D01*
X116555157Y-69361352D01*
X117135728Y-68684019D02*
X117232490Y-68684019D01*
X117329252Y-68732400D01*
X117377633Y-68780780D01*
X117426014Y-68877542D01*
X117474395Y-69071066D01*
X117474395Y-69312971D01*
X117426014Y-69506495D01*
X117377633Y-69603257D01*
X117329252Y-69651638D01*
X117232490Y-69700019D01*
X117135728Y-69700019D01*
X117038966Y-69651638D01*
X116990585Y-69603257D01*
X116942204Y-69506495D01*
X116893823Y-69312971D01*
X116893823Y-69071066D01*
X116942204Y-68877542D01*
X116990585Y-68780780D01*
X117038966Y-68732400D01*
X117135728Y-68684019D01*
X159686776Y-66525019D02*
X159106204Y-66525019D01*
X159396490Y-66525019D02*
X159396490Y-65509019D01*
X159299728Y-65654161D01*
X159202966Y-65750923D01*
X159106204Y-65799304D01*
X160654395Y-66525019D02*
X160073823Y-66525019D01*
X160364109Y-66525019D02*
X160364109Y-65509019D01*
X160267347Y-65654161D01*
X160170585Y-65750923D01*
X160073823Y-65799304D01*
X172392823Y-68684019D02*
X173021776Y-68684019D01*
X172683109Y-69071066D01*
X172828252Y-69071066D01*
X172925014Y-69119447D01*
X172973395Y-69167828D01*
X173021776Y-69264590D01*
X173021776Y-69506495D01*
X172973395Y-69603257D01*
X172925014Y-69651638D01*
X172828252Y-69700019D01*
X172537966Y-69700019D01*
X172441204Y-69651638D01*
X172392823Y-69603257D01*
X173650728Y-68684019D02*
X173747490Y-68684019D01*
X173844252Y-68732400D01*
X173892633Y-68780780D01*
X173941014Y-68877542D01*
X173989395Y-69071066D01*
X173989395Y-69312971D01*
X173941014Y-69506495D01*
X173892633Y-69603257D01*
X173844252Y-69651638D01*
X173747490Y-69700019D01*
X173650728Y-69700019D01*
X173553966Y-69651638D01*
X173505585Y-69603257D01*
X173457204Y-69506495D01*
X173408823Y-69312971D01*
X173408823Y-69071066D01*
X173457204Y-68877542D01*
X173505585Y-68780780D01*
X173553966Y-68732400D01*
X173650728Y-68684019D01*
G04 #@! TO.C,U1*
X165590044Y-68023619D02*
X165590044Y-68846095D01*
X165638425Y-68942857D01*
X165686806Y-68991238D01*
X165783568Y-69039619D01*
X165977092Y-69039619D01*
X166073854Y-68991238D01*
X166122235Y-68942857D01*
X166170616Y-68846095D01*
X166170616Y-68023619D01*
X167186616Y-69039619D02*
X166606044Y-69039619D01*
X166896330Y-69039619D02*
X166896330Y-68023619D01*
X166799568Y-68168761D01*
X166702806Y-68265523D01*
X166606044Y-68313904D01*
D12*
G04 #@! TO.C,J2*
X184959666Y-164044380D02*
X184959666Y-164758666D01*
X184912047Y-164901523D01*
X184816809Y-164996761D01*
X184673952Y-165044380D01*
X184578714Y-165044380D01*
X185388238Y-164139619D02*
X185435857Y-164092000D01*
X185531095Y-164044380D01*
X185769190Y-164044380D01*
X185864428Y-164092000D01*
X185912047Y-164139619D01*
X185959666Y-164234857D01*
X185959666Y-164330095D01*
X185912047Y-164472952D01*
X185340619Y-165044380D01*
X185959666Y-165044380D01*
G04 #@! TO.C,J4*
X146369446Y-164029140D02*
X146369446Y-164743426D01*
X146321827Y-164886283D01*
X146226589Y-164981521D01*
X146083732Y-165029140D01*
X145988494Y-165029140D01*
X147274208Y-164362474D02*
X147274208Y-165029140D01*
X147036113Y-163981521D02*
X146798018Y-164695807D01*
X147417065Y-164695807D01*
G04 #@! TO.C,J1*
X225091666Y-76033380D02*
X225091666Y-76747666D01*
X225044047Y-76890523D01*
X224948809Y-76985761D01*
X224805952Y-77033380D01*
X224710714Y-77033380D01*
X226091666Y-77033380D02*
X225520238Y-77033380D01*
X225805952Y-77033380D02*
X225805952Y-76033380D01*
X225710714Y-76176238D01*
X225615476Y-76271476D01*
X225520238Y-76319095D01*
X224440714Y-78049380D02*
X223869285Y-78049380D01*
X224155000Y-78049380D02*
X224155000Y-77049380D01*
X224059761Y-77192238D01*
X223964523Y-77287476D01*
X223869285Y-77335095D01*
X214931666Y-77049380D02*
X215550714Y-77049380D01*
X215217380Y-77430333D01*
X215360238Y-77430333D01*
X215455476Y-77477952D01*
X215503095Y-77525571D01*
X215550714Y-77620809D01*
X215550714Y-77858904D01*
X215503095Y-77954142D01*
X215455476Y-78001761D01*
X215360238Y-78049380D01*
X215074523Y-78049380D01*
X214979285Y-78001761D01*
X214931666Y-77954142D01*
X214931666Y-77049380D02*
X215550714Y-77049380D01*
X215217380Y-77430333D01*
X215360238Y-77430333D01*
X215455476Y-77477952D01*
X215503095Y-77525571D01*
X215550714Y-77620809D01*
X215550714Y-77858904D01*
X215503095Y-77954142D01*
X215455476Y-78001761D01*
X215360238Y-78049380D01*
X215074523Y-78049380D01*
X214979285Y-78001761D01*
X214931666Y-77954142D01*
X222326200Y-77021440D02*
X222326200Y-77259536D01*
X222088104Y-77164298D02*
X222326200Y-77259536D01*
X222564295Y-77164298D01*
X222183342Y-77450012D02*
X222326200Y-77259536D01*
X222469057Y-77450012D01*
X224440714Y-78049380D02*
X223869285Y-78049380D01*
X224155000Y-78049380D02*
X224155000Y-77049380D01*
X224059761Y-77192238D01*
X223964523Y-77287476D01*
X223869285Y-77335095D01*
G04 #@! TO.C,BRD1*
X101099238Y-81050571D02*
X101242095Y-81098190D01*
X101289714Y-81145809D01*
X101337333Y-81241047D01*
X101337333Y-81383904D01*
X101289714Y-81479142D01*
X101242095Y-81526761D01*
X101146857Y-81574380D01*
X100765904Y-81574380D01*
X100765904Y-80574380D01*
X101099238Y-80574380D01*
X101194476Y-80622000D01*
X101242095Y-80669619D01*
X101289714Y-80764857D01*
X101289714Y-80860095D01*
X101242095Y-80955333D01*
X101194476Y-81002952D01*
X101099238Y-81050571D01*
X100765904Y-81050571D01*
X102337333Y-81574380D02*
X102004000Y-81098190D01*
X101765904Y-81574380D02*
X101765904Y-80574380D01*
X102146857Y-80574380D01*
X102242095Y-80622000D01*
X102289714Y-80669619D01*
X102337333Y-80764857D01*
X102337333Y-80907714D01*
X102289714Y-81002952D01*
X102242095Y-81050571D01*
X102146857Y-81098190D01*
X101765904Y-81098190D01*
X102765904Y-81574380D02*
X102765904Y-80574380D01*
X103004000Y-80574380D01*
X103146857Y-80622000D01*
X103242095Y-80717238D01*
X103289714Y-80812476D01*
X103337333Y-81002952D01*
X103337333Y-81145809D01*
X103289714Y-81336285D01*
X103242095Y-81431523D01*
X103146857Y-81526761D01*
X103004000Y-81574380D01*
X102765904Y-81574380D01*
X104289714Y-81574380D02*
X103718285Y-81574380D01*
X104004000Y-81574380D02*
X104004000Y-80574380D01*
X103908761Y-80717238D01*
X103813523Y-80812476D01*
X103718285Y-80860095D01*
X216439714Y-96519380D02*
X215868285Y-96519380D01*
X216154000Y-96519380D02*
X216154000Y-95519380D01*
X216058761Y-95662238D01*
X215963523Y-95757476D01*
X215868285Y-95805095D01*
X216820666Y-95614619D02*
X216868285Y-95567000D01*
X216963523Y-95519380D01*
X217201619Y-95519380D01*
X217296857Y-95567000D01*
X217344476Y-95614619D01*
X217392095Y-95709857D01*
X217392095Y-95805095D01*
X217344476Y-95947952D01*
X216773047Y-96519380D01*
X217392095Y-96519380D01*
X217725428Y-95852714D02*
X217963523Y-96519380D01*
X218201619Y-95852714D01*
X219296857Y-96471761D02*
X219439714Y-96519380D01*
X219677809Y-96519380D01*
X219773047Y-96471761D01*
X219820666Y-96424142D01*
X219868285Y-96328904D01*
X219868285Y-96233666D01*
X219820666Y-96138428D01*
X219773047Y-96090809D01*
X219677809Y-96043190D01*
X219487333Y-95995571D01*
X219392095Y-95947952D01*
X219344476Y-95900333D01*
X219296857Y-95805095D01*
X219296857Y-95709857D01*
X219344476Y-95614619D01*
X219392095Y-95567000D01*
X219487333Y-95519380D01*
X219725428Y-95519380D01*
X219868285Y-95567000D01*
X220677809Y-96471761D02*
X220582571Y-96519380D01*
X220392095Y-96519380D01*
X220296857Y-96471761D01*
X220249238Y-96376523D01*
X220249238Y-95995571D01*
X220296857Y-95900333D01*
X220392095Y-95852714D01*
X220582571Y-95852714D01*
X220677809Y-95900333D01*
X220725428Y-95995571D01*
X220725428Y-96090809D01*
X220249238Y-96186047D01*
X221154000Y-95852714D02*
X221154000Y-96519380D01*
X221154000Y-95947952D02*
X221201619Y-95900333D01*
X221296857Y-95852714D01*
X221439714Y-95852714D01*
X221534952Y-95900333D01*
X221582571Y-95995571D01*
X221582571Y-96519380D01*
X222011142Y-96471761D02*
X222106380Y-96519380D01*
X222296857Y-96519380D01*
X222392095Y-96471761D01*
X222439714Y-96376523D01*
X222439714Y-96328904D01*
X222392095Y-96233666D01*
X222296857Y-96186047D01*
X222154000Y-96186047D01*
X222058761Y-96138428D01*
X222011142Y-96043190D01*
X222011142Y-95995571D01*
X222058761Y-95900333D01*
X222154000Y-95852714D01*
X222296857Y-95852714D01*
X222392095Y-95900333D01*
X216868285Y-98081761D02*
X217011142Y-98129380D01*
X217249238Y-98129380D01*
X217344476Y-98081761D01*
X217392095Y-98034142D01*
X217439714Y-97938904D01*
X217439714Y-97843666D01*
X217392095Y-97748428D01*
X217344476Y-97700809D01*
X217249238Y-97653190D01*
X217058761Y-97605571D01*
X216963523Y-97557952D01*
X216915904Y-97510333D01*
X216868285Y-97415095D01*
X216868285Y-97319857D01*
X216915904Y-97224619D01*
X216963523Y-97177000D01*
X217058761Y-97129380D01*
X217296857Y-97129380D01*
X217439714Y-97177000D01*
X218296857Y-97462714D02*
X218296857Y-98129380D01*
X217868285Y-97462714D02*
X217868285Y-97986523D01*
X217915904Y-98081761D01*
X218011142Y-98129380D01*
X218154000Y-98129380D01*
X218249238Y-98081761D01*
X218296857Y-98034142D01*
X218773047Y-97462714D02*
X218773047Y-98462714D01*
X218773047Y-97510333D02*
X218868285Y-97462714D01*
X219058761Y-97462714D01*
X219154000Y-97510333D01*
X219201619Y-97557952D01*
X219249238Y-97653190D01*
X219249238Y-97938904D01*
X219201619Y-98034142D01*
X219154000Y-98081761D01*
X219058761Y-98129380D01*
X218868285Y-98129380D01*
X218773047Y-98081761D01*
X219677809Y-97462714D02*
X219677809Y-98462714D01*
X219677809Y-97510333D02*
X219773047Y-97462714D01*
X219963523Y-97462714D01*
X220058761Y-97510333D01*
X220106380Y-97557952D01*
X220154000Y-97653190D01*
X220154000Y-97938904D01*
X220106380Y-98034142D01*
X220058761Y-98081761D01*
X219963523Y-98129380D01*
X219773047Y-98129380D01*
X219677809Y-98081761D01*
X220725428Y-98129380D02*
X220630190Y-98081761D01*
X220582571Y-97986523D01*
X220582571Y-97129380D01*
X221011142Y-97462714D02*
X221249238Y-98129380D01*
X221487333Y-97462714D02*
X221249238Y-98129380D01*
X221154000Y-98367476D01*
X221106380Y-98415095D01*
X221011142Y-98462714D01*
X109906380Y-128860476D02*
X109906380Y-128670000D01*
X109858761Y-128574761D01*
X109811142Y-128527142D01*
X109668285Y-128431904D01*
X109477809Y-128384285D01*
X109096857Y-128384285D01*
X109001619Y-128431904D01*
X108954000Y-128479523D01*
X108906380Y-128574761D01*
X108906380Y-128765238D01*
X108954000Y-128860476D01*
X109001619Y-128908095D01*
X109096857Y-128955714D01*
X109334952Y-128955714D01*
X109430190Y-128908095D01*
X109477809Y-128860476D01*
X109525428Y-128765238D01*
X109525428Y-128574761D01*
X109477809Y-128479523D01*
X109430190Y-128431904D01*
X109334952Y-128384285D01*
X117923380Y-126463333D02*
X117923380Y-125796666D01*
X118923380Y-126225238D01*
X108906380Y-120351523D02*
X108906380Y-120542000D01*
X108954000Y-120637238D01*
X109001619Y-120684857D01*
X109144476Y-120780095D01*
X109334952Y-120827714D01*
X109715904Y-120827714D01*
X109811142Y-120780095D01*
X109858761Y-120732476D01*
X109906380Y-120637238D01*
X109906380Y-120446761D01*
X109858761Y-120351523D01*
X109811142Y-120303904D01*
X109715904Y-120256285D01*
X109477809Y-120256285D01*
X109382571Y-120303904D01*
X109334952Y-120351523D01*
X109287333Y-120446761D01*
X109287333Y-120637238D01*
X109334952Y-120732476D01*
X109382571Y-120780095D01*
X109477809Y-120827714D01*
X170677809Y-95874380D02*
X170677809Y-94874380D01*
X170915904Y-94874380D01*
X171058761Y-94922000D01*
X171154000Y-95017238D01*
X171201619Y-95112476D01*
X171249238Y-95302952D01*
X171249238Y-95445809D01*
X171201619Y-95636285D01*
X171154000Y-95731523D01*
X171058761Y-95826761D01*
X170915904Y-95874380D01*
X170677809Y-95874380D01*
X171677809Y-95874380D02*
X171677809Y-95207714D01*
X171677809Y-94874380D02*
X171630190Y-94922000D01*
X171677809Y-94969619D01*
X171725428Y-94922000D01*
X171677809Y-94874380D01*
X171677809Y-94969619D01*
X172582571Y-95207714D02*
X172582571Y-96017238D01*
X172534952Y-96112476D01*
X172487333Y-96160095D01*
X172392095Y-96207714D01*
X172249238Y-96207714D01*
X172154000Y-96160095D01*
X172582571Y-95826761D02*
X172487333Y-95874380D01*
X172296857Y-95874380D01*
X172201619Y-95826761D01*
X172154000Y-95779142D01*
X172106380Y-95683904D01*
X172106380Y-95398190D01*
X172154000Y-95302952D01*
X172201619Y-95255333D01*
X172296857Y-95207714D01*
X172487333Y-95207714D01*
X172582571Y-95255333D01*
X173058761Y-95874380D02*
X173058761Y-95207714D01*
X173058761Y-94874380D02*
X173011142Y-94922000D01*
X173058761Y-94969619D01*
X173106380Y-94922000D01*
X173058761Y-94874380D01*
X173058761Y-94969619D01*
X173392095Y-95207714D02*
X173773047Y-95207714D01*
X173534952Y-94874380D02*
X173534952Y-95731523D01*
X173582571Y-95826761D01*
X173677809Y-95874380D01*
X173773047Y-95874380D01*
X174534952Y-95874380D02*
X174534952Y-95350571D01*
X174487333Y-95255333D01*
X174392095Y-95207714D01*
X174201619Y-95207714D01*
X174106380Y-95255333D01*
X174534952Y-95826761D02*
X174439714Y-95874380D01*
X174201619Y-95874380D01*
X174106380Y-95826761D01*
X174058761Y-95731523D01*
X174058761Y-95636285D01*
X174106380Y-95541047D01*
X174201619Y-95493428D01*
X174439714Y-95493428D01*
X174534952Y-95445809D01*
X175154000Y-95874380D02*
X175058761Y-95826761D01*
X175011142Y-95731523D01*
X175011142Y-94874380D01*
X176249238Y-94826761D02*
X175392095Y-96112476D01*
X176582571Y-95874380D02*
X176582571Y-94874380D01*
X176582571Y-95350571D02*
X177154000Y-95350571D01*
X177154000Y-95874380D02*
X177154000Y-94874380D01*
X178058761Y-95874380D02*
X178058761Y-95350571D01*
X178011142Y-95255333D01*
X177915904Y-95207714D01*
X177725428Y-95207714D01*
X177630190Y-95255333D01*
X178058761Y-95826761D02*
X177963523Y-95874380D01*
X177725428Y-95874380D01*
X177630190Y-95826761D01*
X177582571Y-95731523D01*
X177582571Y-95636285D01*
X177630190Y-95541047D01*
X177725428Y-95493428D01*
X177963523Y-95493428D01*
X178058761Y-95445809D01*
X178677809Y-95874380D02*
X178582571Y-95826761D01*
X178534952Y-95731523D01*
X178534952Y-94874380D01*
X179201619Y-95874380D02*
X179106380Y-95826761D01*
X179058761Y-95731523D01*
X179058761Y-94874380D01*
X180344476Y-95874380D02*
X180344476Y-94874380D01*
X180820666Y-95207714D02*
X180820666Y-95874380D01*
X180820666Y-95302952D02*
X180868285Y-95255333D01*
X180963523Y-95207714D01*
X181106380Y-95207714D01*
X181201619Y-95255333D01*
X181249238Y-95350571D01*
X181249238Y-95874380D01*
X181725428Y-95207714D02*
X181725428Y-96207714D01*
X181725428Y-95255333D02*
X181820666Y-95207714D01*
X182011142Y-95207714D01*
X182106380Y-95255333D01*
X182154000Y-95302952D01*
X182201619Y-95398190D01*
X182201619Y-95683904D01*
X182154000Y-95779142D01*
X182106380Y-95826761D01*
X182011142Y-95874380D01*
X181820666Y-95874380D01*
X181725428Y-95826761D01*
X183058761Y-95207714D02*
X183058761Y-95874380D01*
X182630190Y-95207714D02*
X182630190Y-95731523D01*
X182677809Y-95826761D01*
X182773047Y-95874380D01*
X182915904Y-95874380D01*
X183011142Y-95826761D01*
X183058761Y-95779142D01*
X183392095Y-95207714D02*
X183773047Y-95207714D01*
X183534952Y-94874380D02*
X183534952Y-95731523D01*
X183582571Y-95826761D01*
X183677809Y-95874380D01*
X183773047Y-95874380D01*
D13*
X107619476Y-139254142D02*
X107619476Y-139849380D01*
X106369476Y-139849380D01*
X107619476Y-138658904D02*
X107559952Y-138777952D01*
X107500428Y-138837476D01*
X107381380Y-138897000D01*
X107024238Y-138897000D01*
X106905190Y-138837476D01*
X106845666Y-138777952D01*
X106786142Y-138658904D01*
X106786142Y-138480333D01*
X106845666Y-138361285D01*
X106905190Y-138301761D01*
X107024238Y-138242238D01*
X107381380Y-138242238D01*
X107500428Y-138301761D01*
X107559952Y-138361285D01*
X107619476Y-138480333D01*
X107619476Y-138658904D01*
X106786142Y-137825571D02*
X107619476Y-137587476D01*
X107024238Y-137349380D01*
X107619476Y-137111285D01*
X106786142Y-136873190D01*
X107559952Y-136456523D02*
X107619476Y-136337476D01*
X107619476Y-136099380D01*
X107559952Y-135980333D01*
X107440904Y-135920809D01*
X107381380Y-135920809D01*
X107262333Y-135980333D01*
X107202809Y-136099380D01*
X107202809Y-136277952D01*
X107143285Y-136397000D01*
X107024238Y-136456523D01*
X106964714Y-136456523D01*
X106845666Y-136397000D01*
X106786142Y-136277952D01*
X106786142Y-136099380D01*
X106845666Y-135980333D01*
X107619476Y-135385095D02*
X106786142Y-135385095D01*
X106369476Y-135385095D02*
X106429000Y-135444619D01*
X106488523Y-135385095D01*
X106429000Y-135325571D01*
X106369476Y-135385095D01*
X106488523Y-135385095D01*
X107619476Y-134254142D02*
X106369476Y-134254142D01*
X107559952Y-134254142D02*
X107619476Y-134373190D01*
X107619476Y-134611285D01*
X107559952Y-134730333D01*
X107500428Y-134789857D01*
X107381380Y-134849380D01*
X107024238Y-134849380D01*
X106905190Y-134789857D01*
X106845666Y-134730333D01*
X106786142Y-134611285D01*
X106786142Y-134373190D01*
X106845666Y-134254142D01*
X107559952Y-133182714D02*
X107619476Y-133301761D01*
X107619476Y-133539857D01*
X107559952Y-133658904D01*
X107440904Y-133718428D01*
X106964714Y-133718428D01*
X106845666Y-133658904D01*
X106786142Y-133539857D01*
X106786142Y-133301761D01*
X106845666Y-133182714D01*
X106964714Y-133123190D01*
X107083761Y-133123190D01*
X107202809Y-133718428D01*
X106309952Y-131694619D02*
X107917095Y-132766047D01*
X107619476Y-131277952D02*
X106369476Y-131277952D01*
X106786142Y-130682714D02*
X107619476Y-130682714D01*
X106905190Y-130682714D02*
X106845666Y-130623190D01*
X106786142Y-130504142D01*
X106786142Y-130325571D01*
X106845666Y-130206523D01*
X106964714Y-130147000D01*
X107619476Y-130147000D01*
X106786142Y-129551761D02*
X107857571Y-129551761D01*
X107976619Y-129611285D01*
X108036142Y-129730333D01*
X108036142Y-129789857D01*
X106369476Y-129551761D02*
X106429000Y-129611285D01*
X106488523Y-129551761D01*
X106429000Y-129492238D01*
X106369476Y-129551761D01*
X106488523Y-129551761D01*
X107559952Y-128480333D02*
X107619476Y-128599380D01*
X107619476Y-128837476D01*
X107559952Y-128956523D01*
X107440904Y-129016047D01*
X106964714Y-129016047D01*
X106845666Y-128956523D01*
X106786142Y-128837476D01*
X106786142Y-128599380D01*
X106845666Y-128480333D01*
X106964714Y-128420809D01*
X107083761Y-128420809D01*
X107202809Y-129016047D01*
X107559952Y-127349380D02*
X107619476Y-127468428D01*
X107619476Y-127706523D01*
X107559952Y-127825571D01*
X107500428Y-127885095D01*
X107381380Y-127944619D01*
X107024238Y-127944619D01*
X106905190Y-127885095D01*
X106845666Y-127825571D01*
X106786142Y-127706523D01*
X106786142Y-127468428D01*
X106845666Y-127349380D01*
X106786142Y-126992238D02*
X106786142Y-126516047D01*
X106369476Y-126813666D02*
X107440904Y-126813666D01*
X107559952Y-126754142D01*
X107619476Y-126635095D01*
X107619476Y-126516047D01*
X107619476Y-125920809D02*
X107559952Y-126039857D01*
X107500428Y-126099380D01*
X107381380Y-126158904D01*
X107024238Y-126158904D01*
X106905190Y-126099380D01*
X106845666Y-126039857D01*
X106786142Y-125920809D01*
X106786142Y-125742238D01*
X106845666Y-125623190D01*
X106905190Y-125563666D01*
X107024238Y-125504142D01*
X107381380Y-125504142D01*
X107500428Y-125563666D01*
X107559952Y-125623190D01*
X107619476Y-125742238D01*
X107619476Y-125920809D01*
X107619476Y-124968428D02*
X106786142Y-124968428D01*
X107024238Y-124968428D02*
X106905190Y-124908904D01*
X106845666Y-124849380D01*
X106786142Y-124730333D01*
X106786142Y-124611285D01*
X106369476Y-123004142D02*
X106369476Y-122766047D01*
X106429000Y-122647000D01*
X106548047Y-122527952D01*
X106786142Y-122468428D01*
X107202809Y-122468428D01*
X107440904Y-122527952D01*
X107559952Y-122647000D01*
X107619476Y-122766047D01*
X107619476Y-123004142D01*
X107559952Y-123123190D01*
X107440904Y-123242238D01*
X107202809Y-123301761D01*
X106786142Y-123301761D01*
X106548047Y-123242238D01*
X106429000Y-123123190D01*
X106369476Y-123004142D01*
X106786142Y-121397000D02*
X107619476Y-121397000D01*
X106786142Y-121932714D02*
X107440904Y-121932714D01*
X107559952Y-121873190D01*
X107619476Y-121754142D01*
X107619476Y-121575571D01*
X107559952Y-121456523D01*
X107500428Y-121397000D01*
X106786142Y-120980333D02*
X106786142Y-120504142D01*
X106369476Y-120801761D02*
X107440904Y-120801761D01*
X107559952Y-120742238D01*
X107619476Y-120623190D01*
X107619476Y-120504142D01*
X106786142Y-120087476D02*
X108036142Y-120087476D01*
X106845666Y-120087476D02*
X106786142Y-119968428D01*
X106786142Y-119730333D01*
X106845666Y-119611285D01*
X106905190Y-119551761D01*
X107024238Y-119492238D01*
X107381380Y-119492238D01*
X107500428Y-119551761D01*
X107559952Y-119611285D01*
X107619476Y-119730333D01*
X107619476Y-119968428D01*
X107559952Y-120087476D01*
X106786142Y-118420809D02*
X107619476Y-118420809D01*
X106786142Y-118956523D02*
X107440904Y-118956523D01*
X107559952Y-118897000D01*
X107619476Y-118777952D01*
X107619476Y-118599380D01*
X107559952Y-118480333D01*
X107500428Y-118420809D01*
X106786142Y-118004142D02*
X106786142Y-117527952D01*
X106369476Y-117825571D02*
X107440904Y-117825571D01*
X107559952Y-117766047D01*
X107619476Y-117647000D01*
X107619476Y-117527952D01*
X107559952Y-117170809D02*
X107619476Y-117051761D01*
X107619476Y-116813666D01*
X107559952Y-116694619D01*
X107440904Y-116635095D01*
X107381380Y-116635095D01*
X107262333Y-116694619D01*
X107202809Y-116813666D01*
X107202809Y-116992238D01*
X107143285Y-117111285D01*
X107024238Y-117170809D01*
X106964714Y-117170809D01*
X106845666Y-117111285D01*
X106786142Y-116992238D01*
X106786142Y-116813666D01*
X106845666Y-116694619D01*
D12*
X222634761Y-137410095D02*
X222682380Y-137267238D01*
X222682380Y-137029142D01*
X222634761Y-136933904D01*
X222587142Y-136886285D01*
X222491904Y-136838666D01*
X222396666Y-136838666D01*
X222301428Y-136886285D01*
X222253809Y-136933904D01*
X222206190Y-137029142D01*
X222158571Y-137219619D01*
X222110952Y-137314857D01*
X222063333Y-137362476D01*
X221968095Y-137410095D01*
X221872857Y-137410095D01*
X221777619Y-137362476D01*
X221730000Y-137314857D01*
X221682380Y-137219619D01*
X221682380Y-136981523D01*
X221730000Y-136838666D01*
X222634761Y-136029142D02*
X222682380Y-136124380D01*
X222682380Y-136314857D01*
X222634761Y-136410095D01*
X222539523Y-136457714D01*
X222158571Y-136457714D01*
X222063333Y-136410095D01*
X222015714Y-136314857D01*
X222015714Y-136124380D01*
X222063333Y-136029142D01*
X222158571Y-135981523D01*
X222253809Y-135981523D01*
X222349047Y-136457714D01*
X222015714Y-135552952D02*
X222682380Y-135552952D01*
X222110952Y-135552952D02*
X222063333Y-135505333D01*
X222015714Y-135410095D01*
X222015714Y-135267238D01*
X222063333Y-135172000D01*
X222158571Y-135124380D01*
X222682380Y-135124380D01*
X222634761Y-134695809D02*
X222682380Y-134600571D01*
X222682380Y-134410095D01*
X222634761Y-134314857D01*
X222539523Y-134267238D01*
X222491904Y-134267238D01*
X222396666Y-134314857D01*
X222349047Y-134410095D01*
X222349047Y-134552952D01*
X222301428Y-134648190D01*
X222206190Y-134695809D01*
X222158571Y-134695809D01*
X222063333Y-134648190D01*
X222015714Y-134552952D01*
X222015714Y-134410095D01*
X222063333Y-134314857D01*
X222682380Y-133695809D02*
X222634761Y-133791047D01*
X222587142Y-133838666D01*
X222491904Y-133886285D01*
X222206190Y-133886285D01*
X222110952Y-133838666D01*
X222063333Y-133791047D01*
X222015714Y-133695809D01*
X222015714Y-133552952D01*
X222063333Y-133457714D01*
X222110952Y-133410095D01*
X222206190Y-133362476D01*
X222491904Y-133362476D01*
X222587142Y-133410095D01*
X222634761Y-133457714D01*
X222682380Y-133552952D01*
X222682380Y-133695809D01*
X222682380Y-132933904D02*
X222015714Y-132933904D01*
X222206190Y-132933904D02*
X222110952Y-132886285D01*
X222063333Y-132838666D01*
X222015714Y-132743428D01*
X222015714Y-132648190D01*
X221730000Y-131029142D02*
X221682380Y-131124380D01*
X221682380Y-131267238D01*
X221730000Y-131410095D01*
X221825238Y-131505333D01*
X221920476Y-131552952D01*
X222110952Y-131600571D01*
X222253809Y-131600571D01*
X222444285Y-131552952D01*
X222539523Y-131505333D01*
X222634761Y-131410095D01*
X222682380Y-131267238D01*
X222682380Y-131172000D01*
X222634761Y-131029142D01*
X222587142Y-130981523D01*
X222253809Y-130981523D01*
X222253809Y-131172000D01*
X222682380Y-130552952D02*
X221682380Y-130552952D01*
X222682380Y-129981523D01*
X221682380Y-129981523D01*
X222682380Y-129505333D02*
X221682380Y-129505333D01*
X221682380Y-129267238D01*
X221730000Y-129124380D01*
X221825238Y-129029142D01*
X221920476Y-128981523D01*
X222110952Y-128933904D01*
X222253809Y-128933904D01*
X222444285Y-128981523D01*
X222539523Y-129029142D01*
X222634761Y-129124380D01*
X222682380Y-129267238D01*
X222682380Y-129505333D01*
X118923380Y-118319476D02*
X118923380Y-118129000D01*
X118875761Y-118033761D01*
X118828142Y-117986142D01*
X118685285Y-117890904D01*
X118494809Y-117843285D01*
X118113857Y-117843285D01*
X118018619Y-117890904D01*
X117971000Y-117938523D01*
X117923380Y-118033761D01*
X117923380Y-118224238D01*
X117971000Y-118319476D01*
X118018619Y-118367095D01*
X118113857Y-118414714D01*
X118351952Y-118414714D01*
X118447190Y-118367095D01*
X118494809Y-118319476D01*
X118542428Y-118224238D01*
X118542428Y-118033761D01*
X118494809Y-117938523D01*
X118447190Y-117890904D01*
X118351952Y-117843285D01*
X209254000Y-125533904D02*
X209206380Y-125629142D01*
X209206380Y-125772000D01*
X209254000Y-125914857D01*
X209349238Y-126010095D01*
X209444476Y-126057714D01*
X209634952Y-126105333D01*
X209777809Y-126105333D01*
X209968285Y-126057714D01*
X210063523Y-126010095D01*
X210158761Y-125914857D01*
X210206380Y-125772000D01*
X210206380Y-125676761D01*
X210158761Y-125533904D01*
X210111142Y-125486285D01*
X209777809Y-125486285D01*
X209777809Y-125676761D01*
X210206380Y-125057714D02*
X209206380Y-125057714D01*
X210206380Y-124486285D01*
X209206380Y-124486285D01*
X210206380Y-124010095D02*
X209206380Y-124010095D01*
X209206380Y-123772000D01*
X209254000Y-123629142D01*
X209349238Y-123533904D01*
X209444476Y-123486285D01*
X209634952Y-123438666D01*
X209777809Y-123438666D01*
X209968285Y-123486285D01*
X210063523Y-123533904D01*
X210158761Y-123629142D01*
X210206380Y-123772000D01*
X210206380Y-124010095D01*
X212538380Y-122954904D02*
X212538380Y-122383476D01*
X213538380Y-122669190D02*
X212538380Y-122669190D01*
X212633619Y-122097761D02*
X212586000Y-122050142D01*
X212538380Y-121954904D01*
X212538380Y-121716809D01*
X212586000Y-121621571D01*
X212633619Y-121573952D01*
X212728857Y-121526333D01*
X212824095Y-121526333D01*
X212966952Y-121573952D01*
X213538380Y-122145380D01*
X213538380Y-121526333D01*
X171493476Y-98023380D02*
X171303000Y-98023380D01*
X171207761Y-98071000D01*
X171160142Y-98118619D01*
X171064904Y-98261476D01*
X171017285Y-98451952D01*
X171017285Y-98832904D01*
X171064904Y-98928142D01*
X171112523Y-98975761D01*
X171207761Y-99023380D01*
X171398238Y-99023380D01*
X171493476Y-98975761D01*
X171541095Y-98928142D01*
X171588714Y-98832904D01*
X171588714Y-98594809D01*
X171541095Y-98499571D01*
X171493476Y-98451952D01*
X171398238Y-98404333D01*
X171207761Y-98404333D01*
X171112523Y-98451952D01*
X171064904Y-98499571D01*
X171017285Y-98594809D01*
X216475380Y-116985904D02*
X216475380Y-116414476D01*
X217475380Y-116700190D02*
X216475380Y-116700190D01*
X216475380Y-116176380D02*
X216475380Y-115557333D01*
X216856333Y-115890666D01*
X216856333Y-115747809D01*
X216903952Y-115652571D01*
X216951571Y-115604952D01*
X217046809Y-115557333D01*
X217284904Y-115557333D01*
X217380142Y-115604952D01*
X217427761Y-115652571D01*
X217475380Y-115747809D01*
X217475380Y-116033523D01*
X217427761Y-116128761D01*
X217380142Y-116176380D01*
X182852142Y-101976142D02*
X182804523Y-102023761D01*
X182661666Y-102071380D01*
X182566428Y-102071380D01*
X182423571Y-102023761D01*
X182328333Y-101928523D01*
X182280714Y-101833285D01*
X182233095Y-101642809D01*
X182233095Y-101499952D01*
X182280714Y-101309476D01*
X182328333Y-101214238D01*
X182423571Y-101119000D01*
X182566428Y-101071380D01*
X182661666Y-101071380D01*
X182804523Y-101119000D01*
X182852142Y-101166619D01*
X183233095Y-101785666D02*
X183709285Y-101785666D01*
X183137857Y-102071380D02*
X183471190Y-101071380D01*
X183804523Y-102071380D01*
X184137857Y-102071380D02*
X184137857Y-101071380D01*
X184709285Y-102071380D01*
X184709285Y-101071380D01*
X118806380Y-110462476D02*
X118806380Y-111033904D01*
X118806380Y-110748190D02*
X117806380Y-110748190D01*
X117949238Y-110843428D01*
X118044476Y-110938666D01*
X118092095Y-111033904D01*
X118806380Y-109510095D02*
X118806380Y-110081523D01*
X118806380Y-109795809D02*
X117806380Y-109795809D01*
X117949238Y-109891047D01*
X118044476Y-109986285D01*
X118092095Y-110081523D01*
X212792380Y-131479714D02*
X213792380Y-131146380D01*
X212792380Y-130813047D01*
X213792380Y-129955904D02*
X213792380Y-130527333D01*
X213792380Y-130241619D02*
X212792380Y-130241619D01*
X212935238Y-130336857D01*
X213030476Y-130432095D01*
X213078095Y-130527333D01*
X212792380Y-129336857D02*
X212792380Y-129241619D01*
X212840000Y-129146380D01*
X212887619Y-129098761D01*
X212982857Y-129051142D01*
X213173333Y-129003523D01*
X213411428Y-129003523D01*
X213601904Y-129051142D01*
X213697142Y-129098761D01*
X213744761Y-129146380D01*
X213792380Y-129241619D01*
X213792380Y-129336857D01*
X213744761Y-129432095D01*
X213697142Y-129479714D01*
X213601904Y-129527333D01*
X213411428Y-129574952D01*
X213173333Y-129574952D01*
X212982857Y-129527333D01*
X212887619Y-129479714D01*
X212840000Y-129432095D01*
X212792380Y-129336857D01*
X148251619Y-96250571D02*
X148584952Y-96250571D01*
X148727809Y-96774380D02*
X148251619Y-96774380D01*
X148251619Y-95774380D01*
X148727809Y-95774380D01*
X149013523Y-95774380D02*
X149584952Y-95774380D01*
X149299238Y-96774380D02*
X149299238Y-95774380D01*
X150251619Y-96250571D02*
X150394476Y-96298190D01*
X150442095Y-96345809D01*
X150489714Y-96441047D01*
X150489714Y-96583904D01*
X150442095Y-96679142D01*
X150394476Y-96726761D01*
X150299238Y-96774380D01*
X149918285Y-96774380D01*
X149918285Y-95774380D01*
X150251619Y-95774380D01*
X150346857Y-95822000D01*
X150394476Y-95869619D01*
X150442095Y-95964857D01*
X150442095Y-96060095D01*
X150394476Y-96155333D01*
X150346857Y-96202952D01*
X150251619Y-96250571D01*
X149918285Y-96250571D01*
X151632571Y-95869619D02*
X151680190Y-95822000D01*
X151775428Y-95774380D01*
X152013523Y-95774380D01*
X152108761Y-95822000D01*
X152156380Y-95869619D01*
X152204000Y-95964857D01*
X152204000Y-96060095D01*
X152156380Y-96202952D01*
X151584952Y-96774380D01*
X152204000Y-96774380D01*
X212538380Y-147132523D02*
X213538380Y-146799190D01*
X212538380Y-146465857D01*
X212633619Y-146180142D02*
X212586000Y-146132523D01*
X212538380Y-146037285D01*
X212538380Y-145799190D01*
X212586000Y-145703952D01*
X212633619Y-145656333D01*
X212728857Y-145608714D01*
X212824095Y-145608714D01*
X212966952Y-145656333D01*
X213538380Y-146227761D01*
X213538380Y-145608714D01*
X216348380Y-129098523D02*
X217348380Y-128765190D01*
X216348380Y-128431857D01*
X217348380Y-128050904D02*
X217348380Y-127860428D01*
X217300761Y-127765190D01*
X217253142Y-127717571D01*
X217110285Y-127622333D01*
X216919809Y-127574714D01*
X216538857Y-127574714D01*
X216443619Y-127622333D01*
X216396000Y-127669952D01*
X216348380Y-127765190D01*
X216348380Y-127955666D01*
X216396000Y-128050904D01*
X216443619Y-128098523D01*
X216538857Y-128146142D01*
X216776952Y-128146142D01*
X216872190Y-128098523D01*
X216919809Y-128050904D01*
X216967428Y-127955666D01*
X216967428Y-127765190D01*
X216919809Y-127669952D01*
X216872190Y-127622333D01*
X216776952Y-127574714D01*
X216475380Y-141163523D02*
X217475380Y-140830190D01*
X216475380Y-140496857D01*
X216475380Y-140258761D02*
X216475380Y-139639714D01*
X216856333Y-139973047D01*
X216856333Y-139830190D01*
X216903952Y-139734952D01*
X216951571Y-139687333D01*
X217046809Y-139639714D01*
X217284904Y-139639714D01*
X217380142Y-139687333D01*
X217427761Y-139734952D01*
X217475380Y-139830190D01*
X217475380Y-140115904D01*
X217427761Y-140211142D01*
X217380142Y-140258761D01*
D14*
X150071695Y-104760400D02*
X149258895Y-104760400D01*
X149839466Y-104489466D01*
X149258895Y-104218533D01*
X150071695Y-104218533D01*
X150071695Y-103483142D02*
X149645942Y-103483142D01*
X149568533Y-103521847D01*
X149529828Y-103599257D01*
X149529828Y-103754076D01*
X149568533Y-103831485D01*
X150032990Y-103483142D02*
X150071695Y-103560552D01*
X150071695Y-103754076D01*
X150032990Y-103831485D01*
X149955580Y-103870190D01*
X149878171Y-103870190D01*
X149800761Y-103831485D01*
X149762057Y-103754076D01*
X149762057Y-103560552D01*
X149723352Y-103483142D01*
X150071695Y-103096095D02*
X149529828Y-103096095D01*
X149258895Y-103096095D02*
X149297600Y-103134800D01*
X149336304Y-103096095D01*
X149297600Y-103057390D01*
X149258895Y-103096095D01*
X149336304Y-103096095D01*
X149529828Y-102709047D02*
X150071695Y-102709047D01*
X149607238Y-102709047D02*
X149568533Y-102670342D01*
X149529828Y-102592933D01*
X149529828Y-102476819D01*
X149568533Y-102399409D01*
X149645942Y-102360704D01*
X150071695Y-102360704D01*
X150071695Y-100889923D02*
X149684647Y-101160857D01*
X150071695Y-101354380D02*
X149258895Y-101354380D01*
X149258895Y-101044742D01*
X149297600Y-100967333D01*
X149336304Y-100928628D01*
X149413714Y-100889923D01*
X149529828Y-100889923D01*
X149607238Y-100928628D01*
X149645942Y-100967333D01*
X149684647Y-101044742D01*
X149684647Y-101354380D01*
X150071695Y-100425466D02*
X150032990Y-100502876D01*
X149955580Y-100541580D01*
X149258895Y-100541580D01*
X149529828Y-100193238D02*
X150071695Y-99999714D01*
X149529828Y-99806190D02*
X150071695Y-99999714D01*
X150265219Y-100077123D01*
X150303923Y-100115828D01*
X150342628Y-100193238D01*
D12*
X109906380Y-144862476D02*
X109906380Y-145433904D01*
X109906380Y-145148190D02*
X108906380Y-145148190D01*
X109049238Y-145243428D01*
X109144476Y-145338666D01*
X109192095Y-145433904D01*
X108906380Y-143957714D02*
X108906380Y-144433904D01*
X109382571Y-144481523D01*
X109334952Y-144433904D01*
X109287333Y-144338666D01*
X109287333Y-144100571D01*
X109334952Y-144005333D01*
X109382571Y-143957714D01*
X109477809Y-143910095D01*
X109715904Y-143910095D01*
X109811142Y-143957714D01*
X109858761Y-144005333D01*
X109906380Y-144100571D01*
X109906380Y-144338666D01*
X109858761Y-144433904D01*
X109811142Y-144481523D01*
D15*
X109892095Y-85376761D02*
X110273047Y-85376761D01*
X110463523Y-85472000D01*
X110654000Y-85662476D01*
X110749238Y-86043428D01*
X110749238Y-86710095D01*
X110654000Y-87091047D01*
X110463523Y-87281523D01*
X110273047Y-87376761D01*
X109892095Y-87376761D01*
X109701619Y-87281523D01*
X109511142Y-87091047D01*
X109415904Y-86710095D01*
X109415904Y-86043428D01*
X109511142Y-85662476D01*
X109701619Y-85472000D01*
X109892095Y-85376761D01*
X111606380Y-85376761D02*
X111606380Y-86995809D01*
X111701619Y-87186285D01*
X111796857Y-87281523D01*
X111987333Y-87376761D01*
X112368285Y-87376761D01*
X112558761Y-87281523D01*
X112654000Y-87186285D01*
X112749238Y-86995809D01*
X112749238Y-85376761D01*
X113415904Y-85376761D02*
X114558761Y-85376761D01*
X113987333Y-87376761D02*
X113987333Y-85376761D01*
X115225428Y-87376761D02*
X115225428Y-85376761D01*
X115987333Y-85376761D01*
X116177809Y-85472000D01*
X116273047Y-85567238D01*
X116368285Y-85757714D01*
X116368285Y-86043428D01*
X116273047Y-86233904D01*
X116177809Y-86329142D01*
X115987333Y-86424380D01*
X115225428Y-86424380D01*
X117225428Y-85376761D02*
X117225428Y-86995809D01*
X117320666Y-87186285D01*
X117415904Y-87281523D01*
X117606380Y-87376761D01*
X117987333Y-87376761D01*
X118177809Y-87281523D01*
X118273047Y-87186285D01*
X118368285Y-86995809D01*
X118368285Y-85376761D01*
X119034952Y-85376761D02*
X120177809Y-85376761D01*
X119606380Y-87376761D02*
X119606380Y-85376761D01*
X120749238Y-87281523D02*
X121034952Y-87376761D01*
X121511142Y-87376761D01*
X121701619Y-87281523D01*
X121796857Y-87186285D01*
X121892095Y-86995809D01*
X121892095Y-86805333D01*
X121796857Y-86614857D01*
X121701619Y-86519619D01*
X121511142Y-86424380D01*
X121130190Y-86329142D01*
X120939714Y-86233904D01*
X120844476Y-86138666D01*
X120749238Y-85948190D01*
X120749238Y-85757714D01*
X120844476Y-85567238D01*
X120939714Y-85472000D01*
X121130190Y-85376761D01*
X121606380Y-85376761D01*
X121892095Y-85472000D01*
D12*
X122156380Y-126281523D02*
X121156380Y-126281523D01*
X121489714Y-125376761D02*
X122299238Y-125376761D01*
X122394476Y-125424380D01*
X122442095Y-125472000D01*
X122489714Y-125567238D01*
X122489714Y-125710095D01*
X122442095Y-125805333D01*
X122108761Y-125376761D02*
X122156380Y-125472000D01*
X122156380Y-125662476D01*
X122108761Y-125757714D01*
X122061142Y-125805333D01*
X121965904Y-125852952D01*
X121680190Y-125852952D01*
X121584952Y-125805333D01*
X121537333Y-125757714D01*
X121489714Y-125662476D01*
X121489714Y-125472000D01*
X121537333Y-125376761D01*
X121489714Y-124900571D02*
X122156380Y-124900571D01*
X121584952Y-124900571D02*
X121537333Y-124852952D01*
X121489714Y-124757714D01*
X121489714Y-124614857D01*
X121537333Y-124519619D01*
X121632571Y-124472000D01*
X122156380Y-124472000D01*
X122156380Y-123995809D02*
X121489714Y-123995809D01*
X121156380Y-123995809D02*
X121204000Y-124043428D01*
X121251619Y-123995809D01*
X121204000Y-123948190D01*
X121156380Y-123995809D01*
X121251619Y-123995809D01*
X121489714Y-123662476D02*
X121489714Y-123281523D01*
X121156380Y-123519619D02*
X122013523Y-123519619D01*
X122108761Y-123472000D01*
X122156380Y-123376761D01*
X122156380Y-123281523D01*
X122156380Y-122948190D02*
X121489714Y-122948190D01*
X121156380Y-122948190D02*
X121204000Y-122995809D01*
X121251619Y-122948190D01*
X121204000Y-122900571D01*
X121156380Y-122948190D01*
X121251619Y-122948190D01*
X122156380Y-122329142D02*
X122108761Y-122424380D01*
X122061142Y-122472000D01*
X121965904Y-122519619D01*
X121680190Y-122519619D01*
X121584952Y-122472000D01*
X121537333Y-122424380D01*
X121489714Y-122329142D01*
X121489714Y-122186285D01*
X121537333Y-122091047D01*
X121584952Y-122043428D01*
X121680190Y-121995809D01*
X121965904Y-121995809D01*
X122061142Y-122043428D01*
X122108761Y-122091047D01*
X122156380Y-122186285D01*
X122156380Y-122329142D01*
X121489714Y-121567238D02*
X122156380Y-121567238D01*
X121584952Y-121567238D02*
X121537333Y-121519619D01*
X121489714Y-121424380D01*
X121489714Y-121281523D01*
X121537333Y-121186285D01*
X121632571Y-121138666D01*
X122156380Y-121138666D01*
X121156380Y-119710095D02*
X121156380Y-119519619D01*
X121204000Y-119424380D01*
X121299238Y-119329142D01*
X121489714Y-119281523D01*
X121823047Y-119281523D01*
X122013523Y-119329142D01*
X122108761Y-119424380D01*
X122156380Y-119519619D01*
X122156380Y-119710095D01*
X122108761Y-119805333D01*
X122013523Y-119900571D01*
X121823047Y-119948190D01*
X121489714Y-119948190D01*
X121299238Y-119900571D01*
X121204000Y-119805333D01*
X121156380Y-119710095D01*
X121489714Y-118424380D02*
X122156380Y-118424380D01*
X121489714Y-118852952D02*
X122013523Y-118852952D01*
X122108761Y-118805333D01*
X122156380Y-118710095D01*
X122156380Y-118567238D01*
X122108761Y-118472000D01*
X122061142Y-118424380D01*
X121489714Y-118091047D02*
X121489714Y-117710095D01*
X121156380Y-117948190D02*
X122013523Y-117948190D01*
X122108761Y-117900571D01*
X122156380Y-117805333D01*
X122156380Y-117710095D01*
X121489714Y-117376761D02*
X122489714Y-117376761D01*
X121537333Y-117376761D02*
X121489714Y-117281523D01*
X121489714Y-117091047D01*
X121537333Y-116995809D01*
X121584952Y-116948190D01*
X121680190Y-116900571D01*
X121965904Y-116900571D01*
X122061142Y-116948190D01*
X122108761Y-116995809D01*
X122156380Y-117091047D01*
X122156380Y-117281523D01*
X122108761Y-117376761D01*
X121489714Y-116043428D02*
X122156380Y-116043428D01*
X121489714Y-116472000D02*
X122013523Y-116472000D01*
X122108761Y-116424380D01*
X122156380Y-116329142D01*
X122156380Y-116186285D01*
X122108761Y-116091047D01*
X122061142Y-116043428D01*
X121489714Y-115710095D02*
X121489714Y-115329142D01*
X121156380Y-115567238D02*
X122013523Y-115567238D01*
X122108761Y-115519619D01*
X122156380Y-115424380D01*
X122156380Y-115329142D01*
X122108761Y-115043428D02*
X122156380Y-114948190D01*
X122156380Y-114757714D01*
X122108761Y-114662476D01*
X122013523Y-114614857D01*
X121965904Y-114614857D01*
X121870666Y-114662476D01*
X121823047Y-114757714D01*
X121823047Y-114900571D01*
X121775428Y-114995809D01*
X121680190Y-115043428D01*
X121632571Y-115043428D01*
X121537333Y-114995809D01*
X121489714Y-114900571D01*
X121489714Y-114757714D01*
X121537333Y-114662476D01*
X113049714Y-114255523D02*
X113716380Y-114255523D01*
X112668761Y-114493619D02*
X113383047Y-114731714D01*
X113383047Y-114112666D01*
X150475047Y-95213428D02*
X151236952Y-95213428D01*
X119685380Y-146037285D02*
X119685380Y-146608714D01*
X119685380Y-146323000D02*
X118685380Y-146323000D01*
X118828238Y-146418238D01*
X118923476Y-146513476D01*
X118971095Y-146608714D01*
D16*
X165181600Y-102111276D02*
X165142895Y-102188685D01*
X165142895Y-102304800D01*
X165181600Y-102420914D01*
X165259009Y-102498323D01*
X165336419Y-102537028D01*
X165491238Y-102575733D01*
X165607352Y-102575733D01*
X165762171Y-102537028D01*
X165839580Y-102498323D01*
X165916990Y-102420914D01*
X165955695Y-102304800D01*
X165955695Y-102227390D01*
X165916990Y-102111276D01*
X165878285Y-102072571D01*
X165607352Y-102072571D01*
X165607352Y-102227390D01*
X165955695Y-101724228D02*
X165142895Y-101724228D01*
X165955695Y-101259771D01*
X165142895Y-101259771D01*
X165955695Y-100872723D02*
X165142895Y-100872723D01*
X165142895Y-100679200D01*
X165181600Y-100563085D01*
X165259009Y-100485676D01*
X165336419Y-100446971D01*
X165491238Y-100408266D01*
X165607352Y-100408266D01*
X165762171Y-100446971D01*
X165839580Y-100485676D01*
X165916990Y-100563085D01*
X165955695Y-100679200D01*
X165955695Y-100872723D01*
D12*
X216348380Y-133289523D02*
X217348380Y-132956190D01*
X216348380Y-132622857D01*
X216348380Y-132384761D02*
X216348380Y-131718095D01*
X217348380Y-132146666D01*
X118796380Y-114636476D02*
X118796380Y-115207904D01*
X118796380Y-114922190D02*
X117796380Y-114922190D01*
X117939238Y-115017428D01*
X118034476Y-115112666D01*
X118082095Y-115207904D01*
X117796380Y-114017428D02*
X117796380Y-113922190D01*
X117844000Y-113826952D01*
X117891619Y-113779333D01*
X117986857Y-113731714D01*
X118177333Y-113684095D01*
X118415428Y-113684095D01*
X118605904Y-113731714D01*
X118701142Y-113779333D01*
X118748761Y-113826952D01*
X118796380Y-113922190D01*
X118796380Y-114017428D01*
X118748761Y-114112666D01*
X118701142Y-114160285D01*
X118605904Y-114207904D01*
X118415428Y-114255523D01*
X118177333Y-114255523D01*
X117986857Y-114207904D01*
X117891619Y-114160285D01*
X117844000Y-114112666D01*
X117796380Y-114017428D01*
X109906380Y-132670476D02*
X109906380Y-133241904D01*
X109906380Y-132956190D02*
X108906380Y-132956190D01*
X109049238Y-133051428D01*
X109144476Y-133146666D01*
X109192095Y-133241904D01*
X109906380Y-131718095D02*
X109906380Y-132289523D01*
X109906380Y-132003809D02*
X108906380Y-132003809D01*
X109049238Y-132099047D01*
X109144476Y-132194285D01*
X109192095Y-132289523D01*
X212665380Y-118763904D02*
X212665380Y-118192476D01*
X213665380Y-118478190D02*
X212665380Y-118478190D01*
X212998714Y-117430571D02*
X213665380Y-117430571D01*
X212617761Y-117668666D02*
X213332047Y-117906761D01*
X213332047Y-117287714D01*
X162111142Y-88974380D02*
X162444476Y-89974380D01*
X162777809Y-88974380D01*
X163682571Y-89974380D02*
X163349238Y-89498190D01*
X163111142Y-89974380D02*
X163111142Y-88974380D01*
X163492095Y-88974380D01*
X163587333Y-89022000D01*
X163634952Y-89069619D01*
X163682571Y-89164857D01*
X163682571Y-89307714D01*
X163634952Y-89402952D01*
X163587333Y-89450571D01*
X163492095Y-89498190D01*
X163111142Y-89498190D01*
X164825428Y-89926761D02*
X164968285Y-89974380D01*
X165206380Y-89974380D01*
X165301619Y-89926761D01*
X165349238Y-89879142D01*
X165396857Y-89783904D01*
X165396857Y-89688666D01*
X165349238Y-89593428D01*
X165301619Y-89545809D01*
X165206380Y-89498190D01*
X165015904Y-89450571D01*
X164920666Y-89402952D01*
X164873047Y-89355333D01*
X164825428Y-89260095D01*
X164825428Y-89164857D01*
X164873047Y-89069619D01*
X164920666Y-89022000D01*
X165015904Y-88974380D01*
X165254000Y-88974380D01*
X165396857Y-89022000D01*
X166206380Y-89926761D02*
X166111142Y-89974380D01*
X165920666Y-89974380D01*
X165825428Y-89926761D01*
X165777809Y-89831523D01*
X165777809Y-89450571D01*
X165825428Y-89355333D01*
X165920666Y-89307714D01*
X166111142Y-89307714D01*
X166206380Y-89355333D01*
X166254000Y-89450571D01*
X166254000Y-89545809D01*
X165777809Y-89641047D01*
X166682571Y-89307714D02*
X166682571Y-89974380D01*
X166682571Y-89402952D02*
X166730190Y-89355333D01*
X166825428Y-89307714D01*
X166968285Y-89307714D01*
X167063523Y-89355333D01*
X167111142Y-89450571D01*
X167111142Y-89974380D01*
X167539714Y-89926761D02*
X167634952Y-89974380D01*
X167825428Y-89974380D01*
X167920666Y-89926761D01*
X167968285Y-89831523D01*
X167968285Y-89783904D01*
X167920666Y-89688666D01*
X167825428Y-89641047D01*
X167682571Y-89641047D01*
X167587333Y-89593428D01*
X167539714Y-89498190D01*
X167539714Y-89450571D01*
X167587333Y-89355333D01*
X167682571Y-89307714D01*
X167825428Y-89307714D01*
X167920666Y-89355333D01*
X168539714Y-89974380D02*
X168444476Y-89926761D01*
X168396857Y-89879142D01*
X168349238Y-89783904D01*
X168349238Y-89498190D01*
X168396857Y-89402952D01*
X168444476Y-89355333D01*
X168539714Y-89307714D01*
X168682571Y-89307714D01*
X168777809Y-89355333D01*
X168825428Y-89402952D01*
X168873047Y-89498190D01*
X168873047Y-89783904D01*
X168825428Y-89879142D01*
X168777809Y-89926761D01*
X168682571Y-89974380D01*
X168539714Y-89974380D01*
X169301619Y-89974380D02*
X169301619Y-89307714D01*
X169301619Y-89498190D02*
X169349238Y-89402952D01*
X169396857Y-89355333D01*
X169492095Y-89307714D01*
X169587333Y-89307714D01*
X169873047Y-89926761D02*
X169968285Y-89974380D01*
X170158761Y-89974380D01*
X170254000Y-89926761D01*
X170301619Y-89831523D01*
X170301619Y-89783904D01*
X170254000Y-89688666D01*
X170158761Y-89641047D01*
X170015904Y-89641047D01*
X169920666Y-89593428D01*
X169873047Y-89498190D01*
X169873047Y-89450571D01*
X169920666Y-89355333D01*
X170015904Y-89307714D01*
X170158761Y-89307714D01*
X170254000Y-89355333D01*
X108906380Y-112747333D02*
X108906380Y-112128285D01*
X109287333Y-112461619D01*
X109287333Y-112318761D01*
X109334952Y-112223523D01*
X109382571Y-112175904D01*
X109477809Y-112128285D01*
X109715904Y-112128285D01*
X109811142Y-112175904D01*
X109858761Y-112223523D01*
X109906380Y-112318761D01*
X109906380Y-112604476D01*
X109858761Y-112699714D01*
X109811142Y-112747333D01*
X113843380Y-134702476D02*
X113843380Y-135273904D01*
X113843380Y-134988190D02*
X112843380Y-134988190D01*
X112986238Y-135083428D01*
X113081476Y-135178666D01*
X113129095Y-135273904D01*
X112938619Y-134321523D02*
X112891000Y-134273904D01*
X112843380Y-134178666D01*
X112843380Y-133940571D01*
X112891000Y-133845333D01*
X112938619Y-133797714D01*
X113033857Y-133750095D01*
X113129095Y-133750095D01*
X113271952Y-133797714D01*
X113843380Y-134369142D01*
X113843380Y-133750095D01*
X177065666Y-91800380D02*
X177684714Y-91800380D01*
X177351380Y-92181333D01*
X177494238Y-92181333D01*
X177589476Y-92228952D01*
X177637095Y-92276571D01*
X177684714Y-92371809D01*
X177684714Y-92609904D01*
X177637095Y-92705142D01*
X177589476Y-92752761D01*
X177494238Y-92800380D01*
X177208523Y-92800380D01*
X177113285Y-92752761D01*
X177065666Y-92705142D01*
X109749238Y-96819380D02*
X109749238Y-95819380D01*
X109749238Y-96295571D02*
X110320666Y-96295571D01*
X110320666Y-96819380D02*
X110320666Y-95819380D01*
X110796857Y-96819380D02*
X110796857Y-96152714D01*
X110796857Y-95819380D02*
X110749238Y-95867000D01*
X110796857Y-95914619D01*
X110844476Y-95867000D01*
X110796857Y-95819380D01*
X110796857Y-95914619D01*
X111701619Y-96152714D02*
X111701619Y-96962238D01*
X111654000Y-97057476D01*
X111606380Y-97105095D01*
X111511142Y-97152714D01*
X111368285Y-97152714D01*
X111273047Y-97105095D01*
X111701619Y-96771761D02*
X111606380Y-96819380D01*
X111415904Y-96819380D01*
X111320666Y-96771761D01*
X111273047Y-96724142D01*
X111225428Y-96628904D01*
X111225428Y-96343190D01*
X111273047Y-96247952D01*
X111320666Y-96200333D01*
X111415904Y-96152714D01*
X111606380Y-96152714D01*
X111701619Y-96200333D01*
X112177809Y-96819380D02*
X112177809Y-95819380D01*
X112606380Y-96819380D02*
X112606380Y-96295571D01*
X112558761Y-96200333D01*
X112463523Y-96152714D01*
X112320666Y-96152714D01*
X112225428Y-96200333D01*
X112177809Y-96247952D01*
X113796857Y-96771761D02*
X113939714Y-96819380D01*
X114177809Y-96819380D01*
X114273047Y-96771761D01*
X114320666Y-96724142D01*
X114368285Y-96628904D01*
X114368285Y-96533666D01*
X114320666Y-96438428D01*
X114273047Y-96390809D01*
X114177809Y-96343190D01*
X113987333Y-96295571D01*
X113892095Y-96247952D01*
X113844476Y-96200333D01*
X113796857Y-96105095D01*
X113796857Y-96009857D01*
X113844476Y-95914619D01*
X113892095Y-95867000D01*
X113987333Y-95819380D01*
X114225428Y-95819380D01*
X114368285Y-95867000D01*
X114796857Y-96819380D02*
X114796857Y-96152714D01*
X114796857Y-95819380D02*
X114749238Y-95867000D01*
X114796857Y-95914619D01*
X114844476Y-95867000D01*
X114796857Y-95819380D01*
X114796857Y-95914619D01*
X115701619Y-96819380D02*
X115701619Y-95819380D01*
X115701619Y-96771761D02*
X115606380Y-96819380D01*
X115415904Y-96819380D01*
X115320666Y-96771761D01*
X115273047Y-96724142D01*
X115225428Y-96628904D01*
X115225428Y-96343190D01*
X115273047Y-96247952D01*
X115320666Y-96200333D01*
X115415904Y-96152714D01*
X115606380Y-96152714D01*
X115701619Y-96200333D01*
X116558761Y-96771761D02*
X116463523Y-96819380D01*
X116273047Y-96819380D01*
X116177809Y-96771761D01*
X116130190Y-96676523D01*
X116130190Y-96295571D01*
X116177809Y-96200333D01*
X116273047Y-96152714D01*
X116463523Y-96152714D01*
X116558761Y-96200333D01*
X116606380Y-96295571D01*
X116606380Y-96390809D01*
X116130190Y-96486047D01*
X110725428Y-97429380D02*
X110915904Y-97429380D01*
X111011142Y-97477000D01*
X111106380Y-97572238D01*
X111154000Y-97762714D01*
X111154000Y-98096047D01*
X111106380Y-98286523D01*
X111011142Y-98381761D01*
X110915904Y-98429380D01*
X110725428Y-98429380D01*
X110630190Y-98381761D01*
X110534952Y-98286523D01*
X110487333Y-98096047D01*
X110487333Y-97762714D01*
X110534952Y-97572238D01*
X110630190Y-97477000D01*
X110725428Y-97429380D01*
X112011142Y-97762714D02*
X112011142Y-98429380D01*
X111582571Y-97762714D02*
X111582571Y-98286523D01*
X111630190Y-98381761D01*
X111725428Y-98429380D01*
X111868285Y-98429380D01*
X111963523Y-98381761D01*
X112011142Y-98334142D01*
X112344476Y-97762714D02*
X112725428Y-97762714D01*
X112487333Y-97429380D02*
X112487333Y-98286523D01*
X112534952Y-98381761D01*
X112630190Y-98429380D01*
X112725428Y-98429380D01*
X113058761Y-97762714D02*
X113058761Y-98762714D01*
X113058761Y-97810333D02*
X113154000Y-97762714D01*
X113344476Y-97762714D01*
X113439714Y-97810333D01*
X113487333Y-97857952D01*
X113534952Y-97953190D01*
X113534952Y-98238904D01*
X113487333Y-98334142D01*
X113439714Y-98381761D01*
X113344476Y-98429380D01*
X113154000Y-98429380D01*
X113058761Y-98381761D01*
X114392095Y-97762714D02*
X114392095Y-98429380D01*
X113963523Y-97762714D02*
X113963523Y-98286523D01*
X114011142Y-98381761D01*
X114106380Y-98429380D01*
X114249238Y-98429380D01*
X114344476Y-98381761D01*
X114392095Y-98334142D01*
X114725428Y-97762714D02*
X115106380Y-97762714D01*
X114868285Y-97429380D02*
X114868285Y-98286523D01*
X114915904Y-98381761D01*
X115011142Y-98429380D01*
X115106380Y-98429380D01*
X115392095Y-98381761D02*
X115487333Y-98429380D01*
X115677809Y-98429380D01*
X115773047Y-98381761D01*
X115820666Y-98286523D01*
X115820666Y-98238904D01*
X115773047Y-98143666D01*
X115677809Y-98096047D01*
X115534952Y-98096047D01*
X115439714Y-98048428D01*
X115392095Y-97953190D01*
X115392095Y-97905571D01*
X115439714Y-97810333D01*
X115534952Y-97762714D01*
X115677809Y-97762714D01*
X115773047Y-97810333D01*
X112811619Y-110667714D02*
X112764000Y-110620095D01*
X112716380Y-110524857D01*
X112716380Y-110286761D01*
X112764000Y-110191523D01*
X112811619Y-110143904D01*
X112906857Y-110096285D01*
X113002095Y-110096285D01*
X113144952Y-110143904D01*
X113716380Y-110715333D01*
X113716380Y-110096285D01*
X117923380Y-130003523D02*
X117923380Y-130194000D01*
X117971000Y-130289238D01*
X118018619Y-130336857D01*
X118161476Y-130432095D01*
X118351952Y-130479714D01*
X118732904Y-130479714D01*
X118828142Y-130432095D01*
X118875761Y-130384476D01*
X118923380Y-130289238D01*
X118923380Y-130098761D01*
X118875761Y-130003523D01*
X118828142Y-129955904D01*
X118732904Y-129908285D01*
X118494809Y-129908285D01*
X118399571Y-129955904D01*
X118351952Y-130003523D01*
X118304333Y-130098761D01*
X118304333Y-130289238D01*
X118351952Y-130384476D01*
X118399571Y-130432095D01*
X118494809Y-130479714D01*
X162841666Y-91911380D02*
X162270238Y-91911380D01*
X162555952Y-91911380D02*
X162555952Y-90911380D01*
X162460714Y-91054238D01*
X162365476Y-91149476D01*
X162270238Y-91197095D01*
X163270238Y-91530428D02*
X164032142Y-91530428D01*
X163651190Y-91911380D02*
X163651190Y-91149476D01*
X109418285Y-100150619D02*
X109465904Y-100103000D01*
X109561142Y-100055380D01*
X109799238Y-100055380D01*
X109894476Y-100103000D01*
X109942095Y-100150619D01*
X109989714Y-100245857D01*
X109989714Y-100341095D01*
X109942095Y-100483952D01*
X109370666Y-101055380D01*
X109989714Y-101055380D01*
D16*
X154104828Y-100589695D02*
X154104828Y-99776895D01*
X154453171Y-100589695D02*
X154453171Y-100163942D01*
X154414466Y-100086533D01*
X154337057Y-100047828D01*
X154220942Y-100047828D01*
X154143533Y-100086533D01*
X154104828Y-100125238D01*
D12*
X221706380Y-115426761D02*
X221706380Y-115902952D01*
X222182571Y-115950571D01*
X222134952Y-115902952D01*
X222087333Y-115807714D01*
X222087333Y-115569619D01*
X222134952Y-115474380D01*
X222182571Y-115426761D01*
X222277809Y-115379142D01*
X222515904Y-115379142D01*
X222611142Y-115426761D01*
X222658761Y-115474380D01*
X222706380Y-115569619D01*
X222706380Y-115807714D01*
X222658761Y-115902952D01*
X222611142Y-115950571D01*
X222039714Y-115045809D02*
X222706380Y-114807714D01*
X222039714Y-114569619D01*
X222658761Y-113474380D02*
X222706380Y-113331523D01*
X222706380Y-113093428D01*
X222658761Y-112998190D01*
X222611142Y-112950571D01*
X222515904Y-112902952D01*
X222420666Y-112902952D01*
X222325428Y-112950571D01*
X222277809Y-112998190D01*
X222230190Y-113093428D01*
X222182571Y-113283904D01*
X222134952Y-113379142D01*
X222087333Y-113426761D01*
X221992095Y-113474380D01*
X221896857Y-113474380D01*
X221801619Y-113426761D01*
X221754000Y-113379142D01*
X221706380Y-113283904D01*
X221706380Y-113045809D01*
X221754000Y-112902952D01*
X222658761Y-112093428D02*
X222706380Y-112188666D01*
X222706380Y-112379142D01*
X222658761Y-112474380D01*
X222563523Y-112522000D01*
X222182571Y-112522000D01*
X222087333Y-112474380D01*
X222039714Y-112379142D01*
X222039714Y-112188666D01*
X222087333Y-112093428D01*
X222182571Y-112045809D01*
X222277809Y-112045809D01*
X222373047Y-112522000D01*
X222039714Y-111617238D02*
X222706380Y-111617238D01*
X222134952Y-111617238D02*
X222087333Y-111569619D01*
X222039714Y-111474380D01*
X222039714Y-111331523D01*
X222087333Y-111236285D01*
X222182571Y-111188666D01*
X222706380Y-111188666D01*
X222658761Y-110760095D02*
X222706380Y-110664857D01*
X222706380Y-110474380D01*
X222658761Y-110379142D01*
X222563523Y-110331523D01*
X222515904Y-110331523D01*
X222420666Y-110379142D01*
X222373047Y-110474380D01*
X222373047Y-110617238D01*
X222325428Y-110712476D01*
X222230190Y-110760095D01*
X222182571Y-110760095D01*
X222087333Y-110712476D01*
X222039714Y-110617238D01*
X222039714Y-110474380D01*
X222087333Y-110379142D01*
X222706380Y-109760095D02*
X222658761Y-109855333D01*
X222611142Y-109902952D01*
X222515904Y-109950571D01*
X222230190Y-109950571D01*
X222134952Y-109902952D01*
X222087333Y-109855333D01*
X222039714Y-109760095D01*
X222039714Y-109617238D01*
X222087333Y-109522000D01*
X222134952Y-109474380D01*
X222230190Y-109426761D01*
X222515904Y-109426761D01*
X222611142Y-109474380D01*
X222658761Y-109522000D01*
X222706380Y-109617238D01*
X222706380Y-109760095D01*
X222706380Y-108998190D02*
X222039714Y-108998190D01*
X222230190Y-108998190D02*
X222134952Y-108950571D01*
X222087333Y-108902952D01*
X222039714Y-108807714D01*
X222039714Y-108712476D01*
X222658761Y-107664857D02*
X222706380Y-107522000D01*
X222706380Y-107283904D01*
X222658761Y-107188666D01*
X222611142Y-107141047D01*
X222515904Y-107093428D01*
X222420666Y-107093428D01*
X222325428Y-107141047D01*
X222277809Y-107188666D01*
X222230190Y-107283904D01*
X222182571Y-107474380D01*
X222134952Y-107569619D01*
X222087333Y-107617238D01*
X221992095Y-107664857D01*
X221896857Y-107664857D01*
X221801619Y-107617238D01*
X221754000Y-107569619D01*
X221706380Y-107474380D01*
X221706380Y-107236285D01*
X221754000Y-107093428D01*
X222039714Y-106236285D02*
X222706380Y-106236285D01*
X222039714Y-106664857D02*
X222563523Y-106664857D01*
X222658761Y-106617238D01*
X222706380Y-106522000D01*
X222706380Y-106379142D01*
X222658761Y-106283904D01*
X222611142Y-106236285D01*
X222039714Y-105760095D02*
X223039714Y-105760095D01*
X222087333Y-105760095D02*
X222039714Y-105664857D01*
X222039714Y-105474380D01*
X222087333Y-105379142D01*
X222134952Y-105331523D01*
X222230190Y-105283904D01*
X222515904Y-105283904D01*
X222611142Y-105331523D01*
X222658761Y-105379142D01*
X222706380Y-105474380D01*
X222706380Y-105664857D01*
X222658761Y-105760095D01*
X222039714Y-104855333D02*
X223039714Y-104855333D01*
X222087333Y-104855333D02*
X222039714Y-104760095D01*
X222039714Y-104569619D01*
X222087333Y-104474380D01*
X222134952Y-104426761D01*
X222230190Y-104379142D01*
X222515904Y-104379142D01*
X222611142Y-104426761D01*
X222658761Y-104474380D01*
X222706380Y-104569619D01*
X222706380Y-104760095D01*
X222658761Y-104855333D01*
X222706380Y-103807714D02*
X222658761Y-103902952D01*
X222563523Y-103950571D01*
X221706380Y-103950571D01*
X222039714Y-103522000D02*
X222706380Y-103283904D01*
X222039714Y-103045809D02*
X222706380Y-103283904D01*
X222944476Y-103379142D01*
X222992095Y-103426761D01*
X223039714Y-103522000D01*
X166715238Y-91006619D02*
X166762857Y-90959000D01*
X166858095Y-90911380D01*
X167096190Y-90911380D01*
X167191428Y-90959000D01*
X167239047Y-91006619D01*
X167286666Y-91101857D01*
X167286666Y-91197095D01*
X167239047Y-91339952D01*
X166667619Y-91911380D01*
X167286666Y-91911380D01*
X167715238Y-91530428D02*
X168477142Y-91530428D01*
X168096190Y-91911380D02*
X168096190Y-91149476D01*
X212538380Y-142941523D02*
X213538380Y-142608190D01*
X212538380Y-142274857D01*
X212871714Y-141512952D02*
X213538380Y-141512952D01*
X212490761Y-141751047D02*
X213205047Y-141989142D01*
X213205047Y-141370095D01*
X157968047Y-92038428D02*
X158729952Y-92038428D01*
X209855380Y-104254285D02*
X209855380Y-104825714D01*
X209855380Y-104540000D02*
X208855380Y-104540000D01*
X208998238Y-104635238D01*
X209093476Y-104730476D01*
X209141095Y-104825714D01*
X113311666Y-102087380D02*
X113930714Y-102087380D01*
X113597380Y-102468333D01*
X113740238Y-102468333D01*
X113835476Y-102515952D01*
X113883095Y-102563571D01*
X113930714Y-102658809D01*
X113930714Y-102896904D01*
X113883095Y-102992142D01*
X113835476Y-103039761D01*
X113740238Y-103087380D01*
X113454523Y-103087380D01*
X113359285Y-103039761D01*
X113311666Y-102992142D01*
X216348380Y-120795904D02*
X216348380Y-120224476D01*
X217348380Y-120510190D02*
X216348380Y-120510190D01*
X217348380Y-119367333D02*
X217348380Y-119938761D01*
X217348380Y-119653047D02*
X216348380Y-119653047D01*
X216491238Y-119748285D01*
X216586476Y-119843523D01*
X216634095Y-119938761D01*
X118351952Y-122415238D02*
X118304333Y-122510476D01*
X118256714Y-122558095D01*
X118161476Y-122605714D01*
X118113857Y-122605714D01*
X118018619Y-122558095D01*
X117971000Y-122510476D01*
X117923380Y-122415238D01*
X117923380Y-122224761D01*
X117971000Y-122129523D01*
X118018619Y-122081904D01*
X118113857Y-122034285D01*
X118161476Y-122034285D01*
X118256714Y-122081904D01*
X118304333Y-122129523D01*
X118351952Y-122224761D01*
X118351952Y-122415238D01*
X118399571Y-122510476D01*
X118447190Y-122558095D01*
X118542428Y-122605714D01*
X118732904Y-122605714D01*
X118828142Y-122558095D01*
X118875761Y-122510476D01*
X118923380Y-122415238D01*
X118923380Y-122224761D01*
X118875761Y-122129523D01*
X118828142Y-122081904D01*
X118732904Y-122034285D01*
X118542428Y-122034285D01*
X118447190Y-122081904D01*
X118399571Y-122129523D01*
X118351952Y-122224761D01*
X208950619Y-100888714D02*
X208903000Y-100841095D01*
X208855380Y-100745857D01*
X208855380Y-100507761D01*
X208903000Y-100412523D01*
X208950619Y-100364904D01*
X209045857Y-100317285D01*
X209141095Y-100317285D01*
X209283952Y-100364904D01*
X209855380Y-100936333D01*
X209855380Y-100317285D01*
X216348380Y-137226523D02*
X217348380Y-136893190D01*
X216348380Y-136559857D01*
X216348380Y-135750333D02*
X216348380Y-136226523D01*
X216824571Y-136274142D01*
X216776952Y-136226523D01*
X216729333Y-136131285D01*
X216729333Y-135893190D01*
X216776952Y-135797952D01*
X216824571Y-135750333D01*
X216919809Y-135702714D01*
X217157904Y-135702714D01*
X217253142Y-135750333D01*
X217300761Y-135797952D01*
X217348380Y-135893190D01*
X217348380Y-136131285D01*
X217300761Y-136226523D01*
X217253142Y-136274142D01*
X154364619Y-90371571D02*
X154697952Y-90371571D01*
X154840809Y-90895380D02*
X154364619Y-90895380D01*
X154364619Y-89895380D01*
X154840809Y-89895380D01*
X155126523Y-89895380D02*
X155697952Y-89895380D01*
X155412238Y-90895380D02*
X155412238Y-89895380D01*
X156364619Y-90371571D02*
X156507476Y-90419190D01*
X156555095Y-90466809D01*
X156602714Y-90562047D01*
X156602714Y-90704904D01*
X156555095Y-90800142D01*
X156507476Y-90847761D01*
X156412238Y-90895380D01*
X156031285Y-90895380D01*
X156031285Y-89895380D01*
X156364619Y-89895380D01*
X156459857Y-89943000D01*
X156507476Y-89990619D01*
X156555095Y-90085857D01*
X156555095Y-90181095D01*
X156507476Y-90276333D01*
X156459857Y-90323952D01*
X156364619Y-90371571D01*
X156031285Y-90371571D01*
X158317000Y-90895380D02*
X157745571Y-90895380D01*
X158031285Y-90895380D02*
X158031285Y-89895380D01*
X157936047Y-90038238D01*
X157840809Y-90133476D01*
X157745571Y-90181095D01*
X110247714Y-104103380D02*
X109676285Y-104103380D01*
X109962000Y-104103380D02*
X109962000Y-103103380D01*
X109866761Y-103246238D01*
X109771523Y-103341476D01*
X109676285Y-103389095D01*
X116556380Y-140255333D02*
X116556380Y-139636285D01*
X116937333Y-139969619D01*
X116937333Y-139826761D01*
X116984952Y-139731523D01*
X117032571Y-139683904D01*
X117127809Y-139636285D01*
X117365904Y-139636285D01*
X117461142Y-139683904D01*
X117508761Y-139731523D01*
X117556380Y-139826761D01*
X117556380Y-140112476D01*
X117508761Y-140207714D01*
X117461142Y-140255333D01*
X113962476Y-106230714D02*
X113962476Y-106897380D01*
X113724380Y-105849761D02*
X113486285Y-106564047D01*
X114105333Y-106564047D01*
X176930714Y-103214380D02*
X176930714Y-102214380D01*
X177359285Y-103214380D02*
X177359285Y-102690571D01*
X177311666Y-102595333D01*
X177216428Y-102547714D01*
X177073571Y-102547714D01*
X176978333Y-102595333D01*
X176930714Y-102642952D01*
X121146000Y-101491904D02*
X121098380Y-101587142D01*
X121098380Y-101730000D01*
X121146000Y-101872857D01*
X121241238Y-101968095D01*
X121336476Y-102015714D01*
X121526952Y-102063333D01*
X121669809Y-102063333D01*
X121860285Y-102015714D01*
X121955523Y-101968095D01*
X122050761Y-101872857D01*
X122098380Y-101730000D01*
X122098380Y-101634761D01*
X122050761Y-101491904D01*
X122003142Y-101444285D01*
X121669809Y-101444285D01*
X121669809Y-101634761D01*
X122098380Y-101015714D02*
X121098380Y-101015714D01*
X122098380Y-100444285D01*
X121098380Y-100444285D01*
X122098380Y-99968095D02*
X121098380Y-99968095D01*
X121098380Y-99730000D01*
X121146000Y-99587142D01*
X121241238Y-99491904D01*
X121336476Y-99444285D01*
X121526952Y-99396666D01*
X121669809Y-99396666D01*
X121860285Y-99444285D01*
X121955523Y-99491904D01*
X122050761Y-99587142D01*
X122098380Y-99730000D01*
X122098380Y-99968095D01*
X212665380Y-139004523D02*
X213665380Y-138671190D01*
X212665380Y-138337857D01*
X212665380Y-137575952D02*
X212665380Y-137766428D01*
X212713000Y-137861666D01*
X212760619Y-137909285D01*
X212903476Y-138004523D01*
X213093952Y-138052142D01*
X213474904Y-138052142D01*
X213570142Y-138004523D01*
X213617761Y-137956904D01*
X213665380Y-137861666D01*
X213665380Y-137671190D01*
X213617761Y-137575952D01*
X213570142Y-137528333D01*
X213474904Y-137480714D01*
X213236809Y-137480714D01*
X213141571Y-137528333D01*
X213093952Y-137575952D01*
X213046333Y-137671190D01*
X213046333Y-137861666D01*
X213093952Y-137956904D01*
X213141571Y-138004523D01*
X213236809Y-138052142D01*
X109906380Y-140798476D02*
X109906380Y-141369904D01*
X109906380Y-141084190D02*
X108906380Y-141084190D01*
X109049238Y-141179428D01*
X109144476Y-141274666D01*
X109192095Y-141369904D01*
X109239714Y-139941333D02*
X109906380Y-139941333D01*
X108858761Y-140179428D02*
X109573047Y-140417523D01*
X109573047Y-139798476D01*
X165318238Y-94943619D02*
X165365857Y-94896000D01*
X165461095Y-94848380D01*
X165699190Y-94848380D01*
X165794428Y-94896000D01*
X165842047Y-94943619D01*
X165889666Y-95038857D01*
X165889666Y-95134095D01*
X165842047Y-95276952D01*
X165270619Y-95848380D01*
X165889666Y-95848380D01*
X166318238Y-95467428D02*
X167080142Y-95467428D01*
X118383714Y-138004523D02*
X119050380Y-138004523D01*
X118002761Y-138242619D02*
X118717047Y-138480714D01*
X118717047Y-137861666D01*
X181177285Y-91895619D02*
X181224904Y-91848000D01*
X181320142Y-91800380D01*
X181558238Y-91800380D01*
X181653476Y-91848000D01*
X181701095Y-91895619D01*
X181748714Y-91990857D01*
X181748714Y-92086095D01*
X181701095Y-92228952D01*
X181129666Y-92800380D01*
X181748714Y-92800380D01*
X109906380Y-136734476D02*
X109906380Y-137305904D01*
X109906380Y-137020190D02*
X108906380Y-137020190D01*
X109049238Y-137115428D01*
X109144476Y-137210666D01*
X109192095Y-137305904D01*
X108906380Y-136401142D02*
X108906380Y-135782095D01*
X109287333Y-136115428D01*
X109287333Y-135972571D01*
X109334952Y-135877333D01*
X109382571Y-135829714D01*
X109477809Y-135782095D01*
X109715904Y-135782095D01*
X109811142Y-135829714D01*
X109858761Y-135877333D01*
X109906380Y-135972571D01*
X109906380Y-136258285D01*
X109858761Y-136353523D01*
X109811142Y-136401142D01*
X118201619Y-142417714D02*
X118154000Y-142370095D01*
X118106380Y-142274857D01*
X118106380Y-142036761D01*
X118154000Y-141941523D01*
X118201619Y-141893904D01*
X118296857Y-141846285D01*
X118392095Y-141846285D01*
X118534952Y-141893904D01*
X119106380Y-142465333D01*
X119106380Y-141846285D01*
X178280047Y-103214380D02*
X178184809Y-103166761D01*
X178137190Y-103071523D01*
X178137190Y-102214380D01*
X117923380Y-133892904D02*
X117923380Y-134369095D01*
X118399571Y-134416714D01*
X118351952Y-134369095D01*
X118304333Y-134273857D01*
X118304333Y-134035761D01*
X118351952Y-133940523D01*
X118399571Y-133892904D01*
X118494809Y-133845285D01*
X118732904Y-133845285D01*
X118828142Y-133892904D01*
X118875761Y-133940523D01*
X118923380Y-134035761D01*
X118923380Y-134273857D01*
X118875761Y-134369095D01*
X118828142Y-134416714D01*
X175906714Y-99023380D02*
X175335285Y-99023380D01*
X175621000Y-99023380D02*
X175621000Y-98023380D01*
X175525761Y-98166238D01*
X175430523Y-98261476D01*
X175335285Y-98309095D01*
D16*
X161125761Y-100589695D02*
X161048352Y-100550990D01*
X161009647Y-100473580D01*
X161009647Y-99776895D01*
X157059723Y-95340600D02*
X156982314Y-95301895D01*
X156866200Y-95301895D01*
X156750085Y-95340600D01*
X156672676Y-95418009D01*
X156633971Y-95495419D01*
X156595266Y-95650238D01*
X156595266Y-95766352D01*
X156633971Y-95921171D01*
X156672676Y-95998580D01*
X156750085Y-96075990D01*
X156866200Y-96114695D01*
X156943609Y-96114695D01*
X157059723Y-96075990D01*
X157098428Y-96037285D01*
X157098428Y-95766352D01*
X156943609Y-95766352D01*
X157446771Y-96114695D02*
X157446771Y-95301895D01*
X157911228Y-96114695D01*
X157911228Y-95301895D01*
X158298276Y-96114695D02*
X158298276Y-95301895D01*
X158491800Y-95301895D01*
X158607914Y-95340600D01*
X158685323Y-95418009D01*
X158724028Y-95495419D01*
X158762733Y-95650238D01*
X158762733Y-95766352D01*
X158724028Y-95921171D01*
X158685323Y-95998580D01*
X158607914Y-96075990D01*
X158491800Y-96114695D01*
X158298276Y-96114695D01*
D12*
X114788095Y-120042000D02*
X114692857Y-119994380D01*
X114550000Y-119994380D01*
X114407142Y-120042000D01*
X114311904Y-120137238D01*
X114264285Y-120232476D01*
X114216666Y-120422952D01*
X114216666Y-120565809D01*
X114264285Y-120756285D01*
X114311904Y-120851523D01*
X114407142Y-120946761D01*
X114550000Y-120994380D01*
X114645238Y-120994380D01*
X114788095Y-120946761D01*
X114835714Y-120899142D01*
X114835714Y-120565809D01*
X114645238Y-120565809D01*
X115264285Y-120994380D02*
X115264285Y-119994380D01*
X115835714Y-120994380D01*
X115835714Y-119994380D01*
X116311904Y-120994380D02*
X116311904Y-119994380D01*
X116550000Y-119994380D01*
X116692857Y-120042000D01*
X116788095Y-120137238D01*
X116835714Y-120232476D01*
X116883333Y-120422952D01*
X116883333Y-120565809D01*
X116835714Y-120756285D01*
X116788095Y-120851523D01*
X116692857Y-120946761D01*
X116550000Y-120994380D01*
X116311904Y-120994380D01*
X151110047Y-98007428D02*
X151871952Y-98007428D01*
X151491000Y-98388380D02*
X151491000Y-97626476D01*
X162460666Y-95975380D02*
X161889238Y-95975380D01*
X162174952Y-95975380D02*
X162174952Y-94975380D01*
X162079714Y-95118238D01*
X161984476Y-95213476D01*
X161889238Y-95261095D01*
X162889238Y-95594428D02*
X163651142Y-95594428D01*
X216602380Y-125637714D02*
X217602380Y-125304380D01*
X216602380Y-124971047D01*
X217602380Y-124113904D02*
X217602380Y-124685333D01*
X217602380Y-124399619D02*
X216602380Y-124399619D01*
X216745238Y-124494857D01*
X216840476Y-124590095D01*
X216888095Y-124685333D01*
X217602380Y-123161523D02*
X217602380Y-123732952D01*
X217602380Y-123447238D02*
X216602380Y-123447238D01*
X216745238Y-123542476D01*
X216840476Y-123637714D01*
X216888095Y-123732952D01*
X108906380Y-116493904D02*
X108906380Y-116970095D01*
X109382571Y-117017714D01*
X109334952Y-116970095D01*
X109287333Y-116874857D01*
X109287333Y-116636761D01*
X109334952Y-116541523D01*
X109382571Y-116493904D01*
X109477809Y-116446285D01*
X109715904Y-116446285D01*
X109811142Y-116493904D01*
X109858761Y-116541523D01*
X109906380Y-116636761D01*
X109906380Y-116874857D01*
X109858761Y-116970095D01*
X109811142Y-117017714D01*
X156444047Y-92038428D02*
X157205952Y-92038428D01*
X156825000Y-92419380D02*
X156825000Y-91657476D01*
X216348380Y-145354523D02*
X217348380Y-145021190D01*
X216348380Y-144687857D01*
X217348380Y-143830714D02*
X217348380Y-144402142D01*
X217348380Y-144116428D02*
X216348380Y-144116428D01*
X216491238Y-144211666D01*
X216586476Y-144306904D01*
X216634095Y-144402142D01*
X113843380Y-142830476D02*
X113843380Y-143401904D01*
X113843380Y-143116190D02*
X112843380Y-143116190D01*
X112986238Y-143211428D01*
X113081476Y-143306666D01*
X113129095Y-143401904D01*
X112843380Y-141973333D02*
X112843380Y-142163809D01*
X112891000Y-142259047D01*
X112938619Y-142306666D01*
X113081476Y-142401904D01*
X113271952Y-142449523D01*
X113652904Y-142449523D01*
X113748142Y-142401904D01*
X113795761Y-142354285D01*
X113843380Y-142259047D01*
X113843380Y-142068571D01*
X113795761Y-141973333D01*
X113748142Y-141925714D01*
X113652904Y-141878095D01*
X113414809Y-141878095D01*
X113319571Y-141925714D01*
X113271952Y-141973333D01*
X113224333Y-142068571D01*
X113224333Y-142259047D01*
X113271952Y-142354285D01*
X113319571Y-142401904D01*
X113414809Y-142449523D01*
X108906380Y-124939333D02*
X108906380Y-124272666D01*
X109906380Y-124701238D01*
X113970380Y-130638476D02*
X113970380Y-131209904D01*
X113970380Y-130924190D02*
X112970380Y-130924190D01*
X113113238Y-131019428D01*
X113208476Y-131114666D01*
X113256095Y-131209904D01*
X112970380Y-130019428D02*
X112970380Y-129924190D01*
X113018000Y-129828952D01*
X113065619Y-129781333D01*
X113160857Y-129733714D01*
X113351333Y-129686095D01*
X113589428Y-129686095D01*
X113779904Y-129733714D01*
X113875142Y-129781333D01*
X113922761Y-129828952D01*
X113970380Y-129924190D01*
X113970380Y-130019428D01*
X113922761Y-130114666D01*
X113875142Y-130162285D01*
X113779904Y-130209904D01*
X113589428Y-130257523D01*
X113351333Y-130257523D01*
X113160857Y-130209904D01*
X113065619Y-130162285D01*
X113018000Y-130114666D01*
X112970380Y-130019428D01*
X209920666Y-142698190D02*
X209920666Y-142222000D01*
X210206380Y-142793428D02*
X209206380Y-142460095D01*
X210206380Y-142126761D01*
X209539714Y-141793428D02*
X210206380Y-141793428D01*
X209634952Y-141793428D02*
X209587333Y-141745809D01*
X209539714Y-141650571D01*
X209539714Y-141507714D01*
X209587333Y-141412476D01*
X209682571Y-141364857D01*
X210206380Y-141364857D01*
X210206380Y-140460095D02*
X209682571Y-140460095D01*
X209587333Y-140507714D01*
X209539714Y-140602952D01*
X209539714Y-140793428D01*
X209587333Y-140888666D01*
X210158761Y-140460095D02*
X210206380Y-140555333D01*
X210206380Y-140793428D01*
X210158761Y-140888666D01*
X210063523Y-140936285D01*
X209968285Y-140936285D01*
X209873047Y-140888666D01*
X209825428Y-140793428D01*
X209825428Y-140555333D01*
X209777809Y-140460095D01*
X210206380Y-139841047D02*
X210158761Y-139936285D01*
X210063523Y-139983904D01*
X209206380Y-139983904D01*
X210206380Y-139317238D02*
X210158761Y-139412476D01*
X210111142Y-139460095D01*
X210015904Y-139507714D01*
X209730190Y-139507714D01*
X209634952Y-139460095D01*
X209587333Y-139412476D01*
X209539714Y-139317238D01*
X209539714Y-139174380D01*
X209587333Y-139079142D01*
X209634952Y-139031523D01*
X209730190Y-138983904D01*
X210015904Y-138983904D01*
X210111142Y-139031523D01*
X210158761Y-139079142D01*
X210206380Y-139174380D01*
X210206380Y-139317238D01*
X209539714Y-138126761D02*
X210349238Y-138126761D01*
X210444476Y-138174380D01*
X210492095Y-138222000D01*
X210539714Y-138317238D01*
X210539714Y-138460095D01*
X210492095Y-138555333D01*
X210158761Y-138126761D02*
X210206380Y-138222000D01*
X210206380Y-138412476D01*
X210158761Y-138507714D01*
X210111142Y-138555333D01*
X210015904Y-138602952D01*
X209730190Y-138602952D01*
X209634952Y-138555333D01*
X209587333Y-138507714D01*
X209539714Y-138412476D01*
X209539714Y-138222000D01*
X209587333Y-138126761D01*
X210206380Y-136888666D02*
X209206380Y-136888666D01*
X209539714Y-136412476D02*
X210206380Y-136412476D01*
X209634952Y-136412476D02*
X209587333Y-136364857D01*
X209539714Y-136269619D01*
X209539714Y-136126761D01*
X209587333Y-136031523D01*
X209682571Y-135983904D01*
X210206380Y-135983904D01*
X209539714Y-135507714D02*
X210539714Y-135507714D01*
X209587333Y-135507714D02*
X209539714Y-135412476D01*
X209539714Y-135222000D01*
X209587333Y-135126761D01*
X209634952Y-135079142D01*
X209730190Y-135031523D01*
X210015904Y-135031523D01*
X210111142Y-135079142D01*
X210158761Y-135126761D01*
X210206380Y-135222000D01*
X210206380Y-135412476D01*
X210158761Y-135507714D01*
X209539714Y-134174380D02*
X210206380Y-134174380D01*
X209539714Y-134602952D02*
X210063523Y-134602952D01*
X210158761Y-134555333D01*
X210206380Y-134460095D01*
X210206380Y-134317238D01*
X210158761Y-134222000D01*
X210111142Y-134174380D01*
X209539714Y-133841047D02*
X209539714Y-133460095D01*
X209206380Y-133698190D02*
X210063523Y-133698190D01*
X210158761Y-133650571D01*
X210206380Y-133555333D01*
X210206380Y-133460095D01*
X210158761Y-133174380D02*
X210206380Y-133079142D01*
X210206380Y-132888666D01*
X210158761Y-132793428D01*
X210063523Y-132745809D01*
X210015904Y-132745809D01*
X209920666Y-132793428D01*
X209873047Y-132888666D01*
X209873047Y-133031523D01*
X209825428Y-133126761D01*
X209730190Y-133174380D01*
X209682571Y-133174380D01*
X209587333Y-133126761D01*
X209539714Y-133031523D01*
X209539714Y-132888666D01*
X209587333Y-132793428D01*
X179796095Y-98023380D02*
X179319904Y-98023380D01*
X179272285Y-98499571D01*
X179319904Y-98451952D01*
X179415142Y-98404333D01*
X179653238Y-98404333D01*
X179748476Y-98451952D01*
X179796095Y-98499571D01*
X179843714Y-98594809D01*
X179843714Y-98832904D01*
X179796095Y-98928142D01*
X179748476Y-98975761D01*
X179653238Y-99023380D01*
X179415142Y-99023380D01*
X179319904Y-98975761D01*
X179272285Y-98928142D01*
X211689095Y-96674000D02*
X211593857Y-96626380D01*
X211451000Y-96626380D01*
X211308142Y-96674000D01*
X211212904Y-96769238D01*
X211165285Y-96864476D01*
X211117666Y-97054952D01*
X211117666Y-97197809D01*
X211165285Y-97388285D01*
X211212904Y-97483523D01*
X211308142Y-97578761D01*
X211451000Y-97626380D01*
X211546238Y-97626380D01*
X211689095Y-97578761D01*
X211736714Y-97531142D01*
X211736714Y-97197809D01*
X211546238Y-97197809D01*
X212165285Y-97626380D02*
X212165285Y-96626380D01*
X212736714Y-97626380D01*
X212736714Y-96626380D01*
X213212904Y-97626380D02*
X213212904Y-96626380D01*
X213451000Y-96626380D01*
X213593857Y-96674000D01*
X213689095Y-96769238D01*
X213736714Y-96864476D01*
X213784333Y-97054952D01*
X213784333Y-97197809D01*
X213736714Y-97388285D01*
X213689095Y-97483523D01*
X213593857Y-97578761D01*
X213451000Y-97626380D01*
X213212904Y-97626380D01*
D16*
X158019285Y-102331561D02*
X158057990Y-102370266D01*
X158096695Y-102486380D01*
X158096695Y-102563790D01*
X158057990Y-102679904D01*
X157980580Y-102757314D01*
X157903171Y-102796019D01*
X157748352Y-102834723D01*
X157632238Y-102834723D01*
X157477419Y-102796019D01*
X157400009Y-102757314D01*
X157322600Y-102679904D01*
X157283895Y-102563790D01*
X157283895Y-102486380D01*
X157322600Y-102370266D01*
X157361304Y-102331561D01*
X157864466Y-102021923D02*
X157864466Y-101634876D01*
X158096695Y-102099333D02*
X157283895Y-101828400D01*
X158096695Y-101557466D01*
X158096695Y-101286533D02*
X157283895Y-101286533D01*
X158096695Y-100822076D01*
X157283895Y-100822076D01*
X157361304Y-100473733D02*
X157322600Y-100435028D01*
X157283895Y-100357619D01*
X157283895Y-100164095D01*
X157322600Y-100086685D01*
X157361304Y-100047980D01*
X157438714Y-100009276D01*
X157516123Y-100009276D01*
X157632238Y-100047980D01*
X158096695Y-100512438D01*
X158096695Y-100009276D01*
D12*
X173525476Y-92133714D02*
X173525476Y-92800380D01*
X173287380Y-91752761D02*
X173049285Y-92467047D01*
X173668333Y-92467047D01*
X113398952Y-126733238D02*
X113351333Y-126828476D01*
X113303714Y-126876095D01*
X113208476Y-126923714D01*
X113160857Y-126923714D01*
X113065619Y-126876095D01*
X113018000Y-126828476D01*
X112970380Y-126733238D01*
X112970380Y-126542761D01*
X113018000Y-126447523D01*
X113065619Y-126399904D01*
X113160857Y-126352285D01*
X113208476Y-126352285D01*
X113303714Y-126399904D01*
X113351333Y-126447523D01*
X113398952Y-126542761D01*
X113398952Y-126733238D01*
X113446571Y-126828476D01*
X113494190Y-126876095D01*
X113589428Y-126923714D01*
X113779904Y-126923714D01*
X113875142Y-126876095D01*
X113922761Y-126828476D01*
X113970380Y-126733238D01*
X113970380Y-126542761D01*
X113922761Y-126447523D01*
X113875142Y-126399904D01*
X113779904Y-126352285D01*
X113589428Y-126352285D01*
X113494190Y-126399904D01*
X113446571Y-126447523D01*
X113398952Y-126542761D01*
X109906380Y-108064285D02*
X109906380Y-108635714D01*
X109906380Y-108350000D02*
X108906380Y-108350000D01*
X109049238Y-108445238D01*
X109144476Y-108540476D01*
X109192095Y-108635714D01*
X208077380Y-104508000D02*
X207077380Y-104508000D01*
X208077380Y-103936571D02*
X207505952Y-104365142D01*
X207077380Y-103936571D02*
X207648809Y-104508000D01*
X207410714Y-103508000D02*
X208077380Y-103508000D01*
X207505952Y-103508000D02*
X207458333Y-103460380D01*
X207410714Y-103365142D01*
X207410714Y-103222285D01*
X207458333Y-103127047D01*
X207553571Y-103079428D01*
X208077380Y-103079428D01*
X208077380Y-102460380D02*
X208029761Y-102555619D01*
X207982142Y-102603238D01*
X207886904Y-102650857D01*
X207601190Y-102650857D01*
X207505952Y-102603238D01*
X207458333Y-102555619D01*
X207410714Y-102460380D01*
X207410714Y-102317523D01*
X207458333Y-102222285D01*
X207505952Y-102174666D01*
X207601190Y-102127047D01*
X207886904Y-102127047D01*
X207982142Y-102174666D01*
X208029761Y-102222285D01*
X208077380Y-102317523D01*
X208077380Y-102460380D01*
X208029761Y-101269904D02*
X208077380Y-101365142D01*
X208077380Y-101555619D01*
X208029761Y-101650857D01*
X207982142Y-101698476D01*
X207886904Y-101746095D01*
X207601190Y-101746095D01*
X207505952Y-101698476D01*
X207458333Y-101650857D01*
X207410714Y-101555619D01*
X207410714Y-101365142D01*
X207458333Y-101269904D01*
X208077380Y-100841333D02*
X207077380Y-100841333D01*
X207696428Y-100746095D02*
X208077380Y-100460380D01*
X207410714Y-100460380D02*
X207791666Y-100841333D01*
X118806380Y-106525476D02*
X118806380Y-107096904D01*
X118806380Y-106811190D02*
X117806380Y-106811190D01*
X117949238Y-106906428D01*
X118044476Y-107001666D01*
X118092095Y-107096904D01*
X117901619Y-106144523D02*
X117854000Y-106096904D01*
X117806380Y-106001666D01*
X117806380Y-105763571D01*
X117854000Y-105668333D01*
X117901619Y-105620714D01*
X117996857Y-105573095D01*
X118092095Y-105573095D01*
X118234952Y-105620714D01*
X118806380Y-106192142D01*
X118806380Y-105573095D01*
X170985571Y-103933380D02*
X170414142Y-103933380D01*
X170699857Y-103933380D02*
X170699857Y-102933380D01*
X170604619Y-103076238D01*
X170509380Y-103171476D01*
X170414142Y-103219095D01*
X171366523Y-103028619D02*
X171414142Y-102981000D01*
X171509380Y-102933380D01*
X171747476Y-102933380D01*
X171842714Y-102981000D01*
X171890333Y-103028619D01*
X171937952Y-103123857D01*
X171937952Y-103219095D01*
X171890333Y-103361952D01*
X171318904Y-103933380D01*
X171937952Y-103933380D01*
X172271285Y-103266714D02*
X172509380Y-103933380D01*
X172747476Y-103266714D01*
X170533190Y-105543380D02*
X170533190Y-104543380D01*
X171533190Y-104591000D02*
X171437952Y-104543380D01*
X171295095Y-104543380D01*
X171152238Y-104591000D01*
X171057000Y-104686238D01*
X171009380Y-104781476D01*
X170961761Y-104971952D01*
X170961761Y-105114809D01*
X171009380Y-105305285D01*
X171057000Y-105400523D01*
X171152238Y-105495761D01*
X171295095Y-105543380D01*
X171390333Y-105543380D01*
X171533190Y-105495761D01*
X171580809Y-105448142D01*
X171580809Y-105114809D01*
X171390333Y-105114809D01*
X172009380Y-105543380D02*
X172009380Y-104543380D01*
X172580809Y-105543380D01*
X172580809Y-104543380D01*
D15*
X210794476Y-87176761D02*
X210794476Y-85176761D01*
X211746857Y-87176761D02*
X211746857Y-85176761D01*
X212889714Y-87176761D01*
X212889714Y-85176761D01*
X213842095Y-87176761D02*
X213842095Y-85176761D01*
X214604000Y-85176761D01*
X214794476Y-85272000D01*
X214889714Y-85367238D01*
X214984952Y-85557714D01*
X214984952Y-85843428D01*
X214889714Y-86033904D01*
X214794476Y-86129142D01*
X214604000Y-86224380D01*
X213842095Y-86224380D01*
X215842095Y-85176761D02*
X215842095Y-86795809D01*
X215937333Y-86986285D01*
X216032571Y-87081523D01*
X216223047Y-87176761D01*
X216604000Y-87176761D01*
X216794476Y-87081523D01*
X216889714Y-86986285D01*
X216984952Y-86795809D01*
X216984952Y-85176761D01*
X217651619Y-85176761D02*
X218794476Y-85176761D01*
X218223047Y-87176761D02*
X218223047Y-85176761D01*
X219365904Y-87081523D02*
X219651619Y-87176761D01*
X220127809Y-87176761D01*
X220318285Y-87081523D01*
X220413523Y-86986285D01*
X220508761Y-86795809D01*
X220508761Y-86605333D01*
X220413523Y-86414857D01*
X220318285Y-86319619D01*
X220127809Y-86224380D01*
X219746857Y-86129142D01*
X219556380Y-86033904D01*
X219461142Y-85938666D01*
X219365904Y-85748190D01*
X219365904Y-85557714D01*
X219461142Y-85367238D01*
X219556380Y-85272000D01*
X219746857Y-85176761D01*
X220223047Y-85176761D01*
X220508761Y-85272000D01*
D12*
X212665380Y-134940523D02*
X213665380Y-134607190D01*
X212665380Y-134273857D01*
X213093952Y-133797666D02*
X213046333Y-133892904D01*
X212998714Y-133940523D01*
X212903476Y-133988142D01*
X212855857Y-133988142D01*
X212760619Y-133940523D01*
X212713000Y-133892904D01*
X212665380Y-133797666D01*
X212665380Y-133607190D01*
X212713000Y-133511952D01*
X212760619Y-133464333D01*
X212855857Y-133416714D01*
X212903476Y-133416714D01*
X212998714Y-133464333D01*
X213046333Y-133511952D01*
X213093952Y-133607190D01*
X213093952Y-133797666D01*
X213141571Y-133892904D01*
X213189190Y-133940523D01*
X213284428Y-133988142D01*
X213474904Y-133988142D01*
X213570142Y-133940523D01*
X213617761Y-133892904D01*
X213665380Y-133797666D01*
X213665380Y-133607190D01*
X213617761Y-133511952D01*
X213570142Y-133464333D01*
X213474904Y-133416714D01*
X213284428Y-133416714D01*
X213189190Y-133464333D01*
X213141571Y-133511952D01*
X213093952Y-133607190D01*
G04 #@! TO.C,M3*
X189055476Y-181935380D02*
X189055476Y-180935380D01*
X189388809Y-181649666D01*
X189722142Y-180935380D01*
X189722142Y-181935380D01*
X190103095Y-180935380D02*
X190722142Y-180935380D01*
X190388809Y-181316333D01*
X190531666Y-181316333D01*
X190626904Y-181363952D01*
X190674523Y-181411571D01*
X190722142Y-181506809D01*
X190722142Y-181744904D01*
X190674523Y-181840142D01*
X190626904Y-181887761D01*
X190531666Y-181935380D01*
X190245952Y-181935380D01*
X190150714Y-181887761D01*
X190103095Y-181840142D01*
G04 #@! TO.C,J13*
X146510476Y-176236380D02*
X146510476Y-176950666D01*
X146462857Y-177093523D01*
X146367619Y-177188761D01*
X146224761Y-177236380D01*
X146129523Y-177236380D01*
X147510476Y-177236380D02*
X146939047Y-177236380D01*
X147224761Y-177236380D02*
X147224761Y-176236380D01*
X147129523Y-176379238D01*
X147034285Y-176474476D01*
X146939047Y-176522095D01*
X147843809Y-176236380D02*
X148462857Y-176236380D01*
X148129523Y-176617333D01*
X148272380Y-176617333D01*
X148367619Y-176664952D01*
X148415238Y-176712571D01*
X148462857Y-176807809D01*
X148462857Y-177045904D01*
X148415238Y-177141142D01*
X148367619Y-177188761D01*
X148272380Y-177236380D01*
X147986666Y-177236380D01*
X147891428Y-177188761D01*
X147843809Y-177141142D01*
G04 #@! TO.C,M2*
X169626595Y-183852380D02*
X169626595Y-182852380D01*
X169959928Y-183566666D01*
X170293261Y-182852380D01*
X170293261Y-183852380D01*
X170721833Y-182947619D02*
X170769452Y-182900000D01*
X170864690Y-182852380D01*
X171102785Y-182852380D01*
X171198023Y-182900000D01*
X171245642Y-182947619D01*
X171293261Y-183042857D01*
X171293261Y-183138095D01*
X171245642Y-183280952D01*
X170674214Y-183852380D01*
X171293261Y-183852380D01*
G04 #@! TO.C,M1*
X130889476Y-181935380D02*
X130889476Y-180935380D01*
X131222809Y-181649666D01*
X131556142Y-180935380D01*
X131556142Y-181935380D01*
X132556142Y-181935380D02*
X131984714Y-181935380D01*
X132270428Y-181935380D02*
X132270428Y-180935380D01*
X132175190Y-181078238D01*
X132079952Y-181173476D01*
X131984714Y-181221095D01*
G04 #@! TO.C,J7*
X111473666Y-178982380D02*
X111473666Y-179696666D01*
X111426047Y-179839523D01*
X111330809Y-179934761D01*
X111187952Y-179982380D01*
X111092714Y-179982380D01*
X111854619Y-178982380D02*
X112521285Y-178982380D01*
X112092714Y-179982380D01*
G04 #@! TO.C,M4*
X159847595Y-183852380D02*
X159847595Y-182852380D01*
X160180928Y-183566666D01*
X160514261Y-182852380D01*
X160514261Y-183852380D01*
X161419023Y-183185714D02*
X161419023Y-183852380D01*
X161180928Y-182804761D02*
X160942833Y-183519047D01*
X161561880Y-183519047D01*
G04 #@! TO.C,J3*
X184705666Y-198080380D02*
X184705666Y-198794666D01*
X184658047Y-198937523D01*
X184562809Y-199032761D01*
X184419952Y-199080380D01*
X184324714Y-199080380D01*
X185086619Y-198080380D02*
X185705666Y-198080380D01*
X185372333Y-198461333D01*
X185515190Y-198461333D01*
X185610428Y-198508952D01*
X185658047Y-198556571D01*
X185705666Y-198651809D01*
X185705666Y-198889904D01*
X185658047Y-198985142D01*
X185610428Y-199032761D01*
X185515190Y-199080380D01*
X185229476Y-199080380D01*
X185134238Y-199032761D01*
X185086619Y-198985142D01*
G04 #@! TO.C,J10*
X218618476Y-178982380D02*
X218618476Y-179696666D01*
X218570857Y-179839523D01*
X218475619Y-179934761D01*
X218332761Y-179982380D01*
X218237523Y-179982380D01*
X219618476Y-179982380D02*
X219047047Y-179982380D01*
X219332761Y-179982380D02*
X219332761Y-178982380D01*
X219237523Y-179125238D01*
X219142285Y-179220476D01*
X219047047Y-179268095D01*
X220237523Y-178982380D02*
X220332761Y-178982380D01*
X220428000Y-179030000D01*
X220475619Y-179077619D01*
X220523238Y-179172857D01*
X220570857Y-179363333D01*
X220570857Y-179601428D01*
X220523238Y-179791904D01*
X220475619Y-179887142D01*
X220428000Y-179934761D01*
X220332761Y-179982380D01*
X220237523Y-179982380D01*
X220142285Y-179934761D01*
X220094666Y-179887142D01*
X220047047Y-179791904D01*
X219999428Y-179601428D01*
X219999428Y-179363333D01*
X220047047Y-179172857D01*
X220094666Y-179077619D01*
X220142285Y-179030000D01*
X220237523Y-178982380D01*
D17*
G04 #@! TO.C,U1*
X107243800Y-75354200D02*
X159567800Y-75354200D01*
X224891800Y-62354200D02*
X224891800Y-75354200D01*
X107243800Y-62354200D02*
X107243800Y-75354200D01*
X172567800Y-75354200D02*
X170970800Y-83335200D01*
X172567800Y-75354200D02*
X224891800Y-75354200D01*
X159567800Y-75354200D02*
X161164800Y-83335200D01*
X107243800Y-62354200D02*
X224891800Y-62354200D01*
X161164800Y-83335200D02*
G75*
G03*
X170970800Y-83335200I4903000J979716D01*
G01*
D16*
G04 #@! TO.C,J2*
X199017000Y-163281360D02*
X170823000Y-163281360D01*
X170950000Y-172552360D02*
X171204000Y-172552360D01*
X199017000Y-172679360D02*
X199017000Y-163281360D01*
X171204000Y-163408360D02*
X171204000Y-172552360D01*
X170823000Y-163281360D02*
X170823000Y-172679360D01*
X170950000Y-163408360D02*
X171204000Y-163408360D01*
X170823000Y-172679360D02*
X199017000Y-172679360D01*
G04 #@! TO.C,J4*
X132743410Y-163408360D02*
X132997410Y-163408360D01*
X160810410Y-163281360D02*
X132616410Y-163281360D01*
X160810410Y-172679360D02*
X160810410Y-163281360D01*
X132743410Y-172552360D02*
X132997410Y-172552360D01*
X132616410Y-163281360D02*
X132616410Y-172679360D01*
X132616410Y-172679360D02*
X160810410Y-172679360D01*
X132997410Y-163408360D02*
X132997410Y-172552360D01*
G04 #@! TO.C,J1*
X223520000Y-76273660D02*
X216052400Y-76273660D01*
X216052400Y-78864460D02*
X223520000Y-78864460D01*
X216052400Y-76273660D02*
X216052400Y-78864460D01*
X223520000Y-78864460D02*
X223520000Y-76273660D01*
X222707200Y-75664060D02*
G75*
G03*
X222707200Y-75664060I-381000J0D01*
G01*
D18*
G04 #@! TO.C,BRD1*
X169752000Y-99460000D02*
X169754000Y-105922000D01*
X213948000Y-97936000D02*
X215218000Y-101238000D01*
X167720000Y-98317000D02*
X168736000Y-99460000D01*
X210011000Y-95904000D02*
X214710000Y-95904000D01*
X223504000Y-147322000D02*
X223576000Y-94731000D01*
D19*
X99654000Y-160922000D02*
X131754000Y-160922000D01*
D18*
X223504000Y-147322000D02*
X208754000Y-147422000D01*
D19*
X231754000Y-84022000D02*
X199654000Y-84022000D01*
D18*
X148924000Y-105048000D02*
X153750000Y-105048000D01*
X147754000Y-91722000D02*
X147654000Y-99460000D01*
X153750000Y-95142000D02*
X161624000Y-95142000D01*
X161624000Y-103270000D02*
X161624000Y-99460000D01*
X209884000Y-122574000D02*
X209004000Y-122572000D01*
X117538500Y-99022000D02*
X122704000Y-99022000D01*
X113745000Y-140227000D02*
X117555000Y-141116000D01*
X148924000Y-104540000D02*
X148924000Y-105048000D01*
X185704000Y-91372000D02*
X185704000Y-95422000D01*
X214710000Y-97428000D02*
X214732000Y-94772000D01*
X210011000Y-98444000D02*
X210011000Y-95904000D01*
X155655000Y-95142000D02*
X155655000Y-99460000D01*
X113618000Y-123844000D02*
X117555000Y-125114000D01*
X210011000Y-98444000D02*
X213059000Y-98444000D01*
D20*
X233204000Y-160472000D02*
X233204000Y-81972000D01*
D18*
X167720000Y-96539000D02*
X169752000Y-94634000D01*
X113745000Y-145307000D02*
X113704000Y-147422000D01*
X110316000Y-105810000D02*
X109104000Y-104372000D01*
X208754000Y-147422000D02*
X208704000Y-126672000D01*
X221314000Y-118256000D02*
X223504000Y-118256000D01*
X218520000Y-114573000D02*
X221314000Y-114573000D01*
X218520000Y-102508000D02*
X216996000Y-100476000D01*
X160100000Y-99460000D02*
X147654000Y-99460000D01*
X209884000Y-106699000D02*
X206709000Y-104921000D01*
X185704000Y-95422000D02*
X185704000Y-103522000D01*
X117504000Y-95322000D02*
X116204000Y-95322000D01*
X216996000Y-112541000D02*
X218520000Y-114573000D01*
X214202000Y-124606000D02*
X211662000Y-122574000D01*
X214732000Y-94772000D02*
X223576000Y-94731000D01*
X153750000Y-95142000D02*
X153750000Y-88472000D01*
X218520000Y-106445000D02*
X221314000Y-106445000D01*
X212932000Y-126638000D02*
X214202000Y-124606000D01*
X214075000Y-112541000D02*
X216996000Y-112541000D01*
X171657000Y-91332000D02*
X185704000Y-91372000D01*
X160100000Y-99460000D02*
X166704000Y-99460000D01*
X153750000Y-103270000D02*
X153750000Y-99460000D01*
X117555000Y-102635000D02*
X122704000Y-102622000D01*
X159719000Y-95142000D02*
X159719000Y-97682000D01*
X109054000Y-95322000D02*
X116204000Y-95322000D01*
X148924000Y-99460000D02*
X148924000Y-104540000D01*
X167720000Y-98317000D02*
X167720000Y-96539000D01*
X170704000Y-88422000D02*
X171657000Y-91332000D01*
X113618000Y-116986000D02*
X113618000Y-123844000D01*
X218054000Y-116522000D02*
X217758000Y-147372000D01*
X209884000Y-114573000D02*
X212297000Y-114573000D01*
X212297000Y-114573000D02*
X214075000Y-112541000D01*
X209004000Y-122572000D02*
X208704000Y-126672000D01*
D20*
X231204000Y-79972000D02*
X100204000Y-79972000D01*
D18*
X117555000Y-143783000D02*
X113745000Y-145307000D01*
X113491000Y-107080000D02*
X113491000Y-108223000D01*
X105754000Y-109472000D02*
X109104000Y-104372000D01*
D20*
X98204000Y-81972000D02*
X98204000Y-160472000D01*
D18*
X113745000Y-137052000D02*
X113745000Y-140227000D01*
X206709000Y-104921000D02*
X206709000Y-100095000D01*
X117555000Y-115970000D02*
X113618000Y-116986000D01*
D19*
X231754000Y-84022000D02*
X231754000Y-160922000D01*
D18*
X117555000Y-109112000D02*
X117555000Y-115970000D01*
D19*
X199654000Y-84022000D02*
X199654000Y-160922000D01*
D20*
X100204000Y-162472000D02*
X231204000Y-162472000D01*
D18*
X173689000Y-105922000D02*
X169754000Y-105922000D01*
X208704000Y-126672000D02*
X212932000Y-126638000D01*
D19*
X135304000Y-81422000D02*
X196104000Y-81422000D01*
D18*
X153750000Y-88472000D02*
X170704000Y-88422000D01*
X206709000Y-100095000D02*
X210011000Y-98444000D01*
X169752000Y-94634000D02*
X169752000Y-92094000D01*
X221314000Y-114573000D02*
X221314000Y-118256000D01*
X212805000Y-102508000D02*
X214202000Y-100603000D01*
X168736000Y-99460000D02*
X185704000Y-99472000D01*
X209884000Y-106699000D02*
X209884000Y-114573000D01*
X221314000Y-106445000D02*
X221314000Y-99714000D01*
X159719000Y-97682000D02*
X160100000Y-99460000D01*
D19*
X131754000Y-160922000D02*
X131754000Y-84022000D01*
D18*
X216996000Y-104667000D02*
X218520000Y-106445000D01*
X213059000Y-98444000D02*
X214202000Y-100603000D01*
X169752000Y-103270000D02*
X153750000Y-103270000D01*
X122704000Y-99022000D02*
X122704000Y-147422000D01*
D19*
X135304000Y-113522000D02*
X135304000Y-81422000D01*
X196104000Y-81422000D02*
X196104000Y-113522000D01*
D18*
X210138000Y-106699000D02*
X209884000Y-106699000D01*
X173689000Y-99460000D02*
X173689000Y-105922000D01*
D19*
X99654000Y-84022000D02*
X131754000Y-84022000D01*
D18*
X161624000Y-95142000D02*
X161624000Y-88472000D01*
X113491000Y-107080000D02*
X110316000Y-105810000D01*
X210138000Y-106699000D02*
X212678000Y-106699000D01*
X153750000Y-91713000D02*
X147754000Y-91722000D01*
X113704000Y-147422000D02*
X105704000Y-147472000D01*
X109104000Y-104372000D02*
X109054000Y-95322000D01*
X166704000Y-99460000D02*
X167720000Y-98317000D01*
D19*
X196104000Y-113522000D02*
X135304000Y-113522000D01*
D18*
X214075000Y-104667000D02*
X216996000Y-104667000D01*
X117555000Y-125114000D02*
X117555000Y-136163000D01*
X212678000Y-106699000D02*
X214075000Y-104667000D01*
X153750000Y-105048000D02*
X153750000Y-103270000D01*
X117555000Y-109112000D02*
X117504000Y-95322000D01*
X211662000Y-122574000D02*
X209884000Y-122574000D01*
X122704000Y-147422000D02*
X113704000Y-147422000D01*
X173689000Y-103524000D02*
X185704000Y-103522000D01*
D19*
X99654000Y-160922000D02*
X99654000Y-84022000D01*
D18*
X218520000Y-114573000D02*
X218054000Y-116522000D01*
X117555000Y-141116000D02*
X117555000Y-143783000D01*
X209004000Y-122572000D02*
X209884000Y-114573000D01*
X216996000Y-104667000D02*
X218520000Y-102508000D01*
X221314000Y-99714000D02*
X223504000Y-99722000D01*
X216996000Y-100476000D02*
X214710000Y-97428000D01*
X169752000Y-92094000D02*
X171657000Y-91332000D01*
X105704000Y-147472000D02*
X105754000Y-109472000D01*
X214075000Y-104667000D02*
X212805000Y-102508000D01*
X117555000Y-115970000D02*
X117555000Y-125114000D01*
D19*
X231754000Y-160922000D02*
X199654000Y-160922000D01*
D18*
X117555000Y-136163000D02*
X113745000Y-137052000D01*
X113491000Y-108223000D02*
X117555000Y-109112000D01*
D20*
X100204000Y-79972000D02*
G75*
G03*
X98203999Y-81971999I-2J-1999999D01*
G01*
X98203999Y-160472000D02*
G75*
G03*
X100203999Y-162472001I2000001J0D01*
G01*
X231204000Y-162472001D02*
G75*
G03*
X233204001Y-160472001I0J2000001D01*
G01*
X233204001Y-81972000D02*
G75*
G03*
X231204001Y-79971999I-2000001J0D01*
G01*
D13*
G04 #@! TO.C,M3*
X215767000Y-182638000D02*
X176617000Y-182638000D01*
X176617000Y-182638000D02*
X176617000Y-197538000D01*
X176617000Y-197538000D02*
X215767000Y-197538000D01*
X215767000Y-197538000D02*
X215767000Y-182638000D01*
D18*
G04 #@! TO.C,J13*
X140148000Y-180654000D02*
X140148000Y-179324000D01*
X142748000Y-180654000D02*
X155508000Y-180654000D01*
X142748000Y-180654000D02*
X142748000Y-177994000D01*
X155508000Y-180654000D02*
X155508000Y-177994000D01*
X141478000Y-180654000D02*
X140148000Y-180654000D01*
X142748000Y-177994000D02*
X155508000Y-177994000D01*
D13*
G04 #@! TO.C,M2*
X168392661Y-184660499D02*
X168117657Y-184935503D01*
X167242663Y-184935503D02*
X168117657Y-184935503D01*
X167242663Y-184935503D02*
X167242660Y-184935505D01*
X167242660Y-184935505D02*
X167242660Y-195835499D01*
X167242660Y-195835499D02*
X174128989Y-195835499D01*
X168392661Y-184660499D02*
X174090142Y-184660499D01*
X174090142Y-184660499D02*
X174128989Y-195835499D01*
G04 #@! TO.C,M1*
X116677000Y-197788000D02*
X155827000Y-197788000D01*
X155827000Y-197788000D02*
X155827000Y-182888000D01*
X155827000Y-182888000D02*
X116677000Y-182888000D01*
X116677000Y-182888000D02*
X116677000Y-197788000D01*
D18*
G04 #@! TO.C,J7*
X98742000Y-201357000D02*
X104242000Y-201357000D01*
X104242000Y-201357000D02*
X104242000Y-200857000D01*
X109852000Y-177467000D02*
X105352000Y-177467000D01*
X104242000Y-195857000D02*
X98742000Y-195857000D01*
X98132000Y-176047000D02*
X109852000Y-176047000D01*
X98742000Y-188857000D02*
X104242000Y-188857000D01*
X104242000Y-183357000D02*
X98742000Y-183357000D01*
X109852000Y-203667000D02*
X109852000Y-202247000D01*
X98742000Y-186357000D02*
X104242000Y-186357000D01*
X109852000Y-202247000D02*
X105352000Y-202247000D01*
X104242000Y-196357000D02*
X104242000Y-195857000D01*
X108942000Y-178607000D02*
X109542000Y-178307000D01*
X98742000Y-183857000D02*
X104242000Y-183857000D01*
X104242000Y-190857000D02*
X98742000Y-190857000D01*
X98742000Y-196357000D02*
X104242000Y-196357000D01*
X98742000Y-195857000D02*
X98742000Y-196357000D01*
X109542000Y-178907000D02*
X108942000Y-178607000D01*
X104242000Y-198357000D02*
X98742000Y-198357000D01*
X98132000Y-189857000D02*
X98132000Y-176047000D01*
X104242000Y-186357000D02*
X104242000Y-185857000D01*
X104242000Y-198857000D02*
X104242000Y-198357000D01*
X98742000Y-193357000D02*
X98742000Y-193857000D01*
X98742000Y-183357000D02*
X98742000Y-183857000D01*
X104242000Y-191357000D02*
X104242000Y-190857000D01*
X104242000Y-200857000D02*
X98742000Y-200857000D01*
X104242000Y-181357000D02*
X104242000Y-180857000D01*
X98742000Y-191357000D02*
X104242000Y-191357000D01*
X98742000Y-178357000D02*
X98742000Y-178857000D01*
X104242000Y-188857000D02*
X104242000Y-188357000D01*
X98132000Y-189857000D02*
X98132000Y-203667000D01*
X109542000Y-178307000D02*
X109542000Y-178907000D01*
X98742000Y-181357000D02*
X104242000Y-181357000D01*
X104242000Y-185857000D02*
X98742000Y-185857000D01*
X109852000Y-176047000D02*
X109852000Y-177467000D01*
X104242000Y-183857000D02*
X104242000Y-183357000D01*
X98742000Y-200857000D02*
X98742000Y-201357000D01*
X104242000Y-188357000D02*
X98742000Y-188357000D01*
X98742000Y-198357000D02*
X98742000Y-198857000D01*
X104242000Y-193857000D02*
X104242000Y-193357000D01*
X98742000Y-193857000D02*
X104242000Y-193857000D01*
X98132000Y-203667000D02*
X109852000Y-203667000D01*
X98742000Y-190857000D02*
X98742000Y-191357000D01*
X98742000Y-188357000D02*
X98742000Y-188857000D01*
X104242000Y-180857000D02*
X98742000Y-180857000D01*
X105352000Y-177467000D02*
X105352000Y-189857000D01*
X98742000Y-185857000D02*
X98742000Y-186357000D01*
X104242000Y-178357000D02*
X98742000Y-178357000D01*
X98742000Y-180857000D02*
X98742000Y-181357000D01*
X105352000Y-202247000D02*
X105352000Y-189857000D01*
X104242000Y-178857000D02*
X104242000Y-178357000D01*
X98742000Y-198857000D02*
X104242000Y-198857000D01*
X104242000Y-193357000D02*
X98742000Y-193357000D01*
X98742000Y-178857000D02*
X104242000Y-178857000D01*
D13*
G04 #@! TO.C,M4*
X164735340Y-184660502D02*
X157849011Y-184660502D01*
X164735337Y-195560498D02*
X164735340Y-195560496D01*
X157887858Y-195835502D02*
X157849011Y-184660502D01*
X163585339Y-195835502D02*
X157887858Y-195835502D01*
X163585339Y-195835502D02*
X163860343Y-195560498D01*
X164735340Y-195560496D02*
X164735340Y-184660502D01*
X164735337Y-195560498D02*
X163860343Y-195560498D01*
D18*
G04 #@! TO.C,J3*
X177359000Y-199457000D02*
X177359000Y-202117000D01*
X190119000Y-202117000D02*
X177359000Y-202117000D01*
X190119000Y-199457000D02*
X177359000Y-199457000D01*
X191389000Y-199457000D02*
X192719000Y-199457000D01*
X192719000Y-199457000D02*
X192719000Y-200787000D01*
X190119000Y-199457000D02*
X190119000Y-202117000D01*
G04 #@! TO.C,J10*
X226118000Y-202247000D02*
X226118000Y-189857000D01*
X232728000Y-186357000D02*
X232728000Y-185857000D01*
X232728000Y-200857000D02*
X227228000Y-200857000D01*
X227228000Y-196357000D02*
X232728000Y-196357000D01*
X232728000Y-180857000D02*
X227228000Y-180857000D01*
X227228000Y-188857000D02*
X232728000Y-188857000D01*
X232728000Y-183357000D02*
X227228000Y-183357000D01*
X233338000Y-176047000D02*
X221618000Y-176047000D01*
X227228000Y-178857000D02*
X232728000Y-178857000D01*
X233338000Y-189857000D02*
X233338000Y-203667000D01*
X232728000Y-178857000D02*
X232728000Y-178357000D01*
X221928000Y-201407000D02*
X221928000Y-200807000D01*
X227228000Y-183857000D02*
X232728000Y-183857000D01*
X232728000Y-181357000D02*
X232728000Y-180857000D01*
X232728000Y-190857000D02*
X227228000Y-190857000D01*
X227228000Y-198857000D02*
X232728000Y-198857000D01*
X226118000Y-177467000D02*
X226118000Y-189857000D01*
X227228000Y-188357000D02*
X227228000Y-188857000D01*
X232728000Y-196357000D02*
X232728000Y-195857000D01*
X232728000Y-195857000D02*
X227228000Y-195857000D01*
X221618000Y-176047000D02*
X221618000Y-177467000D01*
X232728000Y-193857000D02*
X232728000Y-193357000D01*
X227228000Y-186357000D02*
X232728000Y-186357000D01*
X232728000Y-178357000D02*
X227228000Y-178357000D01*
X232728000Y-191357000D02*
X232728000Y-190857000D01*
X232728000Y-185857000D02*
X227228000Y-185857000D01*
X233338000Y-189857000D02*
X233338000Y-176047000D01*
X227228000Y-185857000D02*
X227228000Y-186357000D01*
X227228000Y-193857000D02*
X232728000Y-193857000D01*
X227228000Y-178357000D02*
X227228000Y-178857000D01*
X232728000Y-198357000D02*
X227228000Y-198357000D01*
X222528000Y-201107000D02*
X221928000Y-201407000D01*
X227228000Y-195857000D02*
X227228000Y-196357000D01*
X232728000Y-188857000D02*
X232728000Y-188357000D01*
X221618000Y-203667000D02*
X221618000Y-202247000D01*
X227228000Y-201357000D02*
X232728000Y-201357000D01*
X227228000Y-190857000D02*
X227228000Y-191357000D01*
X227228000Y-198357000D02*
X227228000Y-198857000D01*
X221618000Y-177467000D02*
X226118000Y-177467000D01*
X232728000Y-183857000D02*
X232728000Y-183357000D01*
X227228000Y-183357000D02*
X227228000Y-183857000D01*
X232728000Y-193357000D02*
X227228000Y-193357000D01*
X227228000Y-193357000D02*
X227228000Y-193857000D01*
X232728000Y-188357000D02*
X227228000Y-188357000D01*
X232728000Y-198857000D02*
X232728000Y-198357000D01*
X227228000Y-181357000D02*
X232728000Y-181357000D01*
X227228000Y-191357000D02*
X232728000Y-191357000D01*
X221618000Y-202247000D02*
X226118000Y-202247000D01*
X233338000Y-203667000D02*
X221618000Y-203667000D01*
X232728000Y-201357000D02*
X232728000Y-200857000D01*
X227228000Y-180857000D02*
X227228000Y-181357000D01*
X227228000Y-200857000D02*
X227228000Y-201357000D01*
X221928000Y-200807000D02*
X222528000Y-201107000D01*
G04 #@! TD*
M02*
