G04 #@! TF.GenerationSoftware,KiCad,Pcbnew,(6.0.5)*
G04 #@! TF.CreationDate,2022-05-25T17:37:42+03:00*
G04 #@! TF.ProjectId,5.0mustangProteusPnP,352e306d-7573-4746-916e-6750726f7465,R0.1*
G04 #@! TF.SameCoordinates,Original*
G04 #@! TF.FileFunction,Legend,Bot*
G04 #@! TF.FilePolarity,Positive*
%FSLAX46Y46*%
G04 Gerber Fmt 4.6, Leading zero omitted, Abs format (unit mm)*
G04 Created by KiCad (PCBNEW (6.0.5)) date 2022-05-25 17:37:42*
%MOMM*%
%LPD*%
G01*
G04 APERTURE LIST*
G04 #@! TA.AperFunction,Profile*
%ADD10C,0.200000*%
G04 #@! TD*
%ADD11C,0.130000*%
%ADD12C,0.150000*%
%ADD13C,0.300000*%
%ADD14C,0.152400*%
%ADD15C,0.139700*%
%ADD16C,0.200000*%
%ADD17C,0.120000*%
%ADD18C,0.500000*%
G04 APERTURE END LIST*
D10*
X95885000Y-211201000D02*
X95885000Y-74627000D01*
X224406100Y-62865000D02*
X107638100Y-62865000D01*
X107638100Y-62865000D02*
X95885000Y-74627000D01*
X235585000Y-211201000D02*
X235585000Y-74627000D01*
X234315000Y-212471000D02*
G75*
G03*
X235585000Y-211201000I0J1270000D01*
G01*
X104235250Y-73977500D02*
G75*
G03*
X104235250Y-73977500I-2381250J0D01*
G01*
X224406100Y-62865000D02*
X235585000Y-74627000D01*
X95885000Y-211201000D02*
G75*
G03*
X97155000Y-212471000I1270000J0D01*
G01*
X234315000Y-212471000D02*
X97155000Y-212471000D01*
X231877750Y-73977500D02*
G75*
G03*
X231877750Y-73977500I-2381250J0D01*
G01*
D11*
X118744395Y-65605780D02*
X118696014Y-65557400D01*
X118599252Y-65509019D01*
X118357347Y-65509019D01*
X118260585Y-65557400D01*
X118212204Y-65605780D01*
X118163823Y-65702542D01*
X118163823Y-65799304D01*
X118212204Y-65944447D01*
X118792776Y-66525019D01*
X118163823Y-66525019D01*
X117534871Y-65509019D02*
X117438109Y-65509019D01*
X117341347Y-65557400D01*
X117292966Y-65605780D01*
X117244585Y-65702542D01*
X117196204Y-65896066D01*
X117196204Y-66137971D01*
X117244585Y-66331495D01*
X117292966Y-66428257D01*
X117341347Y-66476638D01*
X117438109Y-66525019D01*
X117534871Y-66525019D01*
X117631633Y-66476638D01*
X117680014Y-66428257D01*
X117728395Y-66331495D01*
X117776776Y-66137971D01*
X117776776Y-65896066D01*
X117728395Y-65702542D01*
X117680014Y-65605780D01*
X117631633Y-65557400D01*
X117534871Y-65509019D01*
X115720585Y-71859019D02*
X115914109Y-71859019D01*
X116010871Y-71907400D01*
X116059252Y-71955780D01*
X116156014Y-72100923D01*
X116204395Y-72294447D01*
X116204395Y-72681495D01*
X116156014Y-72778257D01*
X116107633Y-72826638D01*
X116010871Y-72875019D01*
X115817347Y-72875019D01*
X115720585Y-72826638D01*
X115672204Y-72778257D01*
X115623823Y-72681495D01*
X115623823Y-72439590D01*
X115672204Y-72342828D01*
X115720585Y-72294447D01*
X115817347Y-72246066D01*
X116010871Y-72246066D01*
X116107633Y-72294447D01*
X116156014Y-72342828D01*
X116204395Y-72439590D01*
X114994871Y-71859019D02*
X114898109Y-71859019D01*
X114801347Y-71907400D01*
X114752966Y-71955780D01*
X114704585Y-72052542D01*
X114656204Y-72246066D01*
X114656204Y-72487971D01*
X114704585Y-72681495D01*
X114752966Y-72778257D01*
X114801347Y-72826638D01*
X114898109Y-72875019D01*
X114994871Y-72875019D01*
X115091633Y-72826638D01*
X115140014Y-72778257D01*
X115188395Y-72681495D01*
X115236776Y-72487971D01*
X115236776Y-72246066D01*
X115188395Y-72052542D01*
X115140014Y-71955780D01*
X115091633Y-71907400D01*
X114994871Y-71859019D01*
X116990585Y-69022685D02*
X116990585Y-69700019D01*
X117232490Y-68635638D02*
X117474395Y-69361352D01*
X116845442Y-69361352D01*
X116264871Y-68684019D02*
X116168109Y-68684019D01*
X116071347Y-68732400D01*
X116022966Y-68780780D01*
X115974585Y-68877542D01*
X115926204Y-69071066D01*
X115926204Y-69312971D01*
X115974585Y-69506495D01*
X116022966Y-69603257D01*
X116071347Y-69651638D01*
X116168109Y-69700019D01*
X116264871Y-69700019D01*
X116361633Y-69651638D01*
X116410014Y-69603257D01*
X116458395Y-69506495D01*
X116506776Y-69312971D01*
X116506776Y-69071066D01*
X116458395Y-68877542D01*
X116410014Y-68780780D01*
X116361633Y-68732400D01*
X116264871Y-68684019D01*
X157582204Y-71859019D02*
X158066014Y-71859019D01*
X158114395Y-72342828D01*
X158066014Y-72294447D01*
X157969252Y-72246066D01*
X157727347Y-72246066D01*
X157630585Y-72294447D01*
X157582204Y-72342828D01*
X157533823Y-72439590D01*
X157533823Y-72681495D01*
X157582204Y-72778257D01*
X157630585Y-72826638D01*
X157727347Y-72875019D01*
X157969252Y-72875019D01*
X158066014Y-72826638D01*
X158114395Y-72778257D01*
X156566204Y-72875019D02*
X157146776Y-72875019D01*
X156856490Y-72875019D02*
X156856490Y-71859019D01*
X156953252Y-72004161D01*
X157050014Y-72100923D01*
X157146776Y-72149304D01*
X214780585Y-72197685D02*
X214780585Y-72875019D01*
X215022490Y-71810638D02*
X215264395Y-72536352D01*
X214635442Y-72536352D01*
X213716204Y-72875019D02*
X214296776Y-72875019D01*
X214006490Y-72875019D02*
X214006490Y-71859019D01*
X214103252Y-72004161D01*
X214200014Y-72100923D01*
X214296776Y-72149304D01*
X159432776Y-68684019D02*
X158803823Y-68684019D01*
X159142490Y-69071066D01*
X158997347Y-69071066D01*
X158900585Y-69119447D01*
X158852204Y-69167828D01*
X158803823Y-69264590D01*
X158803823Y-69506495D01*
X158852204Y-69603257D01*
X158900585Y-69651638D01*
X158997347Y-69700019D01*
X159287633Y-69700019D01*
X159384395Y-69651638D01*
X159432776Y-69603257D01*
X157836204Y-69700019D02*
X158416776Y-69700019D01*
X158126490Y-69700019D02*
X158126490Y-68684019D01*
X158223252Y-68829161D01*
X158320014Y-68925923D01*
X158416776Y-68974304D01*
X172187204Y-71859019D02*
X172671014Y-71859019D01*
X172719395Y-72342828D01*
X172671014Y-72294447D01*
X172574252Y-72246066D01*
X172332347Y-72246066D01*
X172235585Y-72294447D01*
X172187204Y-72342828D01*
X172138823Y-72439590D01*
X172138823Y-72681495D01*
X172187204Y-72778257D01*
X172235585Y-72826638D01*
X172332347Y-72875019D01*
X172574252Y-72875019D01*
X172671014Y-72826638D01*
X172719395Y-72778257D01*
X171509871Y-71859019D02*
X171413109Y-71859019D01*
X171316347Y-71907400D01*
X171267966Y-71955780D01*
X171219585Y-72052542D01*
X171171204Y-72246066D01*
X171171204Y-72487971D01*
X171219585Y-72681495D01*
X171267966Y-72778257D01*
X171316347Y-72826638D01*
X171413109Y-72875019D01*
X171509871Y-72875019D01*
X171606633Y-72826638D01*
X171655014Y-72778257D01*
X171703395Y-72681495D01*
X171751776Y-72487971D01*
X171751776Y-72246066D01*
X171703395Y-72052542D01*
X171655014Y-71955780D01*
X171606633Y-71907400D01*
X171509871Y-71859019D01*
X174037776Y-68684019D02*
X173408823Y-68684019D01*
X173747490Y-69071066D01*
X173602347Y-69071066D01*
X173505585Y-69119447D01*
X173457204Y-69167828D01*
X173408823Y-69264590D01*
X173408823Y-69506495D01*
X173457204Y-69603257D01*
X173505585Y-69651638D01*
X173602347Y-69700019D01*
X173892633Y-69700019D01*
X173989395Y-69651638D01*
X174037776Y-69603257D01*
X172779871Y-68684019D02*
X172683109Y-68684019D01*
X172586347Y-68732400D01*
X172537966Y-68780780D01*
X172489585Y-68877542D01*
X172441204Y-69071066D01*
X172441204Y-69312971D01*
X172489585Y-69506495D01*
X172537966Y-69603257D01*
X172586347Y-69651638D01*
X172683109Y-69700019D01*
X172779871Y-69700019D01*
X172876633Y-69651638D01*
X172925014Y-69603257D01*
X172973395Y-69506495D01*
X173021776Y-69312971D01*
X173021776Y-69071066D01*
X172973395Y-68877542D01*
X172925014Y-68780780D01*
X172876633Y-68732400D01*
X172779871Y-68684019D01*
X174678823Y-66525019D02*
X175259395Y-66525019D01*
X174969109Y-66525019D02*
X174969109Y-65509019D01*
X175065871Y-65654161D01*
X175162633Y-65750923D01*
X175259395Y-65799304D01*
X174049871Y-65509019D02*
X173953109Y-65509019D01*
X173856347Y-65557400D01*
X173807966Y-65605780D01*
X173759585Y-65702542D01*
X173711204Y-65896066D01*
X173711204Y-66137971D01*
X173759585Y-66331495D01*
X173807966Y-66428257D01*
X173856347Y-66476638D01*
X173953109Y-66525019D01*
X174049871Y-66525019D01*
X174146633Y-66476638D01*
X174195014Y-66428257D01*
X174243395Y-66331495D01*
X174291776Y-66137971D01*
X174291776Y-65896066D01*
X174243395Y-65702542D01*
X174195014Y-65605780D01*
X174146633Y-65557400D01*
X174049871Y-65509019D01*
X216534395Y-68780780D02*
X216486014Y-68732400D01*
X216389252Y-68684019D01*
X216147347Y-68684019D01*
X216050585Y-68732400D01*
X216002204Y-68780780D01*
X215953823Y-68877542D01*
X215953823Y-68974304D01*
X216002204Y-69119447D01*
X216582776Y-69700019D01*
X215953823Y-69700019D01*
X214986204Y-69700019D02*
X215566776Y-69700019D01*
X215276490Y-69700019D02*
X215276490Y-68684019D01*
X215373252Y-68829161D01*
X215470014Y-68925923D01*
X215566776Y-68974304D01*
X216740014Y-66525019D02*
X217320585Y-66525019D01*
X217030300Y-66525019D02*
X217030300Y-65509019D01*
X217127061Y-65654161D01*
X217223823Y-65750923D01*
X217320585Y-65799304D01*
X160073823Y-66525019D02*
X160654395Y-66525019D01*
X160364109Y-66525019D02*
X160364109Y-65509019D01*
X160460871Y-65654161D01*
X160557633Y-65750923D01*
X160654395Y-65799304D01*
X159106204Y-66525019D02*
X159686776Y-66525019D01*
X159396490Y-66525019D02*
X159396490Y-65509019D01*
X159493252Y-65654161D01*
X159590014Y-65750923D01*
X159686776Y-65799304D01*
X147221786Y-163100899D02*
X147221786Y-163826613D01*
X147270167Y-163971756D01*
X147366929Y-164068518D01*
X147512072Y-164116899D01*
X147608834Y-164116899D01*
X146302548Y-163439565D02*
X146302548Y-164116899D01*
X146544453Y-163052518D02*
X146786358Y-163778232D01*
X146157405Y-163778232D01*
X166166195Y-68607819D02*
X166166195Y-69430295D01*
X166117814Y-69527057D01*
X166069433Y-69575438D01*
X165972671Y-69623819D01*
X165779147Y-69623819D01*
X165682385Y-69575438D01*
X165634004Y-69527057D01*
X165585623Y-69430295D01*
X165585623Y-68607819D01*
X164569623Y-69623819D02*
X165150195Y-69623819D01*
X164859909Y-69623819D02*
X164859909Y-68607819D01*
X164956671Y-68752961D01*
X165053433Y-68849723D01*
X165150195Y-68898104D01*
X186223486Y-163032319D02*
X186223486Y-163758033D01*
X186271867Y-163903176D01*
X186368629Y-163999938D01*
X186513772Y-164048319D01*
X186610534Y-164048319D01*
X185788058Y-163129080D02*
X185739677Y-163080700D01*
X185642915Y-163032319D01*
X185401010Y-163032319D01*
X185304248Y-163080700D01*
X185255867Y-163129080D01*
X185207486Y-163225842D01*
X185207486Y-163322604D01*
X185255867Y-163467747D01*
X185836439Y-164048319D01*
X185207486Y-164048319D01*
D12*
G04 #@! TO.C,J1*
X224440714Y-78049380D02*
X223869285Y-78049380D01*
X224155000Y-78049380D02*
X224155000Y-77049380D01*
X224059761Y-77192238D01*
X223964523Y-77287476D01*
X223869285Y-77335095D01*
X214931666Y-77049380D02*
X215550714Y-77049380D01*
X215217380Y-77430333D01*
X215360238Y-77430333D01*
X215455476Y-77477952D01*
X215503095Y-77525571D01*
X215550714Y-77620809D01*
X215550714Y-77858904D01*
X215503095Y-77954142D01*
X215455476Y-78001761D01*
X215360238Y-78049380D01*
X215074523Y-78049380D01*
X214979285Y-78001761D01*
X214931666Y-77954142D01*
X214931666Y-77049380D02*
X215550714Y-77049380D01*
X215217380Y-77430333D01*
X215360238Y-77430333D01*
X215455476Y-77477952D01*
X215503095Y-77525571D01*
X215550714Y-77620809D01*
X215550714Y-77858904D01*
X215503095Y-77954142D01*
X215455476Y-78001761D01*
X215360238Y-78049380D01*
X215074523Y-78049380D01*
X214979285Y-78001761D01*
X214931666Y-77954142D01*
X224440714Y-78049380D02*
X223869285Y-78049380D01*
X224155000Y-78049380D02*
X224155000Y-77049380D01*
X224059761Y-77192238D01*
X223964523Y-77287476D01*
X223869285Y-77335095D01*
G04 #@! TO.C,BRD1*
X110006380Y-136353523D02*
X110006380Y-135782095D01*
X110006380Y-136067809D02*
X109006380Y-136067809D01*
X109149238Y-135972571D01*
X109244476Y-135877333D01*
X109292095Y-135782095D01*
X109006380Y-136686857D02*
X109006380Y-137305904D01*
X109387333Y-136972571D01*
X109387333Y-137115428D01*
X109434952Y-137210666D01*
X109482571Y-137258285D01*
X109577809Y-137305904D01*
X109815904Y-137305904D01*
X109911142Y-137258285D01*
X109958761Y-137210666D01*
X110006380Y-137115428D01*
X110006380Y-136829714D01*
X109958761Y-136734476D01*
X109911142Y-136686857D01*
X109006380Y-116970095D02*
X109006380Y-116493904D01*
X109482571Y-116446285D01*
X109434952Y-116493904D01*
X109387333Y-116589142D01*
X109387333Y-116827238D01*
X109434952Y-116922476D01*
X109482571Y-116970095D01*
X109577809Y-117017714D01*
X109815904Y-117017714D01*
X109911142Y-116970095D01*
X109958761Y-116922476D01*
X110006380Y-116827238D01*
X110006380Y-116589142D01*
X109958761Y-116493904D01*
X109911142Y-116446285D01*
X171212523Y-98023380D02*
X171403000Y-98023380D01*
X171498238Y-98071000D01*
X171545857Y-98118619D01*
X171641095Y-98261476D01*
X171688714Y-98451952D01*
X171688714Y-98832904D01*
X171641095Y-98928142D01*
X171593476Y-98975761D01*
X171498238Y-99023380D01*
X171307761Y-99023380D01*
X171212523Y-98975761D01*
X171164904Y-98928142D01*
X171117285Y-98832904D01*
X171117285Y-98594809D01*
X171164904Y-98499571D01*
X171212523Y-98451952D01*
X171307761Y-98404333D01*
X171498238Y-98404333D01*
X171593476Y-98451952D01*
X171641095Y-98499571D01*
X171688714Y-98594809D01*
X221806380Y-103617238D02*
X221806380Y-103141047D01*
X222282571Y-103093428D01*
X222234952Y-103141047D01*
X222187333Y-103236285D01*
X222187333Y-103474380D01*
X222234952Y-103569619D01*
X222282571Y-103617238D01*
X222377809Y-103664857D01*
X222615904Y-103664857D01*
X222711142Y-103617238D01*
X222758761Y-103569619D01*
X222806380Y-103474380D01*
X222806380Y-103236285D01*
X222758761Y-103141047D01*
X222711142Y-103093428D01*
X222139714Y-103998190D02*
X222806380Y-104236285D01*
X222139714Y-104474380D01*
X222758761Y-105569619D02*
X222806380Y-105712476D01*
X222806380Y-105950571D01*
X222758761Y-106045809D01*
X222711142Y-106093428D01*
X222615904Y-106141047D01*
X222520666Y-106141047D01*
X222425428Y-106093428D01*
X222377809Y-106045809D01*
X222330190Y-105950571D01*
X222282571Y-105760095D01*
X222234952Y-105664857D01*
X222187333Y-105617238D01*
X222092095Y-105569619D01*
X221996857Y-105569619D01*
X221901619Y-105617238D01*
X221854000Y-105664857D01*
X221806380Y-105760095D01*
X221806380Y-105998190D01*
X221854000Y-106141047D01*
X222758761Y-106950571D02*
X222806380Y-106855333D01*
X222806380Y-106664857D01*
X222758761Y-106569619D01*
X222663523Y-106522000D01*
X222282571Y-106522000D01*
X222187333Y-106569619D01*
X222139714Y-106664857D01*
X222139714Y-106855333D01*
X222187333Y-106950571D01*
X222282571Y-106998190D01*
X222377809Y-106998190D01*
X222473047Y-106522000D01*
X222139714Y-107426761D02*
X222806380Y-107426761D01*
X222234952Y-107426761D02*
X222187333Y-107474380D01*
X222139714Y-107569619D01*
X222139714Y-107712476D01*
X222187333Y-107807714D01*
X222282571Y-107855333D01*
X222806380Y-107855333D01*
X222758761Y-108283904D02*
X222806380Y-108379142D01*
X222806380Y-108569619D01*
X222758761Y-108664857D01*
X222663523Y-108712476D01*
X222615904Y-108712476D01*
X222520666Y-108664857D01*
X222473047Y-108569619D01*
X222473047Y-108426761D01*
X222425428Y-108331523D01*
X222330190Y-108283904D01*
X222282571Y-108283904D01*
X222187333Y-108331523D01*
X222139714Y-108426761D01*
X222139714Y-108569619D01*
X222187333Y-108664857D01*
X222806380Y-109283904D02*
X222758761Y-109188666D01*
X222711142Y-109141047D01*
X222615904Y-109093428D01*
X222330190Y-109093428D01*
X222234952Y-109141047D01*
X222187333Y-109188666D01*
X222139714Y-109283904D01*
X222139714Y-109426761D01*
X222187333Y-109522000D01*
X222234952Y-109569619D01*
X222330190Y-109617238D01*
X222615904Y-109617238D01*
X222711142Y-109569619D01*
X222758761Y-109522000D01*
X222806380Y-109426761D01*
X222806380Y-109283904D01*
X222806380Y-110045809D02*
X222139714Y-110045809D01*
X222330190Y-110045809D02*
X222234952Y-110093428D01*
X222187333Y-110141047D01*
X222139714Y-110236285D01*
X222139714Y-110331523D01*
X222758761Y-111379142D02*
X222806380Y-111522000D01*
X222806380Y-111760095D01*
X222758761Y-111855333D01*
X222711142Y-111902952D01*
X222615904Y-111950571D01*
X222520666Y-111950571D01*
X222425428Y-111902952D01*
X222377809Y-111855333D01*
X222330190Y-111760095D01*
X222282571Y-111569619D01*
X222234952Y-111474380D01*
X222187333Y-111426761D01*
X222092095Y-111379142D01*
X221996857Y-111379142D01*
X221901619Y-111426761D01*
X221854000Y-111474380D01*
X221806380Y-111569619D01*
X221806380Y-111807714D01*
X221854000Y-111950571D01*
X222139714Y-112807714D02*
X222806380Y-112807714D01*
X222139714Y-112379142D02*
X222663523Y-112379142D01*
X222758761Y-112426761D01*
X222806380Y-112522000D01*
X222806380Y-112664857D01*
X222758761Y-112760095D01*
X222711142Y-112807714D01*
X222139714Y-113283904D02*
X223139714Y-113283904D01*
X222187333Y-113283904D02*
X222139714Y-113379142D01*
X222139714Y-113569619D01*
X222187333Y-113664857D01*
X222234952Y-113712476D01*
X222330190Y-113760095D01*
X222615904Y-113760095D01*
X222711142Y-113712476D01*
X222758761Y-113664857D01*
X222806380Y-113569619D01*
X222806380Y-113379142D01*
X222758761Y-113283904D01*
X222139714Y-114188666D02*
X223139714Y-114188666D01*
X222187333Y-114188666D02*
X222139714Y-114283904D01*
X222139714Y-114474380D01*
X222187333Y-114569619D01*
X222234952Y-114617238D01*
X222330190Y-114664857D01*
X222615904Y-114664857D01*
X222711142Y-114617238D01*
X222758761Y-114569619D01*
X222806380Y-114474380D01*
X222806380Y-114283904D01*
X222758761Y-114188666D01*
X222806380Y-115236285D02*
X222758761Y-115141047D01*
X222663523Y-115093428D01*
X221806380Y-115093428D01*
X222139714Y-115522000D02*
X222806380Y-115760095D01*
X222139714Y-115998190D02*
X222806380Y-115760095D01*
X223044476Y-115664857D01*
X223092095Y-115617238D01*
X223139714Y-115522000D01*
D13*
X220513523Y-87176761D02*
X220513523Y-85176761D01*
X219561142Y-87176761D02*
X219561142Y-85176761D01*
X218418285Y-87176761D01*
X218418285Y-85176761D01*
X217465904Y-87176761D02*
X217465904Y-85176761D01*
X216704000Y-85176761D01*
X216513523Y-85272000D01*
X216418285Y-85367238D01*
X216323047Y-85557714D01*
X216323047Y-85843428D01*
X216418285Y-86033904D01*
X216513523Y-86129142D01*
X216704000Y-86224380D01*
X217465904Y-86224380D01*
X215465904Y-85176761D02*
X215465904Y-86795809D01*
X215370666Y-86986285D01*
X215275428Y-87081523D01*
X215084952Y-87176761D01*
X214704000Y-87176761D01*
X214513523Y-87081523D01*
X214418285Y-86986285D01*
X214323047Y-86795809D01*
X214323047Y-85176761D01*
X213656380Y-85176761D02*
X212513523Y-85176761D01*
X213084952Y-87176761D02*
X213084952Y-85176761D01*
X211942095Y-87081523D02*
X211656380Y-87176761D01*
X211180190Y-87176761D01*
X210989714Y-87081523D01*
X210894476Y-86986285D01*
X210799238Y-86795809D01*
X210799238Y-86605333D01*
X210894476Y-86414857D01*
X210989714Y-86319619D01*
X211180190Y-86224380D01*
X211561142Y-86129142D01*
X211751619Y-86033904D01*
X211846857Y-85938666D01*
X211942095Y-85748190D01*
X211942095Y-85557714D01*
X211846857Y-85367238D01*
X211751619Y-85272000D01*
X211561142Y-85176761D01*
X211084952Y-85176761D01*
X210799238Y-85272000D01*
D12*
X110006380Y-132289523D02*
X110006380Y-131718095D01*
X110006380Y-132003809D02*
X109006380Y-132003809D01*
X109149238Y-131908571D01*
X109244476Y-131813333D01*
X109292095Y-131718095D01*
X110006380Y-133241904D02*
X110006380Y-132670476D01*
X110006380Y-132956190D02*
X109006380Y-132956190D01*
X109149238Y-132860952D01*
X109244476Y-132765714D01*
X109292095Y-132670476D01*
X151971952Y-98007428D02*
X151210047Y-98007428D01*
X151591000Y-98388380D02*
X151591000Y-97626476D01*
X118906380Y-110081523D02*
X118906380Y-109510095D01*
X118906380Y-109795809D02*
X117906380Y-109795809D01*
X118049238Y-109700571D01*
X118144476Y-109605333D01*
X118192095Y-109510095D01*
X118906380Y-111033904D02*
X118906380Y-110462476D01*
X118906380Y-110748190D02*
X117906380Y-110748190D01*
X118049238Y-110652952D01*
X118144476Y-110557714D01*
X118192095Y-110462476D01*
X167227761Y-94943619D02*
X167180142Y-94896000D01*
X167084904Y-94848380D01*
X166846809Y-94848380D01*
X166751571Y-94896000D01*
X166703952Y-94943619D01*
X166656333Y-95038857D01*
X166656333Y-95134095D01*
X166703952Y-95276952D01*
X167275380Y-95848380D01*
X166656333Y-95848380D01*
X166227761Y-95467428D02*
X165465857Y-95467428D01*
X110006380Y-140417523D02*
X110006380Y-139846095D01*
X110006380Y-140131809D02*
X109006380Y-140131809D01*
X109149238Y-140036571D01*
X109244476Y-139941333D01*
X109292095Y-139846095D01*
X109339714Y-141274666D02*
X110006380Y-141274666D01*
X108958761Y-141036571D02*
X109673047Y-140798476D01*
X109673047Y-141417523D01*
X213006380Y-133312476D02*
X214006380Y-133645809D01*
X213006380Y-133979142D01*
X213434952Y-134455333D02*
X213387333Y-134360095D01*
X213339714Y-134312476D01*
X213244476Y-134264857D01*
X213196857Y-134264857D01*
X213101619Y-134312476D01*
X213054000Y-134360095D01*
X213006380Y-134455333D01*
X213006380Y-134645809D01*
X213054000Y-134741047D01*
X213101619Y-134788666D01*
X213196857Y-134836285D01*
X213244476Y-134836285D01*
X213339714Y-134788666D01*
X213387333Y-134741047D01*
X213434952Y-134645809D01*
X213434952Y-134455333D01*
X213482571Y-134360095D01*
X213530190Y-134312476D01*
X213625428Y-134264857D01*
X213815904Y-134264857D01*
X213911142Y-134312476D01*
X213958761Y-134360095D01*
X214006380Y-134455333D01*
X214006380Y-134645809D01*
X213958761Y-134741047D01*
X213911142Y-134788666D01*
X213815904Y-134836285D01*
X213625428Y-134836285D01*
X213530190Y-134788666D01*
X213482571Y-134741047D01*
X213434952Y-134645809D01*
X118301619Y-141846285D02*
X118254000Y-141893904D01*
X118206380Y-141989142D01*
X118206380Y-142227238D01*
X118254000Y-142322476D01*
X118301619Y-142370095D01*
X118396857Y-142417714D01*
X118492095Y-142417714D01*
X118634952Y-142370095D01*
X119206380Y-141798666D01*
X119206380Y-142417714D01*
X113681523Y-106230714D02*
X113681523Y-106897380D01*
X113919619Y-105849761D02*
X114157714Y-106564047D01*
X113538666Y-106564047D01*
D14*
X158019285Y-100512438D02*
X158057990Y-100473733D01*
X158096695Y-100357619D01*
X158096695Y-100280209D01*
X158057990Y-100164095D01*
X157980580Y-100086685D01*
X157903171Y-100047980D01*
X157748352Y-100009276D01*
X157632238Y-100009276D01*
X157477419Y-100047980D01*
X157400009Y-100086685D01*
X157322600Y-100164095D01*
X157283895Y-100280209D01*
X157283895Y-100357619D01*
X157322600Y-100473733D01*
X157361304Y-100512438D01*
X157864466Y-100822076D02*
X157864466Y-101209123D01*
X158096695Y-100744666D02*
X157283895Y-101015600D01*
X158096695Y-101286533D01*
X158096695Y-101557466D02*
X157283895Y-101557466D01*
X158096695Y-102021923D01*
X157283895Y-102021923D01*
X157361304Y-102370266D02*
X157322600Y-102408971D01*
X157283895Y-102486380D01*
X157283895Y-102679904D01*
X157322600Y-102757314D01*
X157361304Y-102796019D01*
X157438714Y-102834723D01*
X157516123Y-102834723D01*
X157632238Y-102796019D01*
X158096695Y-102331561D01*
X158096695Y-102834723D01*
D12*
X114078333Y-102087380D02*
X113459285Y-102087380D01*
X113792619Y-102468333D01*
X113649761Y-102468333D01*
X113554523Y-102515952D01*
X113506904Y-102563571D01*
X113459285Y-102658809D01*
X113459285Y-102896904D01*
X113506904Y-102992142D01*
X113554523Y-103039761D01*
X113649761Y-103087380D01*
X113935476Y-103087380D01*
X114030714Y-103039761D01*
X114078333Y-102992142D01*
X216406380Y-135749476D02*
X217406380Y-136082809D01*
X216406380Y-136416142D01*
X216406380Y-137225666D02*
X216406380Y-136749476D01*
X216882571Y-136701857D01*
X216834952Y-136749476D01*
X216787333Y-136844714D01*
X216787333Y-137082809D01*
X216834952Y-137178047D01*
X216882571Y-137225666D01*
X216977809Y-137273285D01*
X217215904Y-137273285D01*
X217311142Y-137225666D01*
X217358761Y-137178047D01*
X217406380Y-137082809D01*
X217406380Y-136844714D01*
X217358761Y-136749476D01*
X217311142Y-136701857D01*
X116656380Y-139588666D02*
X116656380Y-140207714D01*
X117037333Y-139874380D01*
X117037333Y-140017238D01*
X117084952Y-140112476D01*
X117132571Y-140160095D01*
X117227809Y-140207714D01*
X117465904Y-140207714D01*
X117561142Y-140160095D01*
X117608761Y-140112476D01*
X117656380Y-140017238D01*
X117656380Y-139731523D01*
X117608761Y-139636285D01*
X117561142Y-139588666D01*
X151336952Y-95213428D02*
X150575047Y-95213428D01*
X118896380Y-114255523D02*
X118896380Y-113684095D01*
X118896380Y-113969809D02*
X117896380Y-113969809D01*
X118039238Y-113874571D01*
X118134476Y-113779333D01*
X118182095Y-113684095D01*
X117896380Y-114874571D02*
X117896380Y-114969809D01*
X117944000Y-115065047D01*
X117991619Y-115112666D01*
X118086857Y-115160285D01*
X118277333Y-115207904D01*
X118515428Y-115207904D01*
X118705904Y-115160285D01*
X118801142Y-115112666D01*
X118848761Y-115065047D01*
X118896380Y-114969809D01*
X118896380Y-114874571D01*
X118848761Y-114779333D01*
X118801142Y-114731714D01*
X118705904Y-114684095D01*
X118515428Y-114636476D01*
X118277333Y-114636476D01*
X118086857Y-114684095D01*
X117991619Y-114731714D01*
X117944000Y-114779333D01*
X117896380Y-114874571D01*
X172228428Y-103933380D02*
X172799857Y-103933380D01*
X172514142Y-103933380D02*
X172514142Y-102933380D01*
X172609380Y-103076238D01*
X172704619Y-103171476D01*
X172799857Y-103219095D01*
X171847476Y-103028619D02*
X171799857Y-102981000D01*
X171704619Y-102933380D01*
X171466523Y-102933380D01*
X171371285Y-102981000D01*
X171323666Y-103028619D01*
X171276047Y-103123857D01*
X171276047Y-103219095D01*
X171323666Y-103361952D01*
X171895095Y-103933380D01*
X171276047Y-103933380D01*
X170942714Y-103266714D02*
X170704619Y-103933380D01*
X170466523Y-103266714D01*
X172680809Y-105543380D02*
X172680809Y-104543380D01*
X171680809Y-104591000D02*
X171776047Y-104543380D01*
X171918904Y-104543380D01*
X172061761Y-104591000D01*
X172157000Y-104686238D01*
X172204619Y-104781476D01*
X172252238Y-104971952D01*
X172252238Y-105114809D01*
X172204619Y-105305285D01*
X172157000Y-105400523D01*
X172061761Y-105495761D01*
X171918904Y-105543380D01*
X171823666Y-105543380D01*
X171680809Y-105495761D01*
X171633190Y-105448142D01*
X171633190Y-105114809D01*
X171823666Y-105114809D01*
X171204619Y-105543380D02*
X171204619Y-104543380D01*
X170633190Y-105543380D01*
X170633190Y-104543380D01*
X118023380Y-130384476D02*
X118023380Y-130194000D01*
X118071000Y-130098761D01*
X118118619Y-130051142D01*
X118261476Y-129955904D01*
X118451952Y-129908285D01*
X118832904Y-129908285D01*
X118928142Y-129955904D01*
X118975761Y-130003523D01*
X119023380Y-130098761D01*
X119023380Y-130289238D01*
X118975761Y-130384476D01*
X118928142Y-130432095D01*
X118832904Y-130479714D01*
X118594809Y-130479714D01*
X118499571Y-130432095D01*
X118451952Y-130384476D01*
X118404333Y-130289238D01*
X118404333Y-130098761D01*
X118451952Y-130003523D01*
X118499571Y-129955904D01*
X118594809Y-129908285D01*
X212879380Y-141313476D02*
X213879380Y-141646809D01*
X212879380Y-141980142D01*
X213212714Y-142742047D02*
X213879380Y-142742047D01*
X212831761Y-142503952D02*
X213546047Y-142265857D01*
X213546047Y-142884904D01*
X121246000Y-99968095D02*
X121198380Y-99872857D01*
X121198380Y-99730000D01*
X121246000Y-99587142D01*
X121341238Y-99491904D01*
X121436476Y-99444285D01*
X121626952Y-99396666D01*
X121769809Y-99396666D01*
X121960285Y-99444285D01*
X122055523Y-99491904D01*
X122150761Y-99587142D01*
X122198380Y-99730000D01*
X122198380Y-99825238D01*
X122150761Y-99968095D01*
X122103142Y-100015714D01*
X121769809Y-100015714D01*
X121769809Y-99825238D01*
X122198380Y-100444285D02*
X121198380Y-100444285D01*
X122198380Y-101015714D01*
X121198380Y-101015714D01*
X122198380Y-101491904D02*
X121198380Y-101491904D01*
X121198380Y-101730000D01*
X121246000Y-101872857D01*
X121341238Y-101968095D01*
X121436476Y-102015714D01*
X121626952Y-102063333D01*
X121769809Y-102063333D01*
X121960285Y-102015714D01*
X122055523Y-101968095D01*
X122150761Y-101872857D01*
X122198380Y-101730000D01*
X122198380Y-101491904D01*
X216406380Y-131812476D02*
X217406380Y-132145809D01*
X216406380Y-132479142D01*
X216406380Y-132717238D02*
X216406380Y-133383904D01*
X217406380Y-132955333D01*
D14*
X158298276Y-95340600D02*
X158375685Y-95301895D01*
X158491800Y-95301895D01*
X158607914Y-95340600D01*
X158685323Y-95418009D01*
X158724028Y-95495419D01*
X158762733Y-95650238D01*
X158762733Y-95766352D01*
X158724028Y-95921171D01*
X158685323Y-95998580D01*
X158607914Y-96075990D01*
X158491800Y-96114695D01*
X158414390Y-96114695D01*
X158298276Y-96075990D01*
X158259571Y-96037285D01*
X158259571Y-95766352D01*
X158414390Y-95766352D01*
X157911228Y-96114695D02*
X157911228Y-95301895D01*
X157446771Y-96114695D01*
X157446771Y-95301895D01*
X157059723Y-96114695D02*
X157059723Y-95301895D01*
X156866200Y-95301895D01*
X156750085Y-95340600D01*
X156672676Y-95418009D01*
X156633971Y-95495419D01*
X156595266Y-95650238D01*
X156595266Y-95766352D01*
X156633971Y-95921171D01*
X156672676Y-95998580D01*
X156750085Y-96075990D01*
X156866200Y-96114695D01*
X157059723Y-96114695D01*
D12*
X216583380Y-115800095D02*
X216583380Y-116371523D01*
X217583380Y-116085809D02*
X216583380Y-116085809D01*
X216583380Y-116609619D02*
X216583380Y-117228666D01*
X216964333Y-116895333D01*
X216964333Y-117038190D01*
X217011952Y-117133428D01*
X217059571Y-117181047D01*
X217154809Y-117228666D01*
X217392904Y-117228666D01*
X217488142Y-117181047D01*
X217535761Y-117133428D01*
X217583380Y-117038190D01*
X217583380Y-116752476D01*
X217535761Y-116657238D01*
X217488142Y-116609619D01*
X184237857Y-101976142D02*
X184285476Y-102023761D01*
X184428333Y-102071380D01*
X184523571Y-102071380D01*
X184666428Y-102023761D01*
X184761666Y-101928523D01*
X184809285Y-101833285D01*
X184856904Y-101642809D01*
X184856904Y-101499952D01*
X184809285Y-101309476D01*
X184761666Y-101214238D01*
X184666428Y-101119000D01*
X184523571Y-101071380D01*
X184428333Y-101071380D01*
X184285476Y-101119000D01*
X184237857Y-101166619D01*
X183856904Y-101785666D02*
X183380714Y-101785666D01*
X183952142Y-102071380D02*
X183618809Y-101071380D01*
X183285476Y-102071380D01*
X182952142Y-102071380D02*
X182952142Y-101071380D01*
X182380714Y-102071380D01*
X182380714Y-101071380D01*
X118483714Y-138385476D02*
X119150380Y-138385476D01*
X118102761Y-138147380D02*
X118817047Y-137909285D01*
X118817047Y-138528333D01*
X221968285Y-96519380D02*
X222539714Y-96519380D01*
X222254000Y-96519380D02*
X222254000Y-95519380D01*
X222349238Y-95662238D01*
X222444476Y-95757476D01*
X222539714Y-95805095D01*
X221587333Y-95614619D02*
X221539714Y-95567000D01*
X221444476Y-95519380D01*
X221206380Y-95519380D01*
X221111142Y-95567000D01*
X221063523Y-95614619D01*
X221015904Y-95709857D01*
X221015904Y-95805095D01*
X221063523Y-95947952D01*
X221634952Y-96519380D01*
X221015904Y-96519380D01*
X220682571Y-95852714D02*
X220444476Y-96519380D01*
X220206380Y-95852714D01*
X219111142Y-96471761D02*
X218968285Y-96519380D01*
X218730190Y-96519380D01*
X218634952Y-96471761D01*
X218587333Y-96424142D01*
X218539714Y-96328904D01*
X218539714Y-96233666D01*
X218587333Y-96138428D01*
X218634952Y-96090809D01*
X218730190Y-96043190D01*
X218920666Y-95995571D01*
X219015904Y-95947952D01*
X219063523Y-95900333D01*
X219111142Y-95805095D01*
X219111142Y-95709857D01*
X219063523Y-95614619D01*
X219015904Y-95567000D01*
X218920666Y-95519380D01*
X218682571Y-95519380D01*
X218539714Y-95567000D01*
X217730190Y-96471761D02*
X217825428Y-96519380D01*
X218015904Y-96519380D01*
X218111142Y-96471761D01*
X218158761Y-96376523D01*
X218158761Y-95995571D01*
X218111142Y-95900333D01*
X218015904Y-95852714D01*
X217825428Y-95852714D01*
X217730190Y-95900333D01*
X217682571Y-95995571D01*
X217682571Y-96090809D01*
X218158761Y-96186047D01*
X217254000Y-95852714D02*
X217254000Y-96519380D01*
X217254000Y-95947952D02*
X217206380Y-95900333D01*
X217111142Y-95852714D01*
X216968285Y-95852714D01*
X216873047Y-95900333D01*
X216825428Y-95995571D01*
X216825428Y-96519380D01*
X216396857Y-96471761D02*
X216301619Y-96519380D01*
X216111142Y-96519380D01*
X216015904Y-96471761D01*
X215968285Y-96376523D01*
X215968285Y-96328904D01*
X216015904Y-96233666D01*
X216111142Y-96186047D01*
X216254000Y-96186047D01*
X216349238Y-96138428D01*
X216396857Y-96043190D01*
X216396857Y-95995571D01*
X216349238Y-95900333D01*
X216254000Y-95852714D01*
X216111142Y-95852714D01*
X216015904Y-95900333D01*
X221539714Y-98081761D02*
X221396857Y-98129380D01*
X221158761Y-98129380D01*
X221063523Y-98081761D01*
X221015904Y-98034142D01*
X220968285Y-97938904D01*
X220968285Y-97843666D01*
X221015904Y-97748428D01*
X221063523Y-97700809D01*
X221158761Y-97653190D01*
X221349238Y-97605571D01*
X221444476Y-97557952D01*
X221492095Y-97510333D01*
X221539714Y-97415095D01*
X221539714Y-97319857D01*
X221492095Y-97224619D01*
X221444476Y-97177000D01*
X221349238Y-97129380D01*
X221111142Y-97129380D01*
X220968285Y-97177000D01*
X220111142Y-97462714D02*
X220111142Y-98129380D01*
X220539714Y-97462714D02*
X220539714Y-97986523D01*
X220492095Y-98081761D01*
X220396857Y-98129380D01*
X220254000Y-98129380D01*
X220158761Y-98081761D01*
X220111142Y-98034142D01*
X219634952Y-97462714D02*
X219634952Y-98462714D01*
X219634952Y-97510333D02*
X219539714Y-97462714D01*
X219349238Y-97462714D01*
X219254000Y-97510333D01*
X219206380Y-97557952D01*
X219158761Y-97653190D01*
X219158761Y-97938904D01*
X219206380Y-98034142D01*
X219254000Y-98081761D01*
X219349238Y-98129380D01*
X219539714Y-98129380D01*
X219634952Y-98081761D01*
X218730190Y-97462714D02*
X218730190Y-98462714D01*
X218730190Y-97510333D02*
X218634952Y-97462714D01*
X218444476Y-97462714D01*
X218349238Y-97510333D01*
X218301619Y-97557952D01*
X218254000Y-97653190D01*
X218254000Y-97938904D01*
X218301619Y-98034142D01*
X218349238Y-98081761D01*
X218444476Y-98129380D01*
X218634952Y-98129380D01*
X218730190Y-98081761D01*
X217682571Y-98129380D02*
X217777809Y-98081761D01*
X217825428Y-97986523D01*
X217825428Y-97129380D01*
X217396857Y-97462714D02*
X217158761Y-98129380D01*
X216920666Y-97462714D02*
X217158761Y-98129380D01*
X217254000Y-98367476D01*
X217301619Y-98415095D01*
X217396857Y-98462714D01*
X118023380Y-125796666D02*
X118023380Y-126463333D01*
X119023380Y-126034761D01*
X163227333Y-95975380D02*
X163798761Y-95975380D01*
X163513047Y-95975380D02*
X163513047Y-94975380D01*
X163608285Y-95118238D01*
X163703523Y-95213476D01*
X163798761Y-95261095D01*
X162798761Y-95594428D02*
X162036857Y-95594428D01*
X152256380Y-96250571D02*
X151923047Y-96250571D01*
X151780190Y-96774380D02*
X152256380Y-96774380D01*
X152256380Y-95774380D01*
X151780190Y-95774380D01*
X151494476Y-95774380D02*
X150923047Y-95774380D01*
X151208761Y-96774380D02*
X151208761Y-95774380D01*
X150256380Y-96250571D02*
X150113523Y-96298190D01*
X150065904Y-96345809D01*
X150018285Y-96441047D01*
X150018285Y-96583904D01*
X150065904Y-96679142D01*
X150113523Y-96726761D01*
X150208761Y-96774380D01*
X150589714Y-96774380D01*
X150589714Y-95774380D01*
X150256380Y-95774380D01*
X150161142Y-95822000D01*
X150113523Y-95869619D01*
X150065904Y-95964857D01*
X150065904Y-96060095D01*
X150113523Y-96155333D01*
X150161142Y-96202952D01*
X150256380Y-96250571D01*
X150589714Y-96250571D01*
X148875428Y-95869619D02*
X148827809Y-95822000D01*
X148732571Y-95774380D01*
X148494476Y-95774380D01*
X148399238Y-95822000D01*
X148351619Y-95869619D01*
X148304000Y-95964857D01*
X148304000Y-96060095D01*
X148351619Y-96202952D01*
X148923047Y-96774380D01*
X148304000Y-96774380D01*
X110006380Y-128479523D02*
X110006380Y-128670000D01*
X109958761Y-128765238D01*
X109911142Y-128812857D01*
X109768285Y-128908095D01*
X109577809Y-128955714D01*
X109196857Y-128955714D01*
X109101619Y-128908095D01*
X109054000Y-128860476D01*
X109006380Y-128765238D01*
X109006380Y-128574761D01*
X109054000Y-128479523D01*
X109101619Y-128431904D01*
X109196857Y-128384285D01*
X109434952Y-128384285D01*
X109530190Y-128431904D01*
X109577809Y-128479523D01*
X109625428Y-128574761D01*
X109625428Y-128765238D01*
X109577809Y-128860476D01*
X109530190Y-128908095D01*
X109434952Y-128955714D01*
X118023380Y-134369095D02*
X118023380Y-133892904D01*
X118499571Y-133845285D01*
X118451952Y-133892904D01*
X118404333Y-133988142D01*
X118404333Y-134226238D01*
X118451952Y-134321476D01*
X118499571Y-134369095D01*
X118594809Y-134416714D01*
X118832904Y-134416714D01*
X118928142Y-134369095D01*
X118975761Y-134321476D01*
X119023380Y-134226238D01*
X119023380Y-133988142D01*
X118975761Y-133892904D01*
X118928142Y-133845285D01*
X118451952Y-122224761D02*
X118404333Y-122129523D01*
X118356714Y-122081904D01*
X118261476Y-122034285D01*
X118213857Y-122034285D01*
X118118619Y-122081904D01*
X118071000Y-122129523D01*
X118023380Y-122224761D01*
X118023380Y-122415238D01*
X118071000Y-122510476D01*
X118118619Y-122558095D01*
X118213857Y-122605714D01*
X118261476Y-122605714D01*
X118356714Y-122558095D01*
X118404333Y-122510476D01*
X118451952Y-122415238D01*
X118451952Y-122224761D01*
X118499571Y-122129523D01*
X118547190Y-122081904D01*
X118642428Y-122034285D01*
X118832904Y-122034285D01*
X118928142Y-122081904D01*
X118975761Y-122129523D01*
X119023380Y-122224761D01*
X119023380Y-122415238D01*
X118975761Y-122510476D01*
X118928142Y-122558095D01*
X118832904Y-122605714D01*
X118642428Y-122605714D01*
X118547190Y-122558095D01*
X118499571Y-122510476D01*
X118451952Y-122415238D01*
X109668285Y-104103380D02*
X110239714Y-104103380D01*
X109954000Y-104103380D02*
X109954000Y-103103380D01*
X110049238Y-103246238D01*
X110144476Y-103341476D01*
X110239714Y-103389095D01*
X178141952Y-103214380D02*
X178237190Y-103166761D01*
X178284809Y-103071523D01*
X178284809Y-102214380D01*
X110006380Y-108635714D02*
X110006380Y-108064285D01*
X110006380Y-108350000D02*
X109006380Y-108350000D01*
X109149238Y-108254761D01*
X109244476Y-108159523D01*
X109292095Y-108064285D01*
D14*
X154453171Y-100589695D02*
X154453171Y-99776895D01*
X154104828Y-100589695D02*
X154104828Y-100163942D01*
X154143533Y-100086533D01*
X154220942Y-100047828D01*
X154337057Y-100047828D01*
X154414466Y-100086533D01*
X154453171Y-100125238D01*
D12*
X209870666Y-132745809D02*
X209870666Y-133222000D01*
X210156380Y-132650571D02*
X209156380Y-132983904D01*
X210156380Y-133317238D01*
X209489714Y-133650571D02*
X210156380Y-133650571D01*
X209584952Y-133650571D02*
X209537333Y-133698190D01*
X209489714Y-133793428D01*
X209489714Y-133936285D01*
X209537333Y-134031523D01*
X209632571Y-134079142D01*
X210156380Y-134079142D01*
X210156380Y-134983904D02*
X209632571Y-134983904D01*
X209537333Y-134936285D01*
X209489714Y-134841047D01*
X209489714Y-134650571D01*
X209537333Y-134555333D01*
X210108761Y-134983904D02*
X210156380Y-134888666D01*
X210156380Y-134650571D01*
X210108761Y-134555333D01*
X210013523Y-134507714D01*
X209918285Y-134507714D01*
X209823047Y-134555333D01*
X209775428Y-134650571D01*
X209775428Y-134888666D01*
X209727809Y-134983904D01*
X210156380Y-135602952D02*
X210108761Y-135507714D01*
X210013523Y-135460095D01*
X209156380Y-135460095D01*
X210156380Y-136126761D02*
X210108761Y-136031523D01*
X210061142Y-135983904D01*
X209965904Y-135936285D01*
X209680190Y-135936285D01*
X209584952Y-135983904D01*
X209537333Y-136031523D01*
X209489714Y-136126761D01*
X209489714Y-136269619D01*
X209537333Y-136364857D01*
X209584952Y-136412476D01*
X209680190Y-136460095D01*
X209965904Y-136460095D01*
X210061142Y-136412476D01*
X210108761Y-136364857D01*
X210156380Y-136269619D01*
X210156380Y-136126761D01*
X209489714Y-137317238D02*
X210299238Y-137317238D01*
X210394476Y-137269619D01*
X210442095Y-137222000D01*
X210489714Y-137126761D01*
X210489714Y-136983904D01*
X210442095Y-136888666D01*
X210108761Y-137317238D02*
X210156380Y-137222000D01*
X210156380Y-137031523D01*
X210108761Y-136936285D01*
X210061142Y-136888666D01*
X209965904Y-136841047D01*
X209680190Y-136841047D01*
X209584952Y-136888666D01*
X209537333Y-136936285D01*
X209489714Y-137031523D01*
X209489714Y-137222000D01*
X209537333Y-137317238D01*
X210156380Y-138555333D02*
X209156380Y-138555333D01*
X209489714Y-139031523D02*
X210156380Y-139031523D01*
X209584952Y-139031523D02*
X209537333Y-139079142D01*
X209489714Y-139174380D01*
X209489714Y-139317238D01*
X209537333Y-139412476D01*
X209632571Y-139460095D01*
X210156380Y-139460095D01*
X209489714Y-139936285D02*
X210489714Y-139936285D01*
X209537333Y-139936285D02*
X209489714Y-140031523D01*
X209489714Y-140222000D01*
X209537333Y-140317238D01*
X209584952Y-140364857D01*
X209680190Y-140412476D01*
X209965904Y-140412476D01*
X210061142Y-140364857D01*
X210108761Y-140317238D01*
X210156380Y-140222000D01*
X210156380Y-140031523D01*
X210108761Y-139936285D01*
X209489714Y-141269619D02*
X210156380Y-141269619D01*
X209489714Y-140841047D02*
X210013523Y-140841047D01*
X210108761Y-140888666D01*
X210156380Y-140983904D01*
X210156380Y-141126761D01*
X210108761Y-141222000D01*
X210061142Y-141269619D01*
X209489714Y-141602952D02*
X209489714Y-141983904D01*
X209156380Y-141745809D02*
X210013523Y-141745809D01*
X210108761Y-141793428D01*
X210156380Y-141888666D01*
X210156380Y-141983904D01*
X210108761Y-142269619D02*
X210156380Y-142364857D01*
X210156380Y-142555333D01*
X210108761Y-142650571D01*
X210013523Y-142698190D01*
X209965904Y-142698190D01*
X209870666Y-142650571D01*
X209823047Y-142555333D01*
X209823047Y-142412476D01*
X209775428Y-142317238D01*
X209680190Y-142269619D01*
X209632571Y-142269619D01*
X209537333Y-142317238D01*
X209489714Y-142412476D01*
X209489714Y-142555333D01*
X209537333Y-142650571D01*
X222734761Y-128933904D02*
X222782380Y-129076761D01*
X222782380Y-129314857D01*
X222734761Y-129410095D01*
X222687142Y-129457714D01*
X222591904Y-129505333D01*
X222496666Y-129505333D01*
X222401428Y-129457714D01*
X222353809Y-129410095D01*
X222306190Y-129314857D01*
X222258571Y-129124380D01*
X222210952Y-129029142D01*
X222163333Y-128981523D01*
X222068095Y-128933904D01*
X221972857Y-128933904D01*
X221877619Y-128981523D01*
X221830000Y-129029142D01*
X221782380Y-129124380D01*
X221782380Y-129362476D01*
X221830000Y-129505333D01*
X222734761Y-130314857D02*
X222782380Y-130219619D01*
X222782380Y-130029142D01*
X222734761Y-129933904D01*
X222639523Y-129886285D01*
X222258571Y-129886285D01*
X222163333Y-129933904D01*
X222115714Y-130029142D01*
X222115714Y-130219619D01*
X222163333Y-130314857D01*
X222258571Y-130362476D01*
X222353809Y-130362476D01*
X222449047Y-129886285D01*
X222115714Y-130791047D02*
X222782380Y-130791047D01*
X222210952Y-130791047D02*
X222163333Y-130838666D01*
X222115714Y-130933904D01*
X222115714Y-131076761D01*
X222163333Y-131172000D01*
X222258571Y-131219619D01*
X222782380Y-131219619D01*
X222734761Y-131648190D02*
X222782380Y-131743428D01*
X222782380Y-131933904D01*
X222734761Y-132029142D01*
X222639523Y-132076761D01*
X222591904Y-132076761D01*
X222496666Y-132029142D01*
X222449047Y-131933904D01*
X222449047Y-131791047D01*
X222401428Y-131695809D01*
X222306190Y-131648190D01*
X222258571Y-131648190D01*
X222163333Y-131695809D01*
X222115714Y-131791047D01*
X222115714Y-131933904D01*
X222163333Y-132029142D01*
X222782380Y-132648190D02*
X222734761Y-132552952D01*
X222687142Y-132505333D01*
X222591904Y-132457714D01*
X222306190Y-132457714D01*
X222210952Y-132505333D01*
X222163333Y-132552952D01*
X222115714Y-132648190D01*
X222115714Y-132791047D01*
X222163333Y-132886285D01*
X222210952Y-132933904D01*
X222306190Y-132981523D01*
X222591904Y-132981523D01*
X222687142Y-132933904D01*
X222734761Y-132886285D01*
X222782380Y-132791047D01*
X222782380Y-132648190D01*
X222782380Y-133410095D02*
X222115714Y-133410095D01*
X222306190Y-133410095D02*
X222210952Y-133457714D01*
X222163333Y-133505333D01*
X222115714Y-133600571D01*
X222115714Y-133695809D01*
X221830000Y-135314857D02*
X221782380Y-135219619D01*
X221782380Y-135076761D01*
X221830000Y-134933904D01*
X221925238Y-134838666D01*
X222020476Y-134791047D01*
X222210952Y-134743428D01*
X222353809Y-134743428D01*
X222544285Y-134791047D01*
X222639523Y-134838666D01*
X222734761Y-134933904D01*
X222782380Y-135076761D01*
X222782380Y-135172000D01*
X222734761Y-135314857D01*
X222687142Y-135362476D01*
X222353809Y-135362476D01*
X222353809Y-135172000D01*
X222782380Y-135791047D02*
X221782380Y-135791047D01*
X222782380Y-136362476D01*
X221782380Y-136362476D01*
X222782380Y-136838666D02*
X221782380Y-136838666D01*
X221782380Y-137076761D01*
X221830000Y-137219619D01*
X221925238Y-137314857D01*
X222020476Y-137362476D01*
X222210952Y-137410095D01*
X222353809Y-137410095D01*
X222544285Y-137362476D01*
X222639523Y-137314857D01*
X222734761Y-137219619D01*
X222782380Y-137076761D01*
X222782380Y-136838666D01*
D14*
X160932238Y-100589695D02*
X161009647Y-100550990D01*
X161048352Y-100473580D01*
X161048352Y-99776895D01*
D15*
X150171695Y-99883600D02*
X149358895Y-99883600D01*
X149939466Y-100154533D01*
X149358895Y-100425466D01*
X150171695Y-100425466D01*
X150171695Y-101160857D02*
X149745942Y-101160857D01*
X149668533Y-101122152D01*
X149629828Y-101044742D01*
X149629828Y-100889923D01*
X149668533Y-100812514D01*
X150132990Y-101160857D02*
X150171695Y-101083447D01*
X150171695Y-100889923D01*
X150132990Y-100812514D01*
X150055580Y-100773809D01*
X149978171Y-100773809D01*
X149900761Y-100812514D01*
X149862057Y-100889923D01*
X149862057Y-101083447D01*
X149823352Y-101160857D01*
X150171695Y-101547904D02*
X149629828Y-101547904D01*
X149358895Y-101547904D02*
X149397600Y-101509200D01*
X149436304Y-101547904D01*
X149397600Y-101586609D01*
X149358895Y-101547904D01*
X149436304Y-101547904D01*
X149629828Y-101934952D02*
X150171695Y-101934952D01*
X149707238Y-101934952D02*
X149668533Y-101973657D01*
X149629828Y-102051066D01*
X149629828Y-102167180D01*
X149668533Y-102244590D01*
X149745942Y-102283295D01*
X150171695Y-102283295D01*
X150171695Y-103754076D02*
X149784647Y-103483142D01*
X150171695Y-103289619D02*
X149358895Y-103289619D01*
X149358895Y-103599257D01*
X149397600Y-103676666D01*
X149436304Y-103715371D01*
X149513714Y-103754076D01*
X149629828Y-103754076D01*
X149707238Y-103715371D01*
X149745942Y-103676666D01*
X149784647Y-103599257D01*
X149784647Y-103289619D01*
X150171695Y-104218533D02*
X150132990Y-104141123D01*
X150055580Y-104102419D01*
X149358895Y-104102419D01*
X149629828Y-104450761D02*
X150171695Y-104644285D01*
X149629828Y-104837809D02*
X150171695Y-104644285D01*
X150365219Y-104566876D01*
X150403923Y-104528171D01*
X150442628Y-104450761D01*
D12*
X119023380Y-117938523D02*
X119023380Y-118129000D01*
X118975761Y-118224238D01*
X118928142Y-118271857D01*
X118785285Y-118367095D01*
X118594809Y-118414714D01*
X118213857Y-118414714D01*
X118118619Y-118367095D01*
X118071000Y-118319476D01*
X118023380Y-118224238D01*
X118023380Y-118033761D01*
X118071000Y-117938523D01*
X118118619Y-117890904D01*
X118213857Y-117843285D01*
X118451952Y-117843285D01*
X118547190Y-117890904D01*
X118594809Y-117938523D01*
X118642428Y-118033761D01*
X118642428Y-118224238D01*
X118594809Y-118319476D01*
X118547190Y-118367095D01*
X118451952Y-118414714D01*
X109006380Y-112080666D02*
X109006380Y-112699714D01*
X109387333Y-112366380D01*
X109387333Y-112509238D01*
X109434952Y-112604476D01*
X109482571Y-112652095D01*
X109577809Y-112699714D01*
X109815904Y-112699714D01*
X109911142Y-112652095D01*
X109958761Y-112604476D01*
X110006380Y-112509238D01*
X110006380Y-112223523D01*
X109958761Y-112128285D01*
X109911142Y-112080666D01*
X122156380Y-114662476D02*
X121156380Y-114662476D01*
X121489714Y-115567238D02*
X122299238Y-115567238D01*
X122394476Y-115519619D01*
X122442095Y-115472000D01*
X122489714Y-115376761D01*
X122489714Y-115233904D01*
X122442095Y-115138666D01*
X122108761Y-115567238D02*
X122156380Y-115472000D01*
X122156380Y-115281523D01*
X122108761Y-115186285D01*
X122061142Y-115138666D01*
X121965904Y-115091047D01*
X121680190Y-115091047D01*
X121584952Y-115138666D01*
X121537333Y-115186285D01*
X121489714Y-115281523D01*
X121489714Y-115472000D01*
X121537333Y-115567238D01*
X121489714Y-116043428D02*
X122156380Y-116043428D01*
X121584952Y-116043428D02*
X121537333Y-116091047D01*
X121489714Y-116186285D01*
X121489714Y-116329142D01*
X121537333Y-116424380D01*
X121632571Y-116472000D01*
X122156380Y-116472000D01*
X122156380Y-116948190D02*
X121489714Y-116948190D01*
X121156380Y-116948190D02*
X121204000Y-116900571D01*
X121251619Y-116948190D01*
X121204000Y-116995809D01*
X121156380Y-116948190D01*
X121251619Y-116948190D01*
X121489714Y-117281523D02*
X121489714Y-117662476D01*
X121156380Y-117424380D02*
X122013523Y-117424380D01*
X122108761Y-117472000D01*
X122156380Y-117567238D01*
X122156380Y-117662476D01*
X122156380Y-117995809D02*
X121489714Y-117995809D01*
X121156380Y-117995809D02*
X121204000Y-117948190D01*
X121251619Y-117995809D01*
X121204000Y-118043428D01*
X121156380Y-117995809D01*
X121251619Y-117995809D01*
X122156380Y-118614857D02*
X122108761Y-118519619D01*
X122061142Y-118472000D01*
X121965904Y-118424380D01*
X121680190Y-118424380D01*
X121584952Y-118472000D01*
X121537333Y-118519619D01*
X121489714Y-118614857D01*
X121489714Y-118757714D01*
X121537333Y-118852952D01*
X121584952Y-118900571D01*
X121680190Y-118948190D01*
X121965904Y-118948190D01*
X122061142Y-118900571D01*
X122108761Y-118852952D01*
X122156380Y-118757714D01*
X122156380Y-118614857D01*
X121489714Y-119376761D02*
X122156380Y-119376761D01*
X121584952Y-119376761D02*
X121537333Y-119424380D01*
X121489714Y-119519619D01*
X121489714Y-119662476D01*
X121537333Y-119757714D01*
X121632571Y-119805333D01*
X122156380Y-119805333D01*
X121156380Y-121233904D02*
X121156380Y-121424380D01*
X121204000Y-121519619D01*
X121299238Y-121614857D01*
X121489714Y-121662476D01*
X121823047Y-121662476D01*
X122013523Y-121614857D01*
X122108761Y-121519619D01*
X122156380Y-121424380D01*
X122156380Y-121233904D01*
X122108761Y-121138666D01*
X122013523Y-121043428D01*
X121823047Y-120995809D01*
X121489714Y-120995809D01*
X121299238Y-121043428D01*
X121204000Y-121138666D01*
X121156380Y-121233904D01*
X121489714Y-122519619D02*
X122156380Y-122519619D01*
X121489714Y-122091047D02*
X122013523Y-122091047D01*
X122108761Y-122138666D01*
X122156380Y-122233904D01*
X122156380Y-122376761D01*
X122108761Y-122472000D01*
X122061142Y-122519619D01*
X121489714Y-122852952D02*
X121489714Y-123233904D01*
X121156380Y-122995809D02*
X122013523Y-122995809D01*
X122108761Y-123043428D01*
X122156380Y-123138666D01*
X122156380Y-123233904D01*
X121489714Y-123567238D02*
X122489714Y-123567238D01*
X121537333Y-123567238D02*
X121489714Y-123662476D01*
X121489714Y-123852952D01*
X121537333Y-123948190D01*
X121584952Y-123995809D01*
X121680190Y-124043428D01*
X121965904Y-124043428D01*
X122061142Y-123995809D01*
X122108761Y-123948190D01*
X122156380Y-123852952D01*
X122156380Y-123662476D01*
X122108761Y-123567238D01*
X121489714Y-124900571D02*
X122156380Y-124900571D01*
X121489714Y-124472000D02*
X122013523Y-124472000D01*
X122108761Y-124519619D01*
X122156380Y-124614857D01*
X122156380Y-124757714D01*
X122108761Y-124852952D01*
X122061142Y-124900571D01*
X121489714Y-125233904D02*
X121489714Y-125614857D01*
X121156380Y-125376761D02*
X122013523Y-125376761D01*
X122108761Y-125424380D01*
X122156380Y-125519619D01*
X122156380Y-125614857D01*
X122108761Y-125900571D02*
X122156380Y-125995809D01*
X122156380Y-126186285D01*
X122108761Y-126281523D01*
X122013523Y-126329142D01*
X121965904Y-126329142D01*
X121870666Y-126281523D01*
X121823047Y-126186285D01*
X121823047Y-126043428D01*
X121775428Y-125948190D01*
X121680190Y-125900571D01*
X121632571Y-125900571D01*
X121537333Y-125948190D01*
X121489714Y-126043428D01*
X121489714Y-126186285D01*
X121537333Y-126281523D01*
X212765380Y-117240095D02*
X212765380Y-117811523D01*
X213765380Y-117525809D02*
X212765380Y-117525809D01*
X213098714Y-118573428D02*
X213765380Y-118573428D01*
X212717761Y-118335333D02*
X213432047Y-118097238D01*
X213432047Y-118716285D01*
X157305952Y-92038428D02*
X156544047Y-92038428D01*
X156925000Y-92419380D02*
X156925000Y-91657476D01*
X209955380Y-104825714D02*
X209955380Y-104254285D01*
X209955380Y-104540000D02*
X208955380Y-104540000D01*
X209098238Y-104444761D01*
X209193476Y-104349523D01*
X209241095Y-104254285D01*
X116658761Y-96819380D02*
X116658761Y-95819380D01*
X116658761Y-96295571D02*
X116087333Y-96295571D01*
X116087333Y-96819380D02*
X116087333Y-95819380D01*
X115611142Y-96819380D02*
X115611142Y-96152714D01*
X115611142Y-95819380D02*
X115658761Y-95867000D01*
X115611142Y-95914619D01*
X115563523Y-95867000D01*
X115611142Y-95819380D01*
X115611142Y-95914619D01*
X114706380Y-96152714D02*
X114706380Y-96962238D01*
X114754000Y-97057476D01*
X114801619Y-97105095D01*
X114896857Y-97152714D01*
X115039714Y-97152714D01*
X115134952Y-97105095D01*
X114706380Y-96771761D02*
X114801619Y-96819380D01*
X114992095Y-96819380D01*
X115087333Y-96771761D01*
X115134952Y-96724142D01*
X115182571Y-96628904D01*
X115182571Y-96343190D01*
X115134952Y-96247952D01*
X115087333Y-96200333D01*
X114992095Y-96152714D01*
X114801619Y-96152714D01*
X114706380Y-96200333D01*
X114230190Y-96819380D02*
X114230190Y-95819380D01*
X113801619Y-96819380D02*
X113801619Y-96295571D01*
X113849238Y-96200333D01*
X113944476Y-96152714D01*
X114087333Y-96152714D01*
X114182571Y-96200333D01*
X114230190Y-96247952D01*
X112611142Y-96771761D02*
X112468285Y-96819380D01*
X112230190Y-96819380D01*
X112134952Y-96771761D01*
X112087333Y-96724142D01*
X112039714Y-96628904D01*
X112039714Y-96533666D01*
X112087333Y-96438428D01*
X112134952Y-96390809D01*
X112230190Y-96343190D01*
X112420666Y-96295571D01*
X112515904Y-96247952D01*
X112563523Y-96200333D01*
X112611142Y-96105095D01*
X112611142Y-96009857D01*
X112563523Y-95914619D01*
X112515904Y-95867000D01*
X112420666Y-95819380D01*
X112182571Y-95819380D01*
X112039714Y-95867000D01*
X111611142Y-96819380D02*
X111611142Y-96152714D01*
X111611142Y-95819380D02*
X111658761Y-95867000D01*
X111611142Y-95914619D01*
X111563523Y-95867000D01*
X111611142Y-95819380D01*
X111611142Y-95914619D01*
X110706380Y-96819380D02*
X110706380Y-95819380D01*
X110706380Y-96771761D02*
X110801619Y-96819380D01*
X110992095Y-96819380D01*
X111087333Y-96771761D01*
X111134952Y-96724142D01*
X111182571Y-96628904D01*
X111182571Y-96343190D01*
X111134952Y-96247952D01*
X111087333Y-96200333D01*
X110992095Y-96152714D01*
X110801619Y-96152714D01*
X110706380Y-96200333D01*
X109849238Y-96771761D02*
X109944476Y-96819380D01*
X110134952Y-96819380D01*
X110230190Y-96771761D01*
X110277809Y-96676523D01*
X110277809Y-96295571D01*
X110230190Y-96200333D01*
X110134952Y-96152714D01*
X109944476Y-96152714D01*
X109849238Y-96200333D01*
X109801619Y-96295571D01*
X109801619Y-96390809D01*
X110277809Y-96486047D01*
X115682571Y-97429380D02*
X115492095Y-97429380D01*
X115396857Y-97477000D01*
X115301619Y-97572238D01*
X115254000Y-97762714D01*
X115254000Y-98096047D01*
X115301619Y-98286523D01*
X115396857Y-98381761D01*
X115492095Y-98429380D01*
X115682571Y-98429380D01*
X115777809Y-98381761D01*
X115873047Y-98286523D01*
X115920666Y-98096047D01*
X115920666Y-97762714D01*
X115873047Y-97572238D01*
X115777809Y-97477000D01*
X115682571Y-97429380D01*
X114396857Y-97762714D02*
X114396857Y-98429380D01*
X114825428Y-97762714D02*
X114825428Y-98286523D01*
X114777809Y-98381761D01*
X114682571Y-98429380D01*
X114539714Y-98429380D01*
X114444476Y-98381761D01*
X114396857Y-98334142D01*
X114063523Y-97762714D02*
X113682571Y-97762714D01*
X113920666Y-97429380D02*
X113920666Y-98286523D01*
X113873047Y-98381761D01*
X113777809Y-98429380D01*
X113682571Y-98429380D01*
X113349238Y-97762714D02*
X113349238Y-98762714D01*
X113349238Y-97810333D02*
X113254000Y-97762714D01*
X113063523Y-97762714D01*
X112968285Y-97810333D01*
X112920666Y-97857952D01*
X112873047Y-97953190D01*
X112873047Y-98238904D01*
X112920666Y-98334142D01*
X112968285Y-98381761D01*
X113063523Y-98429380D01*
X113254000Y-98429380D01*
X113349238Y-98381761D01*
X112015904Y-97762714D02*
X112015904Y-98429380D01*
X112444476Y-97762714D02*
X112444476Y-98286523D01*
X112396857Y-98381761D01*
X112301619Y-98429380D01*
X112158761Y-98429380D01*
X112063523Y-98381761D01*
X112015904Y-98334142D01*
X111682571Y-97762714D02*
X111301619Y-97762714D01*
X111539714Y-97429380D02*
X111539714Y-98286523D01*
X111492095Y-98381761D01*
X111396857Y-98429380D01*
X111301619Y-98429380D01*
X111015904Y-98381761D02*
X110920666Y-98429380D01*
X110730190Y-98429380D01*
X110634952Y-98381761D01*
X110587333Y-98286523D01*
X110587333Y-98238904D01*
X110634952Y-98143666D01*
X110730190Y-98096047D01*
X110873047Y-98096047D01*
X110968285Y-98048428D01*
X111015904Y-97953190D01*
X111015904Y-97905571D01*
X110968285Y-97810333D01*
X110873047Y-97762714D01*
X110730190Y-97762714D01*
X110634952Y-97810333D01*
X177832333Y-91800380D02*
X177213285Y-91800380D01*
X177546619Y-92181333D01*
X177403761Y-92181333D01*
X177308523Y-92228952D01*
X177260904Y-92276571D01*
X177213285Y-92371809D01*
X177213285Y-92609904D01*
X177260904Y-92705142D01*
X177308523Y-92752761D01*
X177403761Y-92800380D01*
X177689476Y-92800380D01*
X177784714Y-92752761D01*
X177832333Y-92705142D01*
X170496857Y-88974380D02*
X170163523Y-89974380D01*
X169830190Y-88974380D01*
X168925428Y-89974380D02*
X169258761Y-89498190D01*
X169496857Y-89974380D02*
X169496857Y-88974380D01*
X169115904Y-88974380D01*
X169020666Y-89022000D01*
X168973047Y-89069619D01*
X168925428Y-89164857D01*
X168925428Y-89307714D01*
X168973047Y-89402952D01*
X169020666Y-89450571D01*
X169115904Y-89498190D01*
X169496857Y-89498190D01*
X167782571Y-89926761D02*
X167639714Y-89974380D01*
X167401619Y-89974380D01*
X167306380Y-89926761D01*
X167258761Y-89879142D01*
X167211142Y-89783904D01*
X167211142Y-89688666D01*
X167258761Y-89593428D01*
X167306380Y-89545809D01*
X167401619Y-89498190D01*
X167592095Y-89450571D01*
X167687333Y-89402952D01*
X167734952Y-89355333D01*
X167782571Y-89260095D01*
X167782571Y-89164857D01*
X167734952Y-89069619D01*
X167687333Y-89022000D01*
X167592095Y-88974380D01*
X167354000Y-88974380D01*
X167211142Y-89022000D01*
X166401619Y-89926761D02*
X166496857Y-89974380D01*
X166687333Y-89974380D01*
X166782571Y-89926761D01*
X166830190Y-89831523D01*
X166830190Y-89450571D01*
X166782571Y-89355333D01*
X166687333Y-89307714D01*
X166496857Y-89307714D01*
X166401619Y-89355333D01*
X166354000Y-89450571D01*
X166354000Y-89545809D01*
X166830190Y-89641047D01*
X165925428Y-89307714D02*
X165925428Y-89974380D01*
X165925428Y-89402952D02*
X165877809Y-89355333D01*
X165782571Y-89307714D01*
X165639714Y-89307714D01*
X165544476Y-89355333D01*
X165496857Y-89450571D01*
X165496857Y-89974380D01*
X165068285Y-89926761D02*
X164973047Y-89974380D01*
X164782571Y-89974380D01*
X164687333Y-89926761D01*
X164639714Y-89831523D01*
X164639714Y-89783904D01*
X164687333Y-89688666D01*
X164782571Y-89641047D01*
X164925428Y-89641047D01*
X165020666Y-89593428D01*
X165068285Y-89498190D01*
X165068285Y-89450571D01*
X165020666Y-89355333D01*
X164925428Y-89307714D01*
X164782571Y-89307714D01*
X164687333Y-89355333D01*
X164068285Y-89974380D02*
X164163523Y-89926761D01*
X164211142Y-89879142D01*
X164258761Y-89783904D01*
X164258761Y-89498190D01*
X164211142Y-89402952D01*
X164163523Y-89355333D01*
X164068285Y-89307714D01*
X163925428Y-89307714D01*
X163830190Y-89355333D01*
X163782571Y-89402952D01*
X163734952Y-89498190D01*
X163734952Y-89783904D01*
X163782571Y-89879142D01*
X163830190Y-89926761D01*
X163925428Y-89974380D01*
X164068285Y-89974380D01*
X163306380Y-89974380D02*
X163306380Y-89307714D01*
X163306380Y-89498190D02*
X163258761Y-89402952D01*
X163211142Y-89355333D01*
X163115904Y-89307714D01*
X163020666Y-89307714D01*
X162734952Y-89926761D02*
X162639714Y-89974380D01*
X162449238Y-89974380D01*
X162354000Y-89926761D01*
X162306380Y-89831523D01*
X162306380Y-89783904D01*
X162354000Y-89688666D01*
X162449238Y-89641047D01*
X162592095Y-89641047D01*
X162687333Y-89593428D01*
X162734952Y-89498190D01*
X162734952Y-89450571D01*
X162687333Y-89355333D01*
X162592095Y-89307714D01*
X162449238Y-89307714D01*
X162354000Y-89355333D01*
X158369380Y-90371571D02*
X158036047Y-90371571D01*
X157893190Y-90895380D02*
X158369380Y-90895380D01*
X158369380Y-89895380D01*
X157893190Y-89895380D01*
X157607476Y-89895380D02*
X157036047Y-89895380D01*
X157321761Y-90895380D02*
X157321761Y-89895380D01*
X156369380Y-90371571D02*
X156226523Y-90419190D01*
X156178904Y-90466809D01*
X156131285Y-90562047D01*
X156131285Y-90704904D01*
X156178904Y-90800142D01*
X156226523Y-90847761D01*
X156321761Y-90895380D01*
X156702714Y-90895380D01*
X156702714Y-89895380D01*
X156369380Y-89895380D01*
X156274142Y-89943000D01*
X156226523Y-89990619D01*
X156178904Y-90085857D01*
X156178904Y-90181095D01*
X156226523Y-90276333D01*
X156274142Y-90323952D01*
X156369380Y-90371571D01*
X156702714Y-90371571D01*
X154417000Y-90895380D02*
X154988428Y-90895380D01*
X154702714Y-90895380D02*
X154702714Y-89895380D01*
X154797952Y-90038238D01*
X154893190Y-90133476D01*
X154988428Y-90181095D01*
X213312904Y-96674000D02*
X213408142Y-96626380D01*
X213551000Y-96626380D01*
X213693857Y-96674000D01*
X213789095Y-96769238D01*
X213836714Y-96864476D01*
X213884333Y-97054952D01*
X213884333Y-97197809D01*
X213836714Y-97388285D01*
X213789095Y-97483523D01*
X213693857Y-97578761D01*
X213551000Y-97626380D01*
X213455761Y-97626380D01*
X213312904Y-97578761D01*
X213265285Y-97531142D01*
X213265285Y-97197809D01*
X213455761Y-97197809D01*
X212836714Y-97626380D02*
X212836714Y-96626380D01*
X212265285Y-97626380D01*
X212265285Y-96626380D01*
X211789095Y-97626380D02*
X211789095Y-96626380D01*
X211551000Y-96626380D01*
X211408142Y-96674000D01*
X211312904Y-96769238D01*
X211265285Y-96864476D01*
X211217666Y-97054952D01*
X211217666Y-97197809D01*
X211265285Y-97388285D01*
X211312904Y-97483523D01*
X211408142Y-97578761D01*
X211551000Y-97626380D01*
X211789095Y-97626380D01*
X109006380Y-120732476D02*
X109006380Y-120542000D01*
X109054000Y-120446761D01*
X109101619Y-120399142D01*
X109244476Y-120303904D01*
X109434952Y-120256285D01*
X109815904Y-120256285D01*
X109911142Y-120303904D01*
X109958761Y-120351523D01*
X110006380Y-120446761D01*
X110006380Y-120637238D01*
X109958761Y-120732476D01*
X109911142Y-120780095D01*
X109815904Y-120827714D01*
X109577809Y-120827714D01*
X109482571Y-120780095D01*
X109434952Y-120732476D01*
X109387333Y-120637238D01*
X109387333Y-120446761D01*
X109434952Y-120351523D01*
X109482571Y-120303904D01*
X109577809Y-120256285D01*
X216710380Y-123404285D02*
X217710380Y-123737619D01*
X216710380Y-124070952D01*
X217710380Y-124928095D02*
X217710380Y-124356666D01*
X217710380Y-124642380D02*
X216710380Y-124642380D01*
X216853238Y-124547142D01*
X216948476Y-124451904D01*
X216996095Y-124356666D01*
X217710380Y-125880476D02*
X217710380Y-125309047D01*
X217710380Y-125594761D02*
X216710380Y-125594761D01*
X216853238Y-125499523D01*
X216948476Y-125404285D01*
X216996095Y-125309047D01*
D14*
X165281600Y-100872723D02*
X165242895Y-100795314D01*
X165242895Y-100679200D01*
X165281600Y-100563085D01*
X165359009Y-100485676D01*
X165436419Y-100446971D01*
X165591238Y-100408266D01*
X165707352Y-100408266D01*
X165862171Y-100446971D01*
X165939580Y-100485676D01*
X166016990Y-100563085D01*
X166055695Y-100679200D01*
X166055695Y-100756609D01*
X166016990Y-100872723D01*
X165978285Y-100911428D01*
X165707352Y-100911428D01*
X165707352Y-100756609D01*
X166055695Y-101259771D02*
X165242895Y-101259771D01*
X166055695Y-101724228D01*
X165242895Y-101724228D01*
X166055695Y-102111276D02*
X165242895Y-102111276D01*
X165242895Y-102304800D01*
X165281600Y-102420914D01*
X165359009Y-102498323D01*
X165436419Y-102537028D01*
X165591238Y-102575733D01*
X165707352Y-102575733D01*
X165862171Y-102537028D01*
X165939580Y-102498323D01*
X166016990Y-102420914D01*
X166055695Y-102304800D01*
X166055695Y-102111276D01*
D12*
X163608333Y-91911380D02*
X164179761Y-91911380D01*
X163894047Y-91911380D02*
X163894047Y-90911380D01*
X163989285Y-91054238D01*
X164084523Y-91149476D01*
X164179761Y-91197095D01*
X163179761Y-91530428D02*
X162417857Y-91530428D01*
X162798809Y-91911380D02*
X162798809Y-91149476D01*
X175435285Y-99023380D02*
X176006714Y-99023380D01*
X175721000Y-99023380D02*
X175721000Y-98023380D01*
X175816238Y-98166238D01*
X175911476Y-98261476D01*
X176006714Y-98309095D01*
X110089714Y-100150619D02*
X110042095Y-100103000D01*
X109946857Y-100055380D01*
X109708761Y-100055380D01*
X109613523Y-100103000D01*
X109565904Y-100150619D01*
X109518285Y-100245857D01*
X109518285Y-100341095D01*
X109565904Y-100483952D01*
X110137333Y-101055380D01*
X109518285Y-101055380D01*
X113498952Y-126542761D02*
X113451333Y-126447523D01*
X113403714Y-126399904D01*
X113308476Y-126352285D01*
X113260857Y-126352285D01*
X113165619Y-126399904D01*
X113118000Y-126447523D01*
X113070380Y-126542761D01*
X113070380Y-126733238D01*
X113118000Y-126828476D01*
X113165619Y-126876095D01*
X113260857Y-126923714D01*
X113308476Y-126923714D01*
X113403714Y-126876095D01*
X113451333Y-126828476D01*
X113498952Y-126733238D01*
X113498952Y-126542761D01*
X113546571Y-126447523D01*
X113594190Y-126399904D01*
X113689428Y-126352285D01*
X113879904Y-126352285D01*
X113975142Y-126399904D01*
X114022761Y-126447523D01*
X114070380Y-126542761D01*
X114070380Y-126733238D01*
X114022761Y-126828476D01*
X113975142Y-126876095D01*
X113879904Y-126923714D01*
X113689428Y-126923714D01*
X113594190Y-126876095D01*
X113546571Y-126828476D01*
X113498952Y-126733238D01*
X212879380Y-145504476D02*
X213879380Y-145837809D01*
X212879380Y-146171142D01*
X212974619Y-146456857D02*
X212927000Y-146504476D01*
X212879380Y-146599714D01*
X212879380Y-146837809D01*
X212927000Y-146933047D01*
X212974619Y-146980666D01*
X213069857Y-147028285D01*
X213165095Y-147028285D01*
X213307952Y-146980666D01*
X213879380Y-146409238D01*
X213879380Y-147028285D01*
X113149714Y-114636476D02*
X113816380Y-114636476D01*
X112768761Y-114398380D02*
X113483047Y-114160285D01*
X113483047Y-114779333D01*
X216533380Y-139686476D02*
X217533380Y-140019809D01*
X216533380Y-140353142D01*
X216533380Y-140591238D02*
X216533380Y-141210285D01*
X216914333Y-140876952D01*
X216914333Y-141019809D01*
X216961952Y-141115047D01*
X217009571Y-141162666D01*
X217104809Y-141210285D01*
X217342904Y-141210285D01*
X217438142Y-141162666D01*
X217485761Y-141115047D01*
X217533380Y-141019809D01*
X217533380Y-140734095D01*
X217485761Y-140638857D01*
X217438142Y-140591238D01*
X212892380Y-128908285D02*
X213892380Y-129241619D01*
X212892380Y-129574952D01*
X213892380Y-130432095D02*
X213892380Y-129860666D01*
X213892380Y-130146380D02*
X212892380Y-130146380D01*
X213035238Y-130051142D01*
X213130476Y-129955904D01*
X213178095Y-129860666D01*
X212892380Y-131051142D02*
X212892380Y-131146380D01*
X212940000Y-131241619D01*
X212987619Y-131289238D01*
X213082857Y-131336857D01*
X213273333Y-131384476D01*
X213511428Y-131384476D01*
X213701904Y-131336857D01*
X213797142Y-131289238D01*
X213844761Y-131241619D01*
X213892380Y-131146380D01*
X213892380Y-131051142D01*
X213844761Y-130955904D01*
X213797142Y-130908285D01*
X213701904Y-130860666D01*
X213511428Y-130813047D01*
X213273333Y-130813047D01*
X213082857Y-130860666D01*
X212987619Y-130908285D01*
X212940000Y-130955904D01*
X212892380Y-131051142D01*
X158829952Y-92038428D02*
X158068047Y-92038428D01*
X216456380Y-119610095D02*
X216456380Y-120181523D01*
X217456380Y-119895809D02*
X216456380Y-119895809D01*
X217456380Y-121038666D02*
X217456380Y-120467238D01*
X217456380Y-120752952D02*
X216456380Y-120752952D01*
X216599238Y-120657714D01*
X216694476Y-120562476D01*
X216742095Y-120467238D01*
X118906380Y-106144523D02*
X118906380Y-105573095D01*
X118906380Y-105858809D02*
X117906380Y-105858809D01*
X118049238Y-105763571D01*
X118144476Y-105668333D01*
X118192095Y-105573095D01*
X118001619Y-106525476D02*
X117954000Y-106573095D01*
X117906380Y-106668333D01*
X117906380Y-106906428D01*
X117954000Y-107001666D01*
X118001619Y-107049285D01*
X118096857Y-107096904D01*
X118192095Y-107096904D01*
X118334952Y-107049285D01*
X118906380Y-106477857D01*
X118906380Y-107096904D01*
X181848714Y-91895619D02*
X181801095Y-91848000D01*
X181705857Y-91800380D01*
X181467761Y-91800380D01*
X181372523Y-91848000D01*
X181324904Y-91895619D01*
X181277285Y-91990857D01*
X181277285Y-92086095D01*
X181324904Y-92228952D01*
X181896333Y-92800380D01*
X181277285Y-92800380D01*
X209050619Y-100317285D02*
X209003000Y-100364904D01*
X208955380Y-100460142D01*
X208955380Y-100698238D01*
X209003000Y-100793476D01*
X209050619Y-100841095D01*
X209145857Y-100888714D01*
X209241095Y-100888714D01*
X209383952Y-100841095D01*
X209955380Y-100269666D01*
X209955380Y-100888714D01*
X209254000Y-124010095D02*
X209206380Y-123914857D01*
X209206380Y-123772000D01*
X209254000Y-123629142D01*
X209349238Y-123533904D01*
X209444476Y-123486285D01*
X209634952Y-123438666D01*
X209777809Y-123438666D01*
X209968285Y-123486285D01*
X210063523Y-123533904D01*
X210158761Y-123629142D01*
X210206380Y-123772000D01*
X210206380Y-123867238D01*
X210158761Y-124010095D01*
X210111142Y-124057714D01*
X209777809Y-124057714D01*
X209777809Y-123867238D01*
X210206380Y-124486285D02*
X209206380Y-124486285D01*
X210206380Y-125057714D01*
X209206380Y-125057714D01*
X210206380Y-125533904D02*
X209206380Y-125533904D01*
X209206380Y-125772000D01*
X209254000Y-125914857D01*
X209349238Y-126010095D01*
X209444476Y-126057714D01*
X209634952Y-126105333D01*
X209777809Y-126105333D01*
X209968285Y-126057714D01*
X210063523Y-126010095D01*
X210158761Y-125914857D01*
X210206380Y-125772000D01*
X210206380Y-125533904D01*
X213006380Y-137376476D02*
X214006380Y-137709809D01*
X213006380Y-138043142D01*
X213006380Y-138805047D02*
X213006380Y-138614571D01*
X213054000Y-138519333D01*
X213101619Y-138471714D01*
X213244476Y-138376476D01*
X213434952Y-138328857D01*
X213815904Y-138328857D01*
X213911142Y-138376476D01*
X213958761Y-138424095D01*
X214006380Y-138519333D01*
X214006380Y-138709809D01*
X213958761Y-138805047D01*
X213911142Y-138852666D01*
X213815904Y-138900285D01*
X213577809Y-138900285D01*
X213482571Y-138852666D01*
X213434952Y-138805047D01*
X213387333Y-138709809D01*
X213387333Y-138519333D01*
X213434952Y-138424095D01*
X213482571Y-138376476D01*
X213577809Y-138328857D01*
X177459285Y-103214380D02*
X177459285Y-102214380D01*
X177030714Y-103214380D02*
X177030714Y-102690571D01*
X177078333Y-102595333D01*
X177173571Y-102547714D01*
X177316428Y-102547714D01*
X177411666Y-102595333D01*
X177459285Y-102642952D01*
X168624761Y-91006619D02*
X168577142Y-90959000D01*
X168481904Y-90911380D01*
X168243809Y-90911380D01*
X168148571Y-90959000D01*
X168100952Y-91006619D01*
X168053333Y-91101857D01*
X168053333Y-91197095D01*
X168100952Y-91339952D01*
X168672380Y-91911380D01*
X168053333Y-91911380D01*
X167624761Y-91530428D02*
X166862857Y-91530428D01*
X167243809Y-91911380D02*
X167243809Y-91149476D01*
X110006380Y-144481523D02*
X110006380Y-143910095D01*
X110006380Y-144195809D02*
X109006380Y-144195809D01*
X109149238Y-144100571D01*
X109244476Y-144005333D01*
X109292095Y-143910095D01*
X109006380Y-145386285D02*
X109006380Y-144910095D01*
X109482571Y-144862476D01*
X109434952Y-144910095D01*
X109387333Y-145005333D01*
X109387333Y-145243428D01*
X109434952Y-145338666D01*
X109482571Y-145386285D01*
X109577809Y-145433904D01*
X109815904Y-145433904D01*
X109911142Y-145386285D01*
X109958761Y-145338666D01*
X110006380Y-145243428D01*
X110006380Y-145005333D01*
X109958761Y-144910095D01*
X109911142Y-144862476D01*
X183630190Y-95874380D02*
X183630190Y-94874380D01*
X183392095Y-94874380D01*
X183249238Y-94922000D01*
X183154000Y-95017238D01*
X183106380Y-95112476D01*
X183058761Y-95302952D01*
X183058761Y-95445809D01*
X183106380Y-95636285D01*
X183154000Y-95731523D01*
X183249238Y-95826761D01*
X183392095Y-95874380D01*
X183630190Y-95874380D01*
X182630190Y-95874380D02*
X182630190Y-95207714D01*
X182630190Y-94874380D02*
X182677809Y-94922000D01*
X182630190Y-94969619D01*
X182582571Y-94922000D01*
X182630190Y-94874380D01*
X182630190Y-94969619D01*
X181725428Y-95207714D02*
X181725428Y-96017238D01*
X181773047Y-96112476D01*
X181820666Y-96160095D01*
X181915904Y-96207714D01*
X182058761Y-96207714D01*
X182154000Y-96160095D01*
X181725428Y-95826761D02*
X181820666Y-95874380D01*
X182011142Y-95874380D01*
X182106380Y-95826761D01*
X182154000Y-95779142D01*
X182201619Y-95683904D01*
X182201619Y-95398190D01*
X182154000Y-95302952D01*
X182106380Y-95255333D01*
X182011142Y-95207714D01*
X181820666Y-95207714D01*
X181725428Y-95255333D01*
X181249238Y-95874380D02*
X181249238Y-95207714D01*
X181249238Y-94874380D02*
X181296857Y-94922000D01*
X181249238Y-94969619D01*
X181201619Y-94922000D01*
X181249238Y-94874380D01*
X181249238Y-94969619D01*
X180915904Y-95207714D02*
X180534952Y-95207714D01*
X180773047Y-94874380D02*
X180773047Y-95731523D01*
X180725428Y-95826761D01*
X180630190Y-95874380D01*
X180534952Y-95874380D01*
X179773047Y-95874380D02*
X179773047Y-95350571D01*
X179820666Y-95255333D01*
X179915904Y-95207714D01*
X180106380Y-95207714D01*
X180201619Y-95255333D01*
X179773047Y-95826761D02*
X179868285Y-95874380D01*
X180106380Y-95874380D01*
X180201619Y-95826761D01*
X180249238Y-95731523D01*
X180249238Y-95636285D01*
X180201619Y-95541047D01*
X180106380Y-95493428D01*
X179868285Y-95493428D01*
X179773047Y-95445809D01*
X179154000Y-95874380D02*
X179249238Y-95826761D01*
X179296857Y-95731523D01*
X179296857Y-94874380D01*
X178058761Y-94826761D02*
X178915904Y-96112476D01*
X177725428Y-95874380D02*
X177725428Y-94874380D01*
X177725428Y-95350571D02*
X177154000Y-95350571D01*
X177154000Y-95874380D02*
X177154000Y-94874380D01*
X176249238Y-95874380D02*
X176249238Y-95350571D01*
X176296857Y-95255333D01*
X176392095Y-95207714D01*
X176582571Y-95207714D01*
X176677809Y-95255333D01*
X176249238Y-95826761D02*
X176344476Y-95874380D01*
X176582571Y-95874380D01*
X176677809Y-95826761D01*
X176725428Y-95731523D01*
X176725428Y-95636285D01*
X176677809Y-95541047D01*
X176582571Y-95493428D01*
X176344476Y-95493428D01*
X176249238Y-95445809D01*
X175630190Y-95874380D02*
X175725428Y-95826761D01*
X175773047Y-95731523D01*
X175773047Y-94874380D01*
X175106380Y-95874380D02*
X175201619Y-95826761D01*
X175249238Y-95731523D01*
X175249238Y-94874380D01*
X173963523Y-95874380D02*
X173963523Y-94874380D01*
X173487333Y-95207714D02*
X173487333Y-95874380D01*
X173487333Y-95302952D02*
X173439714Y-95255333D01*
X173344476Y-95207714D01*
X173201619Y-95207714D01*
X173106380Y-95255333D01*
X173058761Y-95350571D01*
X173058761Y-95874380D01*
X172582571Y-95207714D02*
X172582571Y-96207714D01*
X172582571Y-95255333D02*
X172487333Y-95207714D01*
X172296857Y-95207714D01*
X172201619Y-95255333D01*
X172154000Y-95302952D01*
X172106380Y-95398190D01*
X172106380Y-95683904D01*
X172154000Y-95779142D01*
X172201619Y-95826761D01*
X172296857Y-95874380D01*
X172487333Y-95874380D01*
X172582571Y-95826761D01*
X171249238Y-95207714D02*
X171249238Y-95874380D01*
X171677809Y-95207714D02*
X171677809Y-95731523D01*
X171630190Y-95826761D01*
X171534952Y-95874380D01*
X171392095Y-95874380D01*
X171296857Y-95826761D01*
X171249238Y-95779142D01*
X170915904Y-95207714D02*
X170534952Y-95207714D01*
X170773047Y-94874380D02*
X170773047Y-95731523D01*
X170725428Y-95826761D01*
X170630190Y-95874380D01*
X170534952Y-95874380D01*
X116411904Y-120042000D02*
X116507142Y-119994380D01*
X116650000Y-119994380D01*
X116792857Y-120042000D01*
X116888095Y-120137238D01*
X116935714Y-120232476D01*
X116983333Y-120422952D01*
X116983333Y-120565809D01*
X116935714Y-120756285D01*
X116888095Y-120851523D01*
X116792857Y-120946761D01*
X116650000Y-120994380D01*
X116554761Y-120994380D01*
X116411904Y-120946761D01*
X116364285Y-120899142D01*
X116364285Y-120565809D01*
X116554761Y-120565809D01*
X115935714Y-120994380D02*
X115935714Y-119994380D01*
X115364285Y-120994380D01*
X115364285Y-119994380D01*
X114888095Y-120994380D02*
X114888095Y-119994380D01*
X114650000Y-119994380D01*
X114507142Y-120042000D01*
X114411904Y-120137238D01*
X114364285Y-120232476D01*
X114316666Y-120422952D01*
X114316666Y-120565809D01*
X114364285Y-120756285D01*
X114411904Y-120851523D01*
X114507142Y-120946761D01*
X114650000Y-120994380D01*
X114888095Y-120994380D01*
X113943380Y-134321523D02*
X113943380Y-133750095D01*
X113943380Y-134035809D02*
X112943380Y-134035809D01*
X113086238Y-133940571D01*
X113181476Y-133845333D01*
X113229095Y-133750095D01*
X113038619Y-134702476D02*
X112991000Y-134750095D01*
X112943380Y-134845333D01*
X112943380Y-135083428D01*
X112991000Y-135178666D01*
X113038619Y-135226285D01*
X113133857Y-135273904D01*
X113229095Y-135273904D01*
X113371952Y-135226285D01*
X113943380Y-134654857D01*
X113943380Y-135273904D01*
X114070380Y-130257523D02*
X114070380Y-129686095D01*
X114070380Y-129971809D02*
X113070380Y-129971809D01*
X113213238Y-129876571D01*
X113308476Y-129781333D01*
X113356095Y-129686095D01*
X113070380Y-130876571D02*
X113070380Y-130971809D01*
X113118000Y-131067047D01*
X113165619Y-131114666D01*
X113260857Y-131162285D01*
X113451333Y-131209904D01*
X113689428Y-131209904D01*
X113879904Y-131162285D01*
X113975142Y-131114666D01*
X114022761Y-131067047D01*
X114070380Y-130971809D01*
X114070380Y-130876571D01*
X114022761Y-130781333D01*
X113975142Y-130733714D01*
X113879904Y-130686095D01*
X113689428Y-130638476D01*
X113451333Y-130638476D01*
X113260857Y-130686095D01*
X113165619Y-130733714D01*
X113118000Y-130781333D01*
X113070380Y-130876571D01*
X119785380Y-146608714D02*
X119785380Y-146037285D01*
X119785380Y-146323000D02*
X118785380Y-146323000D01*
X118928238Y-146227761D01*
X119023476Y-146132523D01*
X119071095Y-146037285D01*
X112911619Y-110096285D02*
X112864000Y-110143904D01*
X112816380Y-110239142D01*
X112816380Y-110477238D01*
X112864000Y-110572476D01*
X112911619Y-110620095D01*
X113006857Y-110667714D01*
X113102095Y-110667714D01*
X113244952Y-110620095D01*
X113816380Y-110048666D01*
X113816380Y-110667714D01*
X109006380Y-124272666D02*
X109006380Y-124939333D01*
X110006380Y-124510761D01*
X179419904Y-98023380D02*
X179896095Y-98023380D01*
X179943714Y-98499571D01*
X179896095Y-98451952D01*
X179800857Y-98404333D01*
X179562761Y-98404333D01*
X179467523Y-98451952D01*
X179419904Y-98499571D01*
X179372285Y-98594809D01*
X179372285Y-98832904D01*
X179419904Y-98928142D01*
X179467523Y-98975761D01*
X179562761Y-99023380D01*
X179800857Y-99023380D01*
X179896095Y-98975761D01*
X179943714Y-98928142D01*
X216456380Y-127817476D02*
X217456380Y-128150809D01*
X216456380Y-128484142D01*
X217456380Y-128865095D02*
X217456380Y-129055571D01*
X217408761Y-129150809D01*
X217361142Y-129198428D01*
X217218285Y-129293666D01*
X217027809Y-129341285D01*
X216646857Y-129341285D01*
X216551619Y-129293666D01*
X216504000Y-129246047D01*
X216456380Y-129150809D01*
X216456380Y-128960333D01*
X216504000Y-128865095D01*
X216551619Y-128817476D01*
X216646857Y-128769857D01*
X216884952Y-128769857D01*
X216980190Y-128817476D01*
X217027809Y-128865095D01*
X217075428Y-128960333D01*
X217075428Y-129150809D01*
X217027809Y-129246047D01*
X216980190Y-129293666D01*
X216884952Y-129341285D01*
X173244523Y-92133714D02*
X173244523Y-92800380D01*
X173482619Y-91752761D02*
X173720714Y-92467047D01*
X173101666Y-92467047D01*
D16*
X107719476Y-117289857D02*
X107719476Y-116694619D01*
X106469476Y-116694619D01*
X107719476Y-117885095D02*
X107659952Y-117766047D01*
X107600428Y-117706523D01*
X107481380Y-117647000D01*
X107124238Y-117647000D01*
X107005190Y-117706523D01*
X106945666Y-117766047D01*
X106886142Y-117885095D01*
X106886142Y-118063666D01*
X106945666Y-118182714D01*
X107005190Y-118242238D01*
X107124238Y-118301761D01*
X107481380Y-118301761D01*
X107600428Y-118242238D01*
X107659952Y-118182714D01*
X107719476Y-118063666D01*
X107719476Y-117885095D01*
X106886142Y-118718428D02*
X107719476Y-118956523D01*
X107124238Y-119194619D01*
X107719476Y-119432714D01*
X106886142Y-119670809D01*
X107659952Y-120087476D02*
X107719476Y-120206523D01*
X107719476Y-120444619D01*
X107659952Y-120563666D01*
X107540904Y-120623190D01*
X107481380Y-120623190D01*
X107362333Y-120563666D01*
X107302809Y-120444619D01*
X107302809Y-120266047D01*
X107243285Y-120147000D01*
X107124238Y-120087476D01*
X107064714Y-120087476D01*
X106945666Y-120147000D01*
X106886142Y-120266047D01*
X106886142Y-120444619D01*
X106945666Y-120563666D01*
X107719476Y-121158904D02*
X106886142Y-121158904D01*
X106469476Y-121158904D02*
X106529000Y-121099380D01*
X106588523Y-121158904D01*
X106529000Y-121218428D01*
X106469476Y-121158904D01*
X106588523Y-121158904D01*
X107719476Y-122289857D02*
X106469476Y-122289857D01*
X107659952Y-122289857D02*
X107719476Y-122170809D01*
X107719476Y-121932714D01*
X107659952Y-121813666D01*
X107600428Y-121754142D01*
X107481380Y-121694619D01*
X107124238Y-121694619D01*
X107005190Y-121754142D01*
X106945666Y-121813666D01*
X106886142Y-121932714D01*
X106886142Y-122170809D01*
X106945666Y-122289857D01*
X107659952Y-123361285D02*
X107719476Y-123242238D01*
X107719476Y-123004142D01*
X107659952Y-122885095D01*
X107540904Y-122825571D01*
X107064714Y-122825571D01*
X106945666Y-122885095D01*
X106886142Y-123004142D01*
X106886142Y-123242238D01*
X106945666Y-123361285D01*
X107064714Y-123420809D01*
X107183761Y-123420809D01*
X107302809Y-122825571D01*
X106409952Y-124849380D02*
X108017095Y-123777952D01*
X107719476Y-125266047D02*
X106469476Y-125266047D01*
X106886142Y-125861285D02*
X107719476Y-125861285D01*
X107005190Y-125861285D02*
X106945666Y-125920809D01*
X106886142Y-126039857D01*
X106886142Y-126218428D01*
X106945666Y-126337476D01*
X107064714Y-126397000D01*
X107719476Y-126397000D01*
X106886142Y-126992238D02*
X107957571Y-126992238D01*
X108076619Y-126932714D01*
X108136142Y-126813666D01*
X108136142Y-126754142D01*
X106469476Y-126992238D02*
X106529000Y-126932714D01*
X106588523Y-126992238D01*
X106529000Y-127051761D01*
X106469476Y-126992238D01*
X106588523Y-126992238D01*
X107659952Y-128063666D02*
X107719476Y-127944619D01*
X107719476Y-127706523D01*
X107659952Y-127587476D01*
X107540904Y-127527952D01*
X107064714Y-127527952D01*
X106945666Y-127587476D01*
X106886142Y-127706523D01*
X106886142Y-127944619D01*
X106945666Y-128063666D01*
X107064714Y-128123190D01*
X107183761Y-128123190D01*
X107302809Y-127527952D01*
X107659952Y-129194619D02*
X107719476Y-129075571D01*
X107719476Y-128837476D01*
X107659952Y-128718428D01*
X107600428Y-128658904D01*
X107481380Y-128599380D01*
X107124238Y-128599380D01*
X107005190Y-128658904D01*
X106945666Y-128718428D01*
X106886142Y-128837476D01*
X106886142Y-129075571D01*
X106945666Y-129194619D01*
X106886142Y-129551761D02*
X106886142Y-130027952D01*
X106469476Y-129730333D02*
X107540904Y-129730333D01*
X107659952Y-129789857D01*
X107719476Y-129908904D01*
X107719476Y-130027952D01*
X107719476Y-130623190D02*
X107659952Y-130504142D01*
X107600428Y-130444619D01*
X107481380Y-130385095D01*
X107124238Y-130385095D01*
X107005190Y-130444619D01*
X106945666Y-130504142D01*
X106886142Y-130623190D01*
X106886142Y-130801761D01*
X106945666Y-130920809D01*
X107005190Y-130980333D01*
X107124238Y-131039857D01*
X107481380Y-131039857D01*
X107600428Y-130980333D01*
X107659952Y-130920809D01*
X107719476Y-130801761D01*
X107719476Y-130623190D01*
X107719476Y-131575571D02*
X106886142Y-131575571D01*
X107124238Y-131575571D02*
X107005190Y-131635095D01*
X106945666Y-131694619D01*
X106886142Y-131813666D01*
X106886142Y-131932714D01*
X106469476Y-133539857D02*
X106469476Y-133777952D01*
X106529000Y-133897000D01*
X106648047Y-134016047D01*
X106886142Y-134075571D01*
X107302809Y-134075571D01*
X107540904Y-134016047D01*
X107659952Y-133897000D01*
X107719476Y-133777952D01*
X107719476Y-133539857D01*
X107659952Y-133420809D01*
X107540904Y-133301761D01*
X107302809Y-133242238D01*
X106886142Y-133242238D01*
X106648047Y-133301761D01*
X106529000Y-133420809D01*
X106469476Y-133539857D01*
X106886142Y-135147000D02*
X107719476Y-135147000D01*
X106886142Y-134611285D02*
X107540904Y-134611285D01*
X107659952Y-134670809D01*
X107719476Y-134789857D01*
X107719476Y-134968428D01*
X107659952Y-135087476D01*
X107600428Y-135147000D01*
X106886142Y-135563666D02*
X106886142Y-136039857D01*
X106469476Y-135742238D02*
X107540904Y-135742238D01*
X107659952Y-135801761D01*
X107719476Y-135920809D01*
X107719476Y-136039857D01*
X106886142Y-136456523D02*
X108136142Y-136456523D01*
X106945666Y-136456523D02*
X106886142Y-136575571D01*
X106886142Y-136813666D01*
X106945666Y-136932714D01*
X107005190Y-136992238D01*
X107124238Y-137051761D01*
X107481380Y-137051761D01*
X107600428Y-136992238D01*
X107659952Y-136932714D01*
X107719476Y-136813666D01*
X107719476Y-136575571D01*
X107659952Y-136456523D01*
X106886142Y-138123190D02*
X107719476Y-138123190D01*
X106886142Y-137587476D02*
X107540904Y-137587476D01*
X107659952Y-137647000D01*
X107719476Y-137766047D01*
X107719476Y-137944619D01*
X107659952Y-138063666D01*
X107600428Y-138123190D01*
X106886142Y-138539857D02*
X106886142Y-139016047D01*
X106469476Y-138718428D02*
X107540904Y-138718428D01*
X107659952Y-138777952D01*
X107719476Y-138897000D01*
X107719476Y-139016047D01*
X107659952Y-139373190D02*
X107719476Y-139492238D01*
X107719476Y-139730333D01*
X107659952Y-139849380D01*
X107540904Y-139908904D01*
X107481380Y-139908904D01*
X107362333Y-139849380D01*
X107302809Y-139730333D01*
X107302809Y-139551761D01*
X107243285Y-139432714D01*
X107124238Y-139373190D01*
X107064714Y-139373190D01*
X106945666Y-139432714D01*
X106886142Y-139551761D01*
X106886142Y-139730333D01*
X106945666Y-139849380D01*
D12*
X208177380Y-100508000D02*
X207177380Y-100508000D01*
X208177380Y-101079428D02*
X207605952Y-100650857D01*
X207177380Y-101079428D02*
X207748809Y-100508000D01*
X207510714Y-101508000D02*
X208177380Y-101508000D01*
X207605952Y-101508000D02*
X207558333Y-101555619D01*
X207510714Y-101650857D01*
X207510714Y-101793714D01*
X207558333Y-101888952D01*
X207653571Y-101936571D01*
X208177380Y-101936571D01*
X208177380Y-102555619D02*
X208129761Y-102460380D01*
X208082142Y-102412761D01*
X207986904Y-102365142D01*
X207701190Y-102365142D01*
X207605952Y-102412761D01*
X207558333Y-102460380D01*
X207510714Y-102555619D01*
X207510714Y-102698476D01*
X207558333Y-102793714D01*
X207605952Y-102841333D01*
X207701190Y-102888952D01*
X207986904Y-102888952D01*
X208082142Y-102841333D01*
X208129761Y-102793714D01*
X208177380Y-102698476D01*
X208177380Y-102555619D01*
X208129761Y-103746095D02*
X208177380Y-103650857D01*
X208177380Y-103460380D01*
X208129761Y-103365142D01*
X208082142Y-103317523D01*
X207986904Y-103269904D01*
X207701190Y-103269904D01*
X207605952Y-103317523D01*
X207558333Y-103365142D01*
X207510714Y-103460380D01*
X207510714Y-103650857D01*
X207558333Y-103746095D01*
X208177380Y-104174666D02*
X207177380Y-104174666D01*
X207796428Y-104269904D02*
X208177380Y-104555619D01*
X207510714Y-104555619D02*
X207891666Y-104174666D01*
D13*
X121515904Y-85376761D02*
X121134952Y-85376761D01*
X120944476Y-85472000D01*
X120754000Y-85662476D01*
X120658761Y-86043428D01*
X120658761Y-86710095D01*
X120754000Y-87091047D01*
X120944476Y-87281523D01*
X121134952Y-87376761D01*
X121515904Y-87376761D01*
X121706380Y-87281523D01*
X121896857Y-87091047D01*
X121992095Y-86710095D01*
X121992095Y-86043428D01*
X121896857Y-85662476D01*
X121706380Y-85472000D01*
X121515904Y-85376761D01*
X119801619Y-85376761D02*
X119801619Y-86995809D01*
X119706380Y-87186285D01*
X119611142Y-87281523D01*
X119420666Y-87376761D01*
X119039714Y-87376761D01*
X118849238Y-87281523D01*
X118754000Y-87186285D01*
X118658761Y-86995809D01*
X118658761Y-85376761D01*
X117992095Y-85376761D02*
X116849238Y-85376761D01*
X117420666Y-87376761D02*
X117420666Y-85376761D01*
X116182571Y-87376761D02*
X116182571Y-85376761D01*
X115420666Y-85376761D01*
X115230190Y-85472000D01*
X115134952Y-85567238D01*
X115039714Y-85757714D01*
X115039714Y-86043428D01*
X115134952Y-86233904D01*
X115230190Y-86329142D01*
X115420666Y-86424380D01*
X116182571Y-86424380D01*
X114182571Y-85376761D02*
X114182571Y-86995809D01*
X114087333Y-87186285D01*
X113992095Y-87281523D01*
X113801619Y-87376761D01*
X113420666Y-87376761D01*
X113230190Y-87281523D01*
X113134952Y-87186285D01*
X113039714Y-86995809D01*
X113039714Y-85376761D01*
X112373047Y-85376761D02*
X111230190Y-85376761D01*
X111801619Y-87376761D02*
X111801619Y-85376761D01*
X110658761Y-87281523D02*
X110373047Y-87376761D01*
X109896857Y-87376761D01*
X109706380Y-87281523D01*
X109611142Y-87186285D01*
X109515904Y-86995809D01*
X109515904Y-86805333D01*
X109611142Y-86614857D01*
X109706380Y-86519619D01*
X109896857Y-86424380D01*
X110277809Y-86329142D01*
X110468285Y-86233904D01*
X110563523Y-86138666D01*
X110658761Y-85948190D01*
X110658761Y-85757714D01*
X110563523Y-85567238D01*
X110468285Y-85472000D01*
X110277809Y-85376761D01*
X109801619Y-85376761D01*
X109515904Y-85472000D01*
D12*
X113943380Y-142449523D02*
X113943380Y-141878095D01*
X113943380Y-142163809D02*
X112943380Y-142163809D01*
X113086238Y-142068571D01*
X113181476Y-141973333D01*
X113229095Y-141878095D01*
X112943380Y-143306666D02*
X112943380Y-143116190D01*
X112991000Y-143020952D01*
X113038619Y-142973333D01*
X113181476Y-142878095D01*
X113371952Y-142830476D01*
X113752904Y-142830476D01*
X113848142Y-142878095D01*
X113895761Y-142925714D01*
X113943380Y-143020952D01*
X113943380Y-143211428D01*
X113895761Y-143306666D01*
X113848142Y-143354285D01*
X113752904Y-143401904D01*
X113514809Y-143401904D01*
X113419571Y-143354285D01*
X113371952Y-143306666D01*
X113324333Y-143211428D01*
X113324333Y-143020952D01*
X113371952Y-142925714D01*
X113419571Y-142878095D01*
X113514809Y-142830476D01*
X216456380Y-144073476D02*
X217456380Y-144406809D01*
X216456380Y-144740142D01*
X217456380Y-145597285D02*
X217456380Y-145025857D01*
X217456380Y-145311571D02*
X216456380Y-145311571D01*
X216599238Y-145216333D01*
X216694476Y-145121095D01*
X216742095Y-145025857D01*
X212638380Y-121431095D02*
X212638380Y-122002523D01*
X213638380Y-121716809D02*
X212638380Y-121716809D01*
X212733619Y-122288238D02*
X212686000Y-122335857D01*
X212638380Y-122431095D01*
X212638380Y-122669190D01*
X212686000Y-122764428D01*
X212733619Y-122812047D01*
X212828857Y-122859666D01*
X212924095Y-122859666D01*
X213066952Y-122812047D01*
X213638380Y-122240619D01*
X213638380Y-122859666D01*
D14*
G04 #@! TO.C,J1*
X222707200Y-75664060D02*
G75*
G03*
X222707200Y-75664060I-381000J0D01*
G01*
D17*
G04 #@! TO.C,BRD1*
X147654000Y-99472000D02*
X147754000Y-91722000D01*
X185704000Y-103522000D02*
X185704000Y-95422000D01*
X117554000Y-143772000D02*
X113754000Y-145322000D01*
X161604000Y-95122000D02*
X161604000Y-88472000D01*
X218504000Y-106472000D02*
X221304000Y-106472000D01*
X214054000Y-104672000D02*
X217004000Y-104672000D01*
D18*
X199654000Y-160922000D02*
X199654000Y-84022000D01*
D17*
X217004000Y-112572000D02*
X218504000Y-114572000D01*
X105754000Y-109472000D02*
X105704000Y-147472000D01*
X173704000Y-105922000D02*
X169754000Y-105922000D01*
X218504000Y-102522000D02*
X217004000Y-104672000D01*
D18*
X135304000Y-81422000D02*
X135304000Y-113522000D01*
D17*
X113504000Y-107122000D02*
X110304000Y-105822000D01*
X206704000Y-100122000D02*
X210004000Y-98472000D01*
X210004000Y-95922000D02*
X214754000Y-95922000D01*
X185704000Y-103522000D02*
X173704000Y-103522000D01*
X117504000Y-95322000D02*
X116204000Y-95322000D01*
X221304000Y-118272000D02*
X223554000Y-118272000D01*
X223504000Y-147322000D02*
X208754000Y-147422000D01*
X116204000Y-95322000D02*
X109054000Y-95322000D01*
X185704000Y-91372000D02*
X185704000Y-95422000D01*
X170704000Y-88422000D02*
X171654000Y-91322000D01*
D18*
X135304000Y-113522000D02*
X196104000Y-113522000D01*
D17*
X159704000Y-97672000D02*
X160104000Y-99472000D01*
X122704000Y-147422000D02*
X122704000Y-99022000D01*
D18*
X99654000Y-84022000D02*
X131754000Y-84022000D01*
D17*
X214704000Y-97422000D02*
X218504000Y-102522000D01*
X206704000Y-104922000D02*
X206704000Y-100122000D01*
X153754000Y-88472000D02*
X153754000Y-95122000D01*
X212804000Y-102522000D02*
X214054000Y-104672000D01*
X217004000Y-104672000D02*
X218504000Y-106472000D01*
D18*
X99654000Y-160922000D02*
X131754000Y-160922000D01*
D17*
X221304000Y-99722000D02*
X223554000Y-99722000D01*
X167704000Y-98372000D02*
X168754000Y-99472000D01*
X169754000Y-92072000D02*
X171654000Y-91322000D01*
X221304000Y-114572000D02*
X221304000Y-118272000D01*
X209004000Y-122572000D02*
X211654000Y-122572000D01*
D18*
X99654000Y-84022000D02*
X99654000Y-160922000D01*
D17*
X208704000Y-126672000D02*
X209004000Y-122572000D01*
X155654000Y-95122000D02*
X155654000Y-99472000D01*
X166704000Y-99472000D02*
X167704000Y-98372000D01*
X212304000Y-114572000D02*
X214054000Y-112572000D01*
X209004000Y-122572000D02*
X209904000Y-114572000D01*
X148954000Y-105072000D02*
X148904000Y-99472000D01*
X147754000Y-91722000D02*
X153754000Y-91722000D01*
X122704000Y-99022000D02*
X117504000Y-99022000D01*
X223554000Y-94722000D02*
X214754000Y-94822000D01*
X218054000Y-116472000D02*
X217754000Y-147372000D01*
X209904000Y-106722000D02*
X206704000Y-104922000D01*
X168754000Y-99472000D02*
X185704000Y-99472000D01*
X212954000Y-126622000D02*
X208704000Y-126672000D01*
X209904000Y-114572000D02*
X212304000Y-114572000D01*
X214204000Y-124622000D02*
X212954000Y-126622000D01*
X167704000Y-98372000D02*
X167704000Y-96522000D01*
X117554000Y-136172000D02*
X113754000Y-137022000D01*
X209904000Y-114572000D02*
X209904000Y-106722000D01*
X117504000Y-95322000D02*
X117554000Y-136172000D01*
X210004000Y-98472000D02*
X213104000Y-98472000D01*
X169754000Y-105922000D02*
X169754000Y-99472000D01*
X113754000Y-137022000D02*
X113804000Y-140222000D01*
X214054000Y-112572000D02*
X217004000Y-112572000D01*
X213104000Y-98472000D02*
X214204000Y-100622000D01*
X117504000Y-102622000D02*
X122704000Y-102622000D01*
X153754000Y-99572000D02*
X153754000Y-105022000D01*
X161604000Y-99472000D02*
X161604000Y-103272000D01*
X169754000Y-103272000D02*
X153754000Y-103272000D01*
X210004000Y-98472000D02*
X210004000Y-95922000D01*
X160104000Y-99472000D02*
X166704000Y-99472000D01*
X221304000Y-106472000D02*
X221304000Y-99722000D01*
X214204000Y-100622000D02*
X212804000Y-102522000D01*
X159754000Y-95122000D02*
X159704000Y-97672000D01*
X153754000Y-105022000D02*
X148954000Y-105072000D01*
X215204000Y-101222000D02*
X213954000Y-97922000D01*
X117554000Y-109122000D02*
X113504000Y-108222000D01*
D18*
X231754000Y-84022000D02*
X199654000Y-84022000D01*
D17*
X208754000Y-147422000D02*
X208704000Y-126672000D01*
X173704000Y-99522000D02*
X173704000Y-105922000D01*
X113504000Y-108222000D02*
X113504000Y-107122000D01*
X212704000Y-106672000D02*
X209904000Y-106722000D01*
X113754000Y-145322000D02*
X113704000Y-147422000D01*
X113704000Y-147422000D02*
X122704000Y-147422000D01*
X113654000Y-123872000D02*
X113654000Y-116972000D01*
X160104000Y-99472000D02*
X147654000Y-99472000D01*
D18*
X131754000Y-84022000D02*
X131754000Y-160922000D01*
D17*
X218504000Y-114572000D02*
X221304000Y-114572000D01*
D18*
X196104000Y-113522000D02*
X196104000Y-81422000D01*
X231754000Y-160922000D02*
X231754000Y-84022000D01*
D17*
X223554000Y-94722000D02*
X223504000Y-147322000D01*
X113804000Y-140222000D02*
X117554000Y-141122000D01*
X109104000Y-104422000D02*
X105754000Y-109472000D01*
X169754000Y-94622000D02*
X169754000Y-92072000D01*
X214054000Y-104672000D02*
X212704000Y-106672000D01*
X218504000Y-114572000D02*
X218054000Y-116472000D01*
D18*
X231754000Y-160922000D02*
X199654000Y-160922000D01*
D17*
X167704000Y-96522000D02*
X169754000Y-94622000D01*
X105704000Y-147472000D02*
X113704000Y-147422000D01*
X153754000Y-95122000D02*
X161604000Y-95122000D01*
X110304000Y-105822000D02*
X109104000Y-104422000D01*
X214754000Y-94822000D02*
X214704000Y-97422000D01*
X109054000Y-95322000D02*
X109104000Y-104422000D01*
X117554000Y-141122000D02*
X117554000Y-143772000D01*
X117554000Y-125122000D02*
X113654000Y-123872000D01*
X153854000Y-88472000D02*
X170704000Y-88422000D01*
X211654000Y-122572000D02*
X214204000Y-124622000D01*
X113654000Y-116972000D02*
X117504000Y-115972000D01*
X171654000Y-91322000D02*
X185704000Y-91372000D01*
D18*
X196104000Y-81422000D02*
X135304000Y-81422000D01*
D16*
G04 #@! TO.C,M3*
X215767000Y-182638000D02*
X176617000Y-182638000D01*
X176617000Y-182638000D02*
X176617000Y-197538000D01*
X176617000Y-197538000D02*
X215767000Y-197538000D01*
X215767000Y-197538000D02*
X215767000Y-182638000D01*
G04 #@! TO.C,M2*
X168392668Y-184660499D02*
X168117662Y-184935503D01*
X167236460Y-195835499D02*
X174129337Y-195835499D01*
X168392668Y-184660499D02*
X174090490Y-184660499D01*
X174090490Y-184660499D02*
X174129337Y-195835499D01*
X167292663Y-184935503D02*
X167242663Y-184991705D01*
X167292663Y-184935503D02*
X168117662Y-184935503D01*
X167242663Y-184991705D02*
X167242663Y-195835499D01*
G04 #@! TO.C,M1*
X116677000Y-197788000D02*
X155827000Y-197788000D01*
X155827000Y-197788000D02*
X155827000Y-182888000D01*
X155827000Y-182888000D02*
X116677000Y-182888000D01*
X116677000Y-182888000D02*
X116677000Y-197788000D01*
G04 #@! TO.C,M4*
X164685337Y-195560498D02*
X163860338Y-195560498D01*
X163585332Y-195835502D02*
X157887510Y-195835502D01*
X163585332Y-195835502D02*
X163860338Y-195560498D01*
X157887510Y-195835502D02*
X157848663Y-184660502D01*
X164685337Y-195560498D02*
X164735337Y-195504296D01*
X164741540Y-184660502D02*
X157848663Y-184660502D01*
X164735337Y-195504296D02*
X164735337Y-184660502D01*
G04 #@! TD*
M02*
