G04 #@! TF.GenerationSoftware,KiCad,Pcbnew,(6.0.5)*
G04 #@! TF.CreationDate,2022-05-26T18:31:31+03:00*
G04 #@! TF.ProjectId,5.0mustangProteusPnP,352e306d-7573-4746-916e-6750726f7465,R0.1*
G04 #@! TF.SameCoordinates,Original*
G04 #@! TF.FileFunction,Soldermask,Bot*
G04 #@! TF.FilePolarity,Negative*
%FSLAX46Y46*%
G04 Gerber Fmt 4.6, Leading zero omitted, Abs format (unit mm)*
G04 Created by KiCad (PCBNEW (6.0.5)) date 2022-05-26 18:31:31*
%MOMM*%
%LPD*%
G01*
G04 APERTURE LIST*
G04 #@! TA.AperFunction,Profile*
%ADD10C,0.200000*%
G04 #@! TD*
%ADD11C,4.250152*%
%ADD12C,1.714652*%
%ADD13C,1.524152*%
%ADD14C,1.651152*%
%ADD15C,2.000152*%
%ADD16C,2.400152*%
%ADD17O,1.700152X1.700152*%
%ADD18C,0.600151*%
%ADD19O,1.950152X1.700152*%
G04 APERTURE END LIST*
D10*
X95885000Y-211201000D02*
X95885000Y-74627000D01*
X224406100Y-62865000D02*
X107638100Y-62865000D01*
X107638100Y-62865000D02*
X95885000Y-74627000D01*
X235585000Y-211201000D02*
X235585000Y-74627000D01*
X234315000Y-212471000D02*
G75*
G03*
X235585000Y-211201000I0J1270000D01*
G01*
X104235250Y-73977500D02*
G75*
G03*
X104235250Y-73977500I-2381250J0D01*
G01*
X224406100Y-62865000D02*
X235585000Y-74627000D01*
X95885000Y-211201000D02*
G75*
G03*
X97155000Y-212471000I1270000J0D01*
G01*
X234315000Y-212471000D02*
X97155000Y-212471000D01*
X231877750Y-73977500D02*
G75*
G03*
X231877750Y-73977500I-2381250J0D01*
G01*
D11*
G04 #@! TO.C,U1*
X219609800Y-67712200D03*
X112366800Y-67712200D03*
X165989000Y-82352200D03*
D12*
X214832200Y-66162200D03*
X210641400Y-66162200D03*
X206450600Y-66162200D03*
X202259800Y-66162200D03*
X198069000Y-66162200D03*
X193878200Y-66162200D03*
X189687400Y-66162200D03*
X185496600Y-66162200D03*
X181305800Y-66162200D03*
X177115000Y-66162200D03*
X157711000Y-66162200D03*
X153520200Y-66162200D03*
X149329400Y-66162200D03*
X145138600Y-66162200D03*
X140947800Y-66162200D03*
X136757000Y-66162200D03*
X132566200Y-66162200D03*
X128375400Y-66162200D03*
X124184600Y-66162200D03*
X119993800Y-66162200D03*
X213416200Y-69187200D03*
X209225400Y-69187200D03*
X205034600Y-69187200D03*
X200843800Y-69187200D03*
X196653000Y-69187200D03*
X192462200Y-69187200D03*
X188271400Y-69187200D03*
X184080600Y-69187200D03*
X179889800Y-69187200D03*
X175699000Y-69187200D03*
X156295000Y-69187200D03*
X152104200Y-69187200D03*
X147913400Y-69187200D03*
X143722600Y-69187200D03*
X139531800Y-69187200D03*
X135341000Y-69187200D03*
X131150200Y-69187200D03*
X126959400Y-69187200D03*
X122768600Y-69187200D03*
X118577800Y-69187200D03*
X212000200Y-72212200D03*
X207809400Y-72212200D03*
X203618600Y-72212200D03*
X199427800Y-72212200D03*
X195237000Y-72212200D03*
X191046200Y-72212200D03*
X186855400Y-72212200D03*
X182664600Y-72212200D03*
X178473800Y-72212200D03*
X174283000Y-72212200D03*
X154879000Y-72212200D03*
X150688200Y-72212200D03*
X146497400Y-72212200D03*
X142306600Y-72212200D03*
X138115800Y-72212200D03*
X133925000Y-72212200D03*
X129734200Y-72212200D03*
X125543400Y-72212200D03*
X121352600Y-72212200D03*
X117161800Y-72212200D03*
G04 #@! TD*
G04 #@! TO.C,J2*
G36*
G01*
X175267924Y-170012360D02*
X175267924Y-168488360D01*
G75*
G02*
X175268000Y-168488284I76J0D01*
G01*
X176792000Y-168488284D01*
G75*
G02*
X176792076Y-168488360I0J-76D01*
G01*
X176792076Y-170012360D01*
G75*
G02*
X176792000Y-170012436I-76J0D01*
G01*
X175268000Y-170012436D01*
G75*
G02*
X175267924Y-170012360I0J76D01*
G01*
G37*
D13*
X176030000Y-166710360D03*
X178570000Y-169250360D03*
X178570000Y-166710360D03*
X181110000Y-169250360D03*
X181110000Y-166710360D03*
X183650000Y-169250360D03*
X183650000Y-166710360D03*
X186190000Y-169250360D03*
X186190000Y-166710360D03*
X188730000Y-169250360D03*
X188730000Y-166710360D03*
X191270000Y-169250360D03*
X191270000Y-166710360D03*
X193810000Y-169250360D03*
X193810000Y-166710360D03*
G04 #@! TD*
G04 #@! TO.C,J4*
G36*
G01*
X137061334Y-170012360D02*
X137061334Y-168488360D01*
G75*
G02*
X137061410Y-168488284I76J0D01*
G01*
X138585410Y-168488284D01*
G75*
G02*
X138585486Y-168488360I0J-76D01*
G01*
X138585486Y-170012360D01*
G75*
G02*
X138585410Y-170012436I-76J0D01*
G01*
X137061410Y-170012436D01*
G75*
G02*
X137061334Y-170012360I0J76D01*
G01*
G37*
X137823410Y-166710360D03*
X140363410Y-169250360D03*
X140363410Y-166710360D03*
X142903410Y-169250360D03*
X142903410Y-166710360D03*
X145443410Y-169250360D03*
X145443410Y-166710360D03*
X147983410Y-169250360D03*
X147983410Y-166710360D03*
X150523410Y-169250360D03*
X150523410Y-166710360D03*
X153063410Y-169250360D03*
X153063410Y-166710360D03*
X155603410Y-169250360D03*
X155603410Y-166710360D03*
G04 #@! TD*
D14*
G04 #@! TO.C,J1*
X222326200Y-77569060D03*
X219786200Y-77569060D03*
X217246200Y-77569060D03*
G04 #@! TD*
D15*
G04 #@! TO.C,BRD1*
X104904000Y-154172000D03*
X123004000Y-89272000D03*
X123004000Y-155672000D03*
X142004000Y-86672000D03*
X190904000Y-104772000D03*
X226504000Y-90772000D03*
X140504000Y-104772000D03*
X208404000Y-89272000D03*
X189404000Y-86672000D03*
X226504000Y-154172000D03*
X208404000Y-155672000D03*
X104904000Y-90772000D03*
D16*
X111704000Y-100472000D03*
X111704000Y-104472000D03*
X111704000Y-108472000D03*
X111704000Y-112472000D03*
X111704000Y-116472000D03*
X111704000Y-120472000D03*
X111704000Y-124472000D03*
X111704000Y-128472000D03*
X111704000Y-132472000D03*
X111704000Y-136472000D03*
X111704000Y-140472000D03*
X111704000Y-144472000D03*
X115704000Y-102472000D03*
X115704000Y-106472000D03*
X115704000Y-110472000D03*
X115704000Y-114472000D03*
X115704000Y-118472000D03*
X115704000Y-122472000D03*
X115704000Y-126472000D03*
X115704000Y-130472000D03*
X115704000Y-134472000D03*
X115704000Y-138472000D03*
X115704000Y-142472000D03*
X119704000Y-100472000D03*
X119704000Y-104472000D03*
X119704000Y-108472000D03*
X119704000Y-112472000D03*
X119704000Y-116472000D03*
X119704000Y-120472000D03*
X119704000Y-124472000D03*
X119704000Y-128472000D03*
X119704000Y-132472000D03*
X119704000Y-136472000D03*
X119704000Y-140472000D03*
X119704000Y-144472000D03*
X179704000Y-93472000D03*
X175704000Y-93472000D03*
X171704000Y-93472000D03*
X167704000Y-93472000D03*
X163704000Y-93472000D03*
X159704000Y-93472000D03*
X155704000Y-93472000D03*
X151704000Y-93472000D03*
X177704000Y-97472000D03*
X173704000Y-97472000D03*
X169704000Y-97472000D03*
X165704000Y-97472000D03*
X161704000Y-97472000D03*
X157704000Y-97472000D03*
X153704000Y-97472000D03*
X179704000Y-101472000D03*
X175704000Y-101472000D03*
X171704000Y-101472000D03*
X167704000Y-101472000D03*
X163704000Y-101472000D03*
X159704000Y-101472000D03*
X155704000Y-101472000D03*
X151704000Y-101472000D03*
X219704000Y-144472000D03*
X219704000Y-140472000D03*
X219704000Y-136472000D03*
X219704000Y-132472000D03*
X219704000Y-128472000D03*
X219704000Y-124472000D03*
X219704000Y-120472000D03*
X219704000Y-116472000D03*
X219704000Y-112472000D03*
X219704000Y-108472000D03*
X219704000Y-104472000D03*
X219704000Y-100472000D03*
X215704000Y-142472000D03*
X215704000Y-138472000D03*
X215704000Y-134472000D03*
X215704000Y-130472000D03*
X215704000Y-126472000D03*
X215704000Y-122472000D03*
X215704000Y-118472000D03*
X215704000Y-114472000D03*
X215704000Y-110472000D03*
X215704000Y-106472000D03*
X215704000Y-102472000D03*
X211704000Y-144472000D03*
X211704000Y-140472000D03*
X211704000Y-136472000D03*
X211704000Y-132472000D03*
X211704000Y-128472000D03*
X211704000Y-124472000D03*
X211704000Y-120472000D03*
X211704000Y-116472000D03*
X211704000Y-112472000D03*
X211704000Y-108472000D03*
X211704000Y-104472000D03*
X211704000Y-100472000D03*
G04 #@! TD*
G04 #@! TO.C,J13*
G36*
G01*
X142328000Y-180174076D02*
X140628000Y-180174076D01*
G75*
G02*
X140627924Y-180174000I0J76D01*
G01*
X140627924Y-178474000D01*
G75*
G02*
X140628000Y-178473924I76J0D01*
G01*
X142328000Y-178473924D01*
G75*
G02*
X142328076Y-178474000I0J-76D01*
G01*
X142328076Y-180174000D01*
G75*
G02*
X142328000Y-180174076I-76J0D01*
G01*
G37*
D17*
X144018000Y-179324000D03*
X146558000Y-179324000D03*
X149098000Y-179324000D03*
X151638000Y-179324000D03*
X154178000Y-179324000D03*
G04 #@! TD*
D18*
G04 #@! TO.C,M2*
X168517662Y-192260499D03*
X169042662Y-191385497D03*
X169792660Y-192560501D03*
X173342661Y-192485498D03*
G04 #@! TD*
G04 #@! TO.C,J7*
G36*
G01*
X106717000Y-177756924D02*
X108167000Y-177756924D01*
G75*
G02*
X108417076Y-178007000I0J-250076D01*
G01*
X108417076Y-179207000D01*
G75*
G02*
X108167000Y-179457076I-250076J0D01*
G01*
X106717000Y-179457076D01*
G75*
G02*
X106466924Y-179207000I0J250076D01*
G01*
X106466924Y-178007000D01*
G75*
G02*
X106717000Y-177756924I250076J0D01*
G01*
G37*
D19*
X107442000Y-181107000D03*
X107442000Y-183607000D03*
X107442000Y-186107000D03*
X107442000Y-188607000D03*
X107442000Y-191107000D03*
X107442000Y-193607000D03*
X107442000Y-196107000D03*
X107442000Y-198607000D03*
X107442000Y-201107000D03*
G04 #@! TD*
D18*
G04 #@! TO.C,M4*
X163460338Y-188235502D03*
X162935338Y-189110504D03*
X162185340Y-187935500D03*
X158635339Y-188010503D03*
G04 #@! TD*
G04 #@! TO.C,J3*
G36*
G01*
X190539000Y-199936924D02*
X192239000Y-199936924D01*
G75*
G02*
X192239076Y-199937000I0J-76D01*
G01*
X192239076Y-201637000D01*
G75*
G02*
X192239000Y-201637076I-76J0D01*
G01*
X190539000Y-201637076D01*
G75*
G02*
X190538924Y-201637000I0J76D01*
G01*
X190538924Y-199937000D01*
G75*
G02*
X190539000Y-199936924I76J0D01*
G01*
G37*
D17*
X188849000Y-200787000D03*
X186309000Y-200787000D03*
X183769000Y-200787000D03*
X181229000Y-200787000D03*
X178689000Y-200787000D03*
G04 #@! TD*
G04 #@! TO.C,J10*
G36*
G01*
X224753000Y-201957076D02*
X223303000Y-201957076D01*
G75*
G02*
X223052924Y-201707000I0J250076D01*
G01*
X223052924Y-200507000D01*
G75*
G02*
X223303000Y-200256924I250076J0D01*
G01*
X224753000Y-200256924D01*
G75*
G02*
X225003076Y-200507000I0J-250076D01*
G01*
X225003076Y-201707000D01*
G75*
G02*
X224753000Y-201957076I-250076J0D01*
G01*
G37*
D19*
X224028000Y-198607000D03*
X224028000Y-196107000D03*
X224028000Y-193607000D03*
X224028000Y-191107000D03*
X224028000Y-188607000D03*
X224028000Y-186107000D03*
X224028000Y-183607000D03*
X224028000Y-181107000D03*
X224028000Y-178607000D03*
G04 #@! TD*
M02*
