G75*
G70*
%OFA0B0*%
%FSLAX25Y25*%
%IPPOS*%
%LPD*%
%AMOC8*
5,1,8,0,0,1.08239X$1,22.5*
%
%AMM19*
21,1,0.035430,0.030320,0.000000,-0.000000,90.000000*
21,1,0.028350,0.037400,0.000000,-0.000000,90.000000*
1,1,0.007090,0.015160,0.014170*
1,1,0.007090,0.015160,-0.014170*
1,1,0.007090,-0.015160,-0.014170*
1,1,0.007090,-0.015160,0.014170*
%
%AMM20*
21,1,0.033470,0.026770,0.000000,-0.000000,270.000000*
21,1,0.026770,0.033470,0.000000,-0.000000,270.000000*
1,1,0.006690,-0.013390,-0.013390*
1,1,0.006690,-0.013390,0.013390*
1,1,0.006690,0.013390,0.013390*
1,1,0.006690,0.013390,-0.013390*
%
%AMM21*
21,1,0.027560,0.030710,0.000000,-0.000000,90.000000*
21,1,0.022050,0.036220,0.000000,-0.000000,90.000000*
1,1,0.005510,0.015350,0.011020*
1,1,0.005510,0.015350,-0.011020*
1,1,0.005510,-0.015350,-0.011020*
1,1,0.005510,-0.015350,0.011020*
%
%AMM7*
21,1,0.035430,0.030320,-0.000000,0.000000,270.000000*
21,1,0.028350,0.037400,-0.000000,0.000000,270.000000*
1,1,0.007090,-0.015160,-0.014170*
1,1,0.007090,-0.015160,0.014170*
1,1,0.007090,0.015160,0.014170*
1,1,0.007090,0.015160,-0.014170*
%
%AMM8*
21,1,0.033470,0.026770,-0.000000,0.000000,90.000000*
21,1,0.026770,0.033470,-0.000000,0.000000,90.000000*
1,1,0.006690,0.013390,0.013390*
1,1,0.006690,0.013390,-0.013390*
1,1,0.006690,-0.013390,-0.013390*
1,1,0.006690,-0.013390,0.013390*
%
%AMM9*
21,1,0.027560,0.030710,-0.000000,0.000000,270.000000*
21,1,0.022050,0.036220,-0.000000,0.000000,270.000000*
1,1,0.005510,-0.015350,-0.011020*
1,1,0.005510,-0.015350,0.011020*
1,1,0.005510,0.015350,0.011020*
1,1,0.005510,0.015350,-0.011020*
%
%ADD10C,0.00787*%
%ADD116M7*%
%ADD117O,0.02362X0.08661*%
%ADD118M8*%
%ADD119M9*%
%ADD130M19*%
%ADD131M20*%
%ADD132M21*%
%ADD33C,0.02362*%
%ADD55O,0.00000X0.00000*%
%ADD70R,0.03543X0.03150*%
%ADD71R,0.05709X0.01772*%
%ADD72R,0.04724X0.08661*%
%ADD74R,0.04803X0.02559*%
%ADD75R,0.03150X0.03543*%
%ADD79R,0.10827X0.12008*%
X0000000Y0000000D02*
%LPD*%
G01*
D10*
X0000000Y0005000D02*
X0000000Y0542693D01*
X0505989Y0589000D02*
X0046272Y0589000D01*
X0046272Y0589000D02*
X0000000Y0542693D01*
X0550000Y0005000D02*
X0550000Y0542693D01*
X0545000Y0000000D02*
G75*
G03*
X0550000Y0005000I0000000J0005000D01*
G01*
X0032875Y0545250D02*
G75*
G03*
X0032875Y0545250I-009375J0000000D01*
G01*
X0505989Y0589000D02*
X0550000Y0542693D01*
X0000000Y0005000D02*
G75*
G03*
X0005000Y0000000I0005000J0000000D01*
G01*
X0545000Y0000000D02*
X0005000Y0000000D01*
X0535405Y0545250D02*
G75*
G03*
X0535405Y0545250I-009375J0000000D01*
G01*
D55*
X0281625Y0084785D03*
X0270375Y0090199D03*
X0236386Y0116862D02*
%LPD*%
G01*
G36*
G01*
X0167793Y0080563D02*
X0169152Y0080563D01*
G75*
G02*
X0169732Y0079982I0000000J-000581D01*
G01*
X0169732Y0078821D01*
G75*
G02*
X0169152Y0078240I-000581J0000000D01*
G01*
X0167793Y0078240D01*
G75*
G02*
X0167213Y0078821I0000000J0000581D01*
G01*
X0167213Y0079982D01*
G75*
G02*
X0167793Y0080563I0000581J0000000D01*
G01*
G37*
G36*
G01*
X0167793Y0076744D02*
X0169152Y0076744D01*
G75*
G02*
X0169732Y0076163I0000000J-000581D01*
G01*
X0169732Y0075002D01*
G75*
G02*
X0169152Y0074421I-000581J0000000D01*
G01*
X0167793Y0074421D01*
G75*
G02*
X0167213Y0075002I0000000J0000581D01*
G01*
X0167213Y0076163D01*
G75*
G02*
X0167793Y0076744I0000581J0000000D01*
G01*
G37*
G36*
G01*
X0132971Y0105220D02*
X0132971Y0106579D01*
G75*
G02*
X0133551Y0107159I0000581J0000000D01*
G01*
X0134713Y0107159D01*
G75*
G02*
X0135293Y0106579I0000000J-000581D01*
G01*
X0135293Y0105220D01*
G75*
G02*
X0134713Y0104640I-000581J0000000D01*
G01*
X0133551Y0104640D01*
G75*
G02*
X0132971Y0105220I0000000J0000581D01*
G01*
G37*
G36*
G01*
X0136790Y0105220D02*
X0136790Y0106579D01*
G75*
G02*
X0137370Y0107159I0000581J0000000D01*
G01*
X0138532Y0107159D01*
G75*
G02*
X0139112Y0106579I0000000J-000581D01*
G01*
X0139112Y0105220D01*
G75*
G02*
X0138532Y0104640I-000581J0000000D01*
G01*
X0137370Y0104640D01*
G75*
G02*
X0136790Y0105220I0000000J0000581D01*
G01*
G37*
G36*
G01*
X0130362Y0080329D02*
X0130362Y0078970D01*
G75*
G02*
X0129782Y0078390I-000581J0000000D01*
G01*
X0128620Y0078390D01*
G75*
G02*
X0128040Y0078970I0000000J0000581D01*
G01*
X0128040Y0080329D01*
G75*
G02*
X0128620Y0080909I0000581J0000000D01*
G01*
X0129782Y0080909D01*
G75*
G02*
X0130362Y0080329I0000000J-000581D01*
G01*
G37*
G36*
G01*
X0126543Y0080329D02*
X0126543Y0078970D01*
G75*
G02*
X0125963Y0078390I-000581J0000000D01*
G01*
X0124801Y0078390D01*
G75*
G02*
X0124221Y0078970I0000000J0000581D01*
G01*
X0124221Y0080329D01*
G75*
G02*
X0124801Y0080909I0000581J0000000D01*
G01*
X0125963Y0080909D01*
G75*
G02*
X0126543Y0080329I0000000J-000581D01*
G01*
G37*
G36*
G01*
X0230386Y0096710D02*
X0230386Y0095352D01*
G75*
G02*
X0229805Y0094771I-000581J0000000D01*
G01*
X0228644Y0094771D01*
G75*
G02*
X0228063Y0095352I0000000J0000581D01*
G01*
X0228063Y0096710D01*
G75*
G02*
X0228644Y0097291I0000581J0000000D01*
G01*
X0229805Y0097291D01*
G75*
G02*
X0230386Y0096710I0000000J-000581D01*
G01*
G37*
G36*
G01*
X0226567Y0096710D02*
X0226567Y0095352D01*
G75*
G02*
X0225986Y0094771I-000581J0000000D01*
G01*
X0224825Y0094771D01*
G75*
G02*
X0224244Y0095352I0000000J0000581D01*
G01*
X0224244Y0096710D01*
G75*
G02*
X0224825Y0097291I0000581J0000000D01*
G01*
X0225986Y0097291D01*
G75*
G02*
X0226567Y0096710I0000000J-000581D01*
G01*
G37*
G36*
G01*
X0216824Y0082708D02*
X0214806Y0082708D01*
G75*
G02*
X0213945Y0083570I0000000J0000861D01*
G01*
X0213945Y0085292D01*
G75*
G02*
X0214806Y0086153I0000861J0000000D01*
G01*
X0216824Y0086153D01*
G75*
G02*
X0217685Y0085292I0000000J-000861D01*
G01*
X0217685Y0083570D01*
G75*
G02*
X0216824Y0082708I-000861J0000000D01*
G01*
G37*
G36*
G01*
X0216824Y0088909D02*
X0214806Y0088909D01*
G75*
G02*
X0213945Y0089770I0000000J0000861D01*
G01*
X0213945Y0091493D01*
G75*
G02*
X0214806Y0092354I0000861J0000000D01*
G01*
X0216824Y0092354D01*
G75*
G02*
X0217685Y0091493I0000000J-000861D01*
G01*
X0217685Y0089770D01*
G75*
G02*
X0216824Y0088909I-000861J0000000D01*
G01*
G37*
G36*
G01*
X0146114Y0079658D02*
X0146114Y0077641D01*
G75*
G02*
X0145253Y0076779I-000861J0000000D01*
G01*
X0143531Y0076779D01*
G75*
G02*
X0142669Y0077641I0000000J0000861D01*
G01*
X0142669Y0079658D01*
G75*
G02*
X0143531Y0080519I0000861J0000000D01*
G01*
X0145253Y0080519D01*
G75*
G02*
X0146114Y0079658I0000000J-000861D01*
G01*
G37*
G36*
G01*
X0139914Y0079658D02*
X0139914Y0077641D01*
G75*
G02*
X0139052Y0076779I-000861J0000000D01*
G01*
X0137330Y0076779D01*
G75*
G02*
X0136469Y0077641I0000000J0000861D01*
G01*
X0136469Y0079658D01*
G75*
G02*
X0137330Y0080519I0000861J0000000D01*
G01*
X0139052Y0080519D01*
G75*
G02*
X0139914Y0079658I0000000J-000861D01*
G01*
G37*
G36*
G01*
X0140721Y0105220D02*
X0140721Y0106579D01*
G75*
G02*
X0141301Y0107159I0000581J0000000D01*
G01*
X0142463Y0107159D01*
G75*
G02*
X0143043Y0106579I0000000J-000581D01*
G01*
X0143043Y0105220D01*
G75*
G02*
X0142463Y0104640I-000581J0000000D01*
G01*
X0141301Y0104640D01*
G75*
G02*
X0140721Y0105220I0000000J0000581D01*
G01*
G37*
G36*
G01*
X0144540Y0105220D02*
X0144540Y0106579D01*
G75*
G02*
X0145120Y0107159I0000581J0000000D01*
G01*
X0146282Y0107159D01*
G75*
G02*
X0146862Y0106579I0000000J-000581D01*
G01*
X0146862Y0105220D01*
G75*
G02*
X0146282Y0104640I-000581J0000000D01*
G01*
X0145120Y0104640D01*
G75*
G02*
X0144540Y0105220I0000000J0000581D01*
G01*
G37*
G36*
G01*
X0128612Y0088720D02*
X0129971Y0088720D01*
G75*
G02*
X0130551Y0088140I0000000J-000581D01*
G01*
X0130551Y0086978D01*
G75*
G02*
X0129971Y0086397I-000581J0000000D01*
G01*
X0128612Y0086397D01*
G75*
G02*
X0128032Y0086978I0000000J0000581D01*
G01*
X0128032Y0088140D01*
G75*
G02*
X0128612Y0088720I0000581J0000000D01*
G01*
G37*
G36*
G01*
X0128612Y0084901D02*
X0129971Y0084901D01*
G75*
G02*
X0130551Y0084321I0000000J-000581D01*
G01*
X0130551Y0083159D01*
G75*
G02*
X0129971Y0082579I-000581J0000000D01*
G01*
X0128612Y0082579D01*
G75*
G02*
X0128032Y0083159I0000000J0000581D01*
G01*
X0128032Y0084321D01*
G75*
G02*
X0128612Y0084901I0000581J0000000D01*
G01*
G37*
G36*
G01*
X0134900Y0066744D02*
X0133542Y0066744D01*
G75*
G02*
X0132961Y0067325I0000000J0000581D01*
G01*
X0132961Y0068486D01*
G75*
G02*
X0133542Y0069067I0000581J0000000D01*
G01*
X0134900Y0069067D01*
G75*
G02*
X0135480Y0068486I0000000J-000581D01*
G01*
X0135480Y0067325D01*
G75*
G02*
X0134900Y0066744I-000581J0000000D01*
G01*
G37*
G36*
G01*
X0134900Y0070563D02*
X0133542Y0070563D01*
G75*
G02*
X0132961Y0071143I0000000J0000581D01*
G01*
X0132961Y0072305D01*
G75*
G02*
X0133542Y0072886I0000581J0000000D01*
G01*
X0134900Y0072886D01*
G75*
G02*
X0135480Y0072305I0000000J-000581D01*
G01*
X0135480Y0071143D01*
G75*
G02*
X0134900Y0070563I-000581J0000000D01*
G01*
G37*
G36*
G01*
X0139457Y0063407D02*
X0139457Y0062049D01*
G75*
G02*
X0138876Y0061468I-000581J0000000D01*
G01*
X0137715Y0061468D01*
G75*
G02*
X0137134Y0062049I0000000J0000581D01*
G01*
X0137134Y0063407D01*
G75*
G02*
X0137715Y0063988I0000581J0000000D01*
G01*
X0138876Y0063988D01*
G75*
G02*
X0139457Y0063407I0000000J-000581D01*
G01*
G37*
G36*
G01*
X0135638Y0063407D02*
X0135638Y0062049D01*
G75*
G02*
X0135057Y0061468I-000581J0000000D01*
G01*
X0133896Y0061468D01*
G75*
G02*
X0133315Y0062049I0000000J0000581D01*
G01*
X0133315Y0063407D01*
G75*
G02*
X0133896Y0063988I0000581J0000000D01*
G01*
X0135057Y0063988D01*
G75*
G02*
X0135638Y0063407I0000000J-000581D01*
G01*
G37*
G36*
G01*
X0164260Y0062226D02*
X0164260Y0060868D01*
G75*
G02*
X0163679Y0060287I-000581J0000000D01*
G01*
X0162518Y0060287D01*
G75*
G02*
X0161937Y0060868I0000000J0000581D01*
G01*
X0161937Y0062226D01*
G75*
G02*
X0162518Y0062807I0000581J0000000D01*
G01*
X0163679Y0062807D01*
G75*
G02*
X0164260Y0062226I0000000J-000581D01*
G01*
G37*
G36*
G01*
X0160441Y0062226D02*
X0160441Y0060868D01*
G75*
G02*
X0159860Y0060287I-000581J0000000D01*
G01*
X0158699Y0060287D01*
G75*
G02*
X0158118Y0060868I0000000J0000581D01*
G01*
X0158118Y0062226D01*
G75*
G02*
X0158699Y0062807I0000581J0000000D01*
G01*
X0159860Y0062807D01*
G75*
G02*
X0160441Y0062226I0000000J-000581D01*
G01*
G37*
G36*
G01*
X0148471Y0105220D02*
X0148471Y0106579D01*
G75*
G02*
X0149051Y0107159I0000581J0000000D01*
G01*
X0150213Y0107159D01*
G75*
G02*
X0150793Y0106579I0000000J-000581D01*
G01*
X0150793Y0105220D01*
G75*
G02*
X0150213Y0104640I-000581J0000000D01*
G01*
X0149051Y0104640D01*
G75*
G02*
X0148471Y0105220I0000000J0000581D01*
G01*
G37*
G36*
G01*
X0152290Y0105220D02*
X0152290Y0106579D01*
G75*
G02*
X0152870Y0107159I0000581J0000000D01*
G01*
X0154032Y0107159D01*
G75*
G02*
X0154612Y0106579I0000000J-000581D01*
G01*
X0154612Y0105220D01*
G75*
G02*
X0154032Y0104640I-000581J0000000D01*
G01*
X0152870Y0104640D01*
G75*
G02*
X0152290Y0105220I0000000J0000581D01*
G01*
G37*
G36*
G01*
X0156221Y0105220D02*
X0156221Y0106579D01*
G75*
G02*
X0156801Y0107159I0000581J0000000D01*
G01*
X0157963Y0107159D01*
G75*
G02*
X0158543Y0106579I0000000J-000581D01*
G01*
X0158543Y0105220D01*
G75*
G02*
X0157963Y0104640I-000581J0000000D01*
G01*
X0156801Y0104640D01*
G75*
G02*
X0156221Y0105220I0000000J0000581D01*
G01*
G37*
G36*
G01*
X0160040Y0105220D02*
X0160040Y0106579D01*
G75*
G02*
X0160620Y0107159I0000581J0000000D01*
G01*
X0161782Y0107159D01*
G75*
G02*
X0162362Y0106579I0000000J-000581D01*
G01*
X0162362Y0105220D01*
G75*
G02*
X0161782Y0104640I-000581J0000000D01*
G01*
X0160620Y0104640D01*
G75*
G02*
X0160040Y0105220I0000000J0000581D01*
G01*
G37*
G36*
G01*
X0132612Y0080720D02*
X0133971Y0080720D01*
G75*
G02*
X0134551Y0080140I0000000J-000581D01*
G01*
X0134551Y0078978D01*
G75*
G02*
X0133971Y0078397I-000581J0000000D01*
G01*
X0132612Y0078397D01*
G75*
G02*
X0132032Y0078978I0000000J0000581D01*
G01*
X0132032Y0080140D01*
G75*
G02*
X0132612Y0080720I0000581J0000000D01*
G01*
G37*
G36*
G01*
X0132612Y0076901D02*
X0133971Y0076901D01*
G75*
G02*
X0134551Y0076321I0000000J-000581D01*
G01*
X0134551Y0075159D01*
G75*
G02*
X0133971Y0074579I-000581J0000000D01*
G01*
X0132612Y0074579D01*
G75*
G02*
X0132032Y0075159I0000000J0000581D01*
G01*
X0132032Y0076321D01*
G75*
G02*
X0132612Y0076901I0000581J0000000D01*
G01*
G37*
D70*
X0222378Y0090671D03*
X0222378Y0083191D03*
X0230252Y0086931D03*
D71*
X0158906Y0084972D03*
X0158906Y0087531D03*
X0158906Y0090090D03*
X0158906Y0092649D03*
X0158906Y0095208D03*
X0158906Y0097768D03*
X0158906Y0100327D03*
X0135677Y0100327D03*
X0135677Y0097768D03*
X0135677Y0095208D03*
X0135677Y0092649D03*
X0135677Y0090090D03*
X0135677Y0087531D03*
X0135677Y0084972D03*
G36*
G01*
X0124612Y0088720D02*
X0125971Y0088720D01*
G75*
G02*
X0126551Y0088140I0000000J-000581D01*
G01*
X0126551Y0086978D01*
G75*
G02*
X0125971Y0086397I-000581J0000000D01*
G01*
X0124612Y0086397D01*
G75*
G02*
X0124032Y0086978I0000000J0000581D01*
G01*
X0124032Y0088140D01*
G75*
G02*
X0124612Y0088720I0000581J0000000D01*
G01*
G37*
G36*
G01*
X0124612Y0084901D02*
X0125971Y0084901D01*
G75*
G02*
X0126551Y0084321I0000000J-000581D01*
G01*
X0126551Y0083159D01*
G75*
G02*
X0125971Y0082579I-000581J0000000D01*
G01*
X0124612Y0082579D01*
G75*
G02*
X0124032Y0083159I0000000J0000581D01*
G01*
X0124032Y0084321D01*
G75*
G02*
X0124612Y0084901I0000581J0000000D01*
G01*
G37*
G36*
G01*
X0171740Y0065966D02*
X0171740Y0064608D01*
G75*
G02*
X0171160Y0064027I-000581J0000000D01*
G01*
X0169998Y0064027D01*
G75*
G02*
X0169417Y0064608I0000000J0000581D01*
G01*
X0169417Y0065966D01*
G75*
G02*
X0169998Y0066547I0000581J0000000D01*
G01*
X0171160Y0066547D01*
G75*
G02*
X0171740Y0065966I0000000J-000581D01*
G01*
G37*
G36*
G01*
X0167921Y0065966D02*
X0167921Y0064608D01*
G75*
G02*
X0167341Y0064027I-000581J0000000D01*
G01*
X0166179Y0064027D01*
G75*
G02*
X0165599Y0064608I0000000J0000581D01*
G01*
X0165599Y0065966D01*
G75*
G02*
X0166179Y0066547I0000581J0000000D01*
G01*
X0167341Y0066547D01*
G75*
G02*
X0167921Y0065966I0000000J-000581D01*
G01*
G37*
G36*
G01*
X0165599Y0060868D02*
X0165599Y0062226D01*
G75*
G02*
X0166179Y0062807I0000581J0000000D01*
G01*
X0167341Y0062807D01*
G75*
G02*
X0167921Y0062226I0000000J-000581D01*
G01*
X0167921Y0060868D01*
G75*
G02*
X0167341Y0060287I-000581J0000000D01*
G01*
X0166179Y0060287D01*
G75*
G02*
X0165599Y0060868I0000000J0000581D01*
G01*
G37*
G36*
G01*
X0169417Y0060868D02*
X0169417Y0062226D01*
G75*
G02*
X0169998Y0062807I0000581J0000000D01*
G01*
X0171160Y0062807D01*
G75*
G02*
X0171740Y0062226I0000000J-000581D01*
G01*
X0171740Y0060868D01*
G75*
G02*
X0171160Y0060287I-000581J0000000D01*
G01*
X0169998Y0060287D01*
G75*
G02*
X0169417Y0060868I0000000J0000581D01*
G01*
G37*
G36*
G01*
X0169152Y0081901D02*
X0167793Y0081901D01*
G75*
G02*
X0167213Y0082482I0000000J0000581D01*
G01*
X0167213Y0083643D01*
G75*
G02*
X0167793Y0084224I0000581J0000000D01*
G01*
X0169152Y0084224D01*
G75*
G02*
X0169732Y0083643I0000000J-000581D01*
G01*
X0169732Y0082482D01*
G75*
G02*
X0169152Y0081901I-000581J0000000D01*
G01*
G37*
G36*
G01*
X0169152Y0085720D02*
X0167793Y0085720D01*
G75*
G02*
X0167213Y0086301I0000000J0000581D01*
G01*
X0167213Y0087462D01*
G75*
G02*
X0167793Y0088043I0000581J0000000D01*
G01*
X0169152Y0088043D01*
G75*
G02*
X0169732Y0087462I0000000J-000581D01*
G01*
X0169732Y0086301D01*
G75*
G02*
X0169152Y0085720I-000581J0000000D01*
G01*
G37*
G36*
G01*
X0122715Y0071705D02*
X0124073Y0071705D01*
G75*
G02*
X0124654Y0071124I0000000J-000581D01*
G01*
X0124654Y0069962D01*
G75*
G02*
X0124073Y0069382I-000581J0000000D01*
G01*
X0122715Y0069382D01*
G75*
G02*
X0122134Y0069962I0000000J0000581D01*
G01*
X0122134Y0071124D01*
G75*
G02*
X0122715Y0071705I0000581J0000000D01*
G01*
G37*
G36*
G01*
X0122715Y0067886D02*
X0124073Y0067886D01*
G75*
G02*
X0124654Y0067305I0000000J-000581D01*
G01*
X0124654Y0066143D01*
G75*
G02*
X0124073Y0065563I-000581J0000000D01*
G01*
X0122715Y0065563D01*
G75*
G02*
X0122134Y0066143I0000000J0000581D01*
G01*
X0122134Y0067305D01*
G75*
G02*
X0122715Y0067886I0000581J0000000D01*
G01*
G37*
G36*
G01*
X0197272Y0062226D02*
X0197272Y0060868D01*
G75*
G02*
X0196691Y0060287I-000581J0000000D01*
G01*
X0195530Y0060287D01*
G75*
G02*
X0194949Y0060868I0000000J0000581D01*
G01*
X0194949Y0062226D01*
G75*
G02*
X0195530Y0062807I0000581J0000000D01*
G01*
X0196691Y0062807D01*
G75*
G02*
X0197272Y0062226I0000000J-000581D01*
G01*
G37*
G36*
G01*
X0193453Y0062226D02*
X0193453Y0060868D01*
G75*
G02*
X0192872Y0060287I-000581J0000000D01*
G01*
X0191711Y0060287D01*
G75*
G02*
X0191130Y0060868I0000000J0000581D01*
G01*
X0191130Y0062226D01*
G75*
G02*
X0191711Y0062807I0000581J0000000D01*
G01*
X0192872Y0062807D01*
G75*
G02*
X0193453Y0062226I0000000J-000581D01*
G01*
G37*
G36*
G01*
X0173876Y0098043D02*
X0172518Y0098043D01*
G75*
G02*
X0171937Y0098624I0000000J0000581D01*
G01*
X0171937Y0099785D01*
G75*
G02*
X0172518Y0100366I0000581J0000000D01*
G01*
X0173876Y0100366D01*
G75*
G02*
X0174457Y0099785I0000000J-000581D01*
G01*
X0174457Y0098624D01*
G75*
G02*
X0173876Y0098043I-000581J0000000D01*
G01*
G37*
G36*
G01*
X0173876Y0101862D02*
X0172518Y0101862D01*
G75*
G02*
X0171937Y0102443I0000000J0000581D01*
G01*
X0171937Y0103604D01*
G75*
G02*
X0172518Y0104185I0000581J0000000D01*
G01*
X0173876Y0104185D01*
G75*
G02*
X0174457Y0103604I0000000J-000581D01*
G01*
X0174457Y0102443D01*
G75*
G02*
X0173876Y0101862I-000581J0000000D01*
G01*
G37*
G36*
G01*
X0208345Y0068949D02*
X0209703Y0068949D01*
G75*
G02*
X0210284Y0068368I0000000J-000581D01*
G01*
X0210284Y0067206D01*
G75*
G02*
X0209703Y0066626I-000581J0000000D01*
G01*
X0208345Y0066626D01*
G75*
G02*
X0207764Y0067206I0000000J0000581D01*
G01*
X0207764Y0068368D01*
G75*
G02*
X0208345Y0068949I0000581J0000000D01*
G01*
G37*
G36*
G01*
X0208345Y0065130D02*
X0209703Y0065130D01*
G75*
G02*
X0210284Y0064549I0000000J-000581D01*
G01*
X0210284Y0063388D01*
G75*
G02*
X0209703Y0062807I-000581J0000000D01*
G01*
X0208345Y0062807D01*
G75*
G02*
X0207764Y0063388I0000000J0000581D01*
G01*
X0207764Y0064549D01*
G75*
G02*
X0208345Y0065130I0000581J0000000D01*
G01*
G37*
D72*
X0116622Y0075917D03*
X0098669Y0075917D03*
D79*
X0113650Y0107315D03*
X0101642Y0107315D03*
X0113650Y0094126D03*
X0101642Y0094126D03*
G36*
G01*
X0129870Y0109864D02*
X0129870Y0108506D01*
G75*
G02*
X0129290Y0107925I-000581J0000000D01*
G01*
X0128128Y0107925D01*
G75*
G02*
X0127547Y0108506I0000000J0000581D01*
G01*
X0127547Y0109864D01*
G75*
G02*
X0128128Y0110445I0000581J0000000D01*
G01*
X0129290Y0110445D01*
G75*
G02*
X0129870Y0109864I0000000J-000581D01*
G01*
G37*
G36*
G01*
X0126051Y0109864D02*
X0126051Y0108506D01*
G75*
G02*
X0125471Y0107925I-000581J0000000D01*
G01*
X0124309Y0107925D01*
G75*
G02*
X0123729Y0108506I0000000J0000581D01*
G01*
X0123729Y0109864D01*
G75*
G02*
X0124309Y0110445I0000581J0000000D01*
G01*
X0125471Y0110445D01*
G75*
G02*
X0126051Y0109864I0000000J-000581D01*
G01*
G37*
G36*
G01*
X0167990Y0104185D02*
X0169349Y0104185D01*
G75*
G02*
X0169929Y0103604I0000000J-000581D01*
G01*
X0169929Y0102443D01*
G75*
G02*
X0169349Y0101862I-000581J0000000D01*
G01*
X0167990Y0101862D01*
G75*
G02*
X0167410Y0102443I0000000J0000581D01*
G01*
X0167410Y0103604D01*
G75*
G02*
X0167990Y0104185I0000581J0000000D01*
G01*
G37*
G36*
G01*
X0167990Y0100366D02*
X0169349Y0100366D01*
G75*
G02*
X0169929Y0099785I0000000J-000581D01*
G01*
X0169929Y0098624D01*
G75*
G02*
X0169349Y0098043I-000581J0000000D01*
G01*
X0167990Y0098043D01*
G75*
G02*
X0167410Y0098624I0000000J0000581D01*
G01*
X0167410Y0099785D01*
G75*
G02*
X0167990Y0100366I0000581J0000000D01*
G01*
G37*
G36*
G01*
X0131642Y0063604D02*
X0131642Y0062246D01*
G75*
G02*
X0131061Y0061665I-000581J0000000D01*
G01*
X0129900Y0061665D01*
G75*
G02*
X0129319Y0062246I0000000J0000581D01*
G01*
X0129319Y0063604D01*
G75*
G02*
X0129900Y0064185I0000581J0000000D01*
G01*
X0131061Y0064185D01*
G75*
G02*
X0131642Y0063604I0000000J-000581D01*
G01*
G37*
G36*
G01*
X0127823Y0063604D02*
X0127823Y0062246D01*
G75*
G02*
X0127242Y0061665I-000581J0000000D01*
G01*
X0126081Y0061665D01*
G75*
G02*
X0125500Y0062246I0000000J0000581D01*
G01*
X0125500Y0063604D01*
G75*
G02*
X0126081Y0064185I0000581J0000000D01*
G01*
X0127242Y0064185D01*
G75*
G02*
X0127823Y0063604I0000000J-000581D01*
G01*
G37*
G36*
G01*
X0165471Y0097079D02*
X0164112Y0097079D01*
G75*
G02*
X0163532Y0097659I0000000J0000581D01*
G01*
X0163532Y0098821D01*
G75*
G02*
X0164112Y0099401I0000581J0000000D01*
G01*
X0165471Y0099401D01*
G75*
G02*
X0166051Y0098821I0000000J-000581D01*
G01*
X0166051Y0097659D01*
G75*
G02*
X0165471Y0097079I-000581J0000000D01*
G01*
G37*
G36*
G01*
X0165471Y0100897D02*
X0164112Y0100897D01*
G75*
G02*
X0163532Y0101478I0000000J0000581D01*
G01*
X0163532Y0102640D01*
G75*
G02*
X0164112Y0103220I0000581J0000000D01*
G01*
X0165471Y0103220D01*
G75*
G02*
X0166051Y0102640I0000000J-000581D01*
G01*
X0166051Y0101478D01*
G75*
G02*
X0165471Y0100897I-000581J0000000D01*
G01*
G37*
G36*
G01*
X0219575Y0096675D02*
X0219575Y0095317D01*
G75*
G02*
X0218994Y0094736I-000581J0000000D01*
G01*
X0217833Y0094736D01*
G75*
G02*
X0217252Y0095317I0000000J0000581D01*
G01*
X0217252Y0096675D01*
G75*
G02*
X0217833Y0097256I0000581J0000000D01*
G01*
X0218994Y0097256D01*
G75*
G02*
X0219575Y0096675I0000000J-000581D01*
G01*
G37*
G36*
G01*
X0215756Y0096675D02*
X0215756Y0095317D01*
G75*
G02*
X0215175Y0094736I-000581J0000000D01*
G01*
X0214014Y0094736D01*
G75*
G02*
X0213433Y0095317I0000000J0000581D01*
G01*
X0213433Y0096675D01*
G75*
G02*
X0214014Y0097256I0000581J0000000D01*
G01*
X0215175Y0097256D01*
G75*
G02*
X0215756Y0096675I0000000J-000581D01*
G01*
G37*
G36*
G01*
X0180469Y0106641D02*
X0180469Y0108658D01*
G75*
G02*
X0181330Y0109519I0000861J0000000D01*
G01*
X0183052Y0109519D01*
G75*
G02*
X0183914Y0108658I0000000J-000861D01*
G01*
X0183914Y0106641D01*
G75*
G02*
X0183052Y0105779I-000861J0000000D01*
G01*
X0181330Y0105779D01*
G75*
G02*
X0180469Y0106641I0000000J0000861D01*
G01*
G37*
G36*
G01*
X0186669Y0106641D02*
X0186669Y0108658D01*
G75*
G02*
X0187531Y0109519I0000861J0000000D01*
G01*
X0189253Y0109519D01*
G75*
G02*
X0190114Y0108658I0000000J-000861D01*
G01*
X0190114Y0106641D01*
G75*
G02*
X0189253Y0105779I-000861J0000000D01*
G01*
X0187531Y0105779D01*
G75*
G02*
X0186669Y0106641I0000000J0000861D01*
G01*
G37*
G36*
G01*
X0172221Y0106970D02*
X0172221Y0108329D01*
G75*
G02*
X0172801Y0108909I0000581J0000000D01*
G01*
X0173963Y0108909D01*
G75*
G02*
X0174543Y0108329I0000000J-000581D01*
G01*
X0174543Y0106970D01*
G75*
G02*
X0173963Y0106390I-000581J0000000D01*
G01*
X0172801Y0106390D01*
G75*
G02*
X0172221Y0106970I0000000J0000581D01*
G01*
G37*
G36*
G01*
X0176040Y0106970D02*
X0176040Y0108329D01*
G75*
G02*
X0176620Y0108909I0000581J0000000D01*
G01*
X0177782Y0108909D01*
G75*
G02*
X0178362Y0108329I0000000J-000581D01*
G01*
X0178362Y0106970D01*
G75*
G02*
X0177782Y0106390I-000581J0000000D01*
G01*
X0176620Y0106390D01*
G75*
G02*
X0176040Y0106970I0000000J0000581D01*
G01*
G37*
G36*
G01*
X0159721Y0078970D02*
X0159721Y0080329D01*
G75*
G02*
X0160301Y0080909I0000581J0000000D01*
G01*
X0161463Y0080909D01*
G75*
G02*
X0162043Y0080329I0000000J-000581D01*
G01*
X0162043Y0078970D01*
G75*
G02*
X0161463Y0078390I-000581J0000000D01*
G01*
X0160301Y0078390D01*
G75*
G02*
X0159721Y0078970I0000000J0000581D01*
G01*
G37*
G36*
G01*
X0163540Y0078970D02*
X0163540Y0080329D01*
G75*
G02*
X0164120Y0080909I0000581J0000000D01*
G01*
X0165282Y0080909D01*
G75*
G02*
X0165862Y0080329I0000000J-000581D01*
G01*
X0165862Y0078970D01*
G75*
G02*
X0165282Y0078390I-000581J0000000D01*
G01*
X0164120Y0078390D01*
G75*
G02*
X0163540Y0078970I0000000J0000581D01*
G01*
G37*
G36*
G01*
X0153971Y0074579D02*
X0152612Y0074579D01*
G75*
G02*
X0152032Y0075159I0000000J0000581D01*
G01*
X0152032Y0076321D01*
G75*
G02*
X0152612Y0076901I0000581J0000000D01*
G01*
X0153971Y0076901D01*
G75*
G02*
X0154551Y0076321I0000000J-000581D01*
G01*
X0154551Y0075159D01*
G75*
G02*
X0153971Y0074579I-000581J0000000D01*
G01*
G37*
G36*
G01*
X0153971Y0078397D02*
X0152612Y0078397D01*
G75*
G02*
X0152032Y0078978I0000000J0000581D01*
G01*
X0152032Y0080140D01*
G75*
G02*
X0152612Y0080720I0000581J0000000D01*
G01*
X0153971Y0080720D01*
G75*
G02*
X0154551Y0080140I0000000J-000581D01*
G01*
X0154551Y0078978D01*
G75*
G02*
X0153971Y0078397I-000581J0000000D01*
G01*
G37*
G36*
G01*
X0157734Y0074579D02*
X0156376Y0074579D01*
G75*
G02*
X0155795Y0075159I0000000J0000581D01*
G01*
X0155795Y0076321D01*
G75*
G02*
X0156376Y0076901I0000581J0000000D01*
G01*
X0157734Y0076901D01*
G75*
G02*
X0158315Y0076321I0000000J-000581D01*
G01*
X0158315Y0075159D01*
G75*
G02*
X0157734Y0074579I-000581J0000000D01*
G01*
G37*
G36*
G01*
X0157734Y0078397D02*
X0156376Y0078397D01*
G75*
G02*
X0155795Y0078978I0000000J0000581D01*
G01*
X0155795Y0080140D01*
G75*
G02*
X0156376Y0080720I0000581J0000000D01*
G01*
X0157734Y0080720D01*
G75*
G02*
X0158315Y0080140I0000000J-000581D01*
G01*
X0158315Y0078978D01*
G75*
G02*
X0157734Y0078397I-000581J0000000D01*
G01*
G37*
G36*
G01*
X0159721Y0074970D02*
X0159721Y0076329D01*
G75*
G02*
X0160301Y0076909I0000581J0000000D01*
G01*
X0161463Y0076909D01*
G75*
G02*
X0162043Y0076329I0000000J-000581D01*
G01*
X0162043Y0074970D01*
G75*
G02*
X0161463Y0074390I-000581J0000000D01*
G01*
X0160301Y0074390D01*
G75*
G02*
X0159721Y0074970I0000000J0000581D01*
G01*
G37*
G36*
G01*
X0163540Y0074970D02*
X0163540Y0076329D01*
G75*
G02*
X0164120Y0076909I0000581J0000000D01*
G01*
X0165282Y0076909D01*
G75*
G02*
X0165862Y0076329I0000000J-000581D01*
G01*
X0165862Y0074970D01*
G75*
G02*
X0165282Y0074390I-000581J0000000D01*
G01*
X0164120Y0074390D01*
G75*
G02*
X0163540Y0074970I0000000J0000581D01*
G01*
G37*
D74*
X0143630Y0070405D03*
X0143630Y0066665D03*
X0143630Y0062925D03*
X0153945Y0062925D03*
X0153945Y0070405D03*
G36*
G01*
X0149971Y0074579D02*
X0148612Y0074579D01*
G75*
G02*
X0148032Y0075159I0000000J0000581D01*
G01*
X0148032Y0076321D01*
G75*
G02*
X0148612Y0076901I0000581J0000000D01*
G01*
X0149971Y0076901D01*
G75*
G02*
X0150551Y0076321I0000000J-000581D01*
G01*
X0150551Y0075159D01*
G75*
G02*
X0149971Y0074579I-000581J0000000D01*
G01*
G37*
G36*
G01*
X0149971Y0078397D02*
X0148612Y0078397D01*
G75*
G02*
X0148032Y0078978I0000000J0000581D01*
G01*
X0148032Y0080140D01*
G75*
G02*
X0148612Y0080720I0000581J0000000D01*
G01*
X0149971Y0080720D01*
G75*
G02*
X0150551Y0080140I0000000J-000581D01*
G01*
X0150551Y0078978D01*
G75*
G02*
X0149971Y0078397I-000581J0000000D01*
G01*
G37*
G36*
G01*
X0138837Y0067531D02*
X0137479Y0067531D01*
G75*
G02*
X0136898Y0068112I0000000J0000581D01*
G01*
X0136898Y0069273D01*
G75*
G02*
X0137479Y0069854I0000581J0000000D01*
G01*
X0138837Y0069854D01*
G75*
G02*
X0139417Y0069273I0000000J-000581D01*
G01*
X0139417Y0068112D01*
G75*
G02*
X0138837Y0067531I-000581J0000000D01*
G01*
G37*
G36*
G01*
X0138837Y0071350D02*
X0137479Y0071350D01*
G75*
G02*
X0136898Y0071931I0000000J0000581D01*
G01*
X0136898Y0073092D01*
G75*
G02*
X0137479Y0073673I0000581J0000000D01*
G01*
X0138837Y0073673D01*
G75*
G02*
X0139417Y0073092I0000000J-000581D01*
G01*
X0139417Y0071931D01*
G75*
G02*
X0138837Y0071350I-000581J0000000D01*
G01*
G37*
G36*
G01*
X0125471Y0090079D02*
X0124112Y0090079D01*
G75*
G02*
X0123532Y0090659I0000000J0000581D01*
G01*
X0123532Y0091821D01*
G75*
G02*
X0124112Y0092401I0000581J0000000D01*
G01*
X0125471Y0092401D01*
G75*
G02*
X0126051Y0091821I0000000J-000581D01*
G01*
X0126051Y0090659D01*
G75*
G02*
X0125471Y0090079I-000581J0000000D01*
G01*
G37*
G36*
G01*
X0125471Y0093897D02*
X0124112Y0093897D01*
G75*
G02*
X0123532Y0094478I0000000J0000581D01*
G01*
X0123532Y0095640D01*
G75*
G02*
X0124112Y0096220I0000581J0000000D01*
G01*
X0125471Y0096220D01*
G75*
G02*
X0126051Y0095640I0000000J-000581D01*
G01*
X0126051Y0094478D01*
G75*
G02*
X0125471Y0093897I-000581J0000000D01*
G01*
G37*
G36*
G01*
X0127283Y0076472D02*
X0129300Y0076472D01*
G75*
G02*
X0130162Y0075611I0000000J-000861D01*
G01*
X0130162Y0073889D01*
G75*
G02*
X0129300Y0073027I-000861J0000000D01*
G01*
X0127283Y0073027D01*
G75*
G02*
X0126421Y0073889I0000000J0000861D01*
G01*
X0126421Y0075611D01*
G75*
G02*
X0127283Y0076472I0000861J0000000D01*
G01*
G37*
G36*
G01*
X0127283Y0070271D02*
X0129300Y0070271D01*
G75*
G02*
X0130162Y0069410I0000000J-000861D01*
G01*
X0130162Y0067688D01*
G75*
G02*
X0129300Y0066827I-000861J0000000D01*
G01*
X0127283Y0066827D01*
G75*
G02*
X0126421Y0067688I0000000J0000861D01*
G01*
X0126421Y0069410D01*
G75*
G02*
X0127283Y0070271I0000861J0000000D01*
G01*
G37*
G36*
G01*
X0129870Y0101596D02*
X0129870Y0100238D01*
G75*
G02*
X0129290Y0099657I-000581J0000000D01*
G01*
X0128128Y0099657D01*
G75*
G02*
X0127547Y0100238I0000000J0000581D01*
G01*
X0127547Y0101596D01*
G75*
G02*
X0128128Y0102177I0000581J0000000D01*
G01*
X0129290Y0102177D01*
G75*
G02*
X0129870Y0101596I0000000J-000581D01*
G01*
G37*
G36*
G01*
X0126051Y0101596D02*
X0126051Y0100238D01*
G75*
G02*
X0125471Y0099657I-000581J0000000D01*
G01*
X0124309Y0099657D01*
G75*
G02*
X0123729Y0100238I0000000J0000581D01*
G01*
X0123729Y0101596D01*
G75*
G02*
X0124309Y0102177I0000581J0000000D01*
G01*
X0125471Y0102177D01*
G75*
G02*
X0126051Y0101596I0000000J-000581D01*
G01*
G37*
G36*
G01*
X0123729Y0104372D02*
X0123729Y0105730D01*
G75*
G02*
X0124309Y0106311I0000581J0000000D01*
G01*
X0125471Y0106311D01*
G75*
G02*
X0126051Y0105730I0000000J-000581D01*
G01*
X0126051Y0104372D01*
G75*
G02*
X0125471Y0103791I-000581J0000000D01*
G01*
X0124309Y0103791D01*
G75*
G02*
X0123729Y0104372I0000000J0000581D01*
G01*
G37*
G36*
G01*
X0127547Y0104372D02*
X0127547Y0105730D01*
G75*
G02*
X0128128Y0106311I0000581J0000000D01*
G01*
X0129290Y0106311D01*
G75*
G02*
X0129870Y0105730I0000000J-000581D01*
G01*
X0129870Y0104372D01*
G75*
G02*
X0129290Y0103791I-000581J0000000D01*
G01*
X0128128Y0103791D01*
G75*
G02*
X0127547Y0104372I0000000J0000581D01*
G01*
G37*
G36*
G01*
X0202114Y0108658D02*
X0202114Y0106641D01*
G75*
G02*
X0201253Y0105779I-000861J0000000D01*
G01*
X0199531Y0105779D01*
G75*
G02*
X0198669Y0106641I0000000J0000861D01*
G01*
X0198669Y0108658D01*
G75*
G02*
X0199531Y0109519I0000861J0000000D01*
G01*
X0201253Y0109519D01*
G75*
G02*
X0202114Y0108658I0000000J-000861D01*
G01*
G37*
G36*
G01*
X0195914Y0108658D02*
X0195914Y0106641D01*
G75*
G02*
X0195052Y0105779I-000861J0000000D01*
G01*
X0193330Y0105779D01*
G75*
G02*
X0192469Y0106641I0000000J0000861D01*
G01*
X0192469Y0108658D01*
G75*
G02*
X0193330Y0109519I0000861J0000000D01*
G01*
X0195052Y0109519D01*
G75*
G02*
X0195914Y0108658I0000000J-000861D01*
G01*
G37*
G36*
G01*
X0205343Y0113210D02*
X0205343Y0111852D01*
G75*
G02*
X0204762Y0111271I-000581J0000000D01*
G01*
X0203601Y0111271D01*
G75*
G02*
X0203020Y0111852I0000000J0000581D01*
G01*
X0203020Y0113210D01*
G75*
G02*
X0203601Y0113791I0000581J0000000D01*
G01*
X0204762Y0113791D01*
G75*
G02*
X0205343Y0113210I0000000J-000581D01*
G01*
G37*
G36*
G01*
X0201524Y0113210D02*
X0201524Y0111852D01*
G75*
G02*
X0200943Y0111271I-000581J0000000D01*
G01*
X0199782Y0111271D01*
G75*
G02*
X0199201Y0111852I0000000J0000581D01*
G01*
X0199201Y0113210D01*
G75*
G02*
X0199782Y0113791I0000581J0000000D01*
G01*
X0200943Y0113791D01*
G75*
G02*
X0201524Y0113210I0000000J-000581D01*
G01*
G37*
G36*
G01*
X0158118Y0071104D02*
X0158118Y0072462D01*
G75*
G02*
X0158699Y0073043I0000581J0000000D01*
G01*
X0159860Y0073043D01*
G75*
G02*
X0160441Y0072462I0000000J-000581D01*
G01*
X0160441Y0071104D01*
G75*
G02*
X0159860Y0070523I-000581J0000000D01*
G01*
X0158699Y0070523D01*
G75*
G02*
X0158118Y0071104I0000000J0000581D01*
G01*
G37*
G36*
G01*
X0161937Y0071104D02*
X0161937Y0072462D01*
G75*
G02*
X0162518Y0073043I0000581J0000000D01*
G01*
X0163679Y0073043D01*
G75*
G02*
X0164260Y0072462I0000000J-000581D01*
G01*
X0164260Y0071104D01*
G75*
G02*
X0163679Y0070523I-000581J0000000D01*
G01*
X0162518Y0070523D01*
G75*
G02*
X0161937Y0071104I0000000J0000581D01*
G01*
G37*
G36*
G01*
X0171524Y0094716D02*
X0171524Y0095701D01*
G75*
G02*
X0172016Y0096193I0000492J0000000D01*
G01*
X0176937Y0096193D01*
G75*
G02*
X0177429Y0095701I0000000J-000492D01*
G01*
X0177429Y0094716D01*
G75*
G02*
X0176937Y0094224I-000492J0000000D01*
G01*
X0172016Y0094224D01*
G75*
G02*
X0171524Y0094716I0000000J0000492D01*
G01*
G37*
G36*
G01*
X0171524Y0091567D02*
X0171524Y0092551D01*
G75*
G02*
X0172016Y0093043I0000492J0000000D01*
G01*
X0176937Y0093043D01*
G75*
G02*
X0177429Y0092551I0000000J-000492D01*
G01*
X0177429Y0091567D01*
G75*
G02*
X0176937Y0091075I-000492J0000000D01*
G01*
X0172016Y0091075D01*
G75*
G02*
X0171524Y0091567I0000000J0000492D01*
G01*
G37*
G36*
G01*
X0171524Y0088417D02*
X0171524Y0089401D01*
G75*
G02*
X0172016Y0089893I0000492J0000000D01*
G01*
X0176937Y0089893D01*
G75*
G02*
X0177429Y0089401I0000000J-000492D01*
G01*
X0177429Y0088417D01*
G75*
G02*
X0176937Y0087925I-000492J0000000D01*
G01*
X0172016Y0087925D01*
G75*
G02*
X0171524Y0088417I0000000J0000492D01*
G01*
G37*
G36*
G01*
X0171524Y0085268D02*
X0171524Y0086252D01*
G75*
G02*
X0172016Y0086744I0000492J0000000D01*
G01*
X0176937Y0086744D01*
G75*
G02*
X0177429Y0086252I0000000J-000492D01*
G01*
X0177429Y0085268D01*
G75*
G02*
X0176937Y0084775I-000492J0000000D01*
G01*
X0172016Y0084775D01*
G75*
G02*
X0171524Y0085268I0000000J0000492D01*
G01*
G37*
G36*
G01*
X0171524Y0082118D02*
X0171524Y0083102D01*
G75*
G02*
X0172016Y0083594I0000492J0000000D01*
G01*
X0176937Y0083594D01*
G75*
G02*
X0177429Y0083102I0000000J-000492D01*
G01*
X0177429Y0082118D01*
G75*
G02*
X0176937Y0081626I-000492J0000000D01*
G01*
X0172016Y0081626D01*
G75*
G02*
X0171524Y0082118I0000000J0000492D01*
G01*
G37*
G36*
G01*
X0171524Y0078968D02*
X0171524Y0079953D01*
G75*
G02*
X0172016Y0080445I0000492J0000000D01*
G01*
X0176937Y0080445D01*
G75*
G02*
X0177429Y0079953I0000000J-000492D01*
G01*
X0177429Y0078968D01*
G75*
G02*
X0176937Y0078476I-000492J0000000D01*
G01*
X0172016Y0078476D01*
G75*
G02*
X0171524Y0078968I0000000J0000492D01*
G01*
G37*
G36*
G01*
X0171524Y0075819D02*
X0171524Y0076803D01*
G75*
G02*
X0172016Y0077295I0000492J0000000D01*
G01*
X0176937Y0077295D01*
G75*
G02*
X0177429Y0076803I0000000J-000492D01*
G01*
X0177429Y0075819D01*
G75*
G02*
X0176937Y0075327I-000492J0000000D01*
G01*
X0172016Y0075327D01*
G75*
G02*
X0171524Y0075819I0000000J0000492D01*
G01*
G37*
G36*
G01*
X0171524Y0072669D02*
X0171524Y0073653D01*
G75*
G02*
X0172016Y0074145I0000492J0000000D01*
G01*
X0176937Y0074145D01*
G75*
G02*
X0177429Y0073653I0000000J-000492D01*
G01*
X0177429Y0072669D01*
G75*
G02*
X0176937Y0072177I-000492J0000000D01*
G01*
X0172016Y0072177D01*
G75*
G02*
X0171524Y0072669I0000000J0000492D01*
G01*
G37*
G36*
G01*
X0178906Y0065287D02*
X0178906Y0070208D01*
G75*
G02*
X0179398Y0070701I0000492J0000000D01*
G01*
X0180382Y0070701D01*
G75*
G02*
X0180874Y0070208I0000000J-000492D01*
G01*
X0180874Y0065287D01*
G75*
G02*
X0180382Y0064795I-000492J0000000D01*
G01*
X0179398Y0064795D01*
G75*
G02*
X0178906Y0065287I0000000J0000492D01*
G01*
G37*
G36*
G01*
X0182055Y0065287D02*
X0182055Y0070208D01*
G75*
G02*
X0182547Y0070701I0000492J0000000D01*
G01*
X0183532Y0070701D01*
G75*
G02*
X0184024Y0070208I0000000J-000492D01*
G01*
X0184024Y0065287D01*
G75*
G02*
X0183532Y0064795I-000492J0000000D01*
G01*
X0182547Y0064795D01*
G75*
G02*
X0182055Y0065287I0000000J0000492D01*
G01*
G37*
G36*
G01*
X0185205Y0065287D02*
X0185205Y0070208D01*
G75*
G02*
X0185697Y0070701I0000492J0000000D01*
G01*
X0186681Y0070701D01*
G75*
G02*
X0187173Y0070208I0000000J-000492D01*
G01*
X0187173Y0065287D01*
G75*
G02*
X0186681Y0064795I-000492J0000000D01*
G01*
X0185697Y0064795D01*
G75*
G02*
X0185205Y0065287I0000000J0000492D01*
G01*
G37*
G36*
G01*
X0188355Y0065287D02*
X0188355Y0070208D01*
G75*
G02*
X0188847Y0070701I0000492J0000000D01*
G01*
X0189831Y0070701D01*
G75*
G02*
X0190323Y0070208I0000000J-000492D01*
G01*
X0190323Y0065287D01*
G75*
G02*
X0189831Y0064795I-000492J0000000D01*
G01*
X0188847Y0064795D01*
G75*
G02*
X0188355Y0065287I0000000J0000492D01*
G01*
G37*
G36*
G01*
X0191504Y0065287D02*
X0191504Y0070208D01*
G75*
G02*
X0191996Y0070701I0000492J0000000D01*
G01*
X0192980Y0070701D01*
G75*
G02*
X0193473Y0070208I0000000J-000492D01*
G01*
X0193473Y0065287D01*
G75*
G02*
X0192980Y0064795I-000492J0000000D01*
G01*
X0191996Y0064795D01*
G75*
G02*
X0191504Y0065287I0000000J0000492D01*
G01*
G37*
G36*
G01*
X0194654Y0065287D02*
X0194654Y0070208D01*
G75*
G02*
X0195146Y0070701I0000492J0000000D01*
G01*
X0196130Y0070701D01*
G75*
G02*
X0196622Y0070208I0000000J-000492D01*
G01*
X0196622Y0065287D01*
G75*
G02*
X0196130Y0064795I-000492J0000000D01*
G01*
X0195146Y0064795D01*
G75*
G02*
X0194654Y0065287I0000000J0000492D01*
G01*
G37*
G36*
G01*
X0197803Y0065287D02*
X0197803Y0070208D01*
G75*
G02*
X0198295Y0070701I0000492J0000000D01*
G01*
X0199280Y0070701D01*
G75*
G02*
X0199772Y0070208I0000000J-000492D01*
G01*
X0199772Y0065287D01*
G75*
G02*
X0199280Y0064795I-000492J0000000D01*
G01*
X0198295Y0064795D01*
G75*
G02*
X0197803Y0065287I0000000J0000492D01*
G01*
G37*
G36*
G01*
X0200953Y0065287D02*
X0200953Y0070208D01*
G75*
G02*
X0201445Y0070701I0000492J0000000D01*
G01*
X0202429Y0070701D01*
G75*
G02*
X0202921Y0070208I0000000J-000492D01*
G01*
X0202921Y0065287D01*
G75*
G02*
X0202429Y0064795I-000492J0000000D01*
G01*
X0201445Y0064795D01*
G75*
G02*
X0200953Y0065287I0000000J0000492D01*
G01*
G37*
G36*
G01*
X0204398Y0072669D02*
X0204398Y0073653D01*
G75*
G02*
X0204890Y0074145I0000492J0000000D01*
G01*
X0209811Y0074145D01*
G75*
G02*
X0210303Y0073653I0000000J-000492D01*
G01*
X0210303Y0072669D01*
G75*
G02*
X0209811Y0072177I-000492J0000000D01*
G01*
X0204890Y0072177D01*
G75*
G02*
X0204398Y0072669I0000000J0000492D01*
G01*
G37*
G36*
G01*
X0204398Y0075819D02*
X0204398Y0076803D01*
G75*
G02*
X0204890Y0077295I0000492J0000000D01*
G01*
X0209811Y0077295D01*
G75*
G02*
X0210303Y0076803I0000000J-000492D01*
G01*
X0210303Y0075819D01*
G75*
G02*
X0209811Y0075327I-000492J0000000D01*
G01*
X0204890Y0075327D01*
G75*
G02*
X0204398Y0075819I0000000J0000492D01*
G01*
G37*
G36*
G01*
X0204398Y0078968D02*
X0204398Y0079953D01*
G75*
G02*
X0204890Y0080445I0000492J0000000D01*
G01*
X0209811Y0080445D01*
G75*
G02*
X0210303Y0079953I0000000J-000492D01*
G01*
X0210303Y0078968D01*
G75*
G02*
X0209811Y0078476I-000492J0000000D01*
G01*
X0204890Y0078476D01*
G75*
G02*
X0204398Y0078968I0000000J0000492D01*
G01*
G37*
G36*
G01*
X0204398Y0082118D02*
X0204398Y0083102D01*
G75*
G02*
X0204890Y0083594I0000492J0000000D01*
G01*
X0209811Y0083594D01*
G75*
G02*
X0210303Y0083102I0000000J-000492D01*
G01*
X0210303Y0082118D01*
G75*
G02*
X0209811Y0081626I-000492J0000000D01*
G01*
X0204890Y0081626D01*
G75*
G02*
X0204398Y0082118I0000000J0000492D01*
G01*
G37*
G36*
G01*
X0204398Y0085268D02*
X0204398Y0086252D01*
G75*
G02*
X0204890Y0086744I0000492J0000000D01*
G01*
X0209811Y0086744D01*
G75*
G02*
X0210303Y0086252I0000000J-000492D01*
G01*
X0210303Y0085268D01*
G75*
G02*
X0209811Y0084775I-000492J0000000D01*
G01*
X0204890Y0084775D01*
G75*
G02*
X0204398Y0085268I0000000J0000492D01*
G01*
G37*
G36*
G01*
X0204398Y0088417D02*
X0204398Y0089401D01*
G75*
G02*
X0204890Y0089893I0000492J0000000D01*
G01*
X0209811Y0089893D01*
G75*
G02*
X0210303Y0089401I0000000J-000492D01*
G01*
X0210303Y0088417D01*
G75*
G02*
X0209811Y0087925I-000492J0000000D01*
G01*
X0204890Y0087925D01*
G75*
G02*
X0204398Y0088417I0000000J0000492D01*
G01*
G37*
G36*
G01*
X0204398Y0091567D02*
X0204398Y0092551D01*
G75*
G02*
X0204890Y0093043I0000492J0000000D01*
G01*
X0209811Y0093043D01*
G75*
G02*
X0210303Y0092551I0000000J-000492D01*
G01*
X0210303Y0091567D01*
G75*
G02*
X0209811Y0091075I-000492J0000000D01*
G01*
X0204890Y0091075D01*
G75*
G02*
X0204398Y0091567I0000000J0000492D01*
G01*
G37*
G36*
G01*
X0204398Y0094716D02*
X0204398Y0095701D01*
G75*
G02*
X0204890Y0096193I0000492J0000000D01*
G01*
X0209811Y0096193D01*
G75*
G02*
X0210303Y0095701I0000000J-000492D01*
G01*
X0210303Y0094716D01*
G75*
G02*
X0209811Y0094224I-000492J0000000D01*
G01*
X0204890Y0094224D01*
G75*
G02*
X0204398Y0094716I0000000J0000492D01*
G01*
G37*
G36*
G01*
X0200953Y0098161D02*
X0200953Y0103082D01*
G75*
G02*
X0201445Y0103575I0000492J0000000D01*
G01*
X0202429Y0103575D01*
G75*
G02*
X0202921Y0103082I0000000J-000492D01*
G01*
X0202921Y0098161D01*
G75*
G02*
X0202429Y0097669I-000492J0000000D01*
G01*
X0201445Y0097669D01*
G75*
G02*
X0200953Y0098161I0000000J0000492D01*
G01*
G37*
G36*
G01*
X0197803Y0098161D02*
X0197803Y0103082D01*
G75*
G02*
X0198295Y0103575I0000492J0000000D01*
G01*
X0199280Y0103575D01*
G75*
G02*
X0199772Y0103082I0000000J-000492D01*
G01*
X0199772Y0098161D01*
G75*
G02*
X0199280Y0097669I-000492J0000000D01*
G01*
X0198295Y0097669D01*
G75*
G02*
X0197803Y0098161I0000000J0000492D01*
G01*
G37*
G36*
G01*
X0194654Y0098161D02*
X0194654Y0103082D01*
G75*
G02*
X0195146Y0103575I0000492J0000000D01*
G01*
X0196130Y0103575D01*
G75*
G02*
X0196622Y0103082I0000000J-000492D01*
G01*
X0196622Y0098161D01*
G75*
G02*
X0196130Y0097669I-000492J0000000D01*
G01*
X0195146Y0097669D01*
G75*
G02*
X0194654Y0098161I0000000J0000492D01*
G01*
G37*
G36*
G01*
X0191504Y0098161D02*
X0191504Y0103082D01*
G75*
G02*
X0191996Y0103575I0000492J0000000D01*
G01*
X0192980Y0103575D01*
G75*
G02*
X0193473Y0103082I0000000J-000492D01*
G01*
X0193473Y0098161D01*
G75*
G02*
X0192980Y0097669I-000492J0000000D01*
G01*
X0191996Y0097669D01*
G75*
G02*
X0191504Y0098161I0000000J0000492D01*
G01*
G37*
G36*
G01*
X0188355Y0098161D02*
X0188355Y0103082D01*
G75*
G02*
X0188847Y0103575I0000492J0000000D01*
G01*
X0189831Y0103575D01*
G75*
G02*
X0190323Y0103082I0000000J-000492D01*
G01*
X0190323Y0098161D01*
G75*
G02*
X0189831Y0097669I-000492J0000000D01*
G01*
X0188847Y0097669D01*
G75*
G02*
X0188355Y0098161I0000000J0000492D01*
G01*
G37*
G36*
G01*
X0185205Y0098161D02*
X0185205Y0103082D01*
G75*
G02*
X0185697Y0103575I0000492J0000000D01*
G01*
X0186681Y0103575D01*
G75*
G02*
X0187173Y0103082I0000000J-000492D01*
G01*
X0187173Y0098161D01*
G75*
G02*
X0186681Y0097669I-000492J0000000D01*
G01*
X0185697Y0097669D01*
G75*
G02*
X0185205Y0098161I0000000J0000492D01*
G01*
G37*
G36*
G01*
X0182055Y0098161D02*
X0182055Y0103082D01*
G75*
G02*
X0182547Y0103575I0000492J0000000D01*
G01*
X0183532Y0103575D01*
G75*
G02*
X0184024Y0103082I0000000J-000492D01*
G01*
X0184024Y0098161D01*
G75*
G02*
X0183532Y0097669I-000492J0000000D01*
G01*
X0182547Y0097669D01*
G75*
G02*
X0182055Y0098161I0000000J0000492D01*
G01*
G37*
G36*
G01*
X0178906Y0098161D02*
X0178906Y0103082D01*
G75*
G02*
X0179398Y0103575I0000492J0000000D01*
G01*
X0180382Y0103575D01*
G75*
G02*
X0180874Y0103082I0000000J-000492D01*
G01*
X0180874Y0098161D01*
G75*
G02*
X0180382Y0097669I-000492J0000000D01*
G01*
X0179398Y0097669D01*
G75*
G02*
X0178906Y0098161I0000000J0000492D01*
G01*
G37*
G36*
G01*
X0171740Y0069706D02*
X0171740Y0068348D01*
G75*
G02*
X0171160Y0067768I-000581J0000000D01*
G01*
X0169998Y0067768D01*
G75*
G02*
X0169417Y0068348I0000000J0000581D01*
G01*
X0169417Y0069706D01*
G75*
G02*
X0169998Y0070287I0000581J0000000D01*
G01*
X0171160Y0070287D01*
G75*
G02*
X0171740Y0069706I0000000J-000581D01*
G01*
G37*
G36*
G01*
X0167921Y0069706D02*
X0167921Y0068348D01*
G75*
G02*
X0167341Y0067768I-000581J0000000D01*
G01*
X0166179Y0067768D01*
G75*
G02*
X0165599Y0068348I0000000J0000581D01*
G01*
X0165599Y0069706D01*
G75*
G02*
X0166179Y0070287I0000581J0000000D01*
G01*
X0167341Y0070287D01*
G75*
G02*
X0167921Y0069706I0000000J-000581D01*
G01*
G37*
G36*
G01*
X0158118Y0067167D02*
X0158118Y0068525D01*
G75*
G02*
X0158699Y0069106I0000581J0000000D01*
G01*
X0159860Y0069106D01*
G75*
G02*
X0160441Y0068525I0000000J-000581D01*
G01*
X0160441Y0067167D01*
G75*
G02*
X0159860Y0066586I-000581J0000000D01*
G01*
X0158699Y0066586D01*
G75*
G02*
X0158118Y0067167I0000000J0000581D01*
G01*
G37*
G36*
G01*
X0161937Y0067167D02*
X0161937Y0068525D01*
G75*
G02*
X0162518Y0069106I0000581J0000000D01*
G01*
X0163679Y0069106D01*
G75*
G02*
X0164260Y0068525I0000000J-000581D01*
G01*
X0164260Y0067167D01*
G75*
G02*
X0163679Y0066586I-000581J0000000D01*
G01*
X0162518Y0066586D01*
G75*
G02*
X0161937Y0067167I0000000J0000581D01*
G01*
G37*
G36*
G01*
X0163630Y0092364D02*
X0163630Y0093722D01*
G75*
G02*
X0164211Y0094303I0000581J0000000D01*
G01*
X0165372Y0094303D01*
G75*
G02*
X0165953Y0093722I0000000J-000581D01*
G01*
X0165953Y0092364D01*
G75*
G02*
X0165372Y0091783I-000581J0000000D01*
G01*
X0164211Y0091783D01*
G75*
G02*
X0163630Y0092364I0000000J0000581D01*
G01*
G37*
G36*
G01*
X0167449Y0092364D02*
X0167449Y0093722D01*
G75*
G02*
X0168030Y0094303I0000581J0000000D01*
G01*
X0169191Y0094303D01*
G75*
G02*
X0169772Y0093722I0000000J-000581D01*
G01*
X0169772Y0092364D01*
G75*
G02*
X0169191Y0091783I-000581J0000000D01*
G01*
X0168030Y0091783D01*
G75*
G02*
X0167449Y0092364I0000000J0000581D01*
G01*
G37*
G36*
G01*
X0216425Y0074185D02*
X0215067Y0074185D01*
G75*
G02*
X0214486Y0074766I0000000J0000581D01*
G01*
X0214486Y0075927D01*
G75*
G02*
X0215067Y0076508I0000581J0000000D01*
G01*
X0216425Y0076508D01*
G75*
G02*
X0217006Y0075927I0000000J-000581D01*
G01*
X0217006Y0074766D01*
G75*
G02*
X0216425Y0074185I-000581J0000000D01*
G01*
G37*
G36*
G01*
X0216425Y0078004D02*
X0215067Y0078004D01*
G75*
G02*
X0214486Y0078585I0000000J0000581D01*
G01*
X0214486Y0079746D01*
G75*
G02*
X0215067Y0080327I0000581J0000000D01*
G01*
X0216425Y0080327D01*
G75*
G02*
X0217006Y0079746I0000000J-000581D01*
G01*
X0217006Y0078585D01*
G75*
G02*
X0216425Y0078004I-000581J0000000D01*
G01*
G37*
G36*
G01*
X0207144Y0100543D02*
X0205786Y0100543D01*
G75*
G02*
X0205205Y0101124I0000000J0000581D01*
G01*
X0205205Y0102285D01*
G75*
G02*
X0205786Y0102866I0000581J0000000D01*
G01*
X0207144Y0102866D01*
G75*
G02*
X0207725Y0102285I0000000J-000581D01*
G01*
X0207725Y0101124D01*
G75*
G02*
X0207144Y0100543I-000581J0000000D01*
G01*
G37*
G36*
G01*
X0207144Y0104362D02*
X0205786Y0104362D01*
G75*
G02*
X0205205Y0104943I0000000J0000581D01*
G01*
X0205205Y0106104D01*
G75*
G02*
X0205786Y0106685I0000581J0000000D01*
G01*
X0207144Y0106685D01*
G75*
G02*
X0207725Y0106104I0000000J-000581D01*
G01*
X0207725Y0104943D01*
G75*
G02*
X0207144Y0104362I-000581J0000000D01*
G01*
G37*
G36*
G01*
X0230886Y0078210D02*
X0230886Y0076852D01*
G75*
G02*
X0230305Y0076271I-000581J0000000D01*
G01*
X0229144Y0076271D01*
G75*
G02*
X0228563Y0076852I0000000J0000581D01*
G01*
X0228563Y0078210D01*
G75*
G02*
X0229144Y0078791I0000581J0000000D01*
G01*
X0230305Y0078791D01*
G75*
G02*
X0230886Y0078210I0000000J-000581D01*
G01*
G37*
G36*
G01*
X0227067Y0078210D02*
X0227067Y0076852D01*
G75*
G02*
X0226486Y0076271I-000581J0000000D01*
G01*
X0225325Y0076271D01*
G75*
G02*
X0224744Y0076852I0000000J0000581D01*
G01*
X0224744Y0078210D01*
G75*
G02*
X0225325Y0078791I0000581J0000000D01*
G01*
X0226486Y0078791D01*
G75*
G02*
X0227067Y0078210I0000000J-000581D01*
G01*
G37*
D75*
X0229555Y0072468D03*
X0222075Y0072468D03*
X0225815Y0064594D03*
G36*
G01*
X0128112Y0096220D02*
X0129471Y0096220D01*
G75*
G02*
X0130051Y0095640I0000000J-000581D01*
G01*
X0130051Y0094478D01*
G75*
G02*
X0129471Y0093897I-000581J0000000D01*
G01*
X0128112Y0093897D01*
G75*
G02*
X0127532Y0094478I0000000J0000581D01*
G01*
X0127532Y0095640D01*
G75*
G02*
X0128112Y0096220I0000581J0000000D01*
G01*
G37*
G36*
G01*
X0128112Y0092401D02*
X0129471Y0092401D01*
G75*
G02*
X0130051Y0091821I0000000J-000581D01*
G01*
X0130051Y0090659D01*
G75*
G02*
X0129471Y0090079I-000581J0000000D01*
G01*
X0128112Y0090079D01*
G75*
G02*
X0127532Y0090659I0000000J0000581D01*
G01*
X0127532Y0091821D01*
G75*
G02*
X0128112Y0092401I0000581J0000000D01*
G01*
G37*
G36*
G01*
X0216460Y0062551D02*
X0214442Y0062551D01*
G75*
G02*
X0213581Y0063412I0000000J0000861D01*
G01*
X0213581Y0065135D01*
G75*
G02*
X0214442Y0065996I0000861J0000000D01*
G01*
X0216460Y0065996D01*
G75*
G02*
X0217321Y0065135I0000000J-000861D01*
G01*
X0217321Y0063412D01*
G75*
G02*
X0216460Y0062551I-000861J0000000D01*
G01*
G37*
G36*
G01*
X0216460Y0068752D02*
X0214442Y0068752D01*
G75*
G02*
X0213581Y0069613I0000000J0000861D01*
G01*
X0213581Y0071336D01*
G75*
G02*
X0214442Y0072197I0000861J0000000D01*
G01*
X0216460Y0072197D01*
G75*
G02*
X0217321Y0071336I0000000J-000861D01*
G01*
X0217321Y0069613D01*
G75*
G02*
X0216460Y0068752I-000861J0000000D01*
G01*
G37*
X0280542Y0109884D02*
G01*
G75*
D130*
X0293554Y0098467D02*
D03*
X0284302Y0102207D02*
D03*
D130*
X0293554Y0105947D02*
D03*
D117*
X0305168Y0090908D02*
D03*
X0300168Y0090908D02*
D03*
X0295168Y0090908D02*
D03*
X0290168Y0090908D02*
D03*
X0305168Y0072010D02*
D03*
X0300168Y0072010D02*
D03*
X0295168Y0072010D02*
D03*
X0290168Y0072010D02*
D03*
D131*
X0284873Y0075199D02*
D03*
X0284873Y0068979D02*
D03*
X0284873Y0083545D02*
D03*
X0284873Y0089766D02*
D03*
D132*
X0298455Y0105357D02*
D03*
X0298455Y0099057D02*
D03*
D33*
X0282412Y0094727D02*
D03*
X0317449Y0058398D02*
%LPD*%
G01*
G36*
G01*
X0386042Y0094697D02*
X0384683Y0094697D01*
G75*
G02*
X0384103Y0095278I0000000J0000581D01*
G01*
X0384103Y0096439D01*
G75*
G02*
X0384683Y0097020I0000581J0000000D01*
G01*
X0386042Y0097020D01*
G75*
G02*
X0386622Y0096439I0000000J-000581D01*
G01*
X0386622Y0095278D01*
G75*
G02*
X0386042Y0094697I-000581J0000000D01*
G01*
G37*
G36*
G01*
X0386042Y0098516D02*
X0384683Y0098516D01*
G75*
G02*
X0384103Y0099097I0000000J0000581D01*
G01*
X0384103Y0100258D01*
G75*
G02*
X0384683Y0100839I0000581J0000000D01*
G01*
X0386042Y0100839D01*
G75*
G02*
X0386622Y0100258I0000000J-000581D01*
G01*
X0386622Y0099097D01*
G75*
G02*
X0386042Y0098516I-000581J0000000D01*
G01*
G37*
G36*
G01*
X0420864Y0070040D02*
X0420864Y0068681D01*
G75*
G02*
X0420284Y0068101I-000581J0000000D01*
G01*
X0419122Y0068101D01*
G75*
G02*
X0418542Y0068681I0000000J0000581D01*
G01*
X0418542Y0070040D01*
G75*
G02*
X0419122Y0070620I0000581J0000000D01*
G01*
X0420284Y0070620D01*
G75*
G02*
X0420864Y0070040I0000000J-000581D01*
G01*
G37*
G36*
G01*
X0417045Y0070040D02*
X0417045Y0068681D01*
G75*
G02*
X0416465Y0068101I-000581J0000000D01*
G01*
X0415303Y0068101D01*
G75*
G02*
X0414723Y0068681I0000000J0000581D01*
G01*
X0414723Y0070040D01*
G75*
G02*
X0415303Y0070620I0000581J0000000D01*
G01*
X0416465Y0070620D01*
G75*
G02*
X0417045Y0070040I0000000J-000581D01*
G01*
G37*
G36*
G01*
X0423473Y0094931D02*
X0423473Y0096290D01*
G75*
G02*
X0424053Y0096870I0000581J0000000D01*
G01*
X0425215Y0096870D01*
G75*
G02*
X0425795Y0096290I0000000J-000581D01*
G01*
X0425795Y0094931D01*
G75*
G02*
X0425215Y0094351I-000581J0000000D01*
G01*
X0424053Y0094351D01*
G75*
G02*
X0423473Y0094931I0000000J0000581D01*
G01*
G37*
G36*
G01*
X0427292Y0094931D02*
X0427292Y0096290D01*
G75*
G02*
X0427872Y0096870I0000581J0000000D01*
G01*
X0429034Y0096870D01*
G75*
G02*
X0429614Y0096290I0000000J-000581D01*
G01*
X0429614Y0094931D01*
G75*
G02*
X0429034Y0094351I-000581J0000000D01*
G01*
X0427872Y0094351D01*
G75*
G02*
X0427292Y0094931I0000000J0000581D01*
G01*
G37*
G36*
G01*
X0323449Y0078550D02*
X0323449Y0079908D01*
G75*
G02*
X0324030Y0080489I0000581J0000000D01*
G01*
X0325191Y0080489D01*
G75*
G02*
X0325772Y0079908I0000000J-000581D01*
G01*
X0325772Y0078550D01*
G75*
G02*
X0325191Y0077969I-000581J0000000D01*
G01*
X0324030Y0077969D01*
G75*
G02*
X0323449Y0078550I0000000J0000581D01*
G01*
G37*
G36*
G01*
X0327268Y0078550D02*
X0327268Y0079908D01*
G75*
G02*
X0327849Y0080489I0000581J0000000D01*
G01*
X0329010Y0080489D01*
G75*
G02*
X0329591Y0079908I0000000J-000581D01*
G01*
X0329591Y0078550D01*
G75*
G02*
X0329010Y0077969I-000581J0000000D01*
G01*
X0327849Y0077969D01*
G75*
G02*
X0327268Y0078550I0000000J0000581D01*
G01*
G37*
G36*
G01*
X0337011Y0092552D02*
X0339029Y0092552D01*
G75*
G02*
X0339890Y0091690I0000000J-000861D01*
G01*
X0339890Y0089968D01*
G75*
G02*
X0339029Y0089107I-000861J0000000D01*
G01*
X0337011Y0089107D01*
G75*
G02*
X0336150Y0089968I0000000J0000861D01*
G01*
X0336150Y0091690D01*
G75*
G02*
X0337011Y0092552I0000861J0000000D01*
G01*
G37*
G36*
G01*
X0337011Y0086351D02*
X0339029Y0086351D01*
G75*
G02*
X0339890Y0085490I0000000J-000861D01*
G01*
X0339890Y0083767D01*
G75*
G02*
X0339029Y0082906I-000861J0000000D01*
G01*
X0337011Y0082906D01*
G75*
G02*
X0336150Y0083767I0000000J0000861D01*
G01*
X0336150Y0085490D01*
G75*
G02*
X0337011Y0086351I0000861J0000000D01*
G01*
G37*
G36*
G01*
X0407721Y0095602D02*
X0407721Y0097619D01*
G75*
G02*
X0408582Y0098481I0000861J0000000D01*
G01*
X0410304Y0098481D01*
G75*
G02*
X0411166Y0097619I0000000J-000861D01*
G01*
X0411166Y0095602D01*
G75*
G02*
X0410304Y0094741I-000861J0000000D01*
G01*
X0408582Y0094741D01*
G75*
G02*
X0407721Y0095602I0000000J0000861D01*
G01*
G37*
G36*
G01*
X0413921Y0095602D02*
X0413921Y0097619D01*
G75*
G02*
X0414783Y0098481I0000861J0000000D01*
G01*
X0416505Y0098481D01*
G75*
G02*
X0417366Y0097619I0000000J-000861D01*
G01*
X0417366Y0095602D01*
G75*
G02*
X0416505Y0094741I-000861J0000000D01*
G01*
X0414783Y0094741D01*
G75*
G02*
X0413921Y0095602I0000000J0000861D01*
G01*
G37*
G36*
G01*
X0413114Y0070040D02*
X0413114Y0068681D01*
G75*
G02*
X0412534Y0068101I-000581J0000000D01*
G01*
X0411372Y0068101D01*
G75*
G02*
X0410792Y0068681I0000000J0000581D01*
G01*
X0410792Y0070040D01*
G75*
G02*
X0411372Y0070620I0000581J0000000D01*
G01*
X0412534Y0070620D01*
G75*
G02*
X0413114Y0070040I0000000J-000581D01*
G01*
G37*
G36*
G01*
X0409295Y0070040D02*
X0409295Y0068681D01*
G75*
G02*
X0408715Y0068101I-000581J0000000D01*
G01*
X0407553Y0068101D01*
G75*
G02*
X0406973Y0068681I0000000J0000581D01*
G01*
X0406973Y0070040D01*
G75*
G02*
X0407553Y0070620I0000581J0000000D01*
G01*
X0408715Y0070620D01*
G75*
G02*
X0409295Y0070040I0000000J-000581D01*
G01*
G37*
G36*
G01*
X0425223Y0086540D02*
X0423864Y0086540D01*
G75*
G02*
X0423284Y0087120I0000000J0000581D01*
G01*
X0423284Y0088282D01*
G75*
G02*
X0423864Y0088863I0000581J0000000D01*
G01*
X0425223Y0088863D01*
G75*
G02*
X0425803Y0088282I0000000J-000581D01*
G01*
X0425803Y0087120D01*
G75*
G02*
X0425223Y0086540I-000581J0000000D01*
G01*
G37*
G36*
G01*
X0425223Y0090359D02*
X0423864Y0090359D01*
G75*
G02*
X0423284Y0090939I0000000J0000581D01*
G01*
X0423284Y0092101D01*
G75*
G02*
X0423864Y0092681I0000581J0000000D01*
G01*
X0425223Y0092681D01*
G75*
G02*
X0425803Y0092101I0000000J-000581D01*
G01*
X0425803Y0090939D01*
G75*
G02*
X0425223Y0090359I-000581J0000000D01*
G01*
G37*
G36*
G01*
X0418935Y0108516D02*
X0420293Y0108516D01*
G75*
G02*
X0420874Y0107935I0000000J-000581D01*
G01*
X0420874Y0106774D01*
G75*
G02*
X0420293Y0106193I-000581J0000000D01*
G01*
X0418935Y0106193D01*
G75*
G02*
X0418355Y0106774I0000000J0000581D01*
G01*
X0418355Y0107935D01*
G75*
G02*
X0418935Y0108516I0000581J0000000D01*
G01*
G37*
G36*
G01*
X0418935Y0104697D02*
X0420293Y0104697D01*
G75*
G02*
X0420874Y0104117I0000000J-000581D01*
G01*
X0420874Y0102955D01*
G75*
G02*
X0420293Y0102374I-000581J0000000D01*
G01*
X0418935Y0102374D01*
G75*
G02*
X0418355Y0102955I0000000J0000581D01*
G01*
X0418355Y0104117D01*
G75*
G02*
X0418935Y0104697I0000581J0000000D01*
G01*
G37*
G36*
G01*
X0414378Y0111853D02*
X0414378Y0113211D01*
G75*
G02*
X0414959Y0113792I0000581J0000000D01*
G01*
X0416120Y0113792D01*
G75*
G02*
X0416701Y0113211I0000000J-000581D01*
G01*
X0416701Y0111853D01*
G75*
G02*
X0416120Y0111272I-000581J0000000D01*
G01*
X0414959Y0111272D01*
G75*
G02*
X0414378Y0111853I0000000J0000581D01*
G01*
G37*
G36*
G01*
X0418197Y0111853D02*
X0418197Y0113211D01*
G75*
G02*
X0418778Y0113792I0000581J0000000D01*
G01*
X0419939Y0113792D01*
G75*
G02*
X0420520Y0113211I0000000J-000581D01*
G01*
X0420520Y0111853D01*
G75*
G02*
X0419939Y0111272I-000581J0000000D01*
G01*
X0418778Y0111272D01*
G75*
G02*
X0418197Y0111853I0000000J0000581D01*
G01*
G37*
G36*
G01*
X0389575Y0113034D02*
X0389575Y0114392D01*
G75*
G02*
X0390156Y0114973I0000581J0000000D01*
G01*
X0391317Y0114973D01*
G75*
G02*
X0391898Y0114392I0000000J-000581D01*
G01*
X0391898Y0113034D01*
G75*
G02*
X0391317Y0112453I-000581J0000000D01*
G01*
X0390156Y0112453D01*
G75*
G02*
X0389575Y0113034I0000000J0000581D01*
G01*
G37*
G36*
G01*
X0393394Y0113034D02*
X0393394Y0114392D01*
G75*
G02*
X0393975Y0114973I0000581J0000000D01*
G01*
X0395136Y0114973D01*
G75*
G02*
X0395717Y0114392I0000000J-000581D01*
G01*
X0395717Y0113034D01*
G75*
G02*
X0395136Y0112453I-000581J0000000D01*
G01*
X0393975Y0112453D01*
G75*
G02*
X0393394Y0113034I0000000J0000581D01*
G01*
G37*
G36*
G01*
X0405364Y0070040D02*
X0405364Y0068681D01*
G75*
G02*
X0404784Y0068101I-000581J0000000D01*
G01*
X0403622Y0068101D01*
G75*
G02*
X0403042Y0068681I0000000J0000581D01*
G01*
X0403042Y0070040D01*
G75*
G02*
X0403622Y0070620I0000581J0000000D01*
G01*
X0404784Y0070620D01*
G75*
G02*
X0405364Y0070040I0000000J-000581D01*
G01*
G37*
G36*
G01*
X0401545Y0070040D02*
X0401545Y0068681D01*
G75*
G02*
X0400965Y0068101I-000581J0000000D01*
G01*
X0399803Y0068101D01*
G75*
G02*
X0399223Y0068681I0000000J0000581D01*
G01*
X0399223Y0070040D01*
G75*
G02*
X0399803Y0070620I0000581J0000000D01*
G01*
X0400965Y0070620D01*
G75*
G02*
X0401545Y0070040I0000000J-000581D01*
G01*
G37*
G36*
G01*
X0397614Y0070040D02*
X0397614Y0068681D01*
G75*
G02*
X0397034Y0068101I-000581J0000000D01*
G01*
X0395872Y0068101D01*
G75*
G02*
X0395292Y0068681I0000000J0000581D01*
G01*
X0395292Y0070040D01*
G75*
G02*
X0395872Y0070620I0000581J0000000D01*
G01*
X0397034Y0070620D01*
G75*
G02*
X0397614Y0070040I0000000J-000581D01*
G01*
G37*
G36*
G01*
X0393795Y0070040D02*
X0393795Y0068681D01*
G75*
G02*
X0393215Y0068101I-000581J0000000D01*
G01*
X0392053Y0068101D01*
G75*
G02*
X0391473Y0068681I0000000J0000581D01*
G01*
X0391473Y0070040D01*
G75*
G02*
X0392053Y0070620I0000581J0000000D01*
G01*
X0393215Y0070620D01*
G75*
G02*
X0393795Y0070040I0000000J-000581D01*
G01*
G37*
G36*
G01*
X0421223Y0094540D02*
X0419864Y0094540D01*
G75*
G02*
X0419284Y0095120I0000000J0000581D01*
G01*
X0419284Y0096282D01*
G75*
G02*
X0419864Y0096863I0000581J0000000D01*
G01*
X0421223Y0096863D01*
G75*
G02*
X0421803Y0096282I0000000J-000581D01*
G01*
X0421803Y0095120D01*
G75*
G02*
X0421223Y0094540I-000581J0000000D01*
G01*
G37*
G36*
G01*
X0421223Y0098359D02*
X0419864Y0098359D01*
G75*
G02*
X0419284Y0098939I0000000J0000581D01*
G01*
X0419284Y0100101D01*
G75*
G02*
X0419864Y0100681I0000581J0000000D01*
G01*
X0421223Y0100681D01*
G75*
G02*
X0421803Y0100101I0000000J-000581D01*
G01*
X0421803Y0098939D01*
G75*
G02*
X0421223Y0098359I-000581J0000000D01*
G01*
G37*
D70*
X0331457Y0084589D03*
X0331457Y0092069D03*
X0323583Y0088329D03*
D71*
X0394929Y0090288D03*
X0394929Y0087729D03*
X0394929Y0085170D03*
X0394929Y0082611D03*
X0394929Y0080052D03*
X0394929Y0077492D03*
X0394929Y0074933D03*
X0418158Y0074933D03*
X0418158Y0077492D03*
X0418158Y0080052D03*
X0418158Y0082611D03*
X0418158Y0085170D03*
X0418158Y0087729D03*
X0418158Y0090288D03*
G36*
G01*
X0429223Y0086540D02*
X0427864Y0086540D01*
G75*
G02*
X0427284Y0087120I0000000J0000581D01*
G01*
X0427284Y0088282D01*
G75*
G02*
X0427864Y0088863I0000581J0000000D01*
G01*
X0429223Y0088863D01*
G75*
G02*
X0429803Y0088282I0000000J-000581D01*
G01*
X0429803Y0087120D01*
G75*
G02*
X0429223Y0086540I-000581J0000000D01*
G01*
G37*
G36*
G01*
X0429223Y0090359D02*
X0427864Y0090359D01*
G75*
G02*
X0427284Y0090939I0000000J0000581D01*
G01*
X0427284Y0092101D01*
G75*
G02*
X0427864Y0092681I0000581J0000000D01*
G01*
X0429223Y0092681D01*
G75*
G02*
X0429803Y0092101I0000000J-000581D01*
G01*
X0429803Y0090939D01*
G75*
G02*
X0429223Y0090359I-000581J0000000D01*
G01*
G37*
G36*
G01*
X0382095Y0109294D02*
X0382095Y0110652D01*
G75*
G02*
X0382675Y0111233I0000581J0000000D01*
G01*
X0383837Y0111233D01*
G75*
G02*
X0384418Y0110652I0000000J-000581D01*
G01*
X0384418Y0109294D01*
G75*
G02*
X0383837Y0108713I-000581J0000000D01*
G01*
X0382675Y0108713D01*
G75*
G02*
X0382095Y0109294I0000000J0000581D01*
G01*
G37*
G36*
G01*
X0385914Y0109294D02*
X0385914Y0110652D01*
G75*
G02*
X0386494Y0111233I0000581J0000000D01*
G01*
X0387656Y0111233D01*
G75*
G02*
X0388236Y0110652I0000000J-000581D01*
G01*
X0388236Y0109294D01*
G75*
G02*
X0387656Y0108713I-000581J0000000D01*
G01*
X0386494Y0108713D01*
G75*
G02*
X0385914Y0109294I0000000J0000581D01*
G01*
G37*
G36*
G01*
X0388236Y0114392D02*
X0388236Y0113034D01*
G75*
G02*
X0387656Y0112453I-000581J0000000D01*
G01*
X0386494Y0112453D01*
G75*
G02*
X0385914Y0113034I0000000J0000581D01*
G01*
X0385914Y0114392D01*
G75*
G02*
X0386494Y0114973I0000581J0000000D01*
G01*
X0387656Y0114973D01*
G75*
G02*
X0388236Y0114392I0000000J-000581D01*
G01*
G37*
G36*
G01*
X0384418Y0114392D02*
X0384418Y0113034D01*
G75*
G02*
X0383837Y0112453I-000581J0000000D01*
G01*
X0382675Y0112453D01*
G75*
G02*
X0382095Y0113034I0000000J0000581D01*
G01*
X0382095Y0114392D01*
G75*
G02*
X0382675Y0114973I0000581J0000000D01*
G01*
X0383837Y0114973D01*
G75*
G02*
X0384418Y0114392I0000000J-000581D01*
G01*
G37*
G36*
G01*
X0384683Y0093359D02*
X0386042Y0093359D01*
G75*
G02*
X0386622Y0092778I0000000J-000581D01*
G01*
X0386622Y0091617D01*
G75*
G02*
X0386042Y0091036I-000581J0000000D01*
G01*
X0384683Y0091036D01*
G75*
G02*
X0384103Y0091617I0000000J0000581D01*
G01*
X0384103Y0092778D01*
G75*
G02*
X0384683Y0093359I0000581J0000000D01*
G01*
G37*
G36*
G01*
X0384683Y0089540D02*
X0386042Y0089540D01*
G75*
G02*
X0386622Y0088959I0000000J-000581D01*
G01*
X0386622Y0087798D01*
G75*
G02*
X0386042Y0087217I-000581J0000000D01*
G01*
X0384683Y0087217D01*
G75*
G02*
X0384103Y0087798I0000000J0000581D01*
G01*
X0384103Y0088959D01*
G75*
G02*
X0384683Y0089540I0000581J0000000D01*
G01*
G37*
G36*
G01*
X0431120Y0103555D02*
X0429762Y0103555D01*
G75*
G02*
X0429181Y0104136I0000000J0000581D01*
G01*
X0429181Y0105298D01*
G75*
G02*
X0429762Y0105878I0000581J0000000D01*
G01*
X0431120Y0105878D01*
G75*
G02*
X0431701Y0105298I0000000J-000581D01*
G01*
X0431701Y0104136D01*
G75*
G02*
X0431120Y0103555I-000581J0000000D01*
G01*
G37*
G36*
G01*
X0431120Y0107374D02*
X0429762Y0107374D01*
G75*
G02*
X0429181Y0107955I0000000J0000581D01*
G01*
X0429181Y0109117D01*
G75*
G02*
X0429762Y0109697I0000581J0000000D01*
G01*
X0431120Y0109697D01*
G75*
G02*
X0431701Y0109117I0000000J-000581D01*
G01*
X0431701Y0107955D01*
G75*
G02*
X0431120Y0107374I-000581J0000000D01*
G01*
G37*
G36*
G01*
X0356563Y0113034D02*
X0356563Y0114392D01*
G75*
G02*
X0357144Y0114973I0000581J0000000D01*
G01*
X0358305Y0114973D01*
G75*
G02*
X0358886Y0114392I0000000J-000581D01*
G01*
X0358886Y0113034D01*
G75*
G02*
X0358305Y0112453I-000581J0000000D01*
G01*
X0357144Y0112453D01*
G75*
G02*
X0356563Y0113034I0000000J0000581D01*
G01*
G37*
G36*
G01*
X0360382Y0113034D02*
X0360382Y0114392D01*
G75*
G02*
X0360963Y0114973I0000581J0000000D01*
G01*
X0362124Y0114973D01*
G75*
G02*
X0362705Y0114392I0000000J-000581D01*
G01*
X0362705Y0113034D01*
G75*
G02*
X0362124Y0112453I-000581J0000000D01*
G01*
X0360963Y0112453D01*
G75*
G02*
X0360382Y0113034I0000000J0000581D01*
G01*
G37*
G36*
G01*
X0379959Y0077217D02*
X0381317Y0077217D01*
G75*
G02*
X0381898Y0076636I0000000J-000581D01*
G01*
X0381898Y0075475D01*
G75*
G02*
X0381317Y0074894I-000581J0000000D01*
G01*
X0379959Y0074894D01*
G75*
G02*
X0379378Y0075475I0000000J0000581D01*
G01*
X0379378Y0076636D01*
G75*
G02*
X0379959Y0077217I0000581J0000000D01*
G01*
G37*
G36*
G01*
X0379959Y0073398D02*
X0381317Y0073398D01*
G75*
G02*
X0381898Y0072817I0000000J-000581D01*
G01*
X0381898Y0071656D01*
G75*
G02*
X0381317Y0071075I-000581J0000000D01*
G01*
X0379959Y0071075D01*
G75*
G02*
X0379378Y0071656I0000000J0000581D01*
G01*
X0379378Y0072817D01*
G75*
G02*
X0379959Y0073398I0000581J0000000D01*
G01*
G37*
G36*
G01*
X0345490Y0106311D02*
X0344132Y0106311D01*
G75*
G02*
X0343551Y0106892I0000000J0000581D01*
G01*
X0343551Y0108054D01*
G75*
G02*
X0344132Y0108634I0000581J0000000D01*
G01*
X0345490Y0108634D01*
G75*
G02*
X0346071Y0108054I0000000J-000581D01*
G01*
X0346071Y0106892D01*
G75*
G02*
X0345490Y0106311I-000581J0000000D01*
G01*
G37*
G36*
G01*
X0345490Y0110130D02*
X0344132Y0110130D01*
G75*
G02*
X0343551Y0110711I0000000J0000581D01*
G01*
X0343551Y0111872D01*
G75*
G02*
X0344132Y0112453I0000581J0000000D01*
G01*
X0345490Y0112453D01*
G75*
G02*
X0346071Y0111872I0000000J-000581D01*
G01*
X0346071Y0110711D01*
G75*
G02*
X0345490Y0110130I-000581J0000000D01*
G01*
G37*
D72*
X0437213Y0099343D03*
X0455166Y0099343D03*
D79*
X0440185Y0067945D03*
X0452193Y0067945D03*
X0440185Y0081134D03*
X0452193Y0081134D03*
G36*
G01*
X0423965Y0065396D02*
X0423965Y0066754D01*
G75*
G02*
X0424545Y0067335I0000581J0000000D01*
G01*
X0425707Y0067335D01*
G75*
G02*
X0426288Y0066754I0000000J-000581D01*
G01*
X0426288Y0065396D01*
G75*
G02*
X0425707Y0064815I-000581J0000000D01*
G01*
X0424545Y0064815D01*
G75*
G02*
X0423965Y0065396I0000000J0000581D01*
G01*
G37*
G36*
G01*
X0427784Y0065396D02*
X0427784Y0066754D01*
G75*
G02*
X0428364Y0067335I0000581J0000000D01*
G01*
X0429526Y0067335D01*
G75*
G02*
X0430106Y0066754I0000000J-000581D01*
G01*
X0430106Y0065396D01*
G75*
G02*
X0429526Y0064815I-000581J0000000D01*
G01*
X0428364Y0064815D01*
G75*
G02*
X0427784Y0065396I0000000J0000581D01*
G01*
G37*
G36*
G01*
X0385845Y0071075D02*
X0384486Y0071075D01*
G75*
G02*
X0383906Y0071656I0000000J0000581D01*
G01*
X0383906Y0072817D01*
G75*
G02*
X0384486Y0073398I0000581J0000000D01*
G01*
X0385845Y0073398D01*
G75*
G02*
X0386425Y0072817I0000000J-000581D01*
G01*
X0386425Y0071656D01*
G75*
G02*
X0385845Y0071075I-000581J0000000D01*
G01*
G37*
G36*
G01*
X0385845Y0074894D02*
X0384486Y0074894D01*
G75*
G02*
X0383906Y0075475I0000000J0000581D01*
G01*
X0383906Y0076636D01*
G75*
G02*
X0384486Y0077217I0000581J0000000D01*
G01*
X0385845Y0077217D01*
G75*
G02*
X0386425Y0076636I0000000J-000581D01*
G01*
X0386425Y0075475D01*
G75*
G02*
X0385845Y0074894I-000581J0000000D01*
G01*
G37*
G36*
G01*
X0422193Y0111656D02*
X0422193Y0113014D01*
G75*
G02*
X0422774Y0113595I0000581J0000000D01*
G01*
X0423935Y0113595D01*
G75*
G02*
X0424516Y0113014I0000000J-000581D01*
G01*
X0424516Y0111656D01*
G75*
G02*
X0423935Y0111075I-000581J0000000D01*
G01*
X0422774Y0111075D01*
G75*
G02*
X0422193Y0111656I0000000J0000581D01*
G01*
G37*
G36*
G01*
X0426012Y0111656D02*
X0426012Y0113014D01*
G75*
G02*
X0426593Y0113595I0000581J0000000D01*
G01*
X0427754Y0113595D01*
G75*
G02*
X0428335Y0113014I0000000J-000581D01*
G01*
X0428335Y0111656D01*
G75*
G02*
X0427754Y0111075I-000581J0000000D01*
G01*
X0426593Y0111075D01*
G75*
G02*
X0426012Y0111656I0000000J0000581D01*
G01*
G37*
G36*
G01*
X0388364Y0078181D02*
X0389723Y0078181D01*
G75*
G02*
X0390303Y0077601I0000000J-000581D01*
G01*
X0390303Y0076439D01*
G75*
G02*
X0389723Y0075859I-000581J0000000D01*
G01*
X0388364Y0075859D01*
G75*
G02*
X0387784Y0076439I0000000J0000581D01*
G01*
X0387784Y0077601D01*
G75*
G02*
X0388364Y0078181I0000581J0000000D01*
G01*
G37*
G36*
G01*
X0388364Y0074363D02*
X0389723Y0074363D01*
G75*
G02*
X0390303Y0073782I0000000J-000581D01*
G01*
X0390303Y0072620D01*
G75*
G02*
X0389723Y0072040I-000581J0000000D01*
G01*
X0388364Y0072040D01*
G75*
G02*
X0387784Y0072620I0000000J0000581D01*
G01*
X0387784Y0073782D01*
G75*
G02*
X0388364Y0074363I0000581J0000000D01*
G01*
G37*
G36*
G01*
X0334260Y0078585D02*
X0334260Y0079943D01*
G75*
G02*
X0334841Y0080524I0000581J0000000D01*
G01*
X0336002Y0080524D01*
G75*
G02*
X0336583Y0079943I0000000J-000581D01*
G01*
X0336583Y0078585D01*
G75*
G02*
X0336002Y0078004I-000581J0000000D01*
G01*
X0334841Y0078004D01*
G75*
G02*
X0334260Y0078585I0000000J0000581D01*
G01*
G37*
G36*
G01*
X0338079Y0078585D02*
X0338079Y0079943D01*
G75*
G02*
X0338660Y0080524I0000581J0000000D01*
G01*
X0339821Y0080524D01*
G75*
G02*
X0340402Y0079943I0000000J-000581D01*
G01*
X0340402Y0078585D01*
G75*
G02*
X0339821Y0078004I-000581J0000000D01*
G01*
X0338660Y0078004D01*
G75*
G02*
X0338079Y0078585I0000000J0000581D01*
G01*
G37*
G36*
G01*
X0373366Y0068619D02*
X0373366Y0066602D01*
G75*
G02*
X0372505Y0065741I-000861J0000000D01*
G01*
X0370783Y0065741D01*
G75*
G02*
X0369921Y0066602I0000000J0000861D01*
G01*
X0369921Y0068619D01*
G75*
G02*
X0370783Y0069481I0000861J0000000D01*
G01*
X0372505Y0069481D01*
G75*
G02*
X0373366Y0068619I0000000J-000861D01*
G01*
G37*
G36*
G01*
X0367166Y0068619D02*
X0367166Y0066602D01*
G75*
G02*
X0366304Y0065741I-000861J0000000D01*
G01*
X0364582Y0065741D01*
G75*
G02*
X0363721Y0066602I0000000J0000861D01*
G01*
X0363721Y0068619D01*
G75*
G02*
X0364582Y0069481I0000861J0000000D01*
G01*
X0366304Y0069481D01*
G75*
G02*
X0367166Y0068619I0000000J-000861D01*
G01*
G37*
G36*
G01*
X0381614Y0068290D02*
X0381614Y0066931D01*
G75*
G02*
X0381034Y0066351I-000581J0000000D01*
G01*
X0379872Y0066351D01*
G75*
G02*
X0379292Y0066931I0000000J0000581D01*
G01*
X0379292Y0068290D01*
G75*
G02*
X0379872Y0068870I0000581J0000000D01*
G01*
X0381034Y0068870D01*
G75*
G02*
X0381614Y0068290I0000000J-000581D01*
G01*
G37*
G36*
G01*
X0377795Y0068290D02*
X0377795Y0066931D01*
G75*
G02*
X0377215Y0066351I-000581J0000000D01*
G01*
X0376053Y0066351D01*
G75*
G02*
X0375473Y0066931I0000000J0000581D01*
G01*
X0375473Y0068290D01*
G75*
G02*
X0376053Y0068870I0000581J0000000D01*
G01*
X0377215Y0068870D01*
G75*
G02*
X0377795Y0068290I0000000J-000581D01*
G01*
G37*
G36*
G01*
X0394114Y0096290D02*
X0394114Y0094931D01*
G75*
G02*
X0393534Y0094351I-000581J0000000D01*
G01*
X0392372Y0094351D01*
G75*
G02*
X0391792Y0094931I0000000J0000581D01*
G01*
X0391792Y0096290D01*
G75*
G02*
X0392372Y0096870I0000581J0000000D01*
G01*
X0393534Y0096870D01*
G75*
G02*
X0394114Y0096290I0000000J-000581D01*
G01*
G37*
G36*
G01*
X0390295Y0096290D02*
X0390295Y0094931D01*
G75*
G02*
X0389715Y0094351I-000581J0000000D01*
G01*
X0388553Y0094351D01*
G75*
G02*
X0387973Y0094931I0000000J0000581D01*
G01*
X0387973Y0096290D01*
G75*
G02*
X0388553Y0096870I0000581J0000000D01*
G01*
X0389715Y0096870D01*
G75*
G02*
X0390295Y0096290I0000000J-000581D01*
G01*
G37*
G36*
G01*
X0399864Y0100681D02*
X0401223Y0100681D01*
G75*
G02*
X0401803Y0100101I0000000J-000581D01*
G01*
X0401803Y0098939D01*
G75*
G02*
X0401223Y0098359I-000581J0000000D01*
G01*
X0399864Y0098359D01*
G75*
G02*
X0399284Y0098939I0000000J0000581D01*
G01*
X0399284Y0100101D01*
G75*
G02*
X0399864Y0100681I0000581J0000000D01*
G01*
G37*
G36*
G01*
X0399864Y0096863D02*
X0401223Y0096863D01*
G75*
G02*
X0401803Y0096282I0000000J-000581D01*
G01*
X0401803Y0095120D01*
G75*
G02*
X0401223Y0094540I-000581J0000000D01*
G01*
X0399864Y0094540D01*
G75*
G02*
X0399284Y0095120I0000000J0000581D01*
G01*
X0399284Y0096282D01*
G75*
G02*
X0399864Y0096863I0000581J0000000D01*
G01*
G37*
G36*
G01*
X0396101Y0100681D02*
X0397459Y0100681D01*
G75*
G02*
X0398040Y0100101I0000000J-000581D01*
G01*
X0398040Y0098939D01*
G75*
G02*
X0397459Y0098359I-000581J0000000D01*
G01*
X0396101Y0098359D01*
G75*
G02*
X0395520Y0098939I0000000J0000581D01*
G01*
X0395520Y0100101D01*
G75*
G02*
X0396101Y0100681I0000581J0000000D01*
G01*
G37*
G36*
G01*
X0396101Y0096863D02*
X0397459Y0096863D01*
G75*
G02*
X0398040Y0096282I0000000J-000581D01*
G01*
X0398040Y0095120D01*
G75*
G02*
X0397459Y0094540I-000581J0000000D01*
G01*
X0396101Y0094540D01*
G75*
G02*
X0395520Y0095120I0000000J0000581D01*
G01*
X0395520Y0096282D01*
G75*
G02*
X0396101Y0096863I0000581J0000000D01*
G01*
G37*
G36*
G01*
X0394114Y0100290D02*
X0394114Y0098931D01*
G75*
G02*
X0393534Y0098351I-000581J0000000D01*
G01*
X0392372Y0098351D01*
G75*
G02*
X0391792Y0098931I0000000J0000581D01*
G01*
X0391792Y0100290D01*
G75*
G02*
X0392372Y0100870I0000581J0000000D01*
G01*
X0393534Y0100870D01*
G75*
G02*
X0394114Y0100290I0000000J-000581D01*
G01*
G37*
G36*
G01*
X0390295Y0100290D02*
X0390295Y0098931D01*
G75*
G02*
X0389715Y0098351I-000581J0000000D01*
G01*
X0388553Y0098351D01*
G75*
G02*
X0387973Y0098931I0000000J0000581D01*
G01*
X0387973Y0100290D01*
G75*
G02*
X0388553Y0100870I0000581J0000000D01*
G01*
X0389715Y0100870D01*
G75*
G02*
X0390295Y0100290I0000000J-000581D01*
G01*
G37*
D74*
X0410205Y0104855D03*
X0410205Y0108595D03*
X0410205Y0112335D03*
X0399890Y0112335D03*
X0399890Y0104855D03*
G36*
G01*
X0403864Y0100681D02*
X0405223Y0100681D01*
G75*
G02*
X0405803Y0100101I0000000J-000581D01*
G01*
X0405803Y0098939D01*
G75*
G02*
X0405223Y0098359I-000581J0000000D01*
G01*
X0403864Y0098359D01*
G75*
G02*
X0403284Y0098939I0000000J0000581D01*
G01*
X0403284Y0100101D01*
G75*
G02*
X0403864Y0100681I0000581J0000000D01*
G01*
G37*
G36*
G01*
X0403864Y0096863D02*
X0405223Y0096863D01*
G75*
G02*
X0405803Y0096282I0000000J-000581D01*
G01*
X0405803Y0095120D01*
G75*
G02*
X0405223Y0094540I-000581J0000000D01*
G01*
X0403864Y0094540D01*
G75*
G02*
X0403284Y0095120I0000000J0000581D01*
G01*
X0403284Y0096282D01*
G75*
G02*
X0403864Y0096863I0000581J0000000D01*
G01*
G37*
G36*
G01*
X0414998Y0107729D02*
X0416356Y0107729D01*
G75*
G02*
X0416937Y0107148I0000000J-000581D01*
G01*
X0416937Y0105987D01*
G75*
G02*
X0416356Y0105406I-000581J0000000D01*
G01*
X0414998Y0105406D01*
G75*
G02*
X0414418Y0105987I0000000J0000581D01*
G01*
X0414418Y0107148D01*
G75*
G02*
X0414998Y0107729I0000581J0000000D01*
G01*
G37*
G36*
G01*
X0414998Y0103910D02*
X0416356Y0103910D01*
G75*
G02*
X0416937Y0103329I0000000J-000581D01*
G01*
X0416937Y0102168D01*
G75*
G02*
X0416356Y0101587I-000581J0000000D01*
G01*
X0414998Y0101587D01*
G75*
G02*
X0414418Y0102168I0000000J0000581D01*
G01*
X0414418Y0103329D01*
G75*
G02*
X0414998Y0103910I0000581J0000000D01*
G01*
G37*
G36*
G01*
X0428364Y0085181D02*
X0429723Y0085181D01*
G75*
G02*
X0430303Y0084601I0000000J-000581D01*
G01*
X0430303Y0083439D01*
G75*
G02*
X0429723Y0082859I-000581J0000000D01*
G01*
X0428364Y0082859D01*
G75*
G02*
X0427784Y0083439I0000000J0000581D01*
G01*
X0427784Y0084601D01*
G75*
G02*
X0428364Y0085181I0000581J0000000D01*
G01*
G37*
G36*
G01*
X0428364Y0081363D02*
X0429723Y0081363D01*
G75*
G02*
X0430303Y0080782I0000000J-000581D01*
G01*
X0430303Y0079620D01*
G75*
G02*
X0429723Y0079040I-000581J0000000D01*
G01*
X0428364Y0079040D01*
G75*
G02*
X0427784Y0079620I0000000J0000581D01*
G01*
X0427784Y0080782D01*
G75*
G02*
X0428364Y0081363I0000581J0000000D01*
G01*
G37*
G36*
G01*
X0426552Y0098788D02*
X0424535Y0098788D01*
G75*
G02*
X0423673Y0099649I0000000J0000861D01*
G01*
X0423673Y0101371D01*
G75*
G02*
X0424535Y0102233I0000861J0000000D01*
G01*
X0426552Y0102233D01*
G75*
G02*
X0427414Y0101371I0000000J-000861D01*
G01*
X0427414Y0099649D01*
G75*
G02*
X0426552Y0098788I-000861J0000000D01*
G01*
G37*
G36*
G01*
X0426552Y0104989D02*
X0424535Y0104989D01*
G75*
G02*
X0423673Y0105850I0000000J0000861D01*
G01*
X0423673Y0107572D01*
G75*
G02*
X0424535Y0108433I0000861J0000000D01*
G01*
X0426552Y0108433D01*
G75*
G02*
X0427414Y0107572I0000000J-000861D01*
G01*
X0427414Y0105850D01*
G75*
G02*
X0426552Y0104989I-000861J0000000D01*
G01*
G37*
G36*
G01*
X0423965Y0073664D02*
X0423965Y0075022D01*
G75*
G02*
X0424545Y0075603I0000581J0000000D01*
G01*
X0425707Y0075603D01*
G75*
G02*
X0426288Y0075022I0000000J-000581D01*
G01*
X0426288Y0073664D01*
G75*
G02*
X0425707Y0073083I-000581J0000000D01*
G01*
X0424545Y0073083D01*
G75*
G02*
X0423965Y0073664I0000000J0000581D01*
G01*
G37*
G36*
G01*
X0427784Y0073664D02*
X0427784Y0075022D01*
G75*
G02*
X0428364Y0075603I0000581J0000000D01*
G01*
X0429526Y0075603D01*
G75*
G02*
X0430106Y0075022I0000000J-000581D01*
G01*
X0430106Y0073664D01*
G75*
G02*
X0429526Y0073083I-000581J0000000D01*
G01*
X0428364Y0073083D01*
G75*
G02*
X0427784Y0073664I0000000J0000581D01*
G01*
G37*
G36*
G01*
X0430106Y0070888D02*
X0430106Y0069530D01*
G75*
G02*
X0429526Y0068949I-000581J0000000D01*
G01*
X0428364Y0068949D01*
G75*
G02*
X0427784Y0069530I0000000J0000581D01*
G01*
X0427784Y0070888D01*
G75*
G02*
X0428364Y0071469I0000581J0000000D01*
G01*
X0429526Y0071469D01*
G75*
G02*
X0430106Y0070888I0000000J-000581D01*
G01*
G37*
G36*
G01*
X0426288Y0070888D02*
X0426288Y0069530D01*
G75*
G02*
X0425707Y0068949I-000581J0000000D01*
G01*
X0424545Y0068949D01*
G75*
G02*
X0423965Y0069530I0000000J0000581D01*
G01*
X0423965Y0070888D01*
G75*
G02*
X0424545Y0071469I0000581J0000000D01*
G01*
X0425707Y0071469D01*
G75*
G02*
X0426288Y0070888I0000000J-000581D01*
G01*
G37*
G36*
G01*
X0351721Y0066602D02*
X0351721Y0068619D01*
G75*
G02*
X0352582Y0069481I0000861J0000000D01*
G01*
X0354304Y0069481D01*
G75*
G02*
X0355166Y0068619I0000000J-000861D01*
G01*
X0355166Y0066602D01*
G75*
G02*
X0354304Y0065741I-000861J0000000D01*
G01*
X0352582Y0065741D01*
G75*
G02*
X0351721Y0066602I0000000J0000861D01*
G01*
G37*
G36*
G01*
X0357921Y0066602D02*
X0357921Y0068619D01*
G75*
G02*
X0358783Y0069481I0000861J0000000D01*
G01*
X0360505Y0069481D01*
G75*
G02*
X0361366Y0068619I0000000J-000861D01*
G01*
X0361366Y0066602D01*
G75*
G02*
X0360505Y0065741I-000861J0000000D01*
G01*
X0358783Y0065741D01*
G75*
G02*
X0357921Y0066602I0000000J0000861D01*
G01*
G37*
G36*
G01*
X0348492Y0062050D02*
X0348492Y0063408D01*
G75*
G02*
X0349073Y0063989I0000581J0000000D01*
G01*
X0350234Y0063989D01*
G75*
G02*
X0350815Y0063408I0000000J-000581D01*
G01*
X0350815Y0062050D01*
G75*
G02*
X0350234Y0061469I-000581J0000000D01*
G01*
X0349073Y0061469D01*
G75*
G02*
X0348492Y0062050I0000000J0000581D01*
G01*
G37*
G36*
G01*
X0352311Y0062050D02*
X0352311Y0063408D01*
G75*
G02*
X0352892Y0063989I0000581J0000000D01*
G01*
X0354053Y0063989D01*
G75*
G02*
X0354634Y0063408I0000000J-000581D01*
G01*
X0354634Y0062050D01*
G75*
G02*
X0354053Y0061469I-000581J0000000D01*
G01*
X0352892Y0061469D01*
G75*
G02*
X0352311Y0062050I0000000J0000581D01*
G01*
G37*
G36*
G01*
X0395717Y0104156D02*
X0395717Y0102798D01*
G75*
G02*
X0395136Y0102217I-000581J0000000D01*
G01*
X0393975Y0102217D01*
G75*
G02*
X0393394Y0102798I0000000J0000581D01*
G01*
X0393394Y0104156D01*
G75*
G02*
X0393975Y0104737I0000581J0000000D01*
G01*
X0395136Y0104737D01*
G75*
G02*
X0395717Y0104156I0000000J-000581D01*
G01*
G37*
G36*
G01*
X0391898Y0104156D02*
X0391898Y0102798D01*
G75*
G02*
X0391317Y0102217I-000581J0000000D01*
G01*
X0390156Y0102217D01*
G75*
G02*
X0389575Y0102798I0000000J0000581D01*
G01*
X0389575Y0104156D01*
G75*
G02*
X0390156Y0104737I0000581J0000000D01*
G01*
X0391317Y0104737D01*
G75*
G02*
X0391898Y0104156I0000000J-000581D01*
G01*
G37*
G36*
G01*
X0382311Y0080544D02*
X0382311Y0079559D01*
G75*
G02*
X0381819Y0079067I-000492J0000000D01*
G01*
X0376898Y0079067D01*
G75*
G02*
X0376406Y0079559I0000000J0000492D01*
G01*
X0376406Y0080544D01*
G75*
G02*
X0376898Y0081036I0000492J0000000D01*
G01*
X0381819Y0081036D01*
G75*
G02*
X0382311Y0080544I0000000J-000492D01*
G01*
G37*
G36*
G01*
X0382311Y0083693D02*
X0382311Y0082709D01*
G75*
G02*
X0381819Y0082217I-000492J0000000D01*
G01*
X0376898Y0082217D01*
G75*
G02*
X0376406Y0082709I0000000J0000492D01*
G01*
X0376406Y0083693D01*
G75*
G02*
X0376898Y0084185I0000492J0000000D01*
G01*
X0381819Y0084185D01*
G75*
G02*
X0382311Y0083693I0000000J-000492D01*
G01*
G37*
G36*
G01*
X0382311Y0086843D02*
X0382311Y0085859D01*
G75*
G02*
X0381819Y0085367I-000492J0000000D01*
G01*
X0376898Y0085367D01*
G75*
G02*
X0376406Y0085859I0000000J0000492D01*
G01*
X0376406Y0086843D01*
G75*
G02*
X0376898Y0087335I0000492J0000000D01*
G01*
X0381819Y0087335D01*
G75*
G02*
X0382311Y0086843I0000000J-000492D01*
G01*
G37*
G36*
G01*
X0382311Y0089992D02*
X0382311Y0089008D01*
G75*
G02*
X0381819Y0088516I-000492J0000000D01*
G01*
X0376898Y0088516D01*
G75*
G02*
X0376406Y0089008I0000000J0000492D01*
G01*
X0376406Y0089992D01*
G75*
G02*
X0376898Y0090485I0000492J0000000D01*
G01*
X0381819Y0090485D01*
G75*
G02*
X0382311Y0089992I0000000J-000492D01*
G01*
G37*
G36*
G01*
X0382311Y0093142D02*
X0382311Y0092158D01*
G75*
G02*
X0381819Y0091666I-000492J0000000D01*
G01*
X0376898Y0091666D01*
G75*
G02*
X0376406Y0092158I0000000J0000492D01*
G01*
X0376406Y0093142D01*
G75*
G02*
X0376898Y0093634I0000492J0000000D01*
G01*
X0381819Y0093634D01*
G75*
G02*
X0382311Y0093142I0000000J-000492D01*
G01*
G37*
G36*
G01*
X0382311Y0096292D02*
X0382311Y0095307D01*
G75*
G02*
X0381819Y0094815I-000492J0000000D01*
G01*
X0376898Y0094815D01*
G75*
G02*
X0376406Y0095307I0000000J0000492D01*
G01*
X0376406Y0096292D01*
G75*
G02*
X0376898Y0096784I0000492J0000000D01*
G01*
X0381819Y0096784D01*
G75*
G02*
X0382311Y0096292I0000000J-000492D01*
G01*
G37*
G36*
G01*
X0382311Y0099441D02*
X0382311Y0098457D01*
G75*
G02*
X0381819Y0097965I-000492J0000000D01*
G01*
X0376898Y0097965D01*
G75*
G02*
X0376406Y0098457I0000000J0000492D01*
G01*
X0376406Y0099441D01*
G75*
G02*
X0376898Y0099933I0000492J0000000D01*
G01*
X0381819Y0099933D01*
G75*
G02*
X0382311Y0099441I0000000J-000492D01*
G01*
G37*
G36*
G01*
X0382311Y0102591D02*
X0382311Y0101607D01*
G75*
G02*
X0381819Y0101115I-000492J0000000D01*
G01*
X0376898Y0101115D01*
G75*
G02*
X0376406Y0101607I0000000J0000492D01*
G01*
X0376406Y0102591D01*
G75*
G02*
X0376898Y0103083I0000492J0000000D01*
G01*
X0381819Y0103083D01*
G75*
G02*
X0382311Y0102591I0000000J-000492D01*
G01*
G37*
G36*
G01*
X0374929Y0109973D02*
X0374929Y0105052D01*
G75*
G02*
X0374437Y0104559I-000492J0000000D01*
G01*
X0373453Y0104559D01*
G75*
G02*
X0372961Y0105052I0000000J0000492D01*
G01*
X0372961Y0109973D01*
G75*
G02*
X0373453Y0110465I0000492J0000000D01*
G01*
X0374437Y0110465D01*
G75*
G02*
X0374929Y0109973I0000000J-000492D01*
G01*
G37*
G36*
G01*
X0371780Y0109973D02*
X0371780Y0105052D01*
G75*
G02*
X0371288Y0104559I-000492J0000000D01*
G01*
X0370303Y0104559D01*
G75*
G02*
X0369811Y0105052I0000000J0000492D01*
G01*
X0369811Y0109973D01*
G75*
G02*
X0370303Y0110465I0000492J0000000D01*
G01*
X0371288Y0110465D01*
G75*
G02*
X0371780Y0109973I0000000J-000492D01*
G01*
G37*
G36*
G01*
X0368630Y0109973D02*
X0368630Y0105052D01*
G75*
G02*
X0368138Y0104559I-000492J0000000D01*
G01*
X0367154Y0104559D01*
G75*
G02*
X0366662Y0105052I0000000J0000492D01*
G01*
X0366662Y0109973D01*
G75*
G02*
X0367154Y0110465I0000492J0000000D01*
G01*
X0368138Y0110465D01*
G75*
G02*
X0368630Y0109973I0000000J-000492D01*
G01*
G37*
G36*
G01*
X0365480Y0109973D02*
X0365480Y0105052D01*
G75*
G02*
X0364988Y0104559I-000492J0000000D01*
G01*
X0364004Y0104559D01*
G75*
G02*
X0363512Y0105052I0000000J0000492D01*
G01*
X0363512Y0109973D01*
G75*
G02*
X0364004Y0110465I0000492J0000000D01*
G01*
X0364988Y0110465D01*
G75*
G02*
X0365480Y0109973I0000000J-000492D01*
G01*
G37*
G36*
G01*
X0362331Y0109973D02*
X0362331Y0105052D01*
G75*
G02*
X0361839Y0104559I-000492J0000000D01*
G01*
X0360855Y0104559D01*
G75*
G02*
X0360362Y0105052I0000000J0000492D01*
G01*
X0360362Y0109973D01*
G75*
G02*
X0360855Y0110465I0000492J0000000D01*
G01*
X0361839Y0110465D01*
G75*
G02*
X0362331Y0109973I0000000J-000492D01*
G01*
G37*
G36*
G01*
X0359181Y0109973D02*
X0359181Y0105052D01*
G75*
G02*
X0358689Y0104559I-000492J0000000D01*
G01*
X0357705Y0104559D01*
G75*
G02*
X0357213Y0105052I0000000J0000492D01*
G01*
X0357213Y0109973D01*
G75*
G02*
X0357705Y0110465I0000492J0000000D01*
G01*
X0358689Y0110465D01*
G75*
G02*
X0359181Y0109973I0000000J-000492D01*
G01*
G37*
G36*
G01*
X0356032Y0109973D02*
X0356032Y0105052D01*
G75*
G02*
X0355540Y0104559I-000492J0000000D01*
G01*
X0354555Y0104559D01*
G75*
G02*
X0354063Y0105052I0000000J0000492D01*
G01*
X0354063Y0109973D01*
G75*
G02*
X0354555Y0110465I0000492J0000000D01*
G01*
X0355540Y0110465D01*
G75*
G02*
X0356032Y0109973I0000000J-000492D01*
G01*
G37*
G36*
G01*
X0352882Y0109973D02*
X0352882Y0105052D01*
G75*
G02*
X0352390Y0104559I-000492J0000000D01*
G01*
X0351406Y0104559D01*
G75*
G02*
X0350914Y0105052I0000000J0000492D01*
G01*
X0350914Y0109973D01*
G75*
G02*
X0351406Y0110465I0000492J0000000D01*
G01*
X0352390Y0110465D01*
G75*
G02*
X0352882Y0109973I0000000J-000492D01*
G01*
G37*
G36*
G01*
X0349437Y0102591D02*
X0349437Y0101607D01*
G75*
G02*
X0348945Y0101115I-000492J0000000D01*
G01*
X0344024Y0101115D01*
G75*
G02*
X0343532Y0101607I0000000J0000492D01*
G01*
X0343532Y0102591D01*
G75*
G02*
X0344024Y0103083I0000492J0000000D01*
G01*
X0348945Y0103083D01*
G75*
G02*
X0349437Y0102591I0000000J-000492D01*
G01*
G37*
G36*
G01*
X0349437Y0099441D02*
X0349437Y0098457D01*
G75*
G02*
X0348945Y0097965I-000492J0000000D01*
G01*
X0344024Y0097965D01*
G75*
G02*
X0343532Y0098457I0000000J0000492D01*
G01*
X0343532Y0099441D01*
G75*
G02*
X0344024Y0099933I0000492J0000000D01*
G01*
X0348945Y0099933D01*
G75*
G02*
X0349437Y0099441I0000000J-000492D01*
G01*
G37*
G36*
G01*
X0349437Y0096292D02*
X0349437Y0095307D01*
G75*
G02*
X0348945Y0094815I-000492J0000000D01*
G01*
X0344024Y0094815D01*
G75*
G02*
X0343532Y0095307I0000000J0000492D01*
G01*
X0343532Y0096292D01*
G75*
G02*
X0344024Y0096784I0000492J0000000D01*
G01*
X0348945Y0096784D01*
G75*
G02*
X0349437Y0096292I0000000J-000492D01*
G01*
G37*
G36*
G01*
X0349437Y0093142D02*
X0349437Y0092158D01*
G75*
G02*
X0348945Y0091666I-000492J0000000D01*
G01*
X0344024Y0091666D01*
G75*
G02*
X0343532Y0092158I0000000J0000492D01*
G01*
X0343532Y0093142D01*
G75*
G02*
X0344024Y0093634I0000492J0000000D01*
G01*
X0348945Y0093634D01*
G75*
G02*
X0349437Y0093142I0000000J-000492D01*
G01*
G37*
G36*
G01*
X0349437Y0089992D02*
X0349437Y0089008D01*
G75*
G02*
X0348945Y0088516I-000492J0000000D01*
G01*
X0344024Y0088516D01*
G75*
G02*
X0343532Y0089008I0000000J0000492D01*
G01*
X0343532Y0089992D01*
G75*
G02*
X0344024Y0090485I0000492J0000000D01*
G01*
X0348945Y0090485D01*
G75*
G02*
X0349437Y0089992I0000000J-000492D01*
G01*
G37*
G36*
G01*
X0349437Y0086843D02*
X0349437Y0085859D01*
G75*
G02*
X0348945Y0085367I-000492J0000000D01*
G01*
X0344024Y0085367D01*
G75*
G02*
X0343532Y0085859I0000000J0000492D01*
G01*
X0343532Y0086843D01*
G75*
G02*
X0344024Y0087335I0000492J0000000D01*
G01*
X0348945Y0087335D01*
G75*
G02*
X0349437Y0086843I0000000J-000492D01*
G01*
G37*
G36*
G01*
X0349437Y0083693D02*
X0349437Y0082709D01*
G75*
G02*
X0348945Y0082217I-000492J0000000D01*
G01*
X0344024Y0082217D01*
G75*
G02*
X0343532Y0082709I0000000J0000492D01*
G01*
X0343532Y0083693D01*
G75*
G02*
X0344024Y0084185I0000492J0000000D01*
G01*
X0348945Y0084185D01*
G75*
G02*
X0349437Y0083693I0000000J-000492D01*
G01*
G37*
G36*
G01*
X0349437Y0080544D02*
X0349437Y0079559D01*
G75*
G02*
X0348945Y0079067I-000492J0000000D01*
G01*
X0344024Y0079067D01*
G75*
G02*
X0343532Y0079559I0000000J0000492D01*
G01*
X0343532Y0080544D01*
G75*
G02*
X0344024Y0081036I0000492J0000000D01*
G01*
X0348945Y0081036D01*
G75*
G02*
X0349437Y0080544I0000000J-000492D01*
G01*
G37*
G36*
G01*
X0352882Y0077099D02*
X0352882Y0072178D01*
G75*
G02*
X0352390Y0071685I-000492J0000000D01*
G01*
X0351406Y0071685D01*
G75*
G02*
X0350914Y0072178I0000000J0000492D01*
G01*
X0350914Y0077099D01*
G75*
G02*
X0351406Y0077591I0000492J0000000D01*
G01*
X0352390Y0077591D01*
G75*
G02*
X0352882Y0077099I0000000J-000492D01*
G01*
G37*
G36*
G01*
X0356032Y0077099D02*
X0356032Y0072178D01*
G75*
G02*
X0355540Y0071685I-000492J0000000D01*
G01*
X0354555Y0071685D01*
G75*
G02*
X0354063Y0072178I0000000J0000492D01*
G01*
X0354063Y0077099D01*
G75*
G02*
X0354555Y0077591I0000492J0000000D01*
G01*
X0355540Y0077591D01*
G75*
G02*
X0356032Y0077099I0000000J-000492D01*
G01*
G37*
G36*
G01*
X0359181Y0077099D02*
X0359181Y0072178D01*
G75*
G02*
X0358689Y0071685I-000492J0000000D01*
G01*
X0357705Y0071685D01*
G75*
G02*
X0357213Y0072178I0000000J0000492D01*
G01*
X0357213Y0077099D01*
G75*
G02*
X0357705Y0077591I0000492J0000000D01*
G01*
X0358689Y0077591D01*
G75*
G02*
X0359181Y0077099I0000000J-000492D01*
G01*
G37*
G36*
G01*
X0362331Y0077099D02*
X0362331Y0072178D01*
G75*
G02*
X0361839Y0071685I-000492J0000000D01*
G01*
X0360855Y0071685D01*
G75*
G02*
X0360362Y0072178I0000000J0000492D01*
G01*
X0360362Y0077099D01*
G75*
G02*
X0360855Y0077591I0000492J0000000D01*
G01*
X0361839Y0077591D01*
G75*
G02*
X0362331Y0077099I0000000J-000492D01*
G01*
G37*
G36*
G01*
X0365480Y0077099D02*
X0365480Y0072178D01*
G75*
G02*
X0364988Y0071685I-000492J0000000D01*
G01*
X0364004Y0071685D01*
G75*
G02*
X0363512Y0072178I0000000J0000492D01*
G01*
X0363512Y0077099D01*
G75*
G02*
X0364004Y0077591I0000492J0000000D01*
G01*
X0364988Y0077591D01*
G75*
G02*
X0365480Y0077099I0000000J-000492D01*
G01*
G37*
G36*
G01*
X0368630Y0077099D02*
X0368630Y0072178D01*
G75*
G02*
X0368138Y0071685I-000492J0000000D01*
G01*
X0367154Y0071685D01*
G75*
G02*
X0366662Y0072178I0000000J0000492D01*
G01*
X0366662Y0077099D01*
G75*
G02*
X0367154Y0077591I0000492J0000000D01*
G01*
X0368138Y0077591D01*
G75*
G02*
X0368630Y0077099I0000000J-000492D01*
G01*
G37*
G36*
G01*
X0371780Y0077099D02*
X0371780Y0072178D01*
G75*
G02*
X0371288Y0071685I-000492J0000000D01*
G01*
X0370303Y0071685D01*
G75*
G02*
X0369811Y0072178I0000000J0000492D01*
G01*
X0369811Y0077099D01*
G75*
G02*
X0370303Y0077591I0000492J0000000D01*
G01*
X0371288Y0077591D01*
G75*
G02*
X0371780Y0077099I0000000J-000492D01*
G01*
G37*
G36*
G01*
X0374929Y0077099D02*
X0374929Y0072178D01*
G75*
G02*
X0374437Y0071685I-000492J0000000D01*
G01*
X0373453Y0071685D01*
G75*
G02*
X0372961Y0072178I0000000J0000492D01*
G01*
X0372961Y0077099D01*
G75*
G02*
X0373453Y0077591I0000492J0000000D01*
G01*
X0374437Y0077591D01*
G75*
G02*
X0374929Y0077099I0000000J-000492D01*
G01*
G37*
G36*
G01*
X0382095Y0105554D02*
X0382095Y0106912D01*
G75*
G02*
X0382675Y0107492I0000581J0000000D01*
G01*
X0383837Y0107492D01*
G75*
G02*
X0384418Y0106912I0000000J-000581D01*
G01*
X0384418Y0105554D01*
G75*
G02*
X0383837Y0104973I-000581J0000000D01*
G01*
X0382675Y0104973D01*
G75*
G02*
X0382095Y0105554I0000000J0000581D01*
G01*
G37*
G36*
G01*
X0385914Y0105554D02*
X0385914Y0106912D01*
G75*
G02*
X0386494Y0107492I0000581J0000000D01*
G01*
X0387656Y0107492D01*
G75*
G02*
X0388236Y0106912I0000000J-000581D01*
G01*
X0388236Y0105554D01*
G75*
G02*
X0387656Y0104973I-000581J0000000D01*
G01*
X0386494Y0104973D01*
G75*
G02*
X0385914Y0105554I0000000J0000581D01*
G01*
G37*
G36*
G01*
X0395717Y0108093D02*
X0395717Y0106735D01*
G75*
G02*
X0395136Y0106154I-000581J0000000D01*
G01*
X0393975Y0106154D01*
G75*
G02*
X0393394Y0106735I0000000J0000581D01*
G01*
X0393394Y0108093D01*
G75*
G02*
X0393975Y0108674I0000581J0000000D01*
G01*
X0395136Y0108674D01*
G75*
G02*
X0395717Y0108093I0000000J-000581D01*
G01*
G37*
G36*
G01*
X0391898Y0108093D02*
X0391898Y0106735D01*
G75*
G02*
X0391317Y0106154I-000581J0000000D01*
G01*
X0390156Y0106154D01*
G75*
G02*
X0389575Y0106735I0000000J0000581D01*
G01*
X0389575Y0108093D01*
G75*
G02*
X0390156Y0108674I0000581J0000000D01*
G01*
X0391317Y0108674D01*
G75*
G02*
X0391898Y0108093I0000000J-000581D01*
G01*
G37*
G36*
G01*
X0390205Y0082896D02*
X0390205Y0081538D01*
G75*
G02*
X0389624Y0080957I-000581J0000000D01*
G01*
X0388463Y0080957D01*
G75*
G02*
X0387882Y0081538I0000000J0000581D01*
G01*
X0387882Y0082896D01*
G75*
G02*
X0388463Y0083477I0000581J0000000D01*
G01*
X0389624Y0083477D01*
G75*
G02*
X0390205Y0082896I0000000J-000581D01*
G01*
G37*
G36*
G01*
X0386386Y0082896D02*
X0386386Y0081538D01*
G75*
G02*
X0385805Y0080957I-000581J0000000D01*
G01*
X0384644Y0080957D01*
G75*
G02*
X0384063Y0081538I0000000J0000581D01*
G01*
X0384063Y0082896D01*
G75*
G02*
X0384644Y0083477I0000581J0000000D01*
G01*
X0385805Y0083477D01*
G75*
G02*
X0386386Y0082896I0000000J-000581D01*
G01*
G37*
G36*
G01*
X0337410Y0101075D02*
X0338768Y0101075D01*
G75*
G02*
X0339349Y0100494I0000000J-000581D01*
G01*
X0339349Y0099333D01*
G75*
G02*
X0338768Y0098752I-000581J0000000D01*
G01*
X0337410Y0098752D01*
G75*
G02*
X0336829Y0099333I0000000J0000581D01*
G01*
X0336829Y0100494D01*
G75*
G02*
X0337410Y0101075I0000581J0000000D01*
G01*
G37*
G36*
G01*
X0337410Y0097256D02*
X0338768Y0097256D01*
G75*
G02*
X0339349Y0096675I0000000J-000581D01*
G01*
X0339349Y0095514D01*
G75*
G02*
X0338768Y0094933I-000581J0000000D01*
G01*
X0337410Y0094933D01*
G75*
G02*
X0336829Y0095514I0000000J0000581D01*
G01*
X0336829Y0096675D01*
G75*
G02*
X0337410Y0097256I0000581J0000000D01*
G01*
G37*
G36*
G01*
X0346691Y0074717D02*
X0348049Y0074717D01*
G75*
G02*
X0348630Y0074136I0000000J-000581D01*
G01*
X0348630Y0072975D01*
G75*
G02*
X0348049Y0072394I-000581J0000000D01*
G01*
X0346691Y0072394D01*
G75*
G02*
X0346110Y0072975I0000000J0000581D01*
G01*
X0346110Y0074136D01*
G75*
G02*
X0346691Y0074717I0000581J0000000D01*
G01*
G37*
G36*
G01*
X0346691Y0070898D02*
X0348049Y0070898D01*
G75*
G02*
X0348630Y0070317I0000000J-000581D01*
G01*
X0348630Y0069156D01*
G75*
G02*
X0348049Y0068575I-000581J0000000D01*
G01*
X0346691Y0068575D01*
G75*
G02*
X0346110Y0069156I0000000J0000581D01*
G01*
X0346110Y0070317D01*
G75*
G02*
X0346691Y0070898I0000581J0000000D01*
G01*
G37*
G36*
G01*
X0322949Y0097050D02*
X0322949Y0098408D01*
G75*
G02*
X0323530Y0098989I0000581J0000000D01*
G01*
X0324691Y0098989D01*
G75*
G02*
X0325272Y0098408I0000000J-000581D01*
G01*
X0325272Y0097050D01*
G75*
G02*
X0324691Y0096469I-000581J0000000D01*
G01*
X0323530Y0096469D01*
G75*
G02*
X0322949Y0097050I0000000J0000581D01*
G01*
G37*
G36*
G01*
X0326768Y0097050D02*
X0326768Y0098408D01*
G75*
G02*
X0327349Y0098989I0000581J0000000D01*
G01*
X0328510Y0098989D01*
G75*
G02*
X0329091Y0098408I0000000J-000581D01*
G01*
X0329091Y0097050D01*
G75*
G02*
X0328510Y0096469I-000581J0000000D01*
G01*
X0327349Y0096469D01*
G75*
G02*
X0326768Y0097050I0000000J0000581D01*
G01*
G37*
D75*
X0324280Y0102792D03*
X0331760Y0102792D03*
X0328020Y0110666D03*
G36*
G01*
X0425723Y0079040D02*
X0424364Y0079040D01*
G75*
G02*
X0423784Y0079620I0000000J0000581D01*
G01*
X0423784Y0080782D01*
G75*
G02*
X0424364Y0081363I0000581J0000000D01*
G01*
X0425723Y0081363D01*
G75*
G02*
X0426303Y0080782I0000000J-000581D01*
G01*
X0426303Y0079620D01*
G75*
G02*
X0425723Y0079040I-000581J0000000D01*
G01*
G37*
G36*
G01*
X0425723Y0082859D02*
X0424364Y0082859D01*
G75*
G02*
X0423784Y0083439I0000000J0000581D01*
G01*
X0423784Y0084601D01*
G75*
G02*
X0424364Y0085181I0000581J0000000D01*
G01*
X0425723Y0085181D01*
G75*
G02*
X0426303Y0084601I0000000J-000581D01*
G01*
X0426303Y0083439D01*
G75*
G02*
X0425723Y0082859I-000581J0000000D01*
G01*
G37*
G36*
G01*
X0337375Y0112709D02*
X0339393Y0112709D01*
G75*
G02*
X0340254Y0111848I0000000J-000861D01*
G01*
X0340254Y0110125D01*
G75*
G02*
X0339393Y0109264I-000861J0000000D01*
G01*
X0337375Y0109264D01*
G75*
G02*
X0336514Y0110125I0000000J0000861D01*
G01*
X0336514Y0111848D01*
G75*
G02*
X0337375Y0112709I0000861J0000000D01*
G01*
G37*
G36*
G01*
X0337375Y0106508D02*
X0339393Y0106508D01*
G75*
G02*
X0340254Y0105647I0000000J-000861D01*
G01*
X0340254Y0103924D01*
G75*
G02*
X0339393Y0103063I-000861J0000000D01*
G01*
X0337375Y0103063D01*
G75*
G02*
X0336514Y0103924I0000000J0000861D01*
G01*
X0336514Y0105647D01*
G75*
G02*
X0337375Y0106508I0000861J0000000D01*
G01*
G37*
X0271458Y0065100D02*
G01*
G75*
D116*
X0258446Y0076517D02*
D03*
X0267698Y0072777D02*
D03*
D116*
X0258446Y0069037D02*
D03*
D117*
X0246832Y0084076D02*
D03*
X0251832Y0084076D02*
D03*
X0256832Y0084076D02*
D03*
X0261832Y0084076D02*
D03*
X0246832Y0102974D02*
D03*
X0251832Y0102974D02*
D03*
X0256832Y0102974D02*
D03*
X0261832Y0102974D02*
D03*
D118*
X0267127Y0099785D02*
D03*
X0267127Y0106005D02*
D03*
X0267127Y0091439D02*
D03*
X0267127Y0085218D02*
D03*
D119*
X0253545Y0069627D02*
D03*
X0253545Y0075927D02*
D03*
D33*
X0269588Y0080257D02*
D03*
M02*
