G75*
G70*
%OFA0B0*%
%FSLAX25Y25*%
%IPPOS*%
%LPD*%
%AMOC8*
5,1,8,0,0,1.08239X$1,22.5*
%
%ADD10C,0.00787*%
%ADD15C,0.09449*%
%ADD45C,0.16733*%
%ADD46C,0.06751*%
%ADD47C,0.06001*%
%ADD48C,0.06501*%
%ADD49C,0.07875*%
%ADD50O,0.06694X0.06694*%
%ADD53C,0.02363*%
%ADD54O,0.07678X0.06694*%
%ADD68R,0.07500X0.07874*%
%ADD69O,0.07500X0.07874*%
%ADD78C,0.03900*%
%ADD98C,0.02913*%
X0000000Y0000000D02*
%LPD*%
G01*
D10*
X0000000Y0005000D02*
X0000000Y0542693D01*
X0505989Y0589000D02*
X0046272Y0589000D01*
X0046272Y0589000D02*
X0000000Y0542693D01*
X0550000Y0005000D02*
X0550000Y0542693D01*
X0545000Y0000000D02*
G75*
G03*
X0550000Y0005000I0000000J0005000D01*
G01*
X0032875Y0545250D02*
G75*
G03*
X0032875Y0545250I-009375J0000000D01*
G01*
X0505989Y0589000D02*
X0550000Y0542693D01*
X0000000Y0005000D02*
G75*
G03*
X0005000Y0000000I0005000J0000000D01*
G01*
X0545000Y0000000D02*
X0005000Y0000000D01*
X0535405Y0545250D02*
G75*
G03*
X0535405Y0545250I-009375J0000000D01*
G01*
D45*
X0487106Y0569917D03*
X0064889Y0569917D03*
X0276000Y0512279D03*
D46*
X0468296Y0576019D03*
X0451797Y0576019D03*
X0435298Y0576019D03*
X0418798Y0576019D03*
X0402299Y0576019D03*
X0385800Y0576019D03*
X0369301Y0576019D03*
X0352802Y0576019D03*
X0336302Y0576019D03*
X0319803Y0576019D03*
X0243409Y0576019D03*
X0226910Y0576019D03*
X0210411Y0576019D03*
X0193912Y0576019D03*
X0177413Y0576019D03*
X0160913Y0576019D03*
X0144414Y0576019D03*
X0127915Y0576019D03*
X0111416Y0576019D03*
X0094917Y0576019D03*
X0462721Y0564109D03*
X0446222Y0564109D03*
X0429723Y0564109D03*
X0413224Y0564109D03*
X0396724Y0564109D03*
X0380225Y0564109D03*
X0363726Y0564109D03*
X0347227Y0564109D03*
X0330728Y0564109D03*
X0314228Y0564109D03*
X0237835Y0564109D03*
X0221335Y0564109D03*
X0204836Y0564109D03*
X0188337Y0564109D03*
X0171838Y0564109D03*
X0155339Y0564109D03*
X0138839Y0564109D03*
X0122340Y0564109D03*
X0105841Y0564109D03*
X0089342Y0564109D03*
X0457146Y0552200D03*
X0440647Y0552200D03*
X0424148Y0552200D03*
X0407649Y0552200D03*
X0391150Y0552200D03*
X0374650Y0552200D03*
X0358151Y0552200D03*
X0341652Y0552200D03*
X0325153Y0552200D03*
X0308654Y0552200D03*
X0232260Y0552200D03*
X0215761Y0552200D03*
X0199261Y0552200D03*
X0182762Y0552200D03*
X0166263Y0552200D03*
X0149764Y0552200D03*
X0133265Y0552200D03*
X0116765Y0552200D03*
X0100266Y0552200D03*
X0083767Y0552200D03*
G36*
G01*
X0312531Y0167160D02*
X0312531Y0173160D01*
G75*
G02*
X0312531Y0173160I0000000J0000000D01*
G01*
X0318531Y0173160D01*
G75*
G02*
X0318532Y0173160I0000000J0000000D01*
G01*
X0318532Y0167160D01*
G75*
G02*
X0318531Y0167160I0000000J0000000D01*
G01*
X0312531Y0167160D01*
G75*
G02*
X0312531Y0167160I0000000J0000000D01*
G01*
G37*
D47*
X0315531Y0180160D03*
X0325531Y0170160D03*
X0325531Y0180160D03*
X0335531Y0170160D03*
X0335531Y0180160D03*
X0345531Y0170160D03*
X0345531Y0180160D03*
X0355531Y0170160D03*
X0355531Y0180160D03*
X0365531Y0170160D03*
X0365531Y0180160D03*
X0375531Y0170160D03*
X0375531Y0180160D03*
X0385531Y0170160D03*
X0385531Y0180160D03*
G36*
G01*
X0162112Y0167160D02*
X0162112Y0173160D01*
G75*
G02*
X0162112Y0173160I0000000J0000000D01*
G01*
X0168112Y0173160D01*
G75*
G02*
X0168112Y0173160I0000000J0000000D01*
G01*
X0168112Y0167160D01*
G75*
G02*
X0168112Y0167160I0000000J0000000D01*
G01*
X0162112Y0167160D01*
G75*
G02*
X0162112Y0167160I0000000J0000000D01*
G01*
G37*
X0165112Y0180160D03*
X0175112Y0170160D03*
X0175112Y0180160D03*
X0185112Y0170160D03*
X0185112Y0180160D03*
X0195112Y0170160D03*
X0195112Y0180160D03*
X0205112Y0170160D03*
X0205112Y0180160D03*
X0215112Y0170160D03*
X0215112Y0180160D03*
X0225112Y0170160D03*
X0225112Y0180160D03*
X0235112Y0170160D03*
X0235112Y0180160D03*
D48*
X0497800Y0531110D03*
X0487800Y0531110D03*
X0477800Y0531110D03*
D49*
X0035508Y0229524D03*
X0106768Y0485035D03*
X0106768Y0223618D03*
X0181571Y0495272D03*
X0374091Y0424012D03*
X0514248Y0479130D03*
X0175665Y0424012D03*
X0442988Y0485035D03*
X0368185Y0495272D03*
X0514248Y0229524D03*
X0442988Y0223618D03*
X0035508Y0479130D03*
D15*
X0062280Y0440941D03*
X0062280Y0425193D03*
X0062280Y0409445D03*
X0062280Y0393697D03*
X0062280Y0377949D03*
X0062280Y0362201D03*
X0062280Y0346453D03*
X0062280Y0330705D03*
X0062280Y0314957D03*
X0062280Y0299209D03*
X0062280Y0283461D03*
X0062280Y0267713D03*
X0078028Y0433067D03*
X0078028Y0417319D03*
X0078028Y0401571D03*
X0078028Y0385823D03*
X0078028Y0370075D03*
X0078028Y0354327D03*
X0078028Y0338579D03*
X0078028Y0322831D03*
X0078028Y0307083D03*
X0078028Y0291335D03*
X0078028Y0275587D03*
X0093776Y0440941D03*
X0093776Y0425193D03*
X0093776Y0409445D03*
X0093776Y0393697D03*
X0093776Y0377949D03*
X0093776Y0362201D03*
X0093776Y0346453D03*
X0093776Y0330705D03*
X0093776Y0314957D03*
X0093776Y0299209D03*
X0093776Y0283461D03*
X0093776Y0267713D03*
X0329996Y0468500D03*
X0314248Y0468500D03*
X0298500Y0468500D03*
X0282752Y0468500D03*
X0267004Y0468500D03*
X0251256Y0468500D03*
X0235508Y0468500D03*
X0219760Y0468500D03*
X0322122Y0452752D03*
X0306374Y0452752D03*
X0290626Y0452752D03*
X0274878Y0452752D03*
X0259130Y0452752D03*
X0243382Y0452752D03*
X0227634Y0452752D03*
X0329996Y0437004D03*
X0314248Y0437004D03*
X0298500Y0437004D03*
X0282752Y0437004D03*
X0267004Y0437004D03*
X0251256Y0437004D03*
X0235508Y0437004D03*
X0219760Y0437004D03*
X0487476Y0267713D03*
X0487476Y0283461D03*
X0487476Y0299209D03*
X0487476Y0314957D03*
X0487476Y0330705D03*
X0487476Y0346453D03*
X0487476Y0362201D03*
X0487476Y0377949D03*
X0487476Y0393697D03*
X0487476Y0409445D03*
X0487476Y0425193D03*
X0487476Y0440941D03*
X0471728Y0275587D03*
X0471728Y0291335D03*
X0471728Y0307083D03*
X0471728Y0322831D03*
X0471728Y0338579D03*
X0471728Y0354327D03*
X0471728Y0370075D03*
X0471728Y0385823D03*
X0471728Y0401571D03*
X0471728Y0417319D03*
X0471728Y0433067D03*
X0455980Y0267713D03*
X0455980Y0283461D03*
X0455980Y0299209D03*
X0455980Y0314957D03*
X0455980Y0330705D03*
X0455980Y0346453D03*
X0455980Y0362201D03*
X0455980Y0377949D03*
X0455980Y0393697D03*
X0455980Y0409445D03*
X0455980Y0425193D03*
X0455980Y0440941D03*
G36*
G01*
X0182846Y0127153D02*
X0176154Y0127153D01*
G75*
G02*
X0176153Y0127154I0000000J0000000D01*
G01*
X0176153Y0133846D01*
G75*
G02*
X0176154Y0133847I0000000J0000000D01*
G01*
X0182846Y0133847D01*
G75*
G02*
X0182847Y0133846I0000000J0000000D01*
G01*
X0182847Y0127154D01*
G75*
G02*
X0182846Y0127153I0000000J0000000D01*
G01*
G37*
D50*
X0189500Y0130500D03*
X0199500Y0130500D03*
X0209500Y0130500D03*
X0219500Y0130500D03*
X0229500Y0130500D03*
D53*
X0285955Y0079569D03*
X0288022Y0083014D03*
X0290975Y0078388D03*
X0304951Y0078683D03*
G36*
G01*
X0042646Y0136670D02*
X0048354Y0136670D01*
G75*
G02*
X0049339Y0135685I0000000J-000985D01*
G01*
X0049339Y0130961D01*
G75*
G02*
X0048354Y0129976I-000985J0000000D01*
G01*
X0042646Y0129976D01*
G75*
G02*
X0041661Y0130961I0000000J0000985D01*
G01*
X0041661Y0135685D01*
G75*
G02*
X0042646Y0136670I0000985J0000000D01*
G01*
G37*
D54*
X0045500Y0123480D03*
X0045500Y0113638D03*
X0045500Y0103795D03*
X0045500Y0093953D03*
X0045500Y0084110D03*
X0045500Y0074268D03*
X0045500Y0064425D03*
X0045500Y0054583D03*
X0045500Y0044740D03*
D53*
X0266045Y0095415D03*
X0263978Y0091970D03*
X0261025Y0096596D03*
X0247049Y0096301D03*
G36*
G01*
X0372654Y0049347D02*
X0379346Y0049347D01*
G75*
G02*
X0379347Y0049346I0000000J0000000D01*
G01*
X0379347Y0042654D01*
G75*
G02*
X0379346Y0042653I0000000J0000000D01*
G01*
X0372654Y0042653D01*
G75*
G02*
X0372653Y0042654I0000000J0000000D01*
G01*
X0372653Y0049346D01*
G75*
G02*
X0372654Y0049347I0000000J0000000D01*
G01*
G37*
D50*
X0366000Y0046000D03*
X0356000Y0046000D03*
X0346000Y0046000D03*
X0336000Y0046000D03*
X0326000Y0046000D03*
G36*
G01*
X0507354Y0041393D02*
X0501646Y0041393D01*
G75*
G02*
X0500661Y0042378I0000000J0000985D01*
G01*
X0500661Y0047102D01*
G75*
G02*
X0501646Y0048087I0000985J0000000D01*
G01*
X0507354Y0048087D01*
G75*
G02*
X0508339Y0047102I0000000J-000985D01*
G01*
X0508339Y0042378D01*
G75*
G02*
X0507354Y0041393I-000985J0000000D01*
G01*
G37*
D54*
X0504500Y0054583D03*
X0504500Y0064425D03*
X0504500Y0074268D03*
X0504500Y0084110D03*
X0504500Y0093953D03*
X0504500Y0103795D03*
X0504500Y0113638D03*
X0504500Y0123480D03*
X0504500Y0133323D03*
X0236386Y0116862D02*
%LPD*%
G01*
D68*
X0095677Y0065287D03*
D69*
X0105677Y0065287D03*
X0115677Y0065287D03*
D78*
X0232213Y0106035D03*
X0212213Y0110035D03*
X0212213Y0102035D03*
X0280542Y0109884D02*
G01*
G75*
D98*
X0304951Y0078683D02*
D03*
X0290975Y0078388D02*
D03*
X0285955Y0079569D02*
D03*
X0288022Y0083014D02*
D03*
X0317449Y0058398D02*
%LPD*%
G01*
D68*
X0458158Y0109973D03*
D69*
X0448158Y0109973D03*
X0438158Y0109973D03*
D78*
X0321622Y0069225D03*
X0341622Y0065225D03*
X0341622Y0073225D03*
X0271458Y0065100D02*
G01*
G75*
D98*
X0247049Y0096301D02*
D03*
X0261025Y0096596D02*
D03*
X0266045Y0095415D02*
D03*
X0263978Y0091970D02*
D03*
M02*
