M48
INCH,TZ
T01C0.011800
T02C0.018400
T03C0.038400
T04C0.045000
T05C0.055100
T06C0.068900
T07C0.078700
T08C0.167300
%
T01
X24705Y9630
X26103Y9660
X26398Y9197
X26604Y9542
X28596Y7957
X28802Y8301
X29098Y7839
X30495Y7868
X900Y50050
X900Y47408
X900Y44670
X900Y40901
X900Y36614
X900Y32537
X1108Y26502
X1532Y16184
X1626Y19294
X1898Y52872
X2097Y23063
X2250Y11150
X2250Y6150
X2250Y1150
X2450Y26350
X3990Y48666
X4304Y29554
X4389Y57272
X4648Y30780
X4689Y16514
X4736Y23346
X4936Y32025
X5024Y52917
X5108Y33499
X5241Y55117
X5254Y19718
X5897Y48964
X7250Y3650
X7515Y24571
X7738Y57991
X8222Y16184
X8505Y18870
X8609Y52021
X9494Y22215
X9644Y50573
X9750Y13650
X9965Y53584
X10015Y35521
X10054Y37053
X11160Y52642
X11367Y50504
X11398Y41143
X11614Y20330
X11974Y26507
X11981Y57585
X11990Y38247
X12227Y16373
X12250Y1150
X12295Y35789
X12563Y34429
X12639Y31461
X12735Y33108
X13263Y18728
X13327Y15800
X13590Y49385
X13667Y57578
X13938Y29560
X13978Y54550
X14646Y24244
X14750Y13650
X14850Y17250
X15200Y42050
X15927Y42744
X15928Y26589
X16201Y28933
X16374Y34844
X16505Y38018
X16582Y21054
X16650Y50550
X16872Y32063
X17250Y3650
X18123Y46894
X18187Y41633
X18493Y42763
X18583Y57245
X18635Y48485
X19139Y15583
X19950Y26025
X20084Y30049
X20218Y38232
X20275Y57197
X20335Y43310
X20486Y32866
X20486Y21800
X20660Y15619
X20822Y36220
X20886Y20072
X21013Y49862
X21102Y50211
X21358Y28373
X21425Y24617
X21828Y38702
X21919Y57197
X22029Y30720
X22250Y1150
X22364Y34879
X22470Y51893
X22700Y41150
X22901Y21531
X23204Y15619
X23438Y24482
X23840Y29312
X23907Y32934
X23974Y26763
X24000Y8350
X24242Y38366
X24310Y36287
X24401Y52133
X24465Y49930
X24750Y13650
X25047Y22873
X25249Y27031
X25325Y15619
X25466Y17598
X25651Y36555
X25785Y32732
X26001Y58130
X26346Y54633
X26364Y19228
X26771Y56138
X26922Y49707
X27209Y17880
X27250Y3650
X27274Y10050
X27565Y10737
X27832Y53122
X27852Y10050
X27920Y20714
X28670Y16043
X28702Y57912
X28702Y54666
X28803Y26159
X28937Y23208
X29005Y30117
X29206Y33805
X29407Y37696
X29667Y50760
X29750Y13650
X29781Y56269
X29800Y18163
X29850Y44719
X30413Y21330
X30662Y46198
X30931Y16467
X31200Y9250
X31327Y53250
X32191Y50756
X32250Y1150
X32265Y51790
X32285Y44339
X32425Y26562
X32487Y50756
X32546Y52050
X32694Y36220
X32783Y50756
X32802Y57276
X32962Y39909
X33031Y45884
X33145Y16184
X33163Y31525
X33163Y20928
X33210Y53698
X33260Y50756
X33368Y49197
X33496Y50520
X33774Y42132
X33956Y52216
X34021Y42355
X34035Y23342
X34259Y42641
X34556Y57260
X34710Y49419
X34750Y51748
X34979Y42723
X35063Y46318
X35338Y48045
X35511Y41720
X35600Y16100
X36047Y19787
X36125Y57353
X36382Y44000
X36450Y35683
X36852Y30318
X36870Y48281
X37250Y13650
X37250Y3650
X37590Y19922
X37657Y40311
X37802Y57307
X37925Y27232
X38059Y24281
X38798Y37427
X39186Y50244
X39199Y45878
X39494Y57276
X39663Y50104
X39937Y22135
X39958Y50080
X40200Y43750
X40254Y50080
X40340Y30385
X40541Y46683
X40550Y50080
X40589Y15949
X40819Y49900
X41078Y38501
X41109Y57369
X41145Y33202
X41485Y18917
X41838Y51825
X42084Y27702
X42250Y13650
X42250Y1150
X42486Y19989
X42574Y50609
X42956Y25019
X43760Y17306
X44416Y57260
X44897Y50412
X44912Y51706
X44968Y23342
X45649Y53521
X46435Y58396
X46577Y24684
X46786Y49059
X47018Y45602
X47181Y22135
X47250Y26300
X47250Y13650
X47250Y3650
X47852Y17239
X49529Y24550
X49576Y58396
X49739Y55058
X50125Y49363
X50803Y43933
X50870Y28037
X51071Y33671
X51205Y38299
X51474Y17172
X52250Y1150
X52546Y46909
X52623Y51558
X52815Y20995
X53218Y40915
X53285Y31190
X53352Y26763
X53419Y35147
X53598Y52763
X8363Y11037
X8363Y10643
X8363Y10249
X8363Y9856
X23422Y9422
X23422Y9029
X23422Y7631
X23422Y7237
X31961Y10289
X31961Y9895
X31961Y8497
X31961Y8104
X47020Y7670
X47020Y7277
X47020Y6883
X47020Y6489
X31336Y13812
X31316Y14757
X31277Y16548
X31257Y15859
X31237Y19284
X31096Y17546
X30948Y17814
X30863Y14304
X30647Y19029
X30411Y18044
X30332Y19009
X30106Y16577
X30096Y17316
X30080Y14714
X30076Y15623
X29899Y14265
X29525Y19206
X29131Y17277
X29072Y15249
X29033Y16426
X28836Y19324
X28777Y13871
X28521Y18792
X28501Y17749
X28462Y14245
X28147Y16583
X28068Y16903
X27891Y16233
X27812Y14048
X27655Y17178
X27576Y15544
X27517Y19324
X27104Y16647
X26867Y15623
X26769Y17434
X26749Y14068
X26336Y19245
X26204Y15149
X26139Y16509
X25907Y16879
X25884Y16129
X25883Y15190
X25883Y15505
X25529Y17906
X25529Y18241
X25273Y19048
X25233Y14639
X24800Y16883
X24781Y19343
X24722Y15091
X24407Y18758
X24404Y16389
X24269Y18458
X24210Y14343
X23285Y17906
X23127Y17336
X23048Y16312
X22891Y16627
X22871Y14934
X22753Y14166
X22674Y14462
X22340Y19343
X22241Y15406
X22222Y18753
X22104Y17651
X21946Y16784
X21946Y17139
X21848Y16292
X21808Y14501
X21513Y15406
X21204Y16089
X21178Y18851
X20982Y15052
X20794Y17649
X20686Y19048
X20253Y14147
X20253Y15347
X20064Y17299
X20056Y13851
X20056Y16351
X20054Y16989
X20054Y18059
X20017Y18576
X20017Y19284
X19072Y15977
X17379Y13826
X17261Y18615
X17261Y19245
X17104Y15151
X17104Y15544
X16789Y18615
X16710Y15151
X16710Y15544
X16277Y13851
X16218Y19343
X31296Y15111
X31296Y15505
X31296Y16903
X31296Y17296
X16237Y17729
X16237Y18123
X16237Y18517
X16237Y18910
X36676Y16175
X36469Y15831
X36971Y15712
X38369Y15742
X39796Y19462
X39816Y18517
X39855Y16726
X39875Y17415
X39895Y13990
X40036Y15728
X40184Y15460
X40269Y18970
X40485Y14245
X40721Y15230
X40800Y14265
X41026Y16697
X41036Y15958
X41052Y18560
X41056Y17651
X41233Y19009
X41607Y14068
X42001Y15997
X42060Y18025
X42099Y16848
X42296Y13950
X42355Y19403
X42611Y14482
X42631Y15525
X42670Y19029
X42985Y16691
X43064Y16371
X43241Y17041
X43320Y19226
X43477Y16096
X43556Y17730
X43615Y13950
X44028Y16627
X44265Y17651
X44363Y15840
X44383Y19206
X44796Y14029
X44928Y18125
X44993Y16765
X45225Y16395
X45248Y17145
X45249Y18084
X45249Y17769
X45603Y15368
X45603Y15033
X45859Y14226
X45899Y18635
X46332Y16391
X46351Y13931
X46410Y18183
X46725Y14516
X46728Y16885
X46863Y14816
X46922Y18931
X47847Y15368
X48005Y15938
X48084Y16962
X48241Y16647
X48261Y18340
X48379Y19108
X48458Y18812
X48792Y13931
X48891Y17868
X48910Y14521
X49028Y15623
X49186Y16490
X49186Y16135
X49284Y16982
X49324Y18773
X49619Y17868
X49928Y17185
X49954Y14423
X50150Y18222
X50338Y15625
X50446Y14226
X50879Y19127
X50879Y17927
X51068Y15975
X51076Y19423
X51076Y16923
X51078Y16285
X51078Y15215
X51115Y14698
X51115Y13990
X52060Y17297
X53753Y19448
X53871Y14659
X53871Y14029
X54028Y18123
X54028Y17730
X54343Y14659
X54422Y18123
X54422Y17730
X54855Y19423
X54914Y13931
X39836Y18163
X39836Y17769
X39836Y16371
X39836Y15978
X54895Y15545
X54895Y15151
X54895Y14757
X54895Y14364
X34272Y17071
X34479Y17415
X33977Y17534
X32579Y17504
T02
X13950Y50000
X17122Y47439
X19858Y50354
X33644Y53239
X37115Y51450
X37393Y51070
X47760Y34831
X19295Y48097
X19628Y45646
X19708Y45150
X19710Y47915
X19890Y47498
X19963Y44775
X19986Y46977
X21274Y48324
X21300Y46361
X21649Y48051
T03
X4550Y13332
X4550Y12348
X4550Y11364
X4550Y10380
X4550Y9395
X4550Y8411
X4550Y7427
X4550Y6443
X4550Y5458
X4550Y4474
X50450Y13332
X50450Y12348
X50450Y11364
X50450Y10380
X50450Y9395
X50450Y8411
X50450Y7427
X50450Y6443
X50450Y5458
X50450Y4474
X16511Y18016
X16511Y17016
X17511Y18016
X17511Y17016
X18511Y18016
X18511Y17016
X19511Y18016
X19511Y17016
X20511Y18016
X20511Y17016
X21511Y18016
X21511Y17016
X22511Y18016
X22511Y17016
X23511Y18016
X23511Y17016
X31553Y18016
X31553Y17016
X32553Y18016
X32553Y17016
X33553Y18016
X33553Y17016
X34553Y18016
X34553Y17016
X35553Y18016
X35553Y17016
X36553Y18016
X36553Y17016
X37553Y18016
X37553Y17016
X38553Y18016
X38553Y17016
X17950Y13050
X18950Y13050
X19950Y13050
X20950Y13050
X21950Y13050
X22950Y13050
X32600Y4600
X33600Y4600
X34600Y4600
X35600Y4600
X36600Y4600
X37600Y4600
X31096Y18477
X29096Y18077
X29096Y18877
X40036Y14797
X42036Y15197
X42036Y14397
T04
X8377Y55220
X8934Y56411
X9492Y57602
X10027Y55220
X10584Y56411
X11142Y57602
X11677Y55220
X12234Y56411
X12792Y57602
X13326Y55220
X13884Y56411
X14441Y57602
X14976Y55220
X15534Y56411
X16091Y57602
X16626Y55220
X17184Y56411
X17741Y57602
X18276Y55220
X18834Y56411
X19391Y57602
X19926Y55220
X20484Y56411
X21041Y57602
X21576Y55220
X22134Y56411
X22691Y57602
X23226Y55220
X23783Y56411
X24341Y57602
X30865Y55220
X31423Y56411
X31980Y57602
X32515Y55220
X33073Y56411
X33630Y57602
X34165Y55220
X34723Y56411
X35280Y57602
X35815Y55220
X36373Y56411
X36930Y57602
X37465Y55220
X38023Y56411
X38580Y57602
X39115Y55220
X39672Y56411
X40230Y57602
X40765Y55220
X41322Y56411
X41880Y57602
X42415Y55220
X42972Y56411
X43530Y57602
X44065Y55220
X44622Y56411
X45180Y57602
X45715Y55220
X46272Y56411
X46830Y57602
X47780Y53111
X48780Y53111
X49780Y53111
X12117Y47994
X14181Y48322
X15816Y46916
X21912Y41444
X22956Y39344
X19442Y14403
X18442Y14403
X17442Y14403
X51690Y18871
X52690Y18871
X53690Y18871
T05
X32039Y42020
X40600Y41450
X42600Y43400
T06
X6228Y44094
X6228Y42519
X6228Y40945
X6228Y39370
X6228Y37795
X6228Y36220
X6228Y34645
X6228Y33070
X6228Y31496
X6228Y29921
X6228Y28346
X6228Y26771
X7803Y43307
X7803Y41732
X7803Y40157
X7803Y38582
X7803Y37007
X7803Y35433
X7803Y33858
X7803Y32283
X7803Y30708
X7803Y29133
X7803Y27559
X9378Y44094
X9378Y42519
X9378Y40945
X9378Y39370
X9378Y37795
X9378Y36220
X9378Y34645
X9378Y33070
X9378Y31496
X9378Y29921
X9378Y28346
X9378Y26771
X21976Y46850
X21976Y43700
X22763Y45275
X23551Y46850
X23551Y43700
X24338Y45275
X25126Y46850
X25126Y43700
X25913Y45275
X26700Y46850
X26700Y43700
X27488Y45275
X28275Y46850
X28275Y43700
X29063Y45275
X29850Y46850
X29850Y43700
X30637Y45275
X31425Y46850
X31425Y43700
X32212Y45275
X33000Y46850
X33000Y43700
X45598Y44094
X45598Y42519
X45598Y40945
X45598Y39370
X45598Y37795
X45598Y36220
X45598Y34645
X45598Y33070
X45598Y31496
X45598Y29921
X45598Y28346
X45598Y26771
X47173Y43307
X47173Y41732
X47173Y40157
X47173Y38582
X47173Y37007
X47173Y35433
X47173Y33858
X47173Y32283
X47173Y30708
X47173Y29133
X47173Y27559
X48748Y44094
X48748Y42519
X48748Y40945
X48748Y39370
X48748Y37795
X48748Y36220
X48748Y34645
X48748Y33070
X48748Y31496
X48748Y29921
X48748Y28346
X48748Y26771
T07
X3551Y47913
X3551Y22952
X10677Y48504
X10677Y22362
X17567Y42401
X18157Y49527
X36819Y49527
X37409Y42401
X44299Y48504
X44299Y22362
X51425Y47913
X51425Y22952
T08
X6489Y56992
X27600Y51228
X48711Y56992
M30
