G75*
G70*
%OFA0B0*%
%FSLAX25Y25*%
%IPPOS*%
%LPD*%
%AMOC8*
5,1,8,0,0,1.08239X$1,22.5*
%
%ADD10C,0.00787*%
%ADD42C,0.00800*%
%ADD56C,0.00512*%
%ADD57C,0.00591*%
%ADD58C,0.00550*%
%ADD59C,0.01181*%
%ADD60C,0.00600*%
%ADD61C,0.00500*%
%ADD62C,0.00472*%
%ADD63C,0.01969*%
%ADD64C,0.00394*%
%ADD77C,0.00984*%
%ADD99C,0.01000*%
X0000000Y0000000D02*
%LPD*%
G01*
D10*
X0000000Y0005000D02*
X0000000Y0542693D01*
X0505989Y0589000D02*
X0046272Y0589000D01*
X0046272Y0589000D02*
X0000000Y0542693D01*
X0550000Y0005000D02*
X0550000Y0542693D01*
X0545000Y0000000D02*
G75*
G03*
X0550000Y0005000I0000000J0005000D01*
G01*
X0032875Y0545250D02*
G75*
G03*
X0032875Y0545250I-009375J0000000D01*
G01*
X0505989Y0589000D02*
X0550000Y0542693D01*
X0000000Y0005000D02*
G75*
G03*
X0005000Y0000000I0005000J0000000D01*
G01*
X0545000Y0000000D02*
X0005000Y0000000D01*
X0535405Y0545250D02*
G75*
G03*
X0535405Y0545250I-009375J0000000D01*
G01*
D56*
X0274429Y0568691D02*
X0274429Y0565453D01*
X0274620Y0565072D01*
X0274810Y0564881D01*
X0275191Y0564691D01*
X0275953Y0564691D01*
X0276334Y0564881D01*
X0276525Y0565072D01*
X0276715Y0565453D01*
X0276715Y0568691D01*
X0280715Y0564691D02*
X0278429Y0564691D01*
X0279572Y0564691D02*
X0279572Y0568691D01*
X0279191Y0568119D01*
X0278810Y0567738D01*
X0278429Y0567548D01*
D57*
X0350688Y0190656D02*
X0350688Y0187844D01*
X0350500Y0187282D01*
X0350125Y0186907D01*
X0349563Y0186719D01*
X0349188Y0186719D01*
X0352375Y0190281D02*
X0352563Y0190469D01*
X0352938Y0190656D01*
X0353875Y0190656D01*
X0354250Y0190469D01*
X0354437Y0190281D01*
X0354625Y0189906D01*
X0354625Y0189531D01*
X0354437Y0188969D01*
X0352188Y0186719D01*
X0354625Y0186719D01*
X0198758Y0190716D02*
X0198758Y0187904D01*
X0198570Y0187342D01*
X0198195Y0186967D01*
X0197633Y0186779D01*
X0197258Y0186779D01*
X0202320Y0189404D02*
X0202320Y0186779D01*
X0201382Y0190904D02*
X0200445Y0188091D01*
X0202882Y0188091D01*
X0508688Y0537156D02*
X0508688Y0534344D01*
X0508500Y0533782D01*
X0508125Y0533407D01*
X0507563Y0533219D01*
X0507188Y0533219D01*
X0512625Y0533219D02*
X0510375Y0533219D01*
X0511500Y0533219D02*
X0511500Y0537156D01*
X0511125Y0536594D01*
X0510750Y0536219D01*
X0510375Y0536031D01*
X0506125Y0529219D02*
X0503875Y0529219D01*
X0505000Y0529219D02*
X0505000Y0533156D01*
X0504625Y0532594D01*
X0504250Y0532219D01*
X0503875Y0532031D01*
X0468688Y0533156D02*
X0471125Y0533156D01*
X0469813Y0531656D01*
X0470375Y0531656D01*
X0470750Y0531469D01*
X0470938Y0531281D01*
X0471125Y0530906D01*
X0471125Y0529969D01*
X0470938Y0529594D01*
X0470750Y0529407D01*
X0470375Y0529219D01*
X0469250Y0529219D01*
X0468875Y0529407D01*
X0468688Y0529594D01*
X0468688Y0533156D02*
X0471125Y0533156D01*
X0469813Y0531656D01*
X0470375Y0531656D01*
X0470750Y0531469D01*
X0470938Y0531281D01*
X0471125Y0530906D01*
X0471125Y0529969D01*
X0470938Y0529594D01*
X0470750Y0529407D01*
X0470375Y0529219D01*
X0469250Y0529219D01*
X0468875Y0529407D01*
X0468688Y0529594D01*
X0497800Y0533266D02*
X0497800Y0532329D01*
X0496863Y0532704D02*
X0497800Y0532329D01*
X0498738Y0532704D01*
X0497238Y0531579D02*
X0497800Y0532329D01*
X0498363Y0531579D01*
X0506125Y0529219D02*
X0503875Y0529219D01*
X0505000Y0529219D02*
X0505000Y0533156D01*
X0504625Y0532594D01*
X0504250Y0532219D01*
X0503875Y0532031D01*
X0020529Y0517403D02*
X0021091Y0517216D01*
X0021279Y0517028D01*
X0021466Y0516654D01*
X0021466Y0516091D01*
X0021279Y0515716D01*
X0021091Y0515529D01*
X0020716Y0515341D01*
X0019216Y0515341D01*
X0019216Y0519278D01*
X0020529Y0519278D01*
X0020904Y0519091D01*
X0021091Y0518903D01*
X0021279Y0518528D01*
X0021279Y0518153D01*
X0021091Y0517778D01*
X0020904Y0517591D01*
X0020529Y0517403D01*
X0019216Y0517403D01*
X0025403Y0515341D02*
X0024091Y0517216D01*
X0023153Y0515341D02*
X0023153Y0519278D01*
X0024653Y0519278D01*
X0025028Y0519091D01*
X0025216Y0518903D01*
X0025403Y0518528D01*
X0025403Y0517966D01*
X0025216Y0517591D01*
X0025028Y0517403D01*
X0024653Y0517216D01*
X0023153Y0517216D01*
X0027090Y0515341D02*
X0027090Y0519278D01*
X0028028Y0519278D01*
X0028590Y0519091D01*
X0028965Y0518716D01*
X0029153Y0518341D01*
X0029340Y0517591D01*
X0029340Y0517028D01*
X0029153Y0516279D01*
X0028965Y0515904D01*
X0028590Y0515529D01*
X0028028Y0515341D01*
X0027090Y0515341D01*
X0033090Y0515341D02*
X0030840Y0515341D01*
X0031965Y0515341D02*
X0031965Y0519278D01*
X0031590Y0518716D01*
X0031215Y0518341D01*
X0030840Y0518153D01*
X0474625Y0456503D02*
X0472375Y0456503D01*
X0473500Y0456503D02*
X0473500Y0460440D01*
X0473125Y0459877D01*
X0472750Y0459502D01*
X0472375Y0459315D01*
X0476125Y0460065D02*
X0476312Y0460252D01*
X0476687Y0460440D01*
X0477625Y0460440D01*
X0478000Y0460252D01*
X0478187Y0460065D01*
X0478375Y0459690D01*
X0478375Y0459315D01*
X0478187Y0458752D01*
X0475937Y0456503D01*
X0478375Y0456503D01*
X0479687Y0459127D02*
X0480624Y0456503D01*
X0481562Y0459127D01*
X0485874Y0456690D02*
X0486436Y0456503D01*
X0487373Y0456503D01*
X0487748Y0456690D01*
X0487936Y0456878D01*
X0488123Y0457252D01*
X0488123Y0457627D01*
X0487936Y0458002D01*
X0487748Y0458190D01*
X0487373Y0458377D01*
X0486624Y0458565D01*
X0486249Y0458752D01*
X0486061Y0458940D01*
X0485874Y0459315D01*
X0485874Y0459690D01*
X0486061Y0460065D01*
X0486249Y0460252D01*
X0486624Y0460440D01*
X0487561Y0460440D01*
X0488123Y0460252D01*
X0491310Y0456690D02*
X0490935Y0456503D01*
X0490186Y0456503D01*
X0489811Y0456690D01*
X0489623Y0457065D01*
X0489623Y0458565D01*
X0489811Y0458940D01*
X0490186Y0459127D01*
X0490935Y0459127D01*
X0491310Y0458940D01*
X0491498Y0458565D01*
X0491498Y0458190D01*
X0489623Y0457815D01*
X0493185Y0459127D02*
X0493185Y0456503D01*
X0493185Y0458752D02*
X0493373Y0458940D01*
X0493748Y0459127D01*
X0494310Y0459127D01*
X0494685Y0458940D01*
X0494872Y0458565D01*
X0494872Y0456503D01*
X0496560Y0456690D02*
X0496935Y0456503D01*
X0497685Y0456503D01*
X0498060Y0456690D01*
X0498247Y0457065D01*
X0498247Y0457252D01*
X0498060Y0457627D01*
X0497685Y0457815D01*
X0497122Y0457815D01*
X0496747Y0458002D01*
X0496560Y0458377D01*
X0496560Y0458565D01*
X0496747Y0458940D01*
X0497122Y0459127D01*
X0497685Y0459127D01*
X0498060Y0458940D01*
X0476312Y0450351D02*
X0476875Y0450164D01*
X0477812Y0450164D01*
X0478187Y0450351D01*
X0478375Y0450539D01*
X0478562Y0450914D01*
X0478562Y0451289D01*
X0478375Y0451664D01*
X0478187Y0451851D01*
X0477812Y0452039D01*
X0477062Y0452226D01*
X0476687Y0452414D01*
X0476500Y0452601D01*
X0476312Y0452976D01*
X0476312Y0453351D01*
X0476500Y0453726D01*
X0476687Y0453914D01*
X0477062Y0454101D01*
X0478000Y0454101D01*
X0478562Y0453914D01*
X0481937Y0452789D02*
X0481937Y0450164D01*
X0480249Y0452789D02*
X0480249Y0450726D01*
X0480437Y0450351D01*
X0480812Y0450164D01*
X0481374Y0450164D01*
X0481749Y0450351D01*
X0481937Y0450539D01*
X0483811Y0452789D02*
X0483811Y0448852D01*
X0483811Y0452601D02*
X0484186Y0452789D01*
X0484936Y0452789D01*
X0485311Y0452601D01*
X0485499Y0452414D01*
X0485686Y0452039D01*
X0485686Y0450914D01*
X0485499Y0450539D01*
X0485311Y0450351D01*
X0484936Y0450164D01*
X0484186Y0450164D01*
X0483811Y0450351D01*
X0487373Y0452789D02*
X0487373Y0448852D01*
X0487373Y0452601D02*
X0487748Y0452789D01*
X0488498Y0452789D01*
X0488873Y0452601D01*
X0489061Y0452414D01*
X0489248Y0452039D01*
X0489248Y0450914D01*
X0489061Y0450539D01*
X0488873Y0450351D01*
X0488498Y0450164D01*
X0487748Y0450164D01*
X0487373Y0450351D01*
X0491498Y0450164D02*
X0491123Y0450351D01*
X0490935Y0450726D01*
X0490935Y0454101D01*
X0492623Y0452789D02*
X0493560Y0450164D01*
X0494498Y0452789D02*
X0493560Y0450164D01*
X0493185Y0449227D01*
X0492998Y0449039D01*
X0492623Y0448852D01*
X0055202Y0329175D02*
X0055202Y0329925D01*
X0055015Y0330300D01*
X0054827Y0330488D01*
X0054265Y0330863D01*
X0053515Y0331050D01*
X0052015Y0331050D01*
X0051640Y0330863D01*
X0051453Y0330675D01*
X0051265Y0330300D01*
X0051265Y0329550D01*
X0051453Y0329175D01*
X0051640Y0328988D01*
X0052015Y0328800D01*
X0052953Y0328800D01*
X0053328Y0328988D01*
X0053515Y0329175D01*
X0053703Y0329550D01*
X0053703Y0330300D01*
X0053515Y0330675D01*
X0053328Y0330863D01*
X0052953Y0331050D01*
X0086765Y0338613D02*
X0086765Y0341238D01*
X0090702Y0339550D01*
X0051265Y0362675D02*
X0051265Y0361925D01*
X0051453Y0361550D01*
X0051640Y0361363D01*
X0052203Y0360988D01*
X0052953Y0360800D01*
X0054453Y0360800D01*
X0054827Y0360988D01*
X0055015Y0361175D01*
X0055202Y0361550D01*
X0055202Y0362300D01*
X0055015Y0362675D01*
X0054827Y0362863D01*
X0054453Y0363050D01*
X0053515Y0363050D01*
X0053140Y0362863D01*
X0052953Y0362675D01*
X0052765Y0362300D01*
X0052765Y0361550D01*
X0052953Y0361175D01*
X0053140Y0360988D01*
X0053515Y0360800D01*
X0294460Y0459042D02*
X0294460Y0462979D01*
X0295397Y0462979D01*
X0295960Y0462791D01*
X0296335Y0462417D01*
X0296522Y0462042D01*
X0296710Y0461292D01*
X0296710Y0460729D01*
X0296522Y0459979D01*
X0296335Y0459604D01*
X0295960Y0459229D01*
X0295397Y0459042D01*
X0294460Y0459042D01*
X0298397Y0459042D02*
X0298397Y0461667D01*
X0298397Y0462979D02*
X0298210Y0462791D01*
X0298397Y0462604D01*
X0298585Y0462791D01*
X0298397Y0462979D01*
X0298397Y0462604D01*
X0301959Y0461667D02*
X0301959Y0458480D01*
X0301772Y0458105D01*
X0301584Y0457917D01*
X0301209Y0457730D01*
X0300647Y0457730D01*
X0300272Y0457917D01*
X0301959Y0459229D02*
X0301584Y0459042D01*
X0300834Y0459042D01*
X0300459Y0459229D01*
X0300272Y0459417D01*
X0300084Y0459792D01*
X0300084Y0460917D01*
X0300272Y0461292D01*
X0300459Y0461479D01*
X0300834Y0461667D01*
X0301584Y0461667D01*
X0301959Y0461479D01*
X0303834Y0459042D02*
X0303834Y0461667D01*
X0303834Y0462979D02*
X0303646Y0462791D01*
X0303834Y0462604D01*
X0304021Y0462791D01*
X0303834Y0462979D01*
X0303834Y0462604D01*
X0305146Y0461667D02*
X0306646Y0461667D01*
X0305709Y0462979D02*
X0305709Y0459604D01*
X0305896Y0459229D01*
X0306271Y0459042D01*
X0306646Y0459042D01*
X0309646Y0459042D02*
X0309646Y0461104D01*
X0309458Y0461479D01*
X0309083Y0461667D01*
X0308333Y0461667D01*
X0307958Y0461479D01*
X0309646Y0459229D02*
X0309271Y0459042D01*
X0308333Y0459042D01*
X0307958Y0459229D01*
X0307771Y0459604D01*
X0307771Y0459979D01*
X0307958Y0460354D01*
X0308333Y0460542D01*
X0309271Y0460542D01*
X0309646Y0460729D01*
X0312083Y0459042D02*
X0311708Y0459229D01*
X0311520Y0459604D01*
X0311520Y0462979D01*
X0316395Y0463166D02*
X0313020Y0458105D01*
X0317707Y0459042D02*
X0317707Y0462979D01*
X0317707Y0461104D02*
X0319957Y0461104D01*
X0319957Y0459042D02*
X0319957Y0462979D01*
X0323519Y0459042D02*
X0323519Y0461104D01*
X0323331Y0461479D01*
X0322956Y0461667D01*
X0322207Y0461667D01*
X0321832Y0461479D01*
X0323519Y0459229D02*
X0323144Y0459042D01*
X0322207Y0459042D01*
X0321832Y0459229D01*
X0321644Y0459604D01*
X0321644Y0459979D01*
X0321832Y0460354D01*
X0322207Y0460542D01*
X0323144Y0460542D01*
X0323519Y0460729D01*
X0325956Y0459042D02*
X0325581Y0459229D01*
X0325394Y0459604D01*
X0325394Y0462979D01*
X0328018Y0459042D02*
X0327643Y0459229D01*
X0327456Y0459604D01*
X0327456Y0462979D01*
X0332518Y0459042D02*
X0332518Y0462979D01*
X0334393Y0461667D02*
X0334393Y0459042D01*
X0334393Y0461292D02*
X0334580Y0461479D01*
X0334955Y0461667D01*
X0335517Y0461667D01*
X0335892Y0461479D01*
X0336080Y0461104D01*
X0336080Y0459042D01*
X0337955Y0461667D02*
X0337955Y0457730D01*
X0337955Y0461479D02*
X0338330Y0461667D01*
X0339079Y0461667D01*
X0339454Y0461479D01*
X0339642Y0461292D01*
X0339829Y0460917D01*
X0339829Y0459792D01*
X0339642Y0459417D01*
X0339454Y0459229D01*
X0339079Y0459042D01*
X0338330Y0459042D01*
X0337955Y0459229D01*
X0343204Y0461667D02*
X0343204Y0459042D01*
X0341517Y0461667D02*
X0341517Y0459604D01*
X0341704Y0459229D01*
X0342079Y0459042D01*
X0342642Y0459042D01*
X0343016Y0459229D01*
X0343204Y0459417D01*
X0344516Y0461667D02*
X0346016Y0461667D01*
X0345079Y0462979D02*
X0345079Y0459604D01*
X0345266Y0459229D01*
X0345641Y0459042D01*
X0346016Y0459042D01*
D10*
X0046199Y0288256D02*
X0046199Y0285912D01*
X0041278Y0285912D01*
X0046199Y0290599D02*
X0045965Y0290130D01*
X0045730Y0289896D01*
X0045261Y0289662D01*
X0043855Y0289662D01*
X0043387Y0289896D01*
X0043152Y0290130D01*
X0042918Y0290599D01*
X0042918Y0291302D01*
X0043152Y0291771D01*
X0043387Y0292005D01*
X0043855Y0292239D01*
X0045261Y0292239D01*
X0045730Y0292005D01*
X0045965Y0291771D01*
X0046199Y0291302D01*
X0046199Y0290599D01*
X0042918Y0293880D02*
X0046199Y0294817D01*
X0043855Y0295755D01*
X0046199Y0296692D01*
X0042918Y0297629D01*
X0045965Y0299270D02*
X0046199Y0299738D01*
X0046199Y0300676D01*
X0045965Y0301145D01*
X0045496Y0301379D01*
X0045261Y0301379D01*
X0044793Y0301145D01*
X0044558Y0300676D01*
X0044558Y0299973D01*
X0044324Y0299504D01*
X0043855Y0299270D01*
X0043621Y0299270D01*
X0043152Y0299504D01*
X0042918Y0299973D01*
X0042918Y0300676D01*
X0043152Y0301145D01*
X0046199Y0303488D02*
X0042918Y0303488D01*
X0041278Y0303488D02*
X0041512Y0303254D01*
X0041746Y0303488D01*
X0041512Y0303722D01*
X0041278Y0303488D01*
X0041746Y0303488D01*
X0046199Y0307941D02*
X0041278Y0307941D01*
X0045965Y0307941D02*
X0046199Y0307472D01*
X0046199Y0306534D01*
X0045965Y0306066D01*
X0045730Y0305831D01*
X0045261Y0305597D01*
X0043855Y0305597D01*
X0043387Y0305831D01*
X0043152Y0306066D01*
X0042918Y0306534D01*
X0042918Y0307472D01*
X0043152Y0307941D01*
X0045965Y0312159D02*
X0046199Y0311690D01*
X0046199Y0310753D01*
X0045965Y0310284D01*
X0045496Y0310050D01*
X0043621Y0310050D01*
X0043152Y0310284D01*
X0042918Y0310753D01*
X0042918Y0311690D01*
X0043152Y0312159D01*
X0043621Y0312393D01*
X0044090Y0312393D01*
X0044558Y0310050D01*
X0041043Y0318017D02*
X0047371Y0313799D01*
X0046199Y0319658D02*
X0041278Y0319658D01*
X0042918Y0322001D02*
X0046199Y0322001D01*
X0043387Y0322001D02*
X0043152Y0322236D01*
X0042918Y0322704D01*
X0042918Y0323407D01*
X0043152Y0323876D01*
X0043621Y0324110D01*
X0046199Y0324110D01*
X0042918Y0326454D02*
X0047136Y0326454D01*
X0047605Y0326220D01*
X0047839Y0325751D01*
X0047839Y0325516D01*
X0041278Y0326454D02*
X0041512Y0326220D01*
X0041746Y0326454D01*
X0041512Y0326688D01*
X0041278Y0326454D01*
X0041746Y0326454D01*
X0045965Y0330672D02*
X0046199Y0330203D01*
X0046199Y0329266D01*
X0045965Y0328797D01*
X0045496Y0328563D01*
X0043621Y0328563D01*
X0043152Y0328797D01*
X0042918Y0329266D01*
X0042918Y0330203D01*
X0043152Y0330672D01*
X0043621Y0330906D01*
X0044090Y0330906D01*
X0044558Y0328563D01*
X0045965Y0335125D02*
X0046199Y0334656D01*
X0046199Y0333719D01*
X0045965Y0333250D01*
X0045730Y0333016D01*
X0045261Y0332781D01*
X0043855Y0332781D01*
X0043387Y0333016D01*
X0043152Y0333250D01*
X0042918Y0333719D01*
X0042918Y0334656D01*
X0043152Y0335125D01*
X0042918Y0336531D02*
X0042918Y0338405D01*
X0041278Y0337234D02*
X0045496Y0337234D01*
X0045965Y0337468D01*
X0046199Y0337937D01*
X0046199Y0338405D01*
X0046199Y0340749D02*
X0045965Y0340280D01*
X0045730Y0340046D01*
X0045261Y0339812D01*
X0043855Y0339812D01*
X0043387Y0340046D01*
X0043152Y0340280D01*
X0042918Y0340749D01*
X0042918Y0341452D01*
X0043152Y0341921D01*
X0043387Y0342155D01*
X0043855Y0342389D01*
X0045261Y0342389D01*
X0045730Y0342155D01*
X0045965Y0341921D01*
X0046199Y0341452D01*
X0046199Y0340749D01*
X0046199Y0344498D02*
X0042918Y0344498D01*
X0043855Y0344498D02*
X0043387Y0344733D01*
X0043152Y0344967D01*
X0042918Y0345436D01*
X0042918Y0345905D01*
X0041278Y0352232D02*
X0041278Y0353169D01*
X0041512Y0353638D01*
X0041981Y0354107D01*
X0042918Y0354341D01*
X0044558Y0354341D01*
X0045496Y0354107D01*
X0045965Y0353638D01*
X0046199Y0353169D01*
X0046199Y0352232D01*
X0045965Y0351763D01*
X0045496Y0351294D01*
X0044558Y0351060D01*
X0042918Y0351060D01*
X0041981Y0351294D01*
X0041512Y0351763D01*
X0041278Y0352232D01*
X0042918Y0358559D02*
X0046199Y0358559D01*
X0042918Y0356450D02*
X0045496Y0356450D01*
X0045965Y0356684D01*
X0046199Y0357153D01*
X0046199Y0357856D01*
X0045965Y0358325D01*
X0045730Y0358559D01*
X0042918Y0360200D02*
X0042918Y0362074D01*
X0041278Y0360903D02*
X0045496Y0360903D01*
X0045965Y0361137D01*
X0046199Y0361606D01*
X0046199Y0362074D01*
X0042918Y0363715D02*
X0047839Y0363715D01*
X0043152Y0363715D02*
X0042918Y0364184D01*
X0042918Y0365121D01*
X0043152Y0365590D01*
X0043387Y0365824D01*
X0043855Y0366058D01*
X0045261Y0366058D01*
X0045730Y0365824D01*
X0045965Y0365590D01*
X0046199Y0365121D01*
X0046199Y0364184D01*
X0045965Y0363715D01*
X0042918Y0370276D02*
X0046199Y0370276D01*
X0042918Y0368167D02*
X0045496Y0368167D01*
X0045965Y0368402D01*
X0046199Y0368870D01*
X0046199Y0369573D01*
X0045965Y0370042D01*
X0045730Y0370276D01*
X0042918Y0371917D02*
X0042918Y0373792D01*
X0041278Y0372620D02*
X0045496Y0372620D01*
X0045965Y0372854D01*
X0046199Y0373323D01*
X0046199Y0373792D01*
X0045965Y0375198D02*
X0046199Y0375666D01*
X0046199Y0376604D01*
X0045965Y0377073D01*
X0045496Y0377307D01*
X0045261Y0377307D01*
X0044793Y0377073D01*
X0044558Y0376604D01*
X0044558Y0375901D01*
X0044324Y0375432D01*
X0043855Y0375198D01*
X0043621Y0375198D01*
X0043152Y0375432D01*
X0042918Y0375901D01*
X0042918Y0376604D01*
X0043152Y0377073D01*
D57*
X0499015Y0295516D02*
X0499202Y0296078D01*
X0499202Y0297015D01*
X0499015Y0297390D01*
X0498827Y0297578D01*
X0498453Y0297765D01*
X0498078Y0297765D01*
X0497703Y0297578D01*
X0497515Y0297390D01*
X0497328Y0297015D01*
X0497140Y0296265D01*
X0496953Y0295890D01*
X0496765Y0295703D01*
X0496390Y0295516D01*
X0496015Y0295516D01*
X0495640Y0295703D01*
X0495453Y0295890D01*
X0495265Y0296265D01*
X0495265Y0297203D01*
X0495453Y0297765D01*
X0499015Y0300952D02*
X0499202Y0300577D01*
X0499202Y0299827D01*
X0499015Y0299453D01*
X0498640Y0299265D01*
X0497140Y0299265D01*
X0496765Y0299453D01*
X0496578Y0299827D01*
X0496578Y0300577D01*
X0496765Y0300952D01*
X0497140Y0301140D01*
X0497515Y0301140D01*
X0497890Y0299265D01*
X0496578Y0302827D02*
X0499202Y0302827D01*
X0496953Y0302827D02*
X0496765Y0303015D01*
X0496578Y0303390D01*
X0496578Y0303952D01*
X0496765Y0304327D01*
X0497140Y0304514D01*
X0499202Y0304514D01*
X0499015Y0306202D02*
X0499202Y0306577D01*
X0499202Y0307327D01*
X0499015Y0307702D01*
X0498640Y0307889D01*
X0498453Y0307889D01*
X0498078Y0307702D01*
X0497890Y0307327D01*
X0497890Y0306764D01*
X0497703Y0306389D01*
X0497328Y0306202D01*
X0497140Y0306202D01*
X0496765Y0306389D01*
X0496578Y0306764D01*
X0496578Y0307327D01*
X0496765Y0307702D01*
X0499202Y0310139D02*
X0499015Y0309764D01*
X0498827Y0309576D01*
X0498453Y0309389D01*
X0497328Y0309389D01*
X0496953Y0309576D01*
X0496765Y0309764D01*
X0496578Y0310139D01*
X0496578Y0310701D01*
X0496765Y0311076D01*
X0496953Y0311264D01*
X0497328Y0311451D01*
X0498453Y0311451D01*
X0498827Y0311264D01*
X0499015Y0311076D01*
X0499202Y0310701D01*
X0499202Y0310139D01*
X0499202Y0313138D02*
X0496578Y0313138D01*
X0497328Y0313138D02*
X0496953Y0313326D01*
X0496765Y0313513D01*
X0496578Y0313888D01*
X0496578Y0314263D01*
X0495453Y0320637D02*
X0495265Y0320262D01*
X0495265Y0319700D01*
X0495453Y0319138D01*
X0495828Y0318763D01*
X0496203Y0318575D01*
X0496953Y0318388D01*
X0497515Y0318388D01*
X0498265Y0318575D01*
X0498640Y0318763D01*
X0499015Y0319138D01*
X0499202Y0319700D01*
X0499202Y0320075D01*
X0499015Y0320637D01*
X0498827Y0320825D01*
X0497515Y0320825D01*
X0497515Y0320075D01*
X0499202Y0322512D02*
X0495265Y0322512D01*
X0499202Y0324762D01*
X0495265Y0324762D01*
X0499202Y0326637D02*
X0495265Y0326637D01*
X0495265Y0327574D01*
X0495453Y0328136D01*
X0495828Y0328511D01*
X0496203Y0328699D01*
X0496953Y0328886D01*
X0497515Y0328886D01*
X0498265Y0328699D01*
X0498640Y0328511D01*
X0499015Y0328136D01*
X0499202Y0327574D01*
X0499202Y0326637D01*
X0090702Y0370675D02*
X0090702Y0371425D01*
X0090515Y0371800D01*
X0090327Y0371988D01*
X0089765Y0372363D01*
X0089015Y0372550D01*
X0087515Y0372550D01*
X0087140Y0372363D01*
X0086953Y0372175D01*
X0086765Y0371800D01*
X0086765Y0371050D01*
X0086953Y0370675D01*
X0087140Y0370488D01*
X0087515Y0370300D01*
X0088453Y0370300D01*
X0088828Y0370488D01*
X0089015Y0370675D01*
X0089203Y0371050D01*
X0089203Y0371800D01*
X0089015Y0372175D01*
X0088828Y0372363D01*
X0088453Y0372550D01*
X0446335Y0342272D02*
X0446147Y0341897D01*
X0446147Y0341335D01*
X0446335Y0340772D01*
X0446710Y0340397D01*
X0447085Y0340210D01*
X0447835Y0340022D01*
X0448397Y0340022D01*
X0449147Y0340210D01*
X0449522Y0340397D01*
X0449897Y0340772D01*
X0450084Y0341335D01*
X0450084Y0341710D01*
X0449897Y0342272D01*
X0449709Y0342460D01*
X0448397Y0342460D01*
X0448397Y0341710D01*
X0450084Y0344147D02*
X0446147Y0344147D01*
X0450084Y0346397D01*
X0446147Y0346397D01*
X0450084Y0348271D02*
X0446147Y0348271D01*
X0446147Y0349209D01*
X0446335Y0349771D01*
X0446710Y0350146D01*
X0447085Y0350334D01*
X0447835Y0350521D01*
X0448397Y0350521D01*
X0449147Y0350334D01*
X0449522Y0350146D01*
X0449897Y0349771D01*
X0450084Y0349209D01*
X0450084Y0348271D01*
X0459265Y0352426D02*
X0459265Y0354675D01*
X0463202Y0353551D02*
X0459265Y0353551D01*
X0459640Y0355800D02*
X0459453Y0355988D01*
X0459265Y0356363D01*
X0459265Y0357300D01*
X0459453Y0357675D01*
X0459640Y0357863D01*
X0460015Y0358050D01*
X0460390Y0358050D01*
X0460953Y0357863D01*
X0463202Y0355613D01*
X0463202Y0358050D01*
X0297671Y0450581D02*
X0296921Y0450581D01*
X0296546Y0450394D01*
X0296359Y0450206D01*
X0295984Y0449644D01*
X0295797Y0448894D01*
X0295797Y0447394D01*
X0295984Y0447019D01*
X0296172Y0446832D01*
X0296546Y0446644D01*
X0297296Y0446644D01*
X0297671Y0446832D01*
X0297859Y0447019D01*
X0298046Y0447394D01*
X0298046Y0448332D01*
X0297859Y0448707D01*
X0297671Y0448894D01*
X0297296Y0449082D01*
X0296546Y0449082D01*
X0296172Y0448894D01*
X0295984Y0448707D01*
X0295797Y0448332D01*
X0474765Y0375926D02*
X0474765Y0378175D01*
X0478702Y0377051D02*
X0474765Y0377051D01*
X0474765Y0379113D02*
X0474765Y0381550D01*
X0476265Y0380238D01*
X0476265Y0380800D01*
X0476453Y0381175D01*
X0476640Y0381363D01*
X0477015Y0381550D01*
X0477953Y0381550D01*
X0478327Y0381363D01*
X0478515Y0381175D01*
X0478702Y0380800D01*
X0478702Y0379675D01*
X0478515Y0379300D01*
X0478327Y0379113D01*
X0342390Y0435019D02*
X0342203Y0434832D01*
X0341641Y0434644D01*
X0341266Y0434644D01*
X0340703Y0434832D01*
X0340328Y0435207D01*
X0340141Y0435582D01*
X0339953Y0436332D01*
X0339953Y0436894D01*
X0340141Y0437644D01*
X0340328Y0438019D01*
X0340703Y0438394D01*
X0341266Y0438581D01*
X0341641Y0438581D01*
X0342203Y0438394D01*
X0342390Y0438206D01*
X0343890Y0435769D02*
X0345765Y0435769D01*
X0343515Y0434644D02*
X0344828Y0438581D01*
X0346140Y0434644D01*
X0347452Y0434644D02*
X0347452Y0438581D01*
X0349702Y0434644D01*
X0349702Y0438581D01*
X0090242Y0401609D02*
X0090242Y0399359D01*
X0090242Y0400484D02*
X0086305Y0400484D01*
X0086867Y0400109D01*
X0087242Y0399734D01*
X0087430Y0399359D01*
X0090242Y0405358D02*
X0090242Y0403108D01*
X0090242Y0404233D02*
X0086305Y0404233D01*
X0086867Y0403858D01*
X0087242Y0403483D01*
X0087430Y0403108D01*
X0460265Y0318863D02*
X0464202Y0320176D01*
X0460265Y0321488D01*
X0464202Y0324863D02*
X0464202Y0322613D01*
X0464202Y0323738D02*
X0460265Y0323738D01*
X0460828Y0323363D01*
X0461203Y0322988D01*
X0461390Y0322613D01*
X0460265Y0327300D02*
X0460265Y0327675D01*
X0460453Y0328050D01*
X0460640Y0328237D01*
X0461015Y0328425D01*
X0461765Y0328612D01*
X0462703Y0328612D01*
X0463453Y0328425D01*
X0463827Y0328237D01*
X0464015Y0328050D01*
X0464202Y0327675D01*
X0464202Y0327300D01*
X0464015Y0326925D01*
X0463827Y0326738D01*
X0463453Y0326550D01*
X0462703Y0326363D01*
X0461765Y0326363D01*
X0461015Y0326550D01*
X0460640Y0326738D01*
X0460453Y0326925D01*
X0460265Y0327300D01*
X0206168Y0457561D02*
X0207480Y0457561D01*
X0208043Y0455499D02*
X0206168Y0455499D01*
X0206168Y0459436D01*
X0208043Y0459436D01*
X0209168Y0459436D02*
X0211417Y0459436D01*
X0210292Y0455499D02*
X0210292Y0459436D01*
X0214042Y0457561D02*
X0214604Y0457373D01*
X0214792Y0457186D01*
X0214979Y0456811D01*
X0214979Y0456249D01*
X0214792Y0455874D01*
X0214604Y0455686D01*
X0214229Y0455499D01*
X0212730Y0455499D01*
X0212730Y0459436D01*
X0214042Y0459436D01*
X0214417Y0459248D01*
X0214604Y0459061D01*
X0214792Y0458686D01*
X0214792Y0458311D01*
X0214604Y0457936D01*
X0214417Y0457748D01*
X0214042Y0457561D01*
X0212730Y0457561D01*
X0219479Y0459061D02*
X0219666Y0459248D01*
X0220041Y0459436D01*
X0220979Y0459436D01*
X0221354Y0459248D01*
X0221541Y0459061D01*
X0221729Y0458686D01*
X0221729Y0458311D01*
X0221541Y0457748D01*
X0219291Y0455499D01*
X0221729Y0455499D01*
X0459265Y0257238D02*
X0463202Y0258551D01*
X0459265Y0259863D01*
X0459640Y0260988D02*
X0459453Y0261175D01*
X0459265Y0261550D01*
X0459265Y0262488D01*
X0459453Y0262863D01*
X0459640Y0263050D01*
X0460015Y0263238D01*
X0460390Y0263238D01*
X0460953Y0263050D01*
X0463202Y0260800D01*
X0463202Y0263238D01*
X0474265Y0328238D02*
X0478202Y0329551D01*
X0474265Y0330863D01*
X0478202Y0332363D02*
X0478202Y0333113D01*
X0478015Y0333488D01*
X0477827Y0333675D01*
X0477265Y0334050D01*
X0476515Y0334238D01*
X0475015Y0334238D01*
X0474640Y0334050D01*
X0474453Y0333863D01*
X0474265Y0333488D01*
X0474265Y0332738D01*
X0474453Y0332363D01*
X0474640Y0332175D01*
X0475015Y0331988D01*
X0475953Y0331988D01*
X0476328Y0332175D01*
X0476515Y0332363D01*
X0476703Y0332738D01*
X0476703Y0333488D01*
X0476515Y0333863D01*
X0476328Y0334050D01*
X0475953Y0334238D01*
X0474765Y0280738D02*
X0478702Y0282051D01*
X0474765Y0283363D01*
X0474765Y0284300D02*
X0474765Y0286738D01*
X0476265Y0285425D01*
X0476265Y0285988D01*
X0476453Y0286363D01*
X0476640Y0286550D01*
X0477015Y0286738D01*
X0477953Y0286738D01*
X0478327Y0286550D01*
X0478515Y0286363D01*
X0478702Y0285988D01*
X0478702Y0284863D01*
X0478515Y0284488D01*
X0478327Y0284300D01*
D58*
X0213334Y0424058D02*
X0210134Y0424058D01*
X0212419Y0425124D01*
X0210134Y0426191D01*
X0213334Y0426191D01*
X0213334Y0429086D02*
X0211657Y0429086D01*
X0211353Y0428934D01*
X0211200Y0428629D01*
X0211200Y0428020D01*
X0211353Y0427715D01*
X0213181Y0429086D02*
X0213334Y0428781D01*
X0213334Y0428020D01*
X0213181Y0427715D01*
X0212876Y0427562D01*
X0212572Y0427562D01*
X0212267Y0427715D01*
X0212115Y0428020D01*
X0212115Y0428781D01*
X0211962Y0429086D01*
X0213334Y0430610D02*
X0211200Y0430610D01*
X0210134Y0430610D02*
X0210286Y0430458D01*
X0210438Y0430610D01*
X0210286Y0430762D01*
X0210134Y0430610D01*
X0210438Y0430610D01*
X0211200Y0432134D02*
X0213334Y0432134D01*
X0211505Y0432134D02*
X0211353Y0432286D01*
X0211200Y0432591D01*
X0211200Y0433048D01*
X0211353Y0433353D01*
X0211657Y0433505D01*
X0213334Y0433505D01*
X0213334Y0439296D02*
X0211810Y0438229D01*
X0213334Y0437467D02*
X0210134Y0437467D01*
X0210134Y0438686D01*
X0210286Y0438991D01*
X0210438Y0439143D01*
X0210743Y0439296D01*
X0211200Y0439296D01*
X0211505Y0439143D01*
X0211657Y0438991D01*
X0211810Y0438686D01*
X0211810Y0437467D01*
X0213334Y0441124D02*
X0213181Y0440820D01*
X0212876Y0440667D01*
X0210134Y0440667D01*
X0211200Y0442039D02*
X0213334Y0442800D01*
X0211200Y0443562D02*
X0213334Y0442800D01*
X0214096Y0442496D01*
X0214248Y0442343D01*
X0214400Y0442039D01*
D57*
X0055202Y0266175D02*
X0055202Y0263926D01*
X0055202Y0265051D02*
X0051265Y0265051D01*
X0051828Y0264676D01*
X0052203Y0264301D01*
X0052390Y0263926D01*
X0051265Y0269738D02*
X0051265Y0267863D01*
X0053140Y0267675D01*
X0052953Y0267863D01*
X0052765Y0268238D01*
X0052765Y0269175D01*
X0052953Y0269550D01*
X0053140Y0269738D01*
X0053515Y0269925D01*
X0054453Y0269925D01*
X0054827Y0269738D01*
X0055015Y0269550D01*
X0055202Y0269175D01*
X0055202Y0268238D01*
X0055015Y0267863D01*
X0054827Y0267675D01*
D59*
X0055146Y0500371D02*
X0056646Y0500371D01*
X0057396Y0499996D01*
X0058146Y0499246D01*
X0058521Y0497746D01*
X0058521Y0495122D01*
X0058146Y0493622D01*
X0057396Y0492872D01*
X0056646Y0492497D01*
X0055146Y0492497D01*
X0054396Y0492872D01*
X0053646Y0493622D01*
X0053271Y0495122D01*
X0053271Y0497746D01*
X0053646Y0499246D01*
X0054396Y0499996D01*
X0055146Y0500371D01*
X0061895Y0500371D02*
X0061895Y0493997D01*
X0062270Y0493247D01*
X0062645Y0492872D01*
X0063395Y0492497D01*
X0064895Y0492497D01*
X0065645Y0492872D01*
X0066020Y0493247D01*
X0066395Y0493997D01*
X0066395Y0500371D01*
X0069019Y0500371D02*
X0073519Y0500371D01*
X0071269Y0492497D02*
X0071269Y0500371D01*
X0076144Y0492497D02*
X0076144Y0500371D01*
X0079143Y0500371D01*
X0079893Y0499996D01*
X0080268Y0499621D01*
X0080643Y0498871D01*
X0080643Y0497746D01*
X0080268Y0496997D01*
X0079893Y0496622D01*
X0079143Y0496247D01*
X0076144Y0496247D01*
X0084018Y0500371D02*
X0084018Y0493997D01*
X0084393Y0493247D01*
X0084767Y0492872D01*
X0085517Y0492497D01*
X0087017Y0492497D01*
X0087767Y0492872D01*
X0088142Y0493247D01*
X0088517Y0493997D01*
X0088517Y0500371D01*
X0091142Y0500371D02*
X0095641Y0500371D01*
X0093391Y0492497D02*
X0093391Y0500371D01*
X0097891Y0492872D02*
X0099016Y0492497D01*
X0100890Y0492497D01*
X0101640Y0492872D01*
X0102015Y0493247D01*
X0102390Y0493997D01*
X0102390Y0494747D01*
X0102015Y0495497D01*
X0101640Y0495872D01*
X0100890Y0496247D01*
X0099391Y0496622D01*
X0098641Y0496997D01*
X0098266Y0497372D01*
X0097891Y0498121D01*
X0097891Y0498871D01*
X0098266Y0499621D01*
X0098641Y0499996D01*
X0099391Y0500371D01*
X0101265Y0500371D01*
X0102390Y0499996D01*
D57*
X0103431Y0339329D02*
X0099494Y0339329D01*
X0100806Y0342891D02*
X0103993Y0342891D01*
X0104368Y0342703D01*
X0104556Y0342516D01*
X0104743Y0342141D01*
X0104743Y0341579D01*
X0104556Y0341204D01*
X0103243Y0342891D02*
X0103431Y0342516D01*
X0103431Y0341766D01*
X0103243Y0341391D01*
X0103056Y0341204D01*
X0102681Y0341016D01*
X0101556Y0341016D01*
X0101181Y0341204D01*
X0100994Y0341391D01*
X0100806Y0341766D01*
X0100806Y0342516D01*
X0100994Y0342891D01*
X0100806Y0344766D02*
X0103431Y0344766D01*
X0101181Y0344766D02*
X0100994Y0344953D01*
X0100806Y0345328D01*
X0100806Y0345890D01*
X0100994Y0346265D01*
X0101369Y0346453D01*
X0103431Y0346453D01*
X0103431Y0348328D02*
X0100806Y0348328D01*
X0099494Y0348328D02*
X0099681Y0348140D01*
X0099869Y0348328D01*
X0099681Y0348515D01*
X0099494Y0348328D01*
X0099869Y0348328D01*
X0100806Y0349640D02*
X0100806Y0351140D01*
X0099494Y0350202D02*
X0102868Y0350202D01*
X0103243Y0350390D01*
X0103431Y0350765D01*
X0103431Y0351140D01*
X0103431Y0352452D02*
X0100806Y0352452D01*
X0099494Y0352452D02*
X0099681Y0352265D01*
X0099869Y0352452D01*
X0099681Y0352640D01*
X0099494Y0352452D01*
X0099869Y0352452D01*
X0103431Y0354889D02*
X0103243Y0354514D01*
X0103056Y0354327D01*
X0102681Y0354139D01*
X0101556Y0354139D01*
X0101181Y0354327D01*
X0100994Y0354514D01*
X0100806Y0354889D01*
X0100806Y0355452D01*
X0100994Y0355827D01*
X0101181Y0356014D01*
X0101556Y0356202D01*
X0102681Y0356202D01*
X0103056Y0356014D01*
X0103243Y0355827D01*
X0103431Y0355452D01*
X0103431Y0354889D01*
X0100806Y0357889D02*
X0103431Y0357889D01*
X0101181Y0357889D02*
X0100994Y0358076D01*
X0100806Y0358451D01*
X0100806Y0359014D01*
X0100994Y0359389D01*
X0101369Y0359576D01*
X0103431Y0359576D01*
X0099494Y0365201D02*
X0099494Y0365950D01*
X0099681Y0366325D01*
X0100056Y0366700D01*
X0100806Y0366888D01*
X0102118Y0366888D01*
X0102868Y0366700D01*
X0103243Y0366325D01*
X0103431Y0365950D01*
X0103431Y0365201D01*
X0103243Y0364826D01*
X0102868Y0364451D01*
X0102118Y0364263D01*
X0100806Y0364263D01*
X0100056Y0364451D01*
X0099681Y0364826D01*
X0099494Y0365201D01*
X0100806Y0370262D02*
X0103431Y0370262D01*
X0100806Y0368575D02*
X0102868Y0368575D01*
X0103243Y0368763D01*
X0103431Y0369138D01*
X0103431Y0369700D01*
X0103243Y0370075D01*
X0103056Y0370262D01*
X0100806Y0371575D02*
X0100806Y0373075D01*
X0099494Y0372137D02*
X0102868Y0372137D01*
X0103243Y0372325D01*
X0103431Y0372700D01*
X0103431Y0373075D01*
X0100806Y0374387D02*
X0104743Y0374387D01*
X0100994Y0374387D02*
X0100806Y0374762D01*
X0100806Y0375512D01*
X0100994Y0375887D01*
X0101181Y0376074D01*
X0101556Y0376262D01*
X0102681Y0376262D01*
X0103056Y0376074D01*
X0103243Y0375887D01*
X0103431Y0375512D01*
X0103431Y0374762D01*
X0103243Y0374387D01*
X0100806Y0379636D02*
X0103431Y0379636D01*
X0100806Y0377949D02*
X0102868Y0377949D01*
X0103243Y0378136D01*
X0103431Y0378511D01*
X0103431Y0379074D01*
X0103243Y0379449D01*
X0103056Y0379636D01*
X0100806Y0380949D02*
X0100806Y0382448D01*
X0099494Y0381511D02*
X0102868Y0381511D01*
X0103243Y0381699D01*
X0103431Y0382073D01*
X0103431Y0382448D01*
X0103243Y0383573D02*
X0103431Y0383948D01*
X0103431Y0384698D01*
X0103243Y0385073D01*
X0102868Y0385261D01*
X0102681Y0385261D01*
X0102306Y0385073D01*
X0102118Y0384698D01*
X0102118Y0384136D01*
X0101931Y0383761D01*
X0101556Y0383573D01*
X0101369Y0383573D01*
X0100994Y0383761D01*
X0100806Y0384136D01*
X0100806Y0384698D01*
X0100994Y0385073D01*
X0067578Y0386675D02*
X0070202Y0386675D01*
X0066078Y0385738D02*
X0068890Y0384800D01*
X0068890Y0387238D01*
X0214922Y0461644D02*
X0217921Y0461644D01*
X0093702Y0261550D02*
X0093702Y0259300D01*
X0093702Y0260425D02*
X0089765Y0260425D01*
X0090328Y0260050D01*
X0090703Y0259675D01*
X0090890Y0259300D01*
D60*
X0272821Y0434487D02*
X0272669Y0434182D01*
X0272669Y0433725D01*
X0272821Y0433268D01*
X0273126Y0432963D01*
X0273431Y0432811D01*
X0274040Y0432659D01*
X0274498Y0432659D01*
X0275107Y0432811D01*
X0275412Y0432963D01*
X0275717Y0433268D01*
X0275869Y0433725D01*
X0275869Y0434030D01*
X0275717Y0434487D01*
X0275564Y0434640D01*
X0274498Y0434640D01*
X0274498Y0434030D01*
X0275869Y0436011D02*
X0272669Y0436011D01*
X0275869Y0437840D01*
X0272669Y0437840D01*
X0275869Y0439363D02*
X0272669Y0439363D01*
X0272669Y0440125D01*
X0272821Y0440582D01*
X0273126Y0440887D01*
X0273431Y0441040D01*
X0274040Y0441192D01*
X0274498Y0441192D01*
X0275107Y0441040D01*
X0275412Y0440887D01*
X0275717Y0440582D01*
X0275869Y0440125D01*
X0275869Y0439363D01*
D57*
X0474265Y0311738D02*
X0478202Y0313051D01*
X0474265Y0314363D01*
X0474265Y0315300D02*
X0474265Y0317925D01*
X0478202Y0316238D01*
X0090202Y0385175D02*
X0090202Y0382926D01*
X0090202Y0384051D02*
X0086265Y0384051D01*
X0086828Y0383676D01*
X0087203Y0383301D01*
X0087390Y0382926D01*
X0086265Y0387613D02*
X0086265Y0387988D01*
X0086453Y0388363D01*
X0086640Y0388550D01*
X0087015Y0388738D01*
X0087765Y0388925D01*
X0088703Y0388925D01*
X0089453Y0388738D01*
X0089827Y0388550D01*
X0090015Y0388363D01*
X0090202Y0387988D01*
X0090202Y0387613D01*
X0090015Y0387238D01*
X0089827Y0387050D01*
X0089453Y0386863D01*
X0088703Y0386675D01*
X0087765Y0386675D01*
X0087015Y0386863D01*
X0086640Y0387050D01*
X0086453Y0387238D01*
X0086265Y0387613D01*
X0055202Y0314175D02*
X0055202Y0311926D01*
X0055202Y0313051D02*
X0051265Y0313051D01*
X0051828Y0312676D01*
X0052203Y0312301D01*
X0052390Y0311926D01*
X0055202Y0317925D02*
X0055202Y0315675D01*
X0055202Y0316800D02*
X0051265Y0316800D01*
X0051828Y0316425D01*
X0052203Y0316050D01*
X0052390Y0315675D01*
X0459765Y0368926D02*
X0459765Y0371175D01*
X0463702Y0370051D02*
X0459765Y0370051D01*
X0461078Y0374175D02*
X0463702Y0374175D01*
X0459578Y0373238D02*
X0462390Y0372300D01*
X0462390Y0374738D01*
X0260733Y0486207D02*
X0262045Y0482270D01*
X0263358Y0486207D01*
X0266920Y0482270D02*
X0265607Y0484145D01*
X0264670Y0482270D02*
X0264670Y0486207D01*
X0266170Y0486207D01*
X0266545Y0486020D01*
X0266732Y0485832D01*
X0266920Y0485457D01*
X0266920Y0484895D01*
X0266732Y0484520D01*
X0266545Y0484333D01*
X0266170Y0484145D01*
X0264670Y0484145D01*
X0271419Y0482458D02*
X0271982Y0482270D01*
X0272919Y0482270D01*
X0273294Y0482458D01*
X0273481Y0482645D01*
X0273669Y0483020D01*
X0273669Y0483395D01*
X0273481Y0483770D01*
X0273294Y0483958D01*
X0272919Y0484145D01*
X0272169Y0484333D01*
X0271794Y0484520D01*
X0271607Y0484708D01*
X0271419Y0485082D01*
X0271419Y0485457D01*
X0271607Y0485832D01*
X0271794Y0486020D01*
X0272169Y0486207D01*
X0273106Y0486207D01*
X0273669Y0486020D01*
X0276856Y0482458D02*
X0276481Y0482270D01*
X0275731Y0482270D01*
X0275356Y0482458D01*
X0275169Y0482833D01*
X0275169Y0484333D01*
X0275356Y0484708D01*
X0275731Y0484895D01*
X0276481Y0484895D01*
X0276856Y0484708D01*
X0277043Y0484333D01*
X0277043Y0483958D01*
X0275169Y0483583D01*
X0278731Y0484895D02*
X0278731Y0482270D01*
X0278731Y0484520D02*
X0278918Y0484708D01*
X0279293Y0484895D01*
X0279856Y0484895D01*
X0280231Y0484708D01*
X0280418Y0484333D01*
X0280418Y0482270D01*
X0282105Y0482458D02*
X0282480Y0482270D01*
X0283230Y0482270D01*
X0283605Y0482458D01*
X0283793Y0482833D01*
X0283793Y0483020D01*
X0283605Y0483395D01*
X0283230Y0483583D01*
X0282668Y0483583D01*
X0282293Y0483770D01*
X0282105Y0484145D01*
X0282105Y0484333D01*
X0282293Y0484708D01*
X0282668Y0484895D01*
X0283230Y0484895D01*
X0283605Y0484708D01*
X0286042Y0482270D02*
X0285667Y0482458D01*
X0285480Y0482645D01*
X0285292Y0483020D01*
X0285292Y0484145D01*
X0285480Y0484520D01*
X0285667Y0484708D01*
X0286042Y0484895D01*
X0286605Y0484895D01*
X0286980Y0484708D01*
X0287167Y0484520D01*
X0287355Y0484145D01*
X0287355Y0483020D01*
X0287167Y0482645D01*
X0286980Y0482458D01*
X0286605Y0482270D01*
X0286042Y0482270D01*
X0289042Y0482270D02*
X0289042Y0484895D01*
X0289042Y0484145D02*
X0289229Y0484520D01*
X0289417Y0484708D01*
X0289792Y0484895D01*
X0290167Y0484895D01*
X0291292Y0482458D02*
X0291667Y0482270D01*
X0292417Y0482270D01*
X0292791Y0482458D01*
X0292979Y0482833D01*
X0292979Y0483020D01*
X0292791Y0483395D01*
X0292417Y0483583D01*
X0291854Y0483583D01*
X0291479Y0483770D01*
X0291292Y0484145D01*
X0291292Y0484333D01*
X0291479Y0484708D01*
X0291854Y0484895D01*
X0292417Y0484895D01*
X0292791Y0484708D01*
X0051265Y0392613D02*
X0051265Y0395050D01*
X0052765Y0393738D01*
X0052765Y0394300D01*
X0052953Y0394675D01*
X0053140Y0394863D01*
X0053515Y0395050D01*
X0054453Y0395050D01*
X0054827Y0394863D01*
X0055015Y0394675D01*
X0055202Y0394300D01*
X0055202Y0393175D01*
X0055015Y0392800D01*
X0054827Y0392613D01*
X0070702Y0306175D02*
X0070702Y0303926D01*
X0070702Y0305051D02*
X0066765Y0305051D01*
X0067328Y0304676D01*
X0067703Y0304301D01*
X0067890Y0303926D01*
X0067140Y0307675D02*
X0066953Y0307863D01*
X0066765Y0308238D01*
X0066765Y0309175D01*
X0066953Y0309550D01*
X0067140Y0309738D01*
X0067515Y0309925D01*
X0067890Y0309925D01*
X0068453Y0309738D01*
X0070702Y0307488D01*
X0070702Y0309925D01*
X0319609Y0475081D02*
X0322046Y0475081D01*
X0320734Y0473582D01*
X0321296Y0473582D01*
X0321671Y0473394D01*
X0321859Y0473207D01*
X0322046Y0472832D01*
X0322046Y0471894D01*
X0321859Y0471519D01*
X0321671Y0471332D01*
X0321296Y0471144D01*
X0320172Y0471144D01*
X0319797Y0471332D01*
X0319609Y0471519D01*
X0054584Y0455321D02*
X0054584Y0459258D01*
X0054584Y0457384D02*
X0056833Y0457384D01*
X0056833Y0455321D02*
X0056833Y0459258D01*
X0058708Y0455321D02*
X0058708Y0457946D01*
X0058708Y0459258D02*
X0058521Y0459071D01*
X0058708Y0458884D01*
X0058896Y0459071D01*
X0058708Y0459258D01*
X0058708Y0458884D01*
X0062270Y0457946D02*
X0062270Y0454759D01*
X0062083Y0454384D01*
X0061895Y0454197D01*
X0061520Y0454009D01*
X0060958Y0454009D01*
X0060583Y0454197D01*
X0062270Y0455509D02*
X0061895Y0455321D01*
X0061145Y0455321D01*
X0060770Y0455509D01*
X0060583Y0455696D01*
X0060396Y0456071D01*
X0060396Y0457196D01*
X0060583Y0457571D01*
X0060770Y0457759D01*
X0061145Y0457946D01*
X0061895Y0457946D01*
X0062270Y0457759D01*
X0064145Y0455321D02*
X0064145Y0459258D01*
X0065832Y0455321D02*
X0065832Y0457384D01*
X0065645Y0457759D01*
X0065270Y0457946D01*
X0064708Y0457946D01*
X0064333Y0457759D01*
X0064145Y0457571D01*
X0070519Y0455509D02*
X0071082Y0455321D01*
X0072019Y0455321D01*
X0072394Y0455509D01*
X0072582Y0455696D01*
X0072769Y0456071D01*
X0072769Y0456446D01*
X0072582Y0456821D01*
X0072394Y0457009D01*
X0072019Y0457196D01*
X0071269Y0457384D01*
X0070894Y0457571D01*
X0070707Y0457759D01*
X0070519Y0458134D01*
X0070519Y0458509D01*
X0070707Y0458884D01*
X0070894Y0459071D01*
X0071269Y0459258D01*
X0072207Y0459258D01*
X0072769Y0459071D01*
X0074456Y0455321D02*
X0074456Y0457946D01*
X0074456Y0459258D02*
X0074269Y0459071D01*
X0074456Y0458884D01*
X0074644Y0459071D01*
X0074456Y0459258D01*
X0074456Y0458884D01*
X0078018Y0455321D02*
X0078018Y0459258D01*
X0078018Y0455509D02*
X0077643Y0455321D01*
X0076893Y0455321D01*
X0076519Y0455509D01*
X0076331Y0455696D01*
X0076144Y0456071D01*
X0076144Y0457196D01*
X0076331Y0457571D01*
X0076519Y0457759D01*
X0076893Y0457946D01*
X0077643Y0457946D01*
X0078018Y0457759D01*
X0081393Y0455509D02*
X0081018Y0455321D01*
X0080268Y0455321D01*
X0079893Y0455509D01*
X0079706Y0455884D01*
X0079706Y0457384D01*
X0079893Y0457759D01*
X0080268Y0457946D01*
X0081018Y0457946D01*
X0081393Y0457759D01*
X0081580Y0457384D01*
X0081580Y0457009D01*
X0079706Y0456634D01*
X0058427Y0452920D02*
X0059177Y0452920D01*
X0059552Y0452732D01*
X0059927Y0452357D01*
X0060114Y0451608D01*
X0060114Y0450295D01*
X0059927Y0449545D01*
X0059552Y0449170D01*
X0059177Y0448983D01*
X0058427Y0448983D01*
X0058052Y0449170D01*
X0057677Y0449545D01*
X0057490Y0450295D01*
X0057490Y0451608D01*
X0057677Y0452357D01*
X0058052Y0452732D01*
X0058427Y0452920D01*
X0063489Y0451608D02*
X0063489Y0448983D01*
X0061802Y0451608D02*
X0061802Y0449545D01*
X0061989Y0449170D01*
X0062364Y0448983D01*
X0062926Y0448983D01*
X0063301Y0449170D01*
X0063489Y0449358D01*
X0064801Y0451608D02*
X0066301Y0451608D01*
X0065364Y0452920D02*
X0065364Y0449545D01*
X0065551Y0449170D01*
X0065926Y0448983D01*
X0066301Y0448983D01*
X0067613Y0451608D02*
X0067613Y0447671D01*
X0067613Y0451420D02*
X0067988Y0451608D01*
X0068738Y0451608D01*
X0069113Y0451420D01*
X0069301Y0451233D01*
X0069488Y0450858D01*
X0069488Y0449733D01*
X0069301Y0449358D01*
X0069113Y0449170D01*
X0068738Y0448983D01*
X0067988Y0448983D01*
X0067613Y0449170D01*
X0072863Y0451608D02*
X0072863Y0448983D01*
X0071175Y0451608D02*
X0071175Y0449545D01*
X0071363Y0449170D01*
X0071738Y0448983D01*
X0072300Y0448983D01*
X0072675Y0449170D01*
X0072863Y0449358D01*
X0074175Y0451608D02*
X0075675Y0451608D01*
X0074738Y0452920D02*
X0074738Y0449545D01*
X0074925Y0449170D01*
X0075300Y0448983D01*
X0075675Y0448983D01*
X0076800Y0449170D02*
X0077175Y0448983D01*
X0077925Y0448983D01*
X0078300Y0449170D01*
X0078487Y0449545D01*
X0078487Y0449733D01*
X0078300Y0450108D01*
X0077925Y0450295D01*
X0077362Y0450295D01*
X0076987Y0450483D01*
X0076800Y0450858D01*
X0076800Y0451045D01*
X0076987Y0451420D01*
X0077362Y0451608D01*
X0077925Y0451608D01*
X0078300Y0451420D01*
X0066640Y0400800D02*
X0066453Y0400988D01*
X0066265Y0401363D01*
X0066265Y0402300D01*
X0066453Y0402675D01*
X0066640Y0402863D01*
X0067015Y0403050D01*
X0067390Y0403050D01*
X0067953Y0402863D01*
X0070202Y0400613D01*
X0070202Y0403050D01*
X0086765Y0324675D02*
X0086765Y0323925D01*
X0086953Y0323550D01*
X0087140Y0323363D01*
X0087703Y0322988D01*
X0088453Y0322800D01*
X0089953Y0322800D01*
X0090327Y0322988D01*
X0090515Y0323175D01*
X0090702Y0323550D01*
X0090702Y0324300D01*
X0090515Y0324675D01*
X0090327Y0324863D01*
X0089953Y0325050D01*
X0089015Y0325050D01*
X0088640Y0324863D01*
X0088453Y0324675D01*
X0088265Y0324300D01*
X0088265Y0323550D01*
X0088453Y0323175D01*
X0088640Y0322988D01*
X0089015Y0322800D01*
X0263609Y0474644D02*
X0261359Y0474644D01*
X0262484Y0474644D02*
X0262484Y0478581D01*
X0262109Y0478019D01*
X0261734Y0477644D01*
X0261359Y0477456D01*
X0265296Y0476144D02*
X0268296Y0476144D01*
X0266796Y0474644D02*
X0266796Y0477644D01*
X0053281Y0442206D02*
X0053468Y0442394D01*
X0053843Y0442581D01*
X0054781Y0442581D01*
X0055156Y0442394D01*
X0055343Y0442206D01*
X0055531Y0441831D01*
X0055531Y0441456D01*
X0055343Y0440894D01*
X0053093Y0438644D01*
X0055531Y0438644D01*
D60*
X0229212Y0440478D02*
X0229212Y0443678D01*
X0230584Y0440478D02*
X0230584Y0442154D01*
X0230431Y0442459D01*
X0230126Y0442611D01*
X0229669Y0442611D01*
X0229364Y0442459D01*
X0229212Y0442306D01*
D57*
X0495360Y0382064D02*
X0495360Y0380189D01*
X0497235Y0380002D01*
X0497047Y0380189D01*
X0496860Y0380564D01*
X0496860Y0381502D01*
X0497047Y0381877D01*
X0497235Y0382064D01*
X0497610Y0382252D01*
X0498547Y0382252D01*
X0498922Y0382064D01*
X0499109Y0381877D01*
X0499297Y0381502D01*
X0499297Y0380564D01*
X0499109Y0380189D01*
X0498922Y0380002D01*
X0496672Y0383564D02*
X0499297Y0384501D01*
X0496672Y0385439D01*
X0499109Y0389751D02*
X0499297Y0390313D01*
X0499297Y0391250D01*
X0499109Y0391625D01*
X0498922Y0391813D01*
X0498547Y0392000D01*
X0498172Y0392000D01*
X0497797Y0391813D01*
X0497610Y0391625D01*
X0497422Y0391250D01*
X0497235Y0390501D01*
X0497047Y0390126D01*
X0496860Y0389938D01*
X0496485Y0389751D01*
X0496110Y0389751D01*
X0495735Y0389938D01*
X0495547Y0390126D01*
X0495360Y0390501D01*
X0495360Y0391438D01*
X0495547Y0392000D01*
X0499109Y0395187D02*
X0499297Y0394812D01*
X0499297Y0394063D01*
X0499109Y0393688D01*
X0498734Y0393500D01*
X0497235Y0393500D01*
X0496860Y0393688D01*
X0496672Y0394063D01*
X0496672Y0394812D01*
X0496860Y0395187D01*
X0497235Y0395375D01*
X0497610Y0395375D01*
X0497985Y0393500D01*
X0496672Y0397062D02*
X0499297Y0397062D01*
X0497047Y0397062D02*
X0496860Y0397250D01*
X0496672Y0397625D01*
X0496672Y0398187D01*
X0496860Y0398562D01*
X0497235Y0398750D01*
X0499297Y0398750D01*
X0499109Y0400437D02*
X0499297Y0400812D01*
X0499297Y0401562D01*
X0499109Y0401937D01*
X0498734Y0402124D01*
X0498547Y0402124D01*
X0498172Y0401937D01*
X0497985Y0401562D01*
X0497985Y0400999D01*
X0497797Y0400624D01*
X0497422Y0400437D01*
X0497235Y0400437D01*
X0496860Y0400624D01*
X0496672Y0400999D01*
X0496672Y0401562D01*
X0496860Y0401937D01*
X0499297Y0404374D02*
X0499109Y0403999D01*
X0498922Y0403811D01*
X0498547Y0403624D01*
X0497422Y0403624D01*
X0497047Y0403811D01*
X0496860Y0403999D01*
X0496672Y0404374D01*
X0496672Y0404936D01*
X0496860Y0405311D01*
X0497047Y0405499D01*
X0497422Y0405686D01*
X0498547Y0405686D01*
X0498922Y0405499D01*
X0499109Y0405311D01*
X0499297Y0404936D01*
X0499297Y0404374D01*
X0499297Y0407373D02*
X0496672Y0407373D01*
X0497422Y0407373D02*
X0497047Y0407561D01*
X0496860Y0407748D01*
X0496672Y0408123D01*
X0496672Y0408498D01*
X0499109Y0412623D02*
X0499297Y0413185D01*
X0499297Y0414123D01*
X0499109Y0414498D01*
X0498922Y0414685D01*
X0498547Y0414872D01*
X0498172Y0414872D01*
X0497797Y0414685D01*
X0497610Y0414498D01*
X0497422Y0414123D01*
X0497235Y0413373D01*
X0497047Y0412998D01*
X0496860Y0412810D01*
X0496485Y0412623D01*
X0496110Y0412623D01*
X0495735Y0412810D01*
X0495547Y0412998D01*
X0495360Y0413373D01*
X0495360Y0414310D01*
X0495547Y0414872D01*
X0496672Y0418247D02*
X0499297Y0418247D01*
X0496672Y0416560D02*
X0498734Y0416560D01*
X0499109Y0416747D01*
X0499297Y0417122D01*
X0499297Y0417685D01*
X0499109Y0418060D01*
X0498922Y0418247D01*
X0496672Y0420122D02*
X0500609Y0420122D01*
X0496860Y0420122D02*
X0496672Y0420497D01*
X0496672Y0421247D01*
X0496860Y0421622D01*
X0497047Y0421809D01*
X0497422Y0421997D01*
X0498547Y0421997D01*
X0498922Y0421809D01*
X0499109Y0421622D01*
X0499297Y0421247D01*
X0499297Y0420497D01*
X0499109Y0420122D01*
X0496672Y0423684D02*
X0500609Y0423684D01*
X0496860Y0423684D02*
X0496672Y0424059D01*
X0496672Y0424809D01*
X0496860Y0425184D01*
X0497047Y0425371D01*
X0497422Y0425559D01*
X0498547Y0425559D01*
X0498922Y0425371D01*
X0499109Y0425184D01*
X0499297Y0424809D01*
X0499297Y0424059D01*
X0499109Y0423684D01*
X0499297Y0427808D02*
X0499109Y0427433D01*
X0498734Y0427246D01*
X0495360Y0427246D01*
X0496672Y0428933D02*
X0499297Y0429871D01*
X0496672Y0430808D02*
X0499297Y0429871D01*
X0500234Y0429496D01*
X0500422Y0429308D01*
X0500609Y0428933D01*
X0278859Y0478206D02*
X0279047Y0478394D01*
X0279422Y0478581D01*
X0280359Y0478581D01*
X0280734Y0478394D01*
X0280922Y0478206D01*
X0281109Y0477831D01*
X0281109Y0477456D01*
X0280922Y0476894D01*
X0278672Y0474644D01*
X0281109Y0474644D01*
X0282796Y0476144D02*
X0285796Y0476144D01*
X0284296Y0474644D02*
X0284296Y0477644D01*
X0459265Y0273738D02*
X0463202Y0275051D01*
X0459265Y0276363D01*
X0460578Y0279363D02*
X0463202Y0279363D01*
X0459078Y0278425D02*
X0461890Y0277488D01*
X0461890Y0279925D01*
X0244422Y0474144D02*
X0247421Y0474144D01*
X0448702Y0426050D02*
X0448702Y0423800D01*
X0448702Y0424925D02*
X0444765Y0424925D01*
X0445328Y0424550D01*
X0445703Y0424175D01*
X0445890Y0423800D01*
X0068609Y0434581D02*
X0071046Y0434581D01*
X0069734Y0433082D01*
X0070296Y0433082D01*
X0070671Y0432894D01*
X0070859Y0432707D01*
X0071046Y0432332D01*
X0071046Y0431394D01*
X0070859Y0431019D01*
X0070671Y0430832D01*
X0070296Y0430644D01*
X0069172Y0430644D01*
X0068797Y0430832D01*
X0068609Y0431019D01*
X0474265Y0360926D02*
X0474265Y0363175D01*
X0478202Y0362051D02*
X0474265Y0362051D01*
X0478202Y0366550D02*
X0478202Y0364300D01*
X0478202Y0365425D02*
X0474265Y0365425D01*
X0474828Y0365050D01*
X0475203Y0364675D01*
X0475390Y0364300D01*
X0088453Y0354550D02*
X0088265Y0354175D01*
X0088078Y0353988D01*
X0087703Y0353800D01*
X0087515Y0353800D01*
X0087140Y0353988D01*
X0086953Y0354175D01*
X0086765Y0354550D01*
X0086765Y0355300D01*
X0086953Y0355675D01*
X0087140Y0355863D01*
X0087515Y0356050D01*
X0087703Y0356050D01*
X0088078Y0355863D01*
X0088265Y0355675D01*
X0088453Y0355300D01*
X0088453Y0354550D01*
X0088640Y0354175D01*
X0088828Y0353988D01*
X0089203Y0353800D01*
X0089953Y0353800D01*
X0090327Y0353988D01*
X0090515Y0354175D01*
X0090702Y0354550D01*
X0090702Y0355300D01*
X0090515Y0355675D01*
X0090327Y0355863D01*
X0089953Y0356050D01*
X0089203Y0356050D01*
X0088828Y0355863D01*
X0088640Y0355675D01*
X0088453Y0355300D01*
X0445140Y0439300D02*
X0444953Y0439488D01*
X0444765Y0439863D01*
X0444765Y0440800D01*
X0444953Y0441175D01*
X0445140Y0441363D01*
X0445515Y0441550D01*
X0445890Y0441550D01*
X0446453Y0441363D01*
X0448702Y0439113D01*
X0448702Y0441550D01*
X0474265Y0296238D02*
X0478202Y0297551D01*
X0474265Y0298863D01*
X0474265Y0302050D02*
X0474265Y0300175D01*
X0476140Y0299988D01*
X0475953Y0300175D01*
X0475765Y0300550D01*
X0475765Y0301488D01*
X0475953Y0301863D01*
X0476140Y0302050D01*
X0476515Y0302238D01*
X0477453Y0302238D01*
X0477827Y0302050D01*
X0478015Y0301863D01*
X0478202Y0301488D01*
X0478202Y0300550D01*
X0478015Y0300175D01*
X0477827Y0299988D01*
X0230235Y0480707D02*
X0231547Y0480707D01*
X0232110Y0478644D02*
X0230235Y0478644D01*
X0230235Y0482581D01*
X0232110Y0482581D01*
X0233234Y0482581D02*
X0235484Y0482581D01*
X0234359Y0478644D02*
X0234359Y0482581D01*
X0238109Y0480707D02*
X0238671Y0480519D01*
X0238859Y0480332D01*
X0239046Y0479957D01*
X0239046Y0479394D01*
X0238859Y0479019D01*
X0238671Y0478832D01*
X0238296Y0478644D01*
X0236797Y0478644D01*
X0236797Y0482581D01*
X0238109Y0482581D01*
X0238484Y0482394D01*
X0238671Y0482206D01*
X0238859Y0481831D01*
X0238859Y0481456D01*
X0238671Y0481082D01*
X0238484Y0480894D01*
X0238109Y0480707D01*
X0236797Y0480707D01*
X0245795Y0478644D02*
X0243546Y0478644D01*
X0244671Y0478644D02*
X0244671Y0482581D01*
X0244296Y0482019D01*
X0243921Y0481644D01*
X0243546Y0481456D01*
X0056546Y0426644D02*
X0054297Y0426644D01*
X0055421Y0426644D02*
X0055421Y0430581D01*
X0055046Y0430019D01*
X0054672Y0429644D01*
X0054297Y0429456D01*
X0081384Y0284314D02*
X0081384Y0286751D01*
X0082883Y0285439D01*
X0082883Y0286001D01*
X0083071Y0286376D01*
X0083258Y0286564D01*
X0083633Y0286751D01*
X0084571Y0286751D01*
X0084946Y0286564D01*
X0085133Y0286376D01*
X0085321Y0286001D01*
X0085321Y0284876D01*
X0085133Y0284501D01*
X0084946Y0284314D01*
X0071171Y0418269D02*
X0071171Y0415644D01*
X0070234Y0419769D02*
X0069297Y0416957D01*
X0071734Y0416957D01*
X0319078Y0430144D02*
X0319078Y0434081D01*
X0320765Y0430144D02*
X0320765Y0432207D01*
X0320578Y0432582D01*
X0320203Y0432769D01*
X0319640Y0432769D01*
X0319265Y0432582D01*
X0319078Y0432394D01*
X0099453Y0436926D02*
X0099265Y0436551D01*
X0099265Y0435988D01*
X0099453Y0435426D01*
X0099828Y0435051D01*
X0100203Y0434863D01*
X0100953Y0434676D01*
X0101515Y0434676D01*
X0102265Y0434863D01*
X0102640Y0435051D01*
X0103015Y0435426D01*
X0103202Y0435988D01*
X0103202Y0436363D01*
X0103015Y0436926D01*
X0102827Y0437113D01*
X0101515Y0437113D01*
X0101515Y0436363D01*
X0103202Y0438800D02*
X0099265Y0438800D01*
X0103202Y0441050D01*
X0099265Y0441050D01*
X0103202Y0442925D02*
X0099265Y0442925D01*
X0099265Y0443862D01*
X0099453Y0444425D01*
X0099828Y0444800D01*
X0100203Y0444987D01*
X0100953Y0445175D01*
X0101515Y0445175D01*
X0102265Y0444987D01*
X0102640Y0444800D01*
X0103015Y0444425D01*
X0103202Y0443862D01*
X0103202Y0442925D01*
X0459765Y0289238D02*
X0463702Y0290551D01*
X0459765Y0291863D01*
X0459765Y0294863D02*
X0459765Y0294113D01*
X0459953Y0293738D01*
X0460140Y0293550D01*
X0460703Y0293175D01*
X0461453Y0292988D01*
X0462953Y0292988D01*
X0463327Y0293175D01*
X0463515Y0293363D01*
X0463702Y0293738D01*
X0463702Y0294488D01*
X0463515Y0294863D01*
X0463327Y0295050D01*
X0462953Y0295238D01*
X0462015Y0295238D01*
X0461640Y0295050D01*
X0461453Y0294863D01*
X0461265Y0294488D01*
X0461265Y0293738D01*
X0461453Y0293363D01*
X0461640Y0293175D01*
X0462015Y0292988D01*
X0055202Y0282175D02*
X0055202Y0279926D01*
X0055202Y0281051D02*
X0051265Y0281051D01*
X0051828Y0280676D01*
X0052203Y0280301D01*
X0052390Y0279926D01*
X0052578Y0285550D02*
X0055202Y0285550D01*
X0051078Y0284613D02*
X0053890Y0283675D01*
X0053890Y0286112D01*
X0273359Y0462706D02*
X0273547Y0462894D01*
X0273922Y0463081D01*
X0274859Y0463081D01*
X0275234Y0462894D01*
X0275422Y0462706D01*
X0275609Y0462331D01*
X0275609Y0461956D01*
X0275422Y0461394D01*
X0273172Y0459144D01*
X0275609Y0459144D01*
X0277296Y0460644D02*
X0280296Y0460644D01*
X0088578Y0293175D02*
X0091202Y0293175D01*
X0087078Y0292238D02*
X0089890Y0291300D01*
X0089890Y0293738D01*
X0335797Y0474706D02*
X0335984Y0474894D01*
X0336359Y0475081D01*
X0337296Y0475081D01*
X0337671Y0474894D01*
X0337859Y0474706D01*
X0338046Y0474331D01*
X0338046Y0473956D01*
X0337859Y0473394D01*
X0335609Y0471144D01*
X0338046Y0471144D01*
X0055202Y0298175D02*
X0055202Y0295926D01*
X0055202Y0297051D02*
X0051265Y0297051D01*
X0051828Y0296676D01*
X0052203Y0296301D01*
X0052390Y0295926D01*
X0051265Y0299488D02*
X0051265Y0301925D01*
X0052765Y0300613D01*
X0052765Y0301175D01*
X0052953Y0301550D01*
X0053140Y0301738D01*
X0053515Y0301925D01*
X0054453Y0301925D01*
X0054827Y0301738D01*
X0055015Y0301550D01*
X0055202Y0301175D01*
X0055202Y0300050D01*
X0055015Y0299675D01*
X0054827Y0299488D01*
X0087861Y0275800D02*
X0087673Y0275988D01*
X0087486Y0276363D01*
X0087486Y0277300D01*
X0087673Y0277675D01*
X0087861Y0277863D01*
X0088236Y0278050D01*
X0088611Y0278050D01*
X0089173Y0277863D01*
X0091423Y0275613D01*
X0091423Y0278050D01*
X0324390Y0430144D02*
X0324015Y0430332D01*
X0323828Y0430707D01*
X0323828Y0434081D01*
X0086765Y0309363D02*
X0086765Y0307488D01*
X0088640Y0307300D01*
X0088453Y0307488D01*
X0088265Y0307863D01*
X0088265Y0308800D01*
X0088453Y0309175D01*
X0088640Y0309363D01*
X0089015Y0309550D01*
X0089953Y0309550D01*
X0090327Y0309363D01*
X0090515Y0309175D01*
X0090702Y0308800D01*
X0090702Y0307863D01*
X0090515Y0307488D01*
X0090327Y0307300D01*
X0315046Y0446644D02*
X0312797Y0446644D01*
X0313921Y0446644D02*
X0313921Y0450581D01*
X0313546Y0450019D01*
X0313172Y0449644D01*
X0312797Y0449456D01*
D60*
X0256854Y0440478D02*
X0256549Y0440630D01*
X0256396Y0440935D01*
X0256396Y0443678D01*
X0240846Y0461143D02*
X0240541Y0461296D01*
X0240084Y0461296D01*
X0239626Y0461143D01*
X0239322Y0460839D01*
X0239169Y0460534D01*
X0239017Y0459924D01*
X0239017Y0459467D01*
X0239169Y0458858D01*
X0239322Y0458553D01*
X0239626Y0458248D01*
X0240084Y0458096D01*
X0240388Y0458096D01*
X0240846Y0458248D01*
X0240998Y0458401D01*
X0240998Y0459467D01*
X0240388Y0459467D01*
X0242369Y0458096D02*
X0242369Y0461296D01*
X0244198Y0458096D01*
X0244198Y0461296D01*
X0245722Y0458096D02*
X0245722Y0461296D01*
X0246484Y0461296D01*
X0246941Y0461143D01*
X0247246Y0460839D01*
X0247398Y0460534D01*
X0247550Y0459924D01*
X0247550Y0459467D01*
X0247398Y0458858D01*
X0247246Y0458553D01*
X0246941Y0458248D01*
X0246484Y0458096D01*
X0245722Y0458096D01*
D57*
X0074422Y0363894D02*
X0074047Y0364081D01*
X0073484Y0364081D01*
X0072922Y0363894D01*
X0072547Y0363519D01*
X0072360Y0363144D01*
X0072172Y0362394D01*
X0072172Y0361832D01*
X0072360Y0361082D01*
X0072547Y0360707D01*
X0072922Y0360332D01*
X0073484Y0360144D01*
X0073859Y0360144D01*
X0074422Y0360332D01*
X0074609Y0360519D01*
X0074609Y0361832D01*
X0073859Y0361832D01*
X0076297Y0360144D02*
X0076297Y0364081D01*
X0078546Y0360144D01*
X0078546Y0364081D01*
X0080421Y0360144D02*
X0080421Y0364081D01*
X0081358Y0364081D01*
X0081921Y0363894D01*
X0082296Y0363519D01*
X0082483Y0363144D01*
X0082671Y0362394D01*
X0082671Y0361832D01*
X0082483Y0361082D01*
X0082296Y0360707D01*
X0081921Y0360332D01*
X0081358Y0360144D01*
X0080421Y0360144D01*
X0217422Y0450644D02*
X0220421Y0450644D01*
X0218921Y0449144D02*
X0218921Y0452144D01*
X0262109Y0458644D02*
X0259859Y0458644D01*
X0260984Y0458644D02*
X0260984Y0462581D01*
X0260609Y0462019D01*
X0260234Y0461644D01*
X0259859Y0461456D01*
X0263796Y0460144D02*
X0266796Y0460144D01*
X0475265Y0341863D02*
X0479202Y0343176D01*
X0475265Y0344488D01*
X0479202Y0347863D02*
X0479202Y0345613D01*
X0479202Y0346738D02*
X0475265Y0346738D01*
X0475828Y0346363D01*
X0476203Y0345988D01*
X0476390Y0345613D01*
X0479202Y0351612D02*
X0479202Y0349363D01*
X0479202Y0350487D02*
X0475265Y0350487D01*
X0475828Y0350112D01*
X0476203Y0349738D01*
X0476390Y0349363D01*
X0051265Y0377863D02*
X0051265Y0375988D01*
X0053140Y0375800D01*
X0052953Y0375988D01*
X0052765Y0376363D01*
X0052765Y0377300D01*
X0052953Y0377675D01*
X0053140Y0377863D01*
X0053515Y0378050D01*
X0054453Y0378050D01*
X0054827Y0377863D01*
X0055015Y0377675D01*
X0055202Y0377300D01*
X0055202Y0376363D01*
X0055015Y0375988D01*
X0054827Y0375800D01*
X0238422Y0474144D02*
X0241421Y0474144D01*
X0239921Y0472644D02*
X0239921Y0475644D01*
X0474265Y0264238D02*
X0478202Y0265551D01*
X0474265Y0266863D01*
X0478202Y0270238D02*
X0478202Y0267988D01*
X0478202Y0269113D02*
X0474265Y0269113D01*
X0474828Y0268738D01*
X0475203Y0268363D01*
X0475390Y0267988D01*
X0070702Y0274175D02*
X0070702Y0271926D01*
X0070702Y0273051D02*
X0066765Y0273051D01*
X0067328Y0272676D01*
X0067703Y0272301D01*
X0067890Y0271926D01*
X0066765Y0277550D02*
X0066765Y0276800D01*
X0066953Y0276425D01*
X0067140Y0276238D01*
X0067703Y0275863D01*
X0068453Y0275675D01*
X0069953Y0275675D01*
X0070327Y0275863D01*
X0070515Y0276050D01*
X0070702Y0276425D01*
X0070702Y0277175D01*
X0070515Y0277550D01*
X0070327Y0277738D01*
X0069953Y0277925D01*
X0069015Y0277925D01*
X0068640Y0277738D01*
X0068453Y0277550D01*
X0068265Y0277175D01*
X0068265Y0276425D01*
X0068453Y0276050D01*
X0068640Y0275863D01*
X0069015Y0275675D01*
X0051265Y0344613D02*
X0051265Y0347238D01*
X0055202Y0345550D01*
X0071202Y0322175D02*
X0071202Y0319926D01*
X0071202Y0321051D02*
X0067265Y0321051D01*
X0067828Y0320676D01*
X0068203Y0320301D01*
X0068390Y0319926D01*
X0067265Y0324613D02*
X0067265Y0324988D01*
X0067453Y0325363D01*
X0067640Y0325550D01*
X0068015Y0325738D01*
X0068765Y0325925D01*
X0069703Y0325925D01*
X0070453Y0325738D01*
X0070827Y0325550D01*
X0071015Y0325363D01*
X0071202Y0324988D01*
X0071202Y0324613D01*
X0071015Y0324238D01*
X0070827Y0324050D01*
X0070453Y0323863D01*
X0069703Y0323675D01*
X0068765Y0323675D01*
X0068015Y0323863D01*
X0067640Y0324050D01*
X0067453Y0324238D01*
X0067265Y0324613D01*
X0448959Y0274696D02*
X0448959Y0276571D01*
X0450084Y0274321D02*
X0446147Y0275634D01*
X0450084Y0276946D01*
X0447460Y0278258D02*
X0450084Y0278258D01*
X0447835Y0278258D02*
X0447647Y0278446D01*
X0447460Y0278821D01*
X0447460Y0279383D01*
X0447647Y0279758D01*
X0448022Y0279946D01*
X0450084Y0279946D01*
X0450084Y0283508D02*
X0448022Y0283508D01*
X0447647Y0283320D01*
X0447460Y0282945D01*
X0447460Y0282195D01*
X0447647Y0281820D01*
X0449897Y0283508D02*
X0450084Y0283133D01*
X0450084Y0282195D01*
X0449897Y0281820D01*
X0449522Y0281633D01*
X0449147Y0281633D01*
X0448772Y0281820D01*
X0448585Y0282195D01*
X0448585Y0283133D01*
X0448397Y0283508D01*
X0450084Y0285945D02*
X0449897Y0285570D01*
X0449522Y0285382D01*
X0446147Y0285382D01*
X0450084Y0288007D02*
X0449897Y0287632D01*
X0449709Y0287445D01*
X0449334Y0287257D01*
X0448210Y0287257D01*
X0447835Y0287445D01*
X0447647Y0287632D01*
X0447460Y0288007D01*
X0447460Y0288570D01*
X0447647Y0288944D01*
X0447835Y0289132D01*
X0448210Y0289319D01*
X0449334Y0289319D01*
X0449709Y0289132D01*
X0449897Y0288944D01*
X0450084Y0288570D01*
X0450084Y0288007D01*
X0447460Y0292694D02*
X0450647Y0292694D01*
X0451022Y0292507D01*
X0451209Y0292319D01*
X0451397Y0291944D01*
X0451397Y0291382D01*
X0451209Y0291007D01*
X0449897Y0292694D02*
X0450084Y0292319D01*
X0450084Y0291569D01*
X0449897Y0291194D01*
X0449709Y0291007D01*
X0449334Y0290819D01*
X0448210Y0290819D01*
X0447835Y0291007D01*
X0447647Y0291194D01*
X0447460Y0291569D01*
X0447460Y0292319D01*
X0447647Y0292694D01*
X0450084Y0297568D02*
X0446147Y0297568D01*
X0447460Y0299443D02*
X0450084Y0299443D01*
X0447835Y0299443D02*
X0447647Y0299631D01*
X0447460Y0300006D01*
X0447460Y0300568D01*
X0447647Y0300943D01*
X0448022Y0301130D01*
X0450084Y0301130D01*
X0447460Y0303005D02*
X0451397Y0303005D01*
X0447647Y0303005D02*
X0447460Y0303380D01*
X0447460Y0304130D01*
X0447647Y0304505D01*
X0447835Y0304693D01*
X0448210Y0304880D01*
X0449334Y0304880D01*
X0449709Y0304693D01*
X0449897Y0304505D01*
X0450084Y0304130D01*
X0450084Y0303380D01*
X0449897Y0303005D01*
X0447460Y0308255D02*
X0450084Y0308255D01*
X0447460Y0306567D02*
X0449522Y0306567D01*
X0449897Y0306755D01*
X0450084Y0307130D01*
X0450084Y0307692D01*
X0449897Y0308067D01*
X0449709Y0308255D01*
X0447460Y0309567D02*
X0447460Y0311067D01*
X0446147Y0310129D02*
X0449522Y0310129D01*
X0449897Y0310317D01*
X0450084Y0310692D01*
X0450084Y0311067D01*
X0449897Y0312192D02*
X0450084Y0312567D01*
X0450084Y0313316D01*
X0449897Y0313691D01*
X0449522Y0313879D01*
X0449334Y0313879D01*
X0448959Y0313691D01*
X0448772Y0313316D01*
X0448772Y0312754D01*
X0448585Y0312379D01*
X0448210Y0312192D01*
X0448022Y0312192D01*
X0447647Y0312379D01*
X0447460Y0312754D01*
X0447460Y0313316D01*
X0447647Y0313691D01*
X0330359Y0450581D02*
X0328484Y0450581D01*
X0328297Y0448707D01*
X0328484Y0448894D01*
X0328859Y0449082D01*
X0329796Y0449082D01*
X0330171Y0448894D01*
X0330359Y0448707D01*
X0330546Y0448332D01*
X0330546Y0447394D01*
X0330359Y0447019D01*
X0330171Y0446832D01*
X0329796Y0446644D01*
X0328859Y0446644D01*
X0328484Y0446832D01*
X0328297Y0447019D01*
X0455922Y0455894D02*
X0455547Y0456081D01*
X0454984Y0456081D01*
X0454422Y0455894D01*
X0454047Y0455519D01*
X0453860Y0455144D01*
X0453672Y0454394D01*
X0453672Y0453832D01*
X0453860Y0453082D01*
X0454047Y0452707D01*
X0454422Y0452332D01*
X0454984Y0452144D01*
X0455359Y0452144D01*
X0455922Y0452332D01*
X0456109Y0452519D01*
X0456109Y0453832D01*
X0455359Y0453832D01*
X0457797Y0452144D02*
X0457797Y0456081D01*
X0460046Y0452144D01*
X0460046Y0456081D01*
X0461921Y0452144D02*
X0461921Y0456081D01*
X0462858Y0456081D01*
X0463421Y0455894D01*
X0463796Y0455519D01*
X0463983Y0455144D01*
X0464171Y0454394D01*
X0464171Y0453832D01*
X0463983Y0453082D01*
X0463796Y0452707D01*
X0463421Y0452332D01*
X0462858Y0452144D01*
X0461921Y0452144D01*
D60*
X0244623Y0433620D02*
X0244776Y0433468D01*
X0244928Y0433010D01*
X0244928Y0432706D01*
X0244776Y0432249D01*
X0244471Y0431944D01*
X0244166Y0431791D01*
X0243557Y0431639D01*
X0243100Y0431639D01*
X0242490Y0431791D01*
X0242185Y0431944D01*
X0241880Y0432249D01*
X0241728Y0432706D01*
X0241728Y0433010D01*
X0241880Y0433468D01*
X0242033Y0433620D01*
X0244014Y0434839D02*
X0244014Y0436363D01*
X0244928Y0434534D02*
X0241728Y0435601D01*
X0244928Y0436668D01*
X0244928Y0437734D02*
X0241728Y0437734D01*
X0244928Y0439563D01*
X0241728Y0439563D01*
X0242033Y0440934D02*
X0241880Y0441087D01*
X0241728Y0441391D01*
X0241728Y0442153D01*
X0241880Y0442458D01*
X0242033Y0442610D01*
X0242338Y0442763D01*
X0242642Y0442763D01*
X0243100Y0442610D01*
X0244928Y0440782D01*
X0244928Y0442763D01*
D57*
X0305671Y0473769D02*
X0305671Y0471144D01*
X0304734Y0475269D02*
X0303797Y0472457D01*
X0306234Y0472457D01*
X0068953Y0337550D02*
X0068765Y0337175D01*
X0068578Y0336988D01*
X0068203Y0336800D01*
X0068015Y0336800D01*
X0067640Y0336988D01*
X0067453Y0337175D01*
X0067265Y0337550D01*
X0067265Y0338300D01*
X0067453Y0338675D01*
X0067640Y0338863D01*
X0068015Y0339050D01*
X0068203Y0339050D01*
X0068578Y0338863D01*
X0068765Y0338675D01*
X0068953Y0338300D01*
X0068953Y0337550D01*
X0069140Y0337175D01*
X0069328Y0336988D01*
X0069703Y0336800D01*
X0070453Y0336800D01*
X0070827Y0336988D01*
X0071015Y0337175D01*
X0071202Y0337550D01*
X0071202Y0338300D01*
X0071015Y0338675D01*
X0070827Y0338863D01*
X0070453Y0339050D01*
X0069703Y0339050D01*
X0069328Y0338863D01*
X0069140Y0338675D01*
X0068953Y0338300D01*
X0055202Y0411050D02*
X0055202Y0408800D01*
X0055202Y0409925D02*
X0051265Y0409925D01*
X0051828Y0409550D01*
X0052203Y0409175D01*
X0052390Y0408800D01*
X0441702Y0425051D02*
X0437765Y0425051D01*
X0441702Y0427301D02*
X0439453Y0425614D01*
X0437765Y0427301D02*
X0440015Y0425051D01*
X0439078Y0428988D02*
X0441702Y0428988D01*
X0439453Y0428988D02*
X0439265Y0429176D01*
X0439078Y0429551D01*
X0439078Y0430113D01*
X0439265Y0430488D01*
X0439640Y0430676D01*
X0441702Y0430676D01*
X0441702Y0433113D02*
X0441515Y0432738D01*
X0441327Y0432550D01*
X0440953Y0432363D01*
X0439828Y0432363D01*
X0439453Y0432550D01*
X0439265Y0432738D01*
X0439078Y0433113D01*
X0439078Y0433675D01*
X0439265Y0434050D01*
X0439453Y0434238D01*
X0439828Y0434425D01*
X0440953Y0434425D01*
X0441327Y0434238D01*
X0441515Y0434050D01*
X0441702Y0433675D01*
X0441702Y0433113D01*
X0441515Y0437800D02*
X0441702Y0437425D01*
X0441702Y0436675D01*
X0441515Y0436300D01*
X0441327Y0436112D01*
X0440953Y0435925D01*
X0439828Y0435925D01*
X0439453Y0436112D01*
X0439265Y0436300D01*
X0439078Y0436675D01*
X0439078Y0437425D01*
X0439265Y0437800D01*
X0441702Y0439487D02*
X0437765Y0439487D01*
X0440203Y0439862D02*
X0441702Y0440987D01*
X0439078Y0440987D02*
X0440578Y0439487D01*
X0090242Y0417109D02*
X0090242Y0414859D01*
X0090242Y0415984D02*
X0086305Y0415984D01*
X0086867Y0415609D01*
X0087242Y0415234D01*
X0087430Y0414859D01*
X0086680Y0418608D02*
X0086492Y0418796D01*
X0086305Y0419171D01*
X0086305Y0420108D01*
X0086492Y0420483D01*
X0086680Y0420671D01*
X0087055Y0420858D01*
X0087430Y0420858D01*
X0087992Y0420671D01*
X0090242Y0418421D01*
X0090242Y0420858D01*
X0295672Y0427314D02*
X0293422Y0427314D01*
X0294547Y0427314D02*
X0294547Y0431251D01*
X0294172Y0430688D01*
X0293797Y0430313D01*
X0293422Y0430126D01*
X0297172Y0430876D02*
X0297359Y0431063D01*
X0297734Y0431251D01*
X0298671Y0431251D01*
X0299046Y0431063D01*
X0299234Y0430876D01*
X0299421Y0430501D01*
X0299421Y0430126D01*
X0299234Y0429563D01*
X0296984Y0427314D01*
X0299421Y0427314D01*
X0300734Y0429938D02*
X0301671Y0427314D01*
X0302608Y0429938D01*
X0293891Y0420975D02*
X0293891Y0424912D01*
X0297828Y0424725D02*
X0297453Y0424912D01*
X0296890Y0424912D01*
X0296328Y0424725D01*
X0295953Y0424350D01*
X0295765Y0423975D01*
X0295578Y0423225D01*
X0295578Y0422662D01*
X0295765Y0421912D01*
X0295953Y0421537D01*
X0296328Y0421163D01*
X0296890Y0420975D01*
X0297265Y0420975D01*
X0297828Y0421163D01*
X0298015Y0421350D01*
X0298015Y0422662D01*
X0297265Y0422662D01*
X0299702Y0420975D02*
X0299702Y0424912D01*
X0301952Y0420975D01*
X0301952Y0424912D01*
D59*
X0452400Y0493285D02*
X0452400Y0501159D01*
X0456149Y0493285D02*
X0456149Y0501159D01*
X0460649Y0493285D01*
X0460649Y0501159D01*
X0464398Y0493285D02*
X0464398Y0501159D01*
X0467398Y0501159D01*
X0468148Y0500784D01*
X0468523Y0500409D01*
X0468898Y0499659D01*
X0468898Y0498534D01*
X0468523Y0497784D01*
X0468148Y0497409D01*
X0467398Y0497034D01*
X0464398Y0497034D01*
X0472272Y0501159D02*
X0472272Y0494784D01*
X0472647Y0494034D01*
X0473022Y0493660D01*
X0473772Y0493285D01*
X0475272Y0493285D01*
X0476022Y0493660D01*
X0476397Y0494034D01*
X0476772Y0494784D01*
X0476772Y0501159D01*
X0479396Y0501159D02*
X0483896Y0501159D01*
X0481646Y0493285D02*
X0481646Y0501159D01*
X0486145Y0493660D02*
X0487270Y0493285D01*
X0489145Y0493285D01*
X0489895Y0493660D01*
X0490270Y0494034D01*
X0490645Y0494784D01*
X0490645Y0495534D01*
X0490270Y0496284D01*
X0489895Y0496659D01*
X0489145Y0497034D01*
X0487645Y0497409D01*
X0486895Y0497784D01*
X0486520Y0498159D01*
X0486145Y0498909D01*
X0486145Y0499659D01*
X0486520Y0500409D01*
X0486895Y0500784D01*
X0487645Y0501159D01*
X0489520Y0501159D01*
X0490645Y0500784D01*
D57*
X0459765Y0305238D02*
X0463702Y0306551D01*
X0459765Y0307863D01*
X0461453Y0309738D02*
X0461265Y0309363D01*
X0461078Y0309175D01*
X0460703Y0308988D01*
X0460515Y0308988D01*
X0460140Y0309175D01*
X0459953Y0309363D01*
X0459765Y0309738D01*
X0459765Y0310488D01*
X0459953Y0310863D01*
X0460140Y0311050D01*
X0460515Y0311238D01*
X0460703Y0311238D01*
X0461078Y0311050D01*
X0461265Y0310863D01*
X0461453Y0310488D01*
X0461453Y0309738D01*
X0461640Y0309363D01*
X0461828Y0309175D01*
X0462203Y0308988D01*
X0462953Y0308988D01*
X0463327Y0309175D01*
X0463515Y0309363D01*
X0463702Y0309738D01*
X0463702Y0310488D01*
X0463515Y0310863D01*
X0463327Y0311050D01*
X0462953Y0311238D01*
X0462203Y0311238D01*
X0461828Y0311050D01*
X0461640Y0310863D01*
X0461453Y0310488D01*
X0366813Y0120219D02*
X0366813Y0124156D01*
X0368125Y0121344D01*
X0369438Y0124156D01*
X0369438Y0120219D01*
X0370938Y0124156D02*
X0373375Y0124156D01*
X0372062Y0122656D01*
X0372625Y0122656D01*
X0373000Y0122469D01*
X0373187Y0122281D01*
X0373375Y0121906D01*
X0373375Y0120969D01*
X0373187Y0120594D01*
X0373000Y0120407D01*
X0372625Y0120219D01*
X0371500Y0120219D01*
X0371125Y0120407D01*
X0370938Y0120594D01*
X0199313Y0142656D02*
X0199313Y0139844D01*
X0199126Y0139282D01*
X0198751Y0138907D01*
X0198188Y0138719D01*
X0197813Y0138719D01*
X0203250Y0138719D02*
X0201000Y0138719D01*
X0202125Y0138719D02*
X0202125Y0142656D01*
X0201750Y0142094D01*
X0201375Y0141719D01*
X0201000Y0141531D01*
X0204562Y0142656D02*
X0207000Y0142656D01*
X0205687Y0141156D01*
X0206250Y0141156D01*
X0206625Y0140969D01*
X0206812Y0140781D01*
X0207000Y0140406D01*
X0207000Y0139469D01*
X0206812Y0139094D01*
X0206625Y0138907D01*
X0206250Y0138719D01*
X0205125Y0138719D01*
X0204750Y0138907D01*
X0204562Y0139094D01*
X0290321Y0112672D02*
X0290321Y0116609D01*
X0291634Y0113797D01*
X0292946Y0116609D01*
X0292946Y0112672D01*
X0294633Y0116234D02*
X0294821Y0116421D01*
X0295196Y0116609D01*
X0296133Y0116609D01*
X0296508Y0116421D01*
X0296696Y0116234D01*
X0296883Y0115859D01*
X0296883Y0115484D01*
X0296696Y0114922D01*
X0294446Y0112672D01*
X0296883Y0112672D01*
X0137813Y0120219D02*
X0137813Y0124156D01*
X0139125Y0121344D01*
X0140438Y0124156D01*
X0140438Y0120219D01*
X0144375Y0120219D02*
X0142125Y0120219D01*
X0143250Y0120219D02*
X0143250Y0124156D01*
X0142875Y0123594D01*
X0142500Y0123219D01*
X0142125Y0123031D01*
X0061373Y0131845D02*
X0061373Y0129033D01*
X0061185Y0128471D01*
X0060810Y0128096D01*
X0060248Y0127908D01*
X0059873Y0127908D01*
X0062873Y0131845D02*
X0065497Y0131845D01*
X0063810Y0127908D01*
X0251821Y0112672D02*
X0251821Y0116609D01*
X0253134Y0113797D01*
X0254446Y0116609D01*
X0254446Y0112672D01*
X0258008Y0115297D02*
X0258008Y0112672D01*
X0257071Y0116796D02*
X0256133Y0113984D01*
X0258571Y0113984D01*
X0349688Y0056656D02*
X0349688Y0053844D01*
X0349500Y0053282D01*
X0349125Y0052907D01*
X0348563Y0052719D01*
X0348188Y0052719D01*
X0351188Y0056656D02*
X0353625Y0056656D01*
X0352312Y0055156D01*
X0352875Y0055156D01*
X0353250Y0054969D01*
X0353437Y0054781D01*
X0353625Y0054406D01*
X0353625Y0053469D01*
X0353437Y0053094D01*
X0353250Y0052907D01*
X0352875Y0052719D01*
X0351750Y0052719D01*
X0351375Y0052907D01*
X0351188Y0053094D01*
X0483203Y0131845D02*
X0483203Y0129033D01*
X0483015Y0128471D01*
X0482640Y0128096D01*
X0482078Y0127908D01*
X0481703Y0127908D01*
X0487140Y0127908D02*
X0484890Y0127908D01*
X0486015Y0127908D02*
X0486015Y0131845D01*
X0485640Y0131283D01*
X0485265Y0130908D01*
X0484890Y0130720D01*
X0489577Y0131845D02*
X0489952Y0131845D01*
X0490327Y0131658D01*
X0490514Y0131470D01*
X0490702Y0131095D01*
X0490889Y0130345D01*
X0490889Y0129408D01*
X0490702Y0128658D01*
X0490514Y0128283D01*
X0490327Y0128096D01*
X0489952Y0127908D01*
X0489577Y0127908D01*
X0489202Y0128096D01*
X0489015Y0128283D01*
X0488827Y0128658D01*
X0488640Y0129408D01*
X0488640Y0130345D01*
X0488827Y0131095D01*
X0489015Y0131470D01*
X0489202Y0131658D01*
X0489577Y0131845D01*
D61*
X0044720Y0539830D02*
X0250720Y0539830D01*
X0507901Y0589000D02*
X0507901Y0539830D01*
X0044720Y0589000D02*
X0044720Y0539830D01*
X0301901Y0539830D02*
X0295614Y0508409D01*
X0301901Y0539830D02*
X0507901Y0539830D01*
X0250720Y0539830D02*
X0257007Y0508409D01*
X0257007Y0508409D02*
G75*
G03*
X0295614Y0508409I0019303J0003857D01*
G01*
D60*
X0406032Y0193660D02*
X0295032Y0193660D01*
X0295532Y0157160D02*
X0296532Y0157160D01*
X0406032Y0156660D02*
X0406032Y0193660D01*
X0296532Y0193160D02*
X0296532Y0157160D01*
X0295032Y0193660D02*
X0295032Y0156660D01*
X0295532Y0193160D02*
X0296532Y0193160D01*
X0295032Y0156660D02*
X0406032Y0156660D01*
X0145112Y0193160D02*
X0146112Y0193160D01*
X0255612Y0193660D02*
X0144612Y0193660D01*
X0255612Y0156660D02*
X0255612Y0193660D01*
X0145112Y0157160D02*
X0146112Y0157160D01*
X0144612Y0193660D02*
X0144612Y0156660D01*
X0144612Y0156660D02*
X0255612Y0156660D01*
X0146112Y0193160D02*
X0146112Y0157160D01*
X0502500Y0536210D02*
X0473100Y0536210D01*
X0473100Y0526010D02*
X0502500Y0526010D01*
X0473100Y0536210D02*
X0473100Y0526010D01*
X0502500Y0526010D02*
X0502500Y0536210D01*
X0499300Y0538610D02*
G75*
G03*
X0499300Y0538610I-001500J0000000D01*
G01*
D62*
X0290815Y0444925D02*
X0290823Y0419484D01*
X0464815Y0450925D02*
X0469815Y0437925D01*
X0282815Y0449425D02*
X0286815Y0444925D01*
X0449315Y0458925D02*
X0467815Y0458925D01*
X0502437Y0256492D02*
X0502721Y0463543D01*
D63*
X0014839Y0202949D02*
X0141217Y0202949D01*
D62*
X0502437Y0256492D02*
X0444366Y0256099D01*
D63*
X0534917Y0505705D02*
X0408540Y0505705D01*
D62*
X0208815Y0422925D02*
X0227815Y0422925D01*
X0204209Y0475390D02*
X0203815Y0444925D01*
X0227815Y0461925D02*
X0258815Y0461925D01*
X0258815Y0429925D02*
X0258815Y0444925D01*
X0448815Y0353925D02*
X0445351Y0353933D01*
X0085250Y0446650D02*
X0105587Y0446650D01*
X0070315Y0284425D02*
X0085315Y0280925D01*
X0208815Y0424925D02*
X0208815Y0422925D01*
X0353618Y0476768D02*
X0353618Y0460823D01*
X0467815Y0452925D02*
X0467902Y0463382D01*
X0449315Y0448925D02*
X0449315Y0458925D01*
X0235315Y0461925D02*
X0235315Y0444925D01*
X0069815Y0348925D02*
X0085315Y0343925D01*
X0449315Y0448925D02*
X0461315Y0448925D01*
D64*
X0540626Y0204721D02*
X0540626Y0513776D01*
D62*
X0282815Y0456425D02*
X0290815Y0463925D01*
X0070315Y0264425D02*
X0070154Y0256099D01*
X0056815Y0419925D02*
X0052043Y0425587D01*
X0444366Y0256099D02*
X0444169Y0337791D01*
X0493815Y0370925D02*
X0502437Y0370925D01*
X0482815Y0385425D02*
X0493815Y0385425D01*
X0482815Y0432925D02*
X0476815Y0440925D01*
X0252815Y0444925D02*
X0203815Y0444925D01*
X0448815Y0416425D02*
X0436315Y0423425D01*
X0353618Y0460823D02*
X0353618Y0428933D01*
X0085114Y0461217D02*
X0079996Y0461217D01*
X0476815Y0393425D02*
X0482815Y0385425D01*
X0465815Y0345925D02*
X0455815Y0353925D01*
X0467902Y0463382D02*
X0502721Y0463543D01*
X0227815Y0461925D02*
X0227815Y0488185D01*
X0482815Y0417425D02*
X0493815Y0417425D01*
X0460815Y0337925D02*
X0465815Y0345925D01*
X0465315Y0393425D02*
X0476815Y0393425D01*
X0298315Y0476925D02*
X0353618Y0476768D01*
X0252815Y0444925D02*
X0278815Y0444925D01*
X0227815Y0429925D02*
X0227815Y0444925D01*
X0085315Y0432425D02*
X0105587Y0432477D01*
X0251315Y0461925D02*
X0251315Y0451925D01*
X0051847Y0461217D02*
X0079996Y0461217D01*
X0208815Y0444925D02*
X0208815Y0424925D01*
X0282815Y0449425D02*
X0282815Y0456425D01*
X0294563Y0488382D02*
X0298315Y0476925D01*
X0069815Y0375925D02*
X0069815Y0348925D01*
X0480980Y0377752D02*
X0479815Y0256295D01*
X0448815Y0385425D02*
X0458315Y0385425D01*
X0458315Y0385425D02*
X0465315Y0393425D01*
X0445351Y0353933D02*
X0444169Y0337791D01*
D64*
X0532752Y0521650D02*
X0017004Y0521650D01*
D62*
X0085315Y0270425D02*
X0070315Y0264425D01*
X0069315Y0414925D02*
X0069315Y0410425D01*
X0038854Y0405508D02*
X0052043Y0425587D01*
D64*
X0009130Y0513776D02*
X0009130Y0204721D01*
D62*
X0070315Y0296925D02*
X0070315Y0284425D01*
X0436315Y0423425D02*
X0436315Y0442425D01*
X0085315Y0379925D02*
X0069815Y0375925D01*
D63*
X0534917Y0505705D02*
X0534917Y0202949D01*
D62*
X0085315Y0406925D02*
X0085315Y0379925D01*
D63*
X0408540Y0505705D02*
X0408540Y0202949D01*
D64*
X0017004Y0196847D02*
X0532752Y0196847D01*
D62*
X0306315Y0419484D02*
X0290823Y0419484D01*
X0444169Y0337791D02*
X0460815Y0337925D01*
D63*
X0155193Y0515941D02*
X0394563Y0515941D01*
D62*
X0227815Y0488185D02*
X0294563Y0488382D01*
X0436315Y0442425D02*
X0449315Y0448925D01*
X0290815Y0463925D02*
X0290815Y0473925D01*
X0493815Y0385425D02*
X0493815Y0370925D01*
X0460315Y0432925D02*
X0465815Y0440425D01*
X0286815Y0444925D02*
X0353618Y0444878D01*
X0448815Y0416425D02*
X0448815Y0385425D01*
X0493815Y0417425D02*
X0493815Y0443925D01*
X0251315Y0451925D02*
X0252815Y0444925D01*
D63*
X0141217Y0202949D02*
X0141217Y0505705D01*
D62*
X0476815Y0424425D02*
X0482815Y0417425D01*
X0461315Y0448925D02*
X0465815Y0440425D01*
X0290815Y0429925D02*
X0227815Y0429925D01*
X0105587Y0446650D02*
X0105587Y0256099D01*
D63*
X0155193Y0389563D02*
X0155193Y0515941D01*
X0394563Y0515941D02*
X0394563Y0389563D01*
D62*
X0449815Y0416425D02*
X0448815Y0416425D01*
X0306315Y0444925D02*
X0306315Y0419484D01*
D63*
X0014839Y0505705D02*
X0141217Y0505705D01*
D62*
X0258815Y0461925D02*
X0258815Y0488185D01*
X0069315Y0414925D02*
X0056815Y0419925D01*
X0449815Y0416425D02*
X0459815Y0416425D01*
X0227815Y0475425D02*
X0204209Y0475390D01*
X0070154Y0256099D02*
X0038658Y0255902D01*
X0052043Y0425587D02*
X0051847Y0461217D01*
X0278815Y0444925D02*
X0282815Y0449425D01*
D63*
X0394563Y0389563D02*
X0155193Y0389563D01*
D62*
X0465315Y0424425D02*
X0476815Y0424425D01*
X0085315Y0343925D02*
X0085315Y0300425D01*
X0459815Y0416425D02*
X0465315Y0424425D01*
X0227815Y0422925D02*
X0227815Y0429925D01*
X0085315Y0406925D02*
X0085114Y0461217D01*
X0455815Y0353925D02*
X0448815Y0353925D01*
X0105587Y0256099D02*
X0070154Y0256099D01*
X0306315Y0428925D02*
X0353618Y0428933D01*
D63*
X0014839Y0202949D02*
X0014839Y0505705D01*
D62*
X0482815Y0385425D02*
X0480980Y0377752D01*
X0085315Y0280925D02*
X0085315Y0270425D01*
X0445351Y0353933D02*
X0448815Y0385425D01*
X0476815Y0424425D02*
X0482815Y0432925D01*
X0493815Y0443925D02*
X0502437Y0443894D01*
X0476815Y0440925D02*
X0467815Y0452925D01*
X0290815Y0473925D02*
X0298315Y0476925D01*
X0038658Y0255902D02*
X0038854Y0405508D01*
X0465315Y0424425D02*
X0460315Y0432925D01*
X0085315Y0379925D02*
X0085315Y0343925D01*
D63*
X0534917Y0202949D02*
X0408540Y0202949D01*
D62*
X0085315Y0300425D02*
X0070315Y0296925D01*
X0069315Y0410425D02*
X0085315Y0406925D01*
D64*
X0017004Y0521650D02*
G75*
G03*
X0009130Y0513776I0000000J-007874D01*
G01*
X0009130Y0204721D02*
G75*
G03*
X0017004Y0196847I0007874J0000000D01*
G01*
X0532752Y0196847D02*
G75*
G03*
X0540626Y0204721I0000000J0007874D01*
G01*
X0540626Y0513776D02*
G75*
G03*
X0532752Y0521650I-007874J0000000D01*
G01*
D10*
X0471977Y0117453D02*
X0317843Y0117453D01*
X0317843Y0117453D02*
X0317843Y0058791D01*
X0317843Y0058791D02*
X0471977Y0058791D01*
X0471977Y0058791D02*
X0471977Y0117453D01*
D62*
X0174264Y0125264D02*
X0174264Y0130500D01*
X0184500Y0125264D02*
X0234736Y0125264D01*
X0184500Y0125264D02*
X0184500Y0135736D01*
X0234736Y0125264D02*
X0234736Y0135736D01*
X0179500Y0125264D02*
X0174264Y0125264D01*
X0184500Y0135736D02*
X0234736Y0135736D01*
D10*
X0285463Y0109490D02*
X0284381Y0108408D01*
X0280936Y0108408D02*
X0284381Y0108408D01*
X0280936Y0108408D02*
X0280936Y0108408D01*
X0280936Y0108408D02*
X0280936Y0065494D01*
X0280936Y0065494D02*
X0308047Y0065494D01*
X0285463Y0109490D02*
X0307894Y0109490D01*
X0307894Y0109490D02*
X0308047Y0065494D01*
X0081858Y0057807D02*
X0235992Y0057807D01*
X0235992Y0057807D02*
X0235992Y0116469D01*
X0235992Y0116469D02*
X0081858Y0116469D01*
X0081858Y0116469D02*
X0081858Y0057807D01*
D62*
X0011248Y0043756D02*
X0032902Y0043756D01*
X0032902Y0043756D02*
X0032902Y0045725D01*
X0054988Y0137811D02*
X0037272Y0137811D01*
X0032902Y0065410D02*
X0011248Y0065410D01*
X0008847Y0143402D02*
X0054988Y0143402D01*
X0011248Y0092969D02*
X0032902Y0092969D01*
X0032902Y0114622D02*
X0011248Y0114622D01*
X0054988Y0034662D02*
X0054988Y0040252D01*
X0011248Y0102811D02*
X0032902Y0102811D01*
X0054988Y0040252D02*
X0037272Y0040252D01*
X0032902Y0063441D02*
X0032902Y0065410D01*
X0051406Y0133323D02*
X0053768Y0134504D01*
X0011248Y0112654D02*
X0032902Y0112654D01*
X0032902Y0085095D02*
X0011248Y0085095D01*
X0011248Y0063441D02*
X0032902Y0063441D01*
X0011248Y0065410D02*
X0011248Y0063441D01*
X0053768Y0132142D02*
X0051406Y0133323D01*
X0032902Y0055567D02*
X0011248Y0055567D01*
X0008847Y0089032D02*
X0008847Y0143402D01*
X0032902Y0102811D02*
X0032902Y0104780D01*
X0032902Y0053599D02*
X0032902Y0055567D01*
X0011248Y0075252D02*
X0011248Y0073284D01*
X0011248Y0114622D02*
X0011248Y0112654D01*
X0032902Y0083126D02*
X0032902Y0085095D01*
X0032902Y0045725D02*
X0011248Y0045725D01*
X0032902Y0122496D02*
X0032902Y0124465D01*
X0011248Y0083126D02*
X0032902Y0083126D01*
X0011248Y0134307D02*
X0011248Y0132339D01*
X0032902Y0092969D02*
X0032902Y0094937D01*
X0008847Y0089032D02*
X0008847Y0034662D01*
X0053768Y0134504D02*
X0053768Y0132142D01*
X0011248Y0122496D02*
X0032902Y0122496D01*
X0032902Y0104780D02*
X0011248Y0104780D01*
X0054988Y0143402D02*
X0054988Y0137811D01*
X0032902Y0112654D02*
X0032902Y0114622D01*
X0011248Y0045725D02*
X0011248Y0043756D01*
X0032902Y0094937D02*
X0011248Y0094937D01*
X0011248Y0055567D02*
X0011248Y0053599D01*
X0032902Y0073284D02*
X0032902Y0075252D01*
X0011248Y0073284D02*
X0032902Y0073284D01*
X0008847Y0034662D02*
X0054988Y0034662D01*
X0011248Y0085095D02*
X0011248Y0083126D01*
X0011248Y0094937D02*
X0011248Y0092969D01*
X0032902Y0124465D02*
X0011248Y0124465D01*
X0037272Y0137811D02*
X0037272Y0089032D01*
X0011248Y0104780D02*
X0011248Y0102811D01*
X0032902Y0134307D02*
X0011248Y0134307D01*
X0011248Y0124465D02*
X0011248Y0122496D01*
X0037272Y0040252D02*
X0037272Y0089032D01*
X0032902Y0132339D02*
X0032902Y0134307D01*
X0011248Y0053599D02*
X0032902Y0053599D01*
X0032902Y0075252D02*
X0011248Y0075252D01*
X0011248Y0132339D02*
X0032902Y0132339D01*
D10*
X0271064Y0109490D02*
X0243953Y0109490D01*
X0271064Y0066577D02*
X0271064Y0066577D01*
X0244106Y0065494D02*
X0243953Y0109490D01*
X0266537Y0065494D02*
X0244106Y0065494D01*
X0266537Y0065494D02*
X0267620Y0066577D01*
X0271064Y0066577D02*
X0271064Y0109490D01*
X0271064Y0066577D02*
X0267620Y0066577D01*
D62*
X0320764Y0051236D02*
X0320764Y0040764D01*
X0371000Y0040764D02*
X0320764Y0040764D01*
X0371000Y0051236D02*
X0320764Y0051236D01*
X0376000Y0051236D02*
X0381236Y0051236D01*
X0381236Y0051236D02*
X0381236Y0046000D01*
X0371000Y0051236D02*
X0371000Y0040764D01*
X0512729Y0040252D02*
X0512729Y0089032D01*
X0538752Y0102811D02*
X0538752Y0104780D01*
X0538752Y0045725D02*
X0517099Y0045725D01*
X0517099Y0063441D02*
X0538752Y0063441D01*
X0538752Y0124465D02*
X0517099Y0124465D01*
X0517099Y0092969D02*
X0538752Y0092969D01*
X0538752Y0114622D02*
X0517099Y0114622D01*
X0541154Y0143402D02*
X0495012Y0143402D01*
X0517099Y0132339D02*
X0538752Y0132339D01*
X0541154Y0089032D02*
X0541154Y0034662D01*
X0538752Y0132339D02*
X0538752Y0134307D01*
X0496232Y0043559D02*
X0496232Y0045921D01*
X0517099Y0112654D02*
X0538752Y0112654D01*
X0538752Y0122496D02*
X0538752Y0124465D01*
X0538752Y0085095D02*
X0517099Y0085095D01*
X0517099Y0053599D02*
X0538752Y0053599D01*
X0512729Y0137811D02*
X0512729Y0089032D01*
X0517099Y0094937D02*
X0517099Y0092969D01*
X0538752Y0063441D02*
X0538752Y0065410D01*
X0538752Y0065410D02*
X0517099Y0065410D01*
X0495012Y0143402D02*
X0495012Y0137811D01*
X0538752Y0073284D02*
X0538752Y0075252D01*
X0517099Y0102811D02*
X0538752Y0102811D01*
X0538752Y0134307D02*
X0517099Y0134307D01*
X0538752Y0083126D02*
X0538752Y0085095D01*
X0538752Y0104780D02*
X0517099Y0104780D01*
X0541154Y0089032D02*
X0541154Y0143402D01*
X0517099Y0104780D02*
X0517099Y0102811D01*
X0517099Y0073284D02*
X0538752Y0073284D01*
X0517099Y0134307D02*
X0517099Y0132339D01*
X0538752Y0055567D02*
X0517099Y0055567D01*
X0498595Y0044740D02*
X0496232Y0043559D01*
X0517099Y0065410D02*
X0517099Y0063441D01*
X0538752Y0092969D02*
X0538752Y0094937D01*
X0495012Y0034662D02*
X0495012Y0040252D01*
X0517099Y0043756D02*
X0538752Y0043756D01*
X0517099Y0085095D02*
X0517099Y0083126D01*
X0517099Y0055567D02*
X0517099Y0053599D01*
X0495012Y0137811D02*
X0512729Y0137811D01*
X0538752Y0112654D02*
X0538752Y0114622D01*
X0517099Y0114622D02*
X0517099Y0112654D01*
X0538752Y0075252D02*
X0517099Y0075252D01*
X0517099Y0075252D02*
X0517099Y0073284D01*
X0538752Y0094937D02*
X0517099Y0094937D01*
X0538752Y0053599D02*
X0538752Y0055567D01*
X0517099Y0122496D02*
X0538752Y0122496D01*
X0517099Y0083126D02*
X0538752Y0083126D01*
X0495012Y0040252D02*
X0512729Y0040252D01*
X0541154Y0034662D02*
X0495012Y0034662D01*
X0538752Y0043756D02*
X0538752Y0045725D01*
X0517099Y0124465D02*
X0517099Y0122496D01*
X0517099Y0045725D02*
X0517099Y0043756D01*
X0496232Y0045921D02*
X0498595Y0044740D01*
X0315126Y0195602D02*
%LPD*%
G01*
D57*
X0164781Y0150120D02*
X0164969Y0150495D01*
X0165343Y0150870D01*
X0165906Y0151433D01*
X0166093Y0151807D01*
X0166093Y0152182D01*
X0165156Y0151995D02*
X0165343Y0152370D01*
X0165718Y0152745D01*
X0166468Y0152932D01*
X0167781Y0152932D01*
X0168531Y0152745D01*
X0168906Y0152370D01*
X0169093Y0151995D01*
X0169093Y0151245D01*
X0168906Y0150870D01*
X0168531Y0150495D01*
X0167781Y0150308D01*
X0166468Y0150308D01*
X0165718Y0150495D01*
X0165343Y0150870D01*
X0165156Y0151245D01*
X0165156Y0151995D01*
X0169093Y0146933D02*
X0169093Y0147683D01*
X0168906Y0148058D01*
X0168718Y0148245D01*
X0168156Y0148620D01*
X0167406Y0148808D01*
X0165906Y0148808D01*
X0165531Y0148620D01*
X0165343Y0148433D01*
X0165156Y0148058D01*
X0165156Y0147308D01*
X0165343Y0146933D01*
X0165531Y0146746D01*
X0165906Y0146558D01*
X0166843Y0146558D01*
X0167218Y0146746D01*
X0167406Y0146933D01*
X0167593Y0147308D01*
X0167593Y0148058D01*
X0167406Y0148433D01*
X0167218Y0148620D01*
X0166843Y0148808D01*
X0169093Y0144121D02*
X0169093Y0143746D01*
X0168906Y0143371D01*
X0168718Y0143184D01*
X0168343Y0142996D01*
X0167593Y0142809D01*
X0166656Y0142809D01*
X0165906Y0142996D01*
X0165531Y0143184D01*
X0165343Y0143371D01*
X0165156Y0143746D01*
X0165156Y0144121D01*
X0165343Y0144496D01*
X0165531Y0144683D01*
X0165906Y0144871D01*
X0166656Y0145058D01*
X0167593Y0145058D01*
X0168343Y0144871D01*
X0168718Y0144683D01*
X0168906Y0144496D01*
X0169093Y0144121D01*
X0165156Y0139059D02*
X0165156Y0141309D01*
X0165156Y0140184D02*
X0169093Y0140184D01*
X0168531Y0140559D01*
X0168156Y0140934D01*
X0167968Y0141309D01*
X0167694Y0188309D02*
X0167882Y0188684D01*
X0168257Y0189059D01*
X0168819Y0189621D01*
X0169007Y0189996D01*
X0169007Y0190371D01*
X0168069Y0190184D02*
X0168257Y0190559D01*
X0168632Y0190934D01*
X0169382Y0191121D01*
X0170694Y0191121D01*
X0171444Y0190934D01*
X0171819Y0190559D01*
X0172006Y0190184D01*
X0172006Y0189434D01*
X0171819Y0189059D01*
X0171444Y0188684D01*
X0170694Y0188497D01*
X0169382Y0188497D01*
X0168632Y0188684D01*
X0168257Y0189059D01*
X0168069Y0189434D01*
X0168069Y0190184D01*
X0172006Y0185122D02*
X0172006Y0185872D01*
X0171819Y0186247D01*
X0171631Y0186434D01*
X0171069Y0186809D01*
X0170319Y0186997D01*
X0168819Y0186997D01*
X0168444Y0186809D01*
X0168257Y0186622D01*
X0168069Y0186247D01*
X0168069Y0185497D01*
X0168257Y0185122D01*
X0168444Y0184935D01*
X0168819Y0184747D01*
X0169757Y0184747D01*
X0170132Y0184935D01*
X0170319Y0185122D01*
X0170507Y0185497D01*
X0170507Y0186247D01*
X0170319Y0186622D01*
X0170132Y0186809D01*
X0169757Y0186997D01*
X0172006Y0182310D02*
X0172006Y0181935D01*
X0171819Y0181560D01*
X0171631Y0181373D01*
X0171256Y0181185D01*
X0170507Y0180998D01*
X0169569Y0180998D01*
X0168819Y0181185D01*
X0168444Y0181373D01*
X0168257Y0181560D01*
X0168069Y0181935D01*
X0168069Y0182310D01*
X0168257Y0182685D01*
X0168444Y0182872D01*
X0168819Y0183060D01*
X0169569Y0183247D01*
X0170507Y0183247D01*
X0171256Y0183060D01*
X0171631Y0182872D01*
X0171819Y0182685D01*
X0172006Y0182310D01*
X0172006Y0178560D02*
X0172006Y0178185D01*
X0171819Y0177810D01*
X0171631Y0177623D01*
X0171256Y0177436D01*
X0170507Y0177248D01*
X0169569Y0177248D01*
X0168819Y0177436D01*
X0168444Y0177623D01*
X0168257Y0177810D01*
X0168069Y0178185D01*
X0168069Y0178560D01*
X0168257Y0178935D01*
X0168444Y0179123D01*
X0168819Y0179310D01*
X0169569Y0179498D01*
X0170507Y0179498D01*
X0171256Y0179310D01*
X0171631Y0179123D01*
X0171819Y0178935D01*
X0172006Y0178560D01*
D59*
X0170087Y0148752D02*
X0198827Y0148752D01*
D62*
X0170087Y0139696D02*
X0198827Y0139696D01*
X0198827Y0148752D02*
X0198827Y0139696D01*
X0170087Y0148752D02*
X0170087Y0139696D01*
D10*
X0160598Y0136547D02*
X0314732Y0136547D01*
X0314732Y0136547D02*
X0314732Y0195208D01*
X0314732Y0195208D02*
X0160598Y0195208D01*
X0160598Y0195208D02*
X0160598Y0136547D01*
D62*
X0292547Y0165630D02*
X0292547Y0166912D01*
X0296563Y0165630D02*
X0296563Y0166912D01*
X0220672Y0159397D02*
X0219391Y0159397D01*
X0220672Y0155382D02*
X0219391Y0155382D01*
X0308047Y0159451D02*
X0308047Y0163112D01*
X0308047Y0171892D02*
X0299543Y0171892D01*
X0308047Y0171892D02*
X0308047Y0168230D01*
X0308047Y0159451D02*
X0302299Y0159451D01*
D57*
X0235185Y0181724D02*
X0235185Y0180838D01*
X0235185Y0161055D02*
X0216878Y0161055D01*
X0216878Y0181724D02*
X0216878Y0180838D01*
X0216878Y0161055D02*
X0216878Y0161941D01*
X0235185Y0181724D02*
X0216878Y0181724D01*
X0235185Y0161055D02*
X0235185Y0161547D01*
X0235185Y0161547D02*
X0240500Y0161547D01*
D62*
X0172803Y0161468D02*
X0173866Y0161468D01*
X0173866Y0161468D02*
X0173866Y0150326D01*
X0199969Y0167374D02*
X0199969Y0161468D01*
X0199969Y0161468D02*
X0198906Y0161468D01*
X0172803Y0167374D02*
X0172803Y0161468D01*
X0198906Y0161468D02*
X0198906Y0157137D01*
X0267181Y0189283D02*
X0258185Y0189283D01*
X0258185Y0189283D02*
X0258185Y0183496D01*
X0258185Y0183496D02*
X0267181Y0183496D01*
X0224063Y0139263D02*
X0230992Y0139263D01*
X0230992Y0151350D02*
X0221425Y0151350D01*
X0209925Y0147240D02*
X0209925Y0156236D01*
X0204138Y0156236D02*
X0204138Y0147240D01*
X0209925Y0156236D02*
X0204138Y0156236D01*
X0281878Y0183496D02*
X0281878Y0189283D01*
X0272882Y0183496D02*
X0281878Y0183496D01*
X0281878Y0189283D02*
X0272882Y0189283D01*
X0255441Y0148712D02*
X0255441Y0149893D01*
X0283866Y0177137D02*
X0283866Y0175956D01*
X0282685Y0177137D02*
X0283866Y0177137D01*
X0255441Y0175956D02*
X0250264Y0175956D01*
X0256622Y0177137D02*
X0255441Y0177137D01*
X0255441Y0177137D02*
X0255441Y0175956D01*
X0283866Y0148712D02*
X0283866Y0149893D01*
X0256622Y0148712D02*
X0255441Y0148712D01*
X0282685Y0148712D02*
X0283866Y0148712D01*
X0310776Y0144279D02*
X0310776Y0152783D01*
X0298335Y0144279D02*
X0301996Y0144279D01*
X0298335Y0144279D02*
X0298335Y0150027D01*
X0310776Y0144279D02*
X0307114Y0144279D01*
X0297084Y0140268D02*
X0297084Y0149264D01*
X0291297Y0140268D02*
X0297084Y0140268D01*
X0291297Y0149264D02*
X0291297Y0140268D01*
X0305953Y0189775D02*
X0308453Y0189775D01*
X0308453Y0189775D02*
X0308453Y0187275D01*
X0359282Y0188624D02*
G01*
G75*
D77*
X0375719Y0174352D02*
X0376145Y0175091D01*
X0375293Y0175091D01*
X0375719Y0174352D01*
X0366270Y0150258D02*
X0366696Y0150996D01*
X0365844Y0150996D01*
X0366270Y0150258D01*
D10*
X0368613Y0156754D02*
X0368349Y0157738D01*
X0367628Y0158459D01*
X0366644Y0158722D01*
X0359676Y0187148D02*
X0363121Y0187148D01*
X0359676Y0144234D02*
X0386787Y0144234D01*
X0386634Y0188230D02*
X0386787Y0144234D01*
X0364203Y0188230D02*
X0386634Y0188230D01*
X0364203Y0188230D02*
X0363121Y0187148D01*
X0359676Y0187148D02*
X0359676Y0187148D01*
X0359676Y0144234D01*
X0363042Y0186951D02*
X0363042Y0184293D01*
X0363042Y0177600D02*
X0363042Y0174746D01*
X0368849Y0174746D01*
X0363042Y0186951D02*
X0368849Y0186951D01*
X0386251Y0163742D02*
X0386251Y0156655D01*
X0366565Y0163742D02*
X0366565Y0156655D01*
X0366565Y0163742D02*
X0386251Y0163742D01*
X0366565Y0156655D02*
X0386251Y0156655D01*
X0362038Y0150829D02*
X0364991Y0150829D01*
X0362235Y0165396D02*
X0365188Y0165396D01*
D42*
X0375719Y0181734D02*
X0375719Y0180159D01*
X0378655Y0181730D02*
X0378655Y0180155D01*
D99*
X0370439Y0162068D02*
X0370439Y0159444D01*
X0370964Y0158920D01*
X0372013Y0158920D01*
X0372538Y0159444D01*
X0372538Y0162068D01*
X0375162Y0158920D02*
X0375162Y0162068D01*
X0373587Y0160494D01*
X0375686Y0160494D01*
X0376736Y0161543D02*
X0377261Y0162068D01*
X0378310Y0162068D01*
X0378835Y0161543D01*
X0378835Y0161019D01*
X0378310Y0160494D01*
X0377786Y0160494D01*
X0378310Y0160494D01*
X0378835Y0159969D01*
X0378835Y0159444D01*
X0378310Y0158920D01*
X0377261Y0158920D01*
X0376736Y0159444D01*
X0379885Y0161543D02*
X0380409Y0162068D01*
X0381459Y0162068D01*
X0381984Y0161543D01*
X0381984Y0159444D01*
X0381459Y0158920D01*
X0380409Y0158920D01*
X0379885Y0159444D01*
X0379885Y0161543D01*
X0396189Y0137138D02*
%LPD*%
G01*
D57*
X0546534Y0182620D02*
X0546346Y0182245D01*
X0545972Y0181870D01*
X0545409Y0181307D01*
X0545222Y0180933D01*
X0545222Y0180558D01*
X0546159Y0180745D02*
X0545972Y0180370D01*
X0545597Y0179995D01*
X0544847Y0179808D01*
X0543534Y0179808D01*
X0542784Y0179995D01*
X0542409Y0180370D01*
X0542222Y0180745D01*
X0542222Y0181495D01*
X0542409Y0181870D01*
X0542784Y0182245D01*
X0543534Y0182432D01*
X0544847Y0182432D01*
X0545597Y0182245D01*
X0545972Y0181870D01*
X0546159Y0181495D01*
X0546159Y0180745D01*
X0542222Y0185807D02*
X0542222Y0185057D01*
X0542409Y0184682D01*
X0542597Y0184495D01*
X0543159Y0184120D01*
X0543909Y0183932D01*
X0545409Y0183932D01*
X0545784Y0184120D01*
X0545972Y0184307D01*
X0546159Y0184682D01*
X0546159Y0185432D01*
X0545972Y0185807D01*
X0545784Y0185994D01*
X0545409Y0186182D01*
X0544472Y0186182D01*
X0544097Y0185994D01*
X0543909Y0185807D01*
X0543722Y0185432D01*
X0543722Y0184682D01*
X0543909Y0184307D01*
X0544097Y0184120D01*
X0544472Y0183932D01*
X0542222Y0188619D02*
X0542222Y0188994D01*
X0542409Y0189369D01*
X0542597Y0189556D01*
X0542972Y0189744D01*
X0543722Y0189931D01*
X0544659Y0189931D01*
X0545409Y0189744D01*
X0545784Y0189556D01*
X0545972Y0189369D01*
X0546159Y0188994D01*
X0546159Y0188619D01*
X0545972Y0188244D01*
X0545784Y0188057D01*
X0545409Y0187869D01*
X0544659Y0187682D01*
X0543722Y0187682D01*
X0542972Y0187869D01*
X0542597Y0188057D01*
X0542409Y0188244D01*
X0542222Y0188619D01*
X0546159Y0193681D02*
X0546159Y0191431D01*
X0546159Y0192556D02*
X0542222Y0192556D01*
X0542784Y0192181D01*
X0543159Y0191806D01*
X0543347Y0191431D01*
X0543621Y0144431D02*
X0543433Y0144056D01*
X0543058Y0143681D01*
X0542496Y0143119D01*
X0542308Y0142744D01*
X0542308Y0142369D01*
X0543246Y0142556D02*
X0543058Y0142181D01*
X0542683Y0141806D01*
X0541933Y0141619D01*
X0540621Y0141619D01*
X0539871Y0141806D01*
X0539496Y0142181D01*
X0539309Y0142556D01*
X0539309Y0143306D01*
X0539496Y0143681D01*
X0539871Y0144056D01*
X0540621Y0144243D01*
X0541933Y0144243D01*
X0542683Y0144056D01*
X0543058Y0143681D01*
X0543246Y0143306D01*
X0543246Y0142556D01*
X0539309Y0147618D02*
X0539309Y0146868D01*
X0539496Y0146493D01*
X0539684Y0146306D01*
X0540246Y0145931D01*
X0540996Y0145743D01*
X0542496Y0145743D01*
X0542871Y0145931D01*
X0543058Y0146118D01*
X0543246Y0146493D01*
X0543246Y0147243D01*
X0543058Y0147618D01*
X0542871Y0147805D01*
X0542496Y0147993D01*
X0541558Y0147993D01*
X0541183Y0147805D01*
X0540996Y0147618D01*
X0540808Y0147243D01*
X0540808Y0146493D01*
X0540996Y0146118D01*
X0541183Y0145931D01*
X0541558Y0145743D01*
X0539309Y0150430D02*
X0539309Y0150805D01*
X0539496Y0151180D01*
X0539684Y0151367D01*
X0540059Y0151555D01*
X0540808Y0151742D01*
X0541746Y0151742D01*
X0542496Y0151555D01*
X0542871Y0151367D01*
X0543058Y0151180D01*
X0543246Y0150805D01*
X0543246Y0150430D01*
X0543058Y0150055D01*
X0542871Y0149868D01*
X0542496Y0149680D01*
X0541746Y0149493D01*
X0540808Y0149493D01*
X0540059Y0149680D01*
X0539684Y0149868D01*
X0539496Y0150055D01*
X0539309Y0150430D01*
X0539309Y0154180D02*
X0539309Y0154555D01*
X0539496Y0154930D01*
X0539684Y0155117D01*
X0540059Y0155304D01*
X0540808Y0155492D01*
X0541746Y0155492D01*
X0542496Y0155304D01*
X0542871Y0155117D01*
X0543058Y0154930D01*
X0543246Y0154555D01*
X0543246Y0154180D01*
X0543058Y0153805D01*
X0542871Y0153617D01*
X0542496Y0153430D01*
X0541746Y0153242D01*
X0540808Y0153242D01*
X0540059Y0153430D01*
X0539684Y0153617D01*
X0539496Y0153805D01*
X0539309Y0154180D01*
D59*
X0541228Y0183988D02*
X0512488Y0183988D01*
D62*
X0541228Y0193044D02*
X0512488Y0193044D01*
X0512488Y0183988D02*
X0512488Y0193044D01*
X0541228Y0183988D02*
X0541228Y0193044D01*
D10*
X0550717Y0196193D02*
X0396583Y0196193D01*
X0396583Y0196193D02*
X0396583Y0137532D01*
X0396583Y0137532D02*
X0550717Y0137532D01*
X0550717Y0137532D02*
X0550717Y0196193D01*
D62*
X0418768Y0167110D02*
X0418768Y0165828D01*
X0414752Y0167110D02*
X0414752Y0165828D01*
X0490643Y0173343D02*
X0491924Y0173343D01*
X0490643Y0177358D02*
X0491924Y0177358D01*
X0403268Y0173289D02*
X0403268Y0169628D01*
X0403268Y0160848D02*
X0411772Y0160848D01*
X0403268Y0160848D02*
X0403268Y0164510D01*
X0403268Y0173289D02*
X0409016Y0173289D01*
D57*
X0476130Y0151016D02*
X0476130Y0151902D01*
X0476130Y0171685D02*
X0494437Y0171685D01*
X0494437Y0151016D02*
X0494437Y0151902D01*
X0494437Y0171685D02*
X0494437Y0170799D01*
X0476130Y0151016D02*
X0494437Y0151016D01*
X0476130Y0171685D02*
X0476130Y0171193D01*
X0476130Y0171193D02*
X0470815Y0171193D01*
D62*
X0538512Y0171272D02*
X0537449Y0171272D01*
X0537449Y0171272D02*
X0537449Y0182414D01*
X0511346Y0165366D02*
X0511346Y0171272D01*
X0511346Y0171272D02*
X0512409Y0171272D01*
X0538512Y0165366D02*
X0538512Y0171272D01*
X0512409Y0171272D02*
X0512409Y0175603D01*
X0444134Y0143457D02*
X0453130Y0143457D01*
X0453130Y0143457D02*
X0453130Y0149244D01*
X0453130Y0149244D02*
X0444134Y0149244D01*
X0487252Y0193477D02*
X0480323Y0193477D01*
X0480323Y0181390D02*
X0489890Y0181390D01*
X0501390Y0185500D02*
X0501390Y0176504D01*
X0507177Y0176504D02*
X0507177Y0185500D01*
X0501390Y0176504D02*
X0507177Y0176504D01*
X0429437Y0149244D02*
X0429437Y0143457D01*
X0438433Y0149244D02*
X0429437Y0149244D01*
X0429437Y0143457D02*
X0438433Y0143457D01*
X0455874Y0184028D02*
X0455874Y0182847D01*
X0427449Y0155603D02*
X0427449Y0156784D01*
X0428630Y0155603D02*
X0427449Y0155603D01*
X0455874Y0156784D02*
X0461051Y0156784D01*
X0454693Y0155603D02*
X0455874Y0155603D01*
X0455874Y0155603D02*
X0455874Y0156784D01*
X0427449Y0184028D02*
X0427449Y0182847D01*
X0454693Y0184028D02*
X0455874Y0184028D01*
X0428630Y0184028D02*
X0427449Y0184028D01*
X0400539Y0188461D02*
X0400539Y0179957D01*
X0412980Y0188461D02*
X0409319Y0188461D01*
X0412980Y0188461D02*
X0412980Y0182713D01*
X0400539Y0188461D02*
X0404201Y0188461D01*
X0414231Y0192472D02*
X0414231Y0183476D01*
X0420018Y0192472D02*
X0414231Y0192472D01*
X0420018Y0183476D02*
X0420018Y0192472D01*
X0405362Y0142965D02*
X0402862Y0142965D01*
X0402862Y0142965D02*
X0402862Y0145465D01*
X0350198Y0143841D02*
G01*
G75*
D77*
X0333761Y0158113D02*
X0333335Y0157374D01*
X0334187Y0157374D01*
X0333761Y0158113D01*
X0343210Y0182207D02*
X0342784Y0181469D01*
X0343636Y0181469D01*
X0343210Y0182207D01*
D10*
X0340867Y0175711D02*
X0341131Y0174727D01*
X0341852Y0174006D01*
X0342836Y0173743D01*
X0349804Y0145317D02*
X0346359Y0145317D01*
X0349804Y0188231D02*
X0322693Y0188231D01*
X0322846Y0144235D02*
X0322693Y0188231D01*
X0345277Y0144235D02*
X0322846Y0144235D01*
X0345277Y0144235D02*
X0346359Y0145317D01*
X0349804Y0145317D02*
X0349804Y0145317D01*
X0349804Y0188231D01*
X0346438Y0145514D02*
X0346438Y0148172D01*
X0346438Y0154865D02*
X0346438Y0157719D01*
X0340631Y0157719D01*
X0346438Y0145514D02*
X0340631Y0145514D01*
X0323229Y0168723D02*
X0323229Y0175810D01*
X0342915Y0168723D02*
X0342915Y0175810D01*
X0342915Y0168723D02*
X0323229Y0168723D01*
X0342915Y0175810D02*
X0323229Y0175810D01*
X0347442Y0181636D02*
X0344489Y0181636D01*
X0347245Y0167069D02*
X0344292Y0167069D01*
D42*
X0333761Y0150731D02*
X0333761Y0152306D01*
X0330825Y0150735D02*
X0330825Y0152310D01*
D99*
X0339041Y0170397D02*
X0339041Y0173021D01*
X0338516Y0173545D01*
X0337467Y0173545D01*
X0336942Y0173021D01*
X0336942Y0170397D01*
X0334318Y0173545D02*
X0334318Y0170397D01*
X0335893Y0171971D01*
X0333794Y0171971D01*
X0332744Y0170922D02*
X0332219Y0170397D01*
X0331170Y0170397D01*
X0330645Y0170922D01*
X0330645Y0171446D01*
X0331170Y0171971D01*
X0331694Y0171971D01*
X0331170Y0171971D01*
X0330645Y0172496D01*
X0330645Y0173021D01*
X0331170Y0173545D01*
X0332219Y0173545D01*
X0332744Y0173021D01*
X0329595Y0170922D02*
X0329071Y0170397D01*
X0328021Y0170397D01*
X0327496Y0170922D01*
X0327496Y0173021D01*
X0328021Y0173545D01*
X0329071Y0173545D01*
X0329595Y0173021D01*
X0329595Y0170922D01*
M02*
