G75*
G70*
%OFA0B0*%
%FSLAX25Y25*%
%IPPOS*%
%LPD*%
%AMOC8*
5,1,8,0,0,1.08239X$1,22.5*
%
%AMM10*
21,1,0.040950,0.030320,-0.000000,0.000000,270.000000*
21,1,0.028350,0.042910,-0.000000,0.000000,270.000000*
1,1,0.012600,-0.015160,-0.014170*
1,1,0.012600,-0.015160,0.014170*
1,1,0.012600,0.015160,0.014170*
1,1,0.012600,0.015160,-0.014170*
%
%AMM11*
21,1,0.038980,0.026770,-0.000000,0.000000,90.000000*
21,1,0.026770,0.038980,-0.000000,0.000000,90.000000*
1,1,0.012210,0.013390,0.013390*
1,1,0.012210,0.013390,-0.013390*
1,1,0.012210,-0.013390,-0.013390*
1,1,0.012210,-0.013390,0.013390*
%
%AMM12*
21,1,0.033070,0.030710,-0.000000,0.000000,270.000000*
21,1,0.022050,0.041730,-0.000000,0.000000,270.000000*
1,1,0.011020,-0.015350,-0.011020*
1,1,0.011020,-0.015350,0.011020*
1,1,0.011020,0.015350,0.011020*
1,1,0.011020,0.015350,-0.011020*
%
%AMM22*
21,1,0.040950,0.030320,0.000000,-0.000000,90.000000*
21,1,0.028350,0.042910,0.000000,-0.000000,90.000000*
1,1,0.012600,0.015160,0.014170*
1,1,0.012600,0.015160,-0.014170*
1,1,0.012600,-0.015160,-0.014170*
1,1,0.012600,-0.015160,0.014170*
%
%AMM23*
21,1,0.038980,0.026770,0.000000,-0.000000,270.000000*
21,1,0.026770,0.038980,0.000000,-0.000000,270.000000*
1,1,0.012210,-0.013390,-0.013390*
1,1,0.012210,-0.013390,0.013390*
1,1,0.012210,0.013390,0.013390*
1,1,0.012210,0.013390,-0.013390*
%
%AMM24*
21,1,0.033070,0.030710,0.000000,-0.000000,90.000000*
21,1,0.022050,0.041730,0.000000,-0.000000,90.000000*
1,1,0.011020,0.015350,0.011020*
1,1,0.011020,0.015350,-0.011020*
1,1,0.011020,-0.015350,-0.011020*
1,1,0.011020,-0.015350,0.011020*
%
%ADD10C,0.00787*%
%ADD120M10*%
%ADD121O,0.02913X0.09213*%
%ADD122M11*%
%ADD123M12*%
%ADD133M22*%
%ADD134M23*%
%ADD135M24*%
%ADD15C,0.09449*%
%ADD45C,0.16733*%
%ADD46C,0.06751*%
%ADD47C,0.06001*%
%ADD48C,0.06501*%
%ADD49C,0.07875*%
%ADD50O,0.06694X0.06694*%
%ADD51O,0.00985X0.01969*%
%ADD52O,0.01969X0.00985*%
%ADD53C,0.02363*%
%ADD54O,0.07678X0.06694*%
%ADD68R,0.07500X0.07874*%
%ADD69O,0.07500X0.07874*%
%ADD70R,0.03543X0.03150*%
%ADD71R,0.05709X0.01772*%
%ADD72R,0.04724X0.08661*%
%ADD73R,0.22835X0.25197*%
%ADD74R,0.04803X0.02559*%
%ADD75R,0.03150X0.03543*%
%ADD76C,0.03100*%
%ADD78C,0.03900*%
%ADD92O,0.02520X0.01535*%
%ADD93O,0.01535X0.02520*%
%ADD98C,0.02913*%
X0000000Y0000000D02*
%LPD*%
G01*
D10*
X0000000Y0005000D02*
X0000000Y0542693D01*
X0505989Y0589000D02*
X0046272Y0589000D01*
X0046272Y0589000D02*
X0000000Y0542693D01*
X0550000Y0005000D02*
X0550000Y0542693D01*
X0545000Y0000000D02*
G75*
G03*
X0550000Y0005000I0000000J0005000D01*
G01*
X0032875Y0545250D02*
G75*
G03*
X0032875Y0545250I-009375J0000000D01*
G01*
X0505989Y0589000D02*
X0550000Y0542693D01*
X0000000Y0005000D02*
G75*
G03*
X0005000Y0000000I0005000J0000000D01*
G01*
X0545000Y0000000D02*
X0005000Y0000000D01*
X0535405Y0545250D02*
G75*
G03*
X0535405Y0545250I-009375J0000000D01*
G01*
D45*
X0487106Y0569917D03*
X0064889Y0569917D03*
X0276000Y0512279D03*
D46*
X0468296Y0576019D03*
X0451797Y0576019D03*
X0435298Y0576019D03*
X0418799Y0576019D03*
X0402299Y0576019D03*
X0385800Y0576019D03*
X0369301Y0576019D03*
X0352802Y0576019D03*
X0336303Y0576019D03*
X0319803Y0576019D03*
X0243410Y0576019D03*
X0226910Y0576019D03*
X0210411Y0576019D03*
X0193912Y0576019D03*
X0177413Y0576019D03*
X0160914Y0576019D03*
X0144414Y0576019D03*
X0127915Y0576019D03*
X0111416Y0576019D03*
X0094917Y0576019D03*
X0462721Y0564110D03*
X0446222Y0564110D03*
X0429723Y0564110D03*
X0413224Y0564110D03*
X0396725Y0564110D03*
X0380225Y0564110D03*
X0363726Y0564110D03*
X0347227Y0564110D03*
X0330728Y0564110D03*
X0314229Y0564110D03*
X0237835Y0564110D03*
X0221336Y0564110D03*
X0204836Y0564110D03*
X0188337Y0564110D03*
X0171838Y0564110D03*
X0155339Y0564110D03*
X0138840Y0564110D03*
X0122340Y0564110D03*
X0105841Y0564110D03*
X0089342Y0564110D03*
X0457147Y0552200D03*
X0440647Y0552200D03*
X0424148Y0552200D03*
X0407649Y0552200D03*
X0391150Y0552200D03*
X0374651Y0552200D03*
X0358151Y0552200D03*
X0341652Y0552200D03*
X0325153Y0552200D03*
X0308654Y0552200D03*
X0232260Y0552200D03*
X0215761Y0552200D03*
X0199262Y0552200D03*
X0182762Y0552200D03*
X0166263Y0552200D03*
X0149764Y0552200D03*
X0133265Y0552200D03*
X0116766Y0552200D03*
X0100266Y0552200D03*
X0083767Y0552200D03*
G36*
G01*
X0312531Y0167160D02*
X0312531Y0173160D01*
G75*
G02*
X0312532Y0173160I0000000J0000000D01*
G01*
X0318532Y0173160D01*
G75*
G02*
X0318532Y0173160I0000000J0000000D01*
G01*
X0318532Y0167160D01*
G75*
G02*
X0318532Y0167160I0000000J0000000D01*
G01*
X0312532Y0167160D01*
G75*
G02*
X0312531Y0167160I0000000J0000000D01*
G01*
G37*
D47*
X0315532Y0180160D03*
X0325532Y0170160D03*
X0325532Y0180160D03*
X0335532Y0170160D03*
X0335532Y0180160D03*
X0345532Y0170160D03*
X0345532Y0180160D03*
X0355532Y0170160D03*
X0355532Y0180160D03*
X0365532Y0170160D03*
X0365532Y0180160D03*
X0375532Y0170160D03*
X0375532Y0180160D03*
X0385532Y0170160D03*
X0385532Y0180160D03*
G36*
G01*
X0162112Y0167160D02*
X0162112Y0173160D01*
G75*
G02*
X0162112Y0173160I0000000J0000000D01*
G01*
X0168112Y0173160D01*
G75*
G02*
X0168112Y0173160I0000000J0000000D01*
G01*
X0168112Y0167160D01*
G75*
G02*
X0168112Y0167160I0000000J0000000D01*
G01*
X0162112Y0167160D01*
G75*
G02*
X0162112Y0167160I0000000J0000000D01*
G01*
G37*
X0165112Y0180160D03*
X0175112Y0170160D03*
X0175112Y0180160D03*
X0185112Y0170160D03*
X0185112Y0180160D03*
X0195112Y0170160D03*
X0195112Y0180160D03*
X0205112Y0170160D03*
X0205112Y0180160D03*
X0215112Y0170160D03*
X0215112Y0180160D03*
X0225112Y0170160D03*
X0225112Y0180160D03*
X0235112Y0170160D03*
X0235112Y0180160D03*
D48*
X0497800Y0531110D03*
X0487800Y0531110D03*
X0477800Y0531110D03*
D49*
X0035508Y0229524D03*
X0106768Y0485036D03*
X0106768Y0223618D03*
X0181571Y0495272D03*
X0374091Y0424012D03*
X0514248Y0479130D03*
X0175666Y0424012D03*
X0442988Y0485036D03*
X0368185Y0495272D03*
X0514248Y0229524D03*
X0442988Y0223618D03*
X0035508Y0479130D03*
D15*
X0062280Y0440941D03*
X0062280Y0425193D03*
X0062280Y0409445D03*
X0062280Y0393697D03*
X0062280Y0377949D03*
X0062280Y0362201D03*
X0062280Y0346453D03*
X0062280Y0330705D03*
X0062280Y0314957D03*
X0062280Y0299209D03*
X0062280Y0283461D03*
X0062280Y0267713D03*
X0078028Y0433067D03*
X0078028Y0417319D03*
X0078028Y0401571D03*
X0078028Y0385823D03*
X0078028Y0370075D03*
X0078028Y0354327D03*
X0078028Y0338579D03*
X0078028Y0322831D03*
X0078028Y0307083D03*
X0078028Y0291335D03*
X0078028Y0275587D03*
X0093776Y0440941D03*
X0093776Y0425193D03*
X0093776Y0409445D03*
X0093776Y0393697D03*
X0093776Y0377949D03*
X0093776Y0362201D03*
X0093776Y0346453D03*
X0093776Y0330705D03*
X0093776Y0314957D03*
X0093776Y0299209D03*
X0093776Y0283461D03*
X0093776Y0267713D03*
X0329996Y0468500D03*
X0314248Y0468500D03*
X0298500Y0468500D03*
X0282752Y0468500D03*
X0267004Y0468500D03*
X0251256Y0468500D03*
X0235508Y0468500D03*
X0219760Y0468500D03*
X0322122Y0452752D03*
X0306374Y0452752D03*
X0290626Y0452752D03*
X0274878Y0452752D03*
X0259130Y0452752D03*
X0243382Y0452752D03*
X0227634Y0452752D03*
X0329996Y0437004D03*
X0314248Y0437004D03*
X0298500Y0437004D03*
X0282752Y0437004D03*
X0267004Y0437004D03*
X0251256Y0437004D03*
X0235508Y0437004D03*
X0219760Y0437004D03*
X0487477Y0267713D03*
X0487477Y0283461D03*
X0487477Y0299209D03*
X0487477Y0314957D03*
X0487477Y0330705D03*
X0487477Y0346453D03*
X0487477Y0362201D03*
X0487477Y0377949D03*
X0487477Y0393697D03*
X0487477Y0409445D03*
X0487477Y0425193D03*
X0487477Y0440941D03*
X0471729Y0275587D03*
X0471729Y0291335D03*
X0471729Y0307083D03*
X0471729Y0322831D03*
X0471729Y0338579D03*
X0471729Y0354327D03*
X0471729Y0370075D03*
X0471729Y0385823D03*
X0471729Y0401571D03*
X0471729Y0417319D03*
X0471729Y0433067D03*
X0455980Y0267713D03*
X0455980Y0283461D03*
X0455980Y0299209D03*
X0455980Y0314957D03*
X0455980Y0330705D03*
X0455980Y0346453D03*
X0455980Y0362201D03*
X0455980Y0377949D03*
X0455980Y0393697D03*
X0455980Y0409445D03*
X0455980Y0425193D03*
X0455980Y0440941D03*
G36*
G01*
X0182847Y0127153D02*
X0176154Y0127153D01*
G75*
G02*
X0176153Y0127154I0000000J0000000D01*
G01*
X0176153Y0133847D01*
G75*
G02*
X0176154Y0133847I0000000J0000000D01*
G01*
X0182847Y0133847D01*
G75*
G02*
X0182847Y0133847I0000000J0000000D01*
G01*
X0182847Y0127154D01*
G75*
G02*
X0182847Y0127153I0000000J0000000D01*
G01*
G37*
D50*
X0189500Y0130500D03*
X0199500Y0130500D03*
X0209500Y0130500D03*
X0219500Y0130500D03*
X0229500Y0130500D03*
D51*
X0281625Y0066577D03*
D52*
X0281822Y0107325D03*
X0281822Y0105356D03*
D53*
X0285956Y0079569D03*
X0288022Y0083014D03*
X0290975Y0078388D03*
X0304952Y0078683D03*
G36*
G01*
X0042646Y0136670D02*
X0048354Y0136670D01*
G75*
G02*
X0049339Y0135685I0000000J-000985D01*
G01*
X0049339Y0130961D01*
G75*
G02*
X0048354Y0129976I-000985J0000000D01*
G01*
X0042646Y0129976D01*
G75*
G02*
X0041661Y0130961I0000000J0000985D01*
G01*
X0041661Y0135685D01*
G75*
G02*
X0042646Y0136670I0000985J0000000D01*
G01*
G37*
D54*
X0045500Y0123480D03*
X0045500Y0113638D03*
X0045500Y0103795D03*
X0045500Y0093953D03*
X0045500Y0084110D03*
X0045500Y0074268D03*
X0045500Y0064425D03*
X0045500Y0054583D03*
X0045500Y0044740D03*
D51*
X0270375Y0108408D03*
D52*
X0270179Y0067660D03*
X0270179Y0069628D03*
D53*
X0266045Y0095416D03*
X0263978Y0091971D03*
X0261025Y0096597D03*
X0247049Y0096301D03*
G36*
G01*
X0372654Y0049347D02*
X0379347Y0049347D01*
G75*
G02*
X0379347Y0049347I0000000J0000000D01*
G01*
X0379347Y0042654D01*
G75*
G02*
X0379347Y0042653I0000000J0000000D01*
G01*
X0372654Y0042653D01*
G75*
G02*
X0372653Y0042654I0000000J0000000D01*
G01*
X0372653Y0049347D01*
G75*
G02*
X0372654Y0049347I0000000J0000000D01*
G01*
G37*
D50*
X0366000Y0046000D03*
X0356000Y0046000D03*
X0346000Y0046000D03*
X0336000Y0046000D03*
X0326000Y0046000D03*
G36*
G01*
X0507354Y0041394D02*
X0501646Y0041394D01*
G75*
G02*
X0500661Y0042378I0000000J0000985D01*
G01*
X0500661Y0047103D01*
G75*
G02*
X0501646Y0048087I0000985J0000000D01*
G01*
X0507354Y0048087D01*
G75*
G02*
X0508339Y0047103I0000000J-000985D01*
G01*
X0508339Y0042378D01*
G75*
G02*
X0507354Y0041394I-000985J0000000D01*
G01*
G37*
D54*
X0504500Y0054583D03*
X0504500Y0064425D03*
X0504500Y0074268D03*
X0504500Y0084110D03*
X0504500Y0093953D03*
X0504500Y0103795D03*
X0504500Y0113638D03*
X0504500Y0123480D03*
X0504500Y0133323D03*
X0315126Y0195602D02*
%LPD*%
G01*
D68*
X0174417Y0144027D03*
D69*
X0184417Y0144027D03*
X0194417Y0144027D03*
G36*
G01*
X0246533Y0159303D02*
X0247892Y0159303D01*
G75*
G02*
X0248472Y0158722I0000000J-000581D01*
G01*
X0248472Y0157561D01*
G75*
G02*
X0247892Y0156980I-000581J0000000D01*
G01*
X0246533Y0156980D01*
G75*
G02*
X0245953Y0157561I0000000J0000581D01*
G01*
X0245953Y0158722D01*
G75*
G02*
X0246533Y0159303I0000581J0000000D01*
G01*
G37*
G36*
G01*
X0246533Y0155484D02*
X0247892Y0155484D01*
G75*
G02*
X0248472Y0154903I0000000J-000581D01*
G01*
X0248472Y0153742D01*
G75*
G02*
X0247892Y0153161I-000581J0000000D01*
G01*
X0246533Y0153161D01*
G75*
G02*
X0245953Y0153742I0000000J0000581D01*
G01*
X0245953Y0154903D01*
G75*
G02*
X0246533Y0155484I0000581J0000000D01*
G01*
G37*
G36*
G01*
X0211711Y0183960D02*
X0211711Y0185319D01*
G75*
G02*
X0212291Y0185899I0000581J0000000D01*
G01*
X0213453Y0185899D01*
G75*
G02*
X0214033Y0185319I0000000J-000581D01*
G01*
X0214033Y0183960D01*
G75*
G02*
X0213453Y0183380I-000581J0000000D01*
G01*
X0212291Y0183380D01*
G75*
G02*
X0211711Y0183960I0000000J0000581D01*
G01*
G37*
G36*
G01*
X0215530Y0183960D02*
X0215530Y0185319D01*
G75*
G02*
X0216110Y0185899I0000581J0000000D01*
G01*
X0217272Y0185899D01*
G75*
G02*
X0217852Y0185319I0000000J-000581D01*
G01*
X0217852Y0183960D01*
G75*
G02*
X0217272Y0183380I-000581J0000000D01*
G01*
X0216110Y0183380D01*
G75*
G02*
X0215530Y0183960I0000000J0000581D01*
G01*
G37*
G36*
G01*
X0209102Y0159069D02*
X0209102Y0157710D01*
G75*
G02*
X0208522Y0157130I-000581J0000000D01*
G01*
X0207360Y0157130D01*
G75*
G02*
X0206780Y0157710I0000000J0000581D01*
G01*
X0206780Y0159069D01*
G75*
G02*
X0207360Y0159649I0000581J0000000D01*
G01*
X0208522Y0159649D01*
G75*
G02*
X0209102Y0159069I0000000J-000581D01*
G01*
G37*
G36*
G01*
X0205283Y0159069D02*
X0205283Y0157710D01*
G75*
G02*
X0204703Y0157130I-000581J0000000D01*
G01*
X0203541Y0157130D01*
G75*
G02*
X0202961Y0157710I0000000J0000581D01*
G01*
X0202961Y0159069D01*
G75*
G02*
X0203541Y0159649I0000581J0000000D01*
G01*
X0204703Y0159649D01*
G75*
G02*
X0205283Y0159069I0000000J-000581D01*
G01*
G37*
G36*
G01*
X0309126Y0175450D02*
X0309126Y0174092D01*
G75*
G02*
X0308545Y0173511I-000581J0000000D01*
G01*
X0307384Y0173511D01*
G75*
G02*
X0306803Y0174092I0000000J0000581D01*
G01*
X0306803Y0175450D01*
G75*
G02*
X0307384Y0176031I0000581J0000000D01*
G01*
X0308545Y0176031D01*
G75*
G02*
X0309126Y0175450I0000000J-000581D01*
G01*
G37*
G36*
G01*
X0305307Y0175450D02*
X0305307Y0174092D01*
G75*
G02*
X0304726Y0173511I-000581J0000000D01*
G01*
X0303565Y0173511D01*
G75*
G02*
X0302984Y0174092I0000000J0000581D01*
G01*
X0302984Y0175450D01*
G75*
G02*
X0303565Y0176031I0000581J0000000D01*
G01*
X0304726Y0176031D01*
G75*
G02*
X0305307Y0175450I0000000J-000581D01*
G01*
G37*
G36*
G01*
X0295564Y0161448D02*
X0293546Y0161448D01*
G75*
G02*
X0292685Y0162310I0000000J0000861D01*
G01*
X0292685Y0164032D01*
G75*
G02*
X0293546Y0164893I0000861J0000000D01*
G01*
X0295564Y0164893D01*
G75*
G02*
X0296425Y0164032I0000000J-000861D01*
G01*
X0296425Y0162310D01*
G75*
G02*
X0295564Y0161448I-000861J0000000D01*
G01*
G37*
G36*
G01*
X0295564Y0167649D02*
X0293546Y0167649D01*
G75*
G02*
X0292685Y0168510I0000000J0000861D01*
G01*
X0292685Y0170233D01*
G75*
G02*
X0293546Y0171094I0000861J0000000D01*
G01*
X0295564Y0171094D01*
G75*
G02*
X0296425Y0170233I0000000J-000861D01*
G01*
X0296425Y0168510D01*
G75*
G02*
X0295564Y0167649I-000861J0000000D01*
G01*
G37*
G36*
G01*
X0224854Y0158398D02*
X0224854Y0156381D01*
G75*
G02*
X0223993Y0155519I-000861J0000000D01*
G01*
X0222271Y0155519D01*
G75*
G02*
X0221409Y0156381I0000000J0000861D01*
G01*
X0221409Y0158398D01*
G75*
G02*
X0222271Y0159259I0000861J0000000D01*
G01*
X0223993Y0159259D01*
G75*
G02*
X0224854Y0158398I0000000J-000861D01*
G01*
G37*
G36*
G01*
X0218654Y0158398D02*
X0218654Y0156381D01*
G75*
G02*
X0217792Y0155519I-000861J0000000D01*
G01*
X0216070Y0155519D01*
G75*
G02*
X0215209Y0156381I0000000J0000861D01*
G01*
X0215209Y0158398D01*
G75*
G02*
X0216070Y0159259I0000861J0000000D01*
G01*
X0217792Y0159259D01*
G75*
G02*
X0218654Y0158398I0000000J-000861D01*
G01*
G37*
G36*
G01*
X0219461Y0183960D02*
X0219461Y0185319D01*
G75*
G02*
X0220041Y0185899I0000581J0000000D01*
G01*
X0221203Y0185899D01*
G75*
G02*
X0221783Y0185319I0000000J-000581D01*
G01*
X0221783Y0183960D01*
G75*
G02*
X0221203Y0183380I-000581J0000000D01*
G01*
X0220041Y0183380D01*
G75*
G02*
X0219461Y0183960I0000000J0000581D01*
G01*
G37*
G36*
G01*
X0223280Y0183960D02*
X0223280Y0185319D01*
G75*
G02*
X0223860Y0185899I0000581J0000000D01*
G01*
X0225022Y0185899D01*
G75*
G02*
X0225602Y0185319I0000000J-000581D01*
G01*
X0225602Y0183960D01*
G75*
G02*
X0225022Y0183380I-000581J0000000D01*
G01*
X0223860Y0183380D01*
G75*
G02*
X0223280Y0183960I0000000J0000581D01*
G01*
G37*
G36*
G01*
X0207352Y0167460D02*
X0208711Y0167460D01*
G75*
G02*
X0209291Y0166880I0000000J-000581D01*
G01*
X0209291Y0165718D01*
G75*
G02*
X0208711Y0165137I-000581J0000000D01*
G01*
X0207352Y0165137D01*
G75*
G02*
X0206772Y0165718I0000000J0000581D01*
G01*
X0206772Y0166880D01*
G75*
G02*
X0207352Y0167460I0000581J0000000D01*
G01*
G37*
G36*
G01*
X0207352Y0163641D02*
X0208711Y0163641D01*
G75*
G02*
X0209291Y0163061I0000000J-000581D01*
G01*
X0209291Y0161899D01*
G75*
G02*
X0208711Y0161319I-000581J0000000D01*
G01*
X0207352Y0161319D01*
G75*
G02*
X0206772Y0161899I0000000J0000581D01*
G01*
X0206772Y0163061D01*
G75*
G02*
X0207352Y0163641I0000581J0000000D01*
G01*
G37*
G36*
G01*
X0213640Y0145484D02*
X0212282Y0145484D01*
G75*
G02*
X0211701Y0146065I0000000J0000581D01*
G01*
X0211701Y0147226D01*
G75*
G02*
X0212282Y0147807I0000581J0000000D01*
G01*
X0213640Y0147807D01*
G75*
G02*
X0214220Y0147226I0000000J-000581D01*
G01*
X0214220Y0146065D01*
G75*
G02*
X0213640Y0145484I-000581J0000000D01*
G01*
G37*
G36*
G01*
X0213640Y0149303D02*
X0212282Y0149303D01*
G75*
G02*
X0211701Y0149883I0000000J0000581D01*
G01*
X0211701Y0151045D01*
G75*
G02*
X0212282Y0151626I0000581J0000000D01*
G01*
X0213640Y0151626D01*
G75*
G02*
X0214220Y0151045I0000000J-000581D01*
G01*
X0214220Y0149883D01*
G75*
G02*
X0213640Y0149303I-000581J0000000D01*
G01*
G37*
G36*
G01*
X0218197Y0142147D02*
X0218197Y0140789D01*
G75*
G02*
X0217616Y0140208I-000581J0000000D01*
G01*
X0216455Y0140208D01*
G75*
G02*
X0215874Y0140789I0000000J0000581D01*
G01*
X0215874Y0142147D01*
G75*
G02*
X0216455Y0142728I0000581J0000000D01*
G01*
X0217616Y0142728D01*
G75*
G02*
X0218197Y0142147I0000000J-000581D01*
G01*
G37*
G36*
G01*
X0214378Y0142147D02*
X0214378Y0140789D01*
G75*
G02*
X0213797Y0140208I-000581J0000000D01*
G01*
X0212636Y0140208D01*
G75*
G02*
X0212055Y0140789I0000000J0000581D01*
G01*
X0212055Y0142147D01*
G75*
G02*
X0212636Y0142728I0000581J0000000D01*
G01*
X0213797Y0142728D01*
G75*
G02*
X0214378Y0142147I0000000J-000581D01*
G01*
G37*
G36*
G01*
X0243000Y0140966D02*
X0243000Y0139608D01*
G75*
G02*
X0242419Y0139027I-000581J0000000D01*
G01*
X0241258Y0139027D01*
G75*
G02*
X0240677Y0139608I0000000J0000581D01*
G01*
X0240677Y0140966D01*
G75*
G02*
X0241258Y0141547I0000581J0000000D01*
G01*
X0242419Y0141547D01*
G75*
G02*
X0243000Y0140966I0000000J-000581D01*
G01*
G37*
G36*
G01*
X0239181Y0140966D02*
X0239181Y0139608D01*
G75*
G02*
X0238600Y0139027I-000581J0000000D01*
G01*
X0237439Y0139027D01*
G75*
G02*
X0236858Y0139608I0000000J0000581D01*
G01*
X0236858Y0140966D01*
G75*
G02*
X0237439Y0141547I0000581J0000000D01*
G01*
X0238600Y0141547D01*
G75*
G02*
X0239181Y0140966I0000000J-000581D01*
G01*
G37*
G36*
G01*
X0227211Y0183960D02*
X0227211Y0185319D01*
G75*
G02*
X0227791Y0185899I0000581J0000000D01*
G01*
X0228953Y0185899D01*
G75*
G02*
X0229533Y0185319I0000000J-000581D01*
G01*
X0229533Y0183960D01*
G75*
G02*
X0228953Y0183380I-000581J0000000D01*
G01*
X0227791Y0183380D01*
G75*
G02*
X0227211Y0183960I0000000J0000581D01*
G01*
G37*
G36*
G01*
X0231030Y0183960D02*
X0231030Y0185319D01*
G75*
G02*
X0231610Y0185899I0000581J0000000D01*
G01*
X0232772Y0185899D01*
G75*
G02*
X0233352Y0185319I0000000J-000581D01*
G01*
X0233352Y0183960D01*
G75*
G02*
X0232772Y0183380I-000581J0000000D01*
G01*
X0231610Y0183380D01*
G75*
G02*
X0231030Y0183960I0000000J0000581D01*
G01*
G37*
G36*
G01*
X0234961Y0183960D02*
X0234961Y0185319D01*
G75*
G02*
X0235541Y0185899I0000581J0000000D01*
G01*
X0236703Y0185899D01*
G75*
G02*
X0237283Y0185319I0000000J-000581D01*
G01*
X0237283Y0183960D01*
G75*
G02*
X0236703Y0183380I-000581J0000000D01*
G01*
X0235541Y0183380D01*
G75*
G02*
X0234961Y0183960I0000000J0000581D01*
G01*
G37*
G36*
G01*
X0238780Y0183960D02*
X0238780Y0185319D01*
G75*
G02*
X0239360Y0185899I0000581J0000000D01*
G01*
X0240522Y0185899D01*
G75*
G02*
X0241102Y0185319I0000000J-000581D01*
G01*
X0241102Y0183960D01*
G75*
G02*
X0240522Y0183380I-000581J0000000D01*
G01*
X0239360Y0183380D01*
G75*
G02*
X0238780Y0183960I0000000J0000581D01*
G01*
G37*
G36*
G01*
X0211352Y0159460D02*
X0212711Y0159460D01*
G75*
G02*
X0213291Y0158880I0000000J-000581D01*
G01*
X0213291Y0157718D01*
G75*
G02*
X0212711Y0157137I-000581J0000000D01*
G01*
X0211352Y0157137D01*
G75*
G02*
X0210772Y0157718I0000000J0000581D01*
G01*
X0210772Y0158880D01*
G75*
G02*
X0211352Y0159460I0000581J0000000D01*
G01*
G37*
G36*
G01*
X0211352Y0155641D02*
X0212711Y0155641D01*
G75*
G02*
X0213291Y0155061I0000000J-000581D01*
G01*
X0213291Y0153899D01*
G75*
G02*
X0212711Y0153319I-000581J0000000D01*
G01*
X0211352Y0153319D01*
G75*
G02*
X0210772Y0153899I0000000J0000581D01*
G01*
X0210772Y0155061D01*
G75*
G02*
X0211352Y0155641I0000581J0000000D01*
G01*
G37*
D70*
X0301118Y0169411D03*
X0301118Y0161931D03*
X0308992Y0165671D03*
D71*
X0237646Y0163712D03*
X0237646Y0166271D03*
X0237646Y0168830D03*
X0237646Y0171389D03*
X0237646Y0173948D03*
X0237646Y0176508D03*
X0237646Y0179067D03*
X0214417Y0179067D03*
X0214417Y0176508D03*
X0214417Y0173948D03*
X0214417Y0171389D03*
X0214417Y0168830D03*
X0214417Y0166271D03*
X0214417Y0163712D03*
G36*
G01*
X0203352Y0167460D02*
X0204711Y0167460D01*
G75*
G02*
X0205291Y0166880I0000000J-000581D01*
G01*
X0205291Y0165718D01*
G75*
G02*
X0204711Y0165137I-000581J0000000D01*
G01*
X0203352Y0165137D01*
G75*
G02*
X0202772Y0165718I0000000J0000581D01*
G01*
X0202772Y0166880D01*
G75*
G02*
X0203352Y0167460I0000581J0000000D01*
G01*
G37*
G36*
G01*
X0203352Y0163641D02*
X0204711Y0163641D01*
G75*
G02*
X0205291Y0163061I0000000J-000581D01*
G01*
X0205291Y0161899D01*
G75*
G02*
X0204711Y0161319I-000581J0000000D01*
G01*
X0203352Y0161319D01*
G75*
G02*
X0202772Y0161899I0000000J0000581D01*
G01*
X0202772Y0163061D01*
G75*
G02*
X0203352Y0163641I0000581J0000000D01*
G01*
G37*
G36*
G01*
X0250480Y0144706D02*
X0250480Y0143348D01*
G75*
G02*
X0249900Y0142767I-000581J0000000D01*
G01*
X0248738Y0142767D01*
G75*
G02*
X0248157Y0143348I0000000J0000581D01*
G01*
X0248157Y0144706D01*
G75*
G02*
X0248738Y0145287I0000581J0000000D01*
G01*
X0249900Y0145287D01*
G75*
G02*
X0250480Y0144706I0000000J-000581D01*
G01*
G37*
G36*
G01*
X0246661Y0144706D02*
X0246661Y0143348D01*
G75*
G02*
X0246081Y0142767I-000581J0000000D01*
G01*
X0244919Y0142767D01*
G75*
G02*
X0244339Y0143348I0000000J0000581D01*
G01*
X0244339Y0144706D01*
G75*
G02*
X0244919Y0145287I0000581J0000000D01*
G01*
X0246081Y0145287D01*
G75*
G02*
X0246661Y0144706I0000000J-000581D01*
G01*
G37*
G36*
G01*
X0244339Y0139608D02*
X0244339Y0140966D01*
G75*
G02*
X0244919Y0141547I0000581J0000000D01*
G01*
X0246081Y0141547D01*
G75*
G02*
X0246661Y0140966I0000000J-000581D01*
G01*
X0246661Y0139608D01*
G75*
G02*
X0246081Y0139027I-000581J0000000D01*
G01*
X0244919Y0139027D01*
G75*
G02*
X0244339Y0139608I0000000J0000581D01*
G01*
G37*
G36*
G01*
X0248157Y0139608D02*
X0248157Y0140966D01*
G75*
G02*
X0248738Y0141547I0000581J0000000D01*
G01*
X0249900Y0141547D01*
G75*
G02*
X0250480Y0140966I0000000J-000581D01*
G01*
X0250480Y0139608D01*
G75*
G02*
X0249900Y0139027I-000581J0000000D01*
G01*
X0248738Y0139027D01*
G75*
G02*
X0248157Y0139608I0000000J0000581D01*
G01*
G37*
G36*
G01*
X0247892Y0160641D02*
X0246533Y0160641D01*
G75*
G02*
X0245953Y0161222I0000000J0000581D01*
G01*
X0245953Y0162383D01*
G75*
G02*
X0246533Y0162964I0000581J0000000D01*
G01*
X0247892Y0162964D01*
G75*
G02*
X0248472Y0162383I0000000J-000581D01*
G01*
X0248472Y0161222D01*
G75*
G02*
X0247892Y0160641I-000581J0000000D01*
G01*
G37*
G36*
G01*
X0247892Y0164460D02*
X0246533Y0164460D01*
G75*
G02*
X0245953Y0165041I0000000J0000581D01*
G01*
X0245953Y0166202D01*
G75*
G02*
X0246533Y0166783I0000581J0000000D01*
G01*
X0247892Y0166783D01*
G75*
G02*
X0248472Y0166202I0000000J-000581D01*
G01*
X0248472Y0165041D01*
G75*
G02*
X0247892Y0164460I-000581J0000000D01*
G01*
G37*
G36*
G01*
X0201455Y0150445D02*
X0202813Y0150445D01*
G75*
G02*
X0203394Y0149864I0000000J-000581D01*
G01*
X0203394Y0148702D01*
G75*
G02*
X0202813Y0148122I-000581J0000000D01*
G01*
X0201455Y0148122D01*
G75*
G02*
X0200874Y0148702I0000000J0000581D01*
G01*
X0200874Y0149864D01*
G75*
G02*
X0201455Y0150445I0000581J0000000D01*
G01*
G37*
G36*
G01*
X0201455Y0146626D02*
X0202813Y0146626D01*
G75*
G02*
X0203394Y0146045I0000000J-000581D01*
G01*
X0203394Y0144883D01*
G75*
G02*
X0202813Y0144303I-000581J0000000D01*
G01*
X0201455Y0144303D01*
G75*
G02*
X0200874Y0144883I0000000J0000581D01*
G01*
X0200874Y0146045D01*
G75*
G02*
X0201455Y0146626I0000581J0000000D01*
G01*
G37*
G36*
G01*
X0276012Y0140966D02*
X0276012Y0139608D01*
G75*
G02*
X0275431Y0139027I-000581J0000000D01*
G01*
X0274270Y0139027D01*
G75*
G02*
X0273689Y0139608I0000000J0000581D01*
G01*
X0273689Y0140966D01*
G75*
G02*
X0274270Y0141547I0000581J0000000D01*
G01*
X0275431Y0141547D01*
G75*
G02*
X0276012Y0140966I0000000J-000581D01*
G01*
G37*
G36*
G01*
X0272193Y0140966D02*
X0272193Y0139608D01*
G75*
G02*
X0271612Y0139027I-000581J0000000D01*
G01*
X0270451Y0139027D01*
G75*
G02*
X0269870Y0139608I0000000J0000581D01*
G01*
X0269870Y0140966D01*
G75*
G02*
X0270451Y0141547I0000581J0000000D01*
G01*
X0271612Y0141547D01*
G75*
G02*
X0272193Y0140966I0000000J-000581D01*
G01*
G37*
G36*
G01*
X0252616Y0176783D02*
X0251258Y0176783D01*
G75*
G02*
X0250677Y0177364I0000000J0000581D01*
G01*
X0250677Y0178525D01*
G75*
G02*
X0251258Y0179106I0000581J0000000D01*
G01*
X0252616Y0179106D01*
G75*
G02*
X0253197Y0178525I0000000J-000581D01*
G01*
X0253197Y0177364D01*
G75*
G02*
X0252616Y0176783I-000581J0000000D01*
G01*
G37*
G36*
G01*
X0252616Y0180602D02*
X0251258Y0180602D01*
G75*
G02*
X0250677Y0181183I0000000J0000581D01*
G01*
X0250677Y0182344D01*
G75*
G02*
X0251258Y0182925I0000581J0000000D01*
G01*
X0252616Y0182925D01*
G75*
G02*
X0253197Y0182344I0000000J-000581D01*
G01*
X0253197Y0181183D01*
G75*
G02*
X0252616Y0180602I-000581J0000000D01*
G01*
G37*
G36*
G01*
X0287085Y0147689D02*
X0288443Y0147689D01*
G75*
G02*
X0289024Y0147108I0000000J-000581D01*
G01*
X0289024Y0145946D01*
G75*
G02*
X0288443Y0145366I-000581J0000000D01*
G01*
X0287085Y0145366D01*
G75*
G02*
X0286504Y0145946I0000000J0000581D01*
G01*
X0286504Y0147108D01*
G75*
G02*
X0287085Y0147689I0000581J0000000D01*
G01*
G37*
G36*
G01*
X0287085Y0143870D02*
X0288443Y0143870D01*
G75*
G02*
X0289024Y0143289I0000000J-000581D01*
G01*
X0289024Y0142128D01*
G75*
G02*
X0288443Y0141547I-000581J0000000D01*
G01*
X0287085Y0141547D01*
G75*
G02*
X0286504Y0142128I0000000J0000581D01*
G01*
X0286504Y0143289D01*
G75*
G02*
X0287085Y0143870I0000581J0000000D01*
G01*
G37*
D72*
X0195362Y0154657D03*
D73*
X0186386Y0179460D03*
D72*
X0177409Y0154657D03*
G36*
G01*
X0208610Y0188604D02*
X0208610Y0187246D01*
G75*
G02*
X0208030Y0186665I-000581J0000000D01*
G01*
X0206868Y0186665D01*
G75*
G02*
X0206287Y0187246I0000000J0000581D01*
G01*
X0206287Y0188604D01*
G75*
G02*
X0206868Y0189185I0000581J0000000D01*
G01*
X0208030Y0189185D01*
G75*
G02*
X0208610Y0188604I0000000J-000581D01*
G01*
G37*
G36*
G01*
X0204791Y0188604D02*
X0204791Y0187246D01*
G75*
G02*
X0204211Y0186665I-000581J0000000D01*
G01*
X0203049Y0186665D01*
G75*
G02*
X0202469Y0187246I0000000J0000581D01*
G01*
X0202469Y0188604D01*
G75*
G02*
X0203049Y0189185I0000581J0000000D01*
G01*
X0204211Y0189185D01*
G75*
G02*
X0204791Y0188604I0000000J-000581D01*
G01*
G37*
G36*
G01*
X0246730Y0182925D02*
X0248089Y0182925D01*
G75*
G02*
X0248669Y0182344I0000000J-000581D01*
G01*
X0248669Y0181183D01*
G75*
G02*
X0248089Y0180602I-000581J0000000D01*
G01*
X0246730Y0180602D01*
G75*
G02*
X0246150Y0181183I0000000J0000581D01*
G01*
X0246150Y0182344D01*
G75*
G02*
X0246730Y0182925I0000581J0000000D01*
G01*
G37*
G36*
G01*
X0246730Y0179106D02*
X0248089Y0179106D01*
G75*
G02*
X0248669Y0178525I0000000J-000581D01*
G01*
X0248669Y0177364D01*
G75*
G02*
X0248089Y0176783I-000581J0000000D01*
G01*
X0246730Y0176783D01*
G75*
G02*
X0246150Y0177364I0000000J0000581D01*
G01*
X0246150Y0178525D01*
G75*
G02*
X0246730Y0179106I0000581J0000000D01*
G01*
G37*
G36*
G01*
X0210382Y0142344D02*
X0210382Y0140986D01*
G75*
G02*
X0209801Y0140405I-000581J0000000D01*
G01*
X0208640Y0140405D01*
G75*
G02*
X0208059Y0140986I0000000J0000581D01*
G01*
X0208059Y0142344D01*
G75*
G02*
X0208640Y0142925I0000581J0000000D01*
G01*
X0209801Y0142925D01*
G75*
G02*
X0210382Y0142344I0000000J-000581D01*
G01*
G37*
G36*
G01*
X0206563Y0142344D02*
X0206563Y0140986D01*
G75*
G02*
X0205982Y0140405I-000581J0000000D01*
G01*
X0204821Y0140405D01*
G75*
G02*
X0204240Y0140986I0000000J0000581D01*
G01*
X0204240Y0142344D01*
G75*
G02*
X0204821Y0142925I0000581J0000000D01*
G01*
X0205982Y0142925D01*
G75*
G02*
X0206563Y0142344I0000000J-000581D01*
G01*
G37*
G36*
G01*
X0244211Y0175819D02*
X0242852Y0175819D01*
G75*
G02*
X0242272Y0176399I0000000J0000581D01*
G01*
X0242272Y0177561D01*
G75*
G02*
X0242852Y0178141I0000581J0000000D01*
G01*
X0244211Y0178141D01*
G75*
G02*
X0244791Y0177561I0000000J-000581D01*
G01*
X0244791Y0176399D01*
G75*
G02*
X0244211Y0175819I-000581J0000000D01*
G01*
G37*
G36*
G01*
X0244211Y0179637D02*
X0242852Y0179637D01*
G75*
G02*
X0242272Y0180218I0000000J0000581D01*
G01*
X0242272Y0181380D01*
G75*
G02*
X0242852Y0181960I0000581J0000000D01*
G01*
X0244211Y0181960D01*
G75*
G02*
X0244791Y0181380I0000000J-000581D01*
G01*
X0244791Y0180218D01*
G75*
G02*
X0244211Y0179637I-000581J0000000D01*
G01*
G37*
G36*
G01*
X0298315Y0175415D02*
X0298315Y0174057D01*
G75*
G02*
X0297734Y0173476I-000581J0000000D01*
G01*
X0296573Y0173476D01*
G75*
G02*
X0295992Y0174057I0000000J0000581D01*
G01*
X0295992Y0175415D01*
G75*
G02*
X0296573Y0175996I0000581J0000000D01*
G01*
X0297734Y0175996D01*
G75*
G02*
X0298315Y0175415I0000000J-000581D01*
G01*
G37*
G36*
G01*
X0294496Y0175415D02*
X0294496Y0174057D01*
G75*
G02*
X0293915Y0173476I-000581J0000000D01*
G01*
X0292754Y0173476D01*
G75*
G02*
X0292173Y0174057I0000000J0000581D01*
G01*
X0292173Y0175415D01*
G75*
G02*
X0292754Y0175996I0000581J0000000D01*
G01*
X0293915Y0175996D01*
G75*
G02*
X0294496Y0175415I0000000J-000581D01*
G01*
G37*
G36*
G01*
X0259209Y0185381D02*
X0259209Y0187398D01*
G75*
G02*
X0260070Y0188259I0000861J0000000D01*
G01*
X0261792Y0188259D01*
G75*
G02*
X0262654Y0187398I0000000J-000861D01*
G01*
X0262654Y0185381D01*
G75*
G02*
X0261792Y0184519I-000861J0000000D01*
G01*
X0260070Y0184519D01*
G75*
G02*
X0259209Y0185381I0000000J0000861D01*
G01*
G37*
G36*
G01*
X0265409Y0185381D02*
X0265409Y0187398D01*
G75*
G02*
X0266271Y0188259I0000861J0000000D01*
G01*
X0267993Y0188259D01*
G75*
G02*
X0268854Y0187398I0000000J-000861D01*
G01*
X0268854Y0185381D01*
G75*
G02*
X0267993Y0184519I-000861J0000000D01*
G01*
X0266271Y0184519D01*
G75*
G02*
X0265409Y0185381I0000000J0000861D01*
G01*
G37*
G36*
G01*
X0250961Y0185710D02*
X0250961Y0187069D01*
G75*
G02*
X0251541Y0187649I0000581J0000000D01*
G01*
X0252703Y0187649D01*
G75*
G02*
X0253283Y0187069I0000000J-000581D01*
G01*
X0253283Y0185710D01*
G75*
G02*
X0252703Y0185130I-000581J0000000D01*
G01*
X0251541Y0185130D01*
G75*
G02*
X0250961Y0185710I0000000J0000581D01*
G01*
G37*
G36*
G01*
X0254780Y0185710D02*
X0254780Y0187069D01*
G75*
G02*
X0255360Y0187649I0000581J0000000D01*
G01*
X0256522Y0187649D01*
G75*
G02*
X0257102Y0187069I0000000J-000581D01*
G01*
X0257102Y0185710D01*
G75*
G02*
X0256522Y0185130I-000581J0000000D01*
G01*
X0255360Y0185130D01*
G75*
G02*
X0254780Y0185710I0000000J0000581D01*
G01*
G37*
G36*
G01*
X0238461Y0157710D02*
X0238461Y0159069D01*
G75*
G02*
X0239041Y0159649I0000581J0000000D01*
G01*
X0240203Y0159649D01*
G75*
G02*
X0240783Y0159069I0000000J-000581D01*
G01*
X0240783Y0157710D01*
G75*
G02*
X0240203Y0157130I-000581J0000000D01*
G01*
X0239041Y0157130D01*
G75*
G02*
X0238461Y0157710I0000000J0000581D01*
G01*
G37*
G36*
G01*
X0242280Y0157710D02*
X0242280Y0159069D01*
G75*
G02*
X0242860Y0159649I0000581J0000000D01*
G01*
X0244022Y0159649D01*
G75*
G02*
X0244602Y0159069I0000000J-000581D01*
G01*
X0244602Y0157710D01*
G75*
G02*
X0244022Y0157130I-000581J0000000D01*
G01*
X0242860Y0157130D01*
G75*
G02*
X0242280Y0157710I0000000J0000581D01*
G01*
G37*
G36*
G01*
X0232711Y0153319D02*
X0231352Y0153319D01*
G75*
G02*
X0230772Y0153899I0000000J0000581D01*
G01*
X0230772Y0155061D01*
G75*
G02*
X0231352Y0155641I0000581J0000000D01*
G01*
X0232711Y0155641D01*
G75*
G02*
X0233291Y0155061I0000000J-000581D01*
G01*
X0233291Y0153899D01*
G75*
G02*
X0232711Y0153319I-000581J0000000D01*
G01*
G37*
G36*
G01*
X0232711Y0157137D02*
X0231352Y0157137D01*
G75*
G02*
X0230772Y0157718I0000000J0000581D01*
G01*
X0230772Y0158880D01*
G75*
G02*
X0231352Y0159460I0000581J0000000D01*
G01*
X0232711Y0159460D01*
G75*
G02*
X0233291Y0158880I0000000J-000581D01*
G01*
X0233291Y0157718D01*
G75*
G02*
X0232711Y0157137I-000581J0000000D01*
G01*
G37*
G36*
G01*
X0236474Y0153319D02*
X0235116Y0153319D01*
G75*
G02*
X0234535Y0153899I0000000J0000581D01*
G01*
X0234535Y0155061D01*
G75*
G02*
X0235116Y0155641I0000581J0000000D01*
G01*
X0236474Y0155641D01*
G75*
G02*
X0237055Y0155061I0000000J-000581D01*
G01*
X0237055Y0153899D01*
G75*
G02*
X0236474Y0153319I-000581J0000000D01*
G01*
G37*
G36*
G01*
X0236474Y0157137D02*
X0235116Y0157137D01*
G75*
G02*
X0234535Y0157718I0000000J0000581D01*
G01*
X0234535Y0158880D01*
G75*
G02*
X0235116Y0159460I0000581J0000000D01*
G01*
X0236474Y0159460D01*
G75*
G02*
X0237055Y0158880I0000000J-000581D01*
G01*
X0237055Y0157718D01*
G75*
G02*
X0236474Y0157137I-000581J0000000D01*
G01*
G37*
G36*
G01*
X0238461Y0153710D02*
X0238461Y0155069D01*
G75*
G02*
X0239041Y0155649I0000581J0000000D01*
G01*
X0240203Y0155649D01*
G75*
G02*
X0240783Y0155069I0000000J-000581D01*
G01*
X0240783Y0153710D01*
G75*
G02*
X0240203Y0153130I-000581J0000000D01*
G01*
X0239041Y0153130D01*
G75*
G02*
X0238461Y0153710I0000000J0000581D01*
G01*
G37*
G36*
G01*
X0242280Y0153710D02*
X0242280Y0155069D01*
G75*
G02*
X0242860Y0155649I0000581J0000000D01*
G01*
X0244022Y0155649D01*
G75*
G02*
X0244602Y0155069I0000000J-000581D01*
G01*
X0244602Y0153710D01*
G75*
G02*
X0244022Y0153130I-000581J0000000D01*
G01*
X0242860Y0153130D01*
G75*
G02*
X0242280Y0153710I0000000J0000581D01*
G01*
G37*
D74*
X0222370Y0149145D03*
X0222370Y0145405D03*
X0222370Y0141665D03*
X0232685Y0141665D03*
X0232685Y0149145D03*
G36*
G01*
X0228711Y0153319D02*
X0227352Y0153319D01*
G75*
G02*
X0226772Y0153899I0000000J0000581D01*
G01*
X0226772Y0155061D01*
G75*
G02*
X0227352Y0155641I0000581J0000000D01*
G01*
X0228711Y0155641D01*
G75*
G02*
X0229291Y0155061I0000000J-000581D01*
G01*
X0229291Y0153899D01*
G75*
G02*
X0228711Y0153319I-000581J0000000D01*
G01*
G37*
G36*
G01*
X0228711Y0157137D02*
X0227352Y0157137D01*
G75*
G02*
X0226772Y0157718I0000000J0000581D01*
G01*
X0226772Y0158880D01*
G75*
G02*
X0227352Y0159460I0000581J0000000D01*
G01*
X0228711Y0159460D01*
G75*
G02*
X0229291Y0158880I0000000J-000581D01*
G01*
X0229291Y0157718D01*
G75*
G02*
X0228711Y0157137I-000581J0000000D01*
G01*
G37*
G36*
G01*
X0217577Y0146271D02*
X0216219Y0146271D01*
G75*
G02*
X0215638Y0146852I0000000J0000581D01*
G01*
X0215638Y0148013D01*
G75*
G02*
X0216219Y0148594I0000581J0000000D01*
G01*
X0217577Y0148594D01*
G75*
G02*
X0218157Y0148013I0000000J-000581D01*
G01*
X0218157Y0146852D01*
G75*
G02*
X0217577Y0146271I-000581J0000000D01*
G01*
G37*
G36*
G01*
X0217577Y0150090D02*
X0216219Y0150090D01*
G75*
G02*
X0215638Y0150671I0000000J0000581D01*
G01*
X0215638Y0151832D01*
G75*
G02*
X0216219Y0152413I0000581J0000000D01*
G01*
X0217577Y0152413D01*
G75*
G02*
X0218157Y0151832I0000000J-000581D01*
G01*
X0218157Y0150671D01*
G75*
G02*
X0217577Y0150090I-000581J0000000D01*
G01*
G37*
G36*
G01*
X0204211Y0168819D02*
X0202852Y0168819D01*
G75*
G02*
X0202272Y0169399I0000000J0000581D01*
G01*
X0202272Y0170561D01*
G75*
G02*
X0202852Y0171141I0000581J0000000D01*
G01*
X0204211Y0171141D01*
G75*
G02*
X0204791Y0170561I0000000J-000581D01*
G01*
X0204791Y0169399D01*
G75*
G02*
X0204211Y0168819I-000581J0000000D01*
G01*
G37*
G36*
G01*
X0204211Y0172637D02*
X0202852Y0172637D01*
G75*
G02*
X0202272Y0173218I0000000J0000581D01*
G01*
X0202272Y0174380D01*
G75*
G02*
X0202852Y0174960I0000581J0000000D01*
G01*
X0204211Y0174960D01*
G75*
G02*
X0204791Y0174380I0000000J-000581D01*
G01*
X0204791Y0173218D01*
G75*
G02*
X0204211Y0172637I-000581J0000000D01*
G01*
G37*
G36*
G01*
X0206023Y0155212D02*
X0208040Y0155212D01*
G75*
G02*
X0208902Y0154351I0000000J-000861D01*
G01*
X0208902Y0152629D01*
G75*
G02*
X0208040Y0151767I-000861J0000000D01*
G01*
X0206023Y0151767D01*
G75*
G02*
X0205161Y0152629I0000000J0000861D01*
G01*
X0205161Y0154351D01*
G75*
G02*
X0206023Y0155212I0000861J0000000D01*
G01*
G37*
G36*
G01*
X0206023Y0149011D02*
X0208040Y0149011D01*
G75*
G02*
X0208902Y0148150I0000000J-000861D01*
G01*
X0208902Y0146428D01*
G75*
G02*
X0208040Y0145567I-000861J0000000D01*
G01*
X0206023Y0145567D01*
G75*
G02*
X0205161Y0146428I0000000J0000861D01*
G01*
X0205161Y0148150D01*
G75*
G02*
X0206023Y0149011I0000861J0000000D01*
G01*
G37*
G36*
G01*
X0208610Y0180336D02*
X0208610Y0178978D01*
G75*
G02*
X0208030Y0178397I-000581J0000000D01*
G01*
X0206868Y0178397D01*
G75*
G02*
X0206287Y0178978I0000000J0000581D01*
G01*
X0206287Y0180336D01*
G75*
G02*
X0206868Y0180917I0000581J0000000D01*
G01*
X0208030Y0180917D01*
G75*
G02*
X0208610Y0180336I0000000J-000581D01*
G01*
G37*
G36*
G01*
X0204791Y0180336D02*
X0204791Y0178978D01*
G75*
G02*
X0204211Y0178397I-000581J0000000D01*
G01*
X0203049Y0178397D01*
G75*
G02*
X0202469Y0178978I0000000J0000581D01*
G01*
X0202469Y0180336D01*
G75*
G02*
X0203049Y0180917I0000581J0000000D01*
G01*
X0204211Y0180917D01*
G75*
G02*
X0204791Y0180336I0000000J-000581D01*
G01*
G37*
G36*
G01*
X0202469Y0183112D02*
X0202469Y0184470D01*
G75*
G02*
X0203049Y0185051I0000581J0000000D01*
G01*
X0204211Y0185051D01*
G75*
G02*
X0204791Y0184470I0000000J-000581D01*
G01*
X0204791Y0183112D01*
G75*
G02*
X0204211Y0182531I-000581J0000000D01*
G01*
X0203049Y0182531D01*
G75*
G02*
X0202469Y0183112I0000000J0000581D01*
G01*
G37*
G36*
G01*
X0206287Y0183112D02*
X0206287Y0184470D01*
G75*
G02*
X0206868Y0185051I0000581J0000000D01*
G01*
X0208030Y0185051D01*
G75*
G02*
X0208610Y0184470I0000000J-000581D01*
G01*
X0208610Y0183112D01*
G75*
G02*
X0208030Y0182531I-000581J0000000D01*
G01*
X0206868Y0182531D01*
G75*
G02*
X0206287Y0183112I0000000J0000581D01*
G01*
G37*
G36*
G01*
X0280854Y0187398D02*
X0280854Y0185381D01*
G75*
G02*
X0279993Y0184519I-000861J0000000D01*
G01*
X0278271Y0184519D01*
G75*
G02*
X0277409Y0185381I0000000J0000861D01*
G01*
X0277409Y0187398D01*
G75*
G02*
X0278271Y0188259I0000861J0000000D01*
G01*
X0279993Y0188259D01*
G75*
G02*
X0280854Y0187398I0000000J-000861D01*
G01*
G37*
G36*
G01*
X0274654Y0187398D02*
X0274654Y0185381D01*
G75*
G02*
X0273792Y0184519I-000861J0000000D01*
G01*
X0272070Y0184519D01*
G75*
G02*
X0271209Y0185381I0000000J0000861D01*
G01*
X0271209Y0187398D01*
G75*
G02*
X0272070Y0188259I0000861J0000000D01*
G01*
X0273792Y0188259D01*
G75*
G02*
X0274654Y0187398I0000000J-000861D01*
G01*
G37*
G36*
G01*
X0284083Y0191950D02*
X0284083Y0190592D01*
G75*
G02*
X0283502Y0190011I-000581J0000000D01*
G01*
X0282341Y0190011D01*
G75*
G02*
X0281760Y0190592I0000000J0000581D01*
G01*
X0281760Y0191950D01*
G75*
G02*
X0282341Y0192531I0000581J0000000D01*
G01*
X0283502Y0192531D01*
G75*
G02*
X0284083Y0191950I0000000J-000581D01*
G01*
G37*
G36*
G01*
X0280264Y0191950D02*
X0280264Y0190592D01*
G75*
G02*
X0279683Y0190011I-000581J0000000D01*
G01*
X0278522Y0190011D01*
G75*
G02*
X0277941Y0190592I0000000J0000581D01*
G01*
X0277941Y0191950D01*
G75*
G02*
X0278522Y0192531I0000581J0000000D01*
G01*
X0279683Y0192531D01*
G75*
G02*
X0280264Y0191950I0000000J-000581D01*
G01*
G37*
G36*
G01*
X0236858Y0149844D02*
X0236858Y0151202D01*
G75*
G02*
X0237439Y0151783I0000581J0000000D01*
G01*
X0238600Y0151783D01*
G75*
G02*
X0239181Y0151202I0000000J-000581D01*
G01*
X0239181Y0149844D01*
G75*
G02*
X0238600Y0149263I-000581J0000000D01*
G01*
X0237439Y0149263D01*
G75*
G02*
X0236858Y0149844I0000000J0000581D01*
G01*
G37*
G36*
G01*
X0240677Y0149844D02*
X0240677Y0151202D01*
G75*
G02*
X0241258Y0151783I0000581J0000000D01*
G01*
X0242419Y0151783D01*
G75*
G02*
X0243000Y0151202I0000000J-000581D01*
G01*
X0243000Y0149844D01*
G75*
G02*
X0242419Y0149263I-000581J0000000D01*
G01*
X0241258Y0149263D01*
G75*
G02*
X0240677Y0149844I0000000J0000581D01*
G01*
G37*
G36*
G01*
X0250264Y0173456D02*
X0250264Y0174441D01*
G75*
G02*
X0250756Y0174933I0000492J0000000D01*
G01*
X0255677Y0174933D01*
G75*
G02*
X0256169Y0174441I0000000J-000492D01*
G01*
X0256169Y0173456D01*
G75*
G02*
X0255677Y0172964I-000492J0000000D01*
G01*
X0250756Y0172964D01*
G75*
G02*
X0250264Y0173456I0000000J0000492D01*
G01*
G37*
G36*
G01*
X0250264Y0170307D02*
X0250264Y0171291D01*
G75*
G02*
X0250756Y0171783I0000492J0000000D01*
G01*
X0255677Y0171783D01*
G75*
G02*
X0256169Y0171291I0000000J-000492D01*
G01*
X0256169Y0170307D01*
G75*
G02*
X0255677Y0169815I-000492J0000000D01*
G01*
X0250756Y0169815D01*
G75*
G02*
X0250264Y0170307I0000000J0000492D01*
G01*
G37*
G36*
G01*
X0250264Y0167157D02*
X0250264Y0168141D01*
G75*
G02*
X0250756Y0168633I0000492J0000000D01*
G01*
X0255677Y0168633D01*
G75*
G02*
X0256169Y0168141I0000000J-000492D01*
G01*
X0256169Y0167157D01*
G75*
G02*
X0255677Y0166665I-000492J0000000D01*
G01*
X0250756Y0166665D01*
G75*
G02*
X0250264Y0167157I0000000J0000492D01*
G01*
G37*
G36*
G01*
X0250264Y0164008D02*
X0250264Y0164992D01*
G75*
G02*
X0250756Y0165484I0000492J0000000D01*
G01*
X0255677Y0165484D01*
G75*
G02*
X0256169Y0164992I0000000J-000492D01*
G01*
X0256169Y0164008D01*
G75*
G02*
X0255677Y0163515I-000492J0000000D01*
G01*
X0250756Y0163515D01*
G75*
G02*
X0250264Y0164008I0000000J0000492D01*
G01*
G37*
G36*
G01*
X0250264Y0160858D02*
X0250264Y0161842D01*
G75*
G02*
X0250756Y0162334I0000492J0000000D01*
G01*
X0255677Y0162334D01*
G75*
G02*
X0256169Y0161842I0000000J-000492D01*
G01*
X0256169Y0160858D01*
G75*
G02*
X0255677Y0160366I-000492J0000000D01*
G01*
X0250756Y0160366D01*
G75*
G02*
X0250264Y0160858I0000000J0000492D01*
G01*
G37*
G36*
G01*
X0250264Y0157708D02*
X0250264Y0158693D01*
G75*
G02*
X0250756Y0159185I0000492J0000000D01*
G01*
X0255677Y0159185D01*
G75*
G02*
X0256169Y0158693I0000000J-000492D01*
G01*
X0256169Y0157708D01*
G75*
G02*
X0255677Y0157216I-000492J0000000D01*
G01*
X0250756Y0157216D01*
G75*
G02*
X0250264Y0157708I0000000J0000492D01*
G01*
G37*
G36*
G01*
X0250264Y0154559D02*
X0250264Y0155543D01*
G75*
G02*
X0250756Y0156035I0000492J0000000D01*
G01*
X0255677Y0156035D01*
G75*
G02*
X0256169Y0155543I0000000J-000492D01*
G01*
X0256169Y0154559D01*
G75*
G02*
X0255677Y0154067I-000492J0000000D01*
G01*
X0250756Y0154067D01*
G75*
G02*
X0250264Y0154559I0000000J0000492D01*
G01*
G37*
G36*
G01*
X0250264Y0151409D02*
X0250264Y0152393D01*
G75*
G02*
X0250756Y0152885I0000492J0000000D01*
G01*
X0255677Y0152885D01*
G75*
G02*
X0256169Y0152393I0000000J-000492D01*
G01*
X0256169Y0151409D01*
G75*
G02*
X0255677Y0150917I-000492J0000000D01*
G01*
X0250756Y0150917D01*
G75*
G02*
X0250264Y0151409I0000000J0000492D01*
G01*
G37*
G36*
G01*
X0257646Y0144027D02*
X0257646Y0148948D01*
G75*
G02*
X0258138Y0149441I0000492J0000000D01*
G01*
X0259122Y0149441D01*
G75*
G02*
X0259614Y0148948I0000000J-000492D01*
G01*
X0259614Y0144027D01*
G75*
G02*
X0259122Y0143535I-000492J0000000D01*
G01*
X0258138Y0143535D01*
G75*
G02*
X0257646Y0144027I0000000J0000492D01*
G01*
G37*
G36*
G01*
X0260795Y0144027D02*
X0260795Y0148948D01*
G75*
G02*
X0261287Y0149441I0000492J0000000D01*
G01*
X0262272Y0149441D01*
G75*
G02*
X0262764Y0148948I0000000J-000492D01*
G01*
X0262764Y0144027D01*
G75*
G02*
X0262272Y0143535I-000492J0000000D01*
G01*
X0261287Y0143535D01*
G75*
G02*
X0260795Y0144027I0000000J0000492D01*
G01*
G37*
G36*
G01*
X0263945Y0144027D02*
X0263945Y0148948D01*
G75*
G02*
X0264437Y0149441I0000492J0000000D01*
G01*
X0265421Y0149441D01*
G75*
G02*
X0265913Y0148948I0000000J-000492D01*
G01*
X0265913Y0144027D01*
G75*
G02*
X0265421Y0143535I-000492J0000000D01*
G01*
X0264437Y0143535D01*
G75*
G02*
X0263945Y0144027I0000000J0000492D01*
G01*
G37*
G36*
G01*
X0267095Y0144027D02*
X0267095Y0148948D01*
G75*
G02*
X0267587Y0149441I0000492J0000000D01*
G01*
X0268571Y0149441D01*
G75*
G02*
X0269063Y0148948I0000000J-000492D01*
G01*
X0269063Y0144027D01*
G75*
G02*
X0268571Y0143535I-000492J0000000D01*
G01*
X0267587Y0143535D01*
G75*
G02*
X0267095Y0144027I0000000J0000492D01*
G01*
G37*
G36*
G01*
X0270244Y0144027D02*
X0270244Y0148948D01*
G75*
G02*
X0270736Y0149441I0000492J0000000D01*
G01*
X0271720Y0149441D01*
G75*
G02*
X0272213Y0148948I0000000J-000492D01*
G01*
X0272213Y0144027D01*
G75*
G02*
X0271720Y0143535I-000492J0000000D01*
G01*
X0270736Y0143535D01*
G75*
G02*
X0270244Y0144027I0000000J0000492D01*
G01*
G37*
G36*
G01*
X0273394Y0144027D02*
X0273394Y0148948D01*
G75*
G02*
X0273886Y0149441I0000492J0000000D01*
G01*
X0274870Y0149441D01*
G75*
G02*
X0275362Y0148948I0000000J-000492D01*
G01*
X0275362Y0144027D01*
G75*
G02*
X0274870Y0143535I-000492J0000000D01*
G01*
X0273886Y0143535D01*
G75*
G02*
X0273394Y0144027I0000000J0000492D01*
G01*
G37*
G36*
G01*
X0276543Y0144027D02*
X0276543Y0148948D01*
G75*
G02*
X0277035Y0149441I0000492J0000000D01*
G01*
X0278020Y0149441D01*
G75*
G02*
X0278512Y0148948I0000000J-000492D01*
G01*
X0278512Y0144027D01*
G75*
G02*
X0278020Y0143535I-000492J0000000D01*
G01*
X0277035Y0143535D01*
G75*
G02*
X0276543Y0144027I0000000J0000492D01*
G01*
G37*
G36*
G01*
X0279693Y0144027D02*
X0279693Y0148948D01*
G75*
G02*
X0280185Y0149441I0000492J0000000D01*
G01*
X0281169Y0149441D01*
G75*
G02*
X0281661Y0148948I0000000J-000492D01*
G01*
X0281661Y0144027D01*
G75*
G02*
X0281169Y0143535I-000492J0000000D01*
G01*
X0280185Y0143535D01*
G75*
G02*
X0279693Y0144027I0000000J0000492D01*
G01*
G37*
G36*
G01*
X0283138Y0151409D02*
X0283138Y0152393D01*
G75*
G02*
X0283630Y0152885I0000492J0000000D01*
G01*
X0288551Y0152885D01*
G75*
G02*
X0289043Y0152393I0000000J-000492D01*
G01*
X0289043Y0151409D01*
G75*
G02*
X0288551Y0150917I-000492J0000000D01*
G01*
X0283630Y0150917D01*
G75*
G02*
X0283138Y0151409I0000000J0000492D01*
G01*
G37*
G36*
G01*
X0283138Y0154559D02*
X0283138Y0155543D01*
G75*
G02*
X0283630Y0156035I0000492J0000000D01*
G01*
X0288551Y0156035D01*
G75*
G02*
X0289043Y0155543I0000000J-000492D01*
G01*
X0289043Y0154559D01*
G75*
G02*
X0288551Y0154067I-000492J0000000D01*
G01*
X0283630Y0154067D01*
G75*
G02*
X0283138Y0154559I0000000J0000492D01*
G01*
G37*
G36*
G01*
X0283138Y0157708D02*
X0283138Y0158693D01*
G75*
G02*
X0283630Y0159185I0000492J0000000D01*
G01*
X0288551Y0159185D01*
G75*
G02*
X0289043Y0158693I0000000J-000492D01*
G01*
X0289043Y0157708D01*
G75*
G02*
X0288551Y0157216I-000492J0000000D01*
G01*
X0283630Y0157216D01*
G75*
G02*
X0283138Y0157708I0000000J0000492D01*
G01*
G37*
G36*
G01*
X0283138Y0160858D02*
X0283138Y0161842D01*
G75*
G02*
X0283630Y0162334I0000492J0000000D01*
G01*
X0288551Y0162334D01*
G75*
G02*
X0289043Y0161842I0000000J-000492D01*
G01*
X0289043Y0160858D01*
G75*
G02*
X0288551Y0160366I-000492J0000000D01*
G01*
X0283630Y0160366D01*
G75*
G02*
X0283138Y0160858I0000000J0000492D01*
G01*
G37*
G36*
G01*
X0283138Y0164008D02*
X0283138Y0164992D01*
G75*
G02*
X0283630Y0165484I0000492J0000000D01*
G01*
X0288551Y0165484D01*
G75*
G02*
X0289043Y0164992I0000000J-000492D01*
G01*
X0289043Y0164008D01*
G75*
G02*
X0288551Y0163515I-000492J0000000D01*
G01*
X0283630Y0163515D01*
G75*
G02*
X0283138Y0164008I0000000J0000492D01*
G01*
G37*
G36*
G01*
X0283138Y0167157D02*
X0283138Y0168141D01*
G75*
G02*
X0283630Y0168633I0000492J0000000D01*
G01*
X0288551Y0168633D01*
G75*
G02*
X0289043Y0168141I0000000J-000492D01*
G01*
X0289043Y0167157D01*
G75*
G02*
X0288551Y0166665I-000492J0000000D01*
G01*
X0283630Y0166665D01*
G75*
G02*
X0283138Y0167157I0000000J0000492D01*
G01*
G37*
G36*
G01*
X0283138Y0170307D02*
X0283138Y0171291D01*
G75*
G02*
X0283630Y0171783I0000492J0000000D01*
G01*
X0288551Y0171783D01*
G75*
G02*
X0289043Y0171291I0000000J-000492D01*
G01*
X0289043Y0170307D01*
G75*
G02*
X0288551Y0169815I-000492J0000000D01*
G01*
X0283630Y0169815D01*
G75*
G02*
X0283138Y0170307I0000000J0000492D01*
G01*
G37*
G36*
G01*
X0283138Y0173456D02*
X0283138Y0174441D01*
G75*
G02*
X0283630Y0174933I0000492J0000000D01*
G01*
X0288551Y0174933D01*
G75*
G02*
X0289043Y0174441I0000000J-000492D01*
G01*
X0289043Y0173456D01*
G75*
G02*
X0288551Y0172964I-000492J0000000D01*
G01*
X0283630Y0172964D01*
G75*
G02*
X0283138Y0173456I0000000J0000492D01*
G01*
G37*
G36*
G01*
X0279693Y0176901D02*
X0279693Y0181822D01*
G75*
G02*
X0280185Y0182315I0000492J0000000D01*
G01*
X0281169Y0182315D01*
G75*
G02*
X0281661Y0181822I0000000J-000492D01*
G01*
X0281661Y0176901D01*
G75*
G02*
X0281169Y0176409I-000492J0000000D01*
G01*
X0280185Y0176409D01*
G75*
G02*
X0279693Y0176901I0000000J0000492D01*
G01*
G37*
G36*
G01*
X0276543Y0176901D02*
X0276543Y0181822D01*
G75*
G02*
X0277035Y0182315I0000492J0000000D01*
G01*
X0278020Y0182315D01*
G75*
G02*
X0278512Y0181822I0000000J-000492D01*
G01*
X0278512Y0176901D01*
G75*
G02*
X0278020Y0176409I-000492J0000000D01*
G01*
X0277035Y0176409D01*
G75*
G02*
X0276543Y0176901I0000000J0000492D01*
G01*
G37*
G36*
G01*
X0273394Y0176901D02*
X0273394Y0181822D01*
G75*
G02*
X0273886Y0182315I0000492J0000000D01*
G01*
X0274870Y0182315D01*
G75*
G02*
X0275362Y0181822I0000000J-000492D01*
G01*
X0275362Y0176901D01*
G75*
G02*
X0274870Y0176409I-000492J0000000D01*
G01*
X0273886Y0176409D01*
G75*
G02*
X0273394Y0176901I0000000J0000492D01*
G01*
G37*
G36*
G01*
X0270244Y0176901D02*
X0270244Y0181822D01*
G75*
G02*
X0270736Y0182315I0000492J0000000D01*
G01*
X0271720Y0182315D01*
G75*
G02*
X0272213Y0181822I0000000J-000492D01*
G01*
X0272213Y0176901D01*
G75*
G02*
X0271720Y0176409I-000492J0000000D01*
G01*
X0270736Y0176409D01*
G75*
G02*
X0270244Y0176901I0000000J0000492D01*
G01*
G37*
G36*
G01*
X0267095Y0176901D02*
X0267095Y0181822D01*
G75*
G02*
X0267587Y0182315I0000492J0000000D01*
G01*
X0268571Y0182315D01*
G75*
G02*
X0269063Y0181822I0000000J-000492D01*
G01*
X0269063Y0176901D01*
G75*
G02*
X0268571Y0176409I-000492J0000000D01*
G01*
X0267587Y0176409D01*
G75*
G02*
X0267095Y0176901I0000000J0000492D01*
G01*
G37*
G36*
G01*
X0263945Y0176901D02*
X0263945Y0181822D01*
G75*
G02*
X0264437Y0182315I0000492J0000000D01*
G01*
X0265421Y0182315D01*
G75*
G02*
X0265913Y0181822I0000000J-000492D01*
G01*
X0265913Y0176901D01*
G75*
G02*
X0265421Y0176409I-000492J0000000D01*
G01*
X0264437Y0176409D01*
G75*
G02*
X0263945Y0176901I0000000J0000492D01*
G01*
G37*
G36*
G01*
X0260795Y0176901D02*
X0260795Y0181822D01*
G75*
G02*
X0261287Y0182315I0000492J0000000D01*
G01*
X0262272Y0182315D01*
G75*
G02*
X0262764Y0181822I0000000J-000492D01*
G01*
X0262764Y0176901D01*
G75*
G02*
X0262272Y0176409I-000492J0000000D01*
G01*
X0261287Y0176409D01*
G75*
G02*
X0260795Y0176901I0000000J0000492D01*
G01*
G37*
G36*
G01*
X0257646Y0176901D02*
X0257646Y0181822D01*
G75*
G02*
X0258138Y0182315I0000492J0000000D01*
G01*
X0259122Y0182315D01*
G75*
G02*
X0259614Y0181822I0000000J-000492D01*
G01*
X0259614Y0176901D01*
G75*
G02*
X0259122Y0176409I-000492J0000000D01*
G01*
X0258138Y0176409D01*
G75*
G02*
X0257646Y0176901I0000000J0000492D01*
G01*
G37*
G36*
G01*
X0250480Y0148446D02*
X0250480Y0147088D01*
G75*
G02*
X0249900Y0146508I-000581J0000000D01*
G01*
X0248738Y0146508D01*
G75*
G02*
X0248157Y0147088I0000000J0000581D01*
G01*
X0248157Y0148446D01*
G75*
G02*
X0248738Y0149027I0000581J0000000D01*
G01*
X0249900Y0149027D01*
G75*
G02*
X0250480Y0148446I0000000J-000581D01*
G01*
G37*
G36*
G01*
X0246661Y0148446D02*
X0246661Y0147088D01*
G75*
G02*
X0246081Y0146508I-000581J0000000D01*
G01*
X0244919Y0146508D01*
G75*
G02*
X0244339Y0147088I0000000J0000581D01*
G01*
X0244339Y0148446D01*
G75*
G02*
X0244919Y0149027I0000581J0000000D01*
G01*
X0246081Y0149027D01*
G75*
G02*
X0246661Y0148446I0000000J-000581D01*
G01*
G37*
G36*
G01*
X0236858Y0145907D02*
X0236858Y0147265D01*
G75*
G02*
X0237439Y0147846I0000581J0000000D01*
G01*
X0238600Y0147846D01*
G75*
G02*
X0239181Y0147265I0000000J-000581D01*
G01*
X0239181Y0145907D01*
G75*
G02*
X0238600Y0145326I-000581J0000000D01*
G01*
X0237439Y0145326D01*
G75*
G02*
X0236858Y0145907I0000000J0000581D01*
G01*
G37*
G36*
G01*
X0240677Y0145907D02*
X0240677Y0147265D01*
G75*
G02*
X0241258Y0147846I0000581J0000000D01*
G01*
X0242419Y0147846D01*
G75*
G02*
X0243000Y0147265I0000000J-000581D01*
G01*
X0243000Y0145907D01*
G75*
G02*
X0242419Y0145326I-000581J0000000D01*
G01*
X0241258Y0145326D01*
G75*
G02*
X0240677Y0145907I0000000J0000581D01*
G01*
G37*
G36*
G01*
X0242370Y0171104D02*
X0242370Y0172462D01*
G75*
G02*
X0242951Y0173043I0000581J0000000D01*
G01*
X0244112Y0173043D01*
G75*
G02*
X0244693Y0172462I0000000J-000581D01*
G01*
X0244693Y0171104D01*
G75*
G02*
X0244112Y0170523I-000581J0000000D01*
G01*
X0242951Y0170523D01*
G75*
G02*
X0242370Y0171104I0000000J0000581D01*
G01*
G37*
G36*
G01*
X0246189Y0171104D02*
X0246189Y0172462D01*
G75*
G02*
X0246770Y0173043I0000581J0000000D01*
G01*
X0247931Y0173043D01*
G75*
G02*
X0248512Y0172462I0000000J-000581D01*
G01*
X0248512Y0171104D01*
G75*
G02*
X0247931Y0170523I-000581J0000000D01*
G01*
X0246770Y0170523D01*
G75*
G02*
X0246189Y0171104I0000000J0000581D01*
G01*
G37*
G36*
G01*
X0295165Y0152925D02*
X0293807Y0152925D01*
G75*
G02*
X0293226Y0153506I0000000J0000581D01*
G01*
X0293226Y0154667D01*
G75*
G02*
X0293807Y0155248I0000581J0000000D01*
G01*
X0295165Y0155248D01*
G75*
G02*
X0295746Y0154667I0000000J-000581D01*
G01*
X0295746Y0153506D01*
G75*
G02*
X0295165Y0152925I-000581J0000000D01*
G01*
G37*
G36*
G01*
X0295165Y0156744D02*
X0293807Y0156744D01*
G75*
G02*
X0293226Y0157325I0000000J0000581D01*
G01*
X0293226Y0158486D01*
G75*
G02*
X0293807Y0159067I0000581J0000000D01*
G01*
X0295165Y0159067D01*
G75*
G02*
X0295746Y0158486I0000000J-000581D01*
G01*
X0295746Y0157325D01*
G75*
G02*
X0295165Y0156744I-000581J0000000D01*
G01*
G37*
G36*
G01*
X0285884Y0179283D02*
X0284526Y0179283D01*
G75*
G02*
X0283945Y0179864I0000000J0000581D01*
G01*
X0283945Y0181025D01*
G75*
G02*
X0284526Y0181606I0000581J0000000D01*
G01*
X0285884Y0181606D01*
G75*
G02*
X0286465Y0181025I0000000J-000581D01*
G01*
X0286465Y0179864D01*
G75*
G02*
X0285884Y0179283I-000581J0000000D01*
G01*
G37*
G36*
G01*
X0285884Y0183102D02*
X0284526Y0183102D01*
G75*
G02*
X0283945Y0183683I0000000J0000581D01*
G01*
X0283945Y0184844D01*
G75*
G02*
X0284526Y0185425I0000581J0000000D01*
G01*
X0285884Y0185425D01*
G75*
G02*
X0286465Y0184844I0000000J-000581D01*
G01*
X0286465Y0183683D01*
G75*
G02*
X0285884Y0183102I-000581J0000000D01*
G01*
G37*
G36*
G01*
X0309626Y0156950D02*
X0309626Y0155592D01*
G75*
G02*
X0309045Y0155011I-000581J0000000D01*
G01*
X0307884Y0155011D01*
G75*
G02*
X0307303Y0155592I0000000J0000581D01*
G01*
X0307303Y0156950D01*
G75*
G02*
X0307884Y0157531I0000581J0000000D01*
G01*
X0309045Y0157531D01*
G75*
G02*
X0309626Y0156950I0000000J-000581D01*
G01*
G37*
G36*
G01*
X0305807Y0156950D02*
X0305807Y0155592D01*
G75*
G02*
X0305226Y0155011I-000581J0000000D01*
G01*
X0304065Y0155011D01*
G75*
G02*
X0303484Y0155592I0000000J0000581D01*
G01*
X0303484Y0156950D01*
G75*
G02*
X0304065Y0157531I0000581J0000000D01*
G01*
X0305226Y0157531D01*
G75*
G02*
X0305807Y0156950I0000000J-000581D01*
G01*
G37*
D75*
X0308295Y0151208D03*
X0300815Y0151208D03*
X0304555Y0143334D03*
G36*
G01*
X0206852Y0174960D02*
X0208211Y0174960D01*
G75*
G02*
X0208791Y0174380I0000000J-000581D01*
G01*
X0208791Y0173218D01*
G75*
G02*
X0208211Y0172637I-000581J0000000D01*
G01*
X0206852Y0172637D01*
G75*
G02*
X0206272Y0173218I0000000J0000581D01*
G01*
X0206272Y0174380D01*
G75*
G02*
X0206852Y0174960I0000581J0000000D01*
G01*
G37*
G36*
G01*
X0206852Y0171141D02*
X0208211Y0171141D01*
G75*
G02*
X0208791Y0170561I0000000J-000581D01*
G01*
X0208791Y0169399D01*
G75*
G02*
X0208211Y0168819I-000581J0000000D01*
G01*
X0206852Y0168819D01*
G75*
G02*
X0206272Y0169399I0000000J0000581D01*
G01*
X0206272Y0170561D01*
G75*
G02*
X0206852Y0171141I0000581J0000000D01*
G01*
G37*
G36*
G01*
X0295200Y0141291D02*
X0293182Y0141291D01*
G75*
G02*
X0292321Y0142152I0000000J0000861D01*
G01*
X0292321Y0143875D01*
G75*
G02*
X0293182Y0144736I0000861J0000000D01*
G01*
X0295200Y0144736D01*
G75*
G02*
X0296061Y0143875I0000000J-000861D01*
G01*
X0296061Y0142152D01*
G75*
G02*
X0295200Y0141291I-000861J0000000D01*
G01*
G37*
G36*
G01*
X0295200Y0147492D02*
X0293182Y0147492D01*
G75*
G02*
X0292321Y0148353I0000000J0000861D01*
G01*
X0292321Y0150076D01*
G75*
G02*
X0293182Y0150937I0000861J0000000D01*
G01*
X0295200Y0150937D01*
G75*
G02*
X0296061Y0150076I0000000J-000861D01*
G01*
X0296061Y0148353D01*
G75*
G02*
X0295200Y0147492I-000861J0000000D01*
G01*
G37*
D78*
X0310953Y0184775D03*
X0290953Y0188775D03*
X0290953Y0180775D03*
D76*
X0305953Y0187275D03*
X0305953Y0182275D03*
X0300953Y0187275D03*
X0300953Y0182275D03*
X0295953Y0187275D03*
X0295953Y0182275D03*
X0359282Y0188624D02*
G01*
G75*
D93*
X0360365Y0145317D02*
D03*
D92*
X0360562Y0186065D02*
D03*
X0360562Y0184096D02*
D03*
D133*
X0372294Y0177207D02*
D03*
X0363042Y0180947D02*
D03*
D133*
X0372294Y0184687D02*
D03*
D121*
X0383908Y0169648D02*
D03*
X0378908Y0169648D02*
D03*
X0373908Y0169648D02*
D03*
X0368908Y0169648D02*
D03*
X0383908Y0150750D02*
D03*
X0378908Y0150750D02*
D03*
X0373908Y0150750D02*
D03*
X0368908Y0150750D02*
D03*
D134*
X0363613Y0153939D02*
D03*
X0363613Y0147719D02*
D03*
X0363613Y0162285D02*
D03*
X0363613Y0168506D02*
D03*
D135*
X0377195Y0184097D02*
D03*
X0377195Y0177797D02*
D03*
D98*
X0361152Y0173467D02*
D03*
X0383691Y0157423D02*
D03*
X0369715Y0157128D02*
D03*
X0364695Y0158309D02*
D03*
X0366762Y0161754D02*
D03*
X0396189Y0137138D02*
%LPD*%
G01*
D68*
X0536898Y0188713D03*
D69*
X0526898Y0188713D03*
X0516898Y0188713D03*
G36*
G01*
X0464782Y0173437D02*
X0463423Y0173437D01*
G75*
G02*
X0462843Y0174018I0000000J0000581D01*
G01*
X0462843Y0175179D01*
G75*
G02*
X0463423Y0175760I0000581J0000000D01*
G01*
X0464782Y0175760D01*
G75*
G02*
X0465362Y0175179I0000000J-000581D01*
G01*
X0465362Y0174018D01*
G75*
G02*
X0464782Y0173437I-000581J0000000D01*
G01*
G37*
G36*
G01*
X0464782Y0177256D02*
X0463423Y0177256D01*
G75*
G02*
X0462843Y0177837I0000000J0000581D01*
G01*
X0462843Y0178998D01*
G75*
G02*
X0463423Y0179579I0000581J0000000D01*
G01*
X0464782Y0179579D01*
G75*
G02*
X0465362Y0178998I0000000J-000581D01*
G01*
X0465362Y0177837D01*
G75*
G02*
X0464782Y0177256I-000581J0000000D01*
G01*
G37*
G36*
G01*
X0499604Y0148780D02*
X0499604Y0147421D01*
G75*
G02*
X0499024Y0146841I-000581J0000000D01*
G01*
X0497862Y0146841D01*
G75*
G02*
X0497282Y0147421I0000000J0000581D01*
G01*
X0497282Y0148780D01*
G75*
G02*
X0497862Y0149360I0000581J0000000D01*
G01*
X0499024Y0149360D01*
G75*
G02*
X0499604Y0148780I0000000J-000581D01*
G01*
G37*
G36*
G01*
X0495785Y0148780D02*
X0495785Y0147421D01*
G75*
G02*
X0495205Y0146841I-000581J0000000D01*
G01*
X0494043Y0146841D01*
G75*
G02*
X0493463Y0147421I0000000J0000581D01*
G01*
X0493463Y0148780D01*
G75*
G02*
X0494043Y0149360I0000581J0000000D01*
G01*
X0495205Y0149360D01*
G75*
G02*
X0495785Y0148780I0000000J-000581D01*
G01*
G37*
G36*
G01*
X0502213Y0173671D02*
X0502213Y0175030D01*
G75*
G02*
X0502793Y0175610I0000581J0000000D01*
G01*
X0503955Y0175610D01*
G75*
G02*
X0504535Y0175030I0000000J-000581D01*
G01*
X0504535Y0173671D01*
G75*
G02*
X0503955Y0173091I-000581J0000000D01*
G01*
X0502793Y0173091D01*
G75*
G02*
X0502213Y0173671I0000000J0000581D01*
G01*
G37*
G36*
G01*
X0506032Y0173671D02*
X0506032Y0175030D01*
G75*
G02*
X0506612Y0175610I0000581J0000000D01*
G01*
X0507774Y0175610D01*
G75*
G02*
X0508354Y0175030I0000000J-000581D01*
G01*
X0508354Y0173671D01*
G75*
G02*
X0507774Y0173091I-000581J0000000D01*
G01*
X0506612Y0173091D01*
G75*
G02*
X0506032Y0173671I0000000J0000581D01*
G01*
G37*
G36*
G01*
X0402189Y0157290D02*
X0402189Y0158648D01*
G75*
G02*
X0402770Y0159229I0000581J0000000D01*
G01*
X0403931Y0159229D01*
G75*
G02*
X0404512Y0158648I0000000J-000581D01*
G01*
X0404512Y0157290D01*
G75*
G02*
X0403931Y0156709I-000581J0000000D01*
G01*
X0402770Y0156709D01*
G75*
G02*
X0402189Y0157290I0000000J0000581D01*
G01*
G37*
G36*
G01*
X0406008Y0157290D02*
X0406008Y0158648D01*
G75*
G02*
X0406589Y0159229I0000581J0000000D01*
G01*
X0407750Y0159229D01*
G75*
G02*
X0408331Y0158648I0000000J-000581D01*
G01*
X0408331Y0157290D01*
G75*
G02*
X0407750Y0156709I-000581J0000000D01*
G01*
X0406589Y0156709D01*
G75*
G02*
X0406008Y0157290I0000000J0000581D01*
G01*
G37*
G36*
G01*
X0415751Y0171292D02*
X0417769Y0171292D01*
G75*
G02*
X0418630Y0170430I0000000J-000861D01*
G01*
X0418630Y0168708D01*
G75*
G02*
X0417769Y0167847I-000861J0000000D01*
G01*
X0415751Y0167847D01*
G75*
G02*
X0414890Y0168708I0000000J0000861D01*
G01*
X0414890Y0170430D01*
G75*
G02*
X0415751Y0171292I0000861J0000000D01*
G01*
G37*
G36*
G01*
X0415751Y0165091D02*
X0417769Y0165091D01*
G75*
G02*
X0418630Y0164230I0000000J-000861D01*
G01*
X0418630Y0162507D01*
G75*
G02*
X0417769Y0161646I-000861J0000000D01*
G01*
X0415751Y0161646D01*
G75*
G02*
X0414890Y0162507I0000000J0000861D01*
G01*
X0414890Y0164230D01*
G75*
G02*
X0415751Y0165091I0000861J0000000D01*
G01*
G37*
G36*
G01*
X0486461Y0174342D02*
X0486461Y0176359D01*
G75*
G02*
X0487322Y0177221I0000861J0000000D01*
G01*
X0489044Y0177221D01*
G75*
G02*
X0489906Y0176359I0000000J-000861D01*
G01*
X0489906Y0174342D01*
G75*
G02*
X0489044Y0173481I-000861J0000000D01*
G01*
X0487322Y0173481D01*
G75*
G02*
X0486461Y0174342I0000000J0000861D01*
G01*
G37*
G36*
G01*
X0492661Y0174342D02*
X0492661Y0176359D01*
G75*
G02*
X0493523Y0177221I0000861J0000000D01*
G01*
X0495245Y0177221D01*
G75*
G02*
X0496106Y0176359I0000000J-000861D01*
G01*
X0496106Y0174342D01*
G75*
G02*
X0495245Y0173481I-000861J0000000D01*
G01*
X0493523Y0173481D01*
G75*
G02*
X0492661Y0174342I0000000J0000861D01*
G01*
G37*
G36*
G01*
X0491854Y0148780D02*
X0491854Y0147421D01*
G75*
G02*
X0491274Y0146841I-000581J0000000D01*
G01*
X0490112Y0146841D01*
G75*
G02*
X0489532Y0147421I0000000J0000581D01*
G01*
X0489532Y0148780D01*
G75*
G02*
X0490112Y0149360I0000581J0000000D01*
G01*
X0491274Y0149360D01*
G75*
G02*
X0491854Y0148780I0000000J-000581D01*
G01*
G37*
G36*
G01*
X0488035Y0148780D02*
X0488035Y0147421D01*
G75*
G02*
X0487455Y0146841I-000581J0000000D01*
G01*
X0486293Y0146841D01*
G75*
G02*
X0485713Y0147421I0000000J0000581D01*
G01*
X0485713Y0148780D01*
G75*
G02*
X0486293Y0149360I0000581J0000000D01*
G01*
X0487455Y0149360D01*
G75*
G02*
X0488035Y0148780I0000000J-000581D01*
G01*
G37*
G36*
G01*
X0503963Y0165280D02*
X0502604Y0165280D01*
G75*
G02*
X0502024Y0165860I0000000J0000581D01*
G01*
X0502024Y0167022D01*
G75*
G02*
X0502604Y0167603I0000581J0000000D01*
G01*
X0503963Y0167603D01*
G75*
G02*
X0504543Y0167022I0000000J-000581D01*
G01*
X0504543Y0165860D01*
G75*
G02*
X0503963Y0165280I-000581J0000000D01*
G01*
G37*
G36*
G01*
X0503963Y0169099D02*
X0502604Y0169099D01*
G75*
G02*
X0502024Y0169679I0000000J0000581D01*
G01*
X0502024Y0170841D01*
G75*
G02*
X0502604Y0171421I0000581J0000000D01*
G01*
X0503963Y0171421D01*
G75*
G02*
X0504543Y0170841I0000000J-000581D01*
G01*
X0504543Y0169679D01*
G75*
G02*
X0503963Y0169099I-000581J0000000D01*
G01*
G37*
G36*
G01*
X0497675Y0187256D02*
X0499033Y0187256D01*
G75*
G02*
X0499614Y0186675I0000000J-000581D01*
G01*
X0499614Y0185514D01*
G75*
G02*
X0499033Y0184933I-000581J0000000D01*
G01*
X0497675Y0184933D01*
G75*
G02*
X0497095Y0185514I0000000J0000581D01*
G01*
X0497095Y0186675D01*
G75*
G02*
X0497675Y0187256I0000581J0000000D01*
G01*
G37*
G36*
G01*
X0497675Y0183437D02*
X0499033Y0183437D01*
G75*
G02*
X0499614Y0182857I0000000J-000581D01*
G01*
X0499614Y0181695D01*
G75*
G02*
X0499033Y0181114I-000581J0000000D01*
G01*
X0497675Y0181114D01*
G75*
G02*
X0497095Y0181695I0000000J0000581D01*
G01*
X0497095Y0182857D01*
G75*
G02*
X0497675Y0183437I0000581J0000000D01*
G01*
G37*
G36*
G01*
X0493118Y0190593D02*
X0493118Y0191951D01*
G75*
G02*
X0493699Y0192532I0000581J0000000D01*
G01*
X0494860Y0192532D01*
G75*
G02*
X0495441Y0191951I0000000J-000581D01*
G01*
X0495441Y0190593D01*
G75*
G02*
X0494860Y0190012I-000581J0000000D01*
G01*
X0493699Y0190012D01*
G75*
G02*
X0493118Y0190593I0000000J0000581D01*
G01*
G37*
G36*
G01*
X0496937Y0190593D02*
X0496937Y0191951D01*
G75*
G02*
X0497518Y0192532I0000581J0000000D01*
G01*
X0498679Y0192532D01*
G75*
G02*
X0499260Y0191951I0000000J-000581D01*
G01*
X0499260Y0190593D01*
G75*
G02*
X0498679Y0190012I-000581J0000000D01*
G01*
X0497518Y0190012D01*
G75*
G02*
X0496937Y0190593I0000000J0000581D01*
G01*
G37*
G36*
G01*
X0468315Y0191774D02*
X0468315Y0193132D01*
G75*
G02*
X0468896Y0193713I0000581J0000000D01*
G01*
X0470057Y0193713D01*
G75*
G02*
X0470638Y0193132I0000000J-000581D01*
G01*
X0470638Y0191774D01*
G75*
G02*
X0470057Y0191193I-000581J0000000D01*
G01*
X0468896Y0191193D01*
G75*
G02*
X0468315Y0191774I0000000J0000581D01*
G01*
G37*
G36*
G01*
X0472134Y0191774D02*
X0472134Y0193132D01*
G75*
G02*
X0472715Y0193713I0000581J0000000D01*
G01*
X0473876Y0193713D01*
G75*
G02*
X0474457Y0193132I0000000J-000581D01*
G01*
X0474457Y0191774D01*
G75*
G02*
X0473876Y0191193I-000581J0000000D01*
G01*
X0472715Y0191193D01*
G75*
G02*
X0472134Y0191774I0000000J0000581D01*
G01*
G37*
G36*
G01*
X0484104Y0148780D02*
X0484104Y0147421D01*
G75*
G02*
X0483524Y0146841I-000581J0000000D01*
G01*
X0482362Y0146841D01*
G75*
G02*
X0481782Y0147421I0000000J0000581D01*
G01*
X0481782Y0148780D01*
G75*
G02*
X0482362Y0149360I0000581J0000000D01*
G01*
X0483524Y0149360D01*
G75*
G02*
X0484104Y0148780I0000000J-000581D01*
G01*
G37*
G36*
G01*
X0480285Y0148780D02*
X0480285Y0147421D01*
G75*
G02*
X0479705Y0146841I-000581J0000000D01*
G01*
X0478543Y0146841D01*
G75*
G02*
X0477963Y0147421I0000000J0000581D01*
G01*
X0477963Y0148780D01*
G75*
G02*
X0478543Y0149360I0000581J0000000D01*
G01*
X0479705Y0149360D01*
G75*
G02*
X0480285Y0148780I0000000J-000581D01*
G01*
G37*
G36*
G01*
X0476354Y0148780D02*
X0476354Y0147421D01*
G75*
G02*
X0475774Y0146841I-000581J0000000D01*
G01*
X0474612Y0146841D01*
G75*
G02*
X0474032Y0147421I0000000J0000581D01*
G01*
X0474032Y0148780D01*
G75*
G02*
X0474612Y0149360I0000581J0000000D01*
G01*
X0475774Y0149360D01*
G75*
G02*
X0476354Y0148780I0000000J-000581D01*
G01*
G37*
G36*
G01*
X0472535Y0148780D02*
X0472535Y0147421D01*
G75*
G02*
X0471955Y0146841I-000581J0000000D01*
G01*
X0470793Y0146841D01*
G75*
G02*
X0470213Y0147421I0000000J0000581D01*
G01*
X0470213Y0148780D01*
G75*
G02*
X0470793Y0149360I0000581J0000000D01*
G01*
X0471955Y0149360D01*
G75*
G02*
X0472535Y0148780I0000000J-000581D01*
G01*
G37*
G36*
G01*
X0499963Y0173280D02*
X0498604Y0173280D01*
G75*
G02*
X0498024Y0173860I0000000J0000581D01*
G01*
X0498024Y0175022D01*
G75*
G02*
X0498604Y0175603I0000581J0000000D01*
G01*
X0499963Y0175603D01*
G75*
G02*
X0500543Y0175022I0000000J-000581D01*
G01*
X0500543Y0173860D01*
G75*
G02*
X0499963Y0173280I-000581J0000000D01*
G01*
G37*
G36*
G01*
X0499963Y0177099D02*
X0498604Y0177099D01*
G75*
G02*
X0498024Y0177679I0000000J0000581D01*
G01*
X0498024Y0178841D01*
G75*
G02*
X0498604Y0179421I0000581J0000000D01*
G01*
X0499963Y0179421D01*
G75*
G02*
X0500543Y0178841I0000000J-000581D01*
G01*
X0500543Y0177679D01*
G75*
G02*
X0499963Y0177099I-000581J0000000D01*
G01*
G37*
D70*
X0410197Y0163329D03*
X0410197Y0170809D03*
X0402323Y0167069D03*
D71*
X0473669Y0169028D03*
X0473669Y0166469D03*
X0473669Y0163910D03*
X0473669Y0161351D03*
X0473669Y0158792D03*
X0473669Y0156232D03*
X0473669Y0153673D03*
X0496898Y0153673D03*
X0496898Y0156232D03*
X0496898Y0158792D03*
X0496898Y0161351D03*
X0496898Y0163910D03*
X0496898Y0166469D03*
X0496898Y0169028D03*
G36*
G01*
X0507963Y0165280D02*
X0506604Y0165280D01*
G75*
G02*
X0506024Y0165860I0000000J0000581D01*
G01*
X0506024Y0167022D01*
G75*
G02*
X0506604Y0167603I0000581J0000000D01*
G01*
X0507963Y0167603D01*
G75*
G02*
X0508543Y0167022I0000000J-000581D01*
G01*
X0508543Y0165860D01*
G75*
G02*
X0507963Y0165280I-000581J0000000D01*
G01*
G37*
G36*
G01*
X0507963Y0169099D02*
X0506604Y0169099D01*
G75*
G02*
X0506024Y0169679I0000000J0000581D01*
G01*
X0506024Y0170841D01*
G75*
G02*
X0506604Y0171421I0000581J0000000D01*
G01*
X0507963Y0171421D01*
G75*
G02*
X0508543Y0170841I0000000J-000581D01*
G01*
X0508543Y0169679D01*
G75*
G02*
X0507963Y0169099I-000581J0000000D01*
G01*
G37*
G36*
G01*
X0460835Y0188034D02*
X0460835Y0189392D01*
G75*
G02*
X0461415Y0189973I0000581J0000000D01*
G01*
X0462577Y0189973D01*
G75*
G02*
X0463158Y0189392I0000000J-000581D01*
G01*
X0463158Y0188034D01*
G75*
G02*
X0462577Y0187453I-000581J0000000D01*
G01*
X0461415Y0187453D01*
G75*
G02*
X0460835Y0188034I0000000J0000581D01*
G01*
G37*
G36*
G01*
X0464654Y0188034D02*
X0464654Y0189392D01*
G75*
G02*
X0465234Y0189973I0000581J0000000D01*
G01*
X0466396Y0189973D01*
G75*
G02*
X0466976Y0189392I0000000J-000581D01*
G01*
X0466976Y0188034D01*
G75*
G02*
X0466396Y0187453I-000581J0000000D01*
G01*
X0465234Y0187453D01*
G75*
G02*
X0464654Y0188034I0000000J0000581D01*
G01*
G37*
G36*
G01*
X0466976Y0193132D02*
X0466976Y0191774D01*
G75*
G02*
X0466396Y0191193I-000581J0000000D01*
G01*
X0465234Y0191193D01*
G75*
G02*
X0464654Y0191774I0000000J0000581D01*
G01*
X0464654Y0193132D01*
G75*
G02*
X0465234Y0193713I0000581J0000000D01*
G01*
X0466396Y0193713D01*
G75*
G02*
X0466976Y0193132I0000000J-000581D01*
G01*
G37*
G36*
G01*
X0463158Y0193132D02*
X0463158Y0191774D01*
G75*
G02*
X0462577Y0191193I-000581J0000000D01*
G01*
X0461415Y0191193D01*
G75*
G02*
X0460835Y0191774I0000000J0000581D01*
G01*
X0460835Y0193132D01*
G75*
G02*
X0461415Y0193713I0000581J0000000D01*
G01*
X0462577Y0193713D01*
G75*
G02*
X0463158Y0193132I0000000J-000581D01*
G01*
G37*
G36*
G01*
X0463423Y0172099D02*
X0464782Y0172099D01*
G75*
G02*
X0465362Y0171518I0000000J-000581D01*
G01*
X0465362Y0170357D01*
G75*
G02*
X0464782Y0169776I-000581J0000000D01*
G01*
X0463423Y0169776D01*
G75*
G02*
X0462843Y0170357I0000000J0000581D01*
G01*
X0462843Y0171518D01*
G75*
G02*
X0463423Y0172099I0000581J0000000D01*
G01*
G37*
G36*
G01*
X0463423Y0168280D02*
X0464782Y0168280D01*
G75*
G02*
X0465362Y0167699I0000000J-000581D01*
G01*
X0465362Y0166538D01*
G75*
G02*
X0464782Y0165957I-000581J0000000D01*
G01*
X0463423Y0165957D01*
G75*
G02*
X0462843Y0166538I0000000J0000581D01*
G01*
X0462843Y0167699D01*
G75*
G02*
X0463423Y0168280I0000581J0000000D01*
G01*
G37*
G36*
G01*
X0509860Y0182295D02*
X0508502Y0182295D01*
G75*
G02*
X0507921Y0182876I0000000J0000581D01*
G01*
X0507921Y0184038D01*
G75*
G02*
X0508502Y0184618I0000581J0000000D01*
G01*
X0509860Y0184618D01*
G75*
G02*
X0510441Y0184038I0000000J-000581D01*
G01*
X0510441Y0182876D01*
G75*
G02*
X0509860Y0182295I-000581J0000000D01*
G01*
G37*
G36*
G01*
X0509860Y0186114D02*
X0508502Y0186114D01*
G75*
G02*
X0507921Y0186695I0000000J0000581D01*
G01*
X0507921Y0187857D01*
G75*
G02*
X0508502Y0188437I0000581J0000000D01*
G01*
X0509860Y0188437D01*
G75*
G02*
X0510441Y0187857I0000000J-000581D01*
G01*
X0510441Y0186695D01*
G75*
G02*
X0509860Y0186114I-000581J0000000D01*
G01*
G37*
G36*
G01*
X0435303Y0191774D02*
X0435303Y0193132D01*
G75*
G02*
X0435884Y0193713I0000581J0000000D01*
G01*
X0437045Y0193713D01*
G75*
G02*
X0437626Y0193132I0000000J-000581D01*
G01*
X0437626Y0191774D01*
G75*
G02*
X0437045Y0191193I-000581J0000000D01*
G01*
X0435884Y0191193D01*
G75*
G02*
X0435303Y0191774I0000000J0000581D01*
G01*
G37*
G36*
G01*
X0439122Y0191774D02*
X0439122Y0193132D01*
G75*
G02*
X0439703Y0193713I0000581J0000000D01*
G01*
X0440864Y0193713D01*
G75*
G02*
X0441445Y0193132I0000000J-000581D01*
G01*
X0441445Y0191774D01*
G75*
G02*
X0440864Y0191193I-000581J0000000D01*
G01*
X0439703Y0191193D01*
G75*
G02*
X0439122Y0191774I0000000J0000581D01*
G01*
G37*
G36*
G01*
X0458699Y0155957D02*
X0460057Y0155957D01*
G75*
G02*
X0460638Y0155376I0000000J-000581D01*
G01*
X0460638Y0154215D01*
G75*
G02*
X0460057Y0153634I-000581J0000000D01*
G01*
X0458699Y0153634D01*
G75*
G02*
X0458118Y0154215I0000000J0000581D01*
G01*
X0458118Y0155376D01*
G75*
G02*
X0458699Y0155957I0000581J0000000D01*
G01*
G37*
G36*
G01*
X0458699Y0152138D02*
X0460057Y0152138D01*
G75*
G02*
X0460638Y0151557I0000000J-000581D01*
G01*
X0460638Y0150396D01*
G75*
G02*
X0460057Y0149815I-000581J0000000D01*
G01*
X0458699Y0149815D01*
G75*
G02*
X0458118Y0150396I0000000J0000581D01*
G01*
X0458118Y0151557D01*
G75*
G02*
X0458699Y0152138I0000581J0000000D01*
G01*
G37*
G36*
G01*
X0424230Y0185051D02*
X0422872Y0185051D01*
G75*
G02*
X0422291Y0185632I0000000J0000581D01*
G01*
X0422291Y0186794D01*
G75*
G02*
X0422872Y0187374I0000581J0000000D01*
G01*
X0424230Y0187374D01*
G75*
G02*
X0424811Y0186794I0000000J-000581D01*
G01*
X0424811Y0185632D01*
G75*
G02*
X0424230Y0185051I-000581J0000000D01*
G01*
G37*
G36*
G01*
X0424230Y0188870D02*
X0422872Y0188870D01*
G75*
G02*
X0422291Y0189451I0000000J0000581D01*
G01*
X0422291Y0190612D01*
G75*
G02*
X0422872Y0191193I0000581J0000000D01*
G01*
X0424230Y0191193D01*
G75*
G02*
X0424811Y0190612I0000000J-000581D01*
G01*
X0424811Y0189451D01*
G75*
G02*
X0424230Y0188870I-000581J0000000D01*
G01*
G37*
D72*
X0515953Y0178083D03*
D73*
X0524929Y0153280D03*
D72*
X0533906Y0178083D03*
G36*
G01*
X0502705Y0144136D02*
X0502705Y0145494D01*
G75*
G02*
X0503285Y0146075I0000581J0000000D01*
G01*
X0504447Y0146075D01*
G75*
G02*
X0505028Y0145494I0000000J-000581D01*
G01*
X0505028Y0144136D01*
G75*
G02*
X0504447Y0143555I-000581J0000000D01*
G01*
X0503285Y0143555D01*
G75*
G02*
X0502705Y0144136I0000000J0000581D01*
G01*
G37*
G36*
G01*
X0506524Y0144136D02*
X0506524Y0145494D01*
G75*
G02*
X0507104Y0146075I0000581J0000000D01*
G01*
X0508266Y0146075D01*
G75*
G02*
X0508846Y0145494I0000000J-000581D01*
G01*
X0508846Y0144136D01*
G75*
G02*
X0508266Y0143555I-000581J0000000D01*
G01*
X0507104Y0143555D01*
G75*
G02*
X0506524Y0144136I0000000J0000581D01*
G01*
G37*
G36*
G01*
X0464585Y0149815D02*
X0463226Y0149815D01*
G75*
G02*
X0462646Y0150396I0000000J0000581D01*
G01*
X0462646Y0151557D01*
G75*
G02*
X0463226Y0152138I0000581J0000000D01*
G01*
X0464585Y0152138D01*
G75*
G02*
X0465165Y0151557I0000000J-000581D01*
G01*
X0465165Y0150396D01*
G75*
G02*
X0464585Y0149815I-000581J0000000D01*
G01*
G37*
G36*
G01*
X0464585Y0153634D02*
X0463226Y0153634D01*
G75*
G02*
X0462646Y0154215I0000000J0000581D01*
G01*
X0462646Y0155376D01*
G75*
G02*
X0463226Y0155957I0000581J0000000D01*
G01*
X0464585Y0155957D01*
G75*
G02*
X0465165Y0155376I0000000J-000581D01*
G01*
X0465165Y0154215D01*
G75*
G02*
X0464585Y0153634I-000581J0000000D01*
G01*
G37*
G36*
G01*
X0500933Y0190396D02*
X0500933Y0191754D01*
G75*
G02*
X0501514Y0192335I0000581J0000000D01*
G01*
X0502675Y0192335D01*
G75*
G02*
X0503256Y0191754I0000000J-000581D01*
G01*
X0503256Y0190396D01*
G75*
G02*
X0502675Y0189815I-000581J0000000D01*
G01*
X0501514Y0189815D01*
G75*
G02*
X0500933Y0190396I0000000J0000581D01*
G01*
G37*
G36*
G01*
X0504752Y0190396D02*
X0504752Y0191754D01*
G75*
G02*
X0505333Y0192335I0000581J0000000D01*
G01*
X0506494Y0192335D01*
G75*
G02*
X0507075Y0191754I0000000J-000581D01*
G01*
X0507075Y0190396D01*
G75*
G02*
X0506494Y0189815I-000581J0000000D01*
G01*
X0505333Y0189815D01*
G75*
G02*
X0504752Y0190396I0000000J0000581D01*
G01*
G37*
G36*
G01*
X0467104Y0156921D02*
X0468463Y0156921D01*
G75*
G02*
X0469043Y0156341I0000000J-000581D01*
G01*
X0469043Y0155179D01*
G75*
G02*
X0468463Y0154599I-000581J0000000D01*
G01*
X0467104Y0154599D01*
G75*
G02*
X0466524Y0155179I0000000J0000581D01*
G01*
X0466524Y0156341D01*
G75*
G02*
X0467104Y0156921I0000581J0000000D01*
G01*
G37*
G36*
G01*
X0467104Y0153103D02*
X0468463Y0153103D01*
G75*
G02*
X0469043Y0152522I0000000J-000581D01*
G01*
X0469043Y0151360D01*
G75*
G02*
X0468463Y0150780I-000581J0000000D01*
G01*
X0467104Y0150780D01*
G75*
G02*
X0466524Y0151360I0000000J0000581D01*
G01*
X0466524Y0152522D01*
G75*
G02*
X0467104Y0153103I0000581J0000000D01*
G01*
G37*
G36*
G01*
X0413000Y0157325D02*
X0413000Y0158683D01*
G75*
G02*
X0413581Y0159264I0000581J0000000D01*
G01*
X0414742Y0159264D01*
G75*
G02*
X0415323Y0158683I0000000J-000581D01*
G01*
X0415323Y0157325D01*
G75*
G02*
X0414742Y0156744I-000581J0000000D01*
G01*
X0413581Y0156744D01*
G75*
G02*
X0413000Y0157325I0000000J0000581D01*
G01*
G37*
G36*
G01*
X0416819Y0157325D02*
X0416819Y0158683D01*
G75*
G02*
X0417400Y0159264I0000581J0000000D01*
G01*
X0418561Y0159264D01*
G75*
G02*
X0419142Y0158683I0000000J-000581D01*
G01*
X0419142Y0157325D01*
G75*
G02*
X0418561Y0156744I-000581J0000000D01*
G01*
X0417400Y0156744D01*
G75*
G02*
X0416819Y0157325I0000000J0000581D01*
G01*
G37*
G36*
G01*
X0452106Y0147359D02*
X0452106Y0145342D01*
G75*
G02*
X0451245Y0144481I-000861J0000000D01*
G01*
X0449523Y0144481D01*
G75*
G02*
X0448661Y0145342I0000000J0000861D01*
G01*
X0448661Y0147359D01*
G75*
G02*
X0449523Y0148221I0000861J0000000D01*
G01*
X0451245Y0148221D01*
G75*
G02*
X0452106Y0147359I0000000J-000861D01*
G01*
G37*
G36*
G01*
X0445906Y0147359D02*
X0445906Y0145342D01*
G75*
G02*
X0445044Y0144481I-000861J0000000D01*
G01*
X0443322Y0144481D01*
G75*
G02*
X0442461Y0145342I0000000J0000861D01*
G01*
X0442461Y0147359D01*
G75*
G02*
X0443322Y0148221I0000861J0000000D01*
G01*
X0445044Y0148221D01*
G75*
G02*
X0445906Y0147359I0000000J-000861D01*
G01*
G37*
G36*
G01*
X0460354Y0147030D02*
X0460354Y0145671D01*
G75*
G02*
X0459774Y0145091I-000581J0000000D01*
G01*
X0458612Y0145091D01*
G75*
G02*
X0458032Y0145671I0000000J0000581D01*
G01*
X0458032Y0147030D01*
G75*
G02*
X0458612Y0147610I0000581J0000000D01*
G01*
X0459774Y0147610D01*
G75*
G02*
X0460354Y0147030I0000000J-000581D01*
G01*
G37*
G36*
G01*
X0456535Y0147030D02*
X0456535Y0145671D01*
G75*
G02*
X0455955Y0145091I-000581J0000000D01*
G01*
X0454793Y0145091D01*
G75*
G02*
X0454213Y0145671I0000000J0000581D01*
G01*
X0454213Y0147030D01*
G75*
G02*
X0454793Y0147610I0000581J0000000D01*
G01*
X0455955Y0147610D01*
G75*
G02*
X0456535Y0147030I0000000J-000581D01*
G01*
G37*
G36*
G01*
X0472854Y0175030D02*
X0472854Y0173671D01*
G75*
G02*
X0472274Y0173091I-000581J0000000D01*
G01*
X0471112Y0173091D01*
G75*
G02*
X0470532Y0173671I0000000J0000581D01*
G01*
X0470532Y0175030D01*
G75*
G02*
X0471112Y0175610I0000581J0000000D01*
G01*
X0472274Y0175610D01*
G75*
G02*
X0472854Y0175030I0000000J-000581D01*
G01*
G37*
G36*
G01*
X0469035Y0175030D02*
X0469035Y0173671D01*
G75*
G02*
X0468455Y0173091I-000581J0000000D01*
G01*
X0467293Y0173091D01*
G75*
G02*
X0466713Y0173671I0000000J0000581D01*
G01*
X0466713Y0175030D01*
G75*
G02*
X0467293Y0175610I0000581J0000000D01*
G01*
X0468455Y0175610D01*
G75*
G02*
X0469035Y0175030I0000000J-000581D01*
G01*
G37*
G36*
G01*
X0478604Y0179421D02*
X0479963Y0179421D01*
G75*
G02*
X0480543Y0178841I0000000J-000581D01*
G01*
X0480543Y0177679D01*
G75*
G02*
X0479963Y0177099I-000581J0000000D01*
G01*
X0478604Y0177099D01*
G75*
G02*
X0478024Y0177679I0000000J0000581D01*
G01*
X0478024Y0178841D01*
G75*
G02*
X0478604Y0179421I0000581J0000000D01*
G01*
G37*
G36*
G01*
X0478604Y0175603D02*
X0479963Y0175603D01*
G75*
G02*
X0480543Y0175022I0000000J-000581D01*
G01*
X0480543Y0173860D01*
G75*
G02*
X0479963Y0173280I-000581J0000000D01*
G01*
X0478604Y0173280D01*
G75*
G02*
X0478024Y0173860I0000000J0000581D01*
G01*
X0478024Y0175022D01*
G75*
G02*
X0478604Y0175603I0000581J0000000D01*
G01*
G37*
G36*
G01*
X0474841Y0179421D02*
X0476199Y0179421D01*
G75*
G02*
X0476780Y0178841I0000000J-000581D01*
G01*
X0476780Y0177679D01*
G75*
G02*
X0476199Y0177099I-000581J0000000D01*
G01*
X0474841Y0177099D01*
G75*
G02*
X0474260Y0177679I0000000J0000581D01*
G01*
X0474260Y0178841D01*
G75*
G02*
X0474841Y0179421I0000581J0000000D01*
G01*
G37*
G36*
G01*
X0474841Y0175603D02*
X0476199Y0175603D01*
G75*
G02*
X0476780Y0175022I0000000J-000581D01*
G01*
X0476780Y0173860D01*
G75*
G02*
X0476199Y0173280I-000581J0000000D01*
G01*
X0474841Y0173280D01*
G75*
G02*
X0474260Y0173860I0000000J0000581D01*
G01*
X0474260Y0175022D01*
G75*
G02*
X0474841Y0175603I0000581J0000000D01*
G01*
G37*
G36*
G01*
X0472854Y0179030D02*
X0472854Y0177671D01*
G75*
G02*
X0472274Y0177091I-000581J0000000D01*
G01*
X0471112Y0177091D01*
G75*
G02*
X0470532Y0177671I0000000J0000581D01*
G01*
X0470532Y0179030D01*
G75*
G02*
X0471112Y0179610I0000581J0000000D01*
G01*
X0472274Y0179610D01*
G75*
G02*
X0472854Y0179030I0000000J-000581D01*
G01*
G37*
G36*
G01*
X0469035Y0179030D02*
X0469035Y0177671D01*
G75*
G02*
X0468455Y0177091I-000581J0000000D01*
G01*
X0467293Y0177091D01*
G75*
G02*
X0466713Y0177671I0000000J0000581D01*
G01*
X0466713Y0179030D01*
G75*
G02*
X0467293Y0179610I0000581J0000000D01*
G01*
X0468455Y0179610D01*
G75*
G02*
X0469035Y0179030I0000000J-000581D01*
G01*
G37*
D74*
X0488945Y0183595D03*
X0488945Y0187335D03*
X0488945Y0191075D03*
X0478630Y0191075D03*
X0478630Y0183595D03*
G36*
G01*
X0482604Y0179421D02*
X0483963Y0179421D01*
G75*
G02*
X0484543Y0178841I0000000J-000581D01*
G01*
X0484543Y0177679D01*
G75*
G02*
X0483963Y0177099I-000581J0000000D01*
G01*
X0482604Y0177099D01*
G75*
G02*
X0482024Y0177679I0000000J0000581D01*
G01*
X0482024Y0178841D01*
G75*
G02*
X0482604Y0179421I0000581J0000000D01*
G01*
G37*
G36*
G01*
X0482604Y0175603D02*
X0483963Y0175603D01*
G75*
G02*
X0484543Y0175022I0000000J-000581D01*
G01*
X0484543Y0173860D01*
G75*
G02*
X0483963Y0173280I-000581J0000000D01*
G01*
X0482604Y0173280D01*
G75*
G02*
X0482024Y0173860I0000000J0000581D01*
G01*
X0482024Y0175022D01*
G75*
G02*
X0482604Y0175603I0000581J0000000D01*
G01*
G37*
G36*
G01*
X0493738Y0186469D02*
X0495096Y0186469D01*
G75*
G02*
X0495677Y0185888I0000000J-000581D01*
G01*
X0495677Y0184727D01*
G75*
G02*
X0495096Y0184146I-000581J0000000D01*
G01*
X0493738Y0184146D01*
G75*
G02*
X0493158Y0184727I0000000J0000581D01*
G01*
X0493158Y0185888D01*
G75*
G02*
X0493738Y0186469I0000581J0000000D01*
G01*
G37*
G36*
G01*
X0493738Y0182650D02*
X0495096Y0182650D01*
G75*
G02*
X0495677Y0182069I0000000J-000581D01*
G01*
X0495677Y0180908D01*
G75*
G02*
X0495096Y0180327I-000581J0000000D01*
G01*
X0493738Y0180327D01*
G75*
G02*
X0493158Y0180908I0000000J0000581D01*
G01*
X0493158Y0182069D01*
G75*
G02*
X0493738Y0182650I0000581J0000000D01*
G01*
G37*
G36*
G01*
X0507104Y0163921D02*
X0508463Y0163921D01*
G75*
G02*
X0509043Y0163341I0000000J-000581D01*
G01*
X0509043Y0162179D01*
G75*
G02*
X0508463Y0161599I-000581J0000000D01*
G01*
X0507104Y0161599D01*
G75*
G02*
X0506524Y0162179I0000000J0000581D01*
G01*
X0506524Y0163341D01*
G75*
G02*
X0507104Y0163921I0000581J0000000D01*
G01*
G37*
G36*
G01*
X0507104Y0160103D02*
X0508463Y0160103D01*
G75*
G02*
X0509043Y0159522I0000000J-000581D01*
G01*
X0509043Y0158360D01*
G75*
G02*
X0508463Y0157780I-000581J0000000D01*
G01*
X0507104Y0157780D01*
G75*
G02*
X0506524Y0158360I0000000J0000581D01*
G01*
X0506524Y0159522D01*
G75*
G02*
X0507104Y0160103I0000581J0000000D01*
G01*
G37*
G36*
G01*
X0505292Y0177528D02*
X0503275Y0177528D01*
G75*
G02*
X0502413Y0178389I0000000J0000861D01*
G01*
X0502413Y0180111D01*
G75*
G02*
X0503275Y0180973I0000861J0000000D01*
G01*
X0505292Y0180973D01*
G75*
G02*
X0506154Y0180111I0000000J-000861D01*
G01*
X0506154Y0178389D01*
G75*
G02*
X0505292Y0177528I-000861J0000000D01*
G01*
G37*
G36*
G01*
X0505292Y0183729D02*
X0503275Y0183729D01*
G75*
G02*
X0502413Y0184590I0000000J0000861D01*
G01*
X0502413Y0186312D01*
G75*
G02*
X0503275Y0187173I0000861J0000000D01*
G01*
X0505292Y0187173D01*
G75*
G02*
X0506154Y0186312I0000000J-000861D01*
G01*
X0506154Y0184590D01*
G75*
G02*
X0505292Y0183729I-000861J0000000D01*
G01*
G37*
G36*
G01*
X0502705Y0152404D02*
X0502705Y0153762D01*
G75*
G02*
X0503285Y0154343I0000581J0000000D01*
G01*
X0504447Y0154343D01*
G75*
G02*
X0505028Y0153762I0000000J-000581D01*
G01*
X0505028Y0152404D01*
G75*
G02*
X0504447Y0151823I-000581J0000000D01*
G01*
X0503285Y0151823D01*
G75*
G02*
X0502705Y0152404I0000000J0000581D01*
G01*
G37*
G36*
G01*
X0506524Y0152404D02*
X0506524Y0153762D01*
G75*
G02*
X0507104Y0154343I0000581J0000000D01*
G01*
X0508266Y0154343D01*
G75*
G02*
X0508846Y0153762I0000000J-000581D01*
G01*
X0508846Y0152404D01*
G75*
G02*
X0508266Y0151823I-000581J0000000D01*
G01*
X0507104Y0151823D01*
G75*
G02*
X0506524Y0152404I0000000J0000581D01*
G01*
G37*
G36*
G01*
X0508846Y0149628D02*
X0508846Y0148270D01*
G75*
G02*
X0508266Y0147689I-000581J0000000D01*
G01*
X0507104Y0147689D01*
G75*
G02*
X0506524Y0148270I0000000J0000581D01*
G01*
X0506524Y0149628D01*
G75*
G02*
X0507104Y0150209I0000581J0000000D01*
G01*
X0508266Y0150209D01*
G75*
G02*
X0508846Y0149628I0000000J-000581D01*
G01*
G37*
G36*
G01*
X0505028Y0149628D02*
X0505028Y0148270D01*
G75*
G02*
X0504447Y0147689I-000581J0000000D01*
G01*
X0503285Y0147689D01*
G75*
G02*
X0502705Y0148270I0000000J0000581D01*
G01*
X0502705Y0149628D01*
G75*
G02*
X0503285Y0150209I0000581J0000000D01*
G01*
X0504447Y0150209D01*
G75*
G02*
X0505028Y0149628I0000000J-000581D01*
G01*
G37*
G36*
G01*
X0430461Y0145342D02*
X0430461Y0147359D01*
G75*
G02*
X0431322Y0148221I0000861J0000000D01*
G01*
X0433044Y0148221D01*
G75*
G02*
X0433906Y0147359I0000000J-000861D01*
G01*
X0433906Y0145342D01*
G75*
G02*
X0433044Y0144481I-000861J0000000D01*
G01*
X0431322Y0144481D01*
G75*
G02*
X0430461Y0145342I0000000J0000861D01*
G01*
G37*
G36*
G01*
X0436661Y0145342D02*
X0436661Y0147359D01*
G75*
G02*
X0437523Y0148221I0000861J0000000D01*
G01*
X0439245Y0148221D01*
G75*
G02*
X0440106Y0147359I0000000J-000861D01*
G01*
X0440106Y0145342D01*
G75*
G02*
X0439245Y0144481I-000861J0000000D01*
G01*
X0437523Y0144481D01*
G75*
G02*
X0436661Y0145342I0000000J0000861D01*
G01*
G37*
G36*
G01*
X0427232Y0140790D02*
X0427232Y0142148D01*
G75*
G02*
X0427813Y0142729I0000581J0000000D01*
G01*
X0428974Y0142729D01*
G75*
G02*
X0429555Y0142148I0000000J-000581D01*
G01*
X0429555Y0140790D01*
G75*
G02*
X0428974Y0140209I-000581J0000000D01*
G01*
X0427813Y0140209D01*
G75*
G02*
X0427232Y0140790I0000000J0000581D01*
G01*
G37*
G36*
G01*
X0431051Y0140790D02*
X0431051Y0142148D01*
G75*
G02*
X0431632Y0142729I0000581J0000000D01*
G01*
X0432793Y0142729D01*
G75*
G02*
X0433374Y0142148I0000000J-000581D01*
G01*
X0433374Y0140790D01*
G75*
G02*
X0432793Y0140209I-000581J0000000D01*
G01*
X0431632Y0140209D01*
G75*
G02*
X0431051Y0140790I0000000J0000581D01*
G01*
G37*
G36*
G01*
X0474457Y0182896D02*
X0474457Y0181538D01*
G75*
G02*
X0473876Y0180957I-000581J0000000D01*
G01*
X0472715Y0180957D01*
G75*
G02*
X0472134Y0181538I0000000J0000581D01*
G01*
X0472134Y0182896D01*
G75*
G02*
X0472715Y0183477I0000581J0000000D01*
G01*
X0473876Y0183477D01*
G75*
G02*
X0474457Y0182896I0000000J-000581D01*
G01*
G37*
G36*
G01*
X0470638Y0182896D02*
X0470638Y0181538D01*
G75*
G02*
X0470057Y0180957I-000581J0000000D01*
G01*
X0468896Y0180957D01*
G75*
G02*
X0468315Y0181538I0000000J0000581D01*
G01*
X0468315Y0182896D01*
G75*
G02*
X0468896Y0183477I0000581J0000000D01*
G01*
X0470057Y0183477D01*
G75*
G02*
X0470638Y0182896I0000000J-000581D01*
G01*
G37*
G36*
G01*
X0461051Y0159284D02*
X0461051Y0158299D01*
G75*
G02*
X0460559Y0157807I-000492J0000000D01*
G01*
X0455638Y0157807D01*
G75*
G02*
X0455146Y0158299I0000000J0000492D01*
G01*
X0455146Y0159284D01*
G75*
G02*
X0455638Y0159776I0000492J0000000D01*
G01*
X0460559Y0159776D01*
G75*
G02*
X0461051Y0159284I0000000J-000492D01*
G01*
G37*
G36*
G01*
X0461051Y0162433D02*
X0461051Y0161449D01*
G75*
G02*
X0460559Y0160957I-000492J0000000D01*
G01*
X0455638Y0160957D01*
G75*
G02*
X0455146Y0161449I0000000J0000492D01*
G01*
X0455146Y0162433D01*
G75*
G02*
X0455638Y0162925I0000492J0000000D01*
G01*
X0460559Y0162925D01*
G75*
G02*
X0461051Y0162433I0000000J-000492D01*
G01*
G37*
G36*
G01*
X0461051Y0165583D02*
X0461051Y0164599D01*
G75*
G02*
X0460559Y0164107I-000492J0000000D01*
G01*
X0455638Y0164107D01*
G75*
G02*
X0455146Y0164599I0000000J0000492D01*
G01*
X0455146Y0165583D01*
G75*
G02*
X0455638Y0166075I0000492J0000000D01*
G01*
X0460559Y0166075D01*
G75*
G02*
X0461051Y0165583I0000000J-000492D01*
G01*
G37*
G36*
G01*
X0461051Y0168732D02*
X0461051Y0167748D01*
G75*
G02*
X0460559Y0167256I-000492J0000000D01*
G01*
X0455638Y0167256D01*
G75*
G02*
X0455146Y0167748I0000000J0000492D01*
G01*
X0455146Y0168732D01*
G75*
G02*
X0455638Y0169225I0000492J0000000D01*
G01*
X0460559Y0169225D01*
G75*
G02*
X0461051Y0168732I0000000J-000492D01*
G01*
G37*
G36*
G01*
X0461051Y0171882D02*
X0461051Y0170898D01*
G75*
G02*
X0460559Y0170406I-000492J0000000D01*
G01*
X0455638Y0170406D01*
G75*
G02*
X0455146Y0170898I0000000J0000492D01*
G01*
X0455146Y0171882D01*
G75*
G02*
X0455638Y0172374I0000492J0000000D01*
G01*
X0460559Y0172374D01*
G75*
G02*
X0461051Y0171882I0000000J-000492D01*
G01*
G37*
G36*
G01*
X0461051Y0175032D02*
X0461051Y0174047D01*
G75*
G02*
X0460559Y0173555I-000492J0000000D01*
G01*
X0455638Y0173555D01*
G75*
G02*
X0455146Y0174047I0000000J0000492D01*
G01*
X0455146Y0175032D01*
G75*
G02*
X0455638Y0175524I0000492J0000000D01*
G01*
X0460559Y0175524D01*
G75*
G02*
X0461051Y0175032I0000000J-000492D01*
G01*
G37*
G36*
G01*
X0461051Y0178181D02*
X0461051Y0177197D01*
G75*
G02*
X0460559Y0176705I-000492J0000000D01*
G01*
X0455638Y0176705D01*
G75*
G02*
X0455146Y0177197I0000000J0000492D01*
G01*
X0455146Y0178181D01*
G75*
G02*
X0455638Y0178673I0000492J0000000D01*
G01*
X0460559Y0178673D01*
G75*
G02*
X0461051Y0178181I0000000J-000492D01*
G01*
G37*
G36*
G01*
X0461051Y0181331D02*
X0461051Y0180347D01*
G75*
G02*
X0460559Y0179855I-000492J0000000D01*
G01*
X0455638Y0179855D01*
G75*
G02*
X0455146Y0180347I0000000J0000492D01*
G01*
X0455146Y0181331D01*
G75*
G02*
X0455638Y0181823I0000492J0000000D01*
G01*
X0460559Y0181823D01*
G75*
G02*
X0461051Y0181331I0000000J-000492D01*
G01*
G37*
G36*
G01*
X0453669Y0188713D02*
X0453669Y0183792D01*
G75*
G02*
X0453177Y0183299I-000492J0000000D01*
G01*
X0452193Y0183299D01*
G75*
G02*
X0451701Y0183792I0000000J0000492D01*
G01*
X0451701Y0188713D01*
G75*
G02*
X0452193Y0189205I0000492J0000000D01*
G01*
X0453177Y0189205D01*
G75*
G02*
X0453669Y0188713I0000000J-000492D01*
G01*
G37*
G36*
G01*
X0450520Y0188713D02*
X0450520Y0183792D01*
G75*
G02*
X0450028Y0183299I-000492J0000000D01*
G01*
X0449043Y0183299D01*
G75*
G02*
X0448551Y0183792I0000000J0000492D01*
G01*
X0448551Y0188713D01*
G75*
G02*
X0449043Y0189205I0000492J0000000D01*
G01*
X0450028Y0189205D01*
G75*
G02*
X0450520Y0188713I0000000J-000492D01*
G01*
G37*
G36*
G01*
X0447370Y0188713D02*
X0447370Y0183792D01*
G75*
G02*
X0446878Y0183299I-000492J0000000D01*
G01*
X0445894Y0183299D01*
G75*
G02*
X0445402Y0183792I0000000J0000492D01*
G01*
X0445402Y0188713D01*
G75*
G02*
X0445894Y0189205I0000492J0000000D01*
G01*
X0446878Y0189205D01*
G75*
G02*
X0447370Y0188713I0000000J-000492D01*
G01*
G37*
G36*
G01*
X0444220Y0188713D02*
X0444220Y0183792D01*
G75*
G02*
X0443728Y0183299I-000492J0000000D01*
G01*
X0442744Y0183299D01*
G75*
G02*
X0442252Y0183792I0000000J0000492D01*
G01*
X0442252Y0188713D01*
G75*
G02*
X0442744Y0189205I0000492J0000000D01*
G01*
X0443728Y0189205D01*
G75*
G02*
X0444220Y0188713I0000000J-000492D01*
G01*
G37*
G36*
G01*
X0441071Y0188713D02*
X0441071Y0183792D01*
G75*
G02*
X0440579Y0183299I-000492J0000000D01*
G01*
X0439595Y0183299D01*
G75*
G02*
X0439102Y0183792I0000000J0000492D01*
G01*
X0439102Y0188713D01*
G75*
G02*
X0439595Y0189205I0000492J0000000D01*
G01*
X0440579Y0189205D01*
G75*
G02*
X0441071Y0188713I0000000J-000492D01*
G01*
G37*
G36*
G01*
X0437921Y0188713D02*
X0437921Y0183792D01*
G75*
G02*
X0437429Y0183299I-000492J0000000D01*
G01*
X0436445Y0183299D01*
G75*
G02*
X0435953Y0183792I0000000J0000492D01*
G01*
X0435953Y0188713D01*
G75*
G02*
X0436445Y0189205I0000492J0000000D01*
G01*
X0437429Y0189205D01*
G75*
G02*
X0437921Y0188713I0000000J-000492D01*
G01*
G37*
G36*
G01*
X0434772Y0188713D02*
X0434772Y0183792D01*
G75*
G02*
X0434280Y0183299I-000492J0000000D01*
G01*
X0433295Y0183299D01*
G75*
G02*
X0432803Y0183792I0000000J0000492D01*
G01*
X0432803Y0188713D01*
G75*
G02*
X0433295Y0189205I0000492J0000000D01*
G01*
X0434280Y0189205D01*
G75*
G02*
X0434772Y0188713I0000000J-000492D01*
G01*
G37*
G36*
G01*
X0431622Y0188713D02*
X0431622Y0183792D01*
G75*
G02*
X0431130Y0183299I-000492J0000000D01*
G01*
X0430146Y0183299D01*
G75*
G02*
X0429654Y0183792I0000000J0000492D01*
G01*
X0429654Y0188713D01*
G75*
G02*
X0430146Y0189205I0000492J0000000D01*
G01*
X0431130Y0189205D01*
G75*
G02*
X0431622Y0188713I0000000J-000492D01*
G01*
G37*
G36*
G01*
X0428177Y0181331D02*
X0428177Y0180347D01*
G75*
G02*
X0427685Y0179855I-000492J0000000D01*
G01*
X0422764Y0179855D01*
G75*
G02*
X0422272Y0180347I0000000J0000492D01*
G01*
X0422272Y0181331D01*
G75*
G02*
X0422764Y0181823I0000492J0000000D01*
G01*
X0427685Y0181823D01*
G75*
G02*
X0428177Y0181331I0000000J-000492D01*
G01*
G37*
G36*
G01*
X0428177Y0178181D02*
X0428177Y0177197D01*
G75*
G02*
X0427685Y0176705I-000492J0000000D01*
G01*
X0422764Y0176705D01*
G75*
G02*
X0422272Y0177197I0000000J0000492D01*
G01*
X0422272Y0178181D01*
G75*
G02*
X0422764Y0178673I0000492J0000000D01*
G01*
X0427685Y0178673D01*
G75*
G02*
X0428177Y0178181I0000000J-000492D01*
G01*
G37*
G36*
G01*
X0428177Y0175032D02*
X0428177Y0174047D01*
G75*
G02*
X0427685Y0173555I-000492J0000000D01*
G01*
X0422764Y0173555D01*
G75*
G02*
X0422272Y0174047I0000000J0000492D01*
G01*
X0422272Y0175032D01*
G75*
G02*
X0422764Y0175524I0000492J0000000D01*
G01*
X0427685Y0175524D01*
G75*
G02*
X0428177Y0175032I0000000J-000492D01*
G01*
G37*
G36*
G01*
X0428177Y0171882D02*
X0428177Y0170898D01*
G75*
G02*
X0427685Y0170406I-000492J0000000D01*
G01*
X0422764Y0170406D01*
G75*
G02*
X0422272Y0170898I0000000J0000492D01*
G01*
X0422272Y0171882D01*
G75*
G02*
X0422764Y0172374I0000492J0000000D01*
G01*
X0427685Y0172374D01*
G75*
G02*
X0428177Y0171882I0000000J-000492D01*
G01*
G37*
G36*
G01*
X0428177Y0168732D02*
X0428177Y0167748D01*
G75*
G02*
X0427685Y0167256I-000492J0000000D01*
G01*
X0422764Y0167256D01*
G75*
G02*
X0422272Y0167748I0000000J0000492D01*
G01*
X0422272Y0168732D01*
G75*
G02*
X0422764Y0169225I0000492J0000000D01*
G01*
X0427685Y0169225D01*
G75*
G02*
X0428177Y0168732I0000000J-000492D01*
G01*
G37*
G36*
G01*
X0428177Y0165583D02*
X0428177Y0164599D01*
G75*
G02*
X0427685Y0164107I-000492J0000000D01*
G01*
X0422764Y0164107D01*
G75*
G02*
X0422272Y0164599I0000000J0000492D01*
G01*
X0422272Y0165583D01*
G75*
G02*
X0422764Y0166075I0000492J0000000D01*
G01*
X0427685Y0166075D01*
G75*
G02*
X0428177Y0165583I0000000J-000492D01*
G01*
G37*
G36*
G01*
X0428177Y0162433D02*
X0428177Y0161449D01*
G75*
G02*
X0427685Y0160957I-000492J0000000D01*
G01*
X0422764Y0160957D01*
G75*
G02*
X0422272Y0161449I0000000J0000492D01*
G01*
X0422272Y0162433D01*
G75*
G02*
X0422764Y0162925I0000492J0000000D01*
G01*
X0427685Y0162925D01*
G75*
G02*
X0428177Y0162433I0000000J-000492D01*
G01*
G37*
G36*
G01*
X0428177Y0159284D02*
X0428177Y0158299D01*
G75*
G02*
X0427685Y0157807I-000492J0000000D01*
G01*
X0422764Y0157807D01*
G75*
G02*
X0422272Y0158299I0000000J0000492D01*
G01*
X0422272Y0159284D01*
G75*
G02*
X0422764Y0159776I0000492J0000000D01*
G01*
X0427685Y0159776D01*
G75*
G02*
X0428177Y0159284I0000000J-000492D01*
G01*
G37*
G36*
G01*
X0431622Y0155839D02*
X0431622Y0150918D01*
G75*
G02*
X0431130Y0150425I-000492J0000000D01*
G01*
X0430146Y0150425D01*
G75*
G02*
X0429654Y0150918I0000000J0000492D01*
G01*
X0429654Y0155839D01*
G75*
G02*
X0430146Y0156331I0000492J0000000D01*
G01*
X0431130Y0156331D01*
G75*
G02*
X0431622Y0155839I0000000J-000492D01*
G01*
G37*
G36*
G01*
X0434772Y0155839D02*
X0434772Y0150918D01*
G75*
G02*
X0434280Y0150425I-000492J0000000D01*
G01*
X0433295Y0150425D01*
G75*
G02*
X0432803Y0150918I0000000J0000492D01*
G01*
X0432803Y0155839D01*
G75*
G02*
X0433295Y0156331I0000492J0000000D01*
G01*
X0434280Y0156331D01*
G75*
G02*
X0434772Y0155839I0000000J-000492D01*
G01*
G37*
G36*
G01*
X0437921Y0155839D02*
X0437921Y0150918D01*
G75*
G02*
X0437429Y0150425I-000492J0000000D01*
G01*
X0436445Y0150425D01*
G75*
G02*
X0435953Y0150918I0000000J0000492D01*
G01*
X0435953Y0155839D01*
G75*
G02*
X0436445Y0156331I0000492J0000000D01*
G01*
X0437429Y0156331D01*
G75*
G02*
X0437921Y0155839I0000000J-000492D01*
G01*
G37*
G36*
G01*
X0441071Y0155839D02*
X0441071Y0150918D01*
G75*
G02*
X0440579Y0150425I-000492J0000000D01*
G01*
X0439595Y0150425D01*
G75*
G02*
X0439102Y0150918I0000000J0000492D01*
G01*
X0439102Y0155839D01*
G75*
G02*
X0439595Y0156331I0000492J0000000D01*
G01*
X0440579Y0156331D01*
G75*
G02*
X0441071Y0155839I0000000J-000492D01*
G01*
G37*
G36*
G01*
X0444220Y0155839D02*
X0444220Y0150918D01*
G75*
G02*
X0443728Y0150425I-000492J0000000D01*
G01*
X0442744Y0150425D01*
G75*
G02*
X0442252Y0150918I0000000J0000492D01*
G01*
X0442252Y0155839D01*
G75*
G02*
X0442744Y0156331I0000492J0000000D01*
G01*
X0443728Y0156331D01*
G75*
G02*
X0444220Y0155839I0000000J-000492D01*
G01*
G37*
G36*
G01*
X0447370Y0155839D02*
X0447370Y0150918D01*
G75*
G02*
X0446878Y0150425I-000492J0000000D01*
G01*
X0445894Y0150425D01*
G75*
G02*
X0445402Y0150918I0000000J0000492D01*
G01*
X0445402Y0155839D01*
G75*
G02*
X0445894Y0156331I0000492J0000000D01*
G01*
X0446878Y0156331D01*
G75*
G02*
X0447370Y0155839I0000000J-000492D01*
G01*
G37*
G36*
G01*
X0450520Y0155839D02*
X0450520Y0150918D01*
G75*
G02*
X0450028Y0150425I-000492J0000000D01*
G01*
X0449043Y0150425D01*
G75*
G02*
X0448551Y0150918I0000000J0000492D01*
G01*
X0448551Y0155839D01*
G75*
G02*
X0449043Y0156331I0000492J0000000D01*
G01*
X0450028Y0156331D01*
G75*
G02*
X0450520Y0155839I0000000J-000492D01*
G01*
G37*
G36*
G01*
X0453669Y0155839D02*
X0453669Y0150918D01*
G75*
G02*
X0453177Y0150425I-000492J0000000D01*
G01*
X0452193Y0150425D01*
G75*
G02*
X0451701Y0150918I0000000J0000492D01*
G01*
X0451701Y0155839D01*
G75*
G02*
X0452193Y0156331I0000492J0000000D01*
G01*
X0453177Y0156331D01*
G75*
G02*
X0453669Y0155839I0000000J-000492D01*
G01*
G37*
G36*
G01*
X0460835Y0184294D02*
X0460835Y0185652D01*
G75*
G02*
X0461415Y0186232I0000581J0000000D01*
G01*
X0462577Y0186232D01*
G75*
G02*
X0463158Y0185652I0000000J-000581D01*
G01*
X0463158Y0184294D01*
G75*
G02*
X0462577Y0183713I-000581J0000000D01*
G01*
X0461415Y0183713D01*
G75*
G02*
X0460835Y0184294I0000000J0000581D01*
G01*
G37*
G36*
G01*
X0464654Y0184294D02*
X0464654Y0185652D01*
G75*
G02*
X0465234Y0186232I0000581J0000000D01*
G01*
X0466396Y0186232D01*
G75*
G02*
X0466976Y0185652I0000000J-000581D01*
G01*
X0466976Y0184294D01*
G75*
G02*
X0466396Y0183713I-000581J0000000D01*
G01*
X0465234Y0183713D01*
G75*
G02*
X0464654Y0184294I0000000J0000581D01*
G01*
G37*
G36*
G01*
X0474457Y0186833D02*
X0474457Y0185475D01*
G75*
G02*
X0473876Y0184894I-000581J0000000D01*
G01*
X0472715Y0184894D01*
G75*
G02*
X0472134Y0185475I0000000J0000581D01*
G01*
X0472134Y0186833D01*
G75*
G02*
X0472715Y0187414I0000581J0000000D01*
G01*
X0473876Y0187414D01*
G75*
G02*
X0474457Y0186833I0000000J-000581D01*
G01*
G37*
G36*
G01*
X0470638Y0186833D02*
X0470638Y0185475D01*
G75*
G02*
X0470057Y0184894I-000581J0000000D01*
G01*
X0468896Y0184894D01*
G75*
G02*
X0468315Y0185475I0000000J0000581D01*
G01*
X0468315Y0186833D01*
G75*
G02*
X0468896Y0187414I0000581J0000000D01*
G01*
X0470057Y0187414D01*
G75*
G02*
X0470638Y0186833I0000000J-000581D01*
G01*
G37*
G36*
G01*
X0468945Y0161636D02*
X0468945Y0160278D01*
G75*
G02*
X0468364Y0159697I-000581J0000000D01*
G01*
X0467203Y0159697D01*
G75*
G02*
X0466622Y0160278I0000000J0000581D01*
G01*
X0466622Y0161636D01*
G75*
G02*
X0467203Y0162217I0000581J0000000D01*
G01*
X0468364Y0162217D01*
G75*
G02*
X0468945Y0161636I0000000J-000581D01*
G01*
G37*
G36*
G01*
X0465126Y0161636D02*
X0465126Y0160278D01*
G75*
G02*
X0464545Y0159697I-000581J0000000D01*
G01*
X0463384Y0159697D01*
G75*
G02*
X0462803Y0160278I0000000J0000581D01*
G01*
X0462803Y0161636D01*
G75*
G02*
X0463384Y0162217I0000581J0000000D01*
G01*
X0464545Y0162217D01*
G75*
G02*
X0465126Y0161636I0000000J-000581D01*
G01*
G37*
G36*
G01*
X0416150Y0179815D02*
X0417508Y0179815D01*
G75*
G02*
X0418089Y0179234I0000000J-000581D01*
G01*
X0418089Y0178073D01*
G75*
G02*
X0417508Y0177492I-000581J0000000D01*
G01*
X0416150Y0177492D01*
G75*
G02*
X0415569Y0178073I0000000J0000581D01*
G01*
X0415569Y0179234D01*
G75*
G02*
X0416150Y0179815I0000581J0000000D01*
G01*
G37*
G36*
G01*
X0416150Y0175996D02*
X0417508Y0175996D01*
G75*
G02*
X0418089Y0175415I0000000J-000581D01*
G01*
X0418089Y0174254D01*
G75*
G02*
X0417508Y0173673I-000581J0000000D01*
G01*
X0416150Y0173673D01*
G75*
G02*
X0415569Y0174254I0000000J0000581D01*
G01*
X0415569Y0175415D01*
G75*
G02*
X0416150Y0175996I0000581J0000000D01*
G01*
G37*
G36*
G01*
X0425431Y0153457D02*
X0426789Y0153457D01*
G75*
G02*
X0427370Y0152876I0000000J-000581D01*
G01*
X0427370Y0151715D01*
G75*
G02*
X0426789Y0151134I-000581J0000000D01*
G01*
X0425431Y0151134D01*
G75*
G02*
X0424850Y0151715I0000000J0000581D01*
G01*
X0424850Y0152876D01*
G75*
G02*
X0425431Y0153457I0000581J0000000D01*
G01*
G37*
G36*
G01*
X0425431Y0149638D02*
X0426789Y0149638D01*
G75*
G02*
X0427370Y0149057I0000000J-000581D01*
G01*
X0427370Y0147896D01*
G75*
G02*
X0426789Y0147315I-000581J0000000D01*
G01*
X0425431Y0147315D01*
G75*
G02*
X0424850Y0147896I0000000J0000581D01*
G01*
X0424850Y0149057D01*
G75*
G02*
X0425431Y0149638I0000581J0000000D01*
G01*
G37*
G36*
G01*
X0401689Y0175790D02*
X0401689Y0177148D01*
G75*
G02*
X0402270Y0177729I0000581J0000000D01*
G01*
X0403431Y0177729D01*
G75*
G02*
X0404012Y0177148I0000000J-000581D01*
G01*
X0404012Y0175790D01*
G75*
G02*
X0403431Y0175209I-000581J0000000D01*
G01*
X0402270Y0175209D01*
G75*
G02*
X0401689Y0175790I0000000J0000581D01*
G01*
G37*
G36*
G01*
X0405508Y0175790D02*
X0405508Y0177148D01*
G75*
G02*
X0406089Y0177729I0000581J0000000D01*
G01*
X0407250Y0177729D01*
G75*
G02*
X0407831Y0177148I0000000J-000581D01*
G01*
X0407831Y0175790D01*
G75*
G02*
X0407250Y0175209I-000581J0000000D01*
G01*
X0406089Y0175209D01*
G75*
G02*
X0405508Y0175790I0000000J0000581D01*
G01*
G37*
D75*
X0403020Y0181532D03*
X0410500Y0181532D03*
X0406760Y0189406D03*
G36*
G01*
X0504463Y0157780D02*
X0503104Y0157780D01*
G75*
G02*
X0502524Y0158360I0000000J0000581D01*
G01*
X0502524Y0159522D01*
G75*
G02*
X0503104Y0160103I0000581J0000000D01*
G01*
X0504463Y0160103D01*
G75*
G02*
X0505043Y0159522I0000000J-000581D01*
G01*
X0505043Y0158360D01*
G75*
G02*
X0504463Y0157780I-000581J0000000D01*
G01*
G37*
G36*
G01*
X0504463Y0161599D02*
X0503104Y0161599D01*
G75*
G02*
X0502524Y0162179I0000000J0000581D01*
G01*
X0502524Y0163341D01*
G75*
G02*
X0503104Y0163921I0000581J0000000D01*
G01*
X0504463Y0163921D01*
G75*
G02*
X0505043Y0163341I0000000J-000581D01*
G01*
X0505043Y0162179D01*
G75*
G02*
X0504463Y0161599I-000581J0000000D01*
G01*
G37*
G36*
G01*
X0416115Y0191449D02*
X0418133Y0191449D01*
G75*
G02*
X0418994Y0190588I0000000J-000861D01*
G01*
X0418994Y0188865D01*
G75*
G02*
X0418133Y0188004I-000861J0000000D01*
G01*
X0416115Y0188004D01*
G75*
G02*
X0415254Y0188865I0000000J0000861D01*
G01*
X0415254Y0190588D01*
G75*
G02*
X0416115Y0191449I0000861J0000000D01*
G01*
G37*
G36*
G01*
X0416115Y0185248D02*
X0418133Y0185248D01*
G75*
G02*
X0418994Y0184387I0000000J-000861D01*
G01*
X0418994Y0182664D01*
G75*
G02*
X0418133Y0181803I-000861J0000000D01*
G01*
X0416115Y0181803D01*
G75*
G02*
X0415254Y0182664I0000000J0000861D01*
G01*
X0415254Y0184387D01*
G75*
G02*
X0416115Y0185248I0000861J0000000D01*
G01*
G37*
D78*
X0400362Y0147965D03*
X0420362Y0143965D03*
X0420362Y0151965D03*
D76*
X0405362Y0145465D03*
X0405362Y0150465D03*
X0410362Y0145465D03*
X0410362Y0150465D03*
X0415362Y0145465D03*
X0415362Y0150465D03*
X0350198Y0143841D02*
G01*
G75*
D93*
X0349115Y0187148D02*
D03*
D92*
X0348918Y0146400D02*
D03*
X0348918Y0148369D02*
D03*
D120*
X0337186Y0155258D02*
D03*
X0346438Y0151518D02*
D03*
D120*
X0337186Y0147778D02*
D03*
D121*
X0325572Y0162817D02*
D03*
X0330572Y0162817D02*
D03*
X0335572Y0162817D02*
D03*
X0340572Y0162817D02*
D03*
X0325572Y0181715D02*
D03*
X0330572Y0181715D02*
D03*
X0335572Y0181715D02*
D03*
X0340572Y0181715D02*
D03*
D122*
X0345867Y0178526D02*
D03*
X0345867Y0184746D02*
D03*
X0345867Y0170180D02*
D03*
X0345867Y0163959D02*
D03*
D123*
X0332285Y0148368D02*
D03*
X0332285Y0154668D02*
D03*
D98*
X0348328Y0158998D02*
D03*
X0325789Y0175042D02*
D03*
X0339765Y0175337D02*
D03*
X0344785Y0174156D02*
D03*
X0342718Y0170711D02*
D03*
M02*
