G75*
G70*
%OFA0B0*%
%FSLAX25Y25*%
%IPPOS*%
%LPD*%
%AMOC8*
5,1,8,0,0,1.08239X$1,22.5*
%
%ADD10C,0.00787*%
%ADD56C,0.00512*%
%ADD57C,0.00591*%
%ADD58C,0.00550*%
%ADD59C,0.01181*%
%ADD60C,0.00600*%
%ADD62C,0.00472*%
%ADD63C,0.01969*%
%ADD99C,0.01000*%
X0000000Y0000000D02*
%LPD*%
G01*
D10*
X0000000Y0005000D02*
X0000000Y0542693D01*
X0505989Y0589000D02*
X0046272Y0589000D01*
X0046272Y0589000D02*
X0000000Y0542693D01*
X0550000Y0005000D02*
X0550000Y0542693D01*
X0545000Y0000000D02*
G75*
G03*
X0550000Y0005000I0000000J0005000D01*
G01*
X0032875Y0545250D02*
G75*
G03*
X0032875Y0545250I-009375J0000000D01*
G01*
X0505989Y0589000D02*
X0550000Y0542693D01*
X0000000Y0005000D02*
G75*
G03*
X0005000Y0000000I0005000J0000000D01*
G01*
X0545000Y0000000D02*
X0005000Y0000000D01*
X0535405Y0545250D02*
G75*
G03*
X0535405Y0545250I-009375J0000000D01*
G01*
D56*
D57*
X0506125Y0529219D02*
X0503875Y0529219D01*
X0505000Y0529219D02*
X0505000Y0533156D01*
X0504625Y0532594D01*
X0504250Y0532219D01*
X0503875Y0532031D01*
X0468688Y0533156D02*
X0471125Y0533156D01*
X0469813Y0531656D01*
X0470375Y0531656D01*
X0470750Y0531469D01*
X0470938Y0531281D01*
X0471125Y0530906D01*
X0471125Y0529969D01*
X0470938Y0529594D01*
X0470750Y0529407D01*
X0470375Y0529219D01*
X0469250Y0529219D01*
X0468875Y0529407D01*
X0468688Y0529594D01*
X0468688Y0533156D02*
X0471125Y0533156D01*
X0469813Y0531656D01*
X0470375Y0531656D01*
X0470750Y0531469D01*
X0470938Y0531281D01*
X0471125Y0530906D01*
X0471125Y0529969D01*
X0470938Y0529594D01*
X0470750Y0529407D01*
X0470375Y0529219D01*
X0469250Y0529219D01*
X0468875Y0529407D01*
X0468688Y0529594D01*
X0506125Y0529219D02*
X0503875Y0529219D01*
X0505000Y0529219D02*
X0505000Y0533156D01*
X0504625Y0532594D01*
X0504250Y0532219D01*
X0503875Y0532031D01*
X0055596Y0299675D02*
X0055596Y0301925D01*
X0055596Y0300800D02*
X0051659Y0300800D01*
X0052222Y0301175D01*
X0052597Y0301550D01*
X0052784Y0301925D01*
X0051659Y0298363D02*
X0051659Y0295926D01*
X0053159Y0297238D01*
X0053159Y0296676D01*
X0053346Y0296301D01*
X0053534Y0296113D01*
X0053909Y0295926D01*
X0054846Y0295926D01*
X0055221Y0296113D01*
X0055409Y0296301D01*
X0055596Y0296676D01*
X0055596Y0297800D01*
X0055409Y0298175D01*
X0055221Y0298363D01*
X0051659Y0375988D02*
X0051659Y0377863D01*
X0053534Y0378050D01*
X0053346Y0377863D01*
X0053159Y0377488D01*
X0053159Y0376550D01*
X0053346Y0376175D01*
X0053534Y0375988D01*
X0053909Y0375800D01*
X0054846Y0375800D01*
X0055221Y0375988D01*
X0055409Y0376175D01*
X0055596Y0376550D01*
X0055596Y0377488D01*
X0055409Y0377863D01*
X0055221Y0378050D01*
X0296565Y0450581D02*
X0297315Y0450581D01*
X0297690Y0450394D01*
X0297878Y0450206D01*
X0298252Y0449644D01*
X0298440Y0448894D01*
X0298440Y0447394D01*
X0298252Y0447019D01*
X0298065Y0446832D01*
X0297690Y0446644D01*
X0296940Y0446644D01*
X0296565Y0446832D01*
X0296378Y0447019D01*
X0296190Y0447394D01*
X0296190Y0448332D01*
X0296378Y0448707D01*
X0296565Y0448894D01*
X0296940Y0449082D01*
X0297690Y0449082D01*
X0298065Y0448894D01*
X0298252Y0448707D01*
X0298440Y0448332D01*
X0495754Y0428558D02*
X0495754Y0430433D01*
X0497628Y0430621D01*
X0497441Y0430433D01*
X0497253Y0430058D01*
X0497253Y0429121D01*
X0497441Y0428746D01*
X0497628Y0428558D01*
X0498003Y0428371D01*
X0498941Y0428371D01*
X0499316Y0428558D01*
X0499503Y0428746D01*
X0499691Y0429121D01*
X0499691Y0430058D01*
X0499503Y0430433D01*
X0499316Y0430621D01*
X0497066Y0427058D02*
X0499691Y0426121D01*
X0497066Y0425184D01*
X0499503Y0420872D02*
X0499691Y0420309D01*
X0499691Y0419372D01*
X0499503Y0418997D01*
X0499316Y0418809D01*
X0498941Y0418622D01*
X0498566Y0418622D01*
X0498191Y0418809D01*
X0498003Y0418997D01*
X0497816Y0419372D01*
X0497628Y0420122D01*
X0497441Y0420497D01*
X0497253Y0420684D01*
X0496878Y0420872D01*
X0496504Y0420872D01*
X0496129Y0420684D01*
X0495941Y0420497D01*
X0495754Y0420122D01*
X0495754Y0419184D01*
X0495941Y0418622D01*
X0499503Y0415435D02*
X0499691Y0415810D01*
X0499691Y0416560D01*
X0499503Y0416935D01*
X0499128Y0417122D01*
X0497628Y0417122D01*
X0497253Y0416935D01*
X0497066Y0416560D01*
X0497066Y0415810D01*
X0497253Y0415435D01*
X0497628Y0415247D01*
X0498003Y0415247D01*
X0498378Y0417122D01*
X0497066Y0413560D02*
X0499691Y0413560D01*
X0497441Y0413560D02*
X0497253Y0413373D01*
X0497066Y0412998D01*
X0497066Y0412435D01*
X0497253Y0412060D01*
X0497628Y0411873D01*
X0499691Y0411873D01*
X0499503Y0410186D02*
X0499691Y0409811D01*
X0499691Y0409061D01*
X0499503Y0408686D01*
X0499128Y0408498D01*
X0498941Y0408498D01*
X0498566Y0408686D01*
X0498378Y0409061D01*
X0498378Y0409623D01*
X0498191Y0409998D01*
X0497816Y0410186D01*
X0497628Y0410186D01*
X0497253Y0409998D01*
X0497066Y0409623D01*
X0497066Y0409061D01*
X0497253Y0408686D01*
X0499691Y0406249D02*
X0499503Y0406624D01*
X0499316Y0406811D01*
X0498941Y0406998D01*
X0497816Y0406998D01*
X0497441Y0406811D01*
X0497253Y0406624D01*
X0497066Y0406249D01*
X0497066Y0405686D01*
X0497253Y0405311D01*
X0497441Y0405124D01*
X0497816Y0404936D01*
X0498941Y0404936D01*
X0499316Y0405124D01*
X0499503Y0405311D01*
X0499691Y0405686D01*
X0499691Y0406249D01*
X0499691Y0403249D02*
X0497066Y0403249D01*
X0497816Y0403249D02*
X0497441Y0403061D01*
X0497253Y0402874D01*
X0497066Y0402499D01*
X0497066Y0402124D01*
X0499503Y0398000D02*
X0499691Y0397437D01*
X0499691Y0396500D01*
X0499503Y0396125D01*
X0499316Y0395937D01*
X0498941Y0395750D01*
X0498566Y0395750D01*
X0498191Y0395937D01*
X0498003Y0396125D01*
X0497816Y0396500D01*
X0497628Y0397250D01*
X0497441Y0397625D01*
X0497253Y0397812D01*
X0496878Y0398000D01*
X0496504Y0398000D01*
X0496129Y0397812D01*
X0495941Y0397625D01*
X0495754Y0397250D01*
X0495754Y0396312D01*
X0495941Y0395750D01*
X0497066Y0392375D02*
X0499691Y0392375D01*
X0497066Y0394063D02*
X0499128Y0394063D01*
X0499503Y0393875D01*
X0499691Y0393500D01*
X0499691Y0392938D01*
X0499503Y0392563D01*
X0499316Y0392375D01*
X0497066Y0390501D02*
X0501003Y0390501D01*
X0497253Y0390501D02*
X0497066Y0390126D01*
X0497066Y0389376D01*
X0497253Y0389001D01*
X0497441Y0388813D01*
X0497816Y0388626D01*
X0498941Y0388626D01*
X0499316Y0388813D01*
X0499503Y0389001D01*
X0499691Y0389376D01*
X0499691Y0390126D01*
X0499503Y0390501D01*
X0497066Y0386938D02*
X0501003Y0386938D01*
X0497253Y0386938D02*
X0497066Y0386564D01*
X0497066Y0385814D01*
X0497253Y0385439D01*
X0497441Y0385251D01*
X0497816Y0385064D01*
X0498941Y0385064D01*
X0499316Y0385251D01*
X0499503Y0385439D01*
X0499691Y0385814D01*
X0499691Y0386564D01*
X0499503Y0386938D01*
X0499691Y0382814D02*
X0499503Y0383189D01*
X0499128Y0383376D01*
X0495754Y0383376D01*
X0497066Y0381689D02*
X0499691Y0380752D01*
X0497066Y0379814D02*
X0499691Y0380752D01*
X0500628Y0381127D01*
X0500815Y0381314D01*
X0501003Y0381689D01*
D59*
X0490664Y0493285D02*
X0490664Y0501159D01*
X0486914Y0493285D02*
X0486914Y0501159D01*
X0482415Y0493285D01*
X0482415Y0501159D01*
X0478665Y0493285D02*
X0478665Y0501159D01*
X0475666Y0501159D01*
X0474916Y0500784D01*
X0474541Y0500409D01*
X0474166Y0499659D01*
X0474166Y0498534D01*
X0474541Y0497784D01*
X0474916Y0497409D01*
X0475666Y0497034D01*
X0478665Y0497034D01*
X0470791Y0501159D02*
X0470791Y0494784D01*
X0470416Y0494034D01*
X0470041Y0493660D01*
X0469291Y0493285D01*
X0467791Y0493285D01*
X0467042Y0493660D01*
X0466667Y0494034D01*
X0466292Y0494784D01*
X0466292Y0501159D01*
X0463667Y0501159D02*
X0459168Y0501159D01*
X0461417Y0493285D02*
X0461417Y0501159D01*
X0456918Y0493660D02*
X0455793Y0493285D01*
X0453918Y0493285D01*
X0453168Y0493660D01*
X0452793Y0494034D01*
X0452418Y0494784D01*
X0452418Y0495534D01*
X0452793Y0496284D01*
X0453168Y0496659D01*
X0453918Y0497034D01*
X0455418Y0497409D01*
X0456168Y0497784D01*
X0456543Y0498159D01*
X0456918Y0498909D01*
X0456918Y0499659D01*
X0456543Y0500409D01*
X0456168Y0500784D01*
X0455418Y0501159D01*
X0453543Y0501159D01*
X0452418Y0500784D01*
D57*
X0055596Y0315675D02*
X0055596Y0317925D01*
X0055596Y0316800D02*
X0051659Y0316800D01*
X0052222Y0317175D01*
X0052597Y0317550D01*
X0052784Y0317925D01*
X0055596Y0311926D02*
X0055596Y0314175D01*
X0055596Y0313051D02*
X0051659Y0313051D01*
X0052222Y0313426D01*
X0052597Y0313800D01*
X0052784Y0314175D01*
X0220815Y0450644D02*
X0217815Y0450644D01*
X0219315Y0449144D02*
X0219315Y0452144D01*
X0090636Y0403108D02*
X0090636Y0405358D01*
X0090636Y0404233D02*
X0086699Y0404233D01*
X0087261Y0404608D01*
X0087636Y0404983D01*
X0087823Y0405358D01*
X0090636Y0399359D02*
X0090636Y0401609D01*
X0090636Y0400484D02*
X0086699Y0400484D01*
X0087261Y0400859D01*
X0087636Y0401234D01*
X0087823Y0401609D01*
X0280877Y0462706D02*
X0280690Y0462894D01*
X0280315Y0463081D01*
X0279377Y0463081D01*
X0279002Y0462894D01*
X0278815Y0462706D01*
X0278627Y0462331D01*
X0278627Y0461956D01*
X0278815Y0461394D01*
X0281065Y0459144D01*
X0278627Y0459144D01*
X0276940Y0460644D02*
X0273941Y0460644D01*
X0055596Y0283675D02*
X0055596Y0285925D01*
X0055596Y0284800D02*
X0051659Y0284800D01*
X0052222Y0285175D01*
X0052597Y0285550D01*
X0052784Y0285925D01*
X0052971Y0280301D02*
X0055596Y0280301D01*
X0051472Y0281238D02*
X0054284Y0282175D01*
X0054284Y0279738D01*
X0461108Y0311648D02*
X0465045Y0310336D01*
X0461108Y0309023D01*
X0462795Y0307148D02*
X0462608Y0307523D01*
X0462420Y0307711D01*
X0462045Y0307898D01*
X0461858Y0307898D01*
X0461483Y0307711D01*
X0461295Y0307523D01*
X0461108Y0307148D01*
X0461108Y0306399D01*
X0461295Y0306024D01*
X0461483Y0305836D01*
X0461858Y0305649D01*
X0462045Y0305649D01*
X0462420Y0305836D01*
X0462608Y0306024D01*
X0462795Y0306399D01*
X0462795Y0307148D01*
X0462983Y0307523D01*
X0463170Y0307711D01*
X0463545Y0307898D01*
X0464295Y0307898D01*
X0464670Y0307711D01*
X0464857Y0307523D01*
X0465045Y0307148D01*
X0465045Y0306399D01*
X0464857Y0306024D01*
X0464670Y0305836D01*
X0464295Y0305649D01*
X0463545Y0305649D01*
X0463170Y0305836D01*
X0462983Y0306024D01*
X0462795Y0306399D01*
X0088255Y0278050D02*
X0088067Y0277863D01*
X0087880Y0277488D01*
X0087880Y0276550D01*
X0088067Y0276175D01*
X0088255Y0275988D01*
X0088630Y0275800D01*
X0089004Y0275800D01*
X0089567Y0275988D01*
X0091817Y0278238D01*
X0091817Y0275800D01*
X0070065Y0418269D02*
X0070065Y0415644D01*
X0071003Y0419769D02*
X0071940Y0416957D01*
X0069503Y0416957D01*
D60*
X0244623Y0440782D02*
X0244776Y0440934D01*
X0244928Y0441391D01*
X0244928Y0441696D01*
X0244776Y0442153D01*
X0244471Y0442458D01*
X0244166Y0442610D01*
X0243557Y0442763D01*
X0243100Y0442763D01*
X0242490Y0442610D01*
X0242185Y0442458D01*
X0241880Y0442153D01*
X0241728Y0441696D01*
X0241728Y0441391D01*
X0241880Y0440934D01*
X0242033Y0440782D01*
X0244014Y0439563D02*
X0244014Y0438039D01*
X0244928Y0439868D02*
X0241728Y0438801D01*
X0244928Y0437734D01*
X0244928Y0436668D02*
X0241728Y0436668D01*
X0244928Y0434839D01*
X0241728Y0434839D01*
X0242033Y0433468D02*
X0241880Y0433315D01*
X0241728Y0433010D01*
X0241728Y0432249D01*
X0241880Y0431944D01*
X0242033Y0431791D01*
X0242338Y0431639D01*
X0242642Y0431639D01*
X0243100Y0431791D01*
X0244928Y0433620D01*
X0244928Y0431639D01*
D57*
X0071627Y0434581D02*
X0069190Y0434581D01*
X0070503Y0433082D01*
X0069940Y0433082D01*
X0069565Y0432894D01*
X0069378Y0432707D01*
X0069190Y0432332D01*
X0069190Y0431394D01*
X0069378Y0431019D01*
X0069565Y0430832D01*
X0069940Y0430644D01*
X0071065Y0430644D01*
X0071440Y0430832D01*
X0071627Y0431019D01*
X0474494Y0302053D02*
X0478431Y0300741D01*
X0474494Y0299429D01*
X0474494Y0296242D02*
X0474494Y0298116D01*
X0476369Y0298304D01*
X0476181Y0298116D01*
X0475994Y0297741D01*
X0475994Y0296804D01*
X0476181Y0296429D01*
X0476369Y0296242D01*
X0476744Y0296054D01*
X0477681Y0296054D01*
X0478056Y0296242D01*
X0478243Y0296429D01*
X0478431Y0296804D01*
X0478431Y0297741D01*
X0478243Y0298116D01*
X0478056Y0298304D01*
X0081777Y0286938D02*
X0081777Y0284501D01*
X0083277Y0285814D01*
X0083277Y0285251D01*
X0083465Y0284876D01*
X0083652Y0284689D01*
X0084027Y0284501D01*
X0084964Y0284501D01*
X0085339Y0284689D01*
X0085527Y0284876D01*
X0085714Y0285251D01*
X0085714Y0286376D01*
X0085527Y0286751D01*
X0085339Y0286938D01*
X0218315Y0461644D02*
X0215315Y0461644D01*
X0090596Y0386675D02*
X0090596Y0388925D01*
X0090596Y0387800D02*
X0086659Y0387800D01*
X0087222Y0388175D01*
X0087597Y0388550D01*
X0087784Y0388925D01*
X0086659Y0384238D02*
X0086659Y0383863D01*
X0086847Y0383488D01*
X0087034Y0383301D01*
X0087409Y0383113D01*
X0088159Y0382926D01*
X0089096Y0382926D01*
X0089846Y0383113D01*
X0090221Y0383301D01*
X0090409Y0383488D01*
X0090596Y0383863D01*
X0090596Y0384238D01*
X0090409Y0384613D01*
X0090221Y0384800D01*
X0089846Y0384988D01*
X0089096Y0385175D01*
X0088159Y0385175D01*
X0087409Y0384988D01*
X0087034Y0384800D01*
X0086847Y0384613D01*
X0086659Y0384238D01*
X0300565Y0427314D02*
X0302815Y0427314D01*
X0301690Y0427314D02*
X0301690Y0431251D01*
X0302065Y0430688D01*
X0302440Y0430313D01*
X0302815Y0430126D01*
X0299065Y0430876D02*
X0298878Y0431063D01*
X0298503Y0431251D01*
X0297565Y0431251D01*
X0297190Y0431063D01*
X0297003Y0430876D01*
X0296815Y0430501D01*
X0296815Y0430126D01*
X0297003Y0429563D01*
X0299252Y0427314D01*
X0296815Y0427314D01*
X0295503Y0429938D02*
X0294566Y0427314D01*
X0293628Y0429938D01*
X0302346Y0420975D02*
X0302346Y0424912D01*
X0298409Y0424725D02*
X0298784Y0424912D01*
X0299346Y0424912D01*
X0299909Y0424725D01*
X0300284Y0424350D01*
X0300471Y0423975D01*
X0300659Y0423225D01*
X0300659Y0422662D01*
X0300471Y0421912D01*
X0300284Y0421537D01*
X0299909Y0421163D01*
X0299346Y0420975D01*
X0298971Y0420975D01*
X0298409Y0421163D01*
X0298221Y0421350D01*
X0298221Y0422662D01*
X0298971Y0422662D01*
X0296534Y0420975D02*
X0296534Y0424912D01*
X0294284Y0420975D01*
X0294284Y0424912D01*
X0087159Y0323175D02*
X0087159Y0323925D01*
X0087347Y0324300D01*
X0087534Y0324488D01*
X0088097Y0324863D01*
X0088846Y0325050D01*
X0090346Y0325050D01*
X0090721Y0324863D01*
X0090909Y0324675D01*
X0091096Y0324300D01*
X0091096Y0323550D01*
X0090909Y0323175D01*
X0090721Y0322988D01*
X0090346Y0322800D01*
X0089409Y0322800D01*
X0089034Y0322988D01*
X0088846Y0323175D01*
X0088659Y0323550D01*
X0088659Y0324300D01*
X0088846Y0324675D01*
X0089034Y0324863D01*
X0089409Y0325050D01*
X0460608Y0280148D02*
X0464545Y0278836D01*
X0460608Y0277523D01*
X0461920Y0274524D02*
X0464545Y0274524D01*
X0460420Y0275461D02*
X0463233Y0276398D01*
X0463233Y0273961D01*
X0099847Y0442925D02*
X0099659Y0443300D01*
X0099659Y0443862D01*
X0099847Y0444425D01*
X0100222Y0444800D01*
X0100597Y0444987D01*
X0101346Y0445175D01*
X0101909Y0445175D01*
X0102659Y0444987D01*
X0103034Y0444800D01*
X0103409Y0444425D01*
X0103596Y0443862D01*
X0103596Y0443487D01*
X0103409Y0442925D01*
X0103221Y0442738D01*
X0101909Y0442738D01*
X0101909Y0443487D01*
X0103596Y0441050D02*
X0099659Y0441050D01*
X0103596Y0438800D01*
X0099659Y0438800D01*
X0103596Y0436926D02*
X0099659Y0436926D01*
X0099659Y0435988D01*
X0099847Y0435426D01*
X0100222Y0435051D01*
X0100597Y0434863D01*
X0101346Y0434676D01*
X0101909Y0434676D01*
X0102659Y0434863D01*
X0103034Y0435051D01*
X0103409Y0435426D01*
X0103596Y0435988D01*
X0103596Y0436926D01*
X0474494Y0317553D02*
X0478431Y0316241D01*
X0474494Y0314929D01*
X0474494Y0313991D02*
X0474494Y0311367D01*
X0478431Y0313054D01*
D60*
X0245722Y0461143D02*
X0246026Y0461296D01*
X0246484Y0461296D01*
X0246941Y0461143D01*
X0247246Y0460839D01*
X0247398Y0460534D01*
X0247550Y0459924D01*
X0247550Y0459467D01*
X0247398Y0458858D01*
X0247246Y0458553D01*
X0246941Y0458248D01*
X0246484Y0458096D01*
X0246179Y0458096D01*
X0245722Y0458248D01*
X0245569Y0458401D01*
X0245569Y0459467D01*
X0246179Y0459467D01*
X0244198Y0458096D02*
X0244198Y0461296D01*
X0242369Y0458096D01*
X0242369Y0461296D01*
X0240846Y0458096D02*
X0240846Y0461296D01*
X0240084Y0461296D01*
X0239626Y0461143D01*
X0239322Y0460839D01*
X0239169Y0460534D01*
X0239017Y0459924D01*
X0239017Y0459467D01*
X0239169Y0458858D01*
X0239322Y0458553D01*
X0239626Y0458248D01*
X0240084Y0458096D01*
X0240846Y0458096D01*
D57*
X0475191Y0380594D02*
X0475191Y0378345D01*
X0479128Y0379469D02*
X0475191Y0379469D01*
X0475191Y0377407D02*
X0475191Y0374970D01*
X0476690Y0376282D01*
X0476690Y0375720D01*
X0476878Y0375345D01*
X0477065Y0375157D01*
X0477440Y0374970D01*
X0478378Y0374970D01*
X0478753Y0375157D01*
X0478940Y0375345D01*
X0479128Y0375720D01*
X0479128Y0376845D01*
X0478940Y0377220D01*
X0478753Y0377407D01*
X0347846Y0435019D02*
X0348034Y0434832D01*
X0348596Y0434644D01*
X0348971Y0434644D01*
X0349533Y0434832D01*
X0349908Y0435207D01*
X0350096Y0435582D01*
X0350283Y0436332D01*
X0350283Y0436894D01*
X0350096Y0437644D01*
X0349908Y0438019D01*
X0349533Y0438394D01*
X0348971Y0438581D01*
X0348596Y0438581D01*
X0348034Y0438394D01*
X0347846Y0438206D01*
X0346346Y0435769D02*
X0344471Y0435769D01*
X0346721Y0434644D02*
X0345409Y0438581D01*
X0344097Y0434644D01*
X0342784Y0434644D02*
X0342784Y0438581D01*
X0340534Y0434644D01*
X0340534Y0438581D01*
X0088971Y0291675D02*
X0091596Y0291675D01*
X0087472Y0292613D02*
X0090284Y0293550D01*
X0090284Y0291113D01*
X0496391Y0456503D02*
X0498641Y0456503D01*
X0497516Y0456503D02*
X0497516Y0460440D01*
X0497891Y0459877D01*
X0498266Y0459502D01*
X0498641Y0459315D01*
X0494891Y0460065D02*
X0494704Y0460252D01*
X0494329Y0460440D01*
X0493391Y0460440D01*
X0493016Y0460252D01*
X0492829Y0460065D01*
X0492642Y0459690D01*
X0492642Y0459315D01*
X0492829Y0458752D01*
X0495079Y0456503D01*
X0492642Y0456503D01*
X0491329Y0459127D02*
X0490392Y0456503D01*
X0489454Y0459127D01*
X0485142Y0456690D02*
X0484580Y0456503D01*
X0483643Y0456503D01*
X0483268Y0456690D01*
X0483080Y0456878D01*
X0482893Y0457252D01*
X0482893Y0457627D01*
X0483080Y0458002D01*
X0483268Y0458190D01*
X0483643Y0458377D01*
X0484393Y0458565D01*
X0484767Y0458752D01*
X0484955Y0458940D01*
X0485142Y0459315D01*
X0485142Y0459690D01*
X0484955Y0460065D01*
X0484767Y0460252D01*
X0484393Y0460440D01*
X0483455Y0460440D01*
X0482893Y0460252D01*
X0479706Y0456690D02*
X0480081Y0456503D01*
X0480830Y0456503D01*
X0481205Y0456690D01*
X0481393Y0457065D01*
X0481393Y0458565D01*
X0481205Y0458940D01*
X0480830Y0459127D01*
X0480081Y0459127D01*
X0479706Y0458940D01*
X0479518Y0458565D01*
X0479518Y0458190D01*
X0481393Y0457815D01*
X0477831Y0459127D02*
X0477831Y0456503D01*
X0477831Y0458752D02*
X0477643Y0458940D01*
X0477268Y0459127D01*
X0476706Y0459127D01*
X0476331Y0458940D01*
X0476144Y0458565D01*
X0476144Y0456503D01*
X0474456Y0456690D02*
X0474081Y0456503D01*
X0473331Y0456503D01*
X0472956Y0456690D01*
X0472769Y0457065D01*
X0472769Y0457252D01*
X0472956Y0457627D01*
X0473331Y0457815D01*
X0473894Y0457815D01*
X0474269Y0458002D01*
X0474456Y0458377D01*
X0474456Y0458565D01*
X0474269Y0458940D01*
X0473894Y0459127D01*
X0473331Y0459127D01*
X0472956Y0458940D01*
X0494704Y0450351D02*
X0494141Y0450164D01*
X0493204Y0450164D01*
X0492829Y0450351D01*
X0492642Y0450539D01*
X0492454Y0450914D01*
X0492454Y0451289D01*
X0492642Y0451664D01*
X0492829Y0451851D01*
X0493204Y0452039D01*
X0493954Y0452226D01*
X0494329Y0452414D01*
X0494516Y0452601D01*
X0494704Y0452976D01*
X0494704Y0453351D01*
X0494516Y0453726D01*
X0494329Y0453914D01*
X0493954Y0454101D01*
X0493016Y0454101D01*
X0492454Y0453914D01*
X0489079Y0452789D02*
X0489079Y0450164D01*
X0490767Y0452789D02*
X0490767Y0450726D01*
X0490579Y0450351D01*
X0490204Y0450164D01*
X0489642Y0450164D01*
X0489267Y0450351D01*
X0489079Y0450539D01*
X0487205Y0452789D02*
X0487205Y0448852D01*
X0487205Y0452601D02*
X0486830Y0452789D01*
X0486080Y0452789D01*
X0485705Y0452601D01*
X0485517Y0452414D01*
X0485330Y0452039D01*
X0485330Y0450914D01*
X0485517Y0450539D01*
X0485705Y0450351D01*
X0486080Y0450164D01*
X0486830Y0450164D01*
X0487205Y0450351D01*
X0483643Y0452789D02*
X0483643Y0448852D01*
X0483643Y0452601D02*
X0483268Y0452789D01*
X0482518Y0452789D01*
X0482143Y0452601D01*
X0481955Y0452414D01*
X0481768Y0452039D01*
X0481768Y0450914D01*
X0481955Y0450539D01*
X0482143Y0450351D01*
X0482518Y0450164D01*
X0483268Y0450164D01*
X0483643Y0450351D01*
X0479518Y0450164D02*
X0479893Y0450351D01*
X0480081Y0450726D01*
X0480081Y0454101D01*
X0478393Y0452789D02*
X0477456Y0450164D01*
X0476519Y0452789D02*
X0477456Y0450164D01*
X0477831Y0449227D01*
X0478018Y0449039D01*
X0478393Y0448852D01*
X0087159Y0341238D02*
X0087159Y0338613D01*
X0091096Y0340300D01*
X0265127Y0458644D02*
X0267377Y0458644D01*
X0266252Y0458644D02*
X0266252Y0462581D01*
X0266627Y0462019D01*
X0267002Y0461644D01*
X0267377Y0461456D01*
X0263440Y0460144D02*
X0260441Y0460144D01*
X0221935Y0457561D02*
X0220622Y0457561D01*
X0220060Y0455499D02*
X0221935Y0455499D01*
X0221935Y0459436D01*
X0220060Y0459436D01*
X0218935Y0459436D02*
X0216685Y0459436D01*
X0217810Y0455499D02*
X0217810Y0459436D01*
X0214061Y0457561D02*
X0213498Y0457373D01*
X0213311Y0457186D01*
X0213123Y0456811D01*
X0213123Y0456249D01*
X0213311Y0455874D01*
X0213498Y0455686D01*
X0213873Y0455499D01*
X0215373Y0455499D01*
X0215373Y0459436D01*
X0214061Y0459436D01*
X0213686Y0459248D01*
X0213498Y0459061D01*
X0213311Y0458686D01*
X0213311Y0458311D01*
X0213498Y0457936D01*
X0213686Y0457748D01*
X0214061Y0457561D01*
X0215373Y0457561D01*
X0208624Y0459061D02*
X0208436Y0459248D01*
X0208061Y0459436D01*
X0207124Y0459436D01*
X0206749Y0459248D01*
X0206562Y0459061D01*
X0206374Y0458686D01*
X0206374Y0458311D01*
X0206562Y0457748D01*
X0208811Y0455499D01*
X0206374Y0455499D01*
X0055596Y0330675D02*
X0055596Y0329925D01*
X0055409Y0329550D01*
X0055221Y0329363D01*
X0054659Y0328988D01*
X0053909Y0328800D01*
X0052409Y0328800D01*
X0052034Y0328988D01*
X0051847Y0329175D01*
X0051659Y0329550D01*
X0051659Y0330300D01*
X0051847Y0330675D01*
X0052034Y0330863D01*
X0052409Y0331050D01*
X0053346Y0331050D01*
X0053721Y0330863D01*
X0053909Y0330675D01*
X0054096Y0330300D01*
X0054096Y0329550D01*
X0053909Y0329175D01*
X0053721Y0328988D01*
X0053346Y0328800D01*
X0087159Y0307488D02*
X0087159Y0309363D01*
X0089034Y0309550D01*
X0088846Y0309363D01*
X0088659Y0308988D01*
X0088659Y0308050D01*
X0088846Y0307675D01*
X0089034Y0307488D01*
X0089409Y0307300D01*
X0090346Y0307300D01*
X0090721Y0307488D01*
X0090909Y0307675D01*
X0091096Y0308050D01*
X0091096Y0308988D01*
X0090909Y0309363D01*
X0090721Y0309550D01*
X0088846Y0355300D02*
X0088659Y0355675D01*
X0088471Y0355863D01*
X0088097Y0356050D01*
X0087909Y0356050D01*
X0087534Y0355863D01*
X0087347Y0355675D01*
X0087159Y0355300D01*
X0087159Y0354550D01*
X0087347Y0354175D01*
X0087534Y0353988D01*
X0087909Y0353800D01*
X0088097Y0353800D01*
X0088471Y0353988D01*
X0088659Y0354175D01*
X0088846Y0354550D01*
X0088846Y0355300D01*
X0089034Y0355675D01*
X0089221Y0355863D01*
X0089596Y0356050D01*
X0090346Y0356050D01*
X0090721Y0355863D01*
X0090909Y0355675D01*
X0091096Y0355300D01*
X0091096Y0354550D01*
X0090909Y0354175D01*
X0090721Y0353988D01*
X0090346Y0353800D01*
X0089596Y0353800D01*
X0089221Y0353988D01*
X0089034Y0354175D01*
X0088846Y0354550D01*
X0054265Y0426644D02*
X0056515Y0426644D01*
X0055390Y0426644D02*
X0055390Y0430581D01*
X0055765Y0430019D01*
X0056140Y0429644D01*
X0056515Y0429456D01*
X0323846Y0430144D02*
X0324221Y0430332D01*
X0324409Y0430707D01*
X0324409Y0434081D01*
X0055596Y0408800D02*
X0055596Y0411050D01*
X0055596Y0409925D02*
X0051659Y0409925D01*
X0052222Y0410300D01*
X0052597Y0410675D01*
X0052784Y0411050D01*
D60*
X0230584Y0440478D02*
X0230584Y0443678D01*
X0229212Y0440478D02*
X0229212Y0442154D01*
X0229364Y0442459D01*
X0229669Y0442611D01*
X0230126Y0442611D01*
X0230431Y0442459D01*
X0230584Y0442306D01*
D57*
X0448763Y0313879D02*
X0448763Y0312004D01*
X0449887Y0314254D02*
X0445950Y0312941D01*
X0449887Y0311629D01*
X0447263Y0310317D02*
X0449887Y0310317D01*
X0447638Y0310317D02*
X0447450Y0310129D01*
X0447263Y0309754D01*
X0447263Y0309192D01*
X0447450Y0308817D01*
X0447825Y0308630D01*
X0449887Y0308630D01*
X0449887Y0305067D02*
X0447825Y0305067D01*
X0447450Y0305255D01*
X0447263Y0305630D01*
X0447263Y0306380D01*
X0447450Y0306755D01*
X0449700Y0305067D02*
X0449887Y0305442D01*
X0449887Y0306380D01*
X0449700Y0306755D01*
X0449325Y0306942D01*
X0448950Y0306942D01*
X0448575Y0306755D01*
X0448388Y0306380D01*
X0448388Y0305442D01*
X0448200Y0305067D01*
X0449887Y0302630D02*
X0449700Y0303005D01*
X0449325Y0303193D01*
X0445950Y0303193D01*
X0449887Y0300568D02*
X0449700Y0300943D01*
X0449513Y0301130D01*
X0449138Y0301318D01*
X0448013Y0301318D01*
X0447638Y0301130D01*
X0447450Y0300943D01*
X0447263Y0300568D01*
X0447263Y0300006D01*
X0447450Y0299631D01*
X0447638Y0299443D01*
X0448013Y0299256D01*
X0449138Y0299256D01*
X0449513Y0299443D01*
X0449700Y0299631D01*
X0449887Y0300006D01*
X0449887Y0300568D01*
X0447263Y0295881D02*
X0450450Y0295881D01*
X0450825Y0296069D01*
X0451012Y0296256D01*
X0451200Y0296631D01*
X0451200Y0297193D01*
X0451012Y0297568D01*
X0449700Y0295881D02*
X0449887Y0296256D01*
X0449887Y0297006D01*
X0449700Y0297381D01*
X0449513Y0297568D01*
X0449138Y0297756D01*
X0448013Y0297756D01*
X0447638Y0297568D01*
X0447450Y0297381D01*
X0447263Y0297006D01*
X0447263Y0296256D01*
X0447450Y0295881D01*
X0449887Y0291007D02*
X0445950Y0291007D01*
X0447263Y0289132D02*
X0449887Y0289132D01*
X0447638Y0289132D02*
X0447450Y0288944D01*
X0447263Y0288570D01*
X0447263Y0288007D01*
X0447450Y0287632D01*
X0447825Y0287445D01*
X0449887Y0287445D01*
X0447263Y0285570D02*
X0451200Y0285570D01*
X0447450Y0285570D02*
X0447263Y0285195D01*
X0447263Y0284445D01*
X0447450Y0284070D01*
X0447638Y0283883D01*
X0448013Y0283695D01*
X0449138Y0283695D01*
X0449513Y0283883D01*
X0449700Y0284070D01*
X0449887Y0284445D01*
X0449887Y0285195D01*
X0449700Y0285570D01*
X0447263Y0280321D02*
X0449887Y0280321D01*
X0447263Y0282008D02*
X0449325Y0282008D01*
X0449700Y0281820D01*
X0449887Y0281445D01*
X0449887Y0280883D01*
X0449700Y0280508D01*
X0449513Y0280321D01*
X0447263Y0279008D02*
X0447263Y0277508D01*
X0445950Y0278446D02*
X0449325Y0278446D01*
X0449700Y0278258D01*
X0449887Y0277883D01*
X0449887Y0277508D01*
X0449700Y0276384D02*
X0449887Y0276009D01*
X0449887Y0275259D01*
X0449700Y0274884D01*
X0449325Y0274696D01*
X0449138Y0274696D01*
X0448763Y0274884D01*
X0448575Y0275259D01*
X0448575Y0275821D01*
X0448388Y0276196D01*
X0448013Y0276384D01*
X0447825Y0276384D01*
X0447450Y0276196D01*
X0447263Y0275821D01*
X0447263Y0275259D01*
X0447450Y0274884D01*
X0499409Y0328886D02*
X0499596Y0328324D01*
X0499596Y0327387D01*
X0499409Y0327012D01*
X0499221Y0326824D01*
X0498846Y0326637D01*
X0498471Y0326637D01*
X0498096Y0326824D01*
X0497909Y0327012D01*
X0497721Y0327387D01*
X0497534Y0328136D01*
X0497346Y0328511D01*
X0497159Y0328699D01*
X0496784Y0328886D01*
X0496409Y0328886D01*
X0496034Y0328699D01*
X0495847Y0328511D01*
X0495659Y0328136D01*
X0495659Y0327199D01*
X0495847Y0326637D01*
X0499409Y0323450D02*
X0499596Y0323824D01*
X0499596Y0324574D01*
X0499409Y0324949D01*
X0499034Y0325137D01*
X0497534Y0325137D01*
X0497159Y0324949D01*
X0496971Y0324574D01*
X0496971Y0323824D01*
X0497159Y0323450D01*
X0497534Y0323262D01*
X0497909Y0323262D01*
X0498284Y0325137D01*
X0496971Y0321575D02*
X0499596Y0321575D01*
X0497346Y0321575D02*
X0497159Y0321387D01*
X0496971Y0321012D01*
X0496971Y0320450D01*
X0497159Y0320075D01*
X0497534Y0319887D01*
X0499596Y0319887D01*
X0499409Y0318200D02*
X0499596Y0317825D01*
X0499596Y0317075D01*
X0499409Y0316700D01*
X0499034Y0316513D01*
X0498846Y0316513D01*
X0498471Y0316700D01*
X0498284Y0317075D01*
X0498284Y0317638D01*
X0498096Y0318013D01*
X0497721Y0318200D01*
X0497534Y0318200D01*
X0497159Y0318013D01*
X0496971Y0317638D01*
X0496971Y0317075D01*
X0497159Y0316700D01*
X0499596Y0314263D02*
X0499409Y0314638D01*
X0499221Y0314826D01*
X0498846Y0315013D01*
X0497721Y0315013D01*
X0497346Y0314826D01*
X0497159Y0314638D01*
X0496971Y0314263D01*
X0496971Y0313701D01*
X0497159Y0313326D01*
X0497346Y0313138D01*
X0497721Y0312951D01*
X0498846Y0312951D01*
X0499221Y0313138D01*
X0499409Y0313326D01*
X0499596Y0313701D01*
X0499596Y0314263D01*
X0499596Y0311264D02*
X0496971Y0311264D01*
X0497721Y0311264D02*
X0497346Y0311076D01*
X0497159Y0310889D01*
X0496971Y0310514D01*
X0496971Y0310139D01*
X0495847Y0303764D02*
X0495659Y0304139D01*
X0495659Y0304702D01*
X0495847Y0305264D01*
X0496222Y0305639D01*
X0496597Y0305827D01*
X0497346Y0306014D01*
X0497909Y0306014D01*
X0498659Y0305827D01*
X0499034Y0305639D01*
X0499409Y0305264D01*
X0499596Y0304702D01*
X0499596Y0304327D01*
X0499409Y0303764D01*
X0499221Y0303577D01*
X0497909Y0303577D01*
X0497909Y0304327D01*
X0499596Y0301890D02*
X0495659Y0301890D01*
X0499596Y0299640D01*
X0495659Y0299640D01*
X0499596Y0297765D02*
X0495659Y0297765D01*
X0495659Y0296828D01*
X0495847Y0296265D01*
X0496222Y0295890D01*
X0496597Y0295703D01*
X0497346Y0295516D01*
X0497909Y0295516D01*
X0498659Y0295703D01*
X0499034Y0295890D01*
X0499409Y0296265D01*
X0499596Y0296828D01*
X0499596Y0297765D01*
D60*
X0256092Y0440478D02*
X0256396Y0440630D01*
X0256549Y0440935D01*
X0256549Y0443678D01*
D58*
X0213727Y0443258D02*
X0210527Y0443258D01*
X0212813Y0442191D01*
X0210527Y0441124D01*
X0213727Y0441124D01*
X0213727Y0438229D02*
X0212051Y0438229D01*
X0211746Y0438381D01*
X0211594Y0438686D01*
X0211594Y0439296D01*
X0211746Y0439600D01*
X0213575Y0438229D02*
X0213727Y0438534D01*
X0213727Y0439296D01*
X0213575Y0439600D01*
X0213270Y0439753D01*
X0212965Y0439753D01*
X0212661Y0439600D01*
X0212508Y0439296D01*
X0212508Y0438534D01*
X0212356Y0438229D01*
X0213727Y0436705D02*
X0211594Y0436705D01*
X0210527Y0436705D02*
X0210680Y0436858D01*
X0210832Y0436705D01*
X0210680Y0436553D01*
X0210527Y0436705D01*
X0210832Y0436705D01*
X0211594Y0435181D02*
X0213727Y0435181D01*
X0211899Y0435181D02*
X0211746Y0435029D01*
X0211594Y0434724D01*
X0211594Y0434267D01*
X0211746Y0433962D01*
X0212051Y0433810D01*
X0213727Y0433810D01*
X0213727Y0428020D02*
X0212203Y0429086D01*
X0213727Y0429848D02*
X0210527Y0429848D01*
X0210527Y0428629D01*
X0210680Y0428324D01*
X0210832Y0428172D01*
X0211137Y0428020D01*
X0211594Y0428020D01*
X0211899Y0428172D01*
X0212051Y0428324D01*
X0212203Y0428629D01*
X0212203Y0429848D01*
X0213727Y0426191D02*
X0213575Y0426496D01*
X0213270Y0426648D01*
X0210527Y0426648D01*
X0211594Y0425277D02*
X0213727Y0424515D01*
X0211594Y0423753D02*
X0213727Y0424515D01*
X0214489Y0424820D01*
X0214642Y0424972D01*
X0214794Y0425277D01*
D57*
X0091096Y0372175D02*
X0091096Y0371425D01*
X0090909Y0371050D01*
X0090721Y0370863D01*
X0090159Y0370488D01*
X0089409Y0370300D01*
X0087909Y0370300D01*
X0087534Y0370488D01*
X0087347Y0370675D01*
X0087159Y0371050D01*
X0087159Y0371800D01*
X0087347Y0372175D01*
X0087534Y0372363D01*
X0087909Y0372550D01*
X0088846Y0372550D01*
X0089221Y0372363D01*
X0089409Y0372175D01*
X0089596Y0371800D01*
X0089596Y0371050D01*
X0089409Y0370675D01*
X0089221Y0370488D01*
X0088846Y0370300D01*
X0051659Y0395238D02*
X0051659Y0392800D01*
X0053159Y0394113D01*
X0053159Y0393550D01*
X0053346Y0393175D01*
X0053534Y0392988D01*
X0053909Y0392800D01*
X0054846Y0392800D01*
X0055221Y0392988D01*
X0055409Y0393175D01*
X0055596Y0393550D01*
X0055596Y0394675D01*
X0055409Y0395050D01*
X0055221Y0395238D01*
X0103431Y0385073D02*
X0099494Y0385073D01*
X0100806Y0381511D02*
X0103993Y0381511D01*
X0104368Y0381699D01*
X0104556Y0381886D01*
X0104743Y0382261D01*
X0104743Y0382823D01*
X0104556Y0383198D01*
X0103243Y0381511D02*
X0103431Y0381886D01*
X0103431Y0382636D01*
X0103243Y0383011D01*
X0103056Y0383198D01*
X0102681Y0383386D01*
X0101556Y0383386D01*
X0101181Y0383198D01*
X0100994Y0383011D01*
X0100806Y0382636D01*
X0100806Y0381886D01*
X0100994Y0381511D01*
X0100806Y0379636D02*
X0103431Y0379636D01*
X0101181Y0379636D02*
X0100994Y0379449D01*
X0100806Y0379074D01*
X0100806Y0378511D01*
X0100994Y0378136D01*
X0101369Y0377949D01*
X0103431Y0377949D01*
X0103431Y0376074D02*
X0100806Y0376074D01*
X0099494Y0376074D02*
X0099681Y0376262D01*
X0099869Y0376074D01*
X0099681Y0375887D01*
X0099494Y0376074D01*
X0099869Y0376074D01*
X0100806Y0374762D02*
X0100806Y0373262D01*
X0099494Y0374199D02*
X0102868Y0374199D01*
X0103243Y0374012D01*
X0103431Y0373637D01*
X0103431Y0373262D01*
X0103431Y0371950D02*
X0100806Y0371950D01*
X0099494Y0371950D02*
X0099681Y0372137D01*
X0099869Y0371950D01*
X0099681Y0371762D01*
X0099494Y0371950D01*
X0099869Y0371950D01*
X0103431Y0369513D02*
X0103243Y0369887D01*
X0103056Y0370075D01*
X0102681Y0370262D01*
X0101556Y0370262D01*
X0101181Y0370075D01*
X0100994Y0369887D01*
X0100806Y0369513D01*
X0100806Y0368950D01*
X0100994Y0368575D01*
X0101181Y0368388D01*
X0101556Y0368200D01*
X0102681Y0368200D01*
X0103056Y0368388D01*
X0103243Y0368575D01*
X0103431Y0368950D01*
X0103431Y0369513D01*
X0100806Y0366513D02*
X0103431Y0366513D01*
X0101181Y0366513D02*
X0100994Y0366325D01*
X0100806Y0365950D01*
X0100806Y0365388D01*
X0100994Y0365013D01*
X0101369Y0364826D01*
X0103431Y0364826D01*
X0099494Y0359201D02*
X0099494Y0358451D01*
X0099681Y0358076D01*
X0100056Y0357702D01*
X0100806Y0357514D01*
X0102118Y0357514D01*
X0102868Y0357702D01*
X0103243Y0358076D01*
X0103431Y0358451D01*
X0103431Y0359201D01*
X0103243Y0359576D01*
X0102868Y0359951D01*
X0102118Y0360139D01*
X0100806Y0360139D01*
X0100056Y0359951D01*
X0099681Y0359576D01*
X0099494Y0359201D01*
X0100806Y0354139D02*
X0103431Y0354139D01*
X0100806Y0355827D02*
X0102868Y0355827D01*
X0103243Y0355639D01*
X0103431Y0355264D01*
X0103431Y0354702D01*
X0103243Y0354327D01*
X0103056Y0354139D01*
X0100806Y0352827D02*
X0100806Y0351327D01*
X0099494Y0352265D02*
X0102868Y0352265D01*
X0103243Y0352077D01*
X0103431Y0351702D01*
X0103431Y0351327D01*
X0100806Y0350015D02*
X0104743Y0350015D01*
X0100994Y0350015D02*
X0100806Y0349640D01*
X0100806Y0348890D01*
X0100994Y0348515D01*
X0101181Y0348328D01*
X0101556Y0348140D01*
X0102681Y0348140D01*
X0103056Y0348328D01*
X0103243Y0348515D01*
X0103431Y0348890D01*
X0103431Y0349640D01*
X0103243Y0350015D01*
X0100806Y0344766D02*
X0103431Y0344766D01*
X0100806Y0346453D02*
X0102868Y0346453D01*
X0103243Y0346265D01*
X0103431Y0345890D01*
X0103431Y0345328D01*
X0103243Y0344953D01*
X0103056Y0344766D01*
X0100806Y0343453D02*
X0100806Y0341953D01*
X0099494Y0342891D02*
X0102868Y0342891D01*
X0103243Y0342703D01*
X0103431Y0342328D01*
X0103431Y0341953D01*
X0103243Y0340829D02*
X0103431Y0340454D01*
X0103431Y0339704D01*
X0103243Y0339329D01*
X0102868Y0339141D01*
X0102681Y0339141D01*
X0102306Y0339329D01*
X0102118Y0339704D01*
X0102118Y0340266D01*
X0101931Y0340641D01*
X0101556Y0340829D01*
X0101369Y0340829D01*
X0100994Y0340641D01*
X0100806Y0340266D01*
X0100806Y0339704D01*
X0100994Y0339329D01*
X0460159Y0374925D02*
X0460159Y0372675D01*
X0464096Y0373800D02*
X0460159Y0373800D01*
X0461471Y0369676D02*
X0464096Y0369676D01*
X0459972Y0370613D02*
X0462784Y0371550D01*
X0462784Y0369113D01*
X0241815Y0474144D02*
X0238815Y0474144D01*
X0240315Y0472644D02*
X0240315Y0475644D01*
X0449096Y0423800D02*
X0449096Y0426050D01*
X0449096Y0424925D02*
X0445159Y0424925D01*
X0445722Y0425300D01*
X0446097Y0425675D01*
X0446284Y0426050D01*
X0081787Y0455321D02*
X0081787Y0459258D01*
X0081787Y0457384D02*
X0079537Y0457384D01*
X0079537Y0455321D02*
X0079537Y0459258D01*
X0077662Y0455321D02*
X0077662Y0457946D01*
X0077662Y0459258D02*
X0077850Y0459071D01*
X0077662Y0458884D01*
X0077475Y0459071D01*
X0077662Y0459258D01*
X0077662Y0458884D01*
X0074100Y0457946D02*
X0074100Y0454759D01*
X0074288Y0454384D01*
X0074475Y0454197D01*
X0074850Y0454009D01*
X0075412Y0454009D01*
X0075787Y0454197D01*
X0074100Y0455509D02*
X0074475Y0455321D01*
X0075225Y0455321D01*
X0075600Y0455509D01*
X0075787Y0455696D01*
X0075975Y0456071D01*
X0075975Y0457196D01*
X0075787Y0457571D01*
X0075600Y0457759D01*
X0075225Y0457946D01*
X0074475Y0457946D01*
X0074100Y0457759D01*
X0072225Y0455321D02*
X0072225Y0459258D01*
X0070538Y0455321D02*
X0070538Y0457384D01*
X0070726Y0457759D01*
X0071100Y0457946D01*
X0071663Y0457946D01*
X0072038Y0457759D01*
X0072225Y0457571D01*
X0065851Y0455509D02*
X0065289Y0455321D01*
X0064351Y0455321D01*
X0063976Y0455509D01*
X0063789Y0455696D01*
X0063601Y0456071D01*
X0063601Y0456446D01*
X0063789Y0456821D01*
X0063976Y0457009D01*
X0064351Y0457196D01*
X0065101Y0457384D01*
X0065476Y0457571D01*
X0065664Y0457759D01*
X0065851Y0458134D01*
X0065851Y0458509D01*
X0065664Y0458884D01*
X0065476Y0459071D01*
X0065101Y0459258D01*
X0064164Y0459258D01*
X0063601Y0459071D01*
X0061914Y0455321D02*
X0061914Y0457946D01*
X0061914Y0459258D02*
X0062102Y0459071D01*
X0061914Y0458884D01*
X0061727Y0459071D01*
X0061914Y0459258D01*
X0061914Y0458884D01*
X0058352Y0455321D02*
X0058352Y0459258D01*
X0058352Y0455509D02*
X0058727Y0455321D01*
X0059477Y0455321D01*
X0059852Y0455509D01*
X0060039Y0455696D01*
X0060227Y0456071D01*
X0060227Y0457196D01*
X0060039Y0457571D01*
X0059852Y0457759D01*
X0059477Y0457946D01*
X0058727Y0457946D01*
X0058352Y0457759D01*
X0054977Y0455509D02*
X0055352Y0455321D01*
X0056102Y0455321D01*
X0056477Y0455509D01*
X0056665Y0455884D01*
X0056665Y0457384D01*
X0056477Y0457759D01*
X0056102Y0457946D01*
X0055352Y0457946D01*
X0054977Y0457759D01*
X0054790Y0457384D01*
X0054790Y0457009D01*
X0056665Y0456634D01*
X0077943Y0452920D02*
X0077193Y0452920D01*
X0076818Y0452732D01*
X0076444Y0452357D01*
X0076256Y0451608D01*
X0076256Y0450295D01*
X0076444Y0449545D01*
X0076818Y0449170D01*
X0077193Y0448983D01*
X0077943Y0448983D01*
X0078318Y0449170D01*
X0078693Y0449545D01*
X0078881Y0450295D01*
X0078881Y0451608D01*
X0078693Y0452357D01*
X0078318Y0452732D01*
X0077943Y0452920D01*
X0072881Y0451608D02*
X0072881Y0448983D01*
X0074569Y0451608D02*
X0074569Y0449545D01*
X0074381Y0449170D01*
X0074006Y0448983D01*
X0073444Y0448983D01*
X0073069Y0449170D01*
X0072881Y0449358D01*
X0071569Y0451608D02*
X0070069Y0451608D01*
X0071007Y0452920D02*
X0071007Y0449545D01*
X0070819Y0449170D01*
X0070444Y0448983D01*
X0070069Y0448983D01*
X0068757Y0451608D02*
X0068757Y0447671D01*
X0068757Y0451420D02*
X0068382Y0451608D01*
X0067632Y0451608D01*
X0067257Y0451420D01*
X0067070Y0451233D01*
X0066882Y0450858D01*
X0066882Y0449733D01*
X0067070Y0449358D01*
X0067257Y0449170D01*
X0067632Y0448983D01*
X0068382Y0448983D01*
X0068757Y0449170D01*
X0063508Y0451608D02*
X0063508Y0448983D01*
X0065195Y0451608D02*
X0065195Y0449545D01*
X0065007Y0449170D01*
X0064633Y0448983D01*
X0064070Y0448983D01*
X0063695Y0449170D01*
X0063508Y0449358D01*
X0062195Y0451608D02*
X0060696Y0451608D01*
X0061633Y0452920D02*
X0061633Y0449545D01*
X0061445Y0449170D01*
X0061070Y0448983D01*
X0060696Y0448983D01*
X0059571Y0449170D02*
X0059196Y0448983D01*
X0058446Y0448983D01*
X0058071Y0449170D01*
X0057883Y0449545D01*
X0057883Y0449733D01*
X0058071Y0450108D01*
X0058446Y0450295D01*
X0059008Y0450295D01*
X0059383Y0450483D01*
X0059571Y0450858D01*
X0059571Y0451045D01*
X0059383Y0451420D01*
X0059008Y0451608D01*
X0058446Y0451608D01*
X0058071Y0451420D01*
X0322627Y0475081D02*
X0320190Y0475081D01*
X0321503Y0473582D01*
X0320940Y0473582D01*
X0320565Y0473394D01*
X0320378Y0473207D01*
X0320190Y0472832D01*
X0320190Y0471894D01*
X0320378Y0471519D01*
X0320565Y0471332D01*
X0320940Y0471144D01*
X0322065Y0471144D01*
X0322440Y0471332D01*
X0322627Y0471519D01*
X0293748Y0486207D02*
X0292435Y0482270D01*
X0291123Y0486207D01*
X0287561Y0482270D02*
X0288873Y0484145D01*
X0289811Y0482270D02*
X0289811Y0486207D01*
X0288311Y0486207D01*
X0287936Y0486020D01*
X0287748Y0485832D01*
X0287561Y0485457D01*
X0287561Y0484895D01*
X0287748Y0484520D01*
X0287936Y0484333D01*
X0288311Y0484145D01*
X0289811Y0484145D01*
X0283061Y0482458D02*
X0282499Y0482270D01*
X0281562Y0482270D01*
X0281187Y0482458D01*
X0280999Y0482645D01*
X0280812Y0483020D01*
X0280812Y0483395D01*
X0280999Y0483770D01*
X0281187Y0483958D01*
X0281562Y0484145D01*
X0282312Y0484333D01*
X0282687Y0484520D01*
X0282874Y0484708D01*
X0283061Y0485082D01*
X0283061Y0485457D01*
X0282874Y0485832D01*
X0282687Y0486020D01*
X0282312Y0486207D01*
X0281374Y0486207D01*
X0280812Y0486020D01*
X0277625Y0482458D02*
X0278000Y0482270D01*
X0278750Y0482270D01*
X0279124Y0482458D01*
X0279312Y0482833D01*
X0279312Y0484333D01*
X0279124Y0484708D01*
X0278750Y0484895D01*
X0278000Y0484895D01*
X0277625Y0484708D01*
X0277437Y0484333D01*
X0277437Y0483958D01*
X0279312Y0483583D01*
X0275750Y0484895D02*
X0275750Y0482270D01*
X0275750Y0484520D02*
X0275562Y0484708D01*
X0275187Y0484895D01*
X0274625Y0484895D01*
X0274250Y0484708D01*
X0274063Y0484333D01*
X0274063Y0482270D01*
X0272375Y0482458D02*
X0272000Y0482270D01*
X0271250Y0482270D01*
X0270875Y0482458D01*
X0270688Y0482833D01*
X0270688Y0483020D01*
X0270875Y0483395D01*
X0271250Y0483583D01*
X0271813Y0483583D01*
X0272188Y0483770D01*
X0272375Y0484145D01*
X0272375Y0484333D01*
X0272188Y0484708D01*
X0271813Y0484895D01*
X0271250Y0484895D01*
X0270875Y0484708D01*
X0268438Y0482270D02*
X0268813Y0482458D01*
X0269001Y0482645D01*
X0269188Y0483020D01*
X0269188Y0484145D01*
X0269001Y0484520D01*
X0268813Y0484708D01*
X0268438Y0484895D01*
X0267876Y0484895D01*
X0267501Y0484708D01*
X0267313Y0484520D01*
X0267126Y0484145D01*
X0267126Y0483020D01*
X0267313Y0482645D01*
X0267501Y0482458D01*
X0267876Y0482270D01*
X0268438Y0482270D01*
X0265439Y0482270D02*
X0265439Y0484895D01*
X0265439Y0484145D02*
X0265251Y0484520D01*
X0265064Y0484708D01*
X0264689Y0484895D01*
X0264314Y0484895D01*
X0263189Y0482458D02*
X0262814Y0482270D01*
X0262064Y0482270D01*
X0261689Y0482458D01*
X0261502Y0482833D01*
X0261502Y0483020D01*
X0261689Y0483395D01*
X0262064Y0483583D01*
X0262627Y0483583D01*
X0263001Y0483770D01*
X0263189Y0484145D01*
X0263189Y0484333D01*
X0263001Y0484708D01*
X0262627Y0484895D01*
X0262064Y0484895D01*
X0261689Y0484708D01*
X0246002Y0480707D02*
X0244689Y0480707D01*
X0244127Y0478644D02*
X0246002Y0478644D01*
X0246002Y0482581D01*
X0244127Y0482581D01*
X0243002Y0482581D02*
X0240752Y0482581D01*
X0241877Y0478644D02*
X0241877Y0482581D01*
X0238128Y0480707D02*
X0237565Y0480519D01*
X0237378Y0480332D01*
X0237190Y0479957D01*
X0237190Y0479394D01*
X0237378Y0479019D01*
X0237565Y0478832D01*
X0237940Y0478644D01*
X0239440Y0478644D01*
X0239440Y0482581D01*
X0238128Y0482581D01*
X0237753Y0482394D01*
X0237565Y0482206D01*
X0237378Y0481831D01*
X0237378Y0481456D01*
X0237565Y0481082D01*
X0237753Y0480894D01*
X0238128Y0480707D01*
X0239440Y0480707D01*
X0230441Y0478644D02*
X0232691Y0478644D01*
X0231566Y0478644D02*
X0231566Y0482581D01*
X0231941Y0482019D01*
X0232316Y0481644D01*
X0232691Y0481456D01*
X0462315Y0455894D02*
X0462690Y0456081D01*
X0463252Y0456081D01*
X0463815Y0455894D01*
X0464190Y0455519D01*
X0464377Y0455144D01*
X0464564Y0454394D01*
X0464564Y0453832D01*
X0464377Y0453082D01*
X0464190Y0452707D01*
X0463815Y0452332D01*
X0463252Y0452144D01*
X0462877Y0452144D01*
X0462315Y0452332D01*
X0462127Y0452519D01*
X0462127Y0453832D01*
X0462877Y0453832D01*
X0460440Y0452144D02*
X0460440Y0456081D01*
X0458190Y0452144D01*
X0458190Y0456081D01*
X0456315Y0452144D02*
X0456315Y0456081D01*
X0455378Y0456081D01*
X0454816Y0455894D01*
X0454441Y0455519D01*
X0454253Y0455144D01*
X0454066Y0454394D01*
X0454066Y0453832D01*
X0454253Y0453082D01*
X0454441Y0452707D01*
X0454816Y0452332D01*
X0455378Y0452144D01*
X0456315Y0452144D01*
X0051659Y0361175D02*
X0051659Y0361925D01*
X0051847Y0362300D01*
X0052034Y0362488D01*
X0052597Y0362863D01*
X0053346Y0363050D01*
X0054846Y0363050D01*
X0055221Y0362863D01*
X0055409Y0362675D01*
X0055596Y0362300D01*
X0055596Y0361550D01*
X0055409Y0361175D01*
X0055221Y0360988D01*
X0054846Y0360800D01*
X0053909Y0360800D01*
X0053534Y0360988D01*
X0053346Y0361175D01*
X0053159Y0361550D01*
X0053159Y0362300D01*
X0053346Y0362675D01*
X0053534Y0362863D01*
X0053909Y0363050D01*
X0475691Y0350657D02*
X0479628Y0349344D01*
X0475691Y0348032D01*
X0479628Y0344657D02*
X0479628Y0346907D01*
X0479628Y0345782D02*
X0475691Y0345782D01*
X0476253Y0346157D01*
X0476628Y0346532D01*
X0476815Y0346907D01*
X0479628Y0340908D02*
X0479628Y0343157D01*
X0479628Y0342033D02*
X0475691Y0342033D01*
X0476253Y0342408D01*
X0476628Y0342782D01*
X0476815Y0343157D01*
D60*
X0273215Y0439363D02*
X0273063Y0439668D01*
X0273063Y0440125D01*
X0273215Y0440582D01*
X0273520Y0440887D01*
X0273825Y0441040D01*
X0274434Y0441192D01*
X0274891Y0441192D01*
X0275501Y0441040D01*
X0275806Y0440887D01*
X0276110Y0440582D01*
X0276263Y0440125D01*
X0276263Y0439821D01*
X0276110Y0439363D01*
X0275958Y0439211D01*
X0274891Y0439211D01*
X0274891Y0439821D01*
X0276263Y0437840D02*
X0273063Y0437840D01*
X0276263Y0436011D01*
X0273063Y0436011D01*
X0276263Y0434487D02*
X0273063Y0434487D01*
X0273063Y0433725D01*
X0273215Y0433268D01*
X0273520Y0432963D01*
X0273825Y0432811D01*
X0274434Y0432659D01*
X0274891Y0432659D01*
X0275501Y0432811D01*
X0275806Y0432963D01*
X0276110Y0433268D01*
X0276263Y0433725D01*
X0276263Y0434487D01*
D57*
X0266627Y0474644D02*
X0268877Y0474644D01*
X0267752Y0474644D02*
X0267752Y0478581D01*
X0268127Y0478019D01*
X0268502Y0477644D01*
X0268877Y0477456D01*
X0264940Y0476144D02*
X0261941Y0476144D01*
X0263440Y0474644D02*
X0263440Y0477644D01*
X0313190Y0446644D02*
X0315440Y0446644D01*
X0314315Y0446644D02*
X0314315Y0450581D01*
X0314690Y0450019D01*
X0315065Y0449644D01*
X0315440Y0449456D01*
X0055924Y0442206D02*
X0055737Y0442394D01*
X0055362Y0442581D01*
X0054424Y0442581D01*
X0054049Y0442394D01*
X0053862Y0442206D01*
X0053675Y0441831D01*
X0053675Y0441456D01*
X0053862Y0440894D01*
X0056112Y0438644D01*
X0053675Y0438644D01*
X0069346Y0338300D02*
X0069159Y0338675D01*
X0068971Y0338863D01*
X0068597Y0339050D01*
X0068409Y0339050D01*
X0068034Y0338863D01*
X0067847Y0338675D01*
X0067659Y0338300D01*
X0067659Y0337550D01*
X0067847Y0337175D01*
X0068034Y0336988D01*
X0068409Y0336800D01*
X0068597Y0336800D01*
X0068971Y0336988D01*
X0069159Y0337175D01*
X0069346Y0337550D01*
X0069346Y0338300D01*
X0069534Y0338675D01*
X0069721Y0338863D01*
X0070096Y0339050D01*
X0070846Y0339050D01*
X0071221Y0338863D01*
X0071409Y0338675D01*
X0071596Y0338300D01*
X0071596Y0337550D01*
X0071409Y0337175D01*
X0071221Y0336988D01*
X0070846Y0336800D01*
X0070096Y0336800D01*
X0069721Y0336988D01*
X0069534Y0337175D01*
X0069346Y0337550D01*
X0460608Y0263648D02*
X0464545Y0262336D01*
X0460608Y0261023D01*
X0460983Y0259898D02*
X0460795Y0259711D01*
X0460608Y0259336D01*
X0460608Y0258399D01*
X0460795Y0258024D01*
X0460983Y0257836D01*
X0461358Y0257649D01*
X0461733Y0257649D01*
X0462295Y0257836D01*
X0464545Y0260086D01*
X0464545Y0257649D01*
X0067971Y0385175D02*
X0070596Y0385175D01*
X0066472Y0386113D02*
X0069284Y0387050D01*
X0069284Y0384613D01*
X0474994Y0286553D02*
X0478931Y0285241D01*
X0474994Y0283929D01*
X0474994Y0282991D02*
X0474994Y0280554D01*
X0476494Y0281866D01*
X0476494Y0281304D01*
X0476681Y0280929D01*
X0476869Y0280742D01*
X0477244Y0280554D01*
X0478181Y0280554D01*
X0478556Y0280742D01*
X0478743Y0280929D01*
X0478931Y0281304D01*
X0478931Y0282429D01*
X0478743Y0282804D01*
X0478556Y0282991D01*
X0460659Y0328987D02*
X0464596Y0327675D01*
X0460659Y0326363D01*
X0464596Y0322988D02*
X0464596Y0325238D01*
X0464596Y0324113D02*
X0460659Y0324113D01*
X0461222Y0324488D01*
X0461597Y0324863D01*
X0461784Y0325238D01*
X0460659Y0320551D02*
X0460659Y0320176D01*
X0460847Y0319801D01*
X0461034Y0319613D01*
X0461409Y0319426D01*
X0462159Y0319238D01*
X0463096Y0319238D01*
X0463846Y0319426D01*
X0464221Y0319613D01*
X0464409Y0319801D01*
X0464596Y0320176D01*
X0464596Y0320551D01*
X0464409Y0320926D01*
X0464221Y0321113D01*
X0463846Y0321301D01*
X0463096Y0321488D01*
X0462159Y0321488D01*
X0461409Y0321301D01*
X0461034Y0321113D01*
X0460847Y0320926D01*
X0460659Y0320551D01*
X0247815Y0474144D02*
X0244815Y0474144D01*
X0474691Y0365594D02*
X0474691Y0363345D01*
X0478628Y0364469D02*
X0474691Y0364469D01*
X0478628Y0359970D02*
X0478628Y0362220D01*
X0478628Y0361095D02*
X0474691Y0361095D01*
X0475253Y0361470D01*
X0475628Y0361845D01*
X0475815Y0362220D01*
X0090636Y0418608D02*
X0090636Y0420858D01*
X0090636Y0419733D02*
X0086699Y0419733D01*
X0087261Y0420108D01*
X0087636Y0420483D01*
X0087823Y0420858D01*
X0087073Y0417109D02*
X0086886Y0416921D01*
X0086699Y0416546D01*
X0086699Y0415609D01*
X0086886Y0415234D01*
X0087073Y0415046D01*
X0087448Y0414859D01*
X0087823Y0414859D01*
X0088386Y0415046D01*
X0090636Y0417296D01*
X0090636Y0414859D01*
X0338440Y0474706D02*
X0338252Y0474894D01*
X0337878Y0475081D01*
X0336940Y0475081D01*
X0336565Y0474894D01*
X0336378Y0474706D01*
X0336190Y0474331D01*
X0336190Y0473956D01*
X0336378Y0473394D01*
X0338627Y0471144D01*
X0336190Y0471144D01*
X0445534Y0441550D02*
X0445347Y0441363D01*
X0445159Y0440988D01*
X0445159Y0440050D01*
X0445347Y0439675D01*
X0445534Y0439488D01*
X0445909Y0439300D01*
X0446284Y0439300D01*
X0446846Y0439488D01*
X0449096Y0441738D01*
X0449096Y0439300D01*
X0446335Y0348271D02*
X0446147Y0348646D01*
X0446147Y0349209D01*
X0446335Y0349771D01*
X0446710Y0350146D01*
X0447085Y0350334D01*
X0447835Y0350521D01*
X0448397Y0350521D01*
X0449147Y0350334D01*
X0449522Y0350146D01*
X0449897Y0349771D01*
X0450084Y0349209D01*
X0450084Y0348834D01*
X0449897Y0348271D01*
X0449709Y0348084D01*
X0448397Y0348084D01*
X0448397Y0348834D01*
X0450084Y0346397D02*
X0446147Y0346397D01*
X0450084Y0344147D01*
X0446147Y0344147D01*
X0450084Y0342272D02*
X0446147Y0342272D01*
X0446147Y0341335D01*
X0446335Y0340772D01*
X0446710Y0340397D01*
X0447085Y0340210D01*
X0447835Y0340022D01*
X0448397Y0340022D01*
X0449147Y0340210D01*
X0449522Y0340397D01*
X0449897Y0340772D01*
X0450084Y0341335D01*
X0450084Y0342272D01*
X0461108Y0295648D02*
X0465045Y0294336D01*
X0461108Y0293023D01*
X0461108Y0290024D02*
X0461108Y0290773D01*
X0461295Y0291148D01*
X0461483Y0291336D01*
X0462045Y0291711D01*
X0462795Y0291898D01*
X0464295Y0291898D01*
X0464670Y0291711D01*
X0464857Y0291523D01*
X0465045Y0291148D01*
X0465045Y0290399D01*
X0464857Y0290024D01*
X0464670Y0289836D01*
X0464295Y0289649D01*
X0463358Y0289649D01*
X0462983Y0289836D01*
X0462795Y0290024D01*
X0462608Y0290399D01*
X0462608Y0291148D01*
X0462795Y0291523D01*
X0462983Y0291711D01*
X0463358Y0291898D01*
X0321159Y0430144D02*
X0321159Y0434081D01*
X0319471Y0430144D02*
X0319471Y0432207D01*
X0319659Y0432582D01*
X0320034Y0432769D01*
X0320596Y0432769D01*
X0320971Y0432582D01*
X0321159Y0432394D01*
X0286377Y0478206D02*
X0286190Y0478394D01*
X0285815Y0478581D01*
X0284877Y0478581D01*
X0284502Y0478394D01*
X0284315Y0478206D01*
X0284127Y0477831D01*
X0284127Y0477456D01*
X0284315Y0476894D01*
X0286565Y0474644D01*
X0284127Y0474644D01*
X0282440Y0476144D02*
X0279441Y0476144D01*
X0280940Y0474644D02*
X0280940Y0477644D01*
X0055596Y0267675D02*
X0055596Y0269925D01*
X0055596Y0268800D02*
X0051659Y0268800D01*
X0052222Y0269175D01*
X0052597Y0269550D01*
X0052784Y0269925D01*
X0051659Y0264113D02*
X0051659Y0265988D01*
X0053534Y0266175D01*
X0053346Y0265988D01*
X0053159Y0265613D01*
X0053159Y0264676D01*
X0053346Y0264301D01*
X0053534Y0264113D01*
X0053909Y0263926D01*
X0054846Y0263926D01*
X0055221Y0264113D01*
X0055409Y0264301D01*
X0055596Y0264676D01*
X0055596Y0265613D01*
X0055409Y0265988D01*
X0055221Y0266175D01*
X0345454Y0459042D02*
X0345454Y0462979D01*
X0344516Y0462979D01*
X0343954Y0462791D01*
X0343579Y0462417D01*
X0343391Y0462042D01*
X0343204Y0461292D01*
X0343204Y0460729D01*
X0343391Y0459979D01*
X0343579Y0459604D01*
X0343954Y0459229D01*
X0344516Y0459042D01*
X0345454Y0459042D01*
X0341517Y0459042D02*
X0341517Y0461667D01*
X0341517Y0462979D02*
X0341704Y0462791D01*
X0341517Y0462604D01*
X0341329Y0462791D01*
X0341517Y0462979D01*
X0341517Y0462604D01*
X0337955Y0461667D02*
X0337955Y0458480D01*
X0338142Y0458105D01*
X0338330Y0457917D01*
X0338705Y0457730D01*
X0339267Y0457730D01*
X0339642Y0457917D01*
X0337955Y0459229D02*
X0338330Y0459042D01*
X0339079Y0459042D01*
X0339454Y0459229D01*
X0339642Y0459417D01*
X0339829Y0459792D01*
X0339829Y0460917D01*
X0339642Y0461292D01*
X0339454Y0461479D01*
X0339079Y0461667D01*
X0338330Y0461667D01*
X0337955Y0461479D01*
X0336080Y0459042D02*
X0336080Y0461667D01*
X0336080Y0462979D02*
X0336267Y0462791D01*
X0336080Y0462604D01*
X0335892Y0462791D01*
X0336080Y0462979D01*
X0336080Y0462604D01*
X0334767Y0461667D02*
X0333268Y0461667D01*
X0334205Y0462979D02*
X0334205Y0459604D01*
X0334018Y0459229D01*
X0333643Y0459042D01*
X0333268Y0459042D01*
X0330268Y0459042D02*
X0330268Y0461104D01*
X0330456Y0461479D01*
X0330830Y0461667D01*
X0331580Y0461667D01*
X0331955Y0461479D01*
X0330268Y0459229D02*
X0330643Y0459042D01*
X0331580Y0459042D01*
X0331955Y0459229D01*
X0332143Y0459604D01*
X0332143Y0459979D01*
X0331955Y0460354D01*
X0331580Y0460542D01*
X0330643Y0460542D01*
X0330268Y0460729D01*
X0327831Y0459042D02*
X0328206Y0459229D01*
X0328393Y0459604D01*
X0328393Y0462979D01*
X0323519Y0463166D02*
X0326893Y0458105D01*
X0322207Y0459042D02*
X0322207Y0462979D01*
X0322207Y0461104D02*
X0319957Y0461104D01*
X0319957Y0459042D02*
X0319957Y0462979D01*
X0316395Y0459042D02*
X0316395Y0461104D01*
X0316582Y0461479D01*
X0316957Y0461667D01*
X0317707Y0461667D01*
X0318082Y0461479D01*
X0316395Y0459229D02*
X0316770Y0459042D01*
X0317707Y0459042D01*
X0318082Y0459229D01*
X0318270Y0459604D01*
X0318270Y0459979D01*
X0318082Y0460354D01*
X0317707Y0460542D01*
X0316770Y0460542D01*
X0316395Y0460729D01*
X0313958Y0459042D02*
X0314333Y0459229D01*
X0314520Y0459604D01*
X0314520Y0462979D01*
X0311895Y0459042D02*
X0312270Y0459229D01*
X0312458Y0459604D01*
X0312458Y0462979D01*
X0307396Y0459042D02*
X0307396Y0462979D01*
X0305521Y0461667D02*
X0305521Y0459042D01*
X0305521Y0461292D02*
X0305334Y0461479D01*
X0304959Y0461667D01*
X0304396Y0461667D01*
X0304021Y0461479D01*
X0303834Y0461104D01*
X0303834Y0459042D01*
X0301959Y0461667D02*
X0301959Y0457730D01*
X0301959Y0461479D02*
X0301584Y0461667D01*
X0300834Y0461667D01*
X0300459Y0461479D01*
X0300272Y0461292D01*
X0300084Y0460917D01*
X0300084Y0459792D01*
X0300272Y0459417D01*
X0300459Y0459229D01*
X0300834Y0459042D01*
X0301584Y0459042D01*
X0301959Y0459229D01*
X0296710Y0461667D02*
X0296710Y0459042D01*
X0298397Y0461667D02*
X0298397Y0459604D01*
X0298210Y0459229D01*
X0297835Y0459042D01*
X0297272Y0459042D01*
X0296897Y0459229D01*
X0296710Y0459417D01*
X0295397Y0461667D02*
X0293898Y0461667D01*
X0294835Y0462979D02*
X0294835Y0459604D01*
X0294648Y0459229D01*
X0294273Y0459042D01*
X0293898Y0459042D01*
X0080815Y0363894D02*
X0081190Y0364081D01*
X0081752Y0364081D01*
X0082315Y0363894D01*
X0082690Y0363519D01*
X0082877Y0363144D01*
X0083064Y0362394D01*
X0083064Y0361832D01*
X0082877Y0361082D01*
X0082690Y0360707D01*
X0082315Y0360332D01*
X0081752Y0360144D01*
X0081377Y0360144D01*
X0080815Y0360332D01*
X0080627Y0360519D01*
X0080627Y0361832D01*
X0081377Y0361832D01*
X0078940Y0360144D02*
X0078940Y0364081D01*
X0076690Y0360144D01*
X0076690Y0364081D01*
X0074815Y0360144D02*
X0074815Y0364081D01*
X0073878Y0364081D01*
X0073316Y0363894D01*
X0072941Y0363519D01*
X0072753Y0363144D01*
X0072566Y0362394D01*
X0072566Y0361832D01*
X0072753Y0361082D01*
X0072941Y0360707D01*
X0073316Y0360332D01*
X0073878Y0360144D01*
X0074815Y0360144D01*
X0071096Y0307675D02*
X0071096Y0309925D01*
X0071096Y0308800D02*
X0067159Y0308800D01*
X0067722Y0309175D01*
X0068097Y0309550D01*
X0068284Y0309925D01*
X0067534Y0306175D02*
X0067347Y0305988D01*
X0067159Y0305613D01*
X0067159Y0304676D01*
X0067347Y0304301D01*
X0067534Y0304113D01*
X0067909Y0303926D01*
X0068284Y0303926D01*
X0068846Y0304113D01*
X0071096Y0306363D01*
X0071096Y0303926D01*
X0071596Y0323675D02*
X0071596Y0325925D01*
X0071596Y0324800D02*
X0067659Y0324800D01*
X0068222Y0325175D01*
X0068597Y0325550D01*
X0068784Y0325925D01*
X0067659Y0321238D02*
X0067659Y0320863D01*
X0067847Y0320488D01*
X0068034Y0320301D01*
X0068409Y0320113D01*
X0069159Y0319926D01*
X0070096Y0319926D01*
X0070846Y0320113D01*
X0071221Y0320301D01*
X0071409Y0320488D01*
X0071596Y0320863D01*
X0071596Y0321238D01*
X0071409Y0321613D01*
X0071221Y0321800D01*
X0070846Y0321988D01*
X0070096Y0322175D01*
X0069159Y0322175D01*
X0068409Y0321988D01*
X0068034Y0321800D01*
X0067847Y0321613D01*
X0067659Y0321238D01*
X0094096Y0259300D02*
X0094096Y0261550D01*
X0094096Y0260425D02*
X0090159Y0260425D01*
X0090722Y0260800D01*
X0091097Y0261175D01*
X0091284Y0261550D01*
X0067034Y0403050D02*
X0066847Y0402863D01*
X0066659Y0402488D01*
X0066659Y0401550D01*
X0066847Y0401175D01*
X0067034Y0400988D01*
X0067409Y0400800D01*
X0067784Y0400800D01*
X0068346Y0400988D01*
X0070596Y0403238D01*
X0070596Y0400800D01*
X0051659Y0347238D02*
X0051659Y0344613D01*
X0055596Y0346300D01*
X0328878Y0450581D02*
X0330752Y0450581D01*
X0330940Y0448707D01*
X0330752Y0448894D01*
X0330378Y0449082D01*
X0329440Y0449082D01*
X0329065Y0448894D01*
X0328878Y0448707D01*
X0328690Y0448332D01*
X0328690Y0447394D01*
X0328878Y0447019D01*
X0329065Y0446832D01*
X0329440Y0446644D01*
X0330378Y0446644D01*
X0330752Y0446832D01*
X0330940Y0447019D01*
X0474691Y0333282D02*
X0478628Y0331969D01*
X0474691Y0330657D01*
X0478628Y0329157D02*
X0478628Y0328407D01*
X0478440Y0328032D01*
X0478253Y0327845D01*
X0477690Y0327470D01*
X0476940Y0327282D01*
X0475441Y0327282D01*
X0475066Y0327470D01*
X0474878Y0327657D01*
X0474691Y0328032D01*
X0474691Y0328782D01*
X0474878Y0329157D01*
X0475066Y0329345D01*
X0475441Y0329532D01*
X0476378Y0329532D01*
X0476753Y0329345D01*
X0476940Y0329157D01*
X0477128Y0328782D01*
X0477128Y0328032D01*
X0476940Y0327657D01*
X0476753Y0327470D01*
X0476378Y0327282D01*
X0304565Y0473769D02*
X0304565Y0471144D01*
X0305503Y0475269D02*
X0306440Y0472457D01*
X0304003Y0472457D01*
D10*
X0046593Y0374729D02*
X0046593Y0377073D01*
X0041671Y0377073D01*
X0046593Y0372386D02*
X0046358Y0372854D01*
X0046124Y0373089D01*
X0045655Y0373323D01*
X0044249Y0373323D01*
X0043780Y0373089D01*
X0043546Y0372854D01*
X0043312Y0372386D01*
X0043312Y0371683D01*
X0043546Y0371214D01*
X0043780Y0370980D01*
X0044249Y0370745D01*
X0045655Y0370745D01*
X0046124Y0370980D01*
X0046358Y0371214D01*
X0046593Y0371683D01*
X0046593Y0372386D01*
X0043312Y0369105D02*
X0046593Y0368167D01*
X0044249Y0367230D01*
X0046593Y0366293D01*
X0043312Y0365355D01*
X0046358Y0363715D02*
X0046593Y0363246D01*
X0046593Y0362309D01*
X0046358Y0361840D01*
X0045890Y0361606D01*
X0045655Y0361606D01*
X0045187Y0361840D01*
X0044952Y0362309D01*
X0044952Y0363012D01*
X0044718Y0363480D01*
X0044249Y0363715D01*
X0044015Y0363715D01*
X0043546Y0363480D01*
X0043312Y0363012D01*
X0043312Y0362309D01*
X0043546Y0361840D01*
X0046593Y0359497D02*
X0043312Y0359497D01*
X0041671Y0359497D02*
X0041906Y0359731D01*
X0042140Y0359497D01*
X0041906Y0359262D01*
X0041671Y0359497D01*
X0042140Y0359497D01*
X0046593Y0355044D02*
X0041671Y0355044D01*
X0046358Y0355044D02*
X0046593Y0355513D01*
X0046593Y0356450D01*
X0046358Y0356919D01*
X0046124Y0357153D01*
X0045655Y0357387D01*
X0044249Y0357387D01*
X0043780Y0357153D01*
X0043546Y0356919D01*
X0043312Y0356450D01*
X0043312Y0355513D01*
X0043546Y0355044D01*
X0046358Y0350826D02*
X0046593Y0351294D01*
X0046593Y0352232D01*
X0046358Y0352701D01*
X0045890Y0352935D01*
X0044015Y0352935D01*
X0043546Y0352701D01*
X0043312Y0352232D01*
X0043312Y0351294D01*
X0043546Y0350826D01*
X0044015Y0350591D01*
X0044483Y0350591D01*
X0044952Y0352935D01*
X0041437Y0344967D02*
X0047764Y0349185D01*
X0046593Y0343327D02*
X0041671Y0343327D01*
X0043312Y0340983D02*
X0046593Y0340983D01*
X0043780Y0340983D02*
X0043546Y0340749D01*
X0043312Y0340280D01*
X0043312Y0339577D01*
X0043546Y0339109D01*
X0044015Y0338874D01*
X0046593Y0338874D01*
X0043312Y0336531D02*
X0047530Y0336531D01*
X0047999Y0336765D01*
X0048233Y0337234D01*
X0048233Y0337468D01*
X0041671Y0336531D02*
X0041906Y0336765D01*
X0042140Y0336531D01*
X0041906Y0336296D01*
X0041671Y0336531D01*
X0042140Y0336531D01*
X0046358Y0332312D02*
X0046593Y0332781D01*
X0046593Y0333719D01*
X0046358Y0334187D01*
X0045890Y0334422D01*
X0044015Y0334422D01*
X0043546Y0334187D01*
X0043312Y0333719D01*
X0043312Y0332781D01*
X0043546Y0332312D01*
X0044015Y0332078D01*
X0044483Y0332078D01*
X0044952Y0334422D01*
X0046358Y0327860D02*
X0046593Y0328329D01*
X0046593Y0329266D01*
X0046358Y0329735D01*
X0046124Y0329969D01*
X0045655Y0330203D01*
X0044249Y0330203D01*
X0043780Y0329969D01*
X0043546Y0329735D01*
X0043312Y0329266D01*
X0043312Y0328329D01*
X0043546Y0327860D01*
X0043312Y0326454D02*
X0043312Y0324579D01*
X0041671Y0325751D02*
X0045890Y0325751D01*
X0046358Y0325516D01*
X0046593Y0325048D01*
X0046593Y0324579D01*
X0046593Y0322236D02*
X0046358Y0322704D01*
X0046124Y0322939D01*
X0045655Y0323173D01*
X0044249Y0323173D01*
X0043780Y0322939D01*
X0043546Y0322704D01*
X0043312Y0322236D01*
X0043312Y0321533D01*
X0043546Y0321064D01*
X0043780Y0320830D01*
X0044249Y0320595D01*
X0045655Y0320595D01*
X0046124Y0320830D01*
X0046358Y0321064D01*
X0046593Y0321533D01*
X0046593Y0322236D01*
X0046593Y0318486D02*
X0043312Y0318486D01*
X0044249Y0318486D02*
X0043780Y0318252D01*
X0043546Y0318017D01*
X0043312Y0317549D01*
X0043312Y0317080D01*
X0041671Y0310753D02*
X0041671Y0309815D01*
X0041906Y0309347D01*
X0042374Y0308878D01*
X0043312Y0308644D01*
X0044952Y0308644D01*
X0045890Y0308878D01*
X0046358Y0309347D01*
X0046593Y0309815D01*
X0046593Y0310753D01*
X0046358Y0311221D01*
X0045890Y0311690D01*
X0044952Y0311924D01*
X0043312Y0311924D01*
X0042374Y0311690D01*
X0041906Y0311221D01*
X0041671Y0310753D01*
X0043312Y0304425D02*
X0046593Y0304425D01*
X0043312Y0306534D02*
X0045890Y0306534D01*
X0046358Y0306300D01*
X0046593Y0305831D01*
X0046593Y0305128D01*
X0046358Y0304660D01*
X0046124Y0304425D01*
X0043312Y0302785D02*
X0043312Y0300910D01*
X0041671Y0302082D02*
X0045890Y0302082D01*
X0046358Y0301848D01*
X0046593Y0301379D01*
X0046593Y0300910D01*
X0043312Y0299270D02*
X0048233Y0299270D01*
X0043546Y0299270D02*
X0043312Y0298801D01*
X0043312Y0297864D01*
X0043546Y0297395D01*
X0043780Y0297161D01*
X0044249Y0296926D01*
X0045655Y0296926D01*
X0046124Y0297161D01*
X0046358Y0297395D01*
X0046593Y0297864D01*
X0046593Y0298801D01*
X0046358Y0299270D01*
X0043312Y0292708D02*
X0046593Y0292708D01*
X0043312Y0294817D02*
X0045890Y0294817D01*
X0046358Y0294583D01*
X0046593Y0294114D01*
X0046593Y0293411D01*
X0046358Y0292942D01*
X0046124Y0292708D01*
X0043312Y0291068D02*
X0043312Y0289193D01*
X0041671Y0290365D02*
X0045890Y0290365D01*
X0046358Y0290130D01*
X0046593Y0289662D01*
X0046593Y0289193D01*
X0046358Y0287787D02*
X0046593Y0287318D01*
X0046593Y0286381D01*
X0046358Y0285912D01*
X0045890Y0285678D01*
X0045655Y0285678D01*
X0045187Y0285912D01*
X0044952Y0286381D01*
X0044952Y0287084D01*
X0044718Y0287552D01*
X0044249Y0287787D01*
X0044015Y0287787D01*
X0043546Y0287552D01*
X0043312Y0287084D01*
X0043312Y0286381D01*
X0043546Y0285912D01*
D57*
X0442096Y0440799D02*
X0438159Y0440799D01*
X0442096Y0438550D02*
X0439846Y0440237D01*
X0438159Y0438550D02*
X0440409Y0440799D01*
X0439471Y0436862D02*
X0442096Y0436862D01*
X0439846Y0436862D02*
X0439659Y0436675D01*
X0439471Y0436300D01*
X0439471Y0435738D01*
X0439659Y0435363D01*
X0440034Y0435175D01*
X0442096Y0435175D01*
X0442096Y0432738D02*
X0441909Y0433113D01*
X0441721Y0433300D01*
X0441346Y0433488D01*
X0440221Y0433488D01*
X0439846Y0433300D01*
X0439659Y0433113D01*
X0439471Y0432738D01*
X0439471Y0432175D01*
X0439659Y0431800D01*
X0439846Y0431613D01*
X0440221Y0431426D01*
X0441346Y0431426D01*
X0441721Y0431613D01*
X0441909Y0431800D01*
X0442096Y0432175D01*
X0442096Y0432738D01*
X0441909Y0428051D02*
X0442096Y0428426D01*
X0442096Y0429176D01*
X0441909Y0429551D01*
X0441721Y0429738D01*
X0441346Y0429926D01*
X0440221Y0429926D01*
X0439846Y0429738D01*
X0439659Y0429551D01*
X0439471Y0429176D01*
X0439471Y0428426D01*
X0439659Y0428051D01*
X0442096Y0426364D02*
X0438159Y0426364D01*
X0440596Y0425989D02*
X0442096Y0424864D01*
X0439471Y0424864D02*
X0440971Y0426364D01*
D59*
X0100909Y0500371D02*
X0099409Y0500371D01*
X0098660Y0499996D01*
X0097910Y0499246D01*
X0097535Y0497746D01*
X0097535Y0495122D01*
X0097910Y0493622D01*
X0098660Y0492872D01*
X0099409Y0492497D01*
X0100909Y0492497D01*
X0101659Y0492872D01*
X0102409Y0493622D01*
X0102784Y0495122D01*
X0102784Y0497746D01*
X0102409Y0499246D01*
X0101659Y0499996D01*
X0100909Y0500371D01*
X0094160Y0500371D02*
X0094160Y0493997D01*
X0093785Y0493247D01*
X0093410Y0492872D01*
X0092660Y0492497D01*
X0091160Y0492497D01*
X0090411Y0492872D01*
X0090036Y0493247D01*
X0089661Y0493997D01*
X0089661Y0500371D01*
X0087036Y0500371D02*
X0082537Y0500371D01*
X0084786Y0492497D02*
X0084786Y0500371D01*
X0079912Y0492497D02*
X0079912Y0500371D01*
X0076912Y0500371D01*
X0076162Y0499996D01*
X0075787Y0499621D01*
X0075412Y0498871D01*
X0075412Y0497746D01*
X0075787Y0496997D01*
X0076162Y0496622D01*
X0076912Y0496247D01*
X0079912Y0496247D01*
X0072038Y0500371D02*
X0072038Y0493997D01*
X0071663Y0493247D01*
X0071288Y0492872D01*
X0070538Y0492497D01*
X0069038Y0492497D01*
X0068288Y0492872D01*
X0067913Y0493247D01*
X0067538Y0493997D01*
X0067538Y0500371D01*
X0064914Y0500371D02*
X0060414Y0500371D01*
X0062664Y0492497D02*
X0062664Y0500371D01*
X0058165Y0492872D02*
X0057040Y0492497D01*
X0055165Y0492497D01*
X0054415Y0492872D01*
X0054040Y0493247D01*
X0053665Y0493997D01*
X0053665Y0494747D01*
X0054040Y0495497D01*
X0054415Y0495872D01*
X0055165Y0496247D01*
X0056665Y0496622D01*
X0057415Y0496997D01*
X0057790Y0497372D01*
X0058165Y0498121D01*
X0058165Y0498871D01*
X0057790Y0499621D01*
X0057415Y0499996D01*
X0056665Y0500371D01*
X0054790Y0500371D01*
X0053665Y0499996D01*
D57*
X0071096Y0275675D02*
X0071096Y0277925D01*
X0071096Y0276800D02*
X0067159Y0276800D01*
X0067722Y0277175D01*
X0068097Y0277550D01*
X0068284Y0277925D01*
X0067159Y0272301D02*
X0067159Y0273051D01*
X0067347Y0273426D01*
X0067534Y0273613D01*
X0068097Y0273988D01*
X0068846Y0274175D01*
X0070346Y0274175D01*
X0070721Y0273988D01*
X0070909Y0273800D01*
X0071096Y0273426D01*
X0071096Y0272676D01*
X0070909Y0272301D01*
X0070721Y0272113D01*
X0070346Y0271926D01*
X0069409Y0271926D01*
X0069034Y0272113D01*
X0068846Y0272301D01*
X0068659Y0272676D01*
X0068659Y0273426D01*
X0068846Y0273800D01*
X0069034Y0273988D01*
X0069409Y0274175D01*
X0474691Y0269282D02*
X0478628Y0267969D01*
X0474691Y0266657D01*
X0478628Y0263282D02*
X0478628Y0265532D01*
X0478628Y0264407D02*
X0474691Y0264407D01*
X0475253Y0264782D01*
X0475628Y0265157D01*
X0475815Y0265532D01*
X0459659Y0358425D02*
X0459659Y0356175D01*
X0463596Y0357300D02*
X0459659Y0357300D01*
X0460034Y0355050D02*
X0459847Y0354863D01*
X0459659Y0354488D01*
X0459659Y0353551D01*
X0459847Y0353176D01*
X0460034Y0352988D01*
X0460409Y0352801D01*
X0460784Y0352801D01*
X0461346Y0352988D01*
X0463596Y0355238D01*
X0463596Y0352801D01*
D60*
X0499300Y0538610D02*
G75*
G03*
X0499300Y0538610I-001500J0000000D01*
G01*
D62*
X0203815Y0444878D02*
X0204209Y0475390D01*
X0353618Y0428933D02*
X0353618Y0460823D01*
X0085311Y0270469D02*
X0070351Y0264366D01*
X0258736Y0462004D02*
X0258736Y0488185D01*
X0482752Y0417319D02*
X0493776Y0417319D01*
X0465232Y0424406D02*
X0476847Y0424406D01*
D63*
X0408540Y0202949D02*
X0408540Y0505705D01*
D62*
X0476847Y0393303D02*
X0482752Y0385429D01*
X0038854Y0405508D02*
X0038658Y0255902D01*
X0306374Y0419484D02*
X0290823Y0419484D01*
X0482752Y0432870D02*
X0476847Y0424406D01*
D63*
X0155193Y0515941D02*
X0155193Y0389563D01*
D62*
X0069366Y0414760D02*
X0056768Y0419878D01*
X0436295Y0442319D02*
X0449288Y0448815D01*
X0449288Y0458854D02*
X0467988Y0458854D01*
X0353618Y0428933D02*
X0306374Y0428933D01*
X0085114Y0461217D02*
X0079996Y0461217D01*
X0493776Y0370862D02*
X0502634Y0370862D01*
X0502437Y0256492D02*
X0444366Y0256099D01*
X0079996Y0461217D02*
X0051847Y0461217D01*
X0353618Y0476768D02*
X0353618Y0460823D01*
X0294563Y0488382D02*
X0298303Y0476965D01*
D63*
X0155193Y0389563D02*
X0394563Y0389563D01*
D62*
X0251256Y0451965D02*
X0252831Y0444878D01*
X0105587Y0256099D02*
X0105587Y0446650D01*
D63*
X0014839Y0505705D02*
X0141217Y0505705D01*
D62*
X0467791Y0452949D02*
X0482752Y0432870D01*
X0436295Y0423421D02*
X0436295Y0442319D01*
X0227831Y0488185D02*
X0227831Y0462004D01*
X0460311Y0432870D02*
X0465232Y0424406D01*
X0476847Y0424406D02*
X0482752Y0417319D01*
D63*
X0014839Y0202949D02*
X0141217Y0202949D01*
D62*
X0493776Y0443894D02*
X0502634Y0443894D01*
X0282752Y0449209D02*
X0286886Y0444878D01*
X0290823Y0474012D02*
X0298303Y0476965D01*
X0493776Y0385429D02*
X0493776Y0370862D01*
X0445351Y0353933D02*
X0455784Y0353933D01*
D63*
X0014839Y0505705D02*
X0014839Y0202949D01*
D62*
X0444169Y0337791D02*
X0445351Y0353933D01*
X0235311Y0462004D02*
X0235311Y0444878D01*
X0278815Y0444878D02*
X0282752Y0449209D01*
X0458343Y0385429D02*
X0465232Y0393303D01*
X0445351Y0353933D02*
X0448894Y0385429D01*
X0208933Y0422831D02*
X0208736Y0444878D01*
X0204209Y0475390D02*
X0227831Y0475390D01*
X0105587Y0446650D02*
X0085114Y0446650D01*
X0502634Y0463579D02*
X0467988Y0463185D01*
X0480980Y0377949D02*
X0479799Y0256295D01*
X0448894Y0416335D02*
X0436295Y0423421D01*
X0286886Y0444878D02*
X0353618Y0444878D01*
X0460902Y0337988D02*
X0444169Y0337791D01*
X0448894Y0385429D02*
X0458343Y0385429D01*
X0465823Y0345862D02*
X0460902Y0337988D01*
X0282752Y0449209D02*
X0282752Y0456492D01*
X0085311Y0300390D02*
X0070351Y0297043D01*
X0448894Y0385429D02*
X0448894Y0416335D01*
X0085114Y0461217D02*
X0085311Y0300390D01*
X0449288Y0448815D02*
X0461492Y0448815D01*
X0290823Y0419484D02*
X0290823Y0444878D01*
X0070351Y0297043D02*
X0070547Y0284445D01*
X0465232Y0393303D02*
X0476847Y0393303D01*
X0461492Y0448815D02*
X0465823Y0440351D01*
X0085114Y0432477D02*
X0105587Y0432477D01*
X0227831Y0444484D02*
X0227831Y0423028D01*
X0258736Y0444878D02*
X0258736Y0429917D01*
X0290823Y0429917D02*
X0227831Y0429917D01*
X0449288Y0448815D02*
X0449288Y0458854D01*
X0252831Y0444878D02*
X0278815Y0444878D01*
X0493776Y0417319D02*
X0493776Y0443894D01*
X0465823Y0440351D02*
X0460311Y0432870D01*
X0251453Y0462004D02*
X0251256Y0451965D01*
X0227831Y0423028D02*
X0208933Y0422831D01*
X0469760Y0437988D02*
X0464839Y0450980D01*
X0085311Y0406886D02*
X0069366Y0410429D01*
D63*
X0534917Y0505705D02*
X0408540Y0505705D01*
D62*
X0444366Y0256099D02*
X0444169Y0337791D01*
X0306374Y0444681D02*
X0306374Y0419484D01*
X0069366Y0410429D02*
X0069366Y0414760D01*
X0459917Y0416532D02*
X0448894Y0416335D01*
X0070351Y0264366D02*
X0070154Y0256099D01*
X0070154Y0256099D02*
X0105587Y0256099D01*
X0069957Y0348815D02*
X0069957Y0375980D01*
X0252831Y0444878D02*
X0203815Y0444878D01*
D63*
X0141217Y0505705D02*
X0141217Y0202949D01*
D62*
X0482752Y0385429D02*
X0493776Y0385429D01*
D63*
X0394563Y0389563D02*
X0394563Y0515941D01*
X0534917Y0202949D02*
X0534917Y0505705D01*
D62*
X0502634Y0463579D02*
X0502437Y0256492D01*
X0070547Y0284445D02*
X0085311Y0280902D01*
X0052043Y0425390D02*
X0038854Y0405508D01*
X0290823Y0463973D02*
X0290823Y0474012D01*
X0465232Y0424406D02*
X0459917Y0416532D01*
X0482752Y0385429D02*
X0480980Y0377949D01*
D63*
X0534917Y0202949D02*
X0408540Y0202949D01*
D62*
X0282752Y0456492D02*
X0290823Y0463973D01*
X0038658Y0255902D02*
X0070154Y0256099D01*
X0227831Y0462004D02*
X0258736Y0462004D01*
X0056768Y0419878D02*
X0052043Y0425390D01*
X0467988Y0463185D02*
X0467791Y0452949D01*
X0051847Y0461217D02*
X0052043Y0425390D01*
X0085311Y0280902D02*
X0085311Y0270469D01*
X0085311Y0343894D02*
X0069957Y0348815D01*
X0228225Y0488185D02*
X0294563Y0488382D01*
X0455784Y0353933D02*
X0465823Y0345862D01*
X0069957Y0375980D02*
X0085114Y0379917D01*
X0298303Y0476965D02*
X0353618Y0476768D01*
D63*
X0394563Y0515941D02*
X0155193Y0515941D01*
D10*
X0471977Y0117453D02*
X0317843Y0117453D01*
X0317843Y0117453D02*
X0317843Y0058791D01*
X0317843Y0058791D02*
X0471977Y0058791D01*
X0471977Y0058791D02*
X0471977Y0117453D01*
X0285463Y0109490D02*
X0284381Y0108408D01*
X0280911Y0065494D02*
X0308049Y0065494D01*
X0285463Y0109490D02*
X0307896Y0109490D01*
X0307896Y0109490D02*
X0308049Y0065494D01*
X0281133Y0108408D02*
X0280936Y0108186D01*
X0281133Y0108408D02*
X0284381Y0108408D01*
X0280936Y0108186D02*
X0280936Y0065494D01*
X0081858Y0057807D02*
X0235992Y0057807D01*
X0235992Y0057807D02*
X0235992Y0116469D01*
X0235992Y0116469D02*
X0081858Y0116469D01*
X0081858Y0116469D02*
X0081858Y0057807D01*
X0270868Y0066577D02*
X0267620Y0066577D01*
X0266537Y0065494D02*
X0244105Y0065494D01*
X0266537Y0065494D02*
X0267620Y0066577D01*
X0244105Y0065494D02*
X0243952Y0109490D01*
X0270868Y0066577D02*
X0271064Y0066798D01*
X0271089Y0109490D02*
X0243952Y0109490D01*
X0271064Y0066798D02*
X0271064Y0109490D01*
X0315126Y0195602D02*
%LPD*%
G01*
D57*
X0289048Y0137934D02*
X0289985Y0141871D01*
X0290735Y0139059D01*
X0291485Y0141871D01*
X0292423Y0137934D01*
X0295235Y0139809D02*
X0295797Y0139996D01*
X0295985Y0140184D01*
X0296172Y0140559D01*
X0296172Y0141121D01*
X0295985Y0141496D01*
X0295797Y0141684D01*
X0295422Y0141871D01*
X0293922Y0141871D01*
X0293922Y0137934D01*
X0295235Y0137934D01*
X0295610Y0138122D01*
X0295797Y0138309D01*
X0295985Y0138684D01*
X0295985Y0139059D01*
X0295797Y0139434D01*
X0295610Y0139621D01*
X0295235Y0139809D01*
X0293922Y0139809D01*
X0298609Y0137934D02*
X0299359Y0137934D01*
X0299734Y0138122D01*
X0300109Y0138497D01*
X0300297Y0139247D01*
X0300297Y0140559D01*
X0300109Y0141309D01*
X0299734Y0141684D01*
X0299359Y0141871D01*
X0298609Y0141871D01*
X0298234Y0141684D01*
X0297859Y0141309D01*
X0297672Y0140559D01*
X0297672Y0139247D01*
X0297859Y0138497D01*
X0298234Y0138122D01*
X0298609Y0137934D01*
X0305733Y0137934D02*
X0306108Y0137934D01*
X0306483Y0138122D01*
X0306671Y0138309D01*
X0306858Y0138684D01*
X0307046Y0139434D01*
X0307046Y0140371D01*
X0306858Y0141121D01*
X0306671Y0141496D01*
X0306483Y0141684D01*
X0306108Y0141871D01*
X0305733Y0141871D01*
X0305358Y0141684D01*
X0305171Y0141496D01*
X0304984Y0141121D01*
X0304796Y0140371D01*
X0304796Y0139434D01*
X0304984Y0138684D01*
X0305171Y0138309D01*
X0305358Y0138122D01*
X0305733Y0137934D01*
X0308733Y0141496D02*
X0308921Y0141684D01*
X0308733Y0141871D01*
X0308546Y0141684D01*
X0308733Y0141496D01*
X0308733Y0141871D01*
X0310233Y0137934D02*
X0312670Y0137934D01*
X0311358Y0139434D01*
X0311920Y0139434D01*
X0312295Y0139621D01*
X0312483Y0139809D01*
X0312670Y0140184D01*
X0312670Y0141121D01*
X0312483Y0141496D01*
X0312295Y0141684D01*
X0311920Y0141871D01*
X0310795Y0141871D01*
X0310420Y0141684D01*
X0310233Y0141496D01*
D10*
X0160598Y0136547D02*
X0314732Y0136547D01*
X0314732Y0136547D02*
X0314732Y0195208D01*
X0314732Y0195208D02*
X0160598Y0195208D01*
X0160598Y0195208D02*
X0160598Y0136547D01*
X0359282Y0188624D02*
G01*
G75*
D10*
X0359873Y0187148D02*
X0359676Y0186926D01*
X0359873Y0187148D02*
X0363121Y0187148D01*
X0364203Y0188230D02*
X0363121Y0187148D01*
X0359651Y0144234D02*
X0386789Y0144234D01*
X0386636Y0188230D02*
X0386789Y0144234D01*
X0359676Y0186926D02*
X0359676Y0144234D01*
X0364203Y0188230D02*
X0386636Y0188230D01*
D99*
X0381442Y0154879D02*
X0381442Y0152517D01*
X0380655Y0151730D01*
X0379081Y0151730D01*
X0378294Y0152517D01*
X0378294Y0154879D01*
X0381442Y0157240D02*
X0381442Y0158815D01*
X0380655Y0159602D01*
X0378294Y0159602D01*
X0378294Y0157240D01*
X0379081Y0156453D01*
X0379868Y0157240D01*
X0379868Y0159602D01*
X0378294Y0161176D02*
X0381442Y0161176D01*
X0381442Y0163537D01*
X0380655Y0164325D01*
X0378294Y0164325D01*
X0380655Y0165899D02*
X0380655Y0169047D01*
X0382230Y0170622D02*
X0383017Y0171409D01*
X0383017Y0172983D01*
X0382230Y0173770D01*
X0379081Y0173770D01*
X0378294Y0172983D01*
X0378294Y0171409D01*
X0379081Y0170622D01*
X0382230Y0170622D01*
X0378294Y0175345D02*
X0379081Y0175345D01*
X0379081Y0176132D01*
X0378294Y0176132D01*
X0378294Y0175345D01*
X0378294Y0179280D02*
X0378294Y0180855D01*
X0378294Y0180068D01*
X0383017Y0180068D01*
X0382230Y0179280D01*
X0396189Y0137138D02*
%LPD*%
G01*
D57*
X0422267Y0194806D02*
X0421330Y0190869D01*
X0420580Y0193681D01*
X0419830Y0190869D01*
X0418892Y0194806D01*
X0416080Y0192931D02*
X0415518Y0192744D01*
X0415330Y0192556D01*
X0415143Y0192181D01*
X0415143Y0191619D01*
X0415330Y0191244D01*
X0415518Y0191056D01*
X0415893Y0190869D01*
X0417393Y0190869D01*
X0417393Y0194806D01*
X0416080Y0194806D01*
X0415705Y0194618D01*
X0415518Y0194431D01*
X0415330Y0194056D01*
X0415330Y0193681D01*
X0415518Y0193306D01*
X0415705Y0193119D01*
X0416080Y0192931D01*
X0417393Y0192931D01*
X0412706Y0194806D02*
X0411956Y0194806D01*
X0411581Y0194618D01*
X0411206Y0194243D01*
X0411018Y0193493D01*
X0411018Y0192181D01*
X0411206Y0191431D01*
X0411581Y0191056D01*
X0411956Y0190869D01*
X0412706Y0190869D01*
X0413081Y0191056D01*
X0413456Y0191431D01*
X0413643Y0192181D01*
X0413643Y0193493D01*
X0413456Y0194243D01*
X0413081Y0194618D01*
X0412706Y0194806D01*
X0405582Y0194806D02*
X0405207Y0194806D01*
X0404832Y0194618D01*
X0404644Y0194431D01*
X0404457Y0194056D01*
X0404269Y0193306D01*
X0404269Y0192369D01*
X0404457Y0191619D01*
X0404644Y0191244D01*
X0404832Y0191056D01*
X0405207Y0190869D01*
X0405582Y0190869D01*
X0405957Y0191056D01*
X0406144Y0191244D01*
X0406331Y0191619D01*
X0406519Y0192369D01*
X0406519Y0193306D01*
X0406331Y0194056D01*
X0406144Y0194431D01*
X0405957Y0194618D01*
X0405582Y0194806D01*
X0402582Y0191244D02*
X0402394Y0191056D01*
X0402582Y0190869D01*
X0402769Y0191056D01*
X0402582Y0191244D01*
X0402582Y0190869D01*
X0401082Y0194806D02*
X0398645Y0194806D01*
X0399957Y0193306D01*
X0399395Y0193306D01*
X0399020Y0193119D01*
X0398832Y0192931D01*
X0398645Y0192556D01*
X0398645Y0191619D01*
X0398832Y0191244D01*
X0399020Y0191056D01*
X0399395Y0190869D01*
X0400520Y0190869D01*
X0400895Y0191056D01*
X0401082Y0191244D01*
D10*
X0550717Y0196193D02*
X0396583Y0196193D01*
X0396583Y0196193D02*
X0396583Y0137532D01*
X0396583Y0137532D02*
X0550717Y0137532D01*
X0550717Y0137532D02*
X0550717Y0196193D01*
X0350198Y0143841D02*
G01*
G75*
D10*
X0349607Y0145317D02*
X0349804Y0145539D01*
X0349607Y0145317D02*
X0346359Y0145317D01*
X0345277Y0144235D02*
X0346359Y0145317D01*
X0349829Y0188231D02*
X0322691Y0188231D01*
X0322844Y0144235D02*
X0322691Y0188231D01*
X0349804Y0145539D02*
X0349804Y0188231D01*
X0345277Y0144235D02*
X0322844Y0144235D01*
D99*
X0328038Y0177586D02*
X0328038Y0179948D01*
X0328825Y0180735D01*
X0330399Y0180735D01*
X0331186Y0179948D01*
X0331186Y0177586D01*
X0328038Y0175225D02*
X0328038Y0173650D01*
X0328825Y0172863D01*
X0331186Y0172863D01*
X0331186Y0175225D01*
X0330399Y0176012D01*
X0329612Y0175225D01*
X0329612Y0172863D01*
X0331186Y0171289D02*
X0328038Y0171289D01*
X0328038Y0168928D01*
X0328825Y0168140D01*
X0331186Y0168140D01*
X0328825Y0166566D02*
X0328825Y0163418D01*
X0327250Y0161843D02*
X0326463Y0161056D01*
X0326463Y0159482D01*
X0327250Y0158695D01*
X0330399Y0158695D01*
X0331186Y0159482D01*
X0331186Y0161056D01*
X0330399Y0161843D01*
X0327250Y0161843D01*
X0331186Y0157120D02*
X0330399Y0157120D01*
X0330399Y0156333D01*
X0331186Y0156333D01*
X0331186Y0157120D01*
X0331186Y0153185D02*
X0331186Y0151610D01*
X0331186Y0152397D01*
X0326463Y0152397D01*
X0327250Y0153185D01*
M02*
